<svg width="16" height="16" viewBox="0 0 16 16" fill="none" xmlns="http://www.w3.org/2000/svg">
<rect width="16" height="16" fill="#E5E5E5"/>
<rect width="16" height="16" fill="#9CB2FF"/>
<path d="M5.60344 6.68C6.1421 6.68 6.5741 6.83733 6.89944 7.152C7.22477 7.46667 7.38744 7.93333 7.38744 8.552V11H6.38744V8.68C6.38744 8.30667 6.29944 8.02667 6.12344 7.84C5.94744 7.648 5.69677 7.552 5.37144 7.552C5.00344 7.552 4.71277 7.664 4.49944 7.888C4.2861 8.10667 4.17944 8.424 4.17944 8.84V11H3.17944V6.728H4.13144V7.28C4.29677 7.08267 4.50477 6.93333 4.75544 6.832C5.0061 6.73067 5.28877 6.68 5.60344 6.68ZM11.08 6.68C11.6187 6.68 12.0507 6.83733 12.376 7.152C12.7013 7.46667 12.864 7.93333 12.864 8.552V11H11.864V8.68C11.864 8.30667 11.776 8.02667 11.6 7.84C11.424 7.648 11.1733 7.552 10.848 7.552C10.48 7.552 10.1893 7.664 9.976 7.888C9.76267 8.10667 9.656 8.424 9.656 8.84V11H8.656V5.064H9.656V7.224C9.82133 7.048 10.024 6.91467 10.264 6.824C10.5093 6.728 10.7813 6.68 11.08 6.68Z" fill="black"/>
</svg>
