<svg width="566" height="342" viewBox="0 0 566 342" fill="none" xmlns="http://www.w3.org/2000/svg">
<rect width="566" height="342" fill="white"/>
<rect width="566" height="342" fill="#FFCA0E"/>
<g clip-path="url(#clip0)">
<path d="M325.343 145.582C316.026 145.582 307.227 149.206 300.919 155.514L282.641 171.689L282.608 171.657L272.806 180.294L272.871 180.359L255.434 195.822C251.293 199.931 245.794 202.196 239.938 202.196C227.839 202.196 218.005 192.393 218.005 180.359C218.005 168.325 227.839 158.523 239.938 158.523C245.794 158.523 251.293 160.787 255.725 165.187L263.069 171.689L272.838 163.052L264.654 155.805C258.054 149.238 249.287 145.615 239.938 145.615C220.658 145.582 205 161.175 205 180.359C205 199.543 220.658 215.136 239.938 215.136C249.255 215.136 258.022 211.513 264.363 205.237L282.641 189.029L282.673 189.062L292.443 180.392L292.411 180.359L309.847 164.928C313.988 160.787 319.488 158.523 325.343 158.523C337.442 158.523 347.277 168.325 347.277 180.359C347.277 192.393 337.442 202.196 325.343 202.196C319.488 202.196 313.988 199.931 309.556 195.564L302.213 189.061L292.443 197.731L300.628 204.978C307.227 211.545 315.994 215.136 325.311 215.136C344.624 215.136 360.282 199.543 360.282 180.359C360.282 161.175 344.624 145.582 325.343 145.582Z" fill="#333333"/>
<path d="M286.824 132.914C293.611 128.369 302.796 130.186 307.341 136.972L316.366 150.447C318.639 153.84 317.73 158.433 314.337 160.705C310.944 162.978 306.351 162.069 304.079 158.676L286.824 132.914Z" fill="#333333"/>
</g>
<path d="M269.906 108.059C269.906 101.025 275.608 95.3239 282.641 95.3239H292.089C304.341 95.3239 314.272 105.256 314.272 117.507V120.793H282.641C275.608 120.793 269.906 115.092 269.906 108.059Z" fill="#333333"/>
<defs>
<clipPath id="clip0">
<rect width="155.282" height="155.282" fill="white" transform="translate(205 102.718)"/>
</clipPath>
</defs>
</svg>
