<svg width="1500" height="475" viewBox="0 0 1500 475" fill="none" xmlns="http://www.w3.org/2000/svg">
<rect width="1500" height="475" fill="#E5E5E5"/>
<rect width="1500" height="475" fill="white"/>
<path d="M645.998 165.44C644.208 165.44 642.648 165.016 641.318 164.168C639.999 163.309 638.973 162.084 638.24 160.493C637.507 158.901 637.141 156.99 637.141 154.76C637.141 152.457 637.518 150.525 638.271 148.965C639.036 147.395 640.083 146.212 641.412 145.416C642.753 144.61 644.281 144.207 645.998 144.207C648.375 144.207 650.228 144.782 651.558 145.934C652.898 147.086 653.757 148.583 654.134 150.426L650.176 151.148C649.851 150.08 649.333 149.216 648.621 148.557C647.909 147.897 647.035 147.567 645.998 147.567C645.087 147.567 644.266 147.834 643.533 148.368C642.8 148.892 642.213 149.688 641.774 150.756C641.344 151.824 641.13 153.158 641.13 154.76C641.13 156.268 641.318 157.566 641.695 158.655C642.083 159.744 642.637 160.582 643.36 161.168C644.082 161.754 644.962 162.047 645.998 162.047C647.328 162.047 648.354 161.697 649.077 160.995C649.809 160.283 650.176 159.378 650.176 158.278H654.134C654.134 159.796 653.804 161.089 653.144 162.157C652.495 163.215 651.563 164.026 650.349 164.592C649.134 165.157 647.684 165.44 645.998 165.44ZM665.403 144.615H669.109V153.127H677.998V144.615H681.705V165H677.998V156.362H669.109V165H665.403V144.615ZM692.23 165L699.171 144.615H703.82L710.479 165H706.584L705.171 160.603H697.601L696.156 165H692.23ZM698.543 157.807H704.291L701.433 149.044L698.543 157.807ZM724.738 144.615V161.765H733.125V165H721.032V144.615H724.738ZM747.169 144.615V161.765H755.556V165H743.463V144.615H747.169ZM765.863 165V144.615H778.961V147.819H769.569V153.19H778.395V156.394H769.569V161.765H778.961V165H765.863ZM791.177 144.615H795.228L804.494 159.158H804.212V144.615H807.918V165H804.149L794.286 149.578H794.883V165H791.177V144.615ZM828.108 165.44C826.444 165.44 824.941 165 823.601 164.121C822.261 163.241 821.193 162.016 820.397 160.446C819.612 158.865 819.219 157.022 819.219 154.917C819.219 153.253 819.46 151.761 819.942 150.441C820.434 149.122 821.114 147.997 821.983 147.065C822.852 146.133 823.873 145.426 825.046 144.945C826.219 144.453 827.491 144.207 828.862 144.207C830.768 144.207 832.364 144.62 833.652 145.447C834.951 146.274 835.961 147.578 836.683 149.358L832.883 150.237C832.349 149.368 831.731 148.709 831.029 148.258C830.338 147.798 829.553 147.567 828.674 147.567C827.669 147.567 826.752 147.866 825.925 148.463C825.098 149.049 824.439 149.892 823.947 150.991C823.454 152.09 823.208 153.399 823.208 154.917C823.208 156.341 823.423 157.587 823.852 158.655C824.292 159.723 824.905 160.555 825.69 161.152C826.475 161.749 827.386 162.047 828.422 162.047C829.302 162.047 830.087 161.854 830.778 161.466C831.48 161.069 832.029 160.503 832.427 159.77C832.836 159.037 833.04 158.153 833.04 157.116H833.856C833.856 158.812 833.652 160.283 833.244 161.529C832.846 162.775 832.223 163.738 831.375 164.419C830.527 165.099 829.438 165.44 828.108 165.44ZM833.574 165L833.04 160.508V156.99L828.454 156.896V154.54H836.589V165H833.574ZM848.8 165V144.615H861.898V147.819H852.506V153.19H861.333V156.394H852.506V161.765H861.898V165H848.8Z" fill="#383838"/>
<path d="M510.735 233.636H512.579V238.964H518.382V233.636H520.216V246H518.382V240.565H512.579V246H510.735V233.636ZM527.05 246.252C526.202 246.252 525.442 246.068 524.769 245.699C524.103 245.33 523.576 244.78 523.187 244.049C522.799 243.318 522.605 242.416 522.605 241.342C522.605 240.248 522.799 239.339 523.187 238.614C523.576 237.883 524.103 237.333 524.769 236.965C525.442 236.596 526.202 236.411 527.05 236.411C527.885 236.411 528.635 236.596 529.302 236.965C529.968 237.333 530.492 237.883 530.874 238.614C531.262 239.339 531.456 240.248 531.456 241.342C531.456 242.416 531.262 243.318 530.874 244.049C530.492 244.78 529.968 245.33 529.302 245.699C528.635 246.068 527.885 246.252 527.05 246.252ZM526.992 244.641C527.529 244.641 527.991 244.512 528.38 244.253C528.774 243.994 529.075 243.619 529.282 243.127C529.496 242.629 529.602 242.034 529.602 241.342C529.602 240.281 529.386 239.459 528.952 238.877C528.525 238.294 527.907 238.003 527.099 238.003C526.555 238.003 526.086 238.136 525.691 238.401C525.303 238.66 525.002 239.038 524.789 239.536C524.582 240.028 524.478 240.63 524.478 241.342C524.478 242.383 524.695 243.195 525.128 243.778C525.562 244.353 526.183 244.641 526.992 244.641ZM532.226 236.664H534.148L536.371 244.156H536.167L538.312 237.139H539.913L542.048 244.175H541.854L544.076 236.664H545.92L542.853 246H541.048L538.933 239.401H539.214L537.127 246H535.322L532.226 236.664ZM555.313 246.252C554.55 246.252 553.838 246.049 553.178 245.641C552.518 245.233 551.988 244.661 551.586 243.923C551.185 243.186 550.985 242.319 550.985 241.322C550.985 240.274 551.185 239.388 551.586 238.663C551.988 237.932 552.518 237.375 553.178 236.994C553.838 236.606 554.55 236.411 555.313 236.411C555.876 236.411 556.377 236.502 556.817 236.683C557.257 236.858 557.636 237.097 557.953 237.401C558.27 237.699 558.525 238.035 558.72 238.411C558.92 238.786 559.059 239.174 559.137 239.575L557.264 239.672C557.128 239.187 556.889 238.799 556.546 238.508C556.209 238.21 555.792 238.061 555.294 238.061C554.873 238.061 554.475 238.181 554.1 238.42C553.731 238.653 553.43 239.012 553.197 239.498C552.971 239.976 552.858 240.585 552.858 241.322C552.858 242.008 552.965 242.594 553.178 243.079C553.392 243.564 553.683 243.936 554.051 244.195C554.42 244.454 554.834 244.583 555.294 244.583C555.954 244.583 556.445 244.425 556.769 244.108C557.099 243.784 557.264 243.341 557.264 242.778H559.137C559.137 243.431 558.985 244.02 558.681 244.544C558.377 245.068 557.937 245.486 557.361 245.796C556.792 246.1 556.109 246.252 555.313 246.252ZM567.405 246L567.172 243.855V239.963C567.172 239.2 567.014 238.647 566.697 238.304C566.38 237.955 565.878 237.78 565.193 237.78C564.804 237.78 564.458 237.838 564.154 237.955C563.856 238.065 563.62 238.233 563.446 238.459C563.277 238.686 563.193 238.97 563.193 239.313H561.155C561.155 238.627 561.323 238.071 561.66 237.644C561.996 237.217 562.465 236.906 563.067 236.712C563.675 236.512 564.384 236.411 565.193 236.411C565.95 236.411 566.616 236.538 567.192 236.79C567.768 237.036 568.214 237.424 568.531 237.955C568.855 238.485 569.016 239.171 569.016 240.012V246H567.405ZM564.28 246.252C563.497 246.252 562.847 246.116 562.33 245.845C561.812 245.567 561.424 245.204 561.165 244.758C560.913 244.311 560.786 243.836 560.786 243.331C560.786 242.716 560.942 242.212 561.252 241.817C561.569 241.416 562.006 241.118 562.562 240.924C563.119 240.73 563.759 240.633 564.484 240.633C564.982 240.633 565.468 240.678 565.94 240.769C566.412 240.86 566.878 240.979 567.337 241.128V242.244C566.962 242.108 566.545 242.002 566.085 241.924C565.632 241.84 565.209 241.798 564.814 241.798C564.225 241.798 563.734 241.914 563.339 242.147C562.944 242.38 562.747 242.775 562.747 243.331C562.747 243.739 562.902 244.091 563.213 244.389C563.523 244.68 564.015 244.826 564.688 244.826C565.18 244.826 565.613 244.716 565.988 244.496C566.364 244.269 566.655 243.988 566.862 243.651C567.069 243.315 567.172 242.979 567.172 242.642H567.619C567.619 243.289 567.486 243.888 567.221 244.437C566.962 244.981 566.584 245.421 566.085 245.757C565.587 246.087 564.985 246.252 564.28 246.252ZM578.584 246V240.526C578.584 239.718 578.39 239.106 578.002 238.692C577.62 238.272 577.102 238.061 576.449 238.061C575.931 238.061 575.478 238.204 575.09 238.488C574.709 238.767 574.411 239.177 574.197 239.721C573.99 240.258 573.887 240.915 573.887 241.691H573.227C573.227 240.546 573.372 239.582 573.664 238.799C573.961 238.016 574.385 237.424 574.935 237.023C575.485 236.615 576.145 236.411 576.915 236.411C577.665 236.411 578.299 236.58 578.817 236.916C579.341 237.253 579.739 237.731 580.011 238.352C580.282 238.967 580.418 239.692 580.418 240.526V246H578.584ZM572.043 246V236.664H573.644L573.887 238.682V246H572.043ZM586.279 246L590.51 233.636H592.791L596.896 246H594.955L593.995 243.05H589.22L588.22 246H586.279ZM589.686 241.633H593.538L591.617 235.858L589.686 241.633ZM605.062 236.635H606.916V246H605.062V236.635ZM598.54 236.635H600.384V242.419C600.384 243.124 600.556 243.658 600.899 244.02C601.248 244.382 601.737 244.564 602.364 244.564C602.895 244.564 603.361 244.425 603.762 244.146C604.169 243.868 604.486 243.473 604.713 242.962C604.946 242.451 605.062 241.846 605.062 241.148H605.654C605.654 242.241 605.505 243.16 605.208 243.904C604.91 244.648 604.493 245.214 603.956 245.602C603.419 245.984 602.791 246.175 602.073 246.175C601.387 246.175 600.776 246.049 600.239 245.796C599.708 245.544 599.291 245.156 598.987 244.632C598.689 244.101 598.54 243.418 598.54 242.584V236.635ZM613.21 246.252C612.679 246.252 612.2 246.152 611.773 245.951C611.346 245.751 611.007 245.45 610.754 245.049C610.508 244.641 610.386 244.13 610.386 243.516V234.121H612.22V243.457C612.22 244.337 612.631 244.777 613.452 244.777C613.705 244.777 613.951 244.751 614.19 244.7C614.429 244.641 614.701 244.557 615.005 244.447L615.267 245.757C614.924 245.9 614.585 246.016 614.248 246.107C613.918 246.204 613.572 246.252 613.21 246.252ZM608.959 237.916V236.664H614.986V237.916H608.959ZM620.688 246.252C619.841 246.252 619.08 246.068 618.407 245.699C617.741 245.33 617.214 244.78 616.826 244.049C616.437 243.318 616.243 242.416 616.243 241.342C616.243 240.248 616.437 239.339 616.826 238.614C617.214 237.883 617.741 237.333 618.407 236.965C619.08 236.596 619.841 236.411 620.688 236.411C621.523 236.411 622.273 236.596 622.94 236.965C623.606 237.333 624.13 237.883 624.512 238.614C624.9 239.339 625.094 240.248 625.094 241.342C625.094 242.416 624.9 243.318 624.512 244.049C624.13 244.78 623.606 245.33 622.94 245.699C622.273 246.068 621.523 246.252 620.688 246.252ZM620.63 244.641C621.167 244.641 621.63 244.512 622.018 244.253C622.412 243.994 622.713 243.619 622.92 243.127C623.134 242.629 623.241 242.034 623.241 241.342C623.241 240.281 623.024 239.459 622.59 238.877C622.163 238.294 621.545 238.003 620.737 238.003C620.193 238.003 619.724 238.136 619.329 238.401C618.941 238.66 618.64 239.038 618.427 239.536C618.22 240.028 618.116 240.63 618.116 241.342C618.116 242.383 618.333 243.195 618.767 243.778C619.2 244.353 619.821 244.641 620.63 244.641ZM627.456 233.636H630.106L634.026 241.759H633.852L637.773 233.636H640.335V246H638.471V235.664H638.772L634.541 244.535H633.328L629.116 235.713H629.3V246H627.456V233.636ZM647.146 246.252C646.298 246.252 645.538 246.068 644.865 245.699C644.199 245.33 643.671 244.78 643.283 244.049C642.895 243.318 642.701 242.416 642.701 241.342C642.701 240.248 642.895 239.339 643.283 238.614C643.671 237.883 644.199 237.333 644.865 236.965C645.538 236.596 646.298 236.411 647.146 236.411C647.98 236.411 648.731 236.596 649.397 236.965C650.064 237.333 650.588 237.883 650.969 238.614C651.358 239.339 651.552 240.248 651.552 241.342C651.552 242.416 651.358 243.318 650.969 244.049C650.588 244.78 650.064 245.33 649.397 245.699C648.731 246.068 647.98 246.252 647.146 246.252ZM647.087 244.641C647.624 244.641 648.087 244.512 648.475 244.253C648.87 243.994 649.171 243.619 649.378 243.127C649.591 242.629 649.698 242.034 649.698 241.342C649.698 240.281 649.481 239.459 649.048 238.877C648.621 238.294 648.003 238.003 647.194 238.003C646.651 238.003 646.182 238.136 645.787 238.401C645.399 238.66 645.098 239.038 644.884 239.536C644.677 240.028 644.574 240.63 644.574 241.342C644.574 242.383 644.791 243.195 645.224 243.778C645.658 244.353 646.279 244.641 647.087 244.641ZM656.913 246.252C656.382 246.252 655.903 246.152 655.476 245.951C655.049 245.751 654.709 245.45 654.457 245.049C654.211 244.641 654.088 244.13 654.088 243.516V234.121H655.923V243.457C655.923 244.337 656.333 244.777 657.155 244.777C657.407 244.777 657.653 244.751 657.893 244.7C658.132 244.641 658.404 244.557 658.708 244.447L658.97 245.757C658.627 245.9 658.287 246.016 657.951 246.107C657.621 246.204 657.275 246.252 656.913 246.252ZM652.662 237.916V236.664H658.689V237.916H652.662ZM661.945 234.674C661.577 234.674 661.285 234.574 661.072 234.373C660.865 234.166 660.761 233.888 660.761 233.539C660.761 233.202 660.865 232.937 661.072 232.743C661.285 232.542 661.577 232.442 661.945 232.442C662.308 232.442 662.592 232.542 662.799 232.743C663.013 232.937 663.12 233.202 663.12 233.539C663.12 233.888 663.013 234.166 662.799 234.373C662.592 234.574 662.308 234.674 661.945 234.674ZM661.023 246V236.635H662.867V246H661.023ZM669.933 246.252C669.086 246.252 668.326 246.068 667.653 245.699C666.986 245.33 666.459 244.78 666.071 244.049C665.683 243.318 665.489 242.416 665.489 241.342C665.489 240.248 665.683 239.339 666.071 238.614C666.459 237.883 666.986 237.333 667.653 236.965C668.326 236.596 669.086 236.411 669.933 236.411C670.768 236.411 671.519 236.596 672.185 236.965C672.851 237.333 673.375 237.883 673.757 238.614C674.145 239.339 674.34 240.248 674.34 241.342C674.34 242.416 674.145 243.318 673.757 244.049C673.375 244.78 672.851 245.33 672.185 245.699C671.519 246.068 670.768 246.252 669.933 246.252ZM669.875 244.641C670.412 244.641 670.875 244.512 671.263 244.253C671.658 243.994 671.959 243.619 672.166 243.127C672.379 242.629 672.486 242.034 672.486 241.342C672.486 240.281 672.269 239.459 671.836 238.877C671.409 238.294 670.791 238.003 669.982 238.003C669.438 238.003 668.969 238.136 668.575 238.401C668.187 238.66 667.886 239.038 667.672 239.536C667.465 240.028 667.362 240.63 667.362 241.342C667.362 242.383 667.578 243.195 668.012 243.778C668.445 244.353 669.066 244.641 669.875 244.641ZM683.243 246V240.526C683.243 239.718 683.049 239.106 682.66 238.692C682.279 238.272 681.761 238.061 681.108 238.061C680.59 238.061 680.137 238.204 679.749 238.488C679.367 238.767 679.069 239.177 678.856 239.721C678.649 240.258 678.545 240.915 678.545 241.691H677.885C677.885 240.546 678.031 239.582 678.322 238.799C678.62 238.016 679.044 237.424 679.594 237.023C680.144 236.615 680.803 236.411 681.573 236.411C682.324 236.411 682.958 236.58 683.476 236.916C684 237.253 684.398 237.731 684.669 238.352C684.941 238.967 685.077 239.692 685.077 240.526V246H683.243ZM676.701 246V236.664H678.303L678.545 238.682V246H676.701ZM695.751 246.252C694.988 246.252 694.276 246.049 693.616 245.641C692.956 245.233 692.426 244.661 692.025 243.923C691.623 243.186 691.423 242.319 691.423 241.322C691.423 240.274 691.623 239.388 692.025 238.663C692.426 237.932 692.956 237.375 693.616 236.994C694.276 236.606 694.988 236.411 695.751 236.411C696.314 236.411 696.816 236.502 697.256 236.683C697.696 236.858 698.074 237.097 698.391 237.401C698.708 237.699 698.964 238.035 699.158 238.411C699.358 238.786 699.497 239.174 699.575 239.575L697.702 239.672C697.566 239.187 697.327 238.799 696.984 238.508C696.647 238.21 696.23 238.061 695.732 238.061C695.311 238.061 694.913 238.181 694.538 238.42C694.169 238.653 693.869 239.012 693.636 239.498C693.409 239.976 693.296 240.585 693.296 241.322C693.296 242.008 693.403 242.594 693.616 243.079C693.83 243.564 694.121 243.936 694.49 244.195C694.858 244.454 695.273 244.583 695.732 244.583C696.392 244.583 696.884 244.425 697.207 244.108C697.537 243.784 697.702 243.341 697.702 242.778H699.575C699.575 243.431 699.423 244.02 699.119 244.544C698.815 245.068 698.375 245.486 697.799 245.796C697.23 246.1 696.547 246.252 695.751 246.252ZM701.991 246V236.635H703.835V246H701.991ZM703.331 241.827C703.331 240.63 703.454 239.637 703.699 238.847C703.952 238.052 704.301 237.46 704.748 237.071C705.2 236.683 705.731 236.489 706.339 236.489C706.52 236.489 706.689 236.502 706.844 236.528C707.006 236.554 707.164 236.589 707.319 236.635L707.251 238.469C707.077 238.424 706.886 238.385 706.679 238.352C706.478 238.314 706.294 238.294 706.126 238.294C705.595 238.294 705.162 238.437 704.825 238.721C704.489 238.999 704.24 239.404 704.078 239.934C703.916 240.458 703.835 241.089 703.835 241.827H703.331ZM712.114 246.252C711.312 246.252 710.587 246.045 709.94 245.631C709.293 245.217 708.779 244.641 708.397 243.904C708.022 243.166 707.834 242.312 707.834 241.342C707.834 240.313 708.022 239.433 708.397 238.702C708.772 237.964 709.283 237.398 709.93 237.003C710.577 236.609 711.305 236.411 712.114 236.411C712.839 236.411 713.46 236.56 713.977 236.858C714.495 237.149 714.912 237.544 715.229 238.042C715.546 238.534 715.763 239.093 715.88 239.721C716.003 240.348 716.025 240.995 715.948 241.662H709.309V240.594H714.686L714.239 240.885C714.259 240.536 714.239 240.187 714.181 239.837C714.13 239.488 714.026 239.168 713.871 238.877C713.715 238.579 713.495 238.343 713.211 238.168C712.933 237.987 712.577 237.896 712.143 237.896C711.6 237.896 711.144 238.032 710.775 238.304C710.412 238.576 710.138 238.941 709.95 239.401C709.762 239.853 709.668 240.352 709.668 240.895V241.642C709.668 242.244 709.759 242.778 709.94 243.244C710.121 243.71 710.39 244.078 710.746 244.35C711.108 244.615 711.564 244.748 712.114 244.748C712.651 244.748 713.094 244.622 713.444 244.37C713.8 244.117 714.02 243.739 714.104 243.234H715.986C715.889 243.842 715.666 244.373 715.317 244.826C714.967 245.279 714.518 245.631 713.968 245.884C713.424 246.129 712.806 246.252 712.114 246.252ZM724.236 246L724.003 243.855V239.963C724.003 239.2 723.844 238.647 723.527 238.304C723.21 237.955 722.709 237.78 722.023 237.78C721.635 237.78 721.289 237.838 720.985 237.955C720.687 238.065 720.451 238.233 720.276 238.459C720.108 238.686 720.024 238.97 720.024 239.313H717.986C717.986 238.627 718.154 238.071 718.49 237.644C718.827 237.217 719.296 236.906 719.898 236.712C720.506 236.512 721.214 236.411 722.023 236.411C722.78 236.411 723.446 236.538 724.022 236.79C724.598 237.036 725.045 237.424 725.362 237.955C725.685 238.485 725.847 239.171 725.847 240.012V246H724.236ZM721.111 246.252C720.328 246.252 719.678 246.116 719.16 245.845C718.642 245.567 718.254 245.204 717.995 244.758C717.743 244.311 717.617 243.836 717.617 243.331C717.617 242.716 717.772 242.212 718.083 241.817C718.4 241.416 718.837 241.118 719.393 240.924C719.949 240.73 720.59 240.633 721.315 240.633C721.813 240.633 722.298 240.678 722.77 240.769C723.243 240.86 723.708 240.979 724.168 241.128V242.244C723.793 242.108 723.375 242.002 722.916 241.924C722.463 241.84 722.039 241.798 721.645 241.798C721.056 241.798 720.564 241.914 720.169 242.147C719.775 242.38 719.577 242.775 719.577 243.331C719.577 243.739 719.733 244.091 720.043 244.389C720.354 244.68 720.846 244.826 721.518 244.826C722.01 244.826 722.444 244.716 722.819 244.496C723.194 244.269 723.485 243.988 723.692 243.651C723.899 243.315 724.003 242.979 724.003 242.642H724.449C724.449 243.289 724.317 243.888 724.051 244.437C723.793 244.981 723.414 245.421 722.916 245.757C722.418 246.087 721.816 246.252 721.111 246.252ZM731.872 246.252C731.342 246.252 730.863 246.152 730.436 245.951C730.009 245.751 729.669 245.45 729.417 245.049C729.171 244.641 729.048 244.13 729.048 243.516V234.121H730.882V243.457C730.882 244.337 731.293 244.777 732.115 244.777C732.367 244.777 732.613 244.751 732.852 244.7C733.092 244.641 733.364 244.557 733.668 244.447L733.93 245.757C733.587 245.9 733.247 246.016 732.911 246.107C732.581 246.204 732.235 246.252 731.872 246.252ZM727.621 237.916V236.664H733.648V237.916H727.621ZM739.186 246.252C738.383 246.252 737.659 246.045 737.012 245.631C736.365 245.217 735.85 244.641 735.469 243.904C735.093 243.166 734.906 242.312 734.906 241.342C734.906 240.313 735.093 239.433 735.469 238.702C735.844 237.964 736.355 237.398 737.002 237.003C737.649 236.609 738.377 236.411 739.186 236.411C739.91 236.411 740.531 236.56 741.049 236.858C741.567 237.149 741.984 237.544 742.301 238.042C742.618 238.534 742.835 239.093 742.951 239.721C743.074 240.348 743.097 240.995 743.019 241.662H736.381V240.594H741.758L741.311 240.885C741.331 240.536 741.311 240.187 741.253 239.837C741.201 239.488 741.098 239.168 740.942 238.877C740.787 238.579 740.567 238.343 740.282 238.168C740.004 237.987 739.648 237.896 739.215 237.896C738.671 237.896 738.215 238.032 737.846 238.304C737.484 238.576 737.209 238.941 737.022 239.401C736.834 239.853 736.74 240.352 736.74 240.895V241.642C736.74 242.244 736.831 242.778 737.012 243.244C737.193 243.71 737.461 244.078 737.817 244.35C738.18 244.615 738.636 244.748 739.186 244.748C739.723 244.748 740.166 244.622 740.515 244.37C740.871 244.117 741.091 243.739 741.175 243.234H743.058C742.961 243.842 742.738 244.373 742.388 244.826C742.039 245.279 741.589 245.631 741.039 245.884C740.496 246.129 739.878 246.252 739.186 246.252ZM755.561 246L755.328 243.855V239.963C755.328 239.2 755.17 238.647 754.852 238.304C754.535 237.955 754.034 237.78 753.348 237.78C752.96 237.78 752.614 237.838 752.31 237.955C752.012 238.065 751.776 238.233 751.601 238.459C751.433 238.686 751.349 238.97 751.349 239.313H749.311C749.311 238.627 749.479 238.071 749.816 237.644C750.152 237.217 750.621 236.906 751.223 236.712C751.831 236.512 752.539 236.411 753.348 236.411C754.105 236.411 754.772 236.538 755.347 236.79C755.923 237.036 756.37 237.424 756.687 237.955C757.01 238.485 757.172 239.171 757.172 240.012V246H755.561ZM752.436 246.252C751.653 246.252 751.003 246.116 750.485 245.845C749.968 245.567 749.579 245.204 749.321 244.758C749.068 244.311 748.942 243.836 748.942 243.331C748.942 242.716 749.097 242.212 749.408 241.817C749.725 241.416 750.162 241.118 750.718 240.924C751.275 240.73 751.915 240.633 752.64 240.633C753.138 240.633 753.623 240.678 754.095 240.769C754.568 240.86 755.034 240.979 755.493 241.128V242.244C755.118 242.108 754.7 242.002 754.241 241.924C753.788 241.84 753.364 241.798 752.97 241.798C752.381 241.798 751.889 241.914 751.495 242.147C751.1 242.38 750.903 242.775 750.903 243.331C750.903 243.739 751.058 244.091 751.368 244.389C751.679 244.68 752.171 244.826 752.844 244.826C753.335 244.826 753.769 244.716 754.144 244.496C754.519 244.269 754.81 243.988 755.017 243.651C755.225 243.315 755.328 242.979 755.328 242.642H755.774C755.774 243.289 755.642 243.888 755.377 244.437C755.118 244.981 754.739 245.421 754.241 245.757C753.743 246.087 753.141 246.252 752.436 246.252ZM770.741 236.635H772.595V246H770.741V236.635ZM764.219 236.635H766.063V242.419C766.063 243.124 766.235 243.658 766.578 244.02C766.927 244.382 767.415 244.564 768.043 244.564C768.573 244.564 769.039 244.425 769.44 244.146C769.848 243.868 770.165 243.473 770.392 242.962C770.624 242.451 770.741 241.846 770.741 241.148H771.333C771.333 242.241 771.184 243.16 770.887 243.904C770.589 244.648 770.172 245.214 769.635 245.602C769.098 245.984 768.47 246.175 767.752 246.175C767.066 246.175 766.455 246.049 765.918 245.796C765.387 245.544 764.97 245.156 764.666 244.632C764.368 244.101 764.219 243.418 764.219 242.584V236.635ZM782.431 246V240.526C782.431 239.718 782.237 239.106 781.848 238.692C781.467 238.272 780.949 238.061 780.296 238.061C779.778 238.061 779.325 238.204 778.937 238.488C778.555 238.767 778.258 239.177 778.044 239.721C777.837 240.258 777.734 240.915 777.734 241.691H777.074C777.074 240.546 777.219 239.582 777.51 238.799C777.808 238.016 778.232 237.424 778.782 237.023C779.332 236.615 779.992 236.411 780.762 236.411C781.512 236.411 782.146 236.58 782.664 236.916C783.188 237.253 783.586 237.731 783.857 238.352C784.129 238.967 784.265 239.692 784.265 240.526V246H782.431ZM775.89 246V236.664H777.491L777.734 238.682V246H775.89ZM788.357 234.674C787.988 234.674 787.697 234.574 787.483 234.373C787.276 234.166 787.173 233.888 787.173 233.539C787.173 233.202 787.276 232.937 787.483 232.743C787.697 232.542 787.988 232.442 788.357 232.442C788.719 232.442 789.004 232.542 789.211 232.743C789.424 232.937 789.531 233.202 789.531 233.539C789.531 233.888 789.424 234.166 789.211 234.373C789.004 234.574 788.719 234.674 788.357 234.674ZM787.435 246V236.635H789.279V246H787.435ZM796.18 246.252C795.429 246.252 794.727 246.058 794.074 245.67C793.427 245.275 792.903 244.709 792.502 243.972C792.101 243.234 791.9 242.351 791.9 241.322C791.9 240.293 792.097 239.414 792.492 238.682C792.887 237.951 793.404 237.392 794.045 237.003C794.685 236.609 795.368 236.411 796.093 236.411C796.72 236.411 797.289 236.567 797.801 236.877C798.312 237.181 798.719 237.644 799.023 238.265C799.328 238.886 799.48 239.666 799.48 240.604H798.742C798.742 240.061 798.632 239.601 798.412 239.226C798.192 238.844 797.904 238.556 797.548 238.362C797.192 238.162 796.804 238.061 796.384 238.061C795.898 238.061 795.458 238.191 795.064 238.45C794.669 238.708 794.355 239.08 794.122 239.566C793.889 240.051 793.773 240.636 793.773 241.322C793.773 242.04 793.899 242.642 794.152 243.127C794.41 243.613 794.74 243.978 795.141 244.224C795.549 244.463 795.973 244.583 796.413 244.583C796.807 244.583 797.183 244.492 797.539 244.311C797.894 244.13 798.182 243.862 798.402 243.506C798.629 243.15 798.742 242.716 798.742 242.205H799.188C799.188 243.008 799.078 243.713 798.858 244.321C798.645 244.923 798.315 245.395 797.869 245.738C797.422 246.081 796.859 246.252 796.18 246.252ZM801.372 250.814C800.414 250.561 799.735 250.167 799.334 249.63C798.939 249.099 798.742 248.352 798.742 247.388V238.906L799.353 236.664H800.576V247.524C800.576 247.938 800.615 248.261 800.693 248.494C800.777 248.734 800.919 248.921 801.12 249.057C801.32 249.193 801.595 249.319 801.945 249.436L801.372 250.814ZM810.198 236.635H812.052V246H810.198V236.635ZM803.676 236.635H805.52V242.419C805.52 243.124 805.692 243.658 806.034 244.02C806.384 244.382 806.872 244.564 807.5 244.564C808.03 244.564 808.496 244.425 808.897 244.146C809.305 243.868 809.622 243.473 809.848 242.962C810.081 242.451 810.198 241.846 810.198 241.148H810.79C810.79 242.241 810.641 243.16 810.343 243.904C810.046 244.648 809.628 245.214 809.091 245.602C808.554 245.984 807.927 246.175 807.209 246.175C806.523 246.175 805.911 246.049 805.374 245.796C804.844 245.544 804.427 245.156 804.123 244.632C803.825 244.101 803.676 243.418 803.676 242.584V236.635ZM818.695 246.252C817.892 246.252 817.168 246.045 816.521 245.631C815.874 245.217 815.359 244.641 814.978 243.904C814.602 243.166 814.415 242.312 814.415 241.342C814.415 240.313 814.602 239.433 814.978 238.702C815.353 237.964 815.864 237.398 816.511 237.003C817.158 236.609 817.886 236.411 818.695 236.411C819.419 236.411 820.041 236.56 820.558 236.858C821.076 237.149 821.493 237.544 821.81 238.042C822.127 238.534 822.344 239.093 822.46 239.721C822.583 240.348 822.606 240.995 822.528 241.662H815.89V240.594H821.267L820.82 240.885C820.84 240.536 820.82 240.187 820.762 239.837C820.71 239.488 820.607 239.168 820.451 238.877C820.296 238.579 820.076 238.343 819.791 238.168C819.513 237.987 819.157 237.896 818.724 237.896C818.18 237.896 817.724 238.032 817.355 238.304C816.993 238.576 816.718 238.941 816.531 239.401C816.343 239.853 816.249 240.352 816.249 240.895V241.642C816.249 242.244 816.34 242.778 816.521 243.244C816.702 243.71 816.97 244.078 817.326 244.35C817.689 244.615 818.145 244.748 818.695 244.748C819.232 244.748 819.675 244.622 820.024 244.37C820.38 244.117 820.6 243.739 820.684 243.234H822.567C822.47 243.842 822.247 244.373 821.897 244.826C821.548 245.279 821.098 245.631 820.548 245.884C820.005 246.129 819.387 246.252 818.695 246.252ZM824.984 248.339L823.606 247.65C824 247.449 824.34 247.226 824.625 246.98C824.909 246.734 825.097 246.44 825.188 246.097C824.877 246.052 824.612 245.932 824.392 245.738C824.172 245.544 824.062 245.288 824.062 244.971C824.062 244.648 824.181 244.376 824.421 244.156C824.667 243.93 824.977 243.816 825.353 243.816C825.825 243.816 826.2 243.985 826.478 244.321C826.763 244.657 826.905 245.059 826.905 245.524C826.905 246.061 826.737 246.586 826.401 247.097C826.071 247.614 825.598 248.028 824.984 248.339ZM837.575 246.252C836.895 246.252 836.306 246.1 835.808 245.796C835.31 245.486 834.928 245.033 834.663 244.437C834.404 243.836 834.275 243.092 834.275 242.205H834.993C834.993 242.716 835.103 243.15 835.323 243.506C835.543 243.855 835.831 244.124 836.187 244.311C836.549 244.492 836.934 244.583 837.342 244.583C837.769 244.583 838.183 244.463 838.584 244.224C838.991 243.978 839.325 243.613 839.583 243.127C839.842 242.642 839.972 242.04 839.972 241.322C839.972 240.636 839.855 240.051 839.622 239.566C839.396 239.08 839.085 238.708 838.691 238.45C838.296 238.191 837.853 238.061 837.361 238.061C836.947 238.061 836.559 238.162 836.196 238.362C835.834 238.556 835.543 238.844 835.323 239.226C835.103 239.601 834.993 240.061 834.993 240.604H834.275C834.275 239.666 834.424 238.886 834.721 238.265C835.025 237.644 835.433 237.181 835.944 236.877C836.455 236.567 837.021 236.411 837.642 236.411C838.374 236.411 839.059 236.609 839.7 237.003C840.34 237.392 840.858 237.951 841.253 238.682C841.654 239.414 841.854 240.293 841.854 241.322C841.854 242.351 841.654 243.234 841.253 243.972C840.852 244.709 840.324 245.275 839.671 245.67C839.024 246.058 838.325 246.252 837.575 246.252ZM833.149 250.581V236.664H834.673L834.993 238.906V250.581H833.149ZM847.575 246.252C846.772 246.252 846.048 246.045 845.401 245.631C844.754 245.217 844.239 244.641 843.858 243.904C843.482 243.166 843.295 242.312 843.295 241.342C843.295 240.313 843.482 239.433 843.858 238.702C844.233 237.964 844.744 237.398 845.391 237.003C846.038 236.609 846.766 236.411 847.575 236.411C848.299 236.411 848.92 236.56 849.438 236.858C849.956 237.149 850.373 237.544 850.69 238.042C851.007 238.534 851.224 239.093 851.34 239.721C851.463 240.348 851.486 240.995 851.408 241.662H844.77V240.594H850.147L849.7 240.885C849.719 240.536 849.7 240.187 849.642 239.837C849.59 239.488 849.487 239.168 849.331 238.877C849.176 238.579 848.956 238.343 848.671 238.168C848.393 237.987 848.037 237.896 847.604 237.896C847.06 237.896 846.604 238.032 846.235 238.304C845.873 238.576 845.598 238.941 845.41 239.401C845.223 239.853 845.129 240.352 845.129 240.895V241.642C845.129 242.244 845.22 242.778 845.401 243.244C845.582 243.71 845.85 244.078 846.206 244.35C846.569 244.615 847.025 244.748 847.575 244.748C848.112 244.748 848.555 244.622 848.904 244.37C849.26 244.117 849.48 243.739 849.564 243.234H851.447C851.35 243.842 851.127 244.373 850.777 244.826C850.428 245.279 849.978 245.631 849.428 245.884C848.885 246.129 848.267 246.252 847.575 246.252ZM853.844 246V236.635H855.688V246H853.844ZM855.184 241.827C855.184 240.63 855.306 239.637 855.552 238.847C855.805 238.052 856.154 237.46 856.6 237.071C857.053 236.683 857.584 236.489 858.192 236.489C858.373 236.489 858.541 236.502 858.697 236.528C858.859 236.554 859.017 236.589 859.172 236.635L859.104 238.469C858.93 238.424 858.739 238.385 858.532 238.352C858.331 238.314 858.147 238.294 857.979 238.294C857.448 238.294 857.015 238.437 856.678 238.721C856.342 238.999 856.093 239.404 855.931 239.934C855.769 240.458 855.688 241.089 855.688 241.827H855.184ZM864.035 246.252C863.129 246.252 862.366 246.126 861.745 245.874C861.123 245.615 860.648 245.259 860.318 244.806C859.994 244.347 859.826 243.81 859.813 243.195H861.55C861.576 243.732 861.79 244.13 862.191 244.389C862.599 244.648 863.149 244.777 863.841 244.777C864.21 244.777 864.543 244.719 864.84 244.602C865.145 244.486 865.384 244.328 865.559 244.127C865.74 243.926 865.83 243.7 865.83 243.448C865.83 243.131 865.714 242.881 865.481 242.7C865.248 242.513 864.873 242.348 864.355 242.205L862.443 241.555C861.68 241.296 861.094 240.953 860.687 240.526C860.279 240.093 860.075 239.575 860.075 238.974C860.075 238.204 860.418 237.586 861.104 237.12C861.79 236.648 862.699 236.411 863.831 236.411C865.002 236.411 865.905 236.661 866.539 237.159C867.179 237.65 867.513 238.268 867.538 239.012H865.762C865.717 238.644 865.533 238.362 865.209 238.168C864.892 237.967 864.433 237.867 863.831 237.867C863.268 237.867 862.825 237.99 862.502 238.236C862.185 238.482 862.026 238.76 862.026 239.071C862.026 239.627 862.505 240.041 863.462 240.313L865.471 241.021C866.235 241.267 866.824 241.584 867.238 241.972C867.652 242.361 867.859 242.852 867.859 243.448C867.859 243.926 867.7 244.379 867.383 244.806C867.066 245.233 866.62 245.583 866.044 245.854C865.475 246.12 864.805 246.252 864.035 246.252ZM873.864 246.252C873.016 246.252 872.256 246.068 871.583 245.699C870.916 245.33 870.389 244.78 870.001 244.049C869.613 243.318 869.419 242.416 869.419 241.342C869.419 240.248 869.613 239.339 870.001 238.614C870.389 237.883 870.916 237.333 871.583 236.965C872.256 236.596 873.016 236.411 873.864 236.411C874.698 236.411 875.449 236.596 876.115 236.965C876.782 237.333 877.306 237.883 877.687 238.614C878.076 239.339 878.27 240.248 878.27 241.342C878.27 242.416 878.076 243.318 877.687 244.049C877.306 244.78 876.782 245.33 876.115 245.699C875.449 246.068 874.698 246.252 873.864 246.252ZM873.805 244.641C874.342 244.641 874.805 244.512 875.193 244.253C875.588 243.994 875.889 243.619 876.096 243.127C876.309 242.629 876.416 242.034 876.416 241.342C876.416 240.281 876.199 239.459 875.766 238.877C875.339 238.294 874.721 238.003 873.912 238.003C873.369 238.003 872.9 238.136 872.505 238.401C872.117 238.66 871.816 239.038 871.602 239.536C871.395 240.028 871.292 240.63 871.292 241.342C871.292 242.383 871.508 243.195 871.942 243.778C872.375 244.353 872.997 244.641 873.805 244.641ZM887.173 246V240.526C887.173 239.718 886.979 239.106 886.59 238.692C886.209 238.272 885.691 238.061 885.038 238.061C884.52 238.061 884.067 238.204 883.679 238.488C883.297 238.767 883 239.177 882.786 239.721C882.579 240.258 882.475 240.915 882.475 241.691H881.816C881.816 240.546 881.961 239.582 882.252 238.799C882.55 238.016 882.974 237.424 883.524 237.023C884.074 236.615 884.734 236.411 885.503 236.411C886.254 236.411 886.888 236.58 887.406 236.916C887.93 237.253 888.328 237.731 888.599 238.352C888.871 238.967 889.007 239.692 889.007 240.526V246H887.173ZM880.632 246V236.664H882.233L882.475 238.682V246H880.632ZM897.883 246L897.65 243.855V239.963C897.65 239.2 897.492 238.647 897.175 238.304C896.858 237.955 896.356 237.78 895.671 237.78C895.282 237.78 894.936 237.838 894.632 237.955C894.334 238.065 894.098 238.233 893.924 238.459C893.755 238.686 893.671 238.97 893.671 239.313H891.633C891.633 238.627 891.801 238.071 892.138 237.644C892.474 237.217 892.943 236.906 893.545 236.712C894.153 236.512 894.862 236.411 895.671 236.411C896.428 236.411 897.094 236.538 897.67 236.79C898.246 237.036 898.692 237.424 899.009 237.955C899.333 238.485 899.494 239.171 899.494 240.012V246H897.883ZM894.758 246.252C893.975 246.252 893.325 246.116 892.808 245.845C892.29 245.567 891.902 245.204 891.643 244.758C891.391 244.311 891.264 243.836 891.264 243.331C891.264 242.716 891.42 242.212 891.73 241.817C892.047 241.416 892.484 241.118 893.04 240.924C893.597 240.73 894.237 240.633 894.962 240.633C895.46 240.633 895.945 240.678 896.418 240.769C896.89 240.86 897.356 240.979 897.815 241.128V242.244C897.44 242.108 897.023 242.002 896.563 241.924C896.11 241.84 895.687 241.798 895.292 241.798C894.703 241.798 894.212 241.914 893.817 242.147C893.422 242.38 893.225 242.775 893.225 243.331C893.225 243.739 893.38 244.091 893.691 244.389C894.001 244.68 894.493 244.826 895.166 244.826C895.658 244.826 896.091 244.716 896.466 244.496C896.842 244.269 897.133 243.988 897.34 243.651C897.547 243.315 897.65 242.979 897.65 242.642H898.097C898.097 243.289 897.964 243.888 897.699 244.437C897.44 244.981 897.062 245.421 896.563 245.757C896.065 246.087 895.463 246.252 894.758 246.252ZM902.521 246V232.733H904.365V246H902.521ZM915.335 246.252C914.429 246.252 913.666 246.126 913.045 245.874C912.424 245.615 911.948 245.259 911.618 244.806C911.294 244.347 911.126 243.81 911.113 243.195H912.851C912.876 243.732 913.09 244.13 913.491 244.389C913.899 244.648 914.449 244.777 915.141 244.777C915.51 244.777 915.843 244.719 916.141 244.602C916.445 244.486 916.684 244.328 916.859 244.127C917.04 243.926 917.13 243.7 917.13 243.448C917.13 243.131 917.014 242.881 916.781 242.7C916.548 242.513 916.173 242.348 915.655 242.205L913.743 241.555C912.98 241.296 912.394 240.953 911.987 240.526C911.579 240.093 911.375 239.575 911.375 238.974C911.375 238.204 911.718 237.586 912.404 237.12C913.09 236.648 913.999 236.411 915.131 236.411C916.302 236.411 917.205 236.661 917.839 237.159C918.479 237.65 918.813 238.268 918.839 239.012H917.062C917.017 238.644 916.833 238.362 916.509 238.168C916.192 237.967 915.733 237.867 915.131 237.867C914.568 237.867 914.125 237.99 913.802 238.236C913.485 238.482 913.326 238.76 913.326 239.071C913.326 239.627 913.805 240.041 914.762 240.313L916.771 241.021C917.535 241.267 918.124 241.584 918.538 241.972C918.952 242.361 919.159 242.852 919.159 243.448C919.159 243.926 919 244.379 918.683 244.806C918.366 245.233 917.92 245.583 917.344 245.854C916.775 246.12 916.105 246.252 915.335 246.252ZM928.192 246V240.526C928.192 239.718 927.997 239.106 927.609 238.692C927.227 238.272 926.71 238.061 926.056 238.061C925.539 238.061 925.086 238.204 924.698 238.488C924.316 238.767 924.018 239.177 923.805 239.721C923.598 240.258 923.494 240.915 923.494 241.691H922.834C922.834 240.546 922.98 239.582 923.271 238.799C923.569 238.016 923.992 237.424 924.542 237.023C925.092 236.615 925.752 236.411 926.522 236.411C927.273 236.411 927.907 236.58 928.424 236.916C928.949 237.253 929.346 237.731 929.618 238.352C929.89 238.967 930.026 239.692 930.026 240.526V246H928.192ZM921.65 246V232.733H923.494V246H921.65ZM936.563 246.252C935.716 246.252 934.955 246.068 934.282 245.699C933.616 245.33 933.089 244.78 932.701 244.049C932.312 243.318 932.118 242.416 932.118 241.342C932.118 240.248 932.312 239.339 932.701 238.614C933.089 237.883 933.616 237.333 934.282 236.965C934.955 236.596 935.716 236.411 936.563 236.411C937.398 236.411 938.148 236.596 938.815 236.965C939.481 237.333 940.005 237.883 940.387 238.614C940.775 239.339 940.969 240.248 940.969 241.342C940.969 242.416 940.775 243.318 940.387 244.049C940.005 244.78 939.481 245.33 938.815 245.699C938.148 246.068 937.398 246.252 936.563 246.252ZM936.505 244.641C937.042 244.641 937.505 244.512 937.893 244.253C938.287 243.994 938.588 243.619 938.795 243.127C939.009 242.629 939.116 242.034 939.116 241.342C939.116 240.281 938.899 239.459 938.465 238.877C938.038 238.294 937.42 238.003 936.612 238.003C936.068 238.003 935.599 238.136 935.204 238.401C934.816 238.66 934.515 239.038 934.302 239.536C934.095 240.028 933.991 240.63 933.991 241.342C933.991 242.383 934.208 243.195 934.642 243.778C935.075 244.353 935.696 244.641 936.505 244.641ZM947.757 246.252C947.077 246.252 946.489 246.1 945.99 245.796C945.492 245.486 945.11 245.033 944.845 244.437C944.586 243.836 944.457 243.092 944.457 242.205H945.175C945.175 242.716 945.285 243.15 945.505 243.506C945.725 243.855 946.013 244.124 946.369 244.311C946.731 244.492 947.116 244.583 947.524 244.583C947.951 244.583 948.365 244.463 948.766 244.224C949.174 243.978 949.507 243.613 949.766 243.127C950.024 242.642 950.154 242.04 950.154 241.322C950.154 240.636 950.037 240.051 949.804 239.566C949.578 239.08 949.267 238.708 948.873 238.45C948.478 238.191 948.035 238.061 947.543 238.061C947.129 238.061 946.741 238.162 946.379 238.362C946.016 238.556 945.725 238.844 945.505 239.226C945.285 239.601 945.175 240.061 945.175 240.604H944.457C944.457 239.666 944.606 238.886 944.903 238.265C945.207 237.644 945.615 237.181 946.126 236.877C946.637 236.567 947.203 236.411 947.825 236.411C948.556 236.411 949.242 236.609 949.882 237.003C950.523 237.392 951.04 237.951 951.435 238.682C951.836 239.414 952.037 240.293 952.037 241.322C952.037 242.351 951.836 243.234 951.435 243.972C951.034 244.709 950.506 245.275 949.853 245.67C949.206 246.058 948.507 246.252 947.757 246.252ZM943.331 250.581V236.664H944.855L945.175 238.906V250.581H943.331ZM958.834 246.252C958.155 246.252 957.566 246.1 957.068 245.796C956.57 245.486 956.188 245.033 955.923 244.437C955.664 243.836 955.534 243.092 955.534 242.205H956.252C956.252 242.716 956.362 243.15 956.582 243.506C956.802 243.855 957.09 244.124 957.446 244.311C957.809 244.492 958.193 244.583 958.601 244.583C959.028 244.583 959.442 244.463 959.843 244.224C960.251 243.978 960.584 243.613 960.843 243.127C961.102 242.642 961.231 242.04 961.231 241.322C961.231 240.636 961.115 240.051 960.882 239.566C960.655 239.08 960.345 238.708 959.95 238.45C959.555 238.191 959.112 238.061 958.62 238.061C958.206 238.061 957.818 238.162 957.456 238.362C957.094 238.556 956.802 238.844 956.582 239.226C956.362 239.601 956.252 240.061 956.252 240.604H955.534C955.534 239.666 955.683 238.886 955.981 238.265C956.285 237.644 956.692 237.181 957.204 236.877C957.715 236.567 958.281 236.411 958.902 236.411C959.633 236.411 960.319 236.609 960.959 237.003C961.6 237.392 962.118 237.951 962.512 238.682C962.913 239.414 963.114 240.293 963.114 241.322C963.114 242.351 962.913 243.234 962.512 243.972C962.111 244.709 961.584 245.275 960.93 245.67C960.283 246.058 959.585 246.252 958.834 246.252ZM954.409 250.581V236.664H955.932L956.252 238.906V250.581H954.409ZM966.553 234.674C966.185 234.674 965.893 234.574 965.68 234.373C965.473 234.166 965.369 233.888 965.369 233.539C965.369 233.202 965.473 232.937 965.68 232.743C965.893 232.542 966.185 232.442 966.553 232.442C966.916 232.442 967.2 232.542 967.407 232.743C967.621 232.937 967.728 233.202 967.728 233.539C967.728 233.888 967.621 234.166 967.407 234.373C967.2 234.574 966.916 234.674 966.553 234.674ZM965.631 246V236.635H967.475V246H965.631ZM977.57 246V240.526C977.57 239.718 977.375 239.106 976.987 238.692C976.605 238.272 976.088 238.061 975.434 238.061C974.917 238.061 974.464 238.204 974.076 238.488C973.694 238.767 973.396 239.177 973.183 239.721C972.976 240.258 972.872 240.915 972.872 241.691H972.212C972.212 240.546 972.358 239.582 972.649 238.799C972.947 238.016 973.37 237.424 973.92 237.023C974.47 236.615 975.13 236.411 975.9 236.411C976.651 236.411 977.285 236.58 977.802 236.916C978.326 237.253 978.724 237.731 978.996 238.352C979.268 238.967 979.404 239.692 979.404 240.526V246H977.57ZM971.028 246V236.664H972.63L972.872 238.682V246H971.028ZM985.864 250.814C984.854 250.814 983.984 250.675 983.253 250.396C982.528 250.118 981.969 249.746 981.574 249.28C981.179 248.814 980.982 248.307 980.982 247.757C980.982 247.058 981.237 246.521 981.749 246.146C982.26 245.777 982.91 245.592 983.699 245.592L984.893 246.155C984.22 246.155 983.699 246.291 983.331 246.563C982.968 246.835 982.787 247.203 982.787 247.669C982.787 248.155 983.052 248.552 983.583 248.863C984.113 249.18 984.874 249.339 985.864 249.339C986.582 249.339 987.213 249.232 987.756 249.018C988.299 248.811 988.72 248.536 989.018 248.193C989.315 247.857 989.464 247.495 989.464 247.106C989.464 246.841 989.367 246.615 989.173 246.427C988.985 246.246 988.697 246.155 988.309 246.155H984.893C984.259 246.155 983.699 246.058 983.214 245.864C982.735 245.664 982.36 245.402 982.088 245.078C981.817 244.755 981.681 244.395 981.681 244.001C981.681 243.613 981.791 243.279 982.011 243.001C982.231 242.716 982.522 242.503 982.884 242.361C983.246 242.212 983.644 242.137 984.078 242.137L984.495 242.778C984.307 242.778 984.12 242.82 983.932 242.904C983.745 242.982 983.589 243.101 983.466 243.263C983.343 243.425 983.282 243.626 983.282 243.865C983.282 244.143 983.398 244.376 983.631 244.564C983.871 244.745 984.291 244.835 984.893 244.835H988.309C989.241 244.835 989.972 245.02 990.502 245.389C991.033 245.757 991.298 246.294 991.298 247C991.298 247.64 991.078 248.252 990.638 248.834C990.198 249.416 989.571 249.892 988.756 250.26C987.947 250.629 986.983 250.814 985.864 250.814ZM986.067 243.195C985.343 243.195 984.683 243.056 984.087 242.778C983.499 242.493 983.03 242.099 982.68 241.594C982.331 241.083 982.156 240.488 982.156 239.808C982.156 239.122 982.331 238.527 982.68 238.022C983.03 237.511 983.499 237.117 984.087 236.838C984.683 236.554 985.343 236.411 986.067 236.411C986.773 236.411 987.416 236.554 987.999 236.838C988.587 237.117 989.056 237.511 989.406 238.022C989.762 238.527 989.94 239.122 989.94 239.808C989.94 240.488 989.762 241.083 989.406 241.594C989.056 242.099 988.587 242.493 987.999 242.778C987.416 243.056 986.773 243.195 986.067 243.195ZM986.067 241.895C986.734 241.895 987.242 241.697 987.591 241.303C987.947 240.902 988.125 240.403 988.125 239.808C988.125 239.187 987.947 238.686 987.591 238.304C987.242 237.922 986.734 237.731 986.067 237.731C985.414 237.731 984.903 237.922 984.534 238.304C984.172 238.686 983.99 239.187 983.99 239.808C983.99 240.403 984.172 240.902 984.534 241.303C984.903 241.697 985.414 241.895 986.067 241.895ZM989.241 237.906L988.377 237.489C988.377 236.932 988.494 236.447 988.726 236.033C988.959 235.619 989.283 235.295 989.697 235.062C990.111 234.83 990.587 234.713 991.124 234.713L991.007 236.509C990.431 236.509 989.991 236.622 989.687 236.848C989.39 237.075 989.241 237.427 989.241 237.906ZM517.711 278.252C516.909 278.252 516.184 278.045 515.537 277.631C514.89 277.217 514.376 276.641 513.994 275.904C513.619 275.166 513.431 274.312 513.431 273.342C513.431 272.313 513.619 271.433 513.994 270.702C514.369 269.964 514.88 269.398 515.527 269.003C516.174 268.609 516.902 268.411 517.711 268.411C518.435 268.411 519.057 268.56 519.574 268.858C520.092 269.149 520.509 269.544 520.826 270.042C521.143 270.534 521.36 271.093 521.476 271.721C521.599 272.348 521.622 272.995 521.544 273.662H514.906V272.594H520.283L519.836 272.885C519.856 272.536 519.836 272.187 519.778 271.837C519.726 271.488 519.623 271.168 519.467 270.877C519.312 270.579 519.092 270.343 518.807 270.168C518.529 269.987 518.173 269.896 517.74 269.896C517.196 269.896 516.74 270.032 516.372 270.304C516.009 270.576 515.734 270.941 515.547 271.401C515.359 271.853 515.265 272.352 515.265 272.895V273.642C515.265 274.244 515.356 274.778 515.537 275.244C515.718 275.71 515.987 276.078 516.342 276.35C516.705 276.615 517.161 276.748 517.711 276.748C518.248 276.748 518.691 276.622 519.04 276.37C519.396 276.117 519.616 275.739 519.7 275.234H521.583C521.486 275.842 521.263 276.373 520.913 276.826C520.564 277.279 520.114 277.631 519.564 277.884C519.021 278.129 518.403 278.252 517.711 278.252ZM522.505 278L526.086 273.342L522.505 268.635H524.767L527.28 271.944L529.677 268.635H531.929L528.348 273.342L531.919 278H529.668L527.144 274.681L524.767 278H522.505ZM538.194 278.252C537.515 278.252 536.926 278.1 536.428 277.796C535.93 277.486 535.548 277.033 535.283 276.437C535.024 275.836 534.895 275.092 534.895 274.205H535.613C535.613 274.716 535.723 275.15 535.943 275.506C536.163 275.855 536.451 276.124 536.806 276.311C537.169 276.492 537.554 276.583 537.961 276.583C538.388 276.583 538.802 276.463 539.204 276.224C539.611 275.978 539.944 275.613 540.203 275.127C540.462 274.642 540.591 274.04 540.591 273.322C540.591 272.636 540.475 272.051 540.242 271.566C540.016 271.08 539.705 270.708 539.31 270.45C538.916 270.191 538.472 270.061 537.981 270.061C537.567 270.061 537.178 270.162 536.816 270.362C536.454 270.556 536.163 270.844 535.943 271.226C535.723 271.601 535.613 272.061 535.613 272.604H534.895C534.895 271.666 535.043 270.886 535.341 270.265C535.645 269.644 536.053 269.181 536.564 268.877C537.075 268.567 537.641 268.411 538.262 268.411C538.993 268.411 539.679 268.609 540.32 269.003C540.96 269.392 541.478 269.951 541.872 270.682C542.274 271.414 542.474 272.293 542.474 273.322C542.474 274.351 542.274 275.234 541.872 275.972C541.471 276.709 540.944 277.275 540.291 277.67C539.644 278.058 538.945 278.252 538.194 278.252ZM533.769 282.581V268.664H535.292L535.613 270.906V282.581H533.769ZM548.194 278.252C547.392 278.252 546.667 278.045 546.02 277.631C545.373 277.217 544.859 276.641 544.477 275.904C544.102 275.166 543.914 274.312 543.914 273.342C543.914 272.313 544.102 271.433 544.477 270.702C544.853 269.964 545.364 269.398 546.011 269.003C546.658 268.609 547.386 268.411 548.194 268.411C548.919 268.411 549.54 268.56 550.058 268.858C550.575 269.149 550.993 269.544 551.31 270.042C551.627 270.534 551.843 271.093 551.96 271.721C552.083 272.348 552.105 272.995 552.028 273.662H545.39V272.594H550.766L550.32 272.885C550.339 272.536 550.32 272.187 550.262 271.837C550.21 271.488 550.106 271.168 549.951 270.877C549.796 270.579 549.576 270.343 549.291 270.168C549.013 269.987 548.657 269.896 548.223 269.896C547.68 269.896 547.224 270.032 546.855 270.304C546.493 270.576 546.218 270.941 546.03 271.401C545.843 271.853 545.749 272.352 545.749 272.895V273.642C545.749 274.244 545.839 274.778 546.02 275.244C546.202 275.71 546.47 276.078 546.826 276.35C547.188 276.615 547.644 276.748 548.194 276.748C548.731 276.748 549.175 276.622 549.524 276.37C549.88 276.117 550.1 275.739 550.184 275.234H552.067C551.97 275.842 551.746 276.373 551.397 276.826C551.048 277.279 550.598 277.631 550.048 277.884C549.505 278.129 548.887 278.252 548.194 278.252ZM554.464 278V268.635H556.308V278H554.464ZM555.803 273.827C555.803 272.63 555.926 271.637 556.172 270.847C556.424 270.052 556.774 269.46 557.22 269.071C557.673 268.683 558.204 268.489 558.812 268.489C558.993 268.489 559.161 268.502 559.316 268.528C559.478 268.554 559.637 268.589 559.792 268.635L559.724 270.469C559.549 270.424 559.359 270.385 559.151 270.352C558.951 270.314 558.767 270.294 558.598 270.294C558.068 270.294 557.634 270.437 557.298 270.721C556.961 270.999 556.712 271.404 556.551 271.934C556.389 272.458 556.308 273.089 556.308 273.827H555.803ZM562.306 266.674C561.937 266.674 561.646 266.574 561.433 266.373C561.226 266.166 561.122 265.888 561.122 265.539C561.122 265.202 561.226 264.937 561.433 264.743C561.646 264.542 561.937 264.442 562.306 264.442C562.668 264.442 562.953 264.542 563.16 264.743C563.374 264.937 563.48 265.202 563.48 265.539C563.48 265.888 563.374 266.166 563.16 266.373C562.953 266.574 562.668 266.674 562.306 266.674ZM561.384 278V268.635H563.228V278H561.384ZM570.129 278.252C569.327 278.252 568.602 278.045 567.955 277.631C567.308 277.217 566.794 276.641 566.412 275.904C566.037 275.166 565.849 274.312 565.849 273.342C565.849 272.313 566.037 271.433 566.412 270.702C566.787 269.964 567.299 269.398 567.946 269.003C568.593 268.609 569.32 268.411 570.129 268.411C570.854 268.411 571.475 268.56 571.993 268.858C572.51 269.149 572.927 269.544 573.245 270.042C573.562 270.534 573.778 271.093 573.895 271.721C574.018 272.348 574.04 272.995 573.963 273.662H567.324V272.594H572.701L572.255 272.885C572.274 272.536 572.255 272.187 572.196 271.837C572.145 271.488 572.041 271.168 571.886 270.877C571.731 270.579 571.511 270.343 571.226 270.168C570.948 269.987 570.592 269.896 570.158 269.896C569.615 269.896 569.159 270.032 568.79 270.304C568.428 270.576 568.153 270.941 567.965 271.401C567.777 271.853 567.684 272.352 567.684 272.895V273.642C567.684 274.244 567.774 274.778 567.955 275.244C568.136 275.71 568.405 276.078 568.761 276.35C569.123 276.615 569.579 276.748 570.129 276.748C570.666 276.748 571.109 276.622 571.459 276.37C571.815 276.117 572.035 275.739 572.119 275.234H574.001C573.904 275.842 573.681 276.373 573.332 276.826C572.982 277.279 572.533 277.631 571.983 277.884C571.439 278.129 570.821 278.252 570.129 278.252ZM582.94 278V272.526C582.94 271.718 582.746 271.106 582.358 270.692C581.976 270.272 581.458 270.061 580.805 270.061C580.287 270.061 579.834 270.204 579.446 270.488C579.064 270.767 578.767 271.177 578.553 271.721C578.346 272.258 578.243 272.915 578.243 273.691H577.583C577.583 272.546 577.728 271.582 578.02 270.799C578.317 270.016 578.741 269.424 579.291 269.023C579.841 268.615 580.501 268.411 581.271 268.411C582.021 268.411 582.655 268.58 583.173 268.916C583.697 269.253 584.095 269.731 584.367 270.352C584.638 270.967 584.774 271.692 584.774 272.526V278H582.94ZM576.399 278V268.664H578L578.243 270.682V278H576.399ZM591.195 278.252C590.432 278.252 589.72 278.049 589.06 277.641C588.4 277.233 587.87 276.661 587.468 275.923C587.067 275.186 586.867 274.319 586.867 273.322C586.867 272.274 587.067 271.388 587.468 270.663C587.87 269.932 588.4 269.375 589.06 268.994C589.72 268.606 590.432 268.411 591.195 268.411C591.758 268.411 592.259 268.502 592.699 268.683C593.139 268.858 593.518 269.097 593.835 269.401C594.152 269.699 594.407 270.035 594.602 270.411C594.802 270.786 594.941 271.174 595.019 271.575L593.146 271.672C593.01 271.187 592.771 270.799 592.428 270.508C592.091 270.21 591.674 270.061 591.176 270.061C590.755 270.061 590.357 270.181 589.982 270.42C589.613 270.653 589.312 271.012 589.079 271.498C588.853 271.976 588.74 272.585 588.74 273.322C588.74 274.008 588.846 274.594 589.06 275.079C589.274 275.564 589.565 275.936 589.933 276.195C590.302 276.454 590.716 276.583 591.176 276.583C591.836 276.583 592.327 276.425 592.651 276.108C592.981 275.784 593.146 275.341 593.146 274.778H595.019C595.019 275.431 594.867 276.02 594.563 276.544C594.259 277.068 593.819 277.486 593.243 277.796C592.674 278.1 591.991 278.252 591.195 278.252ZM600.783 278.252C599.981 278.252 599.256 278.045 598.609 277.631C597.962 277.217 597.448 276.641 597.066 275.904C596.691 275.166 596.503 274.312 596.503 273.342C596.503 272.313 596.691 271.433 597.066 270.702C597.442 269.964 597.953 269.398 598.6 269.003C599.247 268.609 599.975 268.411 600.783 268.411C601.508 268.411 602.129 268.56 602.647 268.858C603.164 269.149 603.582 269.544 603.899 270.042C604.216 270.534 604.432 271.093 604.549 271.721C604.672 272.348 604.694 272.995 604.617 273.662H597.979V272.594H603.355L602.909 272.885C602.928 272.536 602.909 272.187 602.851 271.837C602.799 271.488 602.695 271.168 602.54 270.877C602.385 270.579 602.165 270.343 601.88 270.168C601.602 269.987 601.246 269.896 600.812 269.896C600.269 269.896 599.813 270.032 599.444 270.304C599.082 270.576 598.807 270.941 598.619 271.401C598.432 271.853 598.338 272.352 598.338 272.895V273.642C598.338 274.244 598.428 274.778 598.609 275.244C598.791 275.71 599.059 276.078 599.415 276.35C599.777 276.615 600.233 276.748 600.783 276.748C601.32 276.748 601.764 276.622 602.113 276.37C602.469 276.117 602.689 275.739 602.773 275.234H604.656C604.559 275.842 604.335 276.373 603.986 276.826C603.637 277.279 603.187 277.631 602.637 277.884C602.094 278.129 601.476 278.252 600.783 278.252ZM614.305 278.252C613.775 278.252 613.296 278.152 612.869 277.951C612.442 277.751 612.102 277.45 611.85 277.049C611.604 276.641 611.481 276.13 611.481 275.516V266.121H613.315V275.457C613.315 276.337 613.726 276.777 614.548 276.777C614.8 276.777 615.046 276.751 615.285 276.7C615.525 276.641 615.797 276.557 616.101 276.447L616.363 277.757C616.02 277.9 615.68 278.016 615.344 278.107C615.014 278.204 614.668 278.252 614.305 278.252ZM610.055 269.916V268.664H616.081V269.916H610.055ZM624.812 278V272.526C624.812 271.718 624.618 271.106 624.229 270.692C623.848 270.272 623.33 270.061 622.677 270.061C622.159 270.061 621.706 270.204 621.318 270.488C620.936 270.767 620.639 271.177 620.425 271.721C620.218 272.258 620.114 272.915 620.114 273.691H619.455C619.455 272.546 619.6 271.582 619.891 270.799C620.189 270.016 620.613 269.424 621.163 269.023C621.713 268.615 622.373 268.411 623.142 268.411C623.893 268.411 624.527 268.58 625.045 268.916C625.569 269.253 625.967 269.731 626.238 270.352C626.51 270.967 626.646 271.692 626.646 272.526V278H624.812ZM618.271 278V264.733H620.114V278H618.271ZM635.522 278L635.289 275.855V271.963C635.289 271.2 635.131 270.647 634.814 270.304C634.497 269.955 633.995 269.78 633.31 269.78C632.921 269.78 632.575 269.838 632.271 269.955C631.973 270.065 631.737 270.233 631.563 270.459C631.394 270.686 631.31 270.97 631.31 271.313H629.272C629.272 270.627 629.44 270.071 629.777 269.644C630.113 269.217 630.582 268.906 631.184 268.712C631.792 268.512 632.501 268.411 633.31 268.411C634.066 268.411 634.733 268.538 635.309 268.79C635.885 269.036 636.331 269.424 636.648 269.955C636.972 270.485 637.133 271.171 637.133 272.012V278H635.522ZM632.397 278.252C631.614 278.252 630.964 278.116 630.447 277.845C629.929 277.567 629.541 277.204 629.282 276.758C629.03 276.311 628.903 275.836 628.903 275.331C628.903 274.716 629.059 274.212 629.369 273.817C629.686 273.416 630.123 273.118 630.679 272.924C631.236 272.73 631.876 272.633 632.601 272.633C633.099 272.633 633.584 272.678 634.057 272.769C634.529 272.86 634.995 272.979 635.454 273.128V274.244C635.079 274.108 634.662 274.002 634.202 273.924C633.749 273.84 633.326 273.798 632.931 273.798C632.342 273.798 631.851 273.914 631.456 274.147C631.061 274.38 630.864 274.775 630.864 275.331C630.864 275.739 631.019 276.091 631.33 276.389C631.64 276.68 632.132 276.826 632.805 276.826C633.297 276.826 633.73 276.716 634.105 276.496C634.481 276.269 634.772 275.988 634.979 275.651C635.186 275.315 635.289 274.979 635.289 274.642H635.736C635.736 275.289 635.603 275.888 635.338 276.437C635.079 276.981 634.701 277.421 634.202 277.757C633.704 278.087 633.102 278.252 632.397 278.252ZM643.159 278.252C642.628 278.252 642.149 278.152 641.722 277.951C641.295 277.751 640.956 277.45 640.703 277.049C640.457 276.641 640.335 276.13 640.335 275.516V266.121H642.169V275.457C642.169 276.337 642.58 276.777 643.401 276.777C643.654 276.777 643.9 276.751 644.139 276.7C644.378 276.641 644.65 276.557 644.954 276.447L645.216 277.757C644.873 277.9 644.534 278.016 644.197 278.107C643.867 278.204 643.521 278.252 643.159 278.252ZM638.908 269.916V268.664H644.935V269.916H638.908ZM652.445 266.674C652.076 266.674 651.785 266.574 651.572 266.373C651.365 266.166 651.261 265.888 651.261 265.539C651.261 265.202 651.365 264.937 651.572 264.743C651.785 264.542 652.076 264.442 652.445 264.442C652.807 264.442 653.092 264.542 653.299 264.743C653.513 264.937 653.619 265.202 653.619 265.539C653.619 265.888 653.513 266.166 653.299 266.373C653.092 266.574 652.807 266.674 652.445 266.674ZM651.523 278V268.635H653.367V278H651.523ZM660.336 278.252C659.43 278.252 658.667 278.126 658.046 277.874C657.425 277.615 656.949 277.259 656.619 276.806C656.296 276.347 656.127 275.81 656.114 275.195H657.852C657.878 275.732 658.091 276.13 658.492 276.389C658.9 276.648 659.45 276.777 660.142 276.777C660.511 276.777 660.844 276.719 661.142 276.602C661.446 276.486 661.685 276.328 661.86 276.127C662.041 275.926 662.132 275.7 662.132 275.448C662.132 275.131 662.015 274.881 661.782 274.7C661.549 274.513 661.174 274.348 660.656 274.205L658.744 273.555C657.981 273.296 657.396 272.953 656.988 272.526C656.58 272.093 656.376 271.575 656.376 270.974C656.376 270.204 656.719 269.586 657.405 269.12C658.091 268.648 659 268.411 660.132 268.411C661.303 268.411 662.206 268.661 662.84 269.159C663.481 269.65 663.814 270.268 663.84 271.012H662.064C662.018 270.644 661.834 270.362 661.51 270.168C661.193 269.967 660.734 269.867 660.132 269.867C659.569 269.867 659.126 269.99 658.803 270.236C658.486 270.482 658.327 270.76 658.327 271.071C658.327 271.627 658.806 272.041 659.764 272.313L661.772 273.021C662.536 273.267 663.125 273.584 663.539 273.972C663.953 274.361 664.16 274.852 664.16 275.448C664.16 275.926 664.001 276.379 663.684 276.806C663.367 277.233 662.921 277.583 662.345 277.854C661.776 278.12 661.106 278.252 660.336 278.252ZM677.446 278V272.526C677.446 271.718 677.252 271.106 676.864 270.692C676.482 270.272 675.965 270.061 675.311 270.061C674.793 270.061 674.341 270.204 673.952 270.488C673.571 270.767 673.273 271.177 673.06 271.721C672.852 272.258 672.749 272.915 672.749 273.691H672.089C672.089 272.546 672.235 271.582 672.526 270.799C672.823 270.016 673.247 269.424 673.797 269.023C674.347 268.615 675.007 268.411 675.777 268.411C676.527 268.411 677.161 268.58 677.679 268.916C678.203 269.253 678.601 269.731 678.873 270.352C679.145 270.967 679.28 271.692 679.28 272.526V278H677.446ZM670.905 278V268.664H672.506L672.749 270.682V278H670.905ZM685.818 278.252C684.97 278.252 684.21 278.068 683.537 277.699C682.871 277.33 682.343 276.78 681.955 276.049C681.567 275.318 681.373 274.416 681.373 273.342C681.373 272.248 681.567 271.339 681.955 270.614C682.343 269.883 682.871 269.333 683.537 268.965C684.21 268.596 684.97 268.411 685.818 268.411C686.652 268.411 687.403 268.596 688.069 268.965C688.736 269.333 689.26 269.883 689.642 270.614C690.03 271.339 690.224 272.248 690.224 273.342C690.224 274.416 690.03 275.318 689.642 276.049C689.26 276.78 688.736 277.33 688.069 277.699C687.403 278.068 686.652 278.252 685.818 278.252ZM685.76 276.641C686.297 276.641 686.759 276.512 687.147 276.253C687.542 275.994 687.843 275.619 688.05 275.127C688.263 274.629 688.37 274.034 688.37 273.342C688.37 272.281 688.153 271.459 687.72 270.877C687.293 270.294 686.675 270.003 685.866 270.003C685.323 270.003 684.854 270.136 684.459 270.401C684.071 270.66 683.77 271.038 683.557 271.536C683.349 272.028 683.246 272.63 683.246 273.342C683.246 274.383 683.463 275.195 683.896 275.778C684.33 276.353 684.951 276.641 685.76 276.641ZM695.585 278.252C695.054 278.252 694.575 278.152 694.148 277.951C693.721 277.751 693.382 277.45 693.129 277.049C692.883 276.641 692.761 276.13 692.761 275.516V266.121H694.595V275.457C694.595 276.337 695.006 276.777 695.827 276.777C696.08 276.777 696.325 276.751 696.565 276.7C696.804 276.641 697.076 276.557 697.38 276.447L697.642 277.757C697.299 277.9 696.96 278.016 696.623 278.107C696.293 278.204 695.947 278.252 695.585 278.252ZM691.334 269.916V268.664H697.361V269.916H691.334ZM707.317 278.252C706.469 278.252 705.709 278.068 705.036 277.699C704.37 277.33 703.842 276.78 703.454 276.049C703.066 275.318 702.872 274.416 702.872 273.342C702.872 272.248 703.066 271.339 703.454 270.614C703.842 269.883 704.37 269.333 705.036 268.965C705.709 268.596 706.469 268.411 707.317 268.411C708.151 268.411 708.902 268.596 709.568 268.965C710.235 269.333 710.759 269.883 711.14 270.614C711.529 271.339 711.723 272.248 711.723 273.342C711.723 274.416 711.529 275.318 711.14 276.049C710.759 276.78 710.235 277.33 709.568 277.699C708.902 278.068 708.151 278.252 707.317 278.252ZM707.258 276.641C707.795 276.641 708.258 276.512 708.646 276.253C709.041 275.994 709.342 275.619 709.549 275.127C709.762 274.629 709.869 274.034 709.869 273.342C709.869 272.281 709.652 271.459 709.219 270.877C708.792 270.294 708.174 270.003 707.365 270.003C706.822 270.003 706.353 270.136 705.958 270.401C705.57 270.66 705.269 271.038 705.055 271.536C704.848 272.028 704.745 272.63 704.745 273.342C704.745 274.383 704.962 275.195 705.395 275.778C705.829 276.353 706.45 276.641 707.258 276.641ZM720.626 278V272.526C720.626 271.718 720.432 271.106 720.044 270.692C719.662 270.272 719.144 270.061 718.491 270.061C717.973 270.061 717.52 270.204 717.132 270.488C716.75 270.767 716.453 271.177 716.239 271.721C716.032 272.258 715.929 272.915 715.929 273.691H715.269C715.269 272.546 715.414 271.582 715.705 270.799C716.003 270.016 716.427 269.424 716.977 269.023C717.527 268.615 718.187 268.411 718.957 268.411C719.707 268.411 720.341 268.58 720.859 268.916C721.383 269.253 721.781 269.731 722.052 270.352C722.324 270.967 722.46 271.692 722.46 272.526V278H720.626ZM714.085 278V268.664H715.686L715.929 270.682V278H714.085ZM725.484 278V264.733H727.328V278H725.484ZM729.144 268.664H731.211L734.025 276.389H733.647L735.908 268.664H737.791L734.249 279.795C733.925 280.805 733.508 281.559 732.997 282.057C732.492 282.561 731.858 282.814 731.095 282.814C730.667 282.814 730.257 282.759 729.862 282.649C729.474 282.539 729.076 282.377 728.668 282.163V280.504C729.018 280.75 729.354 280.928 729.678 281.038C730.001 281.148 730.338 281.203 730.687 281.203C731.036 281.203 731.334 281.096 731.58 280.882C731.832 280.675 732.042 280.397 732.211 280.048C732.385 279.705 732.534 279.33 732.657 278.922L732.938 278L729.144 268.664ZM747.09 278.252C746.288 278.252 745.563 278.045 744.916 277.631C744.269 277.217 743.755 276.641 743.373 275.904C742.998 275.166 742.81 274.312 742.81 273.342C742.81 272.313 742.998 271.433 743.373 270.702C743.748 269.964 744.259 269.398 744.906 269.003C745.553 268.609 746.281 268.411 747.09 268.411C747.815 268.411 748.436 268.56 748.953 268.858C749.471 269.149 749.888 269.544 750.205 270.042C750.522 270.534 750.739 271.093 750.856 271.721C750.978 272.348 751.001 272.995 750.923 273.662H744.285V272.594H749.662L749.215 272.885C749.235 272.536 749.215 272.187 749.157 271.837C749.105 271.488 749.002 271.168 748.847 270.877C748.691 270.579 748.471 270.343 748.187 270.168C747.908 269.987 747.553 269.896 747.119 269.896C746.576 269.896 746.12 270.032 745.751 270.304C745.388 270.576 745.113 270.941 744.926 271.401C744.738 271.853 744.644 272.352 744.644 272.895V273.642C744.644 274.244 744.735 274.778 744.916 275.244C745.097 275.71 745.366 276.078 745.722 276.35C746.084 276.615 746.54 276.748 747.09 276.748C747.627 276.748 748.07 276.622 748.42 276.37C748.775 276.117 748.995 275.739 749.08 275.234H750.962C750.865 275.842 750.642 276.373 750.293 276.826C749.943 277.279 749.494 277.631 748.944 277.884C748.4 278.129 747.782 278.252 747.09 278.252ZM753.884 278V267.354C753.884 266.707 754.007 266.183 754.252 265.781C754.505 265.374 754.838 265.073 755.252 264.879C755.666 264.685 756.122 264.588 756.62 264.588C756.905 264.588 757.196 264.607 757.494 264.646C757.798 264.685 758.096 264.743 758.387 264.821L758.037 266.257C757.856 266.192 757.672 266.14 757.484 266.102C757.303 266.063 757.128 266.043 756.96 266.043C756.76 266.043 756.565 266.082 756.378 266.16C756.19 266.231 756.035 266.364 755.912 266.558C755.796 266.752 755.737 267.027 755.737 267.383V278H753.884ZM752.418 269.916V268.664H757.572V269.916H752.418ZM760.241 278V267.354C760.241 266.707 760.364 266.183 760.61 265.781C760.862 265.374 761.196 265.073 761.61 264.879C762.024 264.685 762.48 264.588 762.978 264.588C763.263 264.588 763.554 264.607 763.851 264.646C764.156 264.685 764.453 264.743 764.744 264.821L764.395 266.257C764.214 266.192 764.029 266.14 763.842 266.102C763.661 266.063 763.486 266.043 763.318 266.043C763.117 266.043 762.923 266.082 762.735 266.16C762.548 266.231 762.392 266.364 762.27 266.558C762.153 266.752 762.095 267.027 762.095 267.383V278H760.241ZM758.776 269.916V268.664H763.929V269.916H758.776ZM767.636 266.674C767.268 266.674 766.976 266.574 766.763 266.373C766.556 266.166 766.452 265.888 766.452 265.539C766.452 265.202 766.556 264.937 766.763 264.743C766.976 264.542 767.268 264.442 767.636 264.442C767.999 264.442 768.283 264.542 768.49 264.743C768.704 264.937 768.811 265.202 768.811 265.539C768.811 265.888 768.704 266.166 768.49 266.373C768.283 266.574 767.999 266.674 767.636 266.674ZM766.714 278V268.635H768.558V278H766.714ZM775.518 278.252C774.755 278.252 774.043 278.049 773.383 277.641C772.723 277.233 772.192 276.661 771.791 275.923C771.39 275.186 771.19 274.319 771.19 273.322C771.19 272.274 771.39 271.388 771.791 270.663C772.192 269.932 772.723 269.375 773.383 268.994C774.043 268.606 774.755 268.411 775.518 268.411C776.081 268.411 776.582 268.502 777.022 268.683C777.462 268.858 777.841 269.097 778.158 269.401C778.475 269.699 778.73 270.035 778.925 270.411C779.125 270.786 779.264 271.174 779.342 271.575L777.469 271.672C777.333 271.187 777.094 270.799 776.751 270.508C776.414 270.21 775.997 270.061 775.499 270.061C775.078 270.061 774.68 270.181 774.305 270.42C773.936 270.653 773.635 271.012 773.402 271.498C773.176 271.976 773.063 272.585 773.063 273.322C773.063 274.008 773.169 274.594 773.383 275.079C773.596 275.564 773.888 275.936 774.256 276.195C774.625 276.454 775.039 276.583 775.499 276.583C776.159 276.583 776.65 276.425 776.974 276.108C777.304 275.784 777.469 275.341 777.469 274.778H779.342C779.342 275.431 779.19 276.02 778.886 276.544C778.582 277.068 778.142 277.486 777.566 277.796C776.996 278.1 776.314 278.252 775.518 278.252ZM782.826 266.674C782.457 266.674 782.166 266.574 781.952 266.373C781.745 266.166 781.642 265.888 781.642 265.539C781.642 265.202 781.745 264.937 781.952 264.743C782.166 264.542 782.457 264.442 782.826 264.442C783.188 264.442 783.473 264.542 783.68 264.743C783.893 264.937 784 265.202 784 265.539C784 265.888 783.893 266.166 783.68 266.373C783.473 266.574 783.188 266.674 782.826 266.674ZM781.904 278V268.635H783.748V278H781.904ZM790.649 278.252C789.847 278.252 789.122 278.045 788.475 277.631C787.828 277.217 787.313 276.641 786.932 275.904C786.557 275.166 786.369 274.312 786.369 273.342C786.369 272.313 786.557 271.433 786.932 270.702C787.307 269.964 787.818 269.398 788.465 269.003C789.112 268.609 789.84 268.411 790.649 268.411C791.373 268.411 791.995 268.56 792.512 268.858C793.03 269.149 793.447 269.544 793.764 270.042C794.081 270.534 794.298 271.093 794.414 271.721C794.537 272.348 794.56 272.995 794.482 273.662H787.844V272.594H793.221L792.774 272.885C792.794 272.536 792.774 272.187 792.716 271.837C792.664 271.488 792.561 271.168 792.405 270.877C792.25 270.579 792.03 270.343 791.745 270.168C791.467 269.987 791.111 269.896 790.678 269.896C790.134 269.896 789.678 270.032 789.309 270.304C788.947 270.576 788.672 270.941 788.485 271.401C788.297 271.853 788.203 272.352 788.203 272.895V273.642C788.203 274.244 788.294 274.778 788.475 275.244C788.656 275.71 788.925 276.078 789.28 276.35C789.643 276.615 790.099 276.748 790.649 276.748C791.186 276.748 791.629 276.622 791.978 276.37C792.334 276.117 792.554 275.739 792.638 275.234H794.521C794.424 275.842 794.201 276.373 793.851 276.826C793.502 277.279 793.052 277.631 792.502 277.884C791.959 278.129 791.341 278.252 790.649 278.252ZM803.46 278V272.526C803.46 271.718 803.265 271.106 802.877 270.692C802.495 270.272 801.978 270.061 801.324 270.061C800.807 270.061 800.354 270.204 799.966 270.488C799.584 270.767 799.286 271.177 799.073 271.721C798.866 272.258 798.762 272.915 798.762 273.691H798.102C798.102 272.546 798.248 271.582 798.539 270.799C798.837 270.016 799.26 269.424 799.81 269.023C800.36 268.615 801.02 268.411 801.79 268.411C802.541 268.411 803.175 268.58 803.692 268.916C804.217 269.253 804.614 269.731 804.886 270.352C805.158 270.967 805.294 271.692 805.294 272.526V278H803.46ZM796.918 278V268.664H798.52L798.762 270.682V278H796.918ZM811.317 278.252C810.786 278.252 810.307 278.152 809.88 277.951C809.453 277.751 809.114 277.45 808.861 277.049C808.616 276.641 808.493 276.13 808.493 275.516V266.121H810.327V275.457C810.327 276.337 810.738 276.777 811.559 276.777C811.812 276.777 812.058 276.751 812.297 276.7C812.536 276.641 812.808 276.557 813.112 276.447L813.374 277.757C813.031 277.9 812.692 278.016 812.355 278.107C812.025 278.204 811.679 278.252 811.317 278.252ZM807.066 269.916V268.664H813.093V269.916H807.066ZM815.301 280.339L813.923 279.65C814.318 279.449 814.658 279.226 814.942 278.98C815.227 278.734 815.415 278.44 815.505 278.097C815.195 278.052 814.929 277.932 814.709 277.738C814.489 277.544 814.379 277.288 814.379 276.971C814.379 276.648 814.499 276.376 814.739 276.156C814.984 275.93 815.295 275.816 815.67 275.816C816.143 275.816 816.518 275.985 816.796 276.321C817.081 276.657 817.223 277.059 817.223 277.524C817.223 278.061 817.055 278.586 816.718 279.097C816.388 279.614 815.916 280.028 815.301 280.339ZM827.96 278.252C827.352 278.252 826.799 278.091 826.301 277.767C825.809 277.437 825.414 276.952 825.117 276.311C824.826 275.671 824.68 274.885 824.68 273.953H825.311C825.311 274.496 825.427 274.966 825.66 275.36C825.9 275.755 826.204 276.059 826.572 276.273C826.941 276.48 827.326 276.583 827.727 276.583C828.206 276.583 828.636 276.45 829.018 276.185C829.406 275.92 829.714 275.541 829.94 275.05C830.173 274.551 830.289 273.966 830.289 273.293C830.289 272.627 830.176 272.054 829.95 271.575C829.723 271.09 829.416 270.718 829.028 270.459C828.64 270.194 828.2 270.061 827.708 270.061C827.294 270.061 826.902 270.162 826.534 270.362C826.171 270.563 825.877 270.86 825.65 271.255C825.424 271.643 825.311 272.119 825.311 272.682H824.68C824.68 271.769 824.822 270.996 825.107 270.362C825.392 269.728 825.786 269.246 826.291 268.916C826.802 268.58 827.401 268.411 828.086 268.411C828.83 268.411 829.51 268.612 830.124 269.013C830.746 269.408 831.241 269.971 831.609 270.702C831.985 271.433 832.172 272.297 832.172 273.293C832.172 274.296 831.981 275.169 831.6 275.913C831.218 276.651 830.707 277.227 830.066 277.641C829.432 278.049 828.73 278.252 827.96 278.252ZM823.467 278V264.733H825.311V275.758L824.719 278H823.467ZM840.947 268.635H842.8V278H840.947V268.635ZM834.425 268.635H836.269V274.419C836.269 275.124 836.44 275.658 836.783 276.02C837.133 276.382 837.621 276.564 838.249 276.564C838.779 276.564 839.245 276.425 839.646 276.146C840.054 275.868 840.371 275.473 840.597 274.962C840.83 274.451 840.947 273.846 840.947 273.148H841.539C841.539 274.241 841.39 275.16 841.092 275.904C840.795 276.648 840.377 277.214 839.84 277.602C839.303 277.984 838.676 278.175 837.958 278.175C837.272 278.175 836.66 278.049 836.123 277.796C835.593 277.544 835.176 277.156 834.871 276.632C834.574 276.101 834.425 275.418 834.425 274.584V268.635ZM849.094 278.252C848.564 278.252 848.085 278.152 847.658 277.951C847.231 277.751 846.891 277.45 846.639 277.049C846.393 276.641 846.27 276.13 846.27 275.516V266.121H848.104V275.457C848.104 276.337 848.515 276.777 849.337 276.777C849.589 276.777 849.835 276.751 850.074 276.7C850.314 276.641 850.586 276.557 850.89 276.447L851.152 277.757C850.809 277.9 850.469 278.016 850.133 278.107C849.803 278.204 849.457 278.252 849.094 278.252ZM844.843 269.916V268.664H850.87V269.916H844.843ZM863.165 278L862.932 275.855V271.963C862.932 271.2 862.774 270.647 862.457 270.304C862.14 269.955 861.638 269.78 860.952 269.78C860.564 269.78 860.218 269.838 859.914 269.955C859.616 270.065 859.38 270.233 859.206 270.459C859.037 270.686 858.953 270.97 858.953 271.313H856.915C856.915 270.627 857.083 270.071 857.42 269.644C857.756 269.217 858.225 268.906 858.827 268.712C859.435 268.512 860.144 268.411 860.952 268.411C861.709 268.411 862.376 268.538 862.952 268.79C863.527 269.036 863.974 269.424 864.291 269.955C864.614 270.485 864.776 271.171 864.776 272.012V278H863.165ZM860.04 278.252C859.257 278.252 858.607 278.116 858.089 277.845C857.572 277.567 857.184 277.204 856.925 276.758C856.673 276.311 856.546 275.836 856.546 275.331C856.546 274.716 856.702 274.212 857.012 273.817C857.329 273.416 857.766 273.118 858.322 272.924C858.879 272.73 859.519 272.633 860.244 272.633C860.742 272.633 861.227 272.678 861.7 272.769C862.172 272.86 862.638 272.979 863.097 273.128V274.244C862.722 274.108 862.305 274.002 861.845 273.924C861.392 273.84 860.969 273.798 860.574 273.798C859.985 273.798 859.493 273.914 859.099 274.147C858.704 274.38 858.507 274.775 858.507 275.331C858.507 275.739 858.662 276.091 858.973 276.389C859.283 276.68 859.775 276.826 860.448 276.826C860.939 276.826 861.373 276.716 861.748 276.496C862.123 276.269 862.415 275.988 862.622 275.651C862.829 275.315 862.932 274.979 862.932 274.642H863.379C863.379 275.289 863.246 275.888 862.981 276.437C862.722 276.981 862.343 277.421 861.845 277.757C861.347 278.087 860.745 278.252 860.04 278.252ZM867.803 278V264.733H869.647V278H867.803ZM876.363 278.252C875.458 278.252 874.694 278.126 874.073 277.874C873.452 277.615 872.976 277.259 872.646 276.806C872.323 276.347 872.155 275.81 872.142 275.195H873.879C873.905 275.732 874.118 276.13 874.519 276.389C874.927 276.648 875.477 276.777 876.169 276.777C876.538 276.777 876.871 276.719 877.169 276.602C877.473 276.486 877.712 276.328 877.887 276.127C878.068 275.926 878.159 275.7 878.159 275.448C878.159 275.131 878.042 274.881 877.809 274.7C877.576 274.513 877.201 274.348 876.684 274.205L874.772 273.555C874.008 273.296 873.423 272.953 873.015 272.526C872.608 272.093 872.404 271.575 872.404 270.974C872.404 270.204 872.747 269.586 873.432 269.12C874.118 268.648 875.027 268.411 876.16 268.411C877.331 268.411 878.233 268.661 878.867 269.159C879.508 269.65 879.841 270.268 879.867 271.012H878.091C878.046 270.644 877.861 270.362 877.538 270.168C877.221 269.967 876.761 269.867 876.16 269.867C875.597 269.867 875.153 269.99 874.83 270.236C874.513 270.482 874.354 270.76 874.354 271.071C874.354 271.627 874.833 272.041 875.791 272.313L877.8 273.021C878.563 273.267 879.152 273.584 879.566 273.972C879.98 274.361 880.187 274.852 880.187 275.448C880.187 275.926 880.029 276.379 879.712 276.806C879.395 277.233 878.948 277.583 878.372 277.854C877.803 278.12 877.133 278.252 876.363 278.252ZM886.192 278.252C885.344 278.252 884.584 278.068 883.911 277.699C883.245 277.33 882.718 276.78 882.329 276.049C881.941 275.318 881.747 274.416 881.747 273.342C881.747 272.248 881.941 271.339 882.329 270.614C882.718 269.883 883.245 269.333 883.911 268.965C884.584 268.596 885.344 268.411 886.192 268.411C887.027 268.411 887.777 268.596 888.444 268.965C889.11 269.333 889.634 269.883 890.016 270.614C890.404 271.339 890.598 272.248 890.598 273.342C890.598 274.416 890.404 275.318 890.016 276.049C889.634 276.78 889.11 277.33 888.444 277.699C887.777 278.068 887.027 278.252 886.192 278.252ZM886.134 276.641C886.671 276.641 887.133 276.512 887.522 276.253C887.916 275.994 888.217 275.619 888.424 275.127C888.638 274.629 888.744 274.034 888.744 273.342C888.744 272.281 888.528 271.459 888.094 270.877C887.667 270.294 887.049 270.003 886.24 270.003C885.697 270.003 885.228 270.136 884.833 270.401C884.445 270.66 884.144 271.038 883.931 271.536C883.724 272.028 883.62 272.63 883.62 273.342C883.62 274.383 883.837 275.195 884.27 275.778C884.704 276.353 885.325 276.641 886.134 276.641ZM900.562 278.252C899.759 278.252 899.035 278.045 898.388 277.631C897.741 277.217 897.226 276.641 896.845 275.904C896.469 275.166 896.282 274.312 896.282 273.342C896.282 272.313 896.469 271.433 896.845 270.702C897.22 269.964 897.731 269.398 898.378 269.003C899.025 268.609 899.753 268.411 900.562 268.411C901.286 268.411 901.907 268.56 902.425 268.858C902.943 269.149 903.36 269.544 903.677 270.042C903.994 270.534 904.211 271.093 904.327 271.721C904.45 272.348 904.473 272.995 904.395 273.662H897.757V272.594H903.134L902.687 272.885C902.706 272.536 902.687 272.187 902.629 271.837C902.577 271.488 902.474 271.168 902.318 270.877C902.163 270.579 901.943 270.343 901.658 270.168C901.38 269.987 901.024 269.896 900.591 269.896C900.047 269.896 899.591 270.032 899.222 270.304C898.86 270.576 898.585 270.941 898.397 271.401C898.21 271.853 898.116 272.352 898.116 272.895V273.642C898.116 274.244 898.207 274.778 898.388 275.244C898.569 275.71 898.837 276.078 899.193 276.35C899.556 276.615 900.012 276.748 900.562 276.748C901.099 276.748 901.542 276.622 901.891 276.37C902.247 276.117 902.467 275.739 902.551 275.234H904.434C904.337 275.842 904.114 276.373 903.764 276.826C903.415 277.279 902.965 277.631 902.415 277.884C901.872 278.129 901.254 278.252 900.562 278.252ZM913.372 278V272.526C913.372 271.718 913.178 271.106 912.79 270.692C912.408 270.272 911.891 270.061 911.237 270.061C910.72 270.061 910.267 270.204 909.879 270.488C909.497 270.767 909.199 271.177 908.986 271.721C908.779 272.258 908.675 272.915 908.675 273.691H908.015C908.015 272.546 908.161 271.582 908.452 270.799C908.75 270.016 909.173 269.424 909.723 269.023C910.273 268.615 910.933 268.411 911.703 268.411C912.454 268.411 913.088 268.58 913.605 268.916C914.129 269.253 914.527 269.731 914.799 270.352C915.071 270.967 915.207 271.692 915.207 272.526V278H913.372ZM906.831 278V268.664H908.433L908.675 270.682V278H906.831ZM919.512 266.674C919.15 266.674 918.862 266.574 918.648 266.373C918.441 266.166 918.338 265.888 918.338 265.539C918.338 265.202 918.441 264.937 918.648 264.743C918.862 264.542 919.15 264.442 919.512 264.442C919.874 264.442 920.162 264.542 920.376 264.743C920.589 264.937 920.696 265.202 920.696 265.539C920.696 265.888 920.589 266.166 920.376 266.373C920.162 266.574 919.874 266.674 919.512 266.674ZM917.406 282.814C916.934 282.814 916.487 282.755 916.067 282.639C915.64 282.529 915.203 282.364 914.756 282.144L914.815 280.552C915.177 280.74 915.539 280.895 915.902 281.018C916.264 281.141 916.633 281.203 917.008 281.203C917.519 281.203 917.914 281.044 918.192 280.727C918.47 280.417 918.609 279.912 918.609 279.213V268.625H920.444V279.233C920.444 280.514 920.169 281.429 919.619 281.979C919.069 282.535 918.331 282.814 917.406 282.814ZM927.514 278.252C926.666 278.252 925.906 278.068 925.233 277.699C924.567 277.33 924.04 276.78 923.651 276.049C923.263 275.318 923.069 274.416 923.069 273.342C923.069 272.248 923.263 271.339 923.651 270.614C924.04 269.883 924.567 269.333 925.233 268.965C925.906 268.596 926.666 268.411 927.514 268.411C928.349 268.411 929.099 268.596 929.766 268.965C930.432 269.333 930.956 269.883 931.338 270.614C931.726 271.339 931.92 272.248 931.92 273.342C931.92 274.416 931.726 275.318 931.338 276.049C930.956 276.78 930.432 277.33 929.766 277.699C929.099 278.068 928.349 278.252 927.514 278.252ZM927.456 276.641C927.993 276.641 928.455 276.512 928.844 276.253C929.238 275.994 929.539 275.619 929.746 275.127C929.96 274.629 930.066 274.034 930.066 273.342C930.066 272.281 929.85 271.459 929.416 270.877C928.989 270.294 928.371 270.003 927.563 270.003C927.019 270.003 926.55 270.136 926.155 270.401C925.767 270.66 925.466 271.038 925.253 271.536C925.046 272.028 924.942 272.63 924.942 273.342C924.942 274.383 925.159 275.195 925.592 275.778C926.026 276.353 926.647 276.641 927.456 276.641ZM932.797 268.664H934.864L937.679 276.389H937.3L939.562 268.664H941.444L937.902 279.795C937.578 280.805 937.161 281.559 936.65 282.057C936.145 282.561 935.511 282.814 934.748 282.814C934.321 282.814 933.91 282.759 933.515 282.649C933.127 282.539 932.729 282.377 932.322 282.163V280.504C932.671 280.75 933.007 280.928 933.331 281.038C933.654 281.148 933.991 281.203 934.34 281.203C934.69 281.203 934.987 281.096 935.233 280.882C935.485 280.675 935.696 280.397 935.864 280.048C936.039 279.705 936.187 279.33 936.31 278.922L936.592 278L932.797 268.664ZM948.994 278L948.761 275.855V271.963C948.761 271.2 948.602 270.647 948.285 270.304C947.968 269.955 947.467 269.78 946.781 269.78C946.393 269.78 946.047 269.838 945.743 269.955C945.445 270.065 945.209 270.233 945.034 270.459C944.866 270.686 944.782 270.97 944.782 271.313H942.744C942.744 270.627 942.912 270.071 943.248 269.644C943.585 269.217 944.054 268.906 944.656 268.712C945.264 268.512 945.972 268.411 946.781 268.411C947.538 268.411 948.204 268.538 948.78 268.79C949.356 269.036 949.802 269.424 950.12 269.955C950.443 270.485 950.605 271.171 950.605 272.012V278H948.994ZM945.869 278.252C945.086 278.252 944.436 278.116 943.918 277.845C943.4 277.567 943.012 277.204 942.753 276.758C942.501 276.311 942.375 275.836 942.375 275.331C942.375 274.716 942.53 274.212 942.841 273.817C943.158 273.416 943.595 273.118 944.151 272.924C944.707 272.73 945.348 272.633 946.073 272.633C946.571 272.633 947.056 272.678 947.528 272.769C948.001 272.86 948.466 272.979 948.926 273.128V274.244C948.551 274.108 948.133 274.002 947.674 273.924C947.221 273.84 946.797 273.798 946.403 273.798C945.814 273.798 945.322 273.914 944.927 274.147C944.533 274.38 944.335 274.775 944.335 275.331C944.335 275.739 944.491 276.091 944.801 276.389C945.112 276.68 945.603 276.826 946.276 276.826C946.768 276.826 947.202 276.716 947.577 276.496C947.952 276.269 948.243 275.988 948.45 275.651C948.657 275.315 948.761 274.979 948.761 274.642H949.207C949.207 275.289 949.075 275.888 948.809 276.437C948.551 276.981 948.172 277.421 947.674 277.757C947.176 278.087 946.574 278.252 945.869 278.252ZM958.125 278.252C957.517 278.252 956.963 278.091 956.465 277.767C955.974 277.437 955.579 276.952 955.281 276.311C954.99 275.671 954.844 274.885 954.844 273.953H955.475C955.475 274.496 955.592 274.966 955.825 275.36C956.064 275.755 956.368 276.059 956.737 276.273C957.106 276.48 957.491 276.583 957.892 276.583C958.371 276.583 958.801 276.45 959.183 276.185C959.571 275.92 959.878 275.541 960.105 275.05C960.338 274.551 960.454 273.966 960.454 273.293C960.454 272.627 960.341 272.054 960.114 271.575C959.888 271.09 959.581 270.718 959.192 270.459C958.804 270.194 958.364 270.061 957.872 270.061C957.458 270.061 957.067 270.162 956.698 270.362C956.336 270.563 956.041 270.86 955.815 271.255C955.589 271.643 955.475 272.119 955.475 272.682H954.844C954.844 271.769 954.987 270.996 955.272 270.362C955.556 269.728 955.951 269.246 956.456 268.916C956.967 268.58 957.565 268.411 958.251 268.411C958.995 268.411 959.674 268.612 960.289 269.013C960.91 269.408 961.405 269.971 961.774 270.702C962.149 271.433 962.337 272.297 962.337 273.293C962.337 274.296 962.146 275.169 961.764 275.913C961.382 276.651 960.871 277.227 960.231 277.641C959.597 278.049 958.895 278.252 958.125 278.252ZM953.631 278V264.733H955.475V275.758L954.883 278H953.631ZM964.822 278V264.733H966.666V278H964.822ZM973.315 278.252C972.513 278.252 971.788 278.045 971.141 277.631C970.494 277.217 969.98 276.641 969.598 275.904C969.223 275.166 969.035 274.312 969.035 273.342C969.035 272.313 969.223 271.433 969.598 270.702C969.973 269.964 970.484 269.398 971.131 269.003C971.778 268.609 972.506 268.411 973.315 268.411C974.04 268.411 974.661 268.56 975.178 268.858C975.696 269.149 976.113 269.544 976.43 270.042C976.747 270.534 976.964 271.093 977.081 271.721C977.204 272.348 977.226 272.995 977.149 273.662H970.51V272.594H975.887L975.44 272.885C975.46 272.536 975.44 272.187 975.382 271.837C975.33 271.488 975.227 271.168 975.072 270.877C974.916 270.579 974.696 270.343 974.412 270.168C974.134 269.987 973.778 269.896 973.344 269.896C972.801 269.896 972.345 270.032 971.976 270.304C971.613 270.576 971.338 270.941 971.151 271.401C970.963 271.853 970.869 272.352 970.869 272.895V273.642C970.869 274.244 970.96 274.778 971.141 275.244C971.322 275.71 971.591 276.078 971.947 276.35C972.309 276.615 972.765 276.748 973.315 276.748C973.852 276.748 974.295 276.622 974.645 276.37C975.001 276.117 975.22 275.739 975.305 275.234H977.187C977.09 275.842 976.867 276.373 976.518 276.826C976.168 277.279 975.719 277.631 975.169 277.884C974.625 278.129 974.007 278.252 973.315 278.252ZM981.108 274.613V273.778C981.108 273.215 981.17 272.756 981.293 272.4C981.422 272.038 981.626 271.727 981.904 271.469C982.182 271.203 982.561 270.948 983.04 270.702C983.467 270.475 983.8 270.268 984.039 270.081C984.285 269.887 984.46 269.683 984.563 269.469C984.667 269.256 984.719 269 984.719 268.703C984.719 268.237 984.531 267.852 984.156 267.548C983.78 267.237 983.263 267.082 982.603 267.082C981.859 267.082 981.286 267.237 980.885 267.548C980.49 267.858 980.251 268.279 980.167 268.809H978.226C978.31 267.787 978.714 266.965 979.439 266.344C980.164 265.723 981.199 265.413 982.545 265.413C983.412 265.413 984.159 265.561 984.787 265.859C985.414 266.15 985.896 266.548 986.233 267.053C986.569 267.557 986.737 268.117 986.737 268.732C986.737 269.398 986.569 269.961 986.233 270.42C985.896 270.88 985.359 271.3 984.622 271.682C984.195 271.908 983.858 272.122 983.612 272.323C983.366 272.517 983.192 272.737 983.088 272.983C982.991 273.228 982.943 273.545 982.943 273.934V274.613H981.108ZM982.069 278.252C981.681 278.252 981.364 278.129 981.118 277.884C980.872 277.638 980.749 277.34 980.749 276.991C980.749 276.628 980.869 276.321 981.108 276.069C981.354 275.816 981.671 275.69 982.059 275.69C982.448 275.69 982.771 275.816 983.03 276.069C983.295 276.315 983.428 276.619 983.428 276.981C983.428 277.33 983.298 277.631 983.04 277.884C982.781 278.129 982.457 278.252 982.069 278.252Z" fill="#666666"/>
<line x1="422" y1="192.276" x2="1078.01" y2="192.276" stroke="#383838"/>
<line x1="422" y1="322.276" x2="1078.01" y2="322.276" stroke="#383838"/>
</svg>
