<svg width="1500" height="475" viewBox="0 0 1500 475" fill="none" xmlns="http://www.w3.org/2000/svg">
<rect width="1500" height="475" fill="#E5E5E5"/>
<rect width="1500" height="475" fill="white"/>
<path d="M645.998 179.44C644.208 179.44 642.648 179.016 641.318 178.168C639.999 177.309 638.973 176.084 638.24 174.493C637.507 172.901 637.141 170.99 637.141 168.76C637.141 166.457 637.518 164.525 638.271 162.965C639.036 161.395 640.083 160.212 641.412 159.416C642.753 158.61 644.281 158.207 645.998 158.207C648.375 158.207 650.228 158.782 651.558 159.934C652.898 161.086 653.757 162.583 654.134 164.426L650.176 165.148C649.851 164.08 649.333 163.216 648.621 162.557C647.909 161.897 647.035 161.567 645.998 161.567C645.087 161.567 644.266 161.834 643.533 162.368C642.8 162.892 642.213 163.688 641.774 164.756C641.344 165.824 641.13 167.158 641.13 168.76C641.13 170.268 641.318 171.566 641.695 172.655C642.083 173.744 642.637 174.582 643.36 175.168C644.082 175.754 644.962 176.047 645.998 176.047C647.328 176.047 648.354 175.697 649.077 174.995C649.809 174.283 650.176 173.378 650.176 172.278H654.134C654.134 173.796 653.804 175.089 653.144 176.157C652.495 177.215 651.563 178.026 650.349 178.592C649.134 179.157 647.684 179.44 645.998 179.44ZM665.403 158.615H669.109V167.127H677.998V158.615H681.705V179H677.998V170.362H669.109V179H665.403V158.615ZM692.23 179L699.171 158.615H703.82L710.479 179H706.584L705.171 174.603H697.601L696.156 179H692.23ZM698.543 171.807H704.291L701.433 163.044L698.543 171.807ZM724.738 158.615V175.765H733.125V179H721.032V158.615H724.738ZM747.169 158.615V175.765H755.556V179H743.463V158.615H747.169ZM765.863 179V158.615H778.961V161.819H769.569V167.19H778.395V170.394H769.569V175.765H778.961V179H765.863ZM791.177 158.615H795.228L804.494 173.158H804.212V158.615H807.918V179H804.149L794.286 163.578H794.883V179H791.177V158.615ZM828.108 179.44C826.444 179.44 824.941 179 823.601 178.121C822.261 177.241 821.193 176.016 820.397 174.446C819.612 172.865 819.219 171.022 819.219 168.917C819.219 167.253 819.46 165.761 819.942 164.441C820.434 163.122 821.114 161.997 821.983 161.065C822.852 160.133 823.873 159.426 825.046 158.945C826.219 158.453 827.491 158.207 828.862 158.207C830.768 158.207 832.364 158.62 833.652 159.447C834.951 160.274 835.961 161.578 836.683 163.358L832.883 164.237C832.349 163.368 831.731 162.709 831.029 162.258C830.338 161.798 829.553 161.567 828.674 161.567C827.669 161.567 826.752 161.866 825.925 162.463C825.098 163.049 824.439 163.892 823.947 164.991C823.454 166.09 823.208 167.399 823.208 168.917C823.208 170.341 823.423 171.587 823.852 172.655C824.292 173.723 824.905 174.555 825.69 175.152C826.475 175.749 827.386 176.047 828.422 176.047C829.302 176.047 830.087 175.854 830.778 175.466C831.48 175.069 832.029 174.503 832.427 173.77C832.836 173.037 833.04 172.153 833.04 171.116H833.856C833.856 172.812 833.652 174.283 833.244 175.529C832.846 176.775 832.223 177.738 831.375 178.419C830.527 179.099 829.438 179.44 828.108 179.44ZM833.574 179L833.04 174.508V170.99L828.454 170.896V168.54H836.589V179H833.574ZM848.8 179V158.615H861.898V161.819H852.506V167.19H861.333V170.394H852.506V175.765H861.898V179H848.8Z" fill="#383838"/>
<path d="M445.819 227.424H448.651V233.928H455.443V227.424H458.275V243H455.443V236.4H448.651V243H445.819V227.424ZM466.725 243.336C465.661 243.336 464.697 243.108 463.833 242.652C462.977 242.196 462.297 241.516 461.793 240.612C461.289 239.7 461.037 238.56 461.037 237.192C461.037 235.8 461.289 234.648 461.793 233.736C462.297 232.824 462.977 232.144 463.833 231.696C464.697 231.248 465.661 231.024 466.725 231.024C467.773 231.024 468.721 231.248 469.569 231.696C470.425 232.144 471.105 232.824 471.609 233.736C472.113 234.648 472.365 235.8 472.365 237.192C472.365 238.56 472.113 239.7 471.609 240.612C471.105 241.516 470.425 242.196 469.569 242.652C468.721 243.108 467.773 243.336 466.725 243.336ZM466.629 240.864C467.189 240.864 467.685 240.728 468.117 240.456C468.557 240.176 468.901 239.764 469.149 239.22C469.405 238.676 469.533 238 469.533 237.192C469.533 235.96 469.289 235.032 468.801 234.408C468.321 233.784 467.661 233.472 466.821 233.472C466.253 233.472 465.749 233.612 465.309 233.892C464.869 234.164 464.521 234.576 464.265 235.128C464.017 235.68 463.893 236.368 463.893 237.192C463.893 238.408 464.137 239.324 464.625 239.94C465.121 240.556 465.789 240.864 466.629 240.864ZM473.191 231.36H476.143L478.663 240.192H478.375L480.751 231.984H483.319L485.695 240.216H485.407L487.927 231.36H490.759L486.919 243H484.135L481.759 235.272H482.191L479.863 243H477.055L473.191 231.36ZM502.609 243.336C501.633 243.336 500.725 243.084 499.885 242.58C499.053 242.068 498.377 241.352 497.857 240.432C497.345 239.504 497.089 238.416 497.089 237.168C497.089 235.848 497.345 234.732 497.857 233.82C498.377 232.9 499.053 232.204 499.885 231.732C500.725 231.26 501.633 231.024 502.609 231.024C503.369 231.024 504.037 231.148 504.613 231.396C505.197 231.636 505.693 231.964 506.101 232.38C506.509 232.788 506.829 233.244 507.061 233.748C507.293 234.252 507.441 234.76 507.505 235.272L504.649 235.344C504.521 234.832 504.281 234.408 503.929 234.072C503.585 233.736 503.137 233.568 502.585 233.568C502.129 233.568 501.701 233.696 501.301 233.952C500.901 234.2 500.573 234.588 500.317 235.116C500.069 235.644 499.945 236.328 499.945 237.168C499.945 237.968 500.061 238.636 500.293 239.172C500.533 239.7 500.853 240.1 501.253 240.372C501.653 240.636 502.097 240.768 502.585 240.768C503.305 240.768 503.829 240.596 504.157 240.252C504.485 239.9 504.649 239.432 504.649 238.848H507.505C507.505 239.672 507.317 240.424 506.941 241.104C506.565 241.784 506.013 242.328 505.285 242.736C504.557 243.136 503.665 243.336 502.609 243.336ZM517.712 243L517.352 240.168V235.488C517.352 234.672 517.184 234.068 516.848 233.676C516.52 233.284 515.96 233.088 515.168 233.088C514.712 233.088 514.316 233.156 513.98 233.292C513.644 233.428 513.384 233.624 513.2 233.88C513.024 234.128 512.936 234.432 512.936 234.792H509.84C509.84 233.912 510.052 233.196 510.476 232.644C510.9 232.084 511.508 231.676 512.3 231.42C513.1 231.156 514.056 231.024 515.168 231.024C516.176 231.024 517.056 231.188 517.808 231.516C518.56 231.836 519.144 232.332 519.56 233.004C519.976 233.676 520.184 234.536 520.184 235.584V243H517.712ZM513.896 243.336C512.896 243.336 512.06 243.164 511.388 242.82C510.724 242.468 510.224 242.008 509.888 241.44C509.552 240.872 509.384 240.256 509.384 239.592C509.384 238.856 509.576 238.24 509.96 237.744C510.352 237.24 510.904 236.864 511.616 236.616C512.328 236.36 513.168 236.232 514.136 236.232C514.768 236.232 515.364 236.28 515.924 236.376C516.492 236.472 517.056 236.6 517.616 236.76V238.416C517.176 238.272 516.696 238.16 516.176 238.08C515.656 238 515.168 237.96 514.712 237.96C514.04 237.96 513.488 238.084 513.056 238.332C512.624 238.58 512.408 239 512.408 239.592C512.408 240.024 512.584 240.396 512.936 240.708C513.288 241.02 513.848 241.176 514.616 241.176C515.2 241.176 515.696 241.048 516.104 240.792C516.512 240.536 516.82 240.216 517.028 239.832C517.244 239.448 517.352 239.064 517.352 238.68H518.024C518.024 239.52 517.868 240.296 517.556 241.008C517.244 241.712 516.78 242.276 516.164 242.7C515.556 243.124 514.8 243.336 513.896 243.336ZM531.727 243V236.184C531.727 235.32 531.519 234.668 531.103 234.228C530.687 233.788 530.143 233.568 529.471 233.568C528.903 233.568 528.399 233.724 527.959 234.036C527.527 234.348 527.187 234.82 526.939 235.452C526.691 236.076 526.567 236.856 526.567 237.792H525.631C525.631 236.28 525.819 235.024 526.195 234.024C526.571 233.016 527.103 232.264 527.791 231.768C528.479 231.272 529.287 231.024 530.215 231.024C531.175 231.024 531.975 231.24 532.615 231.672C533.263 232.096 533.747 232.696 534.067 233.472C534.395 234.248 534.559 235.152 534.559 236.184V243H531.727ZM523.735 243V231.36H526.207L526.567 233.664V243H523.735ZM541.855 243L547.159 227.424H550.711L555.799 243H552.823L551.743 239.64H545.959L544.855 243H541.855ZM546.679 237.504H551.071L548.887 230.808L546.679 237.504ZM565.734 231.312H568.566V243H565.734V231.312ZM557.742 231.312H560.574V238.464C560.574 239.224 560.762 239.796 561.138 240.18C561.514 240.556 562.03 240.744 562.686 240.744C563.246 240.744 563.754 240.6 564.21 240.312C564.674 240.016 565.042 239.584 565.314 239.016C565.594 238.44 565.734 237.728 565.734 236.88H566.502C566.502 238.304 566.318 239.484 565.95 240.42C565.582 241.356 565.074 242.056 564.426 242.52C563.778 242.984 563.03 243.216 562.182 243.216C561.35 243.216 560.598 243.068 559.926 242.772C559.254 242.476 558.722 242 558.33 241.344C557.938 240.688 557.742 239.824 557.742 238.752V231.312ZM576.365 243.336C575.677 243.336 575.045 243.208 574.469 242.952C573.901 242.696 573.445 242.304 573.101 241.776C572.765 241.248 572.597 240.576 572.597 239.76V228.264H575.429V239.664C575.429 240.624 575.885 241.104 576.797 241.104C577.077 241.104 577.357 241.072 577.637 241.008C577.917 240.944 578.237 240.848 578.597 240.72L579.005 242.712C578.557 242.888 578.121 243.036 577.697 243.156C577.273 243.276 576.829 243.336 576.365 243.336ZM570.965 233.232V231.36H578.597V233.232H570.965ZM585.882 243.336C584.818 243.336 583.854 243.108 582.99 242.652C582.134 242.196 581.454 241.516 580.95 240.612C580.446 239.7 580.194 238.56 580.194 237.192C580.194 235.8 580.446 234.648 580.95 233.736C581.454 232.824 582.134 232.144 582.99 231.696C583.854 231.248 584.818 231.024 585.882 231.024C586.93 231.024 587.878 231.248 588.726 231.696C589.582 232.144 590.262 232.824 590.766 233.736C591.27 234.648 591.522 235.8 591.522 237.192C591.522 238.56 591.27 239.7 590.766 240.612C590.262 241.516 589.582 242.196 588.726 242.652C587.878 243.108 586.93 243.336 585.882 243.336ZM585.786 240.864C586.346 240.864 586.842 240.728 587.274 240.456C587.714 240.176 588.058 239.764 588.306 239.22C588.562 238.676 588.69 238 588.69 237.192C588.69 235.96 588.446 235.032 587.958 234.408C587.478 233.784 586.818 233.472 585.978 233.472C585.41 233.472 584.906 233.612 584.466 233.892C584.026 234.164 583.678 234.576 583.422 235.128C583.174 235.68 583.05 236.368 583.05 237.192C583.05 238.408 583.294 239.324 583.782 239.94C584.278 240.556 584.946 240.864 585.786 240.864ZM594.291 227.424H598.347L602.739 236.952H602.499L606.891 227.424H610.803V243H607.947V230.688H608.379L603.531 241.296H601.683L596.859 230.736H597.123V243H594.291V227.424ZM619.252 243.336C618.188 243.336 617.224 243.108 616.36 242.652C615.504 242.196 614.824 241.516 614.32 240.612C613.816 239.7 613.564 238.56 613.564 237.192C613.564 235.8 613.816 234.648 614.32 233.736C614.824 232.824 615.504 232.144 616.36 231.696C617.224 231.248 618.188 231.024 619.252 231.024C620.3 231.024 621.248 231.248 622.096 231.696C622.952 232.144 623.632 232.824 624.136 233.736C624.64 234.648 624.892 235.8 624.892 237.192C624.892 238.56 624.64 239.7 624.136 240.612C623.632 241.516 622.952 242.196 622.096 242.652C621.248 243.108 620.3 243.336 619.252 243.336ZM619.156 240.864C619.716 240.864 620.212 240.728 620.644 240.456C621.084 240.176 621.428 239.764 621.676 239.22C621.932 238.676 622.06 238 622.06 237.192C622.06 235.96 621.816 235.032 621.328 234.408C620.848 233.784 620.188 233.472 619.348 233.472C618.78 233.472 618.276 233.612 617.836 233.892C617.396 234.164 617.048 234.576 616.792 235.128C616.544 235.68 616.42 236.368 616.42 237.192C616.42 238.408 616.664 239.324 617.152 239.94C617.648 240.556 618.316 240.864 619.156 240.864ZM631.598 243.336C630.91 243.336 630.278 243.208 629.702 242.952C629.134 242.696 628.678 242.304 628.334 241.776C627.998 241.248 627.83 240.576 627.83 239.76V228.264H630.662V239.664C630.662 240.624 631.118 241.104 632.03 241.104C632.31 241.104 632.59 241.072 632.87 241.008C633.15 240.944 633.47 240.848 633.83 240.72L634.238 242.712C633.79 242.888 633.354 243.036 632.93 243.156C632.506 243.276 632.062 243.336 631.598 243.336ZM626.198 233.232V231.36H633.83V233.232H626.198ZM638.186 229.224C637.634 229.224 637.202 229.08 636.89 228.792C636.586 228.496 636.434 228.088 636.434 227.568C636.434 227.064 636.586 226.664 636.89 226.368C637.202 226.064 637.634 225.912 638.186 225.912C638.73 225.912 639.158 226.064 639.47 226.368C639.782 226.664 639.938 227.064 639.938 227.568C639.938 228.088 639.782 228.496 639.47 228.792C639.158 229.08 638.73 229.224 638.186 229.224ZM636.77 243V231.312H639.602V243H636.77ZM648.389 243.336C647.325 243.336 646.361 243.108 645.497 242.652C644.641 242.196 643.961 241.516 643.457 240.612C642.953 239.7 642.701 238.56 642.701 237.192C642.701 235.8 642.953 234.648 643.457 233.736C643.961 232.824 644.641 232.144 645.497 231.696C646.361 231.248 647.325 231.024 648.389 231.024C649.437 231.024 650.385 231.248 651.233 231.696C652.089 232.144 652.769 232.824 653.273 233.736C653.777 234.648 654.029 235.8 654.029 237.192C654.029 238.56 653.777 239.7 653.273 240.612C652.769 241.516 652.089 242.196 651.233 242.652C650.385 243.108 649.437 243.336 648.389 243.336ZM648.293 240.864C648.853 240.864 649.349 240.728 649.781 240.456C650.221 240.176 650.565 239.764 650.813 239.22C651.069 238.676 651.197 238 651.197 237.192C651.197 235.96 650.953 235.032 650.465 234.408C649.985 233.784 649.325 233.472 648.485 233.472C647.917 233.472 647.413 233.612 646.973 233.892C646.533 234.164 646.185 234.576 645.929 235.128C645.681 235.68 645.557 236.368 645.557 237.192C645.557 238.408 645.801 239.324 646.289 239.94C646.785 240.556 647.453 240.864 648.293 240.864ZM664.791 243V236.184C664.791 235.32 664.583 234.668 664.167 234.228C663.751 233.788 663.207 233.568 662.535 233.568C661.967 233.568 661.463 233.724 661.023 234.036C660.591 234.348 660.251 234.82 660.003 235.452C659.755 236.076 659.631 236.856 659.631 237.792H658.695C658.695 236.28 658.883 235.024 659.259 234.024C659.635 233.016 660.167 232.264 660.855 231.768C661.543 231.272 662.351 231.024 663.279 231.024C664.239 231.024 665.039 231.24 665.679 231.672C666.327 232.096 666.811 232.696 667.131 233.472C667.459 234.248 667.623 235.152 667.623 236.184V243H664.791ZM656.799 243V231.36H659.271L659.631 233.664V243H656.799ZM681.039 243.336C680.063 243.336 679.155 243.084 678.315 242.58C677.483 242.068 676.807 241.352 676.287 240.432C675.775 239.504 675.519 238.416 675.519 237.168C675.519 235.848 675.775 234.732 676.287 233.82C676.807 232.9 677.483 232.204 678.315 231.732C679.155 231.26 680.063 231.024 681.039 231.024C681.799 231.024 682.467 231.148 683.043 231.396C683.627 231.636 684.123 231.964 684.531 232.38C684.939 232.788 685.259 233.244 685.491 233.748C685.723 234.252 685.871 234.76 685.935 235.272L683.079 235.344C682.951 234.832 682.711 234.408 682.359 234.072C682.015 233.736 681.567 233.568 681.015 233.568C680.559 233.568 680.131 233.696 679.731 233.952C679.331 234.2 679.003 234.588 678.747 235.116C678.499 235.644 678.375 236.328 678.375 237.168C678.375 237.968 678.491 238.636 678.723 239.172C678.963 239.7 679.283 240.1 679.683 240.372C680.083 240.636 680.527 240.768 681.015 240.768C681.735 240.768 682.259 240.596 682.587 240.252C682.915 239.9 683.079 239.432 683.079 238.848H685.935C685.935 239.672 685.747 240.424 685.371 241.104C684.995 241.784 684.443 242.328 683.715 242.736C682.987 243.136 682.095 243.336 681.039 243.336ZM688.726 243V231.312H691.558V243H688.726ZM690.862 237.888C690.862 236.36 691.034 235.096 691.378 234.096C691.722 233.096 692.182 232.356 692.758 231.876C693.342 231.388 693.99 231.144 694.702 231.144C694.894 231.144 695.074 231.156 695.242 231.18C695.418 231.204 695.59 231.24 695.758 231.288L695.71 234.12C695.502 234.072 695.278 234.032 695.038 234C694.798 233.968 694.582 233.952 694.39 233.952C693.766 233.952 693.242 234.104 692.818 234.408C692.402 234.704 692.086 235.144 691.87 235.728C691.662 236.312 691.558 237.032 691.558 237.888H690.862ZM701.892 243.336C700.9 243.336 699.992 243.08 699.168 242.568C698.344 242.056 697.684 241.34 697.188 240.42C696.692 239.492 696.444 238.408 696.444 237.168C696.444 235.888 696.688 234.788 697.176 233.868C697.672 232.948 698.332 232.244 699.156 231.756C699.98 231.268 700.892 231.024 701.892 231.024C702.82 231.024 703.62 231.212 704.292 231.588C704.972 231.956 705.516 232.46 705.924 233.1C706.34 233.732 706.62 234.448 706.764 235.248C706.908 236.048 706.916 236.872 706.788 237.72H698.7V236.184H704.784L704.232 236.544C704.256 236.168 704.236 235.788 704.172 235.404C704.116 235.02 704.004 234.668 703.836 234.348C703.668 234.028 703.428 233.772 703.116 233.58C702.812 233.38 702.42 233.28 701.94 233.28C701.364 233.28 700.876 233.424 700.476 233.712C700.076 234 699.772 234.392 699.564 234.888C699.356 235.384 699.252 235.944 699.252 236.568V237.696C699.252 238.352 699.348 238.932 699.54 239.436C699.74 239.94 700.032 240.336 700.416 240.624C700.808 240.912 701.3 241.056 701.892 241.056C702.444 241.056 702.908 240.928 703.284 240.672C703.66 240.416 703.9 240.032 704.004 239.52H706.86C706.74 240.272 706.456 240.936 706.008 241.512C705.568 242.08 704.996 242.528 704.292 242.856C703.588 243.176 702.788 243.336 701.892 243.336ZM717.09 243L716.73 240.168V235.488C716.73 234.672 716.562 234.068 716.226 233.676C715.898 233.284 715.338 233.088 714.546 233.088C714.09 233.088 713.694 233.156 713.358 233.292C713.022 233.428 712.762 233.624 712.578 233.88C712.402 234.128 712.314 234.432 712.314 234.792H709.218C709.218 233.912 709.43 233.196 709.854 232.644C710.278 232.084 710.886 231.676 711.678 231.42C712.478 231.156 713.434 231.024 714.546 231.024C715.554 231.024 716.434 231.188 717.186 231.516C717.938 231.836 718.522 232.332 718.938 233.004C719.354 233.676 719.562 234.536 719.562 235.584V243H717.09ZM713.274 243.336C712.274 243.336 711.438 243.164 710.766 242.82C710.102 242.468 709.602 242.008 709.266 241.44C708.93 240.872 708.762 240.256 708.762 239.592C708.762 238.856 708.954 238.24 709.338 237.744C709.73 237.24 710.282 236.864 710.994 236.616C711.706 236.36 712.546 236.232 713.514 236.232C714.146 236.232 714.742 236.28 715.302 236.376C715.87 236.472 716.434 236.6 716.994 236.76V238.416C716.554 238.272 716.074 238.16 715.554 238.08C715.034 238 714.546 237.96 714.09 237.96C713.418 237.96 712.866 238.084 712.434 238.332C712.002 238.58 711.786 239 711.786 239.592C711.786 240.024 711.962 240.396 712.314 240.708C712.666 241.02 713.226 241.176 713.994 241.176C714.578 241.176 715.074 241.048 715.482 240.792C715.89 240.536 716.198 240.216 716.406 239.832C716.622 239.448 716.73 239.064 716.73 238.68H717.402C717.402 239.52 717.246 240.296 716.934 241.008C716.622 241.712 716.158 242.276 715.542 242.7C714.934 243.124 714.178 243.336 713.274 243.336ZM727.049 243.336C726.361 243.336 725.729 243.208 725.153 242.952C724.585 242.696 724.129 242.304 723.785 241.776C723.449 241.248 723.281 240.576 723.281 239.76V228.264H726.113V239.664C726.113 240.624 726.569 241.104 727.481 241.104C727.761 241.104 728.041 241.072 728.321 241.008C728.601 240.944 728.921 240.848 729.281 240.72L729.689 242.712C729.241 242.888 728.805 243.036 728.381 243.156C727.957 243.276 727.513 243.336 727.049 243.336ZM721.649 233.232V231.36H729.281V233.232H721.649ZM736.326 243.336C735.334 243.336 734.426 243.08 733.602 242.568C732.778 242.056 732.118 241.34 731.622 240.42C731.126 239.492 730.878 238.408 730.878 237.168C730.878 235.888 731.122 234.788 731.61 233.868C732.106 232.948 732.766 232.244 733.59 231.756C734.414 231.268 735.326 231.024 736.326 231.024C737.254 231.024 738.054 231.212 738.726 231.588C739.406 231.956 739.95 232.46 740.358 233.1C740.774 233.732 741.054 234.448 741.198 235.248C741.342 236.048 741.35 236.872 741.222 237.72H733.134V236.184H739.218L738.666 236.544C738.69 236.168 738.67 235.788 738.606 235.404C738.55 235.02 738.438 234.668 738.27 234.348C738.102 234.028 737.862 233.772 737.55 233.58C737.246 233.38 736.854 233.28 736.374 233.28C735.798 233.28 735.31 233.424 734.91 233.712C734.51 234 734.206 234.392 733.998 234.888C733.79 235.384 733.686 235.944 733.686 236.568V237.696C733.686 238.352 733.782 238.932 733.974 239.436C734.174 239.94 734.466 240.336 734.85 240.624C735.242 240.912 735.734 241.056 736.326 241.056C736.878 241.056 737.342 240.928 737.718 240.672C738.094 240.416 738.334 240.032 738.438 239.52H741.294C741.174 240.272 740.89 240.936 740.442 241.512C740.002 242.08 739.43 242.528 738.726 242.856C738.022 243.176 737.222 243.336 736.326 243.336ZM756.995 243L756.635 240.168V235.488C756.635 234.672 756.467 234.068 756.131 233.676C755.803 233.284 755.243 233.088 754.451 233.088C753.995 233.088 753.599 233.156 753.263 233.292C752.927 233.428 752.667 233.624 752.483 233.88C752.307 234.128 752.219 234.432 752.219 234.792H749.123C749.123 233.912 749.335 233.196 749.759 232.644C750.183 232.084 750.791 231.676 751.583 231.42C752.383 231.156 753.339 231.024 754.451 231.024C755.459 231.024 756.339 231.188 757.091 231.516C757.843 231.836 758.427 232.332 758.843 233.004C759.259 233.676 759.467 234.536 759.467 235.584V243H756.995ZM753.179 243.336C752.179 243.336 751.343 243.164 750.671 242.82C750.007 242.468 749.507 242.008 749.171 241.44C748.835 240.872 748.667 240.256 748.667 239.592C748.667 238.856 748.859 238.24 749.243 237.744C749.635 237.24 750.187 236.864 750.899 236.616C751.611 236.36 752.451 236.232 753.419 236.232C754.051 236.232 754.647 236.28 755.207 236.376C755.775 236.472 756.339 236.6 756.899 236.76V238.416C756.459 238.272 755.979 238.16 755.459 238.08C754.939 238 754.451 237.96 753.995 237.96C753.323 237.96 752.771 238.084 752.339 238.332C751.907 238.58 751.691 239 751.691 239.592C751.691 240.024 751.867 240.396 752.219 240.708C752.571 241.02 753.131 241.176 753.899 241.176C754.483 241.176 754.979 241.048 755.387 240.792C755.795 240.536 756.103 240.216 756.311 239.832C756.527 239.448 756.635 239.064 756.635 238.68H757.307C757.307 239.52 757.151 240.296 756.839 241.008C756.527 241.712 756.063 242.276 755.447 242.7C754.839 243.124 754.083 243.336 753.179 243.336ZM776.24 231.312H779.072V243H776.24V231.312ZM768.248 231.312H771.08V238.464C771.08 239.224 771.268 239.796 771.644 240.18C772.02 240.556 772.536 240.744 773.192 240.744C773.752 240.744 774.26 240.6 774.716 240.312C775.18 240.016 775.548 239.584 775.82 239.016C776.1 238.44 776.24 237.728 776.24 236.88H777.008C777.008 238.304 776.824 239.484 776.456 240.42C776.088 241.356 775.58 242.056 774.932 242.52C774.284 242.984 773.536 243.216 772.688 243.216C771.856 243.216 771.104 243.068 770.432 242.772C769.76 242.476 769.228 242 768.836 241.344C768.444 240.688 768.248 239.824 768.248 238.752V231.312ZM790.927 243V236.184C790.927 235.32 790.719 234.668 790.303 234.228C789.887 233.788 789.343 233.568 788.671 233.568C788.103 233.568 787.599 233.724 787.159 234.036C786.727 234.348 786.387 234.82 786.139 235.452C785.891 236.076 785.767 236.856 785.767 237.792H784.831C784.831 236.28 785.019 235.024 785.395 234.024C785.771 233.016 786.303 232.264 786.991 231.768C787.679 231.272 788.487 231.024 789.415 231.024C790.375 231.024 791.175 231.24 791.815 231.672C792.463 232.096 792.947 232.696 793.267 233.472C793.595 234.248 793.759 235.152 793.759 236.184V243H790.927ZM782.935 243V231.36H785.407L785.767 233.664V243H782.935ZM798.944 229.224C798.392 229.224 797.96 229.08 797.648 228.792C797.344 228.496 797.192 228.088 797.192 227.568C797.192 227.064 797.344 226.664 797.648 226.368C797.96 226.064 798.392 225.912 798.944 225.912C799.488 225.912 799.916 226.064 800.228 226.368C800.54 226.664 800.696 227.064 800.696 227.568C800.696 228.088 800.54 228.496 800.228 228.792C799.916 229.08 799.488 229.224 798.944 229.224ZM797.528 243V231.312H800.36V243H797.528ZM808.907 243.336C807.955 243.336 807.063 243.092 806.231 242.604C805.407 242.116 804.739 241.412 804.227 240.492C803.715 239.572 803.459 238.464 803.459 237.168C803.459 235.88 803.711 234.78 804.215 233.868C804.719 232.948 805.375 232.244 806.183 231.756C806.991 231.268 807.851 231.024 808.763 231.024C809.515 231.024 810.207 231.212 810.839 231.588C811.471 231.964 811.979 232.544 812.363 233.328C812.747 234.104 812.939 235.104 812.939 236.328H811.883C811.883 235.744 811.763 235.248 811.523 234.84C811.291 234.424 810.975 234.108 810.575 233.892C810.183 233.676 809.747 233.568 809.267 233.568C808.699 233.568 808.191 233.712 807.743 234C807.303 234.288 806.955 234.704 806.699 235.248C806.443 235.784 806.315 236.424 806.315 237.168C806.315 237.984 806.463 238.66 806.759 239.196C807.063 239.724 807.443 240.12 807.899 240.384C808.363 240.64 808.835 240.768 809.315 240.768C809.755 240.768 810.171 240.672 810.563 240.48C810.955 240.28 811.271 239.996 811.511 239.628C811.759 239.26 811.883 238.816 811.883 238.296H812.435C812.435 239.288 812.319 240.164 812.087 240.924C811.855 241.676 811.479 242.268 810.959 242.7C810.447 243.124 809.763 243.336 808.907 243.336ZM815.507 249.024C814.203 248.696 813.271 248.184 812.711 247.488C812.159 246.792 811.883 245.824 811.883 244.584V234.24L812.891 231.36H814.715V244.8C814.715 245.272 814.763 245.64 814.859 245.904C814.955 246.176 815.119 246.388 815.351 246.54C815.591 246.692 815.915 246.832 816.323 246.96L815.507 249.024ZM826.364 231.312H829.196V243H826.364V231.312ZM818.372 231.312H821.204V238.464C821.204 239.224 821.392 239.796 821.768 240.18C822.144 240.556 822.66 240.744 823.316 240.744C823.876 240.744 824.384 240.6 824.84 240.312C825.304 240.016 825.672 239.584 825.944 239.016C826.224 238.44 826.364 237.728 826.364 236.88H827.132C827.132 238.304 826.948 239.484 826.58 240.42C826.212 241.356 825.704 242.056 825.056 242.52C824.408 242.984 823.66 243.216 822.812 243.216C821.98 243.216 821.228 243.068 820.556 242.772C819.884 242.476 819.352 242 818.96 241.344C818.568 240.688 818.372 239.824 818.372 238.752V231.312ZM837.403 243.336C836.411 243.336 835.503 243.08 834.679 242.568C833.855 242.056 833.195 241.34 832.699 240.42C832.203 239.492 831.955 238.408 831.955 237.168C831.955 235.888 832.199 234.788 832.687 233.868C833.183 232.948 833.843 232.244 834.667 231.756C835.491 231.268 836.403 231.024 837.403 231.024C838.331 231.024 839.131 231.212 839.803 231.588C840.483 231.956 841.027 232.46 841.435 233.1C841.851 233.732 842.131 234.448 842.275 235.248C842.419 236.048 842.427 236.872 842.299 237.72H834.211V236.184H840.295L839.743 236.544C839.767 236.168 839.747 235.788 839.683 235.404C839.627 235.02 839.515 234.668 839.347 234.348C839.179 234.028 838.939 233.772 838.627 233.58C838.323 233.38 837.931 233.28 837.451 233.28C836.875 233.28 836.387 233.424 835.987 233.712C835.587 234 835.283 234.392 835.075 234.888C834.867 235.384 834.763 235.944 834.763 236.568V237.696C834.763 238.352 834.859 238.932 835.051 239.436C835.251 239.94 835.543 240.336 835.927 240.624C836.319 240.912 836.811 241.056 837.403 241.056C837.955 241.056 838.419 240.928 838.795 240.672C839.171 240.416 839.411 240.032 839.515 239.52H842.371C842.251 240.272 841.967 240.936 841.519 241.512C841.079 242.08 840.507 242.528 839.803 242.856C839.099 243.176 838.299 243.336 837.403 243.336ZM845.617 246.264L843.529 245.208C844.057 244.944 844.525 244.64 844.933 244.296C845.341 243.952 845.609 243.56 845.737 243.12C845.297 243.032 844.917 242.848 844.597 242.568C844.285 242.288 844.129 241.92 844.129 241.464C844.129 240.984 844.313 240.58 844.681 240.252C845.049 239.924 845.513 239.76 846.073 239.76C846.785 239.76 847.341 240.008 847.741 240.504C848.149 241 848.353 241.588 848.353 242.268C848.353 243.044 848.109 243.796 847.621 244.524C847.133 245.26 846.465 245.84 845.617 246.264ZM861.958 243.336C861.102 243.336 860.374 243.152 859.774 242.784C859.174 242.416 858.714 241.86 858.394 241.116C858.082 240.364 857.926 239.424 857.926 238.296H858.958C858.958 238.816 859.078 239.26 859.318 239.628C859.558 239.996 859.874 240.28 860.266 240.48C860.666 240.672 861.094 240.768 861.55 240.768C862.022 240.768 862.486 240.64 862.942 240.384C863.406 240.12 863.79 239.724 864.094 239.196C864.398 238.66 864.55 237.984 864.55 237.168C864.55 236.424 864.422 235.784 864.166 235.248C863.91 234.704 863.558 234.288 863.11 234C862.67 233.712 862.166 233.568 861.598 233.568C861.118 233.568 860.678 233.676 860.278 233.892C859.878 234.108 859.558 234.424 859.318 234.84C859.078 235.248 858.958 235.744 858.958 236.328H857.926C857.926 235.104 858.114 234.104 858.49 233.328C858.866 232.544 859.37 231.964 860.002 231.588C860.634 231.212 861.326 231.024 862.078 231.024C862.998 231.024 863.862 231.268 864.67 231.756C865.486 232.244 866.146 232.948 866.65 233.868C867.154 234.78 867.406 235.88 867.406 237.168C867.406 238.464 867.15 239.572 866.638 240.492C866.126 241.412 865.454 242.116 864.622 242.604C863.798 243.092 862.91 243.336 861.958 243.336ZM856.126 248.688V231.36H858.454L858.958 234.24V248.688H856.126ZM874.518 243.336C873.526 243.336 872.618 243.08 871.794 242.568C870.97 242.056 870.31 241.34 869.814 240.42C869.318 239.492 869.07 238.408 869.07 237.168C869.07 235.888 869.314 234.788 869.802 233.868C870.298 232.948 870.958 232.244 871.782 231.756C872.606 231.268 873.518 231.024 874.518 231.024C875.446 231.024 876.246 231.212 876.918 231.588C877.598 231.956 878.142 232.46 878.55 233.1C878.966 233.732 879.246 234.448 879.39 235.248C879.534 236.048 879.542 236.872 879.414 237.72H871.326V236.184H877.41L876.858 236.544C876.882 236.168 876.862 235.788 876.798 235.404C876.742 235.02 876.63 234.668 876.462 234.348C876.294 234.028 876.054 233.772 875.742 233.58C875.438 233.38 875.046 233.28 874.566 233.28C873.99 233.28 873.502 233.424 873.102 233.712C872.702 234 872.398 234.392 872.19 234.888C871.982 235.384 871.878 235.944 871.878 236.568V237.696C871.878 238.352 871.974 238.932 872.166 239.436C872.366 239.94 872.658 240.336 873.042 240.624C873.434 240.912 873.926 241.056 874.518 241.056C875.07 241.056 875.534 240.928 875.91 240.672C876.286 240.416 876.526 240.032 876.63 239.52H879.486C879.366 240.272 879.082 240.936 878.634 241.512C878.194 242.08 877.622 242.528 876.918 242.856C876.214 243.176 875.414 243.336 874.518 243.336ZM882.301 243V231.312H885.133V243H882.301ZM884.437 237.888C884.437 236.36 884.609 235.096 884.953 234.096C885.297 233.096 885.757 232.356 886.333 231.876C886.917 231.388 887.565 231.144 888.277 231.144C888.469 231.144 888.649 231.156 888.817 231.18C888.993 231.204 889.165 231.24 889.333 231.288L889.285 234.12C889.077 234.072 888.853 234.032 888.613 234C888.373 233.968 888.157 233.952 887.965 233.952C887.341 233.952 886.817 234.104 886.393 234.408C885.977 234.704 885.661 235.144 885.445 235.728C885.237 236.312 885.133 237.032 885.133 237.888H884.437ZM895.467 243.336C894.347 243.336 893.383 243.184 892.575 242.88C891.775 242.568 891.159 242.124 890.727 241.548C890.295 240.964 890.075 240.264 890.067 239.448H892.683C892.707 240.024 892.935 240.444 893.367 240.708C893.799 240.972 894.387 241.104 895.131 241.104C895.539 241.104 895.899 241.044 896.211 240.924C896.531 240.804 896.779 240.64 896.955 240.432C897.131 240.224 897.219 239.992 897.219 239.736C897.219 239.408 897.099 239.152 896.859 238.968C896.627 238.776 896.251 238.6 895.731 238.44L893.187 237.528C892.275 237.2 891.575 236.768 891.087 236.232C890.599 235.696 890.355 235.056 890.355 234.312C890.355 233.328 890.799 232.536 891.687 231.936C892.583 231.328 893.779 231.024 895.275 231.024C896.763 231.024 897.911 231.352 898.719 232.008C899.535 232.656 899.955 233.48 899.979 234.48H897.315C897.275 234.096 897.091 233.792 896.763 233.568C896.435 233.344 895.939 233.232 895.275 233.232C894.675 233.232 894.203 233.356 893.859 233.604C893.523 233.844 893.355 234.128 893.355 234.456C893.355 235.008 893.827 235.424 894.771 235.704L897.531 236.736C898.427 237.04 899.123 237.432 899.619 237.912C900.115 238.392 900.363 239 900.363 239.736C900.363 240.352 900.155 240.936 899.739 241.488C899.331 242.032 898.759 242.476 898.023 242.82C897.287 243.164 896.435 243.336 895.467 243.336ZM907.763 243.336C906.699 243.336 905.735 243.108 904.871 242.652C904.015 242.196 903.335 241.516 902.831 240.612C902.327 239.7 902.075 238.56 902.075 237.192C902.075 235.8 902.327 234.648 902.831 233.736C903.335 232.824 904.015 232.144 904.871 231.696C905.735 231.248 906.699 231.024 907.763 231.024C908.811 231.024 909.759 231.248 910.607 231.696C911.463 232.144 912.143 232.824 912.647 233.736C913.151 234.648 913.403 235.8 913.403 237.192C913.403 238.56 913.151 239.7 912.647 240.612C912.143 241.516 911.463 242.196 910.607 242.652C909.759 243.108 908.811 243.336 907.763 243.336ZM907.667 240.864C908.227 240.864 908.723 240.728 909.155 240.456C909.595 240.176 909.939 239.764 910.187 239.22C910.443 238.676 910.571 238 910.571 237.192C910.571 235.96 910.327 235.032 909.839 234.408C909.359 233.784 908.699 233.472 907.859 233.472C907.291 233.472 906.787 233.612 906.347 233.892C905.907 234.164 905.559 234.576 905.303 235.128C905.055 235.68 904.931 236.368 904.931 237.192C904.931 238.408 905.175 239.324 905.663 239.94C906.159 240.556 906.827 240.864 907.667 240.864ZM924.165 243V236.184C924.165 235.32 923.957 234.668 923.541 234.228C923.125 233.788 922.581 233.568 921.909 233.568C921.341 233.568 920.837 233.724 920.397 234.036C919.965 234.348 919.625 234.82 919.377 235.452C919.129 236.076 919.005 236.856 919.005 237.792H918.069C918.069 236.28 918.257 235.024 918.633 234.024C919.009 233.016 919.541 232.264 920.229 231.768C920.917 231.272 921.725 231.024 922.653 231.024C923.613 231.024 924.413 231.24 925.053 231.672C925.701 232.096 926.185 232.696 926.505 233.472C926.833 234.248 926.997 235.152 926.997 236.184V243H924.165ZM916.173 243V231.36H918.645L919.005 233.664V243H916.173ZM937.942 243L937.582 240.168V235.488C937.582 234.672 937.414 234.068 937.078 233.676C936.75 233.284 936.19 233.088 935.398 233.088C934.942 233.088 934.546 233.156 934.21 233.292C933.874 233.428 933.614 233.624 933.43 233.88C933.254 234.128 933.166 234.432 933.166 234.792H930.07C930.07 233.912 930.282 233.196 930.706 232.644C931.13 232.084 931.738 231.676 932.53 231.42C933.33 231.156 934.286 231.024 935.398 231.024C936.406 231.024 937.286 231.188 938.038 231.516C938.79 231.836 939.374 232.332 939.79 233.004C940.206 233.676 940.414 234.536 940.414 235.584V243H937.942ZM934.126 243.336C933.126 243.336 932.29 243.164 931.618 242.82C930.954 242.468 930.454 242.008 930.118 241.44C929.782 240.872 929.614 240.256 929.614 239.592C929.614 238.856 929.806 238.24 930.19 237.744C930.582 237.24 931.134 236.864 931.846 236.616C932.558 236.36 933.398 236.232 934.366 236.232C934.998 236.232 935.594 236.28 936.154 236.376C936.722 236.472 937.286 236.6 937.846 236.76V238.416C937.406 238.272 936.926 238.16 936.406 238.08C935.886 238 935.398 237.96 934.942 237.96C934.27 237.96 933.718 238.084 933.286 238.332C932.854 238.58 932.638 239 932.638 239.592C932.638 240.024 932.814 240.396 933.166 240.708C933.518 241.02 934.078 241.176 934.846 241.176C935.43 241.176 935.926 241.048 936.334 240.792C936.742 240.536 937.05 240.216 937.258 239.832C937.474 239.448 937.582 239.064 937.582 238.68H938.254C938.254 239.52 938.098 240.296 937.786 241.008C937.474 241.712 937.01 242.276 936.394 242.7C935.786 243.124 935.03 243.336 934.126 243.336ZM943.965 243V226.536H946.797V243H943.965ZM960.492 243.336C959.372 243.336 958.408 243.184 957.6 242.88C956.8 242.568 956.184 242.124 955.752 241.548C955.32 240.964 955.1 240.264 955.092 239.448H957.708C957.732 240.024 957.96 240.444 958.392 240.708C958.824 240.972 959.412 241.104 960.156 241.104C960.564 241.104 960.924 241.044 961.236 240.924C961.556 240.804 961.804 240.64 961.98 240.432C962.156 240.224 962.244 239.992 962.244 239.736C962.244 239.408 962.124 239.152 961.884 238.968C961.652 238.776 961.276 238.6 960.756 238.44L958.212 237.528C957.3 237.2 956.6 236.768 956.112 236.232C955.624 235.696 955.38 235.056 955.38 234.312C955.38 233.328 955.824 232.536 956.712 231.936C957.608 231.328 958.804 231.024 960.3 231.024C961.788 231.024 962.936 231.352 963.744 232.008C964.56 232.656 964.98 233.48 965.004 234.48H962.34C962.3 234.096 962.116 233.792 961.788 233.568C961.46 233.344 960.964 233.232 960.3 233.232C959.7 233.232 959.228 233.356 958.884 233.604C958.548 233.844 958.38 234.128 958.38 234.456C958.38 235.008 958.852 235.424 959.796 235.704L962.556 236.736C963.452 237.04 964.148 237.432 964.644 237.912C965.14 238.392 965.388 239 965.388 239.736C965.388 240.352 965.18 240.936 964.764 241.488C964.356 242.032 963.784 242.476 963.048 242.82C962.312 243.164 961.46 243.336 960.492 243.336ZM976.196 243V236.184C976.196 235.32 975.988 234.668 975.572 234.228C975.156 233.788 974.612 233.568 973.94 233.568C973.372 233.568 972.868 233.724 972.428 234.036C971.996 234.348 971.656 234.82 971.408 235.452C971.16 236.076 971.036 236.856 971.036 237.792H970.1C970.1 236.28 970.288 235.024 970.664 234.024C971.04 233.016 971.572 232.264 972.26 231.768C972.948 231.272 973.756 231.024 974.684 231.024C975.644 231.024 976.444 231.24 977.084 231.672C977.732 232.096 978.216 232.696 978.536 233.472C978.864 234.248 979.028 235.152 979.028 236.184V243H976.196ZM968.204 243V226.536H971.036V243H968.204ZM987.141 243.336C986.077 243.336 985.113 243.108 984.249 242.652C983.393 242.196 982.713 241.516 982.209 240.612C981.705 239.7 981.453 238.56 981.453 237.192C981.453 235.8 981.705 234.648 982.209 233.736C982.713 232.824 983.393 232.144 984.249 231.696C985.113 231.248 986.077 231.024 987.141 231.024C988.189 231.024 989.137 231.248 989.985 231.696C990.841 232.144 991.521 232.824 992.025 233.736C992.529 234.648 992.781 235.8 992.781 237.192C992.781 238.56 992.529 239.7 992.025 240.612C991.521 241.516 990.841 242.196 989.985 242.652C989.137 243.108 988.189 243.336 987.141 243.336ZM987.045 240.864C987.605 240.864 988.101 240.728 988.533 240.456C988.973 240.176 989.317 239.764 989.565 239.22C989.821 238.676 989.949 238 989.949 237.192C989.949 235.96 989.705 235.032 989.217 234.408C988.737 233.784 988.077 233.472 987.237 233.472C986.669 233.472 986.165 233.612 985.725 233.892C985.285 234.164 984.937 234.576 984.681 235.128C984.433 235.68 984.309 236.368 984.309 237.192C984.309 238.408 984.553 239.324 985.041 239.94C985.537 240.556 986.205 240.864 987.045 240.864ZM1001.38 243.336C1000.53 243.336 999.799 243.152 999.199 242.784C998.599 242.416 998.139 241.86 997.819 241.116C997.507 240.364 997.351 239.424 997.351 238.296H998.383C998.383 238.816 998.503 239.26 998.743 239.628C998.983 239.996 999.299 240.28 999.691 240.48C1000.09 240.672 1000.52 240.768 1000.97 240.768C1001.45 240.768 1001.91 240.64 1002.37 240.384C1002.83 240.12 1003.21 239.724 1003.52 239.196C1003.82 238.66 1003.97 237.984 1003.97 237.168C1003.97 236.424 1003.85 235.784 1003.59 235.248C1003.33 234.704 1002.98 234.288 1002.53 234C1002.09 233.712 1001.59 233.568 1001.02 233.568C1000.54 233.568 1000.1 233.676 999.703 233.892C999.303 234.108 998.983 234.424 998.743 234.84C998.503 235.248 998.383 235.744 998.383 236.328H997.351C997.351 235.104 997.539 234.104 997.915 233.328C998.291 232.544 998.795 231.964 999.427 231.588C1000.06 231.212 1000.75 231.024 1001.5 231.024C1002.42 231.024 1003.29 231.268 1004.09 231.756C1004.91 232.244 1005.57 232.948 1006.07 233.868C1006.58 234.78 1006.83 235.88 1006.83 237.168C1006.83 238.464 1006.57 239.572 1006.06 240.492C1005.55 241.412 1004.88 242.116 1004.05 242.604C1003.22 243.092 1002.33 243.336 1001.38 243.336ZM995.551 248.688V231.36H997.879L998.383 234.24V248.688H995.551ZM1015.43 243.336C1014.58 243.336 1013.85 243.152 1013.25 242.784C1012.65 242.416 1012.19 241.86 1011.87 241.116C1011.56 240.364 1011.4 239.424 1011.4 238.296H1012.43C1012.43 238.816 1012.55 239.26 1012.79 239.628C1013.03 239.996 1013.35 240.28 1013.74 240.48C1014.14 240.672 1014.57 240.768 1015.02 240.768C1015.5 240.768 1015.96 240.64 1016.42 240.384C1016.88 240.12 1017.26 239.724 1017.57 239.196C1017.87 238.66 1018.02 237.984 1018.02 237.168C1018.02 236.424 1017.9 235.784 1017.64 235.248C1017.38 234.704 1017.03 234.288 1016.58 234C1016.14 233.712 1015.64 233.568 1015.07 233.568C1014.59 233.568 1014.15 233.676 1013.75 233.892C1013.35 234.108 1013.03 234.424 1012.79 234.84C1012.55 235.248 1012.43 235.744 1012.43 236.328H1011.4C1011.4 235.104 1011.59 234.104 1011.96 233.328C1012.34 232.544 1012.84 231.964 1013.48 231.588C1014.11 231.212 1014.8 231.024 1015.55 231.024C1016.47 231.024 1017.34 231.268 1018.14 231.756C1018.96 232.244 1019.62 232.948 1020.12 233.868C1020.63 234.78 1020.88 235.88 1020.88 237.168C1020.88 238.464 1020.62 239.572 1020.11 240.492C1019.6 241.412 1018.93 242.116 1018.1 242.604C1017.27 243.092 1016.38 243.336 1015.43 243.336ZM1009.6 248.688V231.36H1011.93L1012.43 234.24V248.688H1009.6ZM1025.3 229.224C1024.75 229.224 1024.32 229.08 1024.01 228.792C1023.7 228.496 1023.55 228.088 1023.55 227.568C1023.55 227.064 1023.7 226.664 1024.01 226.368C1024.32 226.064 1024.75 225.912 1025.3 225.912C1025.85 225.912 1026.28 226.064 1026.59 226.368C1026.9 226.664 1027.06 227.064 1027.06 227.568C1027.06 228.088 1026.9 228.496 1026.59 228.792C1026.28 229.08 1025.85 229.224 1025.3 229.224ZM1023.89 243V231.312H1026.72V243H1023.89ZM1038.91 243V236.184C1038.91 235.32 1038.71 234.668 1038.29 234.228C1037.87 233.788 1037.33 233.568 1036.66 233.568C1036.09 233.568 1035.59 233.724 1035.15 234.036C1034.71 234.348 1034.37 234.82 1034.13 235.452C1033.88 236.076 1033.75 236.856 1033.75 237.792H1032.82C1032.82 236.28 1033.01 235.024 1033.38 234.024C1033.76 233.016 1034.29 232.264 1034.98 231.768C1035.67 231.272 1036.47 231.024 1037.4 231.024C1038.36 231.024 1039.16 231.24 1039.8 231.672C1040.45 232.096 1040.93 232.696 1041.25 233.472C1041.58 234.248 1041.75 235.152 1041.75 236.184V243H1038.91ZM1030.92 243V231.36H1033.39L1033.75 233.664V243H1030.92ZM1049.76 249.024C1048.43 249.024 1047.28 248.84 1046.33 248.472C1045.39 248.104 1044.66 247.62 1044.16 247.02C1043.66 246.428 1043.4 245.784 1043.4 245.088C1043.4 244.264 1043.7 243.624 1044.3 243.168C1044.9 242.72 1045.66 242.496 1046.57 242.496L1048.64 243.264C1047.85 243.264 1047.25 243.412 1046.82 243.708C1046.4 244.004 1046.19 244.416 1046.19 244.944C1046.19 245.496 1046.5 245.936 1047.14 246.264C1047.78 246.6 1048.65 246.768 1049.76 246.768C1050.57 246.768 1051.27 246.648 1051.86 246.408C1052.46 246.168 1052.91 245.856 1053.23 245.472C1053.56 245.088 1053.72 244.68 1053.72 244.248C1053.72 243.96 1053.63 243.724 1053.44 243.54C1053.24 243.356 1052.95 243.264 1052.55 243.264H1048.64C1047.85 243.264 1047.14 243.14 1046.49 242.892C1045.85 242.636 1045.34 242.296 1044.95 241.872C1044.58 241.44 1044.39 240.96 1044.39 240.432C1044.39 239.944 1044.52 239.524 1044.8 239.172C1045.07 238.812 1045.44 238.536 1045.9 238.344C1046.37 238.152 1046.9 238.056 1047.48 238.056L1048.2 238.992C1047.97 238.992 1047.75 239.04 1047.53 239.136C1047.32 239.224 1047.15 239.356 1047.02 239.532C1046.88 239.708 1046.81 239.928 1046.81 240.192C1046.81 240.512 1046.95 240.772 1047.22 240.972C1047.49 241.172 1047.96 241.272 1048.64 241.272H1052.55C1053.79 241.272 1054.76 241.5 1055.46 241.956C1056.18 242.412 1056.53 243.112 1056.53 244.056C1056.53 244.896 1056.26 245.692 1055.7 246.444C1055.15 247.204 1054.37 247.824 1053.35 248.304C1052.34 248.784 1051.15 249.024 1049.76 249.024ZM1049.91 239.4C1048.99 239.4 1048.14 239.228 1047.38 238.884C1046.62 238.532 1046.01 238.044 1045.55 237.42C1045.1 236.796 1044.87 236.064 1044.87 235.224C1044.87 234.368 1045.1 233.624 1045.55 232.992C1046.01 232.36 1046.62 231.876 1047.38 231.54C1048.14 231.196 1048.99 231.024 1049.91 231.024C1050.8 231.024 1051.63 231.196 1052.39 231.54C1053.15 231.876 1053.76 232.36 1054.23 232.992C1054.69 233.624 1054.92 234.368 1054.92 235.224C1054.92 236.064 1054.69 236.796 1054.23 237.42C1053.76 238.044 1053.15 238.532 1052.39 238.884C1051.63 239.228 1050.8 239.4 1049.91 239.4ZM1049.93 237.432C1050.67 237.432 1051.22 237.22 1051.59 236.796C1051.96 236.372 1052.14 235.848 1052.14 235.224C1052.14 234.552 1051.95 234.012 1051.58 233.604C1051.21 233.196 1050.65 232.992 1049.91 232.992C1049.19 232.992 1048.64 233.196 1048.25 233.604C1047.87 234.012 1047.68 234.552 1047.68 235.224C1047.68 235.848 1047.87 236.372 1048.25 236.796C1048.64 237.22 1049.2 237.432 1049.93 237.432ZM1054.04 232.896L1052.74 232.152C1052.74 231.456 1052.9 230.848 1053.22 230.328C1053.55 229.8 1053.98 229.392 1054.52 229.104C1055.06 228.816 1055.66 228.672 1056.32 228.672L1056.17 231.384C1055.48 231.384 1054.94 231.508 1054.58 231.756C1054.22 231.996 1054.04 232.376 1054.04 232.896ZM454.216 284.336C453.224 284.336 452.316 284.08 451.492 283.568C450.668 283.056 450.008 282.34 449.512 281.42C449.016 280.492 448.768 279.408 448.768 278.168C448.768 276.888 449.012 275.788 449.5 274.868C449.996 273.948 450.656 273.244 451.48 272.756C452.304 272.268 453.216 272.024 454.216 272.024C455.144 272.024 455.944 272.212 456.616 272.588C457.296 272.956 457.84 273.46 458.248 274.1C458.664 274.732 458.944 275.448 459.088 276.248C459.232 277.048 459.24 277.872 459.112 278.72H451.024V277.184H457.108L456.556 277.544C456.58 277.168 456.56 276.788 456.496 276.404C456.44 276.02 456.328 275.668 456.16 275.348C455.992 275.028 455.752 274.772 455.44 274.58C455.136 274.38 454.744 274.28 454.264 274.28C453.688 274.28 453.2 274.424 452.8 274.712C452.4 275 452.096 275.392 451.888 275.888C451.68 276.384 451.576 276.944 451.576 277.568V278.696C451.576 279.352 451.672 279.932 451.864 280.436C452.064 280.94 452.356 281.336 452.74 281.624C453.132 281.912 453.624 282.056 454.216 282.056C454.768 282.056 455.232 281.928 455.608 281.672C455.984 281.416 456.224 281.032 456.328 280.52H459.184C459.064 281.272 458.78 281.936 458.332 282.512C457.892 283.08 457.32 283.528 456.616 283.856C455.912 284.176 455.112 284.336 454.216 284.336ZM460.15 284L464.686 278.192L460.15 272.312H463.63L466.486 276.056L469.198 272.312H472.654L468.142 278.192L472.654 284H469.198L466.294 280.256L463.63 284H460.15ZM480.519 284.336C479.663 284.336 478.935 284.152 478.335 283.784C477.735 283.416 477.275 282.86 476.955 282.116C476.643 281.364 476.487 280.424 476.487 279.296H477.519C477.519 279.816 477.639 280.26 477.879 280.628C478.119 280.996 478.435 281.28 478.827 281.48C479.227 281.672 479.655 281.768 480.111 281.768C480.583 281.768 481.047 281.64 481.503 281.384C481.967 281.12 482.351 280.724 482.655 280.196C482.959 279.66 483.111 278.984 483.111 278.168C483.111 277.424 482.983 276.784 482.727 276.248C482.471 275.704 482.119 275.288 481.671 275C481.231 274.712 480.727 274.568 480.159 274.568C479.679 274.568 479.239 274.676 478.839 274.892C478.439 275.108 478.119 275.424 477.879 275.84C477.639 276.248 477.519 276.744 477.519 277.328H476.487C476.487 276.104 476.675 275.104 477.051 274.328C477.427 273.544 477.931 272.964 478.563 272.588C479.195 272.212 479.887 272.024 480.639 272.024C481.559 272.024 482.423 272.268 483.231 272.756C484.047 273.244 484.707 273.948 485.211 274.868C485.715 275.78 485.967 276.88 485.967 278.168C485.967 279.464 485.711 280.572 485.199 281.492C484.687 282.412 484.015 283.116 483.183 283.604C482.359 284.092 481.471 284.336 480.519 284.336ZM474.687 289.688V272.36H477.015L477.519 275.24V289.688H474.687ZM493.08 284.336C492.088 284.336 491.18 284.08 490.356 283.568C489.532 283.056 488.872 282.34 488.376 281.42C487.88 280.492 487.632 279.408 487.632 278.168C487.632 276.888 487.876 275.788 488.364 274.868C488.86 273.948 489.52 273.244 490.344 272.756C491.168 272.268 492.08 272.024 493.08 272.024C494.008 272.024 494.808 272.212 495.48 272.588C496.16 272.956 496.704 273.46 497.112 274.1C497.528 274.732 497.808 275.448 497.952 276.248C498.096 277.048 498.104 277.872 497.976 278.72H489.888V277.184H495.972L495.42 277.544C495.444 277.168 495.424 276.788 495.36 276.404C495.304 276.02 495.192 275.668 495.024 275.348C494.856 275.028 494.616 274.772 494.304 274.58C494 274.38 493.608 274.28 493.128 274.28C492.552 274.28 492.064 274.424 491.664 274.712C491.264 275 490.96 275.392 490.752 275.888C490.544 276.384 490.44 276.944 490.44 277.568V278.696C490.44 279.352 490.536 279.932 490.728 280.436C490.928 280.94 491.22 281.336 491.604 281.624C491.996 281.912 492.488 282.056 493.08 282.056C493.632 282.056 494.096 281.928 494.472 281.672C494.848 281.416 495.088 281.032 495.192 280.52H498.048C497.928 281.272 497.644 281.936 497.196 282.512C496.756 283.08 496.184 283.528 495.48 283.856C494.776 284.176 493.976 284.336 493.08 284.336ZM500.862 284V272.312H503.694V284H500.862ZM502.998 278.888C502.998 277.36 503.17 276.096 503.514 275.096C503.858 274.096 504.318 273.356 504.894 272.876C505.478 272.388 506.126 272.144 506.838 272.144C507.03 272.144 507.21 272.156 507.378 272.18C507.554 272.204 507.726 272.24 507.894 272.288L507.846 275.12C507.638 275.072 507.414 275.032 507.174 275C506.934 274.968 506.718 274.952 506.526 274.952C505.902 274.952 505.378 275.104 504.954 275.408C504.538 275.704 504.222 276.144 504.006 276.728C503.798 277.312 503.694 278.032 503.694 278.888H502.998ZM511.34 270.224C510.788 270.224 510.356 270.08 510.044 269.792C509.74 269.496 509.588 269.088 509.588 268.568C509.588 268.064 509.74 267.664 510.044 267.368C510.356 267.064 510.788 266.912 511.34 266.912C511.884 266.912 512.312 267.064 512.624 267.368C512.936 267.664 513.092 268.064 513.092 268.568C513.092 269.088 512.936 269.496 512.624 269.792C512.312 270.08 511.884 270.224 511.34 270.224ZM509.924 284V272.312H512.756V284H509.924ZM521.303 284.336C520.311 284.336 519.403 284.08 518.579 283.568C517.755 283.056 517.095 282.34 516.599 281.42C516.103 280.492 515.855 279.408 515.855 278.168C515.855 276.888 516.099 275.788 516.587 274.868C517.083 273.948 517.743 273.244 518.567 272.756C519.391 272.268 520.303 272.024 521.303 272.024C522.231 272.024 523.031 272.212 523.703 272.588C524.383 272.956 524.927 273.46 525.335 274.1C525.751 274.732 526.031 275.448 526.175 276.248C526.319 277.048 526.327 277.872 526.199 278.72H518.111V277.184H524.195L523.643 277.544C523.667 277.168 523.647 276.788 523.583 276.404C523.527 276.02 523.415 275.668 523.247 275.348C523.079 275.028 522.839 274.772 522.527 274.58C522.223 274.38 521.831 274.28 521.351 274.28C520.775 274.28 520.287 274.424 519.887 274.712C519.487 275 519.183 275.392 518.975 275.888C518.767 276.384 518.663 276.944 518.663 277.568V278.696C518.663 279.352 518.759 279.932 518.951 280.436C519.151 280.94 519.443 281.336 519.827 281.624C520.219 281.912 520.711 282.056 521.303 282.056C521.855 282.056 522.319 281.928 522.695 281.672C523.071 281.416 523.311 281.032 523.415 280.52H526.271C526.151 281.272 525.867 281.936 525.419 282.512C524.979 283.08 524.407 283.528 523.703 283.856C522.999 284.176 522.199 284.336 521.303 284.336ZM537.078 284V277.184C537.078 276.32 536.87 275.668 536.454 275.228C536.038 274.788 535.494 274.568 534.822 274.568C534.254 274.568 533.75 274.724 533.31 275.036C532.878 275.348 532.538 275.82 532.29 276.452C532.042 277.076 531.918 277.856 531.918 278.792H530.982C530.982 277.28 531.17 276.024 531.546 275.024C531.922 274.016 532.454 273.264 533.142 272.768C533.83 272.272 534.638 272.024 535.566 272.024C536.526 272.024 537.326 272.24 537.966 272.672C538.614 273.096 539.098 273.696 539.418 274.472C539.746 275.248 539.91 276.152 539.91 277.184V284H537.078ZM529.086 284V272.36H531.558L531.918 274.664V284H529.086ZM547.855 284.336C546.879 284.336 545.971 284.084 545.131 283.58C544.299 283.068 543.623 282.352 543.103 281.432C542.591 280.504 542.335 279.416 542.335 278.168C542.335 276.848 542.591 275.732 543.103 274.82C543.623 273.9 544.299 273.204 545.131 272.732C545.971 272.26 546.879 272.024 547.855 272.024C548.615 272.024 549.283 272.148 549.859 272.396C550.443 272.636 550.939 272.964 551.347 273.38C551.755 273.788 552.075 274.244 552.307 274.748C552.539 275.252 552.687 275.76 552.751 276.272L549.895 276.344C549.767 275.832 549.527 275.408 549.175 275.072C548.831 274.736 548.383 274.568 547.831 274.568C547.375 274.568 546.947 274.696 546.547 274.952C546.147 275.2 545.819 275.588 545.563 276.116C545.315 276.644 545.191 277.328 545.191 278.168C545.191 278.968 545.307 279.636 545.539 280.172C545.779 280.7 546.099 281.1 546.499 281.372C546.899 281.636 547.343 281.768 547.831 281.768C548.551 281.768 549.075 281.596 549.403 281.252C549.731 280.9 549.895 280.432 549.895 279.848H552.751C552.751 280.672 552.563 281.424 552.187 282.104C551.811 282.784 551.259 283.328 550.531 283.736C549.803 284.136 548.911 284.336 547.855 284.336ZM559.886 284.336C558.894 284.336 557.986 284.08 557.162 283.568C556.338 283.056 555.678 282.34 555.182 281.42C554.686 280.492 554.438 279.408 554.438 278.168C554.438 276.888 554.682 275.788 555.17 274.868C555.666 273.948 556.326 273.244 557.15 272.756C557.974 272.268 558.886 272.024 559.886 272.024C560.814 272.024 561.614 272.212 562.286 272.588C562.966 272.956 563.51 273.46 563.918 274.1C564.334 274.732 564.614 275.448 564.758 276.248C564.902 277.048 564.91 277.872 564.782 278.72H556.694V277.184H562.778L562.226 277.544C562.25 277.168 562.23 276.788 562.166 276.404C562.11 276.02 561.998 275.668 561.83 275.348C561.662 275.028 561.422 274.772 561.11 274.58C560.806 274.38 560.414 274.28 559.934 274.28C559.358 274.28 558.87 274.424 558.47 274.712C558.07 275 557.766 275.392 557.558 275.888C557.35 276.384 557.246 276.944 557.246 277.568V278.696C557.246 279.352 557.342 279.932 557.534 280.436C557.734 280.94 558.026 281.336 558.41 281.624C558.802 281.912 559.294 282.056 559.886 282.056C560.438 282.056 560.902 281.928 561.278 281.672C561.654 281.416 561.894 281.032 561.998 280.52H564.854C564.734 281.272 564.45 281.936 564.002 282.512C563.562 283.08 562.99 283.528 562.286 283.856C561.582 284.176 560.782 284.336 559.886 284.336ZM577.075 284.336C576.387 284.336 575.755 284.208 575.179 283.952C574.611 283.696 574.155 283.304 573.811 282.776C573.475 282.248 573.307 281.576 573.307 280.76V269.264H576.139V280.664C576.139 281.624 576.595 282.104 577.507 282.104C577.787 282.104 578.067 282.072 578.347 282.008C578.627 281.944 578.947 281.848 579.307 281.72L579.715 283.712C579.267 283.888 578.831 284.036 578.407 284.156C577.983 284.276 577.539 284.336 577.075 284.336ZM571.675 274.232V272.36H579.307V274.232H571.675ZM590 284V277.184C590 276.32 589.792 275.668 589.376 275.228C588.96 274.788 588.416 274.568 587.744 274.568C587.176 274.568 586.672 274.724 586.232 275.036C585.8 275.348 585.46 275.82 585.212 276.452C584.964 277.076 584.84 277.856 584.84 278.792H583.904C583.904 277.28 584.092 276.024 584.468 275.024C584.844 274.016 585.376 273.264 586.064 272.768C586.752 272.272 587.56 272.024 588.488 272.024C589.448 272.024 590.248 272.24 590.888 272.672C591.536 273.096 592.02 273.696 592.34 274.472C592.668 275.248 592.832 276.152 592.832 277.184V284H590ZM582.008 284V267.536H584.84V284H582.008ZM603.777 284L603.417 281.168V276.488C603.417 275.672 603.249 275.068 602.913 274.676C602.585 274.284 602.025 274.088 601.233 274.088C600.777 274.088 600.381 274.156 600.045 274.292C599.709 274.428 599.449 274.624 599.265 274.88C599.089 275.128 599.001 275.432 599.001 275.792H595.905C595.905 274.912 596.117 274.196 596.541 273.644C596.965 273.084 597.573 272.676 598.365 272.42C599.165 272.156 600.121 272.024 601.233 272.024C602.241 272.024 603.121 272.188 603.873 272.516C604.625 272.836 605.209 273.332 605.625 274.004C606.041 274.676 606.249 275.536 606.249 276.584V284H603.777ZM599.961 284.336C598.961 284.336 598.125 284.164 597.453 283.82C596.789 283.468 596.289 283.008 595.953 282.44C595.617 281.872 595.449 281.256 595.449 280.592C595.449 279.856 595.641 279.24 596.025 278.744C596.417 278.24 596.969 277.864 597.681 277.616C598.393 277.36 599.233 277.232 600.201 277.232C600.833 277.232 601.429 277.28 601.989 277.376C602.557 277.472 603.121 277.6 603.681 277.76V279.416C603.241 279.272 602.761 279.16 602.241 279.08C601.721 279 601.233 278.96 600.777 278.96C600.105 278.96 599.553 279.084 599.121 279.332C598.689 279.58 598.473 280 598.473 280.592C598.473 281.024 598.649 281.396 599.001 281.708C599.353 282.02 599.913 282.176 600.681 282.176C601.265 282.176 601.761 282.048 602.169 281.792C602.577 281.536 602.885 281.216 603.093 280.832C603.309 280.448 603.417 280.064 603.417 279.68H604.089C604.089 280.52 603.933 281.296 603.621 282.008C603.309 282.712 602.845 283.276 602.229 283.7C601.621 284.124 600.865 284.336 599.961 284.336ZM613.736 284.336C613.048 284.336 612.416 284.208 611.84 283.952C611.272 283.696 610.816 283.304 610.472 282.776C610.136 282.248 609.968 281.576 609.968 280.76V269.264H612.8V280.664C612.8 281.624 613.256 282.104 614.168 282.104C614.448 282.104 614.728 282.072 615.008 282.008C615.288 281.944 615.608 281.848 615.968 281.72L616.376 283.712C615.928 283.888 615.492 284.036 615.068 284.156C614.644 284.276 614.2 284.336 613.736 284.336ZM608.336 274.232V272.36H615.968V274.232H608.336ZM625.795 270.224C625.243 270.224 624.811 270.08 624.499 269.792C624.195 269.496 624.043 269.088 624.043 268.568C624.043 268.064 624.195 267.664 624.499 267.368C624.811 267.064 625.243 266.912 625.795 266.912C626.339 266.912 626.767 267.064 627.079 267.368C627.391 267.664 627.547 268.064 627.547 268.568C627.547 269.088 627.391 269.496 627.079 269.792C626.767 270.08 626.339 270.224 625.795 270.224ZM624.379 284V272.312H627.211V284H624.379ZM635.758 284.336C634.638 284.336 633.674 284.184 632.866 283.88C632.066 283.568 631.45 283.124 631.018 282.548C630.586 281.964 630.366 281.264 630.358 280.448H632.974C632.998 281.024 633.226 281.444 633.658 281.708C634.09 281.972 634.678 282.104 635.422 282.104C635.83 282.104 636.19 282.044 636.502 281.924C636.822 281.804 637.07 281.64 637.246 281.432C637.422 281.224 637.51 280.992 637.51 280.736C637.51 280.408 637.39 280.152 637.15 279.968C636.918 279.776 636.542 279.6 636.022 279.44L633.478 278.528C632.566 278.2 631.866 277.768 631.378 277.232C630.89 276.696 630.646 276.056 630.646 275.312C630.646 274.328 631.09 273.536 631.978 272.936C632.874 272.328 634.07 272.024 635.566 272.024C637.054 272.024 638.202 272.352 639.01 273.008C639.826 273.656 640.246 274.48 640.27 275.48H637.606C637.566 275.096 637.382 274.792 637.054 274.568C636.726 274.344 636.23 274.232 635.566 274.232C634.966 274.232 634.494 274.356 634.15 274.604C633.814 274.844 633.646 275.128 633.646 275.456C633.646 276.008 634.118 276.424 635.062 276.704L637.822 277.736C638.718 278.04 639.414 278.432 639.91 278.912C640.406 279.392 640.654 280 640.654 280.736C640.654 281.352 640.446 281.936 640.03 282.488C639.622 283.032 639.05 283.476 638.314 283.82C637.578 284.164 636.726 284.336 635.758 284.336ZM656.933 284V277.184C656.933 276.32 656.725 275.668 656.309 275.228C655.893 274.788 655.349 274.568 654.677 274.568C654.109 274.568 653.605 274.724 653.165 275.036C652.733 275.348 652.393 275.82 652.145 276.452C651.897 277.076 651.773 277.856 651.773 278.792H650.837C650.837 277.28 651.025 276.024 651.401 275.024C651.777 274.016 652.309 273.264 652.997 272.768C653.685 272.272 654.493 272.024 655.421 272.024C656.381 272.024 657.181 272.24 657.821 272.672C658.469 273.096 658.953 273.696 659.273 274.472C659.601 275.248 659.765 276.152 659.765 277.184V284H656.933ZM648.941 284V272.36H651.413L651.773 274.664V284H648.941ZM667.878 284.336C666.814 284.336 665.85 284.108 664.986 283.652C664.13 283.196 663.45 282.516 662.946 281.612C662.442 280.7 662.19 279.56 662.19 278.192C662.19 276.8 662.442 275.648 662.946 274.736C663.45 273.824 664.13 273.144 664.986 272.696C665.85 272.248 666.814 272.024 667.878 272.024C668.926 272.024 669.874 272.248 670.722 272.696C671.578 273.144 672.258 273.824 672.762 274.736C673.266 275.648 673.518 276.8 673.518 278.192C673.518 279.56 673.266 280.7 672.762 281.612C672.258 282.516 671.578 283.196 670.722 283.652C669.874 284.108 668.926 284.336 667.878 284.336ZM667.782 281.864C668.342 281.864 668.838 281.728 669.27 281.456C669.71 281.176 670.054 280.764 670.302 280.22C670.558 279.676 670.686 279 670.686 278.192C670.686 276.96 670.442 276.032 669.954 275.408C669.474 274.784 668.814 274.472 667.974 274.472C667.406 274.472 666.902 274.612 666.462 274.892C666.022 275.164 665.674 275.576 665.418 276.128C665.17 276.68 665.046 277.368 665.046 278.192C665.046 279.408 665.29 280.324 665.778 280.94C666.274 281.556 666.942 281.864 667.782 281.864ZM680.223 284.336C679.535 284.336 678.903 284.208 678.327 283.952C677.759 283.696 677.303 283.304 676.959 282.776C676.623 282.248 676.455 281.576 676.455 280.76V269.264H679.287V280.664C679.287 281.624 679.743 282.104 680.655 282.104C680.935 282.104 681.215 282.072 681.495 282.008C681.775 281.944 682.095 281.848 682.455 281.72L682.863 283.712C682.415 283.888 681.979 284.036 681.555 284.156C681.131 284.276 680.687 284.336 680.223 284.336ZM674.823 274.232V272.36H682.455V274.232H674.823ZM695.211 284.336C694.147 284.336 693.183 284.108 692.319 283.652C691.463 283.196 690.783 282.516 690.279 281.612C689.775 280.7 689.523 279.56 689.523 278.192C689.523 276.8 689.775 275.648 690.279 274.736C690.783 273.824 691.463 273.144 692.319 272.696C693.183 272.248 694.147 272.024 695.211 272.024C696.259 272.024 697.207 272.248 698.055 272.696C698.911 273.144 699.591 273.824 700.095 274.736C700.599 275.648 700.851 276.8 700.851 278.192C700.851 279.56 700.599 280.7 700.095 281.612C699.591 282.516 698.911 283.196 698.055 283.652C697.207 284.108 696.259 284.336 695.211 284.336ZM695.115 281.864C695.675 281.864 696.171 281.728 696.603 281.456C697.043 281.176 697.387 280.764 697.635 280.22C697.891 279.676 698.019 279 698.019 278.192C698.019 276.96 697.775 276.032 697.287 275.408C696.807 274.784 696.147 274.472 695.307 274.472C694.739 274.472 694.235 274.612 693.795 274.892C693.355 275.164 693.007 275.576 692.751 276.128C692.503 276.68 692.379 277.368 692.379 278.192C692.379 279.408 692.623 280.324 693.111 280.94C693.607 281.556 694.275 281.864 695.115 281.864ZM711.612 284V277.184C711.612 276.32 711.404 275.668 710.988 275.228C710.572 274.788 710.028 274.568 709.356 274.568C708.788 274.568 708.284 274.724 707.844 275.036C707.412 275.348 707.072 275.82 706.824 276.452C706.576 277.076 706.452 277.856 706.452 278.792H705.516C705.516 277.28 705.704 276.024 706.08 275.024C706.456 274.016 706.988 273.264 707.676 272.768C708.364 272.272 709.172 272.024 710.1 272.024C711.06 272.024 711.86 272.24 712.5 272.672C713.148 273.096 713.632 273.696 713.952 274.472C714.28 275.248 714.444 276.152 714.444 277.184V284H711.612ZM703.62 284V272.36H706.092L706.452 274.664V284H703.62ZM717.973 284V267.536H720.805V284H717.973ZM722.91 272.36H726.126L729.222 281.528H728.718L731.382 272.36H734.262L729.798 286.112C729.342 287.488 728.778 288.484 728.106 289.1C727.442 289.716 726.63 290.024 725.67 290.024C725.118 290.024 724.578 289.96 724.05 289.832C723.53 289.712 722.998 289.52 722.454 289.256V286.76C722.894 287.032 723.318 287.232 723.726 287.36C724.142 287.488 724.558 287.552 724.974 287.552C725.35 287.552 725.678 287.448 725.958 287.24C726.246 287.04 726.494 286.756 726.702 286.388C726.91 286.028 727.086 285.608 727.23 285.128L727.59 284L722.91 272.36ZM745.994 284.336C745.002 284.336 744.094 284.08 743.27 283.568C742.446 283.056 741.786 282.34 741.29 281.42C740.794 280.492 740.546 279.408 740.546 278.168C740.546 276.888 740.79 275.788 741.278 274.868C741.774 273.948 742.434 273.244 743.258 272.756C744.082 272.268 744.994 272.024 745.994 272.024C746.922 272.024 747.722 272.212 748.394 272.588C749.074 272.956 749.618 273.46 750.026 274.1C750.442 274.732 750.722 275.448 750.866 276.248C751.01 277.048 751.018 277.872 750.89 278.72H742.802V277.184H748.886L748.334 277.544C748.358 277.168 748.338 276.788 748.274 276.404C748.218 276.02 748.106 275.668 747.938 275.348C747.77 275.028 747.53 274.772 747.218 274.58C746.914 274.38 746.522 274.28 746.042 274.28C745.466 274.28 744.978 274.424 744.578 274.712C744.178 275 743.874 275.392 743.666 275.888C743.458 276.384 743.354 276.944 743.354 277.568V278.696C743.354 279.352 743.45 279.932 743.642 280.436C743.842 280.94 744.134 281.336 744.518 281.624C744.91 281.912 745.402 282.056 745.994 282.056C746.546 282.056 747.01 281.928 747.386 281.672C747.762 281.416 748.002 281.032 748.106 280.52H750.962C750.842 281.272 750.558 281.936 750.11 282.512C749.67 283.08 749.098 283.528 748.394 283.856C747.69 284.176 746.89 284.336 745.994 284.336ZM754.449 284V270.944C754.449 270.104 754.613 269.42 754.941 268.892C755.269 268.364 755.701 267.976 756.237 267.728C756.781 267.472 757.369 267.344 758.001 267.344C758.393 267.344 758.797 267.372 759.213 267.428C759.629 267.484 760.033 267.552 760.425 267.632L759.873 269.816C759.673 269.744 759.465 269.688 759.249 269.648C759.033 269.6 758.825 269.576 758.625 269.576C758.401 269.576 758.189 269.62 757.989 269.708C757.789 269.788 757.625 269.932 757.497 270.14C757.369 270.348 757.305 270.632 757.305 270.992V284H754.449ZM752.721 274.232V272.36H759.441V274.232H752.721ZM762.661 284V270.944C762.661 270.104 762.825 269.42 763.153 268.892C763.481 268.364 763.913 267.976 764.449 267.728C764.993 267.472 765.581 267.344 766.213 267.344C766.605 267.344 767.009 267.372 767.425 267.428C767.841 267.484 768.245 267.552 768.637 267.632L768.085 269.816C767.885 269.744 767.677 269.688 767.461 269.648C767.245 269.6 767.037 269.576 766.837 269.576C766.613 269.576 766.401 269.62 766.201 269.708C766.001 269.788 765.837 269.932 765.709 270.14C765.581 270.348 765.517 270.632 765.517 270.992V284H762.661ZM760.933 274.232V272.36H767.653V274.232H760.933ZM772.465 270.224C771.913 270.224 771.481 270.08 771.169 269.792C770.865 269.496 770.713 269.088 770.713 268.568C770.713 268.064 770.865 267.664 771.169 267.368C771.481 267.064 771.913 266.912 772.465 266.912C773.009 266.912 773.437 267.064 773.749 267.368C774.061 267.664 774.217 268.064 774.217 268.568C774.217 269.088 774.061 269.496 773.749 269.792C773.437 270.08 773.009 270.224 772.465 270.224ZM771.049 284V272.312H773.881V284H771.049ZM782.516 284.336C781.54 284.336 780.632 284.084 779.792 283.58C778.96 283.068 778.284 282.352 777.764 281.432C777.252 280.504 776.996 279.416 776.996 278.168C776.996 276.848 777.252 275.732 777.764 274.82C778.284 273.9 778.96 273.204 779.792 272.732C780.632 272.26 781.54 272.024 782.516 272.024C783.276 272.024 783.944 272.148 784.52 272.396C785.104 272.636 785.6 272.964 786.008 273.38C786.416 273.788 786.736 274.244 786.968 274.748C787.2 275.252 787.348 275.76 787.412 276.272L784.556 276.344C784.428 275.832 784.188 275.408 783.836 275.072C783.492 274.736 783.044 274.568 782.492 274.568C782.036 274.568 781.608 274.696 781.208 274.952C780.808 275.2 780.48 275.588 780.224 276.116C779.976 276.644 779.852 277.328 779.852 278.168C779.852 278.968 779.968 279.636 780.2 280.172C780.44 280.7 780.76 281.1 781.16 281.372C781.56 281.636 782.004 281.768 782.492 281.768C783.212 281.768 783.736 281.596 784.064 281.252C784.392 280.9 784.556 280.432 784.556 279.848H787.412C787.412 280.672 787.224 281.424 786.848 282.104C786.472 282.784 785.92 283.328 785.192 283.736C784.464 284.136 783.572 284.336 782.516 284.336ZM791.859 270.224C791.307 270.224 790.875 270.08 790.563 269.792C790.259 269.496 790.107 269.088 790.107 268.568C790.107 268.064 790.259 267.664 790.563 267.368C790.875 267.064 791.307 266.912 791.859 266.912C792.403 266.912 792.831 267.064 793.143 267.368C793.455 267.664 793.611 268.064 793.611 268.568C793.611 269.088 793.455 269.496 793.143 269.792C792.831 270.08 792.403 270.224 791.859 270.224ZM790.443 284V272.312H793.275V284H790.443ZM801.822 284.336C800.83 284.336 799.922 284.08 799.098 283.568C798.274 283.056 797.614 282.34 797.118 281.42C796.622 280.492 796.374 279.408 796.374 278.168C796.374 276.888 796.618 275.788 797.106 274.868C797.602 273.948 798.262 273.244 799.086 272.756C799.91 272.268 800.822 272.024 801.822 272.024C802.75 272.024 803.55 272.212 804.222 272.588C804.902 272.956 805.446 273.46 805.854 274.1C806.27 274.732 806.55 275.448 806.694 276.248C806.838 277.048 806.846 277.872 806.718 278.72H798.63V277.184H804.714L804.162 277.544C804.186 277.168 804.166 276.788 804.102 276.404C804.046 276.02 803.934 275.668 803.766 275.348C803.598 275.028 803.358 274.772 803.046 274.58C802.742 274.38 802.35 274.28 801.87 274.28C801.294 274.28 800.806 274.424 800.406 274.712C800.006 275 799.702 275.392 799.494 275.888C799.286 276.384 799.182 276.944 799.182 277.568V278.696C799.182 279.352 799.278 279.932 799.47 280.436C799.67 280.94 799.962 281.336 800.346 281.624C800.738 281.912 801.23 282.056 801.822 282.056C802.374 282.056 802.838 281.928 803.214 281.672C803.59 281.416 803.83 281.032 803.934 280.52H806.79C806.67 281.272 806.386 281.936 805.938 282.512C805.498 283.08 804.926 283.528 804.222 283.856C803.518 284.176 802.718 284.336 801.822 284.336ZM817.597 284V277.184C817.597 276.32 817.389 275.668 816.973 275.228C816.557 274.788 816.013 274.568 815.341 274.568C814.773 274.568 814.269 274.724 813.829 275.036C813.397 275.348 813.057 275.82 812.809 276.452C812.561 277.076 812.437 277.856 812.437 278.792H811.501C811.501 277.28 811.689 276.024 812.065 275.024C812.441 274.016 812.973 273.264 813.661 272.768C814.349 272.272 815.157 272.024 816.085 272.024C817.045 272.024 817.845 272.24 818.485 272.672C819.133 273.096 819.617 273.696 819.937 274.472C820.265 275.248 820.429 276.152 820.429 277.184V284H817.597ZM809.605 284V272.36H812.077L812.437 274.664V284H809.605ZM827.894 284.336C827.206 284.336 826.574 284.208 825.998 283.952C825.43 283.696 824.974 283.304 824.63 282.776C824.294 282.248 824.126 281.576 824.126 280.76V269.264H826.958V280.664C826.958 281.624 827.414 282.104 828.326 282.104C828.606 282.104 828.886 282.072 829.166 282.008C829.446 281.944 829.766 281.848 830.126 281.72L830.534 283.712C830.086 283.888 829.65 284.036 829.226 284.156C828.802 284.276 828.358 284.336 827.894 284.336ZM822.494 274.232V272.36H830.126V274.232H822.494ZM833.259 287.264L831.171 286.208C831.699 285.944 832.167 285.64 832.575 285.296C832.983 284.952 833.251 284.56 833.379 284.12C832.939 284.032 832.559 283.848 832.239 283.568C831.927 283.288 831.771 282.92 831.771 282.464C831.771 281.984 831.955 281.58 832.323 281.252C832.691 280.924 833.155 280.76 833.715 280.76C834.427 280.76 834.983 281.008 835.383 281.504C835.791 282 835.995 282.588 835.995 283.268C835.995 284.044 835.751 284.796 835.263 285.524C834.775 286.26 834.107 286.84 833.259 287.264ZM849.719 284.336C848.991 284.336 848.323 284.132 847.715 283.724C847.115 283.316 846.635 282.708 846.275 281.9C845.915 281.084 845.735 280.064 845.735 278.84H846.599C846.599 279.424 846.731 279.936 846.995 280.376C847.259 280.816 847.599 281.16 848.015 281.408C848.431 281.648 848.863 281.768 849.311 281.768C849.863 281.768 850.355 281.616 850.787 281.312C851.219 281.008 851.559 280.584 851.807 280.04C852.063 279.496 852.191 278.856 852.191 278.12C852.191 277.408 852.067 276.788 851.819 276.26C851.571 275.724 851.227 275.308 850.787 275.012C850.355 274.716 849.855 274.568 849.287 274.568C848.815 274.568 848.375 274.684 847.967 274.916C847.559 275.14 847.227 275.468 846.971 275.9C846.723 276.324 846.599 276.84 846.599 277.448H845.735C845.735 276.272 845.903 275.28 846.239 274.472C846.583 273.664 847.067 273.056 847.691 272.648C848.323 272.232 849.071 272.024 849.935 272.024C850.879 272.024 851.735 272.276 852.503 272.78C853.279 273.276 853.895 273.984 854.351 274.904C854.815 275.816 855.047 276.888 855.047 278.12C855.047 279.368 854.807 280.46 854.327 281.396C853.855 282.324 853.215 283.048 852.407 283.568C851.599 284.08 850.703 284.336 849.719 284.336ZM843.767 284V267.536H846.599V281.12L845.615 284H843.767ZM865.661 272.312H868.493V284H865.661V272.312ZM857.669 272.312H860.501V279.464C860.501 280.224 860.689 280.796 861.065 281.18C861.441 281.556 861.957 281.744 862.613 281.744C863.173 281.744 863.681 281.6 864.137 281.312C864.601 281.016 864.969 280.584 865.241 280.016C865.521 279.44 865.661 278.728 865.661 277.88H866.429C866.429 279.304 866.245 280.484 865.877 281.42C865.509 282.356 865.001 283.056 864.353 283.52C863.705 283.984 862.957 284.216 862.109 284.216C861.277 284.216 860.525 284.068 859.853 283.772C859.181 283.476 858.649 283 858.257 282.344C857.865 281.688 857.669 280.824 857.669 279.752V272.312ZM876.292 284.336C875.604 284.336 874.972 284.208 874.396 283.952C873.828 283.696 873.372 283.304 873.028 282.776C872.692 282.248 872.524 281.576 872.524 280.76V269.264H875.356V280.664C875.356 281.624 875.812 282.104 876.724 282.104C877.004 282.104 877.284 282.072 877.564 282.008C877.844 281.944 878.164 281.848 878.524 281.72L878.932 283.712C878.484 283.888 878.048 284.036 877.624 284.156C877.2 284.276 876.756 284.336 876.292 284.336ZM870.892 274.232V272.36H878.524V274.232H870.892ZM894.111 284L893.751 281.168V276.488C893.751 275.672 893.583 275.068 893.247 274.676C892.919 274.284 892.359 274.088 891.567 274.088C891.111 274.088 890.715 274.156 890.379 274.292C890.043 274.428 889.783 274.624 889.599 274.88C889.423 275.128 889.335 275.432 889.335 275.792H886.239C886.239 274.912 886.451 274.196 886.875 273.644C887.299 273.084 887.907 272.676 888.699 272.42C889.499 272.156 890.455 272.024 891.567 272.024C892.575 272.024 893.455 272.188 894.207 272.516C894.959 272.836 895.543 273.332 895.959 274.004C896.375 274.676 896.583 275.536 896.583 276.584V284H894.111ZM890.295 284.336C889.295 284.336 888.459 284.164 887.787 283.82C887.123 283.468 886.623 283.008 886.287 282.44C885.951 281.872 885.783 281.256 885.783 280.592C885.783 279.856 885.975 279.24 886.359 278.744C886.751 278.24 887.303 277.864 888.015 277.616C888.727 277.36 889.567 277.232 890.535 277.232C891.167 277.232 891.763 277.28 892.323 277.376C892.891 277.472 893.455 277.6 894.015 277.76V279.416C893.575 279.272 893.095 279.16 892.575 279.08C892.055 279 891.567 278.96 891.111 278.96C890.439 278.96 889.887 279.084 889.455 279.332C889.023 279.58 888.807 280 888.807 280.592C888.807 281.024 888.983 281.396 889.335 281.708C889.687 282.02 890.247 282.176 891.015 282.176C891.599 282.176 892.095 282.048 892.503 281.792C892.911 281.536 893.219 281.216 893.427 280.832C893.643 280.448 893.751 280.064 893.751 279.68H894.423C894.423 280.52 894.267 281.296 893.955 282.008C893.643 282.712 893.179 283.276 892.563 283.7C891.955 284.124 891.199 284.336 890.295 284.336ZM900.134 284V267.536H902.966V284H900.134ZM911.191 284.336C910.071 284.336 909.107 284.184 908.299 283.88C907.499 283.568 906.883 283.124 906.451 282.548C906.019 281.964 905.799 281.264 905.791 280.448H908.407C908.431 281.024 908.659 281.444 909.091 281.708C909.523 281.972 910.111 282.104 910.855 282.104C911.263 282.104 911.623 282.044 911.935 281.924C912.255 281.804 912.503 281.64 912.679 281.432C912.855 281.224 912.943 280.992 912.943 280.736C912.943 280.408 912.823 280.152 912.583 279.968C912.351 279.776 911.975 279.6 911.455 279.44L908.911 278.528C907.999 278.2 907.299 277.768 906.811 277.232C906.323 276.696 906.079 276.056 906.079 275.312C906.079 274.328 906.523 273.536 907.411 272.936C908.307 272.328 909.503 272.024 910.999 272.024C912.487 272.024 913.635 272.352 914.443 273.008C915.259 273.656 915.679 274.48 915.703 275.48H913.039C912.999 275.096 912.815 274.792 912.487 274.568C912.159 274.344 911.663 274.232 910.999 274.232C910.399 274.232 909.927 274.356 909.583 274.604C909.247 274.844 909.079 275.128 909.079 275.456C909.079 276.008 909.551 276.424 910.495 276.704L913.255 277.736C914.151 278.04 914.847 278.432 915.343 278.912C915.839 279.392 916.087 280 916.087 280.736C916.087 281.352 915.879 281.936 915.463 282.488C915.055 283.032 914.483 283.476 913.747 283.82C913.011 284.164 912.159 284.336 911.191 284.336ZM923.487 284.336C922.423 284.336 921.459 284.108 920.595 283.652C919.739 283.196 919.059 282.516 918.555 281.612C918.051 280.7 917.799 279.56 917.799 278.192C917.799 276.8 918.051 275.648 918.555 274.736C919.059 273.824 919.739 273.144 920.595 272.696C921.459 272.248 922.423 272.024 923.487 272.024C924.535 272.024 925.483 272.248 926.331 272.696C927.187 273.144 927.867 273.824 928.371 274.736C928.875 275.648 929.127 276.8 929.127 278.192C929.127 279.56 928.875 280.7 928.371 281.612C927.867 282.516 927.187 283.196 926.331 283.652C925.483 284.108 924.535 284.336 923.487 284.336ZM923.391 281.864C923.951 281.864 924.447 281.728 924.879 281.456C925.319 281.176 925.663 280.764 925.911 280.22C926.167 279.676 926.295 279 926.295 278.192C926.295 276.96 926.051 276.032 925.563 275.408C925.083 274.784 924.423 274.472 923.583 274.472C923.015 274.472 922.511 274.612 922.071 274.892C921.631 275.164 921.283 275.576 921.027 276.128C920.779 276.68 920.655 277.368 920.655 278.192C920.655 279.408 920.899 280.324 921.387 280.94C921.883 281.556 922.551 281.864 923.391 281.864ZM941.711 284.336C940.719 284.336 939.811 284.08 938.987 283.568C938.163 283.056 937.503 282.34 937.007 281.42C936.511 280.492 936.263 279.408 936.263 278.168C936.263 276.888 936.507 275.788 936.995 274.868C937.491 273.948 938.151 273.244 938.975 272.756C939.799 272.268 940.711 272.024 941.711 272.024C942.639 272.024 943.439 272.212 944.111 272.588C944.791 272.956 945.335 273.46 945.743 274.1C946.159 274.732 946.439 275.448 946.583 276.248C946.727 277.048 946.735 277.872 946.607 278.72H938.519V277.184H944.603L944.051 277.544C944.075 277.168 944.055 276.788 943.991 276.404C943.935 276.02 943.823 275.668 943.655 275.348C943.487 275.028 943.247 274.772 942.935 274.58C942.631 274.38 942.239 274.28 941.759 274.28C941.183 274.28 940.695 274.424 940.295 274.712C939.895 275 939.591 275.392 939.383 275.888C939.175 276.384 939.071 276.944 939.071 277.568V278.696C939.071 279.352 939.167 279.932 939.359 280.436C939.559 280.94 939.851 281.336 940.235 281.624C940.627 281.912 941.119 282.056 941.711 282.056C942.263 282.056 942.727 281.928 943.103 281.672C943.479 281.416 943.719 281.032 943.823 280.52H946.679C946.559 281.272 946.275 281.936 945.827 282.512C945.387 283.08 944.815 283.528 944.111 283.856C943.407 284.176 942.607 284.336 941.711 284.336ZM957.486 284V277.184C957.486 276.32 957.278 275.668 956.862 275.228C956.446 274.788 955.902 274.568 955.23 274.568C954.662 274.568 954.158 274.724 953.718 275.036C953.286 275.348 952.946 275.82 952.698 276.452C952.45 277.076 952.326 277.856 952.326 278.792H951.39C951.39 277.28 951.578 276.024 951.954 275.024C952.33 274.016 952.862 273.264 953.55 272.768C954.238 272.272 955.046 272.024 955.974 272.024C956.934 272.024 957.734 272.24 958.374 272.672C959.022 273.096 959.506 273.696 959.826 274.472C960.154 275.248 960.318 276.152 960.318 277.184V284H957.486ZM949.494 284V272.36H951.966L952.326 274.664V284H949.494ZM965.647 270.224C965.111 270.224 964.683 270.08 964.363 269.792C964.051 269.496 963.895 269.088 963.895 268.568C963.895 268.064 964.051 267.664 964.363 267.368C964.683 267.064 965.111 266.912 965.647 266.912C966.191 266.912 966.619 267.064 966.931 267.368C967.243 267.664 967.399 268.064 967.399 268.568C967.399 269.088 967.243 269.496 966.931 269.792C966.619 270.08 966.191 270.224 965.647 270.224ZM963.151 290.024C962.527 290.024 961.951 289.956 961.423 289.82C960.887 289.684 960.343 289.504 959.791 289.28L959.839 286.832C960.247 287.032 960.679 287.2 961.135 287.336C961.583 287.48 962.023 287.552 962.455 287.552C963.039 287.552 963.483 287.384 963.787 287.048C964.099 286.712 964.255 286.144 964.255 285.344V272.312H967.087V285.392C967.087 287.056 966.739 288.244 966.043 288.956C965.355 289.668 964.391 290.024 963.151 290.024ZM975.87 284.336C974.806 284.336 973.842 284.108 972.978 283.652C972.122 283.196 971.442 282.516 970.938 281.612C970.434 280.7 970.182 279.56 970.182 278.192C970.182 276.8 970.434 275.648 970.938 274.736C971.442 273.824 972.122 273.144 972.978 272.696C973.842 272.248 974.806 272.024 975.87 272.024C976.918 272.024 977.866 272.248 978.714 272.696C979.57 273.144 980.25 273.824 980.754 274.736C981.258 275.648 981.51 276.8 981.51 278.192C981.51 279.56 981.258 280.7 980.754 281.612C980.25 282.516 979.57 283.196 978.714 283.652C977.866 284.108 976.918 284.336 975.87 284.336ZM975.774 281.864C976.334 281.864 976.83 281.728 977.262 281.456C977.702 281.176 978.046 280.764 978.294 280.22C978.55 279.676 978.678 279 978.678 278.192C978.678 276.96 978.434 276.032 977.946 275.408C977.466 274.784 976.806 274.472 975.966 274.472C975.398 274.472 974.894 274.612 974.454 274.892C974.014 275.164 973.666 275.576 973.41 276.128C973.162 276.68 973.038 277.368 973.038 278.192C973.038 279.408 973.282 280.324 973.77 280.94C974.266 281.556 974.934 281.864 975.774 281.864ZM982.504 272.36H985.72L988.816 281.528H988.312L990.976 272.36H993.856L989.392 286.112C988.936 287.488 988.372 288.484 987.7 289.1C987.036 289.716 986.224 290.024 985.264 290.024C984.712 290.024 984.172 289.96 983.644 289.832C983.124 289.712 982.592 289.52 982.048 289.256V286.76C982.488 287.032 982.912 287.232 983.32 287.36C983.736 287.488 984.152 287.552 984.568 287.552C984.944 287.552 985.272 287.448 985.552 287.24C985.84 287.04 986.088 286.756 986.296 286.388C986.504 286.028 986.68 285.608 986.824 285.128L987.184 284L982.504 272.36ZM1003.19 284L1002.83 281.168V276.488C1002.83 275.672 1002.66 275.068 1002.33 274.676C1002 274.284 1001.44 274.088 1000.65 274.088C1000.19 274.088 999.793 274.156 999.457 274.292C999.121 274.428 998.861 274.624 998.677 274.88C998.501 275.128 998.413 275.432 998.413 275.792H995.317C995.317 274.912 995.529 274.196 995.953 273.644C996.377 273.084 996.985 272.676 997.777 272.42C998.577 272.156 999.533 272.024 1000.65 272.024C1001.65 272.024 1002.53 272.188 1003.29 272.516C1004.04 272.836 1004.62 273.332 1005.04 274.004C1005.45 274.676 1005.66 275.536 1005.66 276.584V284H1003.19ZM999.373 284.336C998.373 284.336 997.537 284.164 996.865 283.82C996.201 283.468 995.701 283.008 995.365 282.44C995.029 281.872 994.861 281.256 994.861 280.592C994.861 279.856 995.053 279.24 995.437 278.744C995.829 278.24 996.381 277.864 997.093 277.616C997.805 277.36 998.645 277.232 999.613 277.232C1000.25 277.232 1000.84 277.28 1001.4 277.376C1001.97 277.472 1002.53 277.6 1003.09 277.76V279.416C1002.65 279.272 1002.17 279.16 1001.65 279.08C1001.13 279 1000.65 278.96 1000.19 278.96C999.517 278.96 998.965 279.084 998.533 279.332C998.101 279.58 997.885 280 997.885 280.592C997.885 281.024 998.061 281.396 998.413 281.708C998.765 282.02 999.325 282.176 1000.09 282.176C1000.68 282.176 1001.17 282.048 1001.58 281.792C1001.99 281.536 1002.3 281.216 1002.51 280.832C1002.72 280.448 1002.83 280.064 1002.83 279.68H1003.5C1003.5 280.52 1003.35 281.296 1003.03 282.008C1002.72 282.712 1002.26 283.276 1001.64 283.7C1001.03 284.124 1000.28 284.336 999.373 284.336ZM1015.16 284.336C1014.44 284.336 1013.77 284.132 1013.16 283.724C1012.56 283.316 1012.08 282.708 1011.72 281.9C1011.36 281.084 1011.18 280.064 1011.18 278.84H1012.04C1012.04 279.424 1012.18 279.936 1012.44 280.376C1012.7 280.816 1013.04 281.16 1013.46 281.408C1013.88 281.648 1014.31 281.768 1014.76 281.768C1015.31 281.768 1015.8 281.616 1016.23 281.312C1016.66 281.008 1017 280.584 1017.25 280.04C1017.51 279.496 1017.64 278.856 1017.64 278.12C1017.64 277.408 1017.51 276.788 1017.26 276.26C1017.02 275.724 1016.67 275.308 1016.23 275.012C1015.8 274.716 1015.3 274.568 1014.73 274.568C1014.26 274.568 1013.82 274.684 1013.41 274.916C1013 275.14 1012.67 275.468 1012.42 275.9C1012.17 276.324 1012.04 276.84 1012.04 277.448H1011.18C1011.18 276.272 1011.35 275.28 1011.68 274.472C1012.03 273.664 1012.51 273.056 1013.14 272.648C1013.77 272.232 1014.52 272.024 1015.38 272.024C1016.32 272.024 1017.18 272.276 1017.95 272.78C1018.72 273.276 1019.34 273.984 1019.8 274.904C1020.26 275.816 1020.49 276.888 1020.49 278.12C1020.49 279.368 1020.25 280.46 1019.77 281.396C1019.3 282.324 1018.66 283.048 1017.85 283.568C1017.04 284.08 1016.15 284.336 1015.16 284.336ZM1009.21 284V267.536H1012.04V281.12L1011.06 284H1009.21ZM1023.35 284V267.536H1026.19V284H1023.35ZM1034.41 284.336C1033.42 284.336 1032.51 284.08 1031.69 283.568C1030.86 283.056 1030.2 282.34 1029.71 281.42C1029.21 280.492 1028.96 279.408 1028.96 278.168C1028.96 276.888 1029.21 275.788 1029.7 274.868C1030.19 273.948 1030.85 273.244 1031.68 272.756C1032.5 272.268 1033.41 272.024 1034.41 272.024C1035.34 272.024 1036.14 272.212 1036.81 272.588C1037.49 272.956 1038.04 273.46 1038.44 274.1C1038.86 274.732 1039.14 275.448 1039.28 276.248C1039.43 277.048 1039.44 277.872 1039.31 278.72H1031.22V277.184H1037.3L1036.75 277.544C1036.78 277.168 1036.76 276.788 1036.69 276.404C1036.64 276.02 1036.52 275.668 1036.36 275.348C1036.19 275.028 1035.95 274.772 1035.64 274.58C1035.33 274.38 1034.94 274.28 1034.46 274.28C1033.88 274.28 1033.4 274.424 1033 274.712C1032.6 275 1032.29 275.392 1032.08 275.888C1031.88 276.384 1031.77 276.944 1031.77 277.568V278.696C1031.77 279.352 1031.87 279.932 1032.06 280.436C1032.26 280.94 1032.55 281.336 1032.94 281.624C1033.33 281.912 1033.82 282.056 1034.41 282.056C1034.96 282.056 1035.43 281.928 1035.8 281.672C1036.18 281.416 1036.42 281.032 1036.52 280.52H1039.38C1039.26 281.272 1038.98 281.936 1038.53 282.512C1038.09 283.08 1037.52 283.528 1036.81 283.856C1036.11 284.176 1035.31 284.336 1034.41 284.336ZM1044.16 279.344V278.384C1044.16 277.688 1044.24 277.116 1044.4 276.668C1044.57 276.22 1044.83 275.844 1045.17 275.54C1045.52 275.228 1045.99 274.928 1046.56 274.64C1047.07 274.384 1047.46 274.148 1047.74 273.932C1048.02 273.708 1048.21 273.48 1048.31 273.248C1048.43 273.016 1048.48 272.744 1048.48 272.432C1048.48 271.928 1048.28 271.512 1047.87 271.184C1047.46 270.848 1046.91 270.68 1046.2 270.68C1045.36 270.68 1044.71 270.868 1044.26 271.244C1043.81 271.612 1043.55 272.104 1043.49 272.72H1040.54C1040.63 271.328 1041.14 270.212 1042.07 269.372C1043.02 268.532 1044.35 268.112 1046.08 268.112C1047.22 268.112 1048.2 268.304 1049.02 268.688C1049.85 269.072 1050.48 269.592 1050.93 270.248C1051.38 270.904 1051.6 271.64 1051.6 272.456C1051.6 273.288 1051.39 273.992 1050.97 274.568C1050.55 275.144 1049.9 275.656 1049.01 276.104C1048.49 276.368 1048.08 276.616 1047.79 276.848C1047.5 277.08 1047.29 277.336 1047.17 277.616C1047.05 277.888 1046.99 278.232 1046.99 278.648V279.344H1044.16ZM1045.65 284.336C1045.07 284.336 1044.59 284.156 1044.22 283.796C1043.86 283.436 1043.68 282.996 1043.68 282.476C1043.68 281.932 1043.86 281.48 1044.22 281.12C1044.59 280.752 1045.06 280.568 1045.64 280.568C1046.22 280.568 1046.71 280.752 1047.09 281.12C1047.47 281.48 1047.67 281.928 1047.67 282.464C1047.67 282.992 1047.47 283.436 1047.09 283.796C1046.71 284.156 1046.23 284.336 1045.65 284.336Z" fill="#666666"/>
</svg>
