<svg width="1500" height="292" viewBox="0 0 1500 292" fill="none" xmlns="http://www.w3.org/2000/svg">
<rect width="1500" height="292" fill="#E5E5E5"/>
<rect width="1500" height="292" fill="white"/>
<path d="M645.998 39.4397C644.208 39.4397 642.648 39.0157 641.318 38.1676C639.999 37.3091 638.973 36.0841 638.24 34.4927C637.507 32.9012 637.141 30.9904 637.141 28.7603C637.141 26.4569 637.518 24.5252 638.271 22.9652C639.036 21.3947 640.083 20.2116 641.412 19.4159C642.753 18.6097 644.281 18.2066 645.998 18.2066C648.375 18.2066 650.228 18.7824 651.558 19.9341C652.898 21.0858 653.757 22.583 654.134 24.4258L650.176 25.1482C649.851 24.0802 649.333 23.2165 648.621 22.5569C647.909 21.8973 647.035 21.5674 645.998 21.5674C645.087 21.5674 644.266 21.8344 643.533 22.3684C642.8 22.8919 642.213 23.6876 641.774 24.7556C641.344 25.8235 641.13 27.1584 641.13 28.7603C641.13 30.268 641.318 31.5663 641.695 32.6552C642.083 33.7441 642.637 34.5817 643.36 35.168C644.082 35.7543 644.962 36.0475 645.998 36.0475C647.328 36.0475 648.354 35.6967 649.077 34.9952C649.809 34.2833 650.176 33.3776 650.176 32.2783H654.134C654.134 33.7964 653.804 35.0895 653.144 36.1574C652.495 37.2149 651.563 38.0263 650.349 38.5917C649.134 39.1571 647.684 39.4397 645.998 39.4397ZM665.403 18.6149H669.109V27.127H677.998V18.6149H681.705V39H677.998V30.3622H669.109V39H665.403V18.6149ZM692.23 39L699.171 18.6149H703.82L710.479 39H706.584L705.171 34.6026H697.601L696.156 39H692.23ZM698.543 31.8071H704.291L701.433 23.0437L698.543 31.8071ZM724.738 18.6149V35.7648H733.125V39H721.032V18.6149H724.738ZM747.169 18.6149V35.7648H755.556V39H743.463V18.6149H747.169ZM765.863 39V18.6149H778.961V21.8187H769.569V27.1898H778.395V30.3937H769.569V35.7648H778.961V39H765.863ZM791.177 18.6149H795.228L804.494 33.1577H804.212V18.6149H807.918V39H804.149L794.286 23.5777H794.883V39H791.177V18.6149ZM828.108 39.4397C826.444 39.4397 824.941 39 823.601 38.1205C822.261 37.241 821.193 36.016 820.397 34.4455C819.612 32.8646 819.219 31.0219 819.219 28.9174C819.219 27.2527 819.46 25.7607 819.942 24.4415C820.434 23.1222 821.114 21.9967 821.983 21.0649C822.852 20.1331 823.873 19.4263 825.046 18.9447C826.219 18.4526 827.491 18.2066 828.862 18.2066C830.768 18.2066 832.364 18.6201 833.652 19.4473C834.951 20.2744 835.961 21.5779 836.683 23.3578L832.883 24.2373C832.349 23.3683 831.731 22.7087 831.029 22.2585C830.338 21.7978 829.553 21.5674 828.674 21.5674C827.669 21.5674 826.752 21.8658 825.925 22.4626C825.098 23.049 824.439 23.8918 823.947 24.9911C823.454 26.0905 823.208 27.3992 823.208 28.9174C823.208 30.3413 823.423 31.5872 823.852 32.6552C824.292 33.7231 824.905 34.5555 825.69 35.1523C826.475 35.7491 827.386 36.0475 828.422 36.0475C829.302 36.0475 830.087 35.8538 830.778 35.4664C831.48 35.0685 832.029 34.5031 832.427 33.7702C832.836 33.0373 833.04 32.1526 833.04 31.1161H833.856C833.856 32.8122 833.652 34.2833 833.244 35.5292C832.846 36.7751 832.223 37.7384 831.375 38.4189C830.527 39.0995 829.438 39.4397 828.108 39.4397ZM833.574 39L833.04 34.5084V30.9904L828.454 30.8962V28.5405H836.589V39H833.574ZM848.8 39V18.6149H861.898V21.8187H852.506V27.1898H861.333V30.3937H852.506V35.7648H861.898V39H848.8Z" fill="#383838"/>
<path d="M510.735 107.636H512.579V112.964H518.382V107.636H520.216V120H518.382V114.565H512.579V120H510.735V107.636ZM527.05 120.252C526.202 120.252 525.442 120.068 524.769 119.699C524.103 119.33 523.576 118.78 523.187 118.049C522.799 117.318 522.605 116.416 522.605 115.342C522.605 114.248 522.799 113.339 523.187 112.614C523.576 111.883 524.103 111.333 524.769 110.965C525.442 110.596 526.202 110.411 527.05 110.411C527.885 110.411 528.635 110.596 529.302 110.965C529.968 111.333 530.492 111.883 530.874 112.614C531.262 113.339 531.456 114.248 531.456 115.342C531.456 116.416 531.262 117.318 530.874 118.049C530.492 118.78 529.968 119.33 529.302 119.699C528.635 120.068 527.885 120.252 527.05 120.252ZM526.992 118.641C527.529 118.641 527.991 118.512 528.38 118.253C528.774 117.994 529.075 117.619 529.282 117.127C529.496 116.629 529.602 116.034 529.602 115.342C529.602 114.281 529.386 113.459 528.952 112.877C528.525 112.294 527.907 112.003 527.099 112.003C526.555 112.003 526.086 112.136 525.691 112.401C525.303 112.66 525.002 113.038 524.789 113.536C524.582 114.028 524.478 114.63 524.478 115.342C524.478 116.383 524.695 117.195 525.128 117.778C525.562 118.353 526.183 118.641 526.992 118.641ZM532.226 110.664H534.148L536.371 118.156H536.167L538.312 111.139H539.913L542.048 118.175H541.854L544.076 110.664H545.92L542.853 120H541.048L538.933 113.401H539.214L537.127 120H535.322L532.226 110.664ZM555.313 120.252C554.55 120.252 553.838 120.049 553.178 119.641C552.518 119.233 551.988 118.661 551.586 117.923C551.185 117.186 550.985 116.319 550.985 115.322C550.985 114.274 551.185 113.388 551.586 112.663C551.988 111.932 552.518 111.375 553.178 110.994C553.838 110.606 554.55 110.411 555.313 110.411C555.876 110.411 556.377 110.502 556.817 110.683C557.257 110.858 557.636 111.097 557.953 111.401C558.27 111.699 558.525 112.035 558.72 112.411C558.92 112.786 559.059 113.174 559.137 113.575L557.264 113.672C557.128 113.187 556.889 112.799 556.546 112.508C556.209 112.21 555.792 112.061 555.294 112.061C554.873 112.061 554.475 112.181 554.1 112.42C553.731 112.653 553.43 113.012 553.197 113.498C552.971 113.976 552.858 114.585 552.858 115.322C552.858 116.008 552.965 116.594 553.178 117.079C553.392 117.564 553.683 117.936 554.051 118.195C554.42 118.454 554.834 118.583 555.294 118.583C555.954 118.583 556.445 118.425 556.769 118.108C557.099 117.784 557.264 117.341 557.264 116.778H559.137C559.137 117.431 558.985 118.02 558.681 118.544C558.377 119.068 557.937 119.486 557.361 119.796C556.792 120.1 556.109 120.252 555.313 120.252ZM567.405 120L567.172 117.855V113.963C567.172 113.2 567.014 112.647 566.697 112.304C566.38 111.955 565.878 111.78 565.193 111.78C564.804 111.78 564.458 111.838 564.154 111.955C563.856 112.065 563.62 112.233 563.446 112.459C563.277 112.686 563.193 112.97 563.193 113.313H561.155C561.155 112.627 561.323 112.071 561.66 111.644C561.996 111.217 562.465 110.906 563.067 110.712C563.675 110.512 564.384 110.411 565.193 110.411C565.95 110.411 566.616 110.538 567.192 110.79C567.768 111.036 568.214 111.424 568.531 111.955C568.855 112.485 569.016 113.171 569.016 114.012V120H567.405ZM564.28 120.252C563.497 120.252 562.847 120.116 562.33 119.845C561.812 119.567 561.424 119.204 561.165 118.758C560.913 118.311 560.786 117.836 560.786 117.331C560.786 116.716 560.942 116.212 561.252 115.817C561.569 115.416 562.006 115.118 562.562 114.924C563.119 114.73 563.759 114.633 564.484 114.633C564.982 114.633 565.468 114.678 565.94 114.769C566.412 114.86 566.878 114.979 567.337 115.128V116.244C566.962 116.108 566.545 116.002 566.085 115.924C565.632 115.84 565.209 115.798 564.814 115.798C564.225 115.798 563.734 115.914 563.339 116.147C562.944 116.38 562.747 116.775 562.747 117.331C562.747 117.739 562.902 118.091 563.213 118.389C563.523 118.68 564.015 118.826 564.688 118.826C565.18 118.826 565.613 118.716 565.988 118.496C566.364 118.269 566.655 117.988 566.862 117.651C567.069 117.315 567.172 116.979 567.172 116.642H567.619C567.619 117.289 567.486 117.888 567.221 118.437C566.962 118.981 566.584 119.421 566.085 119.757C565.587 120.087 564.985 120.252 564.28 120.252ZM578.584 120V114.526C578.584 113.718 578.39 113.106 578.002 112.692C577.62 112.272 577.102 112.061 576.449 112.061C575.931 112.061 575.478 112.204 575.09 112.488C574.709 112.767 574.411 113.177 574.197 113.721C573.99 114.258 573.887 114.915 573.887 115.691H573.227C573.227 114.546 573.372 113.582 573.664 112.799C573.961 112.016 574.385 111.424 574.935 111.023C575.485 110.615 576.145 110.411 576.915 110.411C577.665 110.411 578.299 110.58 578.817 110.916C579.341 111.253 579.739 111.731 580.011 112.352C580.282 112.967 580.418 113.692 580.418 114.526V120H578.584ZM572.043 120V110.664H573.644L573.887 112.682V120H572.043ZM586.279 120L590.51 107.636H592.791L596.896 120H594.955L593.995 117.05H589.22L588.22 120H586.279ZM589.686 115.633H593.538L591.617 109.858L589.686 115.633ZM605.062 110.635H606.916V120H605.062V110.635ZM598.54 110.635H600.384V116.419C600.384 117.124 600.556 117.658 600.899 118.02C601.248 118.382 601.737 118.564 602.364 118.564C602.895 118.564 603.361 118.425 603.762 118.146C604.169 117.868 604.486 117.473 604.713 116.962C604.946 116.451 605.062 115.846 605.062 115.148H605.654C605.654 116.241 605.505 117.16 605.208 117.904C604.91 118.648 604.493 119.214 603.956 119.602C603.419 119.984 602.791 120.175 602.073 120.175C601.387 120.175 600.776 120.049 600.239 119.796C599.708 119.544 599.291 119.156 598.987 118.632C598.689 118.101 598.54 117.418 598.54 116.584V110.635ZM613.21 120.252C612.679 120.252 612.2 120.152 611.773 119.951C611.346 119.751 611.007 119.45 610.754 119.049C610.508 118.641 610.386 118.13 610.386 117.516V108.121H612.22V117.457C612.22 118.337 612.631 118.777 613.452 118.777C613.705 118.777 613.951 118.751 614.19 118.7C614.429 118.641 614.701 118.557 615.005 118.447L615.267 119.757C614.924 119.9 614.585 120.016 614.248 120.107C613.918 120.204 613.572 120.252 613.21 120.252ZM608.959 111.916V110.664H614.986V111.916H608.959ZM620.688 120.252C619.841 120.252 619.08 120.068 618.407 119.699C617.741 119.33 617.214 118.78 616.826 118.049C616.437 117.318 616.243 116.416 616.243 115.342C616.243 114.248 616.437 113.339 616.826 112.614C617.214 111.883 617.741 111.333 618.407 110.965C619.08 110.596 619.841 110.411 620.688 110.411C621.523 110.411 622.273 110.596 622.94 110.965C623.606 111.333 624.13 111.883 624.512 112.614C624.9 113.339 625.094 114.248 625.094 115.342C625.094 116.416 624.9 117.318 624.512 118.049C624.13 118.78 623.606 119.33 622.94 119.699C622.273 120.068 621.523 120.252 620.688 120.252ZM620.63 118.641C621.167 118.641 621.63 118.512 622.018 118.253C622.412 117.994 622.713 117.619 622.92 117.127C623.134 116.629 623.241 116.034 623.241 115.342C623.241 114.281 623.024 113.459 622.59 112.877C622.163 112.294 621.545 112.003 620.737 112.003C620.193 112.003 619.724 112.136 619.329 112.401C618.941 112.66 618.64 113.038 618.427 113.536C618.22 114.028 618.116 114.63 618.116 115.342C618.116 116.383 618.333 117.195 618.767 117.778C619.2 118.353 619.821 118.641 620.63 118.641ZM627.456 107.636H630.106L634.026 115.759H633.852L637.773 107.636H640.335V120H638.471V109.664H638.772L634.541 118.535H633.328L629.116 109.713H629.3V120H627.456V107.636ZM647.146 120.252C646.298 120.252 645.538 120.068 644.865 119.699C644.199 119.33 643.671 118.78 643.283 118.049C642.895 117.318 642.701 116.416 642.701 115.342C642.701 114.248 642.895 113.339 643.283 112.614C643.671 111.883 644.199 111.333 644.865 110.965C645.538 110.596 646.298 110.411 647.146 110.411C647.98 110.411 648.731 110.596 649.397 110.965C650.064 111.333 650.588 111.883 650.969 112.614C651.358 113.339 651.552 114.248 651.552 115.342C651.552 116.416 651.358 117.318 650.969 118.049C650.588 118.78 650.064 119.33 649.397 119.699C648.731 120.068 647.98 120.252 647.146 120.252ZM647.087 118.641C647.624 118.641 648.087 118.512 648.475 118.253C648.87 117.994 649.171 117.619 649.378 117.127C649.591 116.629 649.698 116.034 649.698 115.342C649.698 114.281 649.481 113.459 649.048 112.877C648.621 112.294 648.003 112.003 647.194 112.003C646.651 112.003 646.182 112.136 645.787 112.401C645.399 112.66 645.098 113.038 644.884 113.536C644.677 114.028 644.574 114.63 644.574 115.342C644.574 116.383 644.791 117.195 645.224 117.778C645.658 118.353 646.279 118.641 647.087 118.641ZM656.913 120.252C656.382 120.252 655.903 120.152 655.476 119.951C655.049 119.751 654.709 119.45 654.457 119.049C654.211 118.641 654.088 118.13 654.088 117.516V108.121H655.923V117.457C655.923 118.337 656.333 118.777 657.155 118.777C657.407 118.777 657.653 118.751 657.893 118.7C658.132 118.641 658.404 118.557 658.708 118.447L658.97 119.757C658.627 119.9 658.287 120.016 657.951 120.107C657.621 120.204 657.275 120.252 656.913 120.252ZM652.662 111.916V110.664H658.689V111.916H652.662ZM661.945 108.674C661.577 108.674 661.285 108.574 661.072 108.373C660.865 108.166 660.761 107.888 660.761 107.539C660.761 107.202 660.865 106.937 661.072 106.743C661.285 106.542 661.577 106.442 661.945 106.442C662.308 106.442 662.592 106.542 662.799 106.743C663.013 106.937 663.12 107.202 663.12 107.539C663.12 107.888 663.013 108.166 662.799 108.373C662.592 108.574 662.308 108.674 661.945 108.674ZM661.023 120V110.635H662.867V120H661.023ZM669.933 120.252C669.086 120.252 668.326 120.068 667.653 119.699C666.986 119.33 666.459 118.78 666.071 118.049C665.683 117.318 665.489 116.416 665.489 115.342C665.489 114.248 665.683 113.339 666.071 112.614C666.459 111.883 666.986 111.333 667.653 110.965C668.326 110.596 669.086 110.411 669.933 110.411C670.768 110.411 671.519 110.596 672.185 110.965C672.851 111.333 673.375 111.883 673.757 112.614C674.145 113.339 674.34 114.248 674.34 115.342C674.34 116.416 674.145 117.318 673.757 118.049C673.375 118.78 672.851 119.33 672.185 119.699C671.519 120.068 670.768 120.252 669.933 120.252ZM669.875 118.641C670.412 118.641 670.875 118.512 671.263 118.253C671.658 117.994 671.959 117.619 672.166 117.127C672.379 116.629 672.486 116.034 672.486 115.342C672.486 114.281 672.269 113.459 671.836 112.877C671.409 112.294 670.791 112.003 669.982 112.003C669.438 112.003 668.969 112.136 668.575 112.401C668.187 112.66 667.886 113.038 667.672 113.536C667.465 114.028 667.362 114.63 667.362 115.342C667.362 116.383 667.578 117.195 668.012 117.778C668.445 118.353 669.066 118.641 669.875 118.641ZM683.243 120V114.526C683.243 113.718 683.049 113.106 682.66 112.692C682.279 112.272 681.761 112.061 681.108 112.061C680.59 112.061 680.137 112.204 679.749 112.488C679.367 112.767 679.069 113.177 678.856 113.721C678.649 114.258 678.545 114.915 678.545 115.691H677.885C677.885 114.546 678.031 113.582 678.322 112.799C678.62 112.016 679.044 111.424 679.594 111.023C680.144 110.615 680.803 110.411 681.573 110.411C682.324 110.411 682.958 110.58 683.476 110.916C684 111.253 684.398 111.731 684.669 112.352C684.941 112.967 685.077 113.692 685.077 114.526V120H683.243ZM676.701 120V110.664H678.303L678.545 112.682V120H676.701ZM695.751 120.252C694.988 120.252 694.276 120.049 693.616 119.641C692.956 119.233 692.426 118.661 692.025 117.923C691.623 117.186 691.423 116.319 691.423 115.322C691.423 114.274 691.623 113.388 692.025 112.663C692.426 111.932 692.956 111.375 693.616 110.994C694.276 110.606 694.988 110.411 695.751 110.411C696.314 110.411 696.816 110.502 697.256 110.683C697.696 110.858 698.074 111.097 698.391 111.401C698.708 111.699 698.964 112.035 699.158 112.411C699.358 112.786 699.497 113.174 699.575 113.575L697.702 113.672C697.566 113.187 697.327 112.799 696.984 112.508C696.647 112.21 696.23 112.061 695.732 112.061C695.311 112.061 694.913 112.181 694.538 112.42C694.169 112.653 693.869 113.012 693.636 113.498C693.409 113.976 693.296 114.585 693.296 115.322C693.296 116.008 693.403 116.594 693.616 117.079C693.83 117.564 694.121 117.936 694.49 118.195C694.858 118.454 695.273 118.583 695.732 118.583C696.392 118.583 696.884 118.425 697.207 118.108C697.537 117.784 697.702 117.341 697.702 116.778H699.575C699.575 117.431 699.423 118.02 699.119 118.544C698.815 119.068 698.375 119.486 697.799 119.796C697.23 120.1 696.547 120.252 695.751 120.252ZM701.991 120V110.635H703.835V120H701.991ZM703.331 115.827C703.331 114.63 703.454 113.637 703.699 112.847C703.952 112.052 704.301 111.46 704.748 111.071C705.2 110.683 705.731 110.489 706.339 110.489C706.52 110.489 706.689 110.502 706.844 110.528C707.006 110.554 707.164 110.589 707.319 110.635L707.251 112.469C707.077 112.424 706.886 112.385 706.679 112.352C706.478 112.314 706.294 112.294 706.126 112.294C705.595 112.294 705.162 112.437 704.825 112.721C704.489 112.999 704.24 113.404 704.078 113.934C703.916 114.458 703.835 115.089 703.835 115.827H703.331ZM712.114 120.252C711.312 120.252 710.587 120.045 709.94 119.631C709.293 119.217 708.779 118.641 708.397 117.904C708.022 117.166 707.834 116.312 707.834 115.342C707.834 114.313 708.022 113.433 708.397 112.702C708.772 111.964 709.283 111.398 709.93 111.003C710.577 110.609 711.305 110.411 712.114 110.411C712.839 110.411 713.46 110.56 713.977 110.858C714.495 111.149 714.912 111.544 715.229 112.042C715.546 112.534 715.763 113.093 715.88 113.721C716.003 114.348 716.025 114.995 715.948 115.662H709.309V114.594H714.686L714.239 114.885C714.259 114.536 714.239 114.187 714.181 113.837C714.13 113.488 714.026 113.168 713.871 112.877C713.715 112.579 713.495 112.343 713.211 112.168C712.933 111.987 712.577 111.896 712.143 111.896C711.6 111.896 711.144 112.032 710.775 112.304C710.412 112.576 710.138 112.941 709.95 113.401C709.762 113.853 709.668 114.352 709.668 114.895V115.642C709.668 116.244 709.759 116.778 709.94 117.244C710.121 117.71 710.39 118.078 710.746 118.35C711.108 118.615 711.564 118.748 712.114 118.748C712.651 118.748 713.094 118.622 713.444 118.37C713.8 118.117 714.02 117.739 714.104 117.234H715.986C715.889 117.842 715.666 118.373 715.317 118.826C714.967 119.279 714.518 119.631 713.968 119.884C713.424 120.129 712.806 120.252 712.114 120.252ZM724.236 120L724.003 117.855V113.963C724.003 113.2 723.844 112.647 723.527 112.304C723.21 111.955 722.709 111.78 722.023 111.78C721.635 111.78 721.289 111.838 720.985 111.955C720.687 112.065 720.451 112.233 720.276 112.459C720.108 112.686 720.024 112.97 720.024 113.313H717.986C717.986 112.627 718.154 112.071 718.49 111.644C718.827 111.217 719.296 110.906 719.898 110.712C720.506 110.512 721.214 110.411 722.023 110.411C722.78 110.411 723.446 110.538 724.022 110.79C724.598 111.036 725.045 111.424 725.362 111.955C725.685 112.485 725.847 113.171 725.847 114.012V120H724.236ZM721.111 120.252C720.328 120.252 719.678 120.116 719.16 119.845C718.642 119.567 718.254 119.204 717.995 118.758C717.743 118.311 717.617 117.836 717.617 117.331C717.617 116.716 717.772 116.212 718.083 115.817C718.4 115.416 718.837 115.118 719.393 114.924C719.949 114.73 720.59 114.633 721.315 114.633C721.813 114.633 722.298 114.678 722.77 114.769C723.243 114.86 723.708 114.979 724.168 115.128V116.244C723.793 116.108 723.375 116.002 722.916 115.924C722.463 115.84 722.039 115.798 721.645 115.798C721.056 115.798 720.564 115.914 720.169 116.147C719.775 116.38 719.577 116.775 719.577 117.331C719.577 117.739 719.733 118.091 720.043 118.389C720.354 118.68 720.846 118.826 721.518 118.826C722.01 118.826 722.444 118.716 722.819 118.496C723.194 118.269 723.485 117.988 723.692 117.651C723.899 117.315 724.003 116.979 724.003 116.642H724.449C724.449 117.289 724.317 117.888 724.051 118.437C723.793 118.981 723.414 119.421 722.916 119.757C722.418 120.087 721.816 120.252 721.111 120.252ZM731.872 120.252C731.342 120.252 730.863 120.152 730.436 119.951C730.009 119.751 729.669 119.45 729.417 119.049C729.171 118.641 729.048 118.13 729.048 117.516V108.121H730.882V117.457C730.882 118.337 731.293 118.777 732.115 118.777C732.367 118.777 732.613 118.751 732.852 118.7C733.092 118.641 733.364 118.557 733.668 118.447L733.93 119.757C733.587 119.9 733.247 120.016 732.911 120.107C732.581 120.204 732.235 120.252 731.872 120.252ZM727.621 111.916V110.664H733.648V111.916H727.621ZM739.186 120.252C738.383 120.252 737.659 120.045 737.012 119.631C736.365 119.217 735.85 118.641 735.469 117.904C735.093 117.166 734.906 116.312 734.906 115.342C734.906 114.313 735.093 113.433 735.469 112.702C735.844 111.964 736.355 111.398 737.002 111.003C737.649 110.609 738.377 110.411 739.186 110.411C739.91 110.411 740.531 110.56 741.049 110.858C741.567 111.149 741.984 111.544 742.301 112.042C742.618 112.534 742.835 113.093 742.951 113.721C743.074 114.348 743.097 114.995 743.019 115.662H736.381V114.594H741.758L741.311 114.885C741.331 114.536 741.311 114.187 741.253 113.837C741.201 113.488 741.098 113.168 740.942 112.877C740.787 112.579 740.567 112.343 740.282 112.168C740.004 111.987 739.648 111.896 739.215 111.896C738.671 111.896 738.215 112.032 737.846 112.304C737.484 112.576 737.209 112.941 737.022 113.401C736.834 113.853 736.74 114.352 736.74 114.895V115.642C736.74 116.244 736.831 116.778 737.012 117.244C737.193 117.71 737.461 118.078 737.817 118.35C738.18 118.615 738.636 118.748 739.186 118.748C739.723 118.748 740.166 118.622 740.515 118.37C740.871 118.117 741.091 117.739 741.175 117.234H743.058C742.961 117.842 742.738 118.373 742.388 118.826C742.039 119.279 741.589 119.631 741.039 119.884C740.496 120.129 739.878 120.252 739.186 120.252ZM755.561 120L755.328 117.855V113.963C755.328 113.2 755.17 112.647 754.852 112.304C754.535 111.955 754.034 111.78 753.348 111.78C752.96 111.78 752.614 111.838 752.31 111.955C752.012 112.065 751.776 112.233 751.601 112.459C751.433 112.686 751.349 112.97 751.349 113.313H749.311C749.311 112.627 749.479 112.071 749.816 111.644C750.152 111.217 750.621 110.906 751.223 110.712C751.831 110.512 752.539 110.411 753.348 110.411C754.105 110.411 754.772 110.538 755.347 110.79C755.923 111.036 756.37 111.424 756.687 111.955C757.01 112.485 757.172 113.171 757.172 114.012V120H755.561ZM752.436 120.252C751.653 120.252 751.003 120.116 750.485 119.845C749.968 119.567 749.579 119.204 749.321 118.758C749.068 118.311 748.942 117.836 748.942 117.331C748.942 116.716 749.097 116.212 749.408 115.817C749.725 115.416 750.162 115.118 750.718 114.924C751.275 114.73 751.915 114.633 752.64 114.633C753.138 114.633 753.623 114.678 754.095 114.769C754.568 114.86 755.034 114.979 755.493 115.128V116.244C755.118 116.108 754.7 116.002 754.241 115.924C753.788 115.84 753.364 115.798 752.97 115.798C752.381 115.798 751.889 115.914 751.495 116.147C751.1 116.38 750.903 116.775 750.903 117.331C750.903 117.739 751.058 118.091 751.368 118.389C751.679 118.68 752.171 118.826 752.844 118.826C753.335 118.826 753.769 118.716 754.144 118.496C754.519 118.269 754.81 117.988 755.017 117.651C755.225 117.315 755.328 116.979 755.328 116.642H755.774C755.774 117.289 755.642 117.888 755.377 118.437C755.118 118.981 754.739 119.421 754.241 119.757C753.743 120.087 753.141 120.252 752.436 120.252ZM770.741 110.635H772.595V120H770.741V110.635ZM764.219 110.635H766.063V116.419C766.063 117.124 766.235 117.658 766.578 118.02C766.927 118.382 767.415 118.564 768.043 118.564C768.573 118.564 769.039 118.425 769.44 118.146C769.848 117.868 770.165 117.473 770.392 116.962C770.624 116.451 770.741 115.846 770.741 115.148H771.333C771.333 116.241 771.184 117.16 770.887 117.904C770.589 118.648 770.172 119.214 769.635 119.602C769.098 119.984 768.47 120.175 767.752 120.175C767.066 120.175 766.455 120.049 765.918 119.796C765.387 119.544 764.97 119.156 764.666 118.632C764.368 118.101 764.219 117.418 764.219 116.584V110.635ZM782.431 120V114.526C782.431 113.718 782.237 113.106 781.848 112.692C781.467 112.272 780.949 112.061 780.296 112.061C779.778 112.061 779.325 112.204 778.937 112.488C778.555 112.767 778.258 113.177 778.044 113.721C777.837 114.258 777.734 114.915 777.734 115.691H777.074C777.074 114.546 777.219 113.582 777.51 112.799C777.808 112.016 778.232 111.424 778.782 111.023C779.332 110.615 779.992 110.411 780.762 110.411C781.512 110.411 782.146 110.58 782.664 110.916C783.188 111.253 783.586 111.731 783.857 112.352C784.129 112.967 784.265 113.692 784.265 114.526V120H782.431ZM775.89 120V110.664H777.491L777.734 112.682V120H775.89ZM788.357 108.674C787.988 108.674 787.697 108.574 787.483 108.373C787.276 108.166 787.173 107.888 787.173 107.539C787.173 107.202 787.276 106.937 787.483 106.743C787.697 106.542 787.988 106.442 788.357 106.442C788.719 106.442 789.004 106.542 789.211 106.743C789.424 106.937 789.531 107.202 789.531 107.539C789.531 107.888 789.424 108.166 789.211 108.373C789.004 108.574 788.719 108.674 788.357 108.674ZM787.435 120V110.635H789.279V120H787.435ZM796.18 120.252C795.429 120.252 794.727 120.058 794.074 119.67C793.427 119.275 792.903 118.709 792.502 117.972C792.101 117.234 791.9 116.351 791.9 115.322C791.9 114.293 792.097 113.414 792.492 112.682C792.887 111.951 793.404 111.392 794.045 111.003C794.685 110.609 795.368 110.411 796.093 110.411C796.72 110.411 797.289 110.567 797.801 110.877C798.312 111.181 798.719 111.644 799.023 112.265C799.328 112.886 799.48 113.666 799.48 114.604H798.742C798.742 114.061 798.632 113.601 798.412 113.226C798.192 112.844 797.904 112.556 797.548 112.362C797.192 112.162 796.804 112.061 796.384 112.061C795.898 112.061 795.458 112.191 795.064 112.45C794.669 112.708 794.355 113.08 794.122 113.566C793.889 114.051 793.773 114.636 793.773 115.322C793.773 116.04 793.899 116.642 794.152 117.127C794.41 117.613 794.74 117.978 795.141 118.224C795.549 118.463 795.973 118.583 796.413 118.583C796.807 118.583 797.183 118.492 797.539 118.311C797.894 118.13 798.182 117.862 798.402 117.506C798.629 117.15 798.742 116.716 798.742 116.205H799.188C799.188 117.008 799.078 117.713 798.858 118.321C798.645 118.923 798.315 119.395 797.869 119.738C797.422 120.081 796.859 120.252 796.18 120.252ZM801.372 124.814C800.414 124.561 799.735 124.167 799.334 123.63C798.939 123.099 798.742 122.352 798.742 121.388V112.906L799.353 110.664H800.576V121.524C800.576 121.938 800.615 122.261 800.693 122.494C800.777 122.734 800.919 122.921 801.12 123.057C801.32 123.193 801.595 123.319 801.945 123.436L801.372 124.814ZM810.198 110.635H812.052V120H810.198V110.635ZM803.676 110.635H805.52V116.419C805.52 117.124 805.692 117.658 806.034 118.02C806.384 118.382 806.872 118.564 807.5 118.564C808.03 118.564 808.496 118.425 808.897 118.146C809.305 117.868 809.622 117.473 809.848 116.962C810.081 116.451 810.198 115.846 810.198 115.148H810.79C810.79 116.241 810.641 117.16 810.343 117.904C810.046 118.648 809.628 119.214 809.091 119.602C808.554 119.984 807.927 120.175 807.209 120.175C806.523 120.175 805.911 120.049 805.374 119.796C804.844 119.544 804.427 119.156 804.123 118.632C803.825 118.101 803.676 117.418 803.676 116.584V110.635ZM818.695 120.252C817.892 120.252 817.168 120.045 816.521 119.631C815.874 119.217 815.359 118.641 814.978 117.904C814.602 117.166 814.415 116.312 814.415 115.342C814.415 114.313 814.602 113.433 814.978 112.702C815.353 111.964 815.864 111.398 816.511 111.003C817.158 110.609 817.886 110.411 818.695 110.411C819.419 110.411 820.041 110.56 820.558 110.858C821.076 111.149 821.493 111.544 821.81 112.042C822.127 112.534 822.344 113.093 822.46 113.721C822.583 114.348 822.606 114.995 822.528 115.662H815.89V114.594H821.267L820.82 114.885C820.84 114.536 820.82 114.187 820.762 113.837C820.71 113.488 820.607 113.168 820.451 112.877C820.296 112.579 820.076 112.343 819.791 112.168C819.513 111.987 819.157 111.896 818.724 111.896C818.18 111.896 817.724 112.032 817.355 112.304C816.993 112.576 816.718 112.941 816.531 113.401C816.343 113.853 816.249 114.352 816.249 114.895V115.642C816.249 116.244 816.34 116.778 816.521 117.244C816.702 117.71 816.97 118.078 817.326 118.35C817.689 118.615 818.145 118.748 818.695 118.748C819.232 118.748 819.675 118.622 820.024 118.37C820.38 118.117 820.6 117.739 820.684 117.234H822.567C822.47 117.842 822.247 118.373 821.897 118.826C821.548 119.279 821.098 119.631 820.548 119.884C820.005 120.129 819.387 120.252 818.695 120.252ZM824.984 122.339L823.606 121.65C824 121.449 824.34 121.226 824.625 120.98C824.909 120.734 825.097 120.44 825.188 120.097C824.877 120.052 824.612 119.932 824.392 119.738C824.172 119.544 824.062 119.288 824.062 118.971C824.062 118.648 824.181 118.376 824.421 118.156C824.667 117.93 824.977 117.816 825.353 117.816C825.825 117.816 826.2 117.985 826.478 118.321C826.763 118.657 826.905 119.059 826.905 119.524C826.905 120.061 826.737 120.586 826.401 121.097C826.071 121.614 825.598 122.028 824.984 122.339ZM837.575 120.252C836.895 120.252 836.306 120.1 835.808 119.796C835.31 119.486 834.928 119.033 834.663 118.437C834.404 117.836 834.275 117.092 834.275 116.205H834.993C834.993 116.716 835.103 117.15 835.323 117.506C835.543 117.855 835.831 118.124 836.187 118.311C836.549 118.492 836.934 118.583 837.342 118.583C837.769 118.583 838.183 118.463 838.584 118.224C838.991 117.978 839.325 117.613 839.583 117.127C839.842 116.642 839.972 116.04 839.972 115.322C839.972 114.636 839.855 114.051 839.622 113.566C839.396 113.08 839.085 112.708 838.691 112.45C838.296 112.191 837.853 112.061 837.361 112.061C836.947 112.061 836.559 112.162 836.196 112.362C835.834 112.556 835.543 112.844 835.323 113.226C835.103 113.601 834.993 114.061 834.993 114.604H834.275C834.275 113.666 834.424 112.886 834.721 112.265C835.025 111.644 835.433 111.181 835.944 110.877C836.455 110.567 837.021 110.411 837.642 110.411C838.374 110.411 839.059 110.609 839.7 111.003C840.34 111.392 840.858 111.951 841.253 112.682C841.654 113.414 841.854 114.293 841.854 115.322C841.854 116.351 841.654 117.234 841.253 117.972C840.852 118.709 840.324 119.275 839.671 119.67C839.024 120.058 838.325 120.252 837.575 120.252ZM833.149 124.581V110.664H834.673L834.993 112.906V124.581H833.149ZM847.575 120.252C846.772 120.252 846.048 120.045 845.401 119.631C844.754 119.217 844.239 118.641 843.858 117.904C843.482 117.166 843.295 116.312 843.295 115.342C843.295 114.313 843.482 113.433 843.858 112.702C844.233 111.964 844.744 111.398 845.391 111.003C846.038 110.609 846.766 110.411 847.575 110.411C848.299 110.411 848.92 110.56 849.438 110.858C849.956 111.149 850.373 111.544 850.69 112.042C851.007 112.534 851.224 113.093 851.34 113.721C851.463 114.348 851.486 114.995 851.408 115.662H844.77V114.594H850.147L849.7 114.885C849.719 114.536 849.7 114.187 849.642 113.837C849.59 113.488 849.487 113.168 849.331 112.877C849.176 112.579 848.956 112.343 848.671 112.168C848.393 111.987 848.037 111.896 847.604 111.896C847.06 111.896 846.604 112.032 846.235 112.304C845.873 112.576 845.598 112.941 845.41 113.401C845.223 113.853 845.129 114.352 845.129 114.895V115.642C845.129 116.244 845.22 116.778 845.401 117.244C845.582 117.71 845.85 118.078 846.206 118.35C846.569 118.615 847.025 118.748 847.575 118.748C848.112 118.748 848.555 118.622 848.904 118.37C849.26 118.117 849.48 117.739 849.564 117.234H851.447C851.35 117.842 851.127 118.373 850.777 118.826C850.428 119.279 849.978 119.631 849.428 119.884C848.885 120.129 848.267 120.252 847.575 120.252ZM853.844 120V110.635H855.688V120H853.844ZM855.184 115.827C855.184 114.63 855.306 113.637 855.552 112.847C855.805 112.052 856.154 111.46 856.6 111.071C857.053 110.683 857.584 110.489 858.192 110.489C858.373 110.489 858.541 110.502 858.697 110.528C858.859 110.554 859.017 110.589 859.172 110.635L859.104 112.469C858.93 112.424 858.739 112.385 858.532 112.352C858.331 112.314 858.147 112.294 857.979 112.294C857.448 112.294 857.015 112.437 856.678 112.721C856.342 112.999 856.093 113.404 855.931 113.934C855.769 114.458 855.688 115.089 855.688 115.827H855.184ZM864.035 120.252C863.129 120.252 862.366 120.126 861.745 119.874C861.123 119.615 860.648 119.259 860.318 118.806C859.994 118.347 859.826 117.81 859.813 117.195H861.55C861.576 117.732 861.79 118.13 862.191 118.389C862.599 118.648 863.149 118.777 863.841 118.777C864.21 118.777 864.543 118.719 864.84 118.602C865.145 118.486 865.384 118.328 865.559 118.127C865.74 117.926 865.83 117.7 865.83 117.448C865.83 117.131 865.714 116.881 865.481 116.7C865.248 116.513 864.873 116.348 864.355 116.205L862.443 115.555C861.68 115.296 861.094 114.953 860.687 114.526C860.279 114.093 860.075 113.575 860.075 112.974C860.075 112.204 860.418 111.586 861.104 111.12C861.79 110.648 862.699 110.411 863.831 110.411C865.002 110.411 865.905 110.661 866.539 111.159C867.179 111.65 867.513 112.268 867.538 113.012H865.762C865.717 112.644 865.533 112.362 865.209 112.168C864.892 111.967 864.433 111.867 863.831 111.867C863.268 111.867 862.825 111.99 862.502 112.236C862.185 112.482 862.026 112.76 862.026 113.071C862.026 113.627 862.505 114.041 863.462 114.313L865.471 115.021C866.235 115.267 866.824 115.584 867.238 115.972C867.652 116.361 867.859 116.852 867.859 117.448C867.859 117.926 867.7 118.379 867.383 118.806C867.066 119.233 866.62 119.583 866.044 119.854C865.475 120.12 864.805 120.252 864.035 120.252ZM873.864 120.252C873.016 120.252 872.256 120.068 871.583 119.699C870.916 119.33 870.389 118.78 870.001 118.049C869.613 117.318 869.419 116.416 869.419 115.342C869.419 114.248 869.613 113.339 870.001 112.614C870.389 111.883 870.916 111.333 871.583 110.965C872.256 110.596 873.016 110.411 873.864 110.411C874.698 110.411 875.449 110.596 876.115 110.965C876.782 111.333 877.306 111.883 877.687 112.614C878.076 113.339 878.27 114.248 878.27 115.342C878.27 116.416 878.076 117.318 877.687 118.049C877.306 118.78 876.782 119.33 876.115 119.699C875.449 120.068 874.698 120.252 873.864 120.252ZM873.805 118.641C874.342 118.641 874.805 118.512 875.193 118.253C875.588 117.994 875.889 117.619 876.096 117.127C876.309 116.629 876.416 116.034 876.416 115.342C876.416 114.281 876.199 113.459 875.766 112.877C875.339 112.294 874.721 112.003 873.912 112.003C873.369 112.003 872.9 112.136 872.505 112.401C872.117 112.66 871.816 113.038 871.602 113.536C871.395 114.028 871.292 114.63 871.292 115.342C871.292 116.383 871.508 117.195 871.942 117.778C872.375 118.353 872.997 118.641 873.805 118.641ZM887.173 120V114.526C887.173 113.718 886.979 113.106 886.59 112.692C886.209 112.272 885.691 112.061 885.038 112.061C884.52 112.061 884.067 112.204 883.679 112.488C883.297 112.767 883 113.177 882.786 113.721C882.579 114.258 882.475 114.915 882.475 115.691H881.816C881.816 114.546 881.961 113.582 882.252 112.799C882.55 112.016 882.974 111.424 883.524 111.023C884.074 110.615 884.734 110.411 885.503 110.411C886.254 110.411 886.888 110.58 887.406 110.916C887.93 111.253 888.328 111.731 888.599 112.352C888.871 112.967 889.007 113.692 889.007 114.526V120H887.173ZM880.632 120V110.664H882.233L882.475 112.682V120H880.632ZM897.883 120L897.65 117.855V113.963C897.65 113.2 897.492 112.647 897.175 112.304C896.858 111.955 896.356 111.78 895.671 111.78C895.282 111.78 894.936 111.838 894.632 111.955C894.334 112.065 894.098 112.233 893.924 112.459C893.755 112.686 893.671 112.97 893.671 113.313H891.633C891.633 112.627 891.801 112.071 892.138 111.644C892.474 111.217 892.943 110.906 893.545 110.712C894.153 110.512 894.862 110.411 895.671 110.411C896.428 110.411 897.094 110.538 897.67 110.79C898.246 111.036 898.692 111.424 899.009 111.955C899.333 112.485 899.494 113.171 899.494 114.012V120H897.883ZM894.758 120.252C893.975 120.252 893.325 120.116 892.808 119.845C892.29 119.567 891.902 119.204 891.643 118.758C891.391 118.311 891.264 117.836 891.264 117.331C891.264 116.716 891.42 116.212 891.73 115.817C892.047 115.416 892.484 115.118 893.04 114.924C893.597 114.73 894.237 114.633 894.962 114.633C895.46 114.633 895.945 114.678 896.418 114.769C896.89 114.86 897.356 114.979 897.815 115.128V116.244C897.44 116.108 897.023 116.002 896.563 115.924C896.11 115.84 895.687 115.798 895.292 115.798C894.703 115.798 894.212 115.914 893.817 116.147C893.422 116.38 893.225 116.775 893.225 117.331C893.225 117.739 893.38 118.091 893.691 118.389C894.001 118.68 894.493 118.826 895.166 118.826C895.658 118.826 896.091 118.716 896.466 118.496C896.842 118.269 897.133 117.988 897.34 117.651C897.547 117.315 897.65 116.979 897.65 116.642H898.097C898.097 117.289 897.964 117.888 897.699 118.437C897.44 118.981 897.062 119.421 896.563 119.757C896.065 120.087 895.463 120.252 894.758 120.252ZM902.521 120V106.733H904.365V120H902.521ZM915.335 120.252C914.429 120.252 913.666 120.126 913.045 119.874C912.424 119.615 911.948 119.259 911.618 118.806C911.294 118.347 911.126 117.81 911.113 117.195H912.851C912.876 117.732 913.09 118.13 913.491 118.389C913.899 118.648 914.449 118.777 915.141 118.777C915.51 118.777 915.843 118.719 916.141 118.602C916.445 118.486 916.684 118.328 916.859 118.127C917.04 117.926 917.13 117.7 917.13 117.448C917.13 117.131 917.014 116.881 916.781 116.7C916.548 116.513 916.173 116.348 915.655 116.205L913.743 115.555C912.98 115.296 912.394 114.953 911.987 114.526C911.579 114.093 911.375 113.575 911.375 112.974C911.375 112.204 911.718 111.586 912.404 111.12C913.09 110.648 913.999 110.411 915.131 110.411C916.302 110.411 917.205 110.661 917.839 111.159C918.479 111.65 918.813 112.268 918.839 113.012H917.062C917.017 112.644 916.833 112.362 916.509 112.168C916.192 111.967 915.733 111.867 915.131 111.867C914.568 111.867 914.125 111.99 913.802 112.236C913.485 112.482 913.326 112.76 913.326 113.071C913.326 113.627 913.805 114.041 914.762 114.313L916.771 115.021C917.535 115.267 918.124 115.584 918.538 115.972C918.952 116.361 919.159 116.852 919.159 117.448C919.159 117.926 919 118.379 918.683 118.806C918.366 119.233 917.92 119.583 917.344 119.854C916.775 120.12 916.105 120.252 915.335 120.252ZM928.192 120V114.526C928.192 113.718 927.997 113.106 927.609 112.692C927.227 112.272 926.71 112.061 926.056 112.061C925.539 112.061 925.086 112.204 924.698 112.488C924.316 112.767 924.018 113.177 923.805 113.721C923.598 114.258 923.494 114.915 923.494 115.691H922.834C922.834 114.546 922.98 113.582 923.271 112.799C923.569 112.016 923.992 111.424 924.542 111.023C925.092 110.615 925.752 110.411 926.522 110.411C927.273 110.411 927.907 110.58 928.424 110.916C928.949 111.253 929.346 111.731 929.618 112.352C929.89 112.967 930.026 113.692 930.026 114.526V120H928.192ZM921.65 120V106.733H923.494V120H921.65ZM936.563 120.252C935.716 120.252 934.955 120.068 934.282 119.699C933.616 119.33 933.089 118.78 932.701 118.049C932.312 117.318 932.118 116.416 932.118 115.342C932.118 114.248 932.312 113.339 932.701 112.614C933.089 111.883 933.616 111.333 934.282 110.965C934.955 110.596 935.716 110.411 936.563 110.411C937.398 110.411 938.148 110.596 938.815 110.965C939.481 111.333 940.005 111.883 940.387 112.614C940.775 113.339 940.969 114.248 940.969 115.342C940.969 116.416 940.775 117.318 940.387 118.049C940.005 118.78 939.481 119.33 938.815 119.699C938.148 120.068 937.398 120.252 936.563 120.252ZM936.505 118.641C937.042 118.641 937.505 118.512 937.893 118.253C938.287 117.994 938.588 117.619 938.795 117.127C939.009 116.629 939.116 116.034 939.116 115.342C939.116 114.281 938.899 113.459 938.465 112.877C938.038 112.294 937.42 112.003 936.612 112.003C936.068 112.003 935.599 112.136 935.204 112.401C934.816 112.66 934.515 113.038 934.302 113.536C934.095 114.028 933.991 114.63 933.991 115.342C933.991 116.383 934.208 117.195 934.642 117.778C935.075 118.353 935.696 118.641 936.505 118.641ZM947.757 120.252C947.077 120.252 946.489 120.1 945.99 119.796C945.492 119.486 945.11 119.033 944.845 118.437C944.586 117.836 944.457 117.092 944.457 116.205H945.175C945.175 116.716 945.285 117.15 945.505 117.506C945.725 117.855 946.013 118.124 946.369 118.311C946.731 118.492 947.116 118.583 947.524 118.583C947.951 118.583 948.365 118.463 948.766 118.224C949.174 117.978 949.507 117.613 949.766 117.127C950.024 116.642 950.154 116.04 950.154 115.322C950.154 114.636 950.037 114.051 949.804 113.566C949.578 113.08 949.267 112.708 948.873 112.45C948.478 112.191 948.035 112.061 947.543 112.061C947.129 112.061 946.741 112.162 946.379 112.362C946.016 112.556 945.725 112.844 945.505 113.226C945.285 113.601 945.175 114.061 945.175 114.604H944.457C944.457 113.666 944.606 112.886 944.903 112.265C945.207 111.644 945.615 111.181 946.126 110.877C946.637 110.567 947.203 110.411 947.825 110.411C948.556 110.411 949.242 110.609 949.882 111.003C950.523 111.392 951.04 111.951 951.435 112.682C951.836 113.414 952.037 114.293 952.037 115.322C952.037 116.351 951.836 117.234 951.435 117.972C951.034 118.709 950.506 119.275 949.853 119.67C949.206 120.058 948.507 120.252 947.757 120.252ZM943.331 124.581V110.664H944.855L945.175 112.906V124.581H943.331ZM958.834 120.252C958.155 120.252 957.566 120.1 957.068 119.796C956.57 119.486 956.188 119.033 955.923 118.437C955.664 117.836 955.534 117.092 955.534 116.205H956.252C956.252 116.716 956.362 117.15 956.582 117.506C956.802 117.855 957.09 118.124 957.446 118.311C957.809 118.492 958.193 118.583 958.601 118.583C959.028 118.583 959.442 118.463 959.843 118.224C960.251 117.978 960.584 117.613 960.843 117.127C961.102 116.642 961.231 116.04 961.231 115.322C961.231 114.636 961.115 114.051 960.882 113.566C960.655 113.08 960.345 112.708 959.95 112.45C959.555 112.191 959.112 112.061 958.62 112.061C958.206 112.061 957.818 112.162 957.456 112.362C957.094 112.556 956.802 112.844 956.582 113.226C956.362 113.601 956.252 114.061 956.252 114.604H955.534C955.534 113.666 955.683 112.886 955.981 112.265C956.285 111.644 956.692 111.181 957.204 110.877C957.715 110.567 958.281 110.411 958.902 110.411C959.633 110.411 960.319 110.609 960.959 111.003C961.6 111.392 962.118 111.951 962.512 112.682C962.913 113.414 963.114 114.293 963.114 115.322C963.114 116.351 962.913 117.234 962.512 117.972C962.111 118.709 961.584 119.275 960.93 119.67C960.283 120.058 959.585 120.252 958.834 120.252ZM954.409 124.581V110.664H955.932L956.252 112.906V124.581H954.409ZM966.553 108.674C966.185 108.674 965.893 108.574 965.68 108.373C965.473 108.166 965.369 107.888 965.369 107.539C965.369 107.202 965.473 106.937 965.68 106.743C965.893 106.542 966.185 106.442 966.553 106.442C966.916 106.442 967.2 106.542 967.407 106.743C967.621 106.937 967.728 107.202 967.728 107.539C967.728 107.888 967.621 108.166 967.407 108.373C967.2 108.574 966.916 108.674 966.553 108.674ZM965.631 120V110.635H967.475V120H965.631ZM977.57 120V114.526C977.57 113.718 977.375 113.106 976.987 112.692C976.605 112.272 976.088 112.061 975.434 112.061C974.917 112.061 974.464 112.204 974.076 112.488C973.694 112.767 973.396 113.177 973.183 113.721C972.976 114.258 972.872 114.915 972.872 115.691H972.212C972.212 114.546 972.358 113.582 972.649 112.799C972.947 112.016 973.37 111.424 973.92 111.023C974.47 110.615 975.13 110.411 975.9 110.411C976.651 110.411 977.285 110.58 977.802 110.916C978.326 111.253 978.724 111.731 978.996 112.352C979.268 112.967 979.404 113.692 979.404 114.526V120H977.57ZM971.028 120V110.664H972.63L972.872 112.682V120H971.028ZM985.864 124.814C984.854 124.814 983.984 124.675 983.253 124.396C982.528 124.118 981.969 123.746 981.574 123.28C981.179 122.814 980.982 122.307 980.982 121.757C980.982 121.058 981.237 120.521 981.749 120.146C982.26 119.777 982.91 119.592 983.699 119.592L984.893 120.155C984.22 120.155 983.699 120.291 983.331 120.563C982.968 120.835 982.787 121.203 982.787 121.669C982.787 122.155 983.052 122.552 983.583 122.863C984.113 123.18 984.874 123.339 985.864 123.339C986.582 123.339 987.213 123.232 987.756 123.018C988.299 122.811 988.72 122.536 989.018 122.193C989.315 121.857 989.464 121.495 989.464 121.106C989.464 120.841 989.367 120.615 989.173 120.427C988.985 120.246 988.697 120.155 988.309 120.155H984.893C984.259 120.155 983.699 120.058 983.214 119.864C982.735 119.664 982.36 119.402 982.088 119.078C981.817 118.755 981.681 118.395 981.681 118.001C981.681 117.613 981.791 117.279 982.011 117.001C982.231 116.716 982.522 116.503 982.884 116.361C983.246 116.212 983.644 116.137 984.078 116.137L984.495 116.778C984.307 116.778 984.12 116.82 983.932 116.904C983.745 116.982 983.589 117.101 983.466 117.263C983.343 117.425 983.282 117.626 983.282 117.865C983.282 118.143 983.398 118.376 983.631 118.564C983.871 118.745 984.291 118.835 984.893 118.835H988.309C989.241 118.835 989.972 119.02 990.502 119.389C991.033 119.757 991.298 120.294 991.298 121C991.298 121.64 991.078 122.252 990.638 122.834C990.198 123.416 989.571 123.892 988.756 124.26C987.947 124.629 986.983 124.814 985.864 124.814ZM986.067 117.195C985.343 117.195 984.683 117.056 984.087 116.778C983.499 116.493 983.03 116.099 982.68 115.594C982.331 115.083 982.156 114.488 982.156 113.808C982.156 113.122 982.331 112.527 982.68 112.022C983.03 111.511 983.499 111.117 984.087 110.838C984.683 110.554 985.343 110.411 986.067 110.411C986.773 110.411 987.416 110.554 987.999 110.838C988.587 111.117 989.056 111.511 989.406 112.022C989.762 112.527 989.94 113.122 989.94 113.808C989.94 114.488 989.762 115.083 989.406 115.594C989.056 116.099 988.587 116.493 987.999 116.778C987.416 117.056 986.773 117.195 986.067 117.195ZM986.067 115.895C986.734 115.895 987.242 115.697 987.591 115.303C987.947 114.902 988.125 114.403 988.125 113.808C988.125 113.187 987.947 112.686 987.591 112.304C987.242 111.922 986.734 111.731 986.067 111.731C985.414 111.731 984.903 111.922 984.534 112.304C984.172 112.686 983.99 113.187 983.99 113.808C983.99 114.403 984.172 114.902 984.534 115.303C984.903 115.697 985.414 115.895 986.067 115.895ZM989.241 111.906L988.377 111.489C988.377 110.932 988.494 110.447 988.726 110.033C988.959 109.619 989.283 109.295 989.697 109.062C990.111 108.83 990.587 108.713 991.124 108.713L991.007 110.509C990.431 110.509 989.991 110.622 989.687 110.848C989.39 111.075 989.241 111.427 989.241 111.906ZM517.711 152.252C516.909 152.252 516.184 152.045 515.537 151.631C514.89 151.217 514.376 150.641 513.994 149.904C513.619 149.166 513.431 148.312 513.431 147.342C513.431 146.313 513.619 145.433 513.994 144.702C514.369 143.964 514.88 143.398 515.527 143.003C516.174 142.609 516.902 142.411 517.711 142.411C518.435 142.411 519.057 142.56 519.574 142.858C520.092 143.149 520.509 143.544 520.826 144.042C521.143 144.534 521.36 145.093 521.476 145.721C521.599 146.348 521.622 146.995 521.544 147.662H514.906V146.594H520.283L519.836 146.885C519.856 146.536 519.836 146.187 519.778 145.837C519.726 145.488 519.623 145.168 519.467 144.877C519.312 144.579 519.092 144.343 518.807 144.168C518.529 143.987 518.173 143.896 517.74 143.896C517.196 143.896 516.74 144.032 516.372 144.304C516.009 144.576 515.734 144.941 515.547 145.401C515.359 145.853 515.265 146.352 515.265 146.895V147.642C515.265 148.244 515.356 148.778 515.537 149.244C515.718 149.71 515.987 150.078 516.342 150.35C516.705 150.615 517.161 150.748 517.711 150.748C518.248 150.748 518.691 150.622 519.04 150.37C519.396 150.117 519.616 149.739 519.7 149.234H521.583C521.486 149.842 521.263 150.373 520.913 150.826C520.564 151.279 520.114 151.631 519.564 151.884C519.021 152.129 518.403 152.252 517.711 152.252ZM522.505 152L526.086 147.342L522.505 142.635H524.767L527.28 145.944L529.677 142.635H531.929L528.348 147.342L531.919 152H529.668L527.144 148.681L524.767 152H522.505ZM538.194 152.252C537.515 152.252 536.926 152.1 536.428 151.796C535.93 151.486 535.548 151.033 535.283 150.437C535.024 149.836 534.895 149.092 534.895 148.205H535.613C535.613 148.716 535.723 149.15 535.943 149.506C536.163 149.855 536.451 150.124 536.806 150.311C537.169 150.492 537.554 150.583 537.961 150.583C538.388 150.583 538.802 150.463 539.204 150.224C539.611 149.978 539.944 149.613 540.203 149.127C540.462 148.642 540.591 148.04 540.591 147.322C540.591 146.636 540.475 146.051 540.242 145.566C540.016 145.08 539.705 144.708 539.31 144.45C538.916 144.191 538.472 144.061 537.981 144.061C537.567 144.061 537.178 144.162 536.816 144.362C536.454 144.556 536.163 144.844 535.943 145.226C535.723 145.601 535.613 146.061 535.613 146.604H534.895C534.895 145.666 535.043 144.886 535.341 144.265C535.645 143.644 536.053 143.181 536.564 142.877C537.075 142.567 537.641 142.411 538.262 142.411C538.993 142.411 539.679 142.609 540.32 143.003C540.96 143.392 541.478 143.951 541.872 144.682C542.274 145.414 542.474 146.293 542.474 147.322C542.474 148.351 542.274 149.234 541.872 149.972C541.471 150.709 540.944 151.275 540.291 151.67C539.644 152.058 538.945 152.252 538.194 152.252ZM533.769 156.581V142.664H535.292L535.613 144.906V156.581H533.769ZM548.194 152.252C547.392 152.252 546.667 152.045 546.02 151.631C545.373 151.217 544.859 150.641 544.477 149.904C544.102 149.166 543.914 148.312 543.914 147.342C543.914 146.313 544.102 145.433 544.477 144.702C544.853 143.964 545.364 143.398 546.011 143.003C546.658 142.609 547.386 142.411 548.194 142.411C548.919 142.411 549.54 142.56 550.058 142.858C550.575 143.149 550.993 143.544 551.31 144.042C551.627 144.534 551.843 145.093 551.96 145.721C552.083 146.348 552.105 146.995 552.028 147.662H545.39V146.594H550.766L550.32 146.885C550.339 146.536 550.32 146.187 550.262 145.837C550.21 145.488 550.106 145.168 549.951 144.877C549.796 144.579 549.576 144.343 549.291 144.168C549.013 143.987 548.657 143.896 548.223 143.896C547.68 143.896 547.224 144.032 546.855 144.304C546.493 144.576 546.218 144.941 546.03 145.401C545.843 145.853 545.749 146.352 545.749 146.895V147.642C545.749 148.244 545.839 148.778 546.02 149.244C546.202 149.71 546.47 150.078 546.826 150.35C547.188 150.615 547.644 150.748 548.194 150.748C548.731 150.748 549.175 150.622 549.524 150.37C549.88 150.117 550.1 149.739 550.184 149.234H552.067C551.97 149.842 551.746 150.373 551.397 150.826C551.048 151.279 550.598 151.631 550.048 151.884C549.505 152.129 548.887 152.252 548.194 152.252ZM554.464 152V142.635H556.308V152H554.464ZM555.803 147.827C555.803 146.63 555.926 145.637 556.172 144.847C556.424 144.052 556.774 143.46 557.22 143.071C557.673 142.683 558.204 142.489 558.812 142.489C558.993 142.489 559.161 142.502 559.316 142.528C559.478 142.554 559.637 142.589 559.792 142.635L559.724 144.469C559.549 144.424 559.359 144.385 559.151 144.352C558.951 144.314 558.767 144.294 558.598 144.294C558.068 144.294 557.634 144.437 557.298 144.721C556.961 144.999 556.712 145.404 556.551 145.934C556.389 146.458 556.308 147.089 556.308 147.827H555.803ZM562.306 140.674C561.937 140.674 561.646 140.574 561.433 140.373C561.226 140.166 561.122 139.888 561.122 139.539C561.122 139.202 561.226 138.937 561.433 138.743C561.646 138.542 561.937 138.442 562.306 138.442C562.668 138.442 562.953 138.542 563.16 138.743C563.374 138.937 563.48 139.202 563.48 139.539C563.48 139.888 563.374 140.166 563.16 140.373C562.953 140.574 562.668 140.674 562.306 140.674ZM561.384 152V142.635H563.228V152H561.384ZM570.129 152.252C569.327 152.252 568.602 152.045 567.955 151.631C567.308 151.217 566.794 150.641 566.412 149.904C566.037 149.166 565.849 148.312 565.849 147.342C565.849 146.313 566.037 145.433 566.412 144.702C566.787 143.964 567.299 143.398 567.946 143.003C568.593 142.609 569.32 142.411 570.129 142.411C570.854 142.411 571.475 142.56 571.993 142.858C572.51 143.149 572.927 143.544 573.245 144.042C573.562 144.534 573.778 145.093 573.895 145.721C574.018 146.348 574.04 146.995 573.963 147.662H567.324V146.594H572.701L572.255 146.885C572.274 146.536 572.255 146.187 572.196 145.837C572.145 145.488 572.041 145.168 571.886 144.877C571.731 144.579 571.511 144.343 571.226 144.168C570.948 143.987 570.592 143.896 570.158 143.896C569.615 143.896 569.159 144.032 568.79 144.304C568.428 144.576 568.153 144.941 567.965 145.401C567.777 145.853 567.684 146.352 567.684 146.895V147.642C567.684 148.244 567.774 148.778 567.955 149.244C568.136 149.71 568.405 150.078 568.761 150.35C569.123 150.615 569.579 150.748 570.129 150.748C570.666 150.748 571.109 150.622 571.459 150.37C571.815 150.117 572.035 149.739 572.119 149.234H574.001C573.904 149.842 573.681 150.373 573.332 150.826C572.982 151.279 572.533 151.631 571.983 151.884C571.439 152.129 570.821 152.252 570.129 152.252ZM582.94 152V146.526C582.94 145.718 582.746 145.106 582.358 144.692C581.976 144.272 581.458 144.061 580.805 144.061C580.287 144.061 579.834 144.204 579.446 144.488C579.064 144.767 578.767 145.177 578.553 145.721C578.346 146.258 578.243 146.915 578.243 147.691H577.583C577.583 146.546 577.728 145.582 578.02 144.799C578.317 144.016 578.741 143.424 579.291 143.023C579.841 142.615 580.501 142.411 581.271 142.411C582.021 142.411 582.655 142.58 583.173 142.916C583.697 143.253 584.095 143.731 584.367 144.352C584.638 144.967 584.774 145.692 584.774 146.526V152H582.94ZM576.399 152V142.664H578L578.243 144.682V152H576.399ZM591.195 152.252C590.432 152.252 589.72 152.049 589.06 151.641C588.4 151.233 587.87 150.661 587.468 149.923C587.067 149.186 586.867 148.319 586.867 147.322C586.867 146.274 587.067 145.388 587.468 144.663C587.87 143.932 588.4 143.375 589.06 142.994C589.72 142.606 590.432 142.411 591.195 142.411C591.758 142.411 592.259 142.502 592.699 142.683C593.139 142.858 593.518 143.097 593.835 143.401C594.152 143.699 594.407 144.035 594.602 144.411C594.802 144.786 594.941 145.174 595.019 145.575L593.146 145.672C593.01 145.187 592.771 144.799 592.428 144.508C592.091 144.21 591.674 144.061 591.176 144.061C590.755 144.061 590.357 144.181 589.982 144.42C589.613 144.653 589.312 145.012 589.079 145.498C588.853 145.976 588.74 146.585 588.74 147.322C588.74 148.008 588.846 148.594 589.06 149.079C589.274 149.564 589.565 149.936 589.933 150.195C590.302 150.454 590.716 150.583 591.176 150.583C591.836 150.583 592.327 150.425 592.651 150.108C592.981 149.784 593.146 149.341 593.146 148.778H595.019C595.019 149.431 594.867 150.02 594.563 150.544C594.259 151.068 593.819 151.486 593.243 151.796C592.674 152.1 591.991 152.252 591.195 152.252ZM600.783 152.252C599.981 152.252 599.256 152.045 598.609 151.631C597.962 151.217 597.448 150.641 597.066 149.904C596.691 149.166 596.503 148.312 596.503 147.342C596.503 146.313 596.691 145.433 597.066 144.702C597.442 143.964 597.953 143.398 598.6 143.003C599.247 142.609 599.975 142.411 600.783 142.411C601.508 142.411 602.129 142.56 602.647 142.858C603.164 143.149 603.582 143.544 603.899 144.042C604.216 144.534 604.432 145.093 604.549 145.721C604.672 146.348 604.694 146.995 604.617 147.662H597.979V146.594H603.355L602.909 146.885C602.928 146.536 602.909 146.187 602.851 145.837C602.799 145.488 602.695 145.168 602.54 144.877C602.385 144.579 602.165 144.343 601.88 144.168C601.602 143.987 601.246 143.896 600.812 143.896C600.269 143.896 599.813 144.032 599.444 144.304C599.082 144.576 598.807 144.941 598.619 145.401C598.432 145.853 598.338 146.352 598.338 146.895V147.642C598.338 148.244 598.428 148.778 598.609 149.244C598.791 149.71 599.059 150.078 599.415 150.35C599.777 150.615 600.233 150.748 600.783 150.748C601.32 150.748 601.764 150.622 602.113 150.37C602.469 150.117 602.689 149.739 602.773 149.234H604.656C604.559 149.842 604.335 150.373 603.986 150.826C603.637 151.279 603.187 151.631 602.637 151.884C602.094 152.129 601.476 152.252 600.783 152.252ZM614.305 152.252C613.775 152.252 613.296 152.152 612.869 151.951C612.442 151.751 612.102 151.45 611.85 151.049C611.604 150.641 611.481 150.13 611.481 149.516V140.121H613.315V149.457C613.315 150.337 613.726 150.777 614.548 150.777C614.8 150.777 615.046 150.751 615.285 150.7C615.525 150.641 615.797 150.557 616.101 150.447L616.363 151.757C616.02 151.9 615.68 152.016 615.344 152.107C615.014 152.204 614.668 152.252 614.305 152.252ZM610.055 143.916V142.664H616.081V143.916H610.055ZM624.812 152V146.526C624.812 145.718 624.618 145.106 624.229 144.692C623.848 144.272 623.33 144.061 622.677 144.061C622.159 144.061 621.706 144.204 621.318 144.488C620.936 144.767 620.639 145.177 620.425 145.721C620.218 146.258 620.114 146.915 620.114 147.691H619.455C619.455 146.546 619.6 145.582 619.891 144.799C620.189 144.016 620.613 143.424 621.163 143.023C621.713 142.615 622.373 142.411 623.142 142.411C623.893 142.411 624.527 142.58 625.045 142.916C625.569 143.253 625.967 143.731 626.238 144.352C626.51 144.967 626.646 145.692 626.646 146.526V152H624.812ZM618.271 152V138.733H620.114V152H618.271ZM635.522 152L635.289 149.855V145.963C635.289 145.2 635.131 144.647 634.814 144.304C634.497 143.955 633.995 143.78 633.31 143.78C632.921 143.78 632.575 143.838 632.271 143.955C631.973 144.065 631.737 144.233 631.563 144.459C631.394 144.686 631.31 144.97 631.31 145.313H629.272C629.272 144.627 629.44 144.071 629.777 143.644C630.113 143.217 630.582 142.906 631.184 142.712C631.792 142.512 632.501 142.411 633.31 142.411C634.066 142.411 634.733 142.538 635.309 142.79C635.885 143.036 636.331 143.424 636.648 143.955C636.972 144.485 637.133 145.171 637.133 146.012V152H635.522ZM632.397 152.252C631.614 152.252 630.964 152.116 630.447 151.845C629.929 151.567 629.541 151.204 629.282 150.758C629.03 150.311 628.903 149.836 628.903 149.331C628.903 148.716 629.059 148.212 629.369 147.817C629.686 147.416 630.123 147.118 630.679 146.924C631.236 146.73 631.876 146.633 632.601 146.633C633.099 146.633 633.584 146.678 634.057 146.769C634.529 146.86 634.995 146.979 635.454 147.128V148.244C635.079 148.108 634.662 148.002 634.202 147.924C633.749 147.84 633.326 147.798 632.931 147.798C632.342 147.798 631.851 147.914 631.456 148.147C631.061 148.38 630.864 148.775 630.864 149.331C630.864 149.739 631.019 150.091 631.33 150.389C631.64 150.68 632.132 150.826 632.805 150.826C633.297 150.826 633.73 150.716 634.105 150.496C634.481 150.269 634.772 149.988 634.979 149.651C635.186 149.315 635.289 148.979 635.289 148.642H635.736C635.736 149.289 635.603 149.888 635.338 150.437C635.079 150.981 634.701 151.421 634.202 151.757C633.704 152.087 633.102 152.252 632.397 152.252ZM643.159 152.252C642.628 152.252 642.149 152.152 641.722 151.951C641.295 151.751 640.956 151.45 640.703 151.049C640.457 150.641 640.335 150.13 640.335 149.516V140.121H642.169V149.457C642.169 150.337 642.58 150.777 643.401 150.777C643.654 150.777 643.9 150.751 644.139 150.7C644.378 150.641 644.65 150.557 644.954 150.447L645.216 151.757C644.873 151.9 644.534 152.016 644.197 152.107C643.867 152.204 643.521 152.252 643.159 152.252ZM638.908 143.916V142.664H644.935V143.916H638.908ZM652.445 140.674C652.076 140.674 651.785 140.574 651.572 140.373C651.365 140.166 651.261 139.888 651.261 139.539C651.261 139.202 651.365 138.937 651.572 138.743C651.785 138.542 652.076 138.442 652.445 138.442C652.807 138.442 653.092 138.542 653.299 138.743C653.513 138.937 653.619 139.202 653.619 139.539C653.619 139.888 653.513 140.166 653.299 140.373C653.092 140.574 652.807 140.674 652.445 140.674ZM651.523 152V142.635H653.367V152H651.523ZM660.336 152.252C659.43 152.252 658.667 152.126 658.046 151.874C657.425 151.615 656.949 151.259 656.619 150.806C656.296 150.347 656.127 149.81 656.114 149.195H657.852C657.878 149.732 658.091 150.13 658.492 150.389C658.9 150.648 659.45 150.777 660.142 150.777C660.511 150.777 660.844 150.719 661.142 150.602C661.446 150.486 661.685 150.328 661.86 150.127C662.041 149.926 662.132 149.7 662.132 149.448C662.132 149.131 662.015 148.881 661.782 148.7C661.549 148.513 661.174 148.348 660.656 148.205L658.744 147.555C657.981 147.296 657.396 146.953 656.988 146.526C656.58 146.093 656.376 145.575 656.376 144.974C656.376 144.204 656.719 143.586 657.405 143.12C658.091 142.648 659 142.411 660.132 142.411C661.303 142.411 662.206 142.661 662.84 143.159C663.481 143.65 663.814 144.268 663.84 145.012H662.064C662.018 144.644 661.834 144.362 661.51 144.168C661.193 143.967 660.734 143.867 660.132 143.867C659.569 143.867 659.126 143.99 658.803 144.236C658.486 144.482 658.327 144.76 658.327 145.071C658.327 145.627 658.806 146.041 659.764 146.313L661.772 147.021C662.536 147.267 663.125 147.584 663.539 147.972C663.953 148.361 664.16 148.852 664.16 149.448C664.16 149.926 664.001 150.379 663.684 150.806C663.367 151.233 662.921 151.583 662.345 151.854C661.776 152.12 661.106 152.252 660.336 152.252ZM677.446 152V146.526C677.446 145.718 677.252 145.106 676.864 144.692C676.482 144.272 675.965 144.061 675.311 144.061C674.793 144.061 674.341 144.204 673.952 144.488C673.571 144.767 673.273 145.177 673.06 145.721C672.852 146.258 672.749 146.915 672.749 147.691H672.089C672.089 146.546 672.235 145.582 672.526 144.799C672.823 144.016 673.247 143.424 673.797 143.023C674.347 142.615 675.007 142.411 675.777 142.411C676.527 142.411 677.161 142.58 677.679 142.916C678.203 143.253 678.601 143.731 678.873 144.352C679.145 144.967 679.28 145.692 679.28 146.526V152H677.446ZM670.905 152V142.664H672.506L672.749 144.682V152H670.905ZM685.818 152.252C684.97 152.252 684.21 152.068 683.537 151.699C682.871 151.33 682.343 150.78 681.955 150.049C681.567 149.318 681.373 148.416 681.373 147.342C681.373 146.248 681.567 145.339 681.955 144.614C682.343 143.883 682.871 143.333 683.537 142.965C684.21 142.596 684.97 142.411 685.818 142.411C686.652 142.411 687.403 142.596 688.069 142.965C688.736 143.333 689.26 143.883 689.642 144.614C690.03 145.339 690.224 146.248 690.224 147.342C690.224 148.416 690.03 149.318 689.642 150.049C689.26 150.78 688.736 151.33 688.069 151.699C687.403 152.068 686.652 152.252 685.818 152.252ZM685.76 150.641C686.297 150.641 686.759 150.512 687.147 150.253C687.542 149.994 687.843 149.619 688.05 149.127C688.263 148.629 688.37 148.034 688.37 147.342C688.37 146.281 688.153 145.459 687.72 144.877C687.293 144.294 686.675 144.003 685.866 144.003C685.323 144.003 684.854 144.136 684.459 144.401C684.071 144.66 683.77 145.038 683.557 145.536C683.349 146.028 683.246 146.63 683.246 147.342C683.246 148.383 683.463 149.195 683.896 149.778C684.33 150.353 684.951 150.641 685.76 150.641ZM695.585 152.252C695.054 152.252 694.575 152.152 694.148 151.951C693.721 151.751 693.382 151.45 693.129 151.049C692.883 150.641 692.761 150.13 692.761 149.516V140.121H694.595V149.457C694.595 150.337 695.006 150.777 695.827 150.777C696.08 150.777 696.325 150.751 696.565 150.7C696.804 150.641 697.076 150.557 697.38 150.447L697.642 151.757C697.299 151.9 696.96 152.016 696.623 152.107C696.293 152.204 695.947 152.252 695.585 152.252ZM691.334 143.916V142.664H697.361V143.916H691.334ZM707.317 152.252C706.469 152.252 705.709 152.068 705.036 151.699C704.37 151.33 703.842 150.78 703.454 150.049C703.066 149.318 702.872 148.416 702.872 147.342C702.872 146.248 703.066 145.339 703.454 144.614C703.842 143.883 704.37 143.333 705.036 142.965C705.709 142.596 706.469 142.411 707.317 142.411C708.151 142.411 708.902 142.596 709.568 142.965C710.235 143.333 710.759 143.883 711.14 144.614C711.529 145.339 711.723 146.248 711.723 147.342C711.723 148.416 711.529 149.318 711.14 150.049C710.759 150.78 710.235 151.33 709.568 151.699C708.902 152.068 708.151 152.252 707.317 152.252ZM707.258 150.641C707.795 150.641 708.258 150.512 708.646 150.253C709.041 149.994 709.342 149.619 709.549 149.127C709.762 148.629 709.869 148.034 709.869 147.342C709.869 146.281 709.652 145.459 709.219 144.877C708.792 144.294 708.174 144.003 707.365 144.003C706.822 144.003 706.353 144.136 705.958 144.401C705.57 144.66 705.269 145.038 705.055 145.536C704.848 146.028 704.745 146.63 704.745 147.342C704.745 148.383 704.962 149.195 705.395 149.778C705.829 150.353 706.45 150.641 707.258 150.641ZM720.626 152V146.526C720.626 145.718 720.432 145.106 720.044 144.692C719.662 144.272 719.144 144.061 718.491 144.061C717.973 144.061 717.52 144.204 717.132 144.488C716.75 144.767 716.453 145.177 716.239 145.721C716.032 146.258 715.929 146.915 715.929 147.691H715.269C715.269 146.546 715.414 145.582 715.705 144.799C716.003 144.016 716.427 143.424 716.977 143.023C717.527 142.615 718.187 142.411 718.957 142.411C719.707 142.411 720.341 142.58 720.859 142.916C721.383 143.253 721.781 143.731 722.052 144.352C722.324 144.967 722.46 145.692 722.46 146.526V152H720.626ZM714.085 152V142.664H715.686L715.929 144.682V152H714.085ZM725.484 152V138.733H727.328V152H725.484ZM729.144 142.664H731.211L734.025 150.389H733.647L735.908 142.664H737.791L734.249 153.795C733.925 154.805 733.508 155.559 732.997 156.057C732.492 156.561 731.858 156.814 731.095 156.814C730.667 156.814 730.257 156.759 729.862 156.649C729.474 156.539 729.076 156.377 728.668 156.163V154.504C729.018 154.75 729.354 154.928 729.678 155.038C730.001 155.148 730.338 155.203 730.687 155.203C731.036 155.203 731.334 155.096 731.58 154.882C731.832 154.675 732.042 154.397 732.211 154.048C732.385 153.705 732.534 153.33 732.657 152.922L732.938 152L729.144 142.664ZM747.09 152.252C746.288 152.252 745.563 152.045 744.916 151.631C744.269 151.217 743.755 150.641 743.373 149.904C742.998 149.166 742.81 148.312 742.81 147.342C742.81 146.313 742.998 145.433 743.373 144.702C743.748 143.964 744.259 143.398 744.906 143.003C745.553 142.609 746.281 142.411 747.09 142.411C747.815 142.411 748.436 142.56 748.953 142.858C749.471 143.149 749.888 143.544 750.205 144.042C750.522 144.534 750.739 145.093 750.856 145.721C750.978 146.348 751.001 146.995 750.923 147.662H744.285V146.594H749.662L749.215 146.885C749.235 146.536 749.215 146.187 749.157 145.837C749.105 145.488 749.002 145.168 748.847 144.877C748.691 144.579 748.471 144.343 748.187 144.168C747.908 143.987 747.553 143.896 747.119 143.896C746.576 143.896 746.12 144.032 745.751 144.304C745.388 144.576 745.113 144.941 744.926 145.401C744.738 145.853 744.644 146.352 744.644 146.895V147.642C744.644 148.244 744.735 148.778 744.916 149.244C745.097 149.71 745.366 150.078 745.722 150.35C746.084 150.615 746.54 150.748 747.09 150.748C747.627 150.748 748.07 150.622 748.42 150.37C748.775 150.117 748.995 149.739 749.08 149.234H750.962C750.865 149.842 750.642 150.373 750.293 150.826C749.943 151.279 749.494 151.631 748.944 151.884C748.4 152.129 747.782 152.252 747.09 152.252ZM753.884 152V141.354C753.884 140.707 754.007 140.183 754.252 139.781C754.505 139.374 754.838 139.073 755.252 138.879C755.666 138.685 756.122 138.588 756.62 138.588C756.905 138.588 757.196 138.607 757.494 138.646C757.798 138.685 758.096 138.743 758.387 138.821L758.037 140.257C757.856 140.192 757.672 140.14 757.484 140.102C757.303 140.063 757.128 140.043 756.96 140.043C756.76 140.043 756.565 140.082 756.378 140.16C756.19 140.231 756.035 140.364 755.912 140.558C755.796 140.752 755.737 141.027 755.737 141.383V152H753.884ZM752.418 143.916V142.664H757.572V143.916H752.418ZM760.241 152V141.354C760.241 140.707 760.364 140.183 760.61 139.781C760.862 139.374 761.196 139.073 761.61 138.879C762.024 138.685 762.48 138.588 762.978 138.588C763.263 138.588 763.554 138.607 763.851 138.646C764.156 138.685 764.453 138.743 764.744 138.821L764.395 140.257C764.214 140.192 764.029 140.14 763.842 140.102C763.661 140.063 763.486 140.043 763.318 140.043C763.117 140.043 762.923 140.082 762.735 140.16C762.548 140.231 762.392 140.364 762.27 140.558C762.153 140.752 762.095 141.027 762.095 141.383V152H760.241ZM758.776 143.916V142.664H763.929V143.916H758.776ZM767.636 140.674C767.268 140.674 766.976 140.574 766.763 140.373C766.556 140.166 766.452 139.888 766.452 139.539C766.452 139.202 766.556 138.937 766.763 138.743C766.976 138.542 767.268 138.442 767.636 138.442C767.999 138.442 768.283 138.542 768.49 138.743C768.704 138.937 768.811 139.202 768.811 139.539C768.811 139.888 768.704 140.166 768.49 140.373C768.283 140.574 767.999 140.674 767.636 140.674ZM766.714 152V142.635H768.558V152H766.714ZM775.518 152.252C774.755 152.252 774.043 152.049 773.383 151.641C772.723 151.233 772.192 150.661 771.791 149.923C771.39 149.186 771.19 148.319 771.19 147.322C771.19 146.274 771.39 145.388 771.791 144.663C772.192 143.932 772.723 143.375 773.383 142.994C774.043 142.606 774.755 142.411 775.518 142.411C776.081 142.411 776.582 142.502 777.022 142.683C777.462 142.858 777.841 143.097 778.158 143.401C778.475 143.699 778.73 144.035 778.925 144.411C779.125 144.786 779.264 145.174 779.342 145.575L777.469 145.672C777.333 145.187 777.094 144.799 776.751 144.508C776.414 144.21 775.997 144.061 775.499 144.061C775.078 144.061 774.68 144.181 774.305 144.42C773.936 144.653 773.635 145.012 773.402 145.498C773.176 145.976 773.063 146.585 773.063 147.322C773.063 148.008 773.169 148.594 773.383 149.079C773.596 149.564 773.888 149.936 774.256 150.195C774.625 150.454 775.039 150.583 775.499 150.583C776.159 150.583 776.65 150.425 776.974 150.108C777.304 149.784 777.469 149.341 777.469 148.778H779.342C779.342 149.431 779.19 150.02 778.886 150.544C778.582 151.068 778.142 151.486 777.566 151.796C776.996 152.1 776.314 152.252 775.518 152.252ZM782.826 140.674C782.457 140.674 782.166 140.574 781.952 140.373C781.745 140.166 781.642 139.888 781.642 139.539C781.642 139.202 781.745 138.937 781.952 138.743C782.166 138.542 782.457 138.442 782.826 138.442C783.188 138.442 783.473 138.542 783.68 138.743C783.893 138.937 784 139.202 784 139.539C784 139.888 783.893 140.166 783.68 140.373C783.473 140.574 783.188 140.674 782.826 140.674ZM781.904 152V142.635H783.748V152H781.904ZM790.649 152.252C789.847 152.252 789.122 152.045 788.475 151.631C787.828 151.217 787.313 150.641 786.932 149.904C786.557 149.166 786.369 148.312 786.369 147.342C786.369 146.313 786.557 145.433 786.932 144.702C787.307 143.964 787.818 143.398 788.465 143.003C789.112 142.609 789.84 142.411 790.649 142.411C791.373 142.411 791.995 142.56 792.512 142.858C793.03 143.149 793.447 143.544 793.764 144.042C794.081 144.534 794.298 145.093 794.414 145.721C794.537 146.348 794.56 146.995 794.482 147.662H787.844V146.594H793.221L792.774 146.885C792.794 146.536 792.774 146.187 792.716 145.837C792.664 145.488 792.561 145.168 792.405 144.877C792.25 144.579 792.03 144.343 791.745 144.168C791.467 143.987 791.111 143.896 790.678 143.896C790.134 143.896 789.678 144.032 789.309 144.304C788.947 144.576 788.672 144.941 788.485 145.401C788.297 145.853 788.203 146.352 788.203 146.895V147.642C788.203 148.244 788.294 148.778 788.475 149.244C788.656 149.71 788.925 150.078 789.28 150.35C789.643 150.615 790.099 150.748 790.649 150.748C791.186 150.748 791.629 150.622 791.978 150.37C792.334 150.117 792.554 149.739 792.638 149.234H794.521C794.424 149.842 794.201 150.373 793.851 150.826C793.502 151.279 793.052 151.631 792.502 151.884C791.959 152.129 791.341 152.252 790.649 152.252ZM803.46 152V146.526C803.46 145.718 803.265 145.106 802.877 144.692C802.495 144.272 801.978 144.061 801.324 144.061C800.807 144.061 800.354 144.204 799.966 144.488C799.584 144.767 799.286 145.177 799.073 145.721C798.866 146.258 798.762 146.915 798.762 147.691H798.102C798.102 146.546 798.248 145.582 798.539 144.799C798.837 144.016 799.26 143.424 799.81 143.023C800.36 142.615 801.02 142.411 801.79 142.411C802.541 142.411 803.175 142.58 803.692 142.916C804.217 143.253 804.614 143.731 804.886 144.352C805.158 144.967 805.294 145.692 805.294 146.526V152H803.46ZM796.918 152V142.664H798.52L798.762 144.682V152H796.918ZM811.317 152.252C810.786 152.252 810.307 152.152 809.88 151.951C809.453 151.751 809.114 151.45 808.861 151.049C808.616 150.641 808.493 150.13 808.493 149.516V140.121H810.327V149.457C810.327 150.337 810.738 150.777 811.559 150.777C811.812 150.777 812.058 150.751 812.297 150.7C812.536 150.641 812.808 150.557 813.112 150.447L813.374 151.757C813.031 151.9 812.692 152.016 812.355 152.107C812.025 152.204 811.679 152.252 811.317 152.252ZM807.066 143.916V142.664H813.093V143.916H807.066ZM815.301 154.339L813.923 153.65C814.318 153.449 814.658 153.226 814.942 152.98C815.227 152.734 815.415 152.44 815.505 152.097C815.195 152.052 814.929 151.932 814.709 151.738C814.489 151.544 814.379 151.288 814.379 150.971C814.379 150.648 814.499 150.376 814.739 150.156C814.984 149.93 815.295 149.816 815.67 149.816C816.143 149.816 816.518 149.985 816.796 150.321C817.081 150.657 817.223 151.059 817.223 151.524C817.223 152.061 817.055 152.586 816.718 153.097C816.388 153.614 815.916 154.028 815.301 154.339ZM827.96 152.252C827.352 152.252 826.799 152.091 826.301 151.767C825.809 151.437 825.414 150.952 825.117 150.311C824.826 149.671 824.68 148.885 824.68 147.953H825.311C825.311 148.496 825.427 148.966 825.66 149.36C825.9 149.755 826.204 150.059 826.572 150.273C826.941 150.48 827.326 150.583 827.727 150.583C828.206 150.583 828.636 150.45 829.018 150.185C829.406 149.92 829.714 149.541 829.94 149.05C830.173 148.551 830.289 147.966 830.289 147.293C830.289 146.627 830.176 146.054 829.95 145.575C829.723 145.09 829.416 144.718 829.028 144.459C828.64 144.194 828.2 144.061 827.708 144.061C827.294 144.061 826.902 144.162 826.534 144.362C826.171 144.563 825.877 144.86 825.65 145.255C825.424 145.643 825.311 146.119 825.311 146.682H824.68C824.68 145.769 824.822 144.996 825.107 144.362C825.392 143.728 825.786 143.246 826.291 142.916C826.802 142.58 827.401 142.411 828.086 142.411C828.83 142.411 829.51 142.612 830.124 143.013C830.746 143.408 831.241 143.971 831.609 144.702C831.985 145.433 832.172 146.297 832.172 147.293C832.172 148.296 831.981 149.169 831.6 149.913C831.218 150.651 830.707 151.227 830.066 151.641C829.432 152.049 828.73 152.252 827.96 152.252ZM823.467 152V138.733H825.311V149.758L824.719 152H823.467ZM840.947 142.635H842.8V152H840.947V142.635ZM834.425 142.635H836.269V148.419C836.269 149.124 836.44 149.658 836.783 150.02C837.133 150.382 837.621 150.564 838.249 150.564C838.779 150.564 839.245 150.425 839.646 150.146C840.054 149.868 840.371 149.473 840.597 148.962C840.83 148.451 840.947 147.846 840.947 147.148H841.539C841.539 148.241 841.39 149.16 841.092 149.904C840.795 150.648 840.377 151.214 839.84 151.602C839.303 151.984 838.676 152.175 837.958 152.175C837.272 152.175 836.66 152.049 836.123 151.796C835.593 151.544 835.176 151.156 834.871 150.632C834.574 150.101 834.425 149.418 834.425 148.584V142.635ZM849.094 152.252C848.564 152.252 848.085 152.152 847.658 151.951C847.231 151.751 846.891 151.45 846.639 151.049C846.393 150.641 846.27 150.13 846.27 149.516V140.121H848.104V149.457C848.104 150.337 848.515 150.777 849.337 150.777C849.589 150.777 849.835 150.751 850.074 150.7C850.314 150.641 850.586 150.557 850.89 150.447L851.152 151.757C850.809 151.9 850.469 152.016 850.133 152.107C849.803 152.204 849.457 152.252 849.094 152.252ZM844.843 143.916V142.664H850.87V143.916H844.843ZM863.165 152L862.932 149.855V145.963C862.932 145.2 862.774 144.647 862.457 144.304C862.14 143.955 861.638 143.78 860.952 143.78C860.564 143.78 860.218 143.838 859.914 143.955C859.616 144.065 859.38 144.233 859.206 144.459C859.037 144.686 858.953 144.97 858.953 145.313H856.915C856.915 144.627 857.083 144.071 857.42 143.644C857.756 143.217 858.225 142.906 858.827 142.712C859.435 142.512 860.144 142.411 860.952 142.411C861.709 142.411 862.376 142.538 862.952 142.79C863.527 143.036 863.974 143.424 864.291 143.955C864.614 144.485 864.776 145.171 864.776 146.012V152H863.165ZM860.04 152.252C859.257 152.252 858.607 152.116 858.089 151.845C857.572 151.567 857.184 151.204 856.925 150.758C856.673 150.311 856.546 149.836 856.546 149.331C856.546 148.716 856.702 148.212 857.012 147.817C857.329 147.416 857.766 147.118 858.322 146.924C858.879 146.73 859.519 146.633 860.244 146.633C860.742 146.633 861.227 146.678 861.7 146.769C862.172 146.86 862.638 146.979 863.097 147.128V148.244C862.722 148.108 862.305 148.002 861.845 147.924C861.392 147.84 860.969 147.798 860.574 147.798C859.985 147.798 859.493 147.914 859.099 148.147C858.704 148.38 858.507 148.775 858.507 149.331C858.507 149.739 858.662 150.091 858.973 150.389C859.283 150.68 859.775 150.826 860.448 150.826C860.939 150.826 861.373 150.716 861.748 150.496C862.123 150.269 862.415 149.988 862.622 149.651C862.829 149.315 862.932 148.979 862.932 148.642H863.379C863.379 149.289 863.246 149.888 862.981 150.437C862.722 150.981 862.343 151.421 861.845 151.757C861.347 152.087 860.745 152.252 860.04 152.252ZM867.803 152V138.733H869.647V152H867.803ZM876.363 152.252C875.458 152.252 874.694 152.126 874.073 151.874C873.452 151.615 872.976 151.259 872.646 150.806C872.323 150.347 872.155 149.81 872.142 149.195H873.879C873.905 149.732 874.118 150.13 874.519 150.389C874.927 150.648 875.477 150.777 876.169 150.777C876.538 150.777 876.871 150.719 877.169 150.602C877.473 150.486 877.712 150.328 877.887 150.127C878.068 149.926 878.159 149.7 878.159 149.448C878.159 149.131 878.042 148.881 877.809 148.7C877.576 148.513 877.201 148.348 876.684 148.205L874.772 147.555C874.008 147.296 873.423 146.953 873.015 146.526C872.608 146.093 872.404 145.575 872.404 144.974C872.404 144.204 872.747 143.586 873.432 143.12C874.118 142.648 875.027 142.411 876.16 142.411C877.331 142.411 878.233 142.661 878.867 143.159C879.508 143.65 879.841 144.268 879.867 145.012H878.091C878.046 144.644 877.861 144.362 877.538 144.168C877.221 143.967 876.761 143.867 876.16 143.867C875.597 143.867 875.153 143.99 874.83 144.236C874.513 144.482 874.354 144.76 874.354 145.071C874.354 145.627 874.833 146.041 875.791 146.313L877.8 147.021C878.563 147.267 879.152 147.584 879.566 147.972C879.98 148.361 880.187 148.852 880.187 149.448C880.187 149.926 880.029 150.379 879.712 150.806C879.395 151.233 878.948 151.583 878.372 151.854C877.803 152.12 877.133 152.252 876.363 152.252ZM886.192 152.252C885.344 152.252 884.584 152.068 883.911 151.699C883.245 151.33 882.718 150.78 882.329 150.049C881.941 149.318 881.747 148.416 881.747 147.342C881.747 146.248 881.941 145.339 882.329 144.614C882.718 143.883 883.245 143.333 883.911 142.965C884.584 142.596 885.344 142.411 886.192 142.411C887.027 142.411 887.777 142.596 888.444 142.965C889.11 143.333 889.634 143.883 890.016 144.614C890.404 145.339 890.598 146.248 890.598 147.342C890.598 148.416 890.404 149.318 890.016 150.049C889.634 150.78 889.11 151.33 888.444 151.699C887.777 152.068 887.027 152.252 886.192 152.252ZM886.134 150.641C886.671 150.641 887.133 150.512 887.522 150.253C887.916 149.994 888.217 149.619 888.424 149.127C888.638 148.629 888.744 148.034 888.744 147.342C888.744 146.281 888.528 145.459 888.094 144.877C887.667 144.294 887.049 144.003 886.24 144.003C885.697 144.003 885.228 144.136 884.833 144.401C884.445 144.66 884.144 145.038 883.931 145.536C883.724 146.028 883.62 146.63 883.62 147.342C883.62 148.383 883.837 149.195 884.27 149.778C884.704 150.353 885.325 150.641 886.134 150.641ZM900.562 152.252C899.759 152.252 899.035 152.045 898.388 151.631C897.741 151.217 897.226 150.641 896.845 149.904C896.469 149.166 896.282 148.312 896.282 147.342C896.282 146.313 896.469 145.433 896.845 144.702C897.22 143.964 897.731 143.398 898.378 143.003C899.025 142.609 899.753 142.411 900.562 142.411C901.286 142.411 901.907 142.56 902.425 142.858C902.943 143.149 903.36 143.544 903.677 144.042C903.994 144.534 904.211 145.093 904.327 145.721C904.45 146.348 904.473 146.995 904.395 147.662H897.757V146.594H903.134L902.687 146.885C902.706 146.536 902.687 146.187 902.629 145.837C902.577 145.488 902.474 145.168 902.318 144.877C902.163 144.579 901.943 144.343 901.658 144.168C901.38 143.987 901.024 143.896 900.591 143.896C900.047 143.896 899.591 144.032 899.222 144.304C898.86 144.576 898.585 144.941 898.397 145.401C898.21 145.853 898.116 146.352 898.116 146.895V147.642C898.116 148.244 898.207 148.778 898.388 149.244C898.569 149.71 898.837 150.078 899.193 150.35C899.556 150.615 900.012 150.748 900.562 150.748C901.099 150.748 901.542 150.622 901.891 150.37C902.247 150.117 902.467 149.739 902.551 149.234H904.434C904.337 149.842 904.114 150.373 903.764 150.826C903.415 151.279 902.965 151.631 902.415 151.884C901.872 152.129 901.254 152.252 900.562 152.252ZM913.372 152V146.526C913.372 145.718 913.178 145.106 912.79 144.692C912.408 144.272 911.891 144.061 911.237 144.061C910.72 144.061 910.267 144.204 909.879 144.488C909.497 144.767 909.199 145.177 908.986 145.721C908.779 146.258 908.675 146.915 908.675 147.691H908.015C908.015 146.546 908.161 145.582 908.452 144.799C908.75 144.016 909.173 143.424 909.723 143.023C910.273 142.615 910.933 142.411 911.703 142.411C912.454 142.411 913.088 142.58 913.605 142.916C914.129 143.253 914.527 143.731 914.799 144.352C915.071 144.967 915.207 145.692 915.207 146.526V152H913.372ZM906.831 152V142.664H908.433L908.675 144.682V152H906.831ZM919.512 140.674C919.15 140.674 918.862 140.574 918.648 140.373C918.441 140.166 918.338 139.888 918.338 139.539C918.338 139.202 918.441 138.937 918.648 138.743C918.862 138.542 919.15 138.442 919.512 138.442C919.874 138.442 920.162 138.542 920.376 138.743C920.589 138.937 920.696 139.202 920.696 139.539C920.696 139.888 920.589 140.166 920.376 140.373C920.162 140.574 919.874 140.674 919.512 140.674ZM917.406 156.814C916.934 156.814 916.487 156.755 916.067 156.639C915.64 156.529 915.203 156.364 914.756 156.144L914.815 154.552C915.177 154.74 915.539 154.895 915.902 155.018C916.264 155.141 916.633 155.203 917.008 155.203C917.519 155.203 917.914 155.044 918.192 154.727C918.47 154.417 918.609 153.912 918.609 153.213V142.625H920.444V153.233C920.444 154.514 920.169 155.429 919.619 155.979C919.069 156.535 918.331 156.814 917.406 156.814ZM927.514 152.252C926.666 152.252 925.906 152.068 925.233 151.699C924.567 151.33 924.04 150.78 923.651 150.049C923.263 149.318 923.069 148.416 923.069 147.342C923.069 146.248 923.263 145.339 923.651 144.614C924.04 143.883 924.567 143.333 925.233 142.965C925.906 142.596 926.666 142.411 927.514 142.411C928.349 142.411 929.099 142.596 929.766 142.965C930.432 143.333 930.956 143.883 931.338 144.614C931.726 145.339 931.92 146.248 931.92 147.342C931.92 148.416 931.726 149.318 931.338 150.049C930.956 150.78 930.432 151.33 929.766 151.699C929.099 152.068 928.349 152.252 927.514 152.252ZM927.456 150.641C927.993 150.641 928.455 150.512 928.844 150.253C929.238 149.994 929.539 149.619 929.746 149.127C929.96 148.629 930.066 148.034 930.066 147.342C930.066 146.281 929.85 145.459 929.416 144.877C928.989 144.294 928.371 144.003 927.563 144.003C927.019 144.003 926.55 144.136 926.155 144.401C925.767 144.66 925.466 145.038 925.253 145.536C925.046 146.028 924.942 146.63 924.942 147.342C924.942 148.383 925.159 149.195 925.592 149.778C926.026 150.353 926.647 150.641 927.456 150.641ZM932.797 142.664H934.864L937.679 150.389H937.3L939.562 142.664H941.444L937.902 153.795C937.578 154.805 937.161 155.559 936.65 156.057C936.145 156.561 935.511 156.814 934.748 156.814C934.321 156.814 933.91 156.759 933.515 156.649C933.127 156.539 932.729 156.377 932.322 156.163V154.504C932.671 154.75 933.007 154.928 933.331 155.038C933.654 155.148 933.991 155.203 934.34 155.203C934.69 155.203 934.987 155.096 935.233 154.882C935.485 154.675 935.696 154.397 935.864 154.048C936.039 153.705 936.187 153.33 936.31 152.922L936.592 152L932.797 142.664ZM948.994 152L948.761 149.855V145.963C948.761 145.2 948.602 144.647 948.285 144.304C947.968 143.955 947.467 143.78 946.781 143.78C946.393 143.78 946.047 143.838 945.743 143.955C945.445 144.065 945.209 144.233 945.034 144.459C944.866 144.686 944.782 144.97 944.782 145.313H942.744C942.744 144.627 942.912 144.071 943.248 143.644C943.585 143.217 944.054 142.906 944.656 142.712C945.264 142.512 945.972 142.411 946.781 142.411C947.538 142.411 948.204 142.538 948.78 142.79C949.356 143.036 949.802 143.424 950.12 143.955C950.443 144.485 950.605 145.171 950.605 146.012V152H948.994ZM945.869 152.252C945.086 152.252 944.436 152.116 943.918 151.845C943.4 151.567 943.012 151.204 942.753 150.758C942.501 150.311 942.375 149.836 942.375 149.331C942.375 148.716 942.53 148.212 942.841 147.817C943.158 147.416 943.595 147.118 944.151 146.924C944.707 146.73 945.348 146.633 946.073 146.633C946.571 146.633 947.056 146.678 947.528 146.769C948.001 146.86 948.466 146.979 948.926 147.128V148.244C948.551 148.108 948.133 148.002 947.674 147.924C947.221 147.84 946.797 147.798 946.403 147.798C945.814 147.798 945.322 147.914 944.927 148.147C944.533 148.38 944.335 148.775 944.335 149.331C944.335 149.739 944.491 150.091 944.801 150.389C945.112 150.68 945.603 150.826 946.276 150.826C946.768 150.826 947.202 150.716 947.577 150.496C947.952 150.269 948.243 149.988 948.45 149.651C948.657 149.315 948.761 148.979 948.761 148.642H949.207C949.207 149.289 949.075 149.888 948.809 150.437C948.551 150.981 948.172 151.421 947.674 151.757C947.176 152.087 946.574 152.252 945.869 152.252ZM958.125 152.252C957.517 152.252 956.963 152.091 956.465 151.767C955.974 151.437 955.579 150.952 955.281 150.311C954.99 149.671 954.844 148.885 954.844 147.953H955.475C955.475 148.496 955.592 148.966 955.825 149.36C956.064 149.755 956.368 150.059 956.737 150.273C957.106 150.48 957.491 150.583 957.892 150.583C958.371 150.583 958.801 150.45 959.183 150.185C959.571 149.92 959.878 149.541 960.105 149.05C960.338 148.551 960.454 147.966 960.454 147.293C960.454 146.627 960.341 146.054 960.114 145.575C959.888 145.09 959.581 144.718 959.192 144.459C958.804 144.194 958.364 144.061 957.872 144.061C957.458 144.061 957.067 144.162 956.698 144.362C956.336 144.563 956.041 144.86 955.815 145.255C955.589 145.643 955.475 146.119 955.475 146.682H954.844C954.844 145.769 954.987 144.996 955.272 144.362C955.556 143.728 955.951 143.246 956.456 142.916C956.967 142.58 957.565 142.411 958.251 142.411C958.995 142.411 959.674 142.612 960.289 143.013C960.91 143.408 961.405 143.971 961.774 144.702C962.149 145.433 962.337 146.297 962.337 147.293C962.337 148.296 962.146 149.169 961.764 149.913C961.382 150.651 960.871 151.227 960.231 151.641C959.597 152.049 958.895 152.252 958.125 152.252ZM953.631 152V138.733H955.475V149.758L954.883 152H953.631ZM964.822 152V138.733H966.666V152H964.822ZM973.315 152.252C972.513 152.252 971.788 152.045 971.141 151.631C970.494 151.217 969.98 150.641 969.598 149.904C969.223 149.166 969.035 148.312 969.035 147.342C969.035 146.313 969.223 145.433 969.598 144.702C969.973 143.964 970.484 143.398 971.131 143.003C971.778 142.609 972.506 142.411 973.315 142.411C974.04 142.411 974.661 142.56 975.178 142.858C975.696 143.149 976.113 143.544 976.43 144.042C976.747 144.534 976.964 145.093 977.081 145.721C977.204 146.348 977.226 146.995 977.149 147.662H970.51V146.594H975.887L975.44 146.885C975.46 146.536 975.44 146.187 975.382 145.837C975.33 145.488 975.227 145.168 975.072 144.877C974.916 144.579 974.696 144.343 974.412 144.168C974.134 143.987 973.778 143.896 973.344 143.896C972.801 143.896 972.345 144.032 971.976 144.304C971.613 144.576 971.338 144.941 971.151 145.401C970.963 145.853 970.869 146.352 970.869 146.895V147.642C970.869 148.244 970.96 148.778 971.141 149.244C971.322 149.71 971.591 150.078 971.947 150.35C972.309 150.615 972.765 150.748 973.315 150.748C973.852 150.748 974.295 150.622 974.645 150.37C975.001 150.117 975.22 149.739 975.305 149.234H977.187C977.09 149.842 976.867 150.373 976.518 150.826C976.168 151.279 975.719 151.631 975.169 151.884C974.625 152.129 974.007 152.252 973.315 152.252ZM981.108 148.613V147.778C981.108 147.215 981.17 146.756 981.293 146.4C981.422 146.038 981.626 145.727 981.904 145.469C982.182 145.203 982.561 144.948 983.04 144.702C983.467 144.475 983.8 144.268 984.039 144.081C984.285 143.887 984.46 143.683 984.563 143.469C984.667 143.256 984.719 143 984.719 142.703C984.719 142.237 984.531 141.852 984.156 141.548C983.78 141.237 983.263 141.082 982.603 141.082C981.859 141.082 981.286 141.237 980.885 141.548C980.49 141.858 980.251 142.279 980.167 142.809H978.226C978.31 141.787 978.714 140.965 979.439 140.344C980.164 139.723 981.199 139.413 982.545 139.413C983.412 139.413 984.159 139.561 984.787 139.859C985.414 140.15 985.896 140.548 986.233 141.053C986.569 141.557 986.737 142.117 986.737 142.732C986.737 143.398 986.569 143.961 986.233 144.42C985.896 144.88 985.359 145.3 984.622 145.682C984.195 145.908 983.858 146.122 983.612 146.323C983.366 146.517 983.192 146.737 983.088 146.983C982.991 147.228 982.943 147.545 982.943 147.934V148.613H981.108ZM982.069 152.252C981.681 152.252 981.364 152.129 981.118 151.884C980.872 151.638 980.749 151.34 980.749 150.991C980.749 150.628 980.869 150.321 981.108 150.069C981.354 149.816 981.671 149.69 982.059 149.69C982.448 149.69 982.771 149.816 983.03 150.069C983.295 150.315 983.428 150.619 983.428 150.981C983.428 151.33 983.298 151.631 983.04 151.884C982.781 152.129 982.457 152.252 982.069 152.252Z" fill="#666666"/>
<line x1="422" y1="66.2762" x2="1078.01" y2="66.2762" stroke="#383838"/>
<line x1="422" y1="196.276" x2="1078.01" y2="196.276" stroke="#383838"/>
</svg>
