<svg width="1500" height="475" viewBox="0 0 1500 475" fill="none" xmlns="http://www.w3.org/2000/svg">
<rect width="1500" height="475" fill="#E5E5E5"/>
<rect width="1500" height="475" fill="white"/>
<path d="M645.998 179.44C644.208 179.44 642.648 179.016 641.318 178.168C639.999 177.309 638.973 176.084 638.24 174.493C637.507 172.901 637.141 170.99 637.141 168.76C637.141 166.457 637.518 164.525 638.271 162.965C639.036 161.395 640.083 160.212 641.412 159.416C642.753 158.61 644.281 158.207 645.998 158.207C648.375 158.207 650.228 158.782 651.558 159.934C652.898 161.086 653.757 162.583 654.134 164.426L650.176 165.148C649.851 164.08 649.333 163.216 648.621 162.557C647.909 161.897 647.035 161.567 645.998 161.567C645.087 161.567 644.266 161.834 643.533 162.368C642.8 162.892 642.213 163.688 641.774 164.756C641.344 165.824 641.13 167.158 641.13 168.76C641.13 170.268 641.318 171.566 641.695 172.655C642.083 173.744 642.637 174.582 643.36 175.168C644.082 175.754 644.962 176.047 645.998 176.047C647.328 176.047 648.354 175.697 649.077 174.995C649.809 174.283 650.176 173.378 650.176 172.278H654.134C654.134 173.796 653.804 175.089 653.144 176.157C652.495 177.215 651.563 178.026 650.349 178.592C649.134 179.157 647.684 179.44 645.998 179.44ZM665.403 158.615H669.109V167.127H677.998V158.615H681.705V179H677.998V170.362H669.109V179H665.403V158.615ZM692.23 179L699.171 158.615H703.82L710.479 179H706.584L705.171 174.603H697.601L696.156 179H692.23ZM698.543 171.807H704.291L701.433 163.044L698.543 171.807ZM724.738 158.615V175.765H733.125V179H721.032V158.615H724.738ZM747.169 158.615V175.765H755.556V179H743.463V158.615H747.169ZM765.863 179V158.615H778.961V161.819H769.569V167.19H778.395V170.394H769.569V175.765H778.961V179H765.863ZM791.177 158.615H795.228L804.494 173.158H804.212V158.615H807.918V179H804.149L794.286 163.578H794.883V179H791.177V158.615ZM828.108 179.44C826.444 179.44 824.941 179 823.601 178.121C822.261 177.241 821.193 176.016 820.397 174.446C819.612 172.865 819.219 171.022 819.219 168.917C819.219 167.253 819.46 165.761 819.942 164.441C820.434 163.122 821.114 161.997 821.983 161.065C822.852 160.133 823.873 159.426 825.046 158.945C826.219 158.453 827.491 158.207 828.862 158.207C830.768 158.207 832.364 158.62 833.652 159.447C834.951 160.274 835.961 161.578 836.683 163.358L832.883 164.237C832.349 163.368 831.731 162.709 831.029 162.258C830.338 161.798 829.553 161.567 828.674 161.567C827.669 161.567 826.752 161.866 825.925 162.463C825.098 163.049 824.439 163.892 823.947 164.991C823.454 166.09 823.208 167.399 823.208 168.917C823.208 170.341 823.423 171.587 823.852 172.655C824.292 173.723 824.905 174.555 825.69 175.152C826.475 175.749 827.386 176.047 828.422 176.047C829.302 176.047 830.087 175.854 830.778 175.466C831.48 175.069 832.029 174.503 832.427 173.77C832.836 173.037 833.04 172.153 833.04 171.116H833.856C833.856 172.812 833.652 174.283 833.244 175.529C832.846 176.775 832.223 177.738 831.375 178.419C830.527 179.099 829.438 179.44 828.108 179.44ZM833.574 179L833.04 174.508V170.99L828.454 170.896V168.54H836.589V179H833.574ZM848.8 179V158.615H861.898V161.819H852.506V167.19H861.333V170.394H852.506V175.765H861.898V179H848.8Z" fill="#383838"/>
<path d="M448.555 227.424H451.387V233.928H458.179V227.424H461.011V243H458.179V236.4H451.387V243H448.555V227.424ZM469.461 243.336C468.397 243.336 467.433 243.108 466.569 242.652C465.713 242.196 465.033 241.516 464.529 240.612C464.025 239.7 463.773 238.56 463.773 237.192C463.773 235.8 464.025 234.648 464.529 233.736C465.033 232.824 465.713 232.144 466.569 231.696C467.433 231.248 468.397 231.024 469.461 231.024C470.509 231.024 471.457 231.248 472.305 231.696C473.161 232.144 473.841 232.824 474.345 233.736C474.849 234.648 475.101 235.8 475.101 237.192C475.101 238.56 474.849 239.7 474.345 240.612C473.841 241.516 473.161 242.196 472.305 242.652C471.457 243.108 470.509 243.336 469.461 243.336ZM469.365 240.864C469.925 240.864 470.421 240.728 470.853 240.456C471.293 240.176 471.637 239.764 471.885 239.22C472.141 238.676 472.269 238 472.269 237.192C472.269 235.96 472.025 235.032 471.537 234.408C471.057 233.784 470.397 233.472 469.557 233.472C468.989 233.472 468.485 233.612 468.045 233.892C467.605 234.164 467.257 234.576 467.001 235.128C466.753 235.68 466.629 236.368 466.629 237.192C466.629 238.408 466.873 239.324 467.361 239.94C467.857 240.556 468.525 240.864 469.365 240.864ZM475.926 231.36H478.878L481.398 240.192H481.11L483.486 231.984H486.054L488.43 240.216H488.142L490.662 231.36H493.494L489.654 243H486.87L484.494 235.272H484.926L482.598 243H479.79L475.926 231.36ZM505.344 243.336C504.368 243.336 503.46 243.084 502.62 242.58C501.788 242.068 501.112 241.352 500.592 240.432C500.08 239.504 499.824 238.416 499.824 237.168C499.824 235.848 500.08 234.732 500.592 233.82C501.112 232.9 501.788 232.204 502.62 231.732C503.46 231.26 504.368 231.024 505.344 231.024C506.104 231.024 506.772 231.148 507.348 231.396C507.932 231.636 508.428 231.964 508.836 232.38C509.244 232.788 509.564 233.244 509.796 233.748C510.028 234.252 510.176 234.76 510.24 235.272L507.384 235.344C507.256 234.832 507.016 234.408 506.664 234.072C506.32 233.736 505.872 233.568 505.32 233.568C504.864 233.568 504.436 233.696 504.036 233.952C503.636 234.2 503.308 234.588 503.052 235.116C502.804 235.644 502.68 236.328 502.68 237.168C502.68 237.968 502.796 238.636 503.028 239.172C503.268 239.7 503.588 240.1 503.988 240.372C504.388 240.636 504.832 240.768 505.32 240.768C506.04 240.768 506.564 240.596 506.892 240.252C507.22 239.9 507.384 239.432 507.384 238.848H510.24C510.24 239.672 510.052 240.424 509.676 241.104C509.3 241.784 508.748 242.328 508.02 242.736C507.292 243.136 506.4 243.336 505.344 243.336ZM520.447 243L520.087 240.168V235.488C520.087 234.672 519.919 234.068 519.583 233.676C519.255 233.284 518.695 233.088 517.903 233.088C517.447 233.088 517.051 233.156 516.715 233.292C516.379 233.428 516.119 233.624 515.935 233.88C515.759 234.128 515.671 234.432 515.671 234.792H512.575C512.575 233.912 512.787 233.196 513.211 232.644C513.635 232.084 514.243 231.676 515.035 231.42C515.835 231.156 516.791 231.024 517.903 231.024C518.911 231.024 519.791 231.188 520.543 231.516C521.295 231.836 521.879 232.332 522.295 233.004C522.711 233.676 522.919 234.536 522.919 235.584V243H520.447ZM516.631 243.336C515.631 243.336 514.795 243.164 514.123 242.82C513.459 242.468 512.959 242.008 512.623 241.44C512.287 240.872 512.119 240.256 512.119 239.592C512.119 238.856 512.311 238.24 512.695 237.744C513.087 237.24 513.639 236.864 514.351 236.616C515.063 236.36 515.903 236.232 516.871 236.232C517.503 236.232 518.099 236.28 518.659 236.376C519.227 236.472 519.791 236.6 520.351 236.76V238.416C519.911 238.272 519.431 238.16 518.911 238.08C518.391 238 517.903 237.96 517.447 237.96C516.775 237.96 516.223 238.084 515.791 238.332C515.359 238.58 515.143 239 515.143 239.592C515.143 240.024 515.319 240.396 515.671 240.708C516.023 241.02 516.583 241.176 517.351 241.176C517.935 241.176 518.431 241.048 518.839 240.792C519.247 240.536 519.555 240.216 519.763 239.832C519.979 239.448 520.087 239.064 520.087 238.68H520.759C520.759 239.52 520.603 240.296 520.291 241.008C519.979 241.712 519.515 242.276 518.899 242.7C518.291 243.124 517.535 243.336 516.631 243.336ZM534.462 243V236.184C534.462 235.32 534.254 234.668 533.838 234.228C533.422 233.788 532.878 233.568 532.206 233.568C531.638 233.568 531.134 233.724 530.694 234.036C530.262 234.348 529.922 234.82 529.674 235.452C529.426 236.076 529.302 236.856 529.302 237.792H528.366C528.366 236.28 528.554 235.024 528.93 234.024C529.306 233.016 529.838 232.264 530.526 231.768C531.214 231.272 532.022 231.024 532.95 231.024C533.91 231.024 534.71 231.24 535.35 231.672C535.998 232.096 536.482 232.696 536.802 233.472C537.13 234.248 537.294 235.152 537.294 236.184V243H534.462ZM526.47 243V231.36H528.942L529.302 233.664V243H526.47ZM544.59 243L549.894 227.424H553.446L558.534 243H555.558L554.478 239.64H548.694L547.59 243H544.59ZM549.414 237.504H553.806L551.622 230.808L549.414 237.504ZM568.469 231.312H571.301V243H568.469V231.312ZM560.477 231.312H563.309V238.464C563.309 239.224 563.497 239.796 563.873 240.18C564.249 240.556 564.765 240.744 565.421 240.744C565.981 240.744 566.489 240.6 566.945 240.312C567.409 240.016 567.777 239.584 568.049 239.016C568.329 238.44 568.469 237.728 568.469 236.88H569.237C569.237 238.304 569.053 239.484 568.685 240.42C568.317 241.356 567.809 242.056 567.161 242.52C566.513 242.984 565.765 243.216 564.917 243.216C564.085 243.216 563.333 243.068 562.661 242.772C561.989 242.476 561.457 242 561.065 241.344C560.673 240.688 560.477 239.824 560.477 238.752V231.312ZM579.1 243.336C578.412 243.336 577.78 243.208 577.204 242.952C576.636 242.696 576.18 242.304 575.836 241.776C575.5 241.248 575.332 240.576 575.332 239.76V228.264H578.164V239.664C578.164 240.624 578.62 241.104 579.532 241.104C579.812 241.104 580.092 241.072 580.372 241.008C580.652 240.944 580.972 240.848 581.332 240.72L581.74 242.712C581.292 242.888 580.856 243.036 580.432 243.156C580.008 243.276 579.564 243.336 579.1 243.336ZM573.7 233.232V231.36H581.332V233.232H573.7ZM588.617 243.336C587.553 243.336 586.589 243.108 585.725 242.652C584.869 242.196 584.189 241.516 583.685 240.612C583.181 239.7 582.929 238.56 582.929 237.192C582.929 235.8 583.181 234.648 583.685 233.736C584.189 232.824 584.869 232.144 585.725 231.696C586.589 231.248 587.553 231.024 588.617 231.024C589.665 231.024 590.613 231.248 591.461 231.696C592.317 232.144 592.997 232.824 593.501 233.736C594.005 234.648 594.257 235.8 594.257 237.192C594.257 238.56 594.005 239.7 593.501 240.612C592.997 241.516 592.317 242.196 591.461 242.652C590.613 243.108 589.665 243.336 588.617 243.336ZM588.521 240.864C589.081 240.864 589.577 240.728 590.009 240.456C590.449 240.176 590.793 239.764 591.041 239.22C591.297 238.676 591.425 238 591.425 237.192C591.425 235.96 591.181 235.032 590.693 234.408C590.213 233.784 589.553 233.472 588.713 233.472C588.145 233.472 587.641 233.612 587.201 233.892C586.761 234.164 586.413 234.576 586.157 235.128C585.909 235.68 585.785 236.368 585.785 237.192C585.785 238.408 586.029 239.324 586.517 239.94C587.013 240.556 587.681 240.864 588.521 240.864ZM597.027 227.424H601.083L605.475 236.952H605.235L609.627 227.424H613.539V243H610.683V230.688H611.115L606.267 241.296H604.419L599.595 230.736H599.859V243H597.027V227.424ZM621.987 243.336C620.923 243.336 619.959 243.108 619.095 242.652C618.239 242.196 617.559 241.516 617.055 240.612C616.551 239.7 616.299 238.56 616.299 237.192C616.299 235.8 616.551 234.648 617.055 233.736C617.559 232.824 618.239 232.144 619.095 231.696C619.959 231.248 620.923 231.024 621.987 231.024C623.035 231.024 623.983 231.248 624.831 231.696C625.687 232.144 626.367 232.824 626.871 233.736C627.375 234.648 627.627 235.8 627.627 237.192C627.627 238.56 627.375 239.7 626.871 240.612C626.367 241.516 625.687 242.196 624.831 242.652C623.983 243.108 623.035 243.336 621.987 243.336ZM621.891 240.864C622.451 240.864 622.947 240.728 623.379 240.456C623.819 240.176 624.163 239.764 624.411 239.22C624.667 238.676 624.795 238 624.795 237.192C624.795 235.96 624.551 235.032 624.063 234.408C623.583 233.784 622.923 233.472 622.083 233.472C621.515 233.472 621.011 233.612 620.571 233.892C620.131 234.164 619.783 234.576 619.527 235.128C619.279 235.68 619.155 236.368 619.155 237.192C619.155 238.408 619.399 239.324 619.887 239.94C620.383 240.556 621.051 240.864 621.891 240.864ZM634.333 243.336C633.645 243.336 633.013 243.208 632.437 242.952C631.869 242.696 631.413 242.304 631.069 241.776C630.733 241.248 630.565 240.576 630.565 239.76V228.264H633.397V239.664C633.397 240.624 633.853 241.104 634.765 241.104C635.045 241.104 635.325 241.072 635.605 241.008C635.885 240.944 636.205 240.848 636.565 240.72L636.973 242.712C636.525 242.888 636.089 243.036 635.665 243.156C635.241 243.276 634.797 243.336 634.333 243.336ZM628.933 233.232V231.36H636.565V233.232H628.933ZM640.922 229.224C640.37 229.224 639.938 229.08 639.626 228.792C639.322 228.496 639.17 228.088 639.17 227.568C639.17 227.064 639.322 226.664 639.626 226.368C639.938 226.064 640.37 225.912 640.922 225.912C641.466 225.912 641.894 226.064 642.206 226.368C642.518 226.664 642.674 227.064 642.674 227.568C642.674 228.088 642.518 228.496 642.206 228.792C641.894 229.08 641.466 229.224 640.922 229.224ZM639.506 243V231.312H642.338V243H639.506ZM651.125 243.336C650.061 243.336 649.097 243.108 648.233 242.652C647.377 242.196 646.697 241.516 646.193 240.612C645.689 239.7 645.437 238.56 645.437 237.192C645.437 235.8 645.689 234.648 646.193 233.736C646.697 232.824 647.377 232.144 648.233 231.696C649.097 231.248 650.061 231.024 651.125 231.024C652.173 231.024 653.121 231.248 653.969 231.696C654.825 232.144 655.505 232.824 656.009 233.736C656.513 234.648 656.765 235.8 656.765 237.192C656.765 238.56 656.513 239.7 656.009 240.612C655.505 241.516 654.825 242.196 653.969 242.652C653.121 243.108 652.173 243.336 651.125 243.336ZM651.029 240.864C651.589 240.864 652.085 240.728 652.517 240.456C652.957 240.176 653.301 239.764 653.549 239.22C653.805 238.676 653.933 238 653.933 237.192C653.933 235.96 653.689 235.032 653.201 234.408C652.721 233.784 652.061 233.472 651.221 233.472C650.653 233.472 650.149 233.612 649.709 233.892C649.269 234.164 648.921 234.576 648.665 235.128C648.417 235.68 648.293 236.368 648.293 237.192C648.293 238.408 648.537 239.324 649.025 239.94C649.521 240.556 650.189 240.864 651.029 240.864ZM667.526 243V236.184C667.526 235.32 667.318 234.668 666.902 234.228C666.486 233.788 665.942 233.568 665.27 233.568C664.702 233.568 664.198 233.724 663.758 234.036C663.326 234.348 662.986 234.82 662.738 235.452C662.49 236.076 662.366 236.856 662.366 237.792H661.43C661.43 236.28 661.618 235.024 661.994 234.024C662.37 233.016 662.902 232.264 663.59 231.768C664.278 231.272 665.086 231.024 666.014 231.024C666.974 231.024 667.774 231.24 668.414 231.672C669.062 232.096 669.546 232.696 669.866 233.472C670.194 234.248 670.358 235.152 670.358 236.184V243H667.526ZM659.534 243V231.36H662.006L662.366 233.664V243H659.534ZM683.774 243.336C682.798 243.336 681.89 243.084 681.05 242.58C680.218 242.068 679.542 241.352 679.022 240.432C678.51 239.504 678.254 238.416 678.254 237.168C678.254 235.848 678.51 234.732 679.022 233.82C679.542 232.9 680.218 232.204 681.05 231.732C681.89 231.26 682.798 231.024 683.774 231.024C684.534 231.024 685.202 231.148 685.778 231.396C686.362 231.636 686.858 231.964 687.266 232.38C687.674 232.788 687.994 233.244 688.226 233.748C688.458 234.252 688.606 234.76 688.67 235.272L685.814 235.344C685.686 234.832 685.446 234.408 685.094 234.072C684.75 233.736 684.302 233.568 683.75 233.568C683.294 233.568 682.866 233.696 682.466 233.952C682.066 234.2 681.738 234.588 681.482 235.116C681.234 235.644 681.11 236.328 681.11 237.168C681.11 237.968 681.226 238.636 681.458 239.172C681.698 239.7 682.018 240.1 682.418 240.372C682.818 240.636 683.262 240.768 683.75 240.768C684.47 240.768 684.994 240.596 685.322 240.252C685.65 239.9 685.814 239.432 685.814 238.848H688.67C688.67 239.672 688.482 240.424 688.106 241.104C687.73 241.784 687.178 242.328 686.45 242.736C685.722 243.136 684.83 243.336 683.774 243.336ZM691.461 243V231.312H694.293V243H691.461ZM693.597 237.888C693.597 236.36 693.769 235.096 694.113 234.096C694.457 233.096 694.917 232.356 695.493 231.876C696.077 231.388 696.725 231.144 697.437 231.144C697.629 231.144 697.809 231.156 697.977 231.18C698.153 231.204 698.325 231.24 698.493 231.288L698.445 234.12C698.237 234.072 698.013 234.032 697.773 234C697.533 233.968 697.317 233.952 697.125 233.952C696.501 233.952 695.977 234.104 695.553 234.408C695.137 234.704 694.821 235.144 694.605 235.728C694.397 236.312 694.293 237.032 694.293 237.888H693.597ZM704.627 243.336C703.635 243.336 702.727 243.08 701.903 242.568C701.079 242.056 700.419 241.34 699.923 240.42C699.427 239.492 699.179 238.408 699.179 237.168C699.179 235.888 699.423 234.788 699.911 233.868C700.407 232.948 701.067 232.244 701.891 231.756C702.715 231.268 703.627 231.024 704.627 231.024C705.555 231.024 706.355 231.212 707.027 231.588C707.707 231.956 708.251 232.46 708.659 233.1C709.075 233.732 709.355 234.448 709.499 235.248C709.643 236.048 709.651 236.872 709.523 237.72H701.435V236.184H707.519L706.967 236.544C706.991 236.168 706.971 235.788 706.907 235.404C706.851 235.02 706.739 234.668 706.571 234.348C706.403 234.028 706.163 233.772 705.851 233.58C705.547 233.38 705.155 233.28 704.675 233.28C704.099 233.28 703.611 233.424 703.211 233.712C702.811 234 702.507 234.392 702.299 234.888C702.091 235.384 701.987 235.944 701.987 236.568V237.696C701.987 238.352 702.083 238.932 702.275 239.436C702.475 239.94 702.767 240.336 703.151 240.624C703.543 240.912 704.035 241.056 704.627 241.056C705.179 241.056 705.643 240.928 706.019 240.672C706.395 240.416 706.635 240.032 706.739 239.52H709.595C709.475 240.272 709.191 240.936 708.743 241.512C708.303 242.08 707.731 242.528 707.027 242.856C706.323 243.176 705.523 243.336 704.627 243.336ZM719.825 243L719.465 240.168V235.488C719.465 234.672 719.297 234.068 718.961 233.676C718.633 233.284 718.073 233.088 717.281 233.088C716.825 233.088 716.429 233.156 716.093 233.292C715.757 233.428 715.497 233.624 715.313 233.88C715.137 234.128 715.049 234.432 715.049 234.792H711.953C711.953 233.912 712.165 233.196 712.589 232.644C713.013 232.084 713.621 231.676 714.413 231.42C715.213 231.156 716.169 231.024 717.281 231.024C718.289 231.024 719.169 231.188 719.921 231.516C720.673 231.836 721.257 232.332 721.673 233.004C722.089 233.676 722.297 234.536 722.297 235.584V243H719.825ZM716.009 243.336C715.009 243.336 714.173 243.164 713.501 242.82C712.837 242.468 712.337 242.008 712.001 241.44C711.665 240.872 711.497 240.256 711.497 239.592C711.497 238.856 711.689 238.24 712.073 237.744C712.465 237.24 713.017 236.864 713.729 236.616C714.441 236.36 715.281 236.232 716.249 236.232C716.881 236.232 717.477 236.28 718.037 236.376C718.605 236.472 719.169 236.6 719.729 236.76V238.416C719.289 238.272 718.809 238.16 718.289 238.08C717.769 238 717.281 237.96 716.825 237.96C716.153 237.96 715.601 238.084 715.169 238.332C714.737 238.58 714.521 239 714.521 239.592C714.521 240.024 714.697 240.396 715.049 240.708C715.401 241.02 715.961 241.176 716.729 241.176C717.313 241.176 717.809 241.048 718.217 240.792C718.625 240.536 718.933 240.216 719.141 239.832C719.357 239.448 719.465 239.064 719.465 238.68H720.137C720.137 239.52 719.981 240.296 719.669 241.008C719.357 241.712 718.893 242.276 718.277 242.7C717.669 243.124 716.913 243.336 716.009 243.336ZM729.784 243.336C729.096 243.336 728.464 243.208 727.888 242.952C727.32 242.696 726.864 242.304 726.52 241.776C726.184 241.248 726.016 240.576 726.016 239.76V228.264H728.848V239.664C728.848 240.624 729.304 241.104 730.216 241.104C730.496 241.104 730.776 241.072 731.056 241.008C731.336 240.944 731.656 240.848 732.016 240.72L732.424 242.712C731.976 242.888 731.54 243.036 731.116 243.156C730.692 243.276 730.248 243.336 729.784 243.336ZM724.384 233.232V231.36H732.016V233.232H724.384ZM739.061 243.336C738.069 243.336 737.161 243.08 736.337 242.568C735.513 242.056 734.853 241.34 734.357 240.42C733.861 239.492 733.613 238.408 733.613 237.168C733.613 235.888 733.857 234.788 734.345 233.868C734.841 232.948 735.501 232.244 736.325 231.756C737.149 231.268 738.061 231.024 739.061 231.024C739.989 231.024 740.789 231.212 741.461 231.588C742.141 231.956 742.685 232.46 743.093 233.1C743.509 233.732 743.789 234.448 743.933 235.248C744.077 236.048 744.085 236.872 743.957 237.72H735.869V236.184H741.953L741.401 236.544C741.425 236.168 741.405 235.788 741.341 235.404C741.285 235.02 741.173 234.668 741.005 234.348C740.837 234.028 740.597 233.772 740.285 233.58C739.981 233.38 739.589 233.28 739.109 233.28C738.533 233.28 738.045 233.424 737.645 233.712C737.245 234 736.941 234.392 736.733 234.888C736.525 235.384 736.421 235.944 736.421 236.568V237.696C736.421 238.352 736.517 238.932 736.709 239.436C736.909 239.94 737.201 240.336 737.585 240.624C737.977 240.912 738.469 241.056 739.061 241.056C739.613 241.056 740.077 240.928 740.453 240.672C740.829 240.416 741.069 240.032 741.173 239.52H744.029C743.909 240.272 743.625 240.936 743.177 241.512C742.737 242.08 742.165 242.528 741.461 242.856C740.757 243.176 739.957 243.336 739.061 243.336ZM759.73 243L759.37 240.168V235.488C759.37 234.672 759.202 234.068 758.866 233.676C758.538 233.284 757.978 233.088 757.186 233.088C756.73 233.088 756.334 233.156 755.998 233.292C755.662 233.428 755.402 233.624 755.218 233.88C755.042 234.128 754.954 234.432 754.954 234.792H751.858C751.858 233.912 752.07 233.196 752.494 232.644C752.918 232.084 753.526 231.676 754.318 231.42C755.118 231.156 756.074 231.024 757.186 231.024C758.194 231.024 759.074 231.188 759.826 231.516C760.578 231.836 761.162 232.332 761.578 233.004C761.994 233.676 762.202 234.536 762.202 235.584V243H759.73ZM755.914 243.336C754.914 243.336 754.078 243.164 753.406 242.82C752.742 242.468 752.242 242.008 751.906 241.44C751.57 240.872 751.402 240.256 751.402 239.592C751.402 238.856 751.594 238.24 751.978 237.744C752.37 237.24 752.922 236.864 753.634 236.616C754.346 236.36 755.186 236.232 756.154 236.232C756.786 236.232 757.382 236.28 757.942 236.376C758.51 236.472 759.074 236.6 759.634 236.76V238.416C759.194 238.272 758.714 238.16 758.194 238.08C757.674 238 757.186 237.96 756.73 237.96C756.058 237.96 755.506 238.084 755.074 238.332C754.642 238.58 754.426 239 754.426 239.592C754.426 240.024 754.602 240.396 754.954 240.708C755.306 241.02 755.866 241.176 756.634 241.176C757.218 241.176 757.714 241.048 758.122 240.792C758.53 240.536 758.838 240.216 759.046 239.832C759.262 239.448 759.37 239.064 759.37 238.68H760.042C760.042 239.52 759.886 240.296 759.574 241.008C759.262 241.712 758.798 242.276 758.182 242.7C757.574 243.124 756.818 243.336 755.914 243.336ZM778.975 231.312H781.807V243H778.975V231.312ZM770.983 231.312H773.815V238.464C773.815 239.224 774.003 239.796 774.379 240.18C774.755 240.556 775.271 240.744 775.927 240.744C776.487 240.744 776.995 240.6 777.451 240.312C777.915 240.016 778.283 239.584 778.555 239.016C778.835 238.44 778.975 237.728 778.975 236.88H779.743C779.743 238.304 779.559 239.484 779.191 240.42C778.823 241.356 778.315 242.056 777.667 242.52C777.019 242.984 776.271 243.216 775.423 243.216C774.591 243.216 773.839 243.068 773.167 242.772C772.495 242.476 771.963 242 771.571 241.344C771.179 240.688 770.983 239.824 770.983 238.752V231.312ZM793.662 243V236.184C793.662 235.32 793.454 234.668 793.038 234.228C792.622 233.788 792.078 233.568 791.406 233.568C790.838 233.568 790.334 233.724 789.894 234.036C789.462 234.348 789.122 234.82 788.874 235.452C788.626 236.076 788.502 236.856 788.502 237.792H787.566C787.566 236.28 787.754 235.024 788.13 234.024C788.506 233.016 789.038 232.264 789.726 231.768C790.414 231.272 791.222 231.024 792.15 231.024C793.11 231.024 793.91 231.24 794.55 231.672C795.198 232.096 795.682 232.696 796.002 233.472C796.33 234.248 796.494 235.152 796.494 236.184V243H793.662ZM785.67 243V231.36H788.142L788.502 233.664V243H785.67ZM801.679 229.224C801.127 229.224 800.695 229.08 800.383 228.792C800.079 228.496 799.927 228.088 799.927 227.568C799.927 227.064 800.079 226.664 800.383 226.368C800.695 226.064 801.127 225.912 801.679 225.912C802.223 225.912 802.651 226.064 802.963 226.368C803.275 226.664 803.431 227.064 803.431 227.568C803.431 228.088 803.275 228.496 802.963 228.792C802.651 229.08 802.223 229.224 801.679 229.224ZM800.263 243V231.312H803.095V243H800.263ZM811.642 243.336C810.69 243.336 809.798 243.092 808.966 242.604C808.142 242.116 807.474 241.412 806.962 240.492C806.45 239.572 806.194 238.464 806.194 237.168C806.194 235.88 806.446 234.78 806.95 233.868C807.454 232.948 808.11 232.244 808.918 231.756C809.726 231.268 810.586 231.024 811.498 231.024C812.25 231.024 812.942 231.212 813.574 231.588C814.206 231.964 814.714 232.544 815.098 233.328C815.482 234.104 815.674 235.104 815.674 236.328H814.618C814.618 235.744 814.498 235.248 814.258 234.84C814.026 234.424 813.71 234.108 813.31 233.892C812.918 233.676 812.482 233.568 812.002 233.568C811.434 233.568 810.926 233.712 810.478 234C810.038 234.288 809.69 234.704 809.434 235.248C809.178 235.784 809.05 236.424 809.05 237.168C809.05 237.984 809.198 238.66 809.494 239.196C809.798 239.724 810.178 240.12 810.634 240.384C811.098 240.64 811.57 240.768 812.05 240.768C812.49 240.768 812.906 240.672 813.298 240.48C813.69 240.28 814.006 239.996 814.246 239.628C814.494 239.26 814.618 238.816 814.618 238.296H815.17C815.17 239.288 815.054 240.164 814.822 240.924C814.59 241.676 814.214 242.268 813.694 242.7C813.182 243.124 812.498 243.336 811.642 243.336ZM818.242 249.024C816.938 248.696 816.006 248.184 815.446 247.488C814.894 246.792 814.618 245.824 814.618 244.584V234.24L815.626 231.36H817.45V244.8C817.45 245.272 817.498 245.64 817.594 245.904C817.69 246.176 817.854 246.388 818.086 246.54C818.326 246.692 818.65 246.832 819.058 246.96L818.242 249.024ZM829.099 231.312H831.931V243H829.099V231.312ZM821.107 231.312H823.939V238.464C823.939 239.224 824.127 239.796 824.503 240.18C824.879 240.556 825.395 240.744 826.051 240.744C826.611 240.744 827.119 240.6 827.575 240.312C828.039 240.016 828.407 239.584 828.679 239.016C828.959 238.44 829.099 237.728 829.099 236.88H829.867C829.867 238.304 829.683 239.484 829.315 240.42C828.947 241.356 828.439 242.056 827.791 242.52C827.143 242.984 826.395 243.216 825.547 243.216C824.715 243.216 823.963 243.068 823.291 242.772C822.619 242.476 822.087 242 821.695 241.344C821.303 240.688 821.107 239.824 821.107 238.752V231.312ZM840.138 243.336C839.146 243.336 838.238 243.08 837.414 242.568C836.59 242.056 835.93 241.34 835.434 240.42C834.938 239.492 834.69 238.408 834.69 237.168C834.69 235.888 834.934 234.788 835.422 233.868C835.918 232.948 836.578 232.244 837.402 231.756C838.226 231.268 839.138 231.024 840.138 231.024C841.066 231.024 841.866 231.212 842.538 231.588C843.218 231.956 843.762 232.46 844.17 233.1C844.586 233.732 844.866 234.448 845.01 235.248C845.154 236.048 845.162 236.872 845.034 237.72H836.946V236.184H843.03L842.478 236.544C842.502 236.168 842.482 235.788 842.418 235.404C842.362 235.02 842.25 234.668 842.082 234.348C841.914 234.028 841.674 233.772 841.362 233.58C841.058 233.38 840.666 233.28 840.186 233.28C839.61 233.28 839.122 233.424 838.722 233.712C838.322 234 838.018 234.392 837.81 234.888C837.602 235.384 837.498 235.944 837.498 236.568V237.696C837.498 238.352 837.594 238.932 837.786 239.436C837.986 239.94 838.278 240.336 838.662 240.624C839.054 240.912 839.546 241.056 840.138 241.056C840.69 241.056 841.154 240.928 841.53 240.672C841.906 240.416 842.146 240.032 842.25 239.52H845.106C844.986 240.272 844.702 240.936 844.254 241.512C843.814 242.08 843.242 242.528 842.538 242.856C841.834 243.176 841.034 243.336 840.138 243.336ZM859.223 243.336C858.367 243.336 857.639 243.152 857.039 242.784C856.439 242.416 855.979 241.86 855.659 241.116C855.347 240.364 855.191 239.424 855.191 238.296H856.223C856.223 238.816 856.343 239.26 856.583 239.628C856.823 239.996 857.139 240.28 857.531 240.48C857.931 240.672 858.359 240.768 858.815 240.768C859.287 240.768 859.751 240.64 860.207 240.384C860.671 240.12 861.055 239.724 861.359 239.196C861.663 238.66 861.815 237.984 861.815 237.168C861.815 236.424 861.687 235.784 861.431 235.248C861.175 234.704 860.823 234.288 860.375 234C859.935 233.712 859.431 233.568 858.863 233.568C858.383 233.568 857.943 233.676 857.543 233.892C857.143 234.108 856.823 234.424 856.583 234.84C856.343 235.248 856.223 235.744 856.223 236.328H855.191C855.191 235.104 855.379 234.104 855.755 233.328C856.131 232.544 856.635 231.964 857.267 231.588C857.899 231.212 858.591 231.024 859.343 231.024C860.263 231.024 861.127 231.268 861.935 231.756C862.751 232.244 863.411 232.948 863.915 233.868C864.419 234.78 864.671 235.88 864.671 237.168C864.671 238.464 864.415 239.572 863.903 240.492C863.391 241.412 862.719 242.116 861.887 242.604C861.063 243.092 860.175 243.336 859.223 243.336ZM853.391 248.688V231.36H855.719L856.223 234.24V248.688H853.391ZM871.783 243.336C870.791 243.336 869.883 243.08 869.059 242.568C868.235 242.056 867.575 241.34 867.079 240.42C866.583 239.492 866.335 238.408 866.335 237.168C866.335 235.888 866.579 234.788 867.067 233.868C867.563 232.948 868.223 232.244 869.047 231.756C869.871 231.268 870.783 231.024 871.783 231.024C872.711 231.024 873.511 231.212 874.183 231.588C874.863 231.956 875.407 232.46 875.815 233.1C876.231 233.732 876.511 234.448 876.655 235.248C876.799 236.048 876.807 236.872 876.679 237.72H868.591V236.184H874.675L874.123 236.544C874.147 236.168 874.127 235.788 874.063 235.404C874.007 235.02 873.895 234.668 873.727 234.348C873.559 234.028 873.319 233.772 873.007 233.58C872.703 233.38 872.311 233.28 871.831 233.28C871.255 233.28 870.767 233.424 870.367 233.712C869.967 234 869.663 234.392 869.455 234.888C869.247 235.384 869.143 235.944 869.143 236.568V237.696C869.143 238.352 869.239 238.932 869.431 239.436C869.631 239.94 869.923 240.336 870.307 240.624C870.699 240.912 871.191 241.056 871.783 241.056C872.335 241.056 872.799 240.928 873.175 240.672C873.551 240.416 873.791 240.032 873.895 239.52H876.751C876.631 240.272 876.347 240.936 875.899 241.512C875.459 242.08 874.887 242.528 874.183 242.856C873.479 243.176 872.679 243.336 871.783 243.336ZM879.566 243V231.312H882.398V243H879.566ZM881.702 237.888C881.702 236.36 881.874 235.096 882.218 234.096C882.562 233.096 883.022 232.356 883.598 231.876C884.182 231.388 884.83 231.144 885.542 231.144C885.734 231.144 885.914 231.156 886.082 231.18C886.258 231.204 886.43 231.24 886.598 231.288L886.55 234.12C886.342 234.072 886.118 234.032 885.878 234C885.638 233.968 885.422 233.952 885.23 233.952C884.606 233.952 884.082 234.104 883.658 234.408C883.242 234.704 882.926 235.144 882.71 235.728C882.502 236.312 882.398 237.032 882.398 237.888H881.702ZM892.731 243.336C891.611 243.336 890.647 243.184 889.839 242.88C889.039 242.568 888.423 242.124 887.991 241.548C887.559 240.964 887.339 240.264 887.331 239.448H889.947C889.971 240.024 890.199 240.444 890.631 240.708C891.063 240.972 891.651 241.104 892.395 241.104C892.803 241.104 893.163 241.044 893.475 240.924C893.795 240.804 894.043 240.64 894.219 240.432C894.395 240.224 894.483 239.992 894.483 239.736C894.483 239.408 894.363 239.152 894.123 238.968C893.891 238.776 893.515 238.6 892.995 238.44L890.451 237.528C889.539 237.2 888.839 236.768 888.351 236.232C887.863 235.696 887.619 235.056 887.619 234.312C887.619 233.328 888.063 232.536 888.951 231.936C889.847 231.328 891.043 231.024 892.539 231.024C894.027 231.024 895.175 231.352 895.983 232.008C896.799 232.656 897.219 233.48 897.243 234.48H894.579C894.539 234.096 894.355 233.792 894.027 233.568C893.699 233.344 893.203 233.232 892.539 233.232C891.939 233.232 891.467 233.356 891.123 233.604C890.787 233.844 890.619 234.128 890.619 234.456C890.619 235.008 891.091 235.424 892.035 235.704L894.795 236.736C895.691 237.04 896.387 237.432 896.883 237.912C897.379 238.392 897.627 239 897.627 239.736C897.627 240.352 897.419 240.936 897.003 241.488C896.595 242.032 896.023 242.476 895.287 242.82C894.551 243.164 893.699 243.336 892.731 243.336ZM905.028 243.336C903.964 243.336 903 243.108 902.136 242.652C901.28 242.196 900.6 241.516 900.096 240.612C899.592 239.7 899.34 238.56 899.34 237.192C899.34 235.8 899.592 234.648 900.096 233.736C900.6 232.824 901.28 232.144 902.136 231.696C903 231.248 903.964 231.024 905.028 231.024C906.076 231.024 907.024 231.248 907.872 231.696C908.728 232.144 909.408 232.824 909.912 233.736C910.416 234.648 910.668 235.8 910.668 237.192C910.668 238.56 910.416 239.7 909.912 240.612C909.408 241.516 908.728 242.196 907.872 242.652C907.024 243.108 906.076 243.336 905.028 243.336ZM904.932 240.864C905.492 240.864 905.988 240.728 906.42 240.456C906.86 240.176 907.204 239.764 907.452 239.22C907.708 238.676 907.836 238 907.836 237.192C907.836 235.96 907.592 235.032 907.104 234.408C906.624 233.784 905.964 233.472 905.124 233.472C904.556 233.472 904.052 233.612 903.612 233.892C903.172 234.164 902.824 234.576 902.568 235.128C902.32 235.68 902.196 236.368 902.196 237.192C902.196 238.408 902.44 239.324 902.928 239.94C903.424 240.556 904.092 240.864 904.932 240.864ZM921.429 243V236.184C921.429 235.32 921.221 234.668 920.805 234.228C920.389 233.788 919.845 233.568 919.173 233.568C918.605 233.568 918.101 233.724 917.661 234.036C917.229 234.348 916.889 234.82 916.641 235.452C916.393 236.076 916.269 236.856 916.269 237.792H915.333C915.333 236.28 915.521 235.024 915.897 234.024C916.273 233.016 916.805 232.264 917.493 231.768C918.181 231.272 918.989 231.024 919.917 231.024C920.877 231.024 921.677 231.24 922.317 231.672C922.965 232.096 923.449 232.696 923.769 233.472C924.097 234.248 924.261 235.152 924.261 236.184V243H921.429ZM913.437 243V231.36H915.909L916.269 233.664V243H913.437ZM935.207 243L934.847 240.168V235.488C934.847 234.672 934.679 234.068 934.343 233.676C934.015 233.284 933.455 233.088 932.663 233.088C932.207 233.088 931.811 233.156 931.475 233.292C931.139 233.428 930.879 233.624 930.695 233.88C930.519 234.128 930.431 234.432 930.431 234.792H927.335C927.335 233.912 927.547 233.196 927.971 232.644C928.395 232.084 929.003 231.676 929.795 231.42C930.595 231.156 931.551 231.024 932.663 231.024C933.671 231.024 934.551 231.188 935.303 231.516C936.055 231.836 936.639 232.332 937.055 233.004C937.471 233.676 937.679 234.536 937.679 235.584V243H935.207ZM931.391 243.336C930.391 243.336 929.555 243.164 928.883 242.82C928.219 242.468 927.719 242.008 927.383 241.44C927.047 240.872 926.879 240.256 926.879 239.592C926.879 238.856 927.071 238.24 927.455 237.744C927.847 237.24 928.399 236.864 929.111 236.616C929.823 236.36 930.663 236.232 931.631 236.232C932.263 236.232 932.859 236.28 933.419 236.376C933.987 236.472 934.551 236.6 935.111 236.76V238.416C934.671 238.272 934.191 238.16 933.671 238.08C933.151 238 932.663 237.96 932.207 237.96C931.535 237.96 930.983 238.084 930.551 238.332C930.119 238.58 929.903 239 929.903 239.592C929.903 240.024 930.079 240.396 930.431 240.708C930.783 241.02 931.343 241.176 932.111 241.176C932.695 241.176 933.191 241.048 933.599 240.792C934.007 240.536 934.315 240.216 934.523 239.832C934.739 239.448 934.847 239.064 934.847 238.68H935.519C935.519 239.52 935.363 240.296 935.051 241.008C934.739 241.712 934.275 242.276 933.659 242.7C933.051 243.124 932.295 243.336 931.391 243.336ZM941.23 243V226.536H944.062V243H941.23ZM957.756 243.336C956.636 243.336 955.672 243.184 954.864 242.88C954.064 242.568 953.448 242.124 953.016 241.548C952.584 240.964 952.364 240.264 952.356 239.448H954.972C954.996 240.024 955.224 240.444 955.656 240.708C956.088 240.972 956.676 241.104 957.42 241.104C957.828 241.104 958.188 241.044 958.5 240.924C958.82 240.804 959.068 240.64 959.244 240.432C959.42 240.224 959.508 239.992 959.508 239.736C959.508 239.408 959.388 239.152 959.148 238.968C958.916 238.776 958.54 238.6 958.02 238.44L955.476 237.528C954.564 237.2 953.864 236.768 953.376 236.232C952.888 235.696 952.644 235.056 952.644 234.312C952.644 233.328 953.088 232.536 953.976 231.936C954.872 231.328 956.068 231.024 957.564 231.024C959.052 231.024 960.2 231.352 961.008 232.008C961.824 232.656 962.244 233.48 962.268 234.48H959.604C959.564 234.096 959.38 233.792 959.052 233.568C958.724 233.344 958.228 233.232 957.564 233.232C956.964 233.232 956.492 233.356 956.148 233.604C955.812 233.844 955.644 234.128 955.644 234.456C955.644 235.008 956.116 235.424 957.06 235.704L959.82 236.736C960.716 237.04 961.412 237.432 961.908 237.912C962.404 238.392 962.652 239 962.652 239.736C962.652 240.352 962.444 240.936 962.028 241.488C961.62 242.032 961.048 242.476 960.312 242.82C959.576 243.164 958.724 243.336 957.756 243.336ZM973.461 243V236.184C973.461 235.32 973.253 234.668 972.837 234.228C972.421 233.788 971.877 233.568 971.205 233.568C970.637 233.568 970.133 233.724 969.693 234.036C969.261 234.348 968.921 234.82 968.673 235.452C968.425 236.076 968.301 236.856 968.301 237.792H967.365C967.365 236.28 967.553 235.024 967.929 234.024C968.305 233.016 968.837 232.264 969.525 231.768C970.213 231.272 971.021 231.024 971.949 231.024C972.909 231.024 973.709 231.24 974.349 231.672C974.997 232.096 975.481 232.696 975.801 233.472C976.129 234.248 976.293 235.152 976.293 236.184V243H973.461ZM965.469 243V226.536H968.301V243H965.469ZM984.406 243.336C983.342 243.336 982.378 243.108 981.514 242.652C980.658 242.196 979.978 241.516 979.474 240.612C978.97 239.7 978.718 238.56 978.718 237.192C978.718 235.8 978.97 234.648 979.474 233.736C979.978 232.824 980.658 232.144 981.514 231.696C982.378 231.248 983.342 231.024 984.406 231.024C985.454 231.024 986.402 231.248 987.25 231.696C988.106 232.144 988.786 232.824 989.29 233.736C989.794 234.648 990.046 235.8 990.046 237.192C990.046 238.56 989.794 239.7 989.29 240.612C988.786 241.516 988.106 242.196 987.25 242.652C986.402 243.108 985.454 243.336 984.406 243.336ZM984.31 240.864C984.87 240.864 985.366 240.728 985.798 240.456C986.238 240.176 986.582 239.764 986.83 239.22C987.086 238.676 987.214 238 987.214 237.192C987.214 235.96 986.97 235.032 986.482 234.408C986.002 233.784 985.342 233.472 984.502 233.472C983.934 233.472 983.43 233.612 982.99 233.892C982.55 234.164 982.202 234.576 981.946 235.128C981.698 235.68 981.574 236.368 981.574 237.192C981.574 238.408 981.818 239.324 982.306 239.94C982.802 240.556 983.47 240.864 984.31 240.864ZM998.648 243.336C997.792 243.336 997.064 243.152 996.464 242.784C995.864 242.416 995.404 241.86 995.084 241.116C994.772 240.364 994.616 239.424 994.616 238.296H995.648C995.648 238.816 995.768 239.26 996.008 239.628C996.248 239.996 996.564 240.28 996.956 240.48C997.356 240.672 997.784 240.768 998.24 240.768C998.712 240.768 999.176 240.64 999.632 240.384C1000.1 240.12 1000.48 239.724 1000.78 239.196C1001.09 238.66 1001.24 237.984 1001.24 237.168C1001.24 236.424 1001.11 235.784 1000.86 235.248C1000.6 234.704 1000.25 234.288 999.8 234C999.36 233.712 998.856 233.568 998.288 233.568C997.808 233.568 997.368 233.676 996.968 233.892C996.568 234.108 996.248 234.424 996.008 234.84C995.768 235.248 995.648 235.744 995.648 236.328H994.616C994.616 235.104 994.804 234.104 995.18 233.328C995.556 232.544 996.06 231.964 996.692 231.588C997.324 231.212 998.016 231.024 998.768 231.024C999.688 231.024 1000.55 231.268 1001.36 231.756C1002.18 232.244 1002.84 232.948 1003.34 233.868C1003.84 234.78 1004.1 235.88 1004.1 237.168C1004.1 238.464 1003.84 239.572 1003.33 240.492C1002.82 241.412 1002.14 242.116 1001.31 242.604C1000.49 243.092 999.6 243.336 998.648 243.336ZM992.816 248.688V231.36H995.144L995.648 234.24V248.688H992.816ZM1012.7 243.336C1011.84 243.336 1011.11 243.152 1010.51 242.784C1009.91 242.416 1009.45 241.86 1009.13 241.116C1008.82 240.364 1008.66 239.424 1008.66 238.296H1009.7C1009.7 238.816 1009.82 239.26 1010.06 239.628C1010.3 239.996 1010.61 240.28 1011 240.48C1011.4 240.672 1011.83 240.768 1012.29 240.768C1012.76 240.768 1013.22 240.64 1013.68 240.384C1014.14 240.12 1014.53 239.724 1014.83 239.196C1015.14 238.66 1015.29 237.984 1015.29 237.168C1015.29 236.424 1015.16 235.784 1014.9 235.248C1014.65 234.704 1014.3 234.288 1013.85 234C1013.41 233.712 1012.9 233.568 1012.34 233.568C1011.86 233.568 1011.42 233.676 1011.02 233.892C1010.62 234.108 1010.3 234.424 1010.06 234.84C1009.82 235.248 1009.7 235.744 1009.7 236.328H1008.66C1008.66 235.104 1008.85 234.104 1009.23 233.328C1009.6 232.544 1010.11 231.964 1010.74 231.588C1011.37 231.212 1012.06 231.024 1012.82 231.024C1013.74 231.024 1014.6 231.268 1015.41 231.756C1016.22 232.244 1016.88 232.948 1017.39 233.868C1017.89 234.78 1018.14 235.88 1018.14 237.168C1018.14 238.464 1017.89 239.572 1017.38 240.492C1016.86 241.412 1016.19 242.116 1015.36 242.604C1014.54 243.092 1013.65 243.336 1012.7 243.336ZM1006.86 248.688V231.36H1009.19L1009.7 234.24V248.688H1006.86ZM1022.57 229.224C1022.02 229.224 1021.58 229.08 1021.27 228.792C1020.97 228.496 1020.82 228.088 1020.82 227.568C1020.82 227.064 1020.97 226.664 1021.27 226.368C1021.58 226.064 1022.02 225.912 1022.57 225.912C1023.11 225.912 1023.54 226.064 1023.85 226.368C1024.16 226.664 1024.32 227.064 1024.32 227.568C1024.32 228.088 1024.16 228.496 1023.85 228.792C1023.54 229.08 1023.11 229.224 1022.57 229.224ZM1021.15 243V231.312H1023.98V243H1021.15ZM1036.18 243V236.184C1036.18 235.32 1035.97 234.668 1035.56 234.228C1035.14 233.788 1034.6 233.568 1033.92 233.568C1033.36 233.568 1032.85 233.724 1032.41 234.036C1031.98 234.348 1031.64 234.82 1031.39 235.452C1031.14 236.076 1031.02 236.856 1031.02 237.792H1030.08C1030.08 236.28 1030.27 235.024 1030.65 234.024C1031.02 233.016 1031.56 232.264 1032.24 231.768C1032.93 231.272 1033.74 231.024 1034.67 231.024C1035.63 231.024 1036.43 231.24 1037.07 231.672C1037.72 232.096 1038.2 232.696 1038.52 233.472C1038.85 234.248 1039.01 235.152 1039.01 236.184V243H1036.18ZM1028.19 243V231.36H1030.66L1031.02 233.664V243H1028.19ZM1047.03 249.024C1045.69 249.024 1044.55 248.84 1043.6 248.472C1042.65 248.104 1041.93 247.62 1041.42 247.02C1040.92 246.428 1040.67 245.784 1040.67 245.088C1040.67 244.264 1040.97 243.624 1041.57 243.168C1042.17 242.72 1042.92 242.496 1043.84 242.496L1045.9 243.264C1045.12 243.264 1044.51 243.412 1044.09 243.708C1043.66 244.004 1043.45 244.416 1043.45 244.944C1043.45 245.496 1043.77 245.936 1044.4 246.264C1045.04 246.6 1045.92 246.768 1047.03 246.768C1047.84 246.768 1048.54 246.648 1049.13 246.408C1049.72 246.168 1050.18 245.856 1050.5 245.472C1050.82 245.088 1050.99 244.68 1050.99 244.248C1050.99 243.96 1050.89 243.724 1050.7 243.54C1050.51 243.356 1050.21 243.264 1049.81 243.264H1045.9C1045.12 243.264 1044.4 243.14 1043.75 242.892C1043.11 242.636 1042.6 242.296 1042.22 241.872C1041.84 241.44 1041.65 240.96 1041.65 240.432C1041.65 239.944 1041.79 239.524 1042.06 239.172C1042.33 238.812 1042.7 238.536 1043.16 238.344C1043.64 238.152 1044.16 238.056 1044.75 238.056L1045.47 238.992C1045.24 238.992 1045.01 239.04 1044.8 239.136C1044.59 239.224 1044.42 239.356 1044.28 239.532C1044.14 239.708 1044.08 239.928 1044.08 240.192C1044.08 240.512 1044.21 240.772 1044.48 240.972C1044.76 241.172 1045.23 241.272 1045.9 241.272H1049.81C1051.05 241.272 1052.02 241.5 1052.73 241.956C1053.44 242.412 1053.8 243.112 1053.8 244.056C1053.8 244.896 1053.52 245.692 1052.97 246.444C1052.42 247.204 1051.63 247.824 1050.62 248.304C1049.61 248.784 1048.41 249.024 1047.03 249.024ZM1047.17 239.4C1046.25 239.4 1045.41 239.228 1044.64 238.884C1043.88 238.532 1043.27 238.044 1042.82 237.42C1042.36 236.796 1042.13 236.064 1042.13 235.224C1042.13 234.368 1042.36 233.624 1042.82 232.992C1043.27 232.36 1043.88 231.876 1044.64 231.54C1045.41 231.196 1046.25 231.024 1047.17 231.024C1048.07 231.024 1048.9 231.196 1049.66 231.54C1050.42 231.876 1051.03 232.36 1051.49 232.992C1051.96 233.624 1052.19 234.368 1052.19 235.224C1052.19 236.064 1051.96 236.796 1051.49 237.42C1051.03 238.044 1050.42 238.532 1049.66 238.884C1048.9 239.228 1048.07 239.4 1047.17 239.4ZM1047.2 237.432C1047.93 237.432 1048.48 237.22 1048.85 236.796C1049.22 236.372 1049.4 235.848 1049.4 235.224C1049.4 234.552 1049.22 234.012 1048.84 233.604C1048.47 233.196 1047.92 232.992 1047.17 232.992C1046.45 232.992 1045.9 233.196 1045.52 233.604C1045.13 234.012 1044.94 234.552 1044.94 235.224C1044.94 235.848 1045.13 236.372 1045.52 236.796C1045.91 237.22 1046.47 237.432 1047.2 237.432ZM1051.3 232.896L1050 232.152C1050 231.456 1050.16 230.848 1050.48 230.328C1050.81 229.8 1051.24 229.392 1051.78 229.104C1052.32 228.816 1052.92 228.672 1053.58 228.672L1053.44 231.384C1052.74 231.384 1052.21 231.508 1051.84 231.756C1051.48 231.996 1051.3 232.376 1051.3 232.896ZM454.216 284.336C453.224 284.336 452.316 284.08 451.492 283.568C450.668 283.056 450.008 282.34 449.512 281.42C449.016 280.492 448.768 279.408 448.768 278.168C448.768 276.888 449.012 275.788 449.5 274.868C449.996 273.948 450.656 273.244 451.48 272.756C452.304 272.268 453.216 272.024 454.216 272.024C455.144 272.024 455.944 272.212 456.616 272.588C457.296 272.956 457.84 273.46 458.248 274.1C458.664 274.732 458.944 275.448 459.088 276.248C459.232 277.048 459.24 277.872 459.112 278.72H451.024V277.184H457.108L456.556 277.544C456.58 277.168 456.56 276.788 456.496 276.404C456.44 276.02 456.328 275.668 456.16 275.348C455.992 275.028 455.752 274.772 455.44 274.58C455.136 274.38 454.744 274.28 454.264 274.28C453.688 274.28 453.2 274.424 452.8 274.712C452.4 275 452.096 275.392 451.888 275.888C451.68 276.384 451.576 276.944 451.576 277.568V278.696C451.576 279.352 451.672 279.932 451.864 280.436C452.064 280.94 452.356 281.336 452.74 281.624C453.132 281.912 453.624 282.056 454.216 282.056C454.768 282.056 455.232 281.928 455.608 281.672C455.984 281.416 456.224 281.032 456.328 280.52H459.184C459.064 281.272 458.78 281.936 458.332 282.512C457.892 283.08 457.32 283.528 456.616 283.856C455.912 284.176 455.112 284.336 454.216 284.336ZM460.15 284L464.686 278.192L460.15 272.312H463.63L466.486 276.056L469.198 272.312H472.654L468.142 278.192L472.654 284H469.198L466.294 280.256L463.63 284H460.15ZM480.519 284.336C479.663 284.336 478.935 284.152 478.335 283.784C477.735 283.416 477.275 282.86 476.955 282.116C476.643 281.364 476.487 280.424 476.487 279.296H477.519C477.519 279.816 477.639 280.26 477.879 280.628C478.119 280.996 478.435 281.28 478.827 281.48C479.227 281.672 479.655 281.768 480.111 281.768C480.583 281.768 481.047 281.64 481.503 281.384C481.967 281.12 482.351 280.724 482.655 280.196C482.959 279.66 483.111 278.984 483.111 278.168C483.111 277.424 482.983 276.784 482.727 276.248C482.471 275.704 482.119 275.288 481.671 275C481.231 274.712 480.727 274.568 480.159 274.568C479.679 274.568 479.239 274.676 478.839 274.892C478.439 275.108 478.119 275.424 477.879 275.84C477.639 276.248 477.519 276.744 477.519 277.328H476.487C476.487 276.104 476.675 275.104 477.051 274.328C477.427 273.544 477.931 272.964 478.563 272.588C479.195 272.212 479.887 272.024 480.639 272.024C481.559 272.024 482.423 272.268 483.231 272.756C484.047 273.244 484.707 273.948 485.211 274.868C485.715 275.78 485.967 276.88 485.967 278.168C485.967 279.464 485.711 280.572 485.199 281.492C484.687 282.412 484.015 283.116 483.183 283.604C482.359 284.092 481.471 284.336 480.519 284.336ZM474.687 289.688V272.36H477.015L477.519 275.24V289.688H474.687ZM493.08 284.336C492.088 284.336 491.18 284.08 490.356 283.568C489.532 283.056 488.872 282.34 488.376 281.42C487.88 280.492 487.632 279.408 487.632 278.168C487.632 276.888 487.876 275.788 488.364 274.868C488.86 273.948 489.52 273.244 490.344 272.756C491.168 272.268 492.08 272.024 493.08 272.024C494.008 272.024 494.808 272.212 495.48 272.588C496.16 272.956 496.704 273.46 497.112 274.1C497.528 274.732 497.808 275.448 497.952 276.248C498.096 277.048 498.104 277.872 497.976 278.72H489.888V277.184H495.972L495.42 277.544C495.444 277.168 495.424 276.788 495.36 276.404C495.304 276.02 495.192 275.668 495.024 275.348C494.856 275.028 494.616 274.772 494.304 274.58C494 274.38 493.608 274.28 493.128 274.28C492.552 274.28 492.064 274.424 491.664 274.712C491.264 275 490.96 275.392 490.752 275.888C490.544 276.384 490.44 276.944 490.44 277.568V278.696C490.44 279.352 490.536 279.932 490.728 280.436C490.928 280.94 491.22 281.336 491.604 281.624C491.996 281.912 492.488 282.056 493.08 282.056C493.632 282.056 494.096 281.928 494.472 281.672C494.848 281.416 495.088 281.032 495.192 280.52H498.048C497.928 281.272 497.644 281.936 497.196 282.512C496.756 283.08 496.184 283.528 495.48 283.856C494.776 284.176 493.976 284.336 493.08 284.336ZM500.862 284V272.312H503.694V284H500.862ZM502.998 278.888C502.998 277.36 503.17 276.096 503.514 275.096C503.858 274.096 504.318 273.356 504.894 272.876C505.478 272.388 506.126 272.144 506.838 272.144C507.03 272.144 507.21 272.156 507.378 272.18C507.554 272.204 507.726 272.24 507.894 272.288L507.846 275.12C507.638 275.072 507.414 275.032 507.174 275C506.934 274.968 506.718 274.952 506.526 274.952C505.902 274.952 505.378 275.104 504.954 275.408C504.538 275.704 504.222 276.144 504.006 276.728C503.798 277.312 503.694 278.032 503.694 278.888H502.998ZM511.34 270.224C510.788 270.224 510.356 270.08 510.044 269.792C509.74 269.496 509.588 269.088 509.588 268.568C509.588 268.064 509.74 267.664 510.044 267.368C510.356 267.064 510.788 266.912 511.34 266.912C511.884 266.912 512.312 267.064 512.624 267.368C512.936 267.664 513.092 268.064 513.092 268.568C513.092 269.088 512.936 269.496 512.624 269.792C512.312 270.08 511.884 270.224 511.34 270.224ZM509.924 284V272.312H512.756V284H509.924ZM521.303 284.336C520.311 284.336 519.403 284.08 518.579 283.568C517.755 283.056 517.095 282.34 516.599 281.42C516.103 280.492 515.855 279.408 515.855 278.168C515.855 276.888 516.099 275.788 516.587 274.868C517.083 273.948 517.743 273.244 518.567 272.756C519.391 272.268 520.303 272.024 521.303 272.024C522.231 272.024 523.031 272.212 523.703 272.588C524.383 272.956 524.927 273.46 525.335 274.1C525.751 274.732 526.031 275.448 526.175 276.248C526.319 277.048 526.327 277.872 526.199 278.72H518.111V277.184H524.195L523.643 277.544C523.667 277.168 523.647 276.788 523.583 276.404C523.527 276.02 523.415 275.668 523.247 275.348C523.079 275.028 522.839 274.772 522.527 274.58C522.223 274.38 521.831 274.28 521.351 274.28C520.775 274.28 520.287 274.424 519.887 274.712C519.487 275 519.183 275.392 518.975 275.888C518.767 276.384 518.663 276.944 518.663 277.568V278.696C518.663 279.352 518.759 279.932 518.951 280.436C519.151 280.94 519.443 281.336 519.827 281.624C520.219 281.912 520.711 282.056 521.303 282.056C521.855 282.056 522.319 281.928 522.695 281.672C523.071 281.416 523.311 281.032 523.415 280.52H526.271C526.151 281.272 525.867 281.936 525.419 282.512C524.979 283.08 524.407 283.528 523.703 283.856C522.999 284.176 522.199 284.336 521.303 284.336ZM537.078 284V277.184C537.078 276.32 536.87 275.668 536.454 275.228C536.038 274.788 535.494 274.568 534.822 274.568C534.254 274.568 533.75 274.724 533.31 275.036C532.878 275.348 532.538 275.82 532.29 276.452C532.042 277.076 531.918 277.856 531.918 278.792H530.982C530.982 277.28 531.17 276.024 531.546 275.024C531.922 274.016 532.454 273.264 533.142 272.768C533.83 272.272 534.638 272.024 535.566 272.024C536.526 272.024 537.326 272.24 537.966 272.672C538.614 273.096 539.098 273.696 539.418 274.472C539.746 275.248 539.91 276.152 539.91 277.184V284H537.078ZM529.086 284V272.36H531.558L531.918 274.664V284H529.086ZM547.855 284.336C546.879 284.336 545.971 284.084 545.131 283.58C544.299 283.068 543.623 282.352 543.103 281.432C542.591 280.504 542.335 279.416 542.335 278.168C542.335 276.848 542.591 275.732 543.103 274.82C543.623 273.9 544.299 273.204 545.131 272.732C545.971 272.26 546.879 272.024 547.855 272.024C548.615 272.024 549.283 272.148 549.859 272.396C550.443 272.636 550.939 272.964 551.347 273.38C551.755 273.788 552.075 274.244 552.307 274.748C552.539 275.252 552.687 275.76 552.751 276.272L549.895 276.344C549.767 275.832 549.527 275.408 549.175 275.072C548.831 274.736 548.383 274.568 547.831 274.568C547.375 274.568 546.947 274.696 546.547 274.952C546.147 275.2 545.819 275.588 545.563 276.116C545.315 276.644 545.191 277.328 545.191 278.168C545.191 278.968 545.307 279.636 545.539 280.172C545.779 280.7 546.099 281.1 546.499 281.372C546.899 281.636 547.343 281.768 547.831 281.768C548.551 281.768 549.075 281.596 549.403 281.252C549.731 280.9 549.895 280.432 549.895 279.848H552.751C552.751 280.672 552.563 281.424 552.187 282.104C551.811 282.784 551.259 283.328 550.531 283.736C549.803 284.136 548.911 284.336 547.855 284.336ZM559.886 284.336C558.894 284.336 557.986 284.08 557.162 283.568C556.338 283.056 555.678 282.34 555.182 281.42C554.686 280.492 554.438 279.408 554.438 278.168C554.438 276.888 554.682 275.788 555.17 274.868C555.666 273.948 556.326 273.244 557.15 272.756C557.974 272.268 558.886 272.024 559.886 272.024C560.814 272.024 561.614 272.212 562.286 272.588C562.966 272.956 563.51 273.46 563.918 274.1C564.334 274.732 564.614 275.448 564.758 276.248C564.902 277.048 564.91 277.872 564.782 278.72H556.694V277.184H562.778L562.226 277.544C562.25 277.168 562.23 276.788 562.166 276.404C562.11 276.02 561.998 275.668 561.83 275.348C561.662 275.028 561.422 274.772 561.11 274.58C560.806 274.38 560.414 274.28 559.934 274.28C559.358 274.28 558.87 274.424 558.47 274.712C558.07 275 557.766 275.392 557.558 275.888C557.35 276.384 557.246 276.944 557.246 277.568V278.696C557.246 279.352 557.342 279.932 557.534 280.436C557.734 280.94 558.026 281.336 558.41 281.624C558.802 281.912 559.294 282.056 559.886 282.056C560.438 282.056 560.902 281.928 561.278 281.672C561.654 281.416 561.894 281.032 561.998 280.52H564.854C564.734 281.272 564.45 281.936 564.002 282.512C563.562 283.08 562.99 283.528 562.286 283.856C561.582 284.176 560.782 284.336 559.886 284.336ZM577.075 284.336C576.387 284.336 575.755 284.208 575.179 283.952C574.611 283.696 574.155 283.304 573.811 282.776C573.475 282.248 573.307 281.576 573.307 280.76V269.264H576.139V280.664C576.139 281.624 576.595 282.104 577.507 282.104C577.787 282.104 578.067 282.072 578.347 282.008C578.627 281.944 578.947 281.848 579.307 281.72L579.715 283.712C579.267 283.888 578.831 284.036 578.407 284.156C577.983 284.276 577.539 284.336 577.075 284.336ZM571.675 274.232V272.36H579.307V274.232H571.675ZM590 284V277.184C590 276.32 589.792 275.668 589.376 275.228C588.96 274.788 588.416 274.568 587.744 274.568C587.176 274.568 586.672 274.724 586.232 275.036C585.8 275.348 585.46 275.82 585.212 276.452C584.964 277.076 584.84 277.856 584.84 278.792H583.904C583.904 277.28 584.092 276.024 584.468 275.024C584.844 274.016 585.376 273.264 586.064 272.768C586.752 272.272 587.56 272.024 588.488 272.024C589.448 272.024 590.248 272.24 590.888 272.672C591.536 273.096 592.02 273.696 592.34 274.472C592.668 275.248 592.832 276.152 592.832 277.184V284H590ZM582.008 284V267.536H584.84V284H582.008ZM603.777 284L603.417 281.168V276.488C603.417 275.672 603.249 275.068 602.913 274.676C602.585 274.284 602.025 274.088 601.233 274.088C600.777 274.088 600.381 274.156 600.045 274.292C599.709 274.428 599.449 274.624 599.265 274.88C599.089 275.128 599.001 275.432 599.001 275.792H595.905C595.905 274.912 596.117 274.196 596.541 273.644C596.965 273.084 597.573 272.676 598.365 272.42C599.165 272.156 600.121 272.024 601.233 272.024C602.241 272.024 603.121 272.188 603.873 272.516C604.625 272.836 605.209 273.332 605.625 274.004C606.041 274.676 606.249 275.536 606.249 276.584V284H603.777ZM599.961 284.336C598.961 284.336 598.125 284.164 597.453 283.82C596.789 283.468 596.289 283.008 595.953 282.44C595.617 281.872 595.449 281.256 595.449 280.592C595.449 279.856 595.641 279.24 596.025 278.744C596.417 278.24 596.969 277.864 597.681 277.616C598.393 277.36 599.233 277.232 600.201 277.232C600.833 277.232 601.429 277.28 601.989 277.376C602.557 277.472 603.121 277.6 603.681 277.76V279.416C603.241 279.272 602.761 279.16 602.241 279.08C601.721 279 601.233 278.96 600.777 278.96C600.105 278.96 599.553 279.084 599.121 279.332C598.689 279.58 598.473 280 598.473 280.592C598.473 281.024 598.649 281.396 599.001 281.708C599.353 282.02 599.913 282.176 600.681 282.176C601.265 282.176 601.761 282.048 602.169 281.792C602.577 281.536 602.885 281.216 603.093 280.832C603.309 280.448 603.417 280.064 603.417 279.68H604.089C604.089 280.52 603.933 281.296 603.621 282.008C603.309 282.712 602.845 283.276 602.229 283.7C601.621 284.124 600.865 284.336 599.961 284.336ZM613.736 284.336C613.048 284.336 612.416 284.208 611.84 283.952C611.272 283.696 610.816 283.304 610.472 282.776C610.136 282.248 609.968 281.576 609.968 280.76V269.264H612.8V280.664C612.8 281.624 613.256 282.104 614.168 282.104C614.448 282.104 614.728 282.072 615.008 282.008C615.288 281.944 615.608 281.848 615.968 281.72L616.376 283.712C615.928 283.888 615.492 284.036 615.068 284.156C614.644 284.276 614.2 284.336 613.736 284.336ZM608.336 274.232V272.36H615.968V274.232H608.336ZM625.795 270.224C625.243 270.224 624.811 270.08 624.499 269.792C624.195 269.496 624.043 269.088 624.043 268.568C624.043 268.064 624.195 267.664 624.499 267.368C624.811 267.064 625.243 266.912 625.795 266.912C626.339 266.912 626.767 267.064 627.079 267.368C627.391 267.664 627.547 268.064 627.547 268.568C627.547 269.088 627.391 269.496 627.079 269.792C626.767 270.08 626.339 270.224 625.795 270.224ZM624.379 284V272.312H627.211V284H624.379ZM635.758 284.336C634.638 284.336 633.674 284.184 632.866 283.88C632.066 283.568 631.45 283.124 631.018 282.548C630.586 281.964 630.366 281.264 630.358 280.448H632.974C632.998 281.024 633.226 281.444 633.658 281.708C634.09 281.972 634.678 282.104 635.422 282.104C635.83 282.104 636.19 282.044 636.502 281.924C636.822 281.804 637.07 281.64 637.246 281.432C637.422 281.224 637.51 280.992 637.51 280.736C637.51 280.408 637.39 280.152 637.15 279.968C636.918 279.776 636.542 279.6 636.022 279.44L633.478 278.528C632.566 278.2 631.866 277.768 631.378 277.232C630.89 276.696 630.646 276.056 630.646 275.312C630.646 274.328 631.09 273.536 631.978 272.936C632.874 272.328 634.07 272.024 635.566 272.024C637.054 272.024 638.202 272.352 639.01 273.008C639.826 273.656 640.246 274.48 640.27 275.48H637.606C637.566 275.096 637.382 274.792 637.054 274.568C636.726 274.344 636.23 274.232 635.566 274.232C634.966 274.232 634.494 274.356 634.15 274.604C633.814 274.844 633.646 275.128 633.646 275.456C633.646 276.008 634.118 276.424 635.062 276.704L637.822 277.736C638.718 278.04 639.414 278.432 639.91 278.912C640.406 279.392 640.654 280 640.654 280.736C640.654 281.352 640.446 281.936 640.03 282.488C639.622 283.032 639.05 283.476 638.314 283.82C637.578 284.164 636.726 284.336 635.758 284.336ZM656.933 284V277.184C656.933 276.32 656.725 275.668 656.309 275.228C655.893 274.788 655.349 274.568 654.677 274.568C654.109 274.568 653.605 274.724 653.165 275.036C652.733 275.348 652.393 275.82 652.145 276.452C651.897 277.076 651.773 277.856 651.773 278.792H650.837C650.837 277.28 651.025 276.024 651.401 275.024C651.777 274.016 652.309 273.264 652.997 272.768C653.685 272.272 654.493 272.024 655.421 272.024C656.381 272.024 657.181 272.24 657.821 272.672C658.469 273.096 658.953 273.696 659.273 274.472C659.601 275.248 659.765 276.152 659.765 277.184V284H656.933ZM648.941 284V272.36H651.413L651.773 274.664V284H648.941ZM667.878 284.336C666.814 284.336 665.85 284.108 664.986 283.652C664.13 283.196 663.45 282.516 662.946 281.612C662.442 280.7 662.19 279.56 662.19 278.192C662.19 276.8 662.442 275.648 662.946 274.736C663.45 273.824 664.13 273.144 664.986 272.696C665.85 272.248 666.814 272.024 667.878 272.024C668.926 272.024 669.874 272.248 670.722 272.696C671.578 273.144 672.258 273.824 672.762 274.736C673.266 275.648 673.518 276.8 673.518 278.192C673.518 279.56 673.266 280.7 672.762 281.612C672.258 282.516 671.578 283.196 670.722 283.652C669.874 284.108 668.926 284.336 667.878 284.336ZM667.782 281.864C668.342 281.864 668.838 281.728 669.27 281.456C669.71 281.176 670.054 280.764 670.302 280.22C670.558 279.676 670.686 279 670.686 278.192C670.686 276.96 670.442 276.032 669.954 275.408C669.474 274.784 668.814 274.472 667.974 274.472C667.406 274.472 666.902 274.612 666.462 274.892C666.022 275.164 665.674 275.576 665.418 276.128C665.17 276.68 665.046 277.368 665.046 278.192C665.046 279.408 665.29 280.324 665.778 280.94C666.274 281.556 666.942 281.864 667.782 281.864ZM680.223 284.336C679.535 284.336 678.903 284.208 678.327 283.952C677.759 283.696 677.303 283.304 676.959 282.776C676.623 282.248 676.455 281.576 676.455 280.76V269.264H679.287V280.664C679.287 281.624 679.743 282.104 680.655 282.104C680.935 282.104 681.215 282.072 681.495 282.008C681.775 281.944 682.095 281.848 682.455 281.72L682.863 283.712C682.415 283.888 681.979 284.036 681.555 284.156C681.131 284.276 680.687 284.336 680.223 284.336ZM674.823 274.232V272.36H682.455V274.232H674.823ZM695.211 284.336C694.147 284.336 693.183 284.108 692.319 283.652C691.463 283.196 690.783 282.516 690.279 281.612C689.775 280.7 689.523 279.56 689.523 278.192C689.523 276.8 689.775 275.648 690.279 274.736C690.783 273.824 691.463 273.144 692.319 272.696C693.183 272.248 694.147 272.024 695.211 272.024C696.259 272.024 697.207 272.248 698.055 272.696C698.911 273.144 699.591 273.824 700.095 274.736C700.599 275.648 700.851 276.8 700.851 278.192C700.851 279.56 700.599 280.7 700.095 281.612C699.591 282.516 698.911 283.196 698.055 283.652C697.207 284.108 696.259 284.336 695.211 284.336ZM695.115 281.864C695.675 281.864 696.171 281.728 696.603 281.456C697.043 281.176 697.387 280.764 697.635 280.22C697.891 279.676 698.019 279 698.019 278.192C698.019 276.96 697.775 276.032 697.287 275.408C696.807 274.784 696.147 274.472 695.307 274.472C694.739 274.472 694.235 274.612 693.795 274.892C693.355 275.164 693.007 275.576 692.751 276.128C692.503 276.68 692.379 277.368 692.379 278.192C692.379 279.408 692.623 280.324 693.111 280.94C693.607 281.556 694.275 281.864 695.115 281.864ZM711.612 284V277.184C711.612 276.32 711.404 275.668 710.988 275.228C710.572 274.788 710.028 274.568 709.356 274.568C708.788 274.568 708.284 274.724 707.844 275.036C707.412 275.348 707.072 275.82 706.824 276.452C706.576 277.076 706.452 277.856 706.452 278.792H705.516C705.516 277.28 705.704 276.024 706.08 275.024C706.456 274.016 706.988 273.264 707.676 272.768C708.364 272.272 709.172 272.024 710.1 272.024C711.06 272.024 711.86 272.24 712.5 272.672C713.148 273.096 713.632 273.696 713.952 274.472C714.28 275.248 714.444 276.152 714.444 277.184V284H711.612ZM703.62 284V272.36H706.092L706.452 274.664V284H703.62ZM717.973 284V267.536H720.805V284H717.973ZM722.91 272.36H726.126L729.222 281.528H728.718L731.382 272.36H734.262L729.798 286.112C729.342 287.488 728.778 288.484 728.106 289.1C727.442 289.716 726.63 290.024 725.67 290.024C725.118 290.024 724.578 289.96 724.05 289.832C723.53 289.712 722.998 289.52 722.454 289.256V286.76C722.894 287.032 723.318 287.232 723.726 287.36C724.142 287.488 724.558 287.552 724.974 287.552C725.35 287.552 725.678 287.448 725.958 287.24C726.246 287.04 726.494 286.756 726.702 286.388C726.91 286.028 727.086 285.608 727.23 285.128L727.59 284L722.91 272.36ZM745.994 284.336C745.002 284.336 744.094 284.08 743.27 283.568C742.446 283.056 741.786 282.34 741.29 281.42C740.794 280.492 740.546 279.408 740.546 278.168C740.546 276.888 740.79 275.788 741.278 274.868C741.774 273.948 742.434 273.244 743.258 272.756C744.082 272.268 744.994 272.024 745.994 272.024C746.922 272.024 747.722 272.212 748.394 272.588C749.074 272.956 749.618 273.46 750.026 274.1C750.442 274.732 750.722 275.448 750.866 276.248C751.01 277.048 751.018 277.872 750.89 278.72H742.802V277.184H748.886L748.334 277.544C748.358 277.168 748.338 276.788 748.274 276.404C748.218 276.02 748.106 275.668 747.938 275.348C747.77 275.028 747.53 274.772 747.218 274.58C746.914 274.38 746.522 274.28 746.042 274.28C745.466 274.28 744.978 274.424 744.578 274.712C744.178 275 743.874 275.392 743.666 275.888C743.458 276.384 743.354 276.944 743.354 277.568V278.696C743.354 279.352 743.45 279.932 743.642 280.436C743.842 280.94 744.134 281.336 744.518 281.624C744.91 281.912 745.402 282.056 745.994 282.056C746.546 282.056 747.01 281.928 747.386 281.672C747.762 281.416 748.002 281.032 748.106 280.52H750.962C750.842 281.272 750.558 281.936 750.11 282.512C749.67 283.08 749.098 283.528 748.394 283.856C747.69 284.176 746.89 284.336 745.994 284.336ZM754.449 284V270.944C754.449 270.104 754.613 269.42 754.941 268.892C755.269 268.364 755.701 267.976 756.237 267.728C756.781 267.472 757.369 267.344 758.001 267.344C758.393 267.344 758.797 267.372 759.213 267.428C759.629 267.484 760.033 267.552 760.425 267.632L759.873 269.816C759.673 269.744 759.465 269.688 759.249 269.648C759.033 269.6 758.825 269.576 758.625 269.576C758.401 269.576 758.189 269.62 757.989 269.708C757.789 269.788 757.625 269.932 757.497 270.14C757.369 270.348 757.305 270.632 757.305 270.992V284H754.449ZM752.721 274.232V272.36H759.441V274.232H752.721ZM762.661 284V270.944C762.661 270.104 762.825 269.42 763.153 268.892C763.481 268.364 763.913 267.976 764.449 267.728C764.993 267.472 765.581 267.344 766.213 267.344C766.605 267.344 767.009 267.372 767.425 267.428C767.841 267.484 768.245 267.552 768.637 267.632L768.085 269.816C767.885 269.744 767.677 269.688 767.461 269.648C767.245 269.6 767.037 269.576 766.837 269.576C766.613 269.576 766.401 269.62 766.201 269.708C766.001 269.788 765.837 269.932 765.709 270.14C765.581 270.348 765.517 270.632 765.517 270.992V284H762.661ZM760.933 274.232V272.36H767.653V274.232H760.933ZM772.465 270.224C771.913 270.224 771.481 270.08 771.169 269.792C770.865 269.496 770.713 269.088 770.713 268.568C770.713 268.064 770.865 267.664 771.169 267.368C771.481 267.064 771.913 266.912 772.465 266.912C773.009 266.912 773.437 267.064 773.749 267.368C774.061 267.664 774.217 268.064 774.217 268.568C774.217 269.088 774.061 269.496 773.749 269.792C773.437 270.08 773.009 270.224 772.465 270.224ZM771.049 284V272.312H773.881V284H771.049ZM782.516 284.336C781.54 284.336 780.632 284.084 779.792 283.58C778.96 283.068 778.284 282.352 777.764 281.432C777.252 280.504 776.996 279.416 776.996 278.168C776.996 276.848 777.252 275.732 777.764 274.82C778.284 273.9 778.96 273.204 779.792 272.732C780.632 272.26 781.54 272.024 782.516 272.024C783.276 272.024 783.944 272.148 784.52 272.396C785.104 272.636 785.6 272.964 786.008 273.38C786.416 273.788 786.736 274.244 786.968 274.748C787.2 275.252 787.348 275.76 787.412 276.272L784.556 276.344C784.428 275.832 784.188 275.408 783.836 275.072C783.492 274.736 783.044 274.568 782.492 274.568C782.036 274.568 781.608 274.696 781.208 274.952C780.808 275.2 780.48 275.588 780.224 276.116C779.976 276.644 779.852 277.328 779.852 278.168C779.852 278.968 779.968 279.636 780.2 280.172C780.44 280.7 780.76 281.1 781.16 281.372C781.56 281.636 782.004 281.768 782.492 281.768C783.212 281.768 783.736 281.596 784.064 281.252C784.392 280.9 784.556 280.432 784.556 279.848H787.412C787.412 280.672 787.224 281.424 786.848 282.104C786.472 282.784 785.92 283.328 785.192 283.736C784.464 284.136 783.572 284.336 782.516 284.336ZM791.859 270.224C791.307 270.224 790.875 270.08 790.563 269.792C790.259 269.496 790.107 269.088 790.107 268.568C790.107 268.064 790.259 267.664 790.563 267.368C790.875 267.064 791.307 266.912 791.859 266.912C792.403 266.912 792.831 267.064 793.143 267.368C793.455 267.664 793.611 268.064 793.611 268.568C793.611 269.088 793.455 269.496 793.143 269.792C792.831 270.08 792.403 270.224 791.859 270.224ZM790.443 284V272.312H793.275V284H790.443ZM801.822 284.336C800.83 284.336 799.922 284.08 799.098 283.568C798.274 283.056 797.614 282.34 797.118 281.42C796.622 280.492 796.374 279.408 796.374 278.168C796.374 276.888 796.618 275.788 797.106 274.868C797.602 273.948 798.262 273.244 799.086 272.756C799.91 272.268 800.822 272.024 801.822 272.024C802.75 272.024 803.55 272.212 804.222 272.588C804.902 272.956 805.446 273.46 805.854 274.1C806.27 274.732 806.55 275.448 806.694 276.248C806.838 277.048 806.846 277.872 806.718 278.72H798.63V277.184H804.714L804.162 277.544C804.186 277.168 804.166 276.788 804.102 276.404C804.046 276.02 803.934 275.668 803.766 275.348C803.598 275.028 803.358 274.772 803.046 274.58C802.742 274.38 802.35 274.28 801.87 274.28C801.294 274.28 800.806 274.424 800.406 274.712C800.006 275 799.702 275.392 799.494 275.888C799.286 276.384 799.182 276.944 799.182 277.568V278.696C799.182 279.352 799.278 279.932 799.47 280.436C799.67 280.94 799.962 281.336 800.346 281.624C800.738 281.912 801.23 282.056 801.822 282.056C802.374 282.056 802.838 281.928 803.214 281.672C803.59 281.416 803.83 281.032 803.934 280.52H806.79C806.67 281.272 806.386 281.936 805.938 282.512C805.498 283.08 804.926 283.528 804.222 283.856C803.518 284.176 802.718 284.336 801.822 284.336ZM817.597 284V277.184C817.597 276.32 817.389 275.668 816.973 275.228C816.557 274.788 816.013 274.568 815.341 274.568C814.773 274.568 814.269 274.724 813.829 275.036C813.397 275.348 813.057 275.82 812.809 276.452C812.561 277.076 812.437 277.856 812.437 278.792H811.501C811.501 277.28 811.689 276.024 812.065 275.024C812.441 274.016 812.973 273.264 813.661 272.768C814.349 272.272 815.157 272.024 816.085 272.024C817.045 272.024 817.845 272.24 818.485 272.672C819.133 273.096 819.617 273.696 819.937 274.472C820.265 275.248 820.429 276.152 820.429 277.184V284H817.597ZM809.605 284V272.36H812.077L812.437 274.664V284H809.605ZM827.894 284.336C827.206 284.336 826.574 284.208 825.998 283.952C825.43 283.696 824.974 283.304 824.63 282.776C824.294 282.248 824.126 281.576 824.126 280.76V269.264H826.958V280.664C826.958 281.624 827.414 282.104 828.326 282.104C828.606 282.104 828.886 282.072 829.166 282.008C829.446 281.944 829.766 281.848 830.126 281.72L830.534 283.712C830.086 283.888 829.65 284.036 829.226 284.156C828.802 284.276 828.358 284.336 827.894 284.336ZM822.494 274.232V272.36H830.126V274.232H822.494ZM833.259 287.264L831.171 286.208C831.699 285.944 832.167 285.64 832.575 285.296C832.983 284.952 833.251 284.56 833.379 284.12C832.939 284.032 832.559 283.848 832.239 283.568C831.927 283.288 831.771 282.92 831.771 282.464C831.771 281.984 831.955 281.58 832.323 281.252C832.691 280.924 833.155 280.76 833.715 280.76C834.427 280.76 834.983 281.008 835.383 281.504C835.791 282 835.995 282.588 835.995 283.268C835.995 284.044 835.751 284.796 835.263 285.524C834.775 286.26 834.107 286.84 833.259 287.264ZM849.719 284.336C848.991 284.336 848.323 284.132 847.715 283.724C847.115 283.316 846.635 282.708 846.275 281.9C845.915 281.084 845.735 280.064 845.735 278.84H846.599C846.599 279.424 846.731 279.936 846.995 280.376C847.259 280.816 847.599 281.16 848.015 281.408C848.431 281.648 848.863 281.768 849.311 281.768C849.863 281.768 850.355 281.616 850.787 281.312C851.219 281.008 851.559 280.584 851.807 280.04C852.063 279.496 852.191 278.856 852.191 278.12C852.191 277.408 852.067 276.788 851.819 276.26C851.571 275.724 851.227 275.308 850.787 275.012C850.355 274.716 849.855 274.568 849.287 274.568C848.815 274.568 848.375 274.684 847.967 274.916C847.559 275.14 847.227 275.468 846.971 275.9C846.723 276.324 846.599 276.84 846.599 277.448H845.735C845.735 276.272 845.903 275.28 846.239 274.472C846.583 273.664 847.067 273.056 847.691 272.648C848.323 272.232 849.071 272.024 849.935 272.024C850.879 272.024 851.735 272.276 852.503 272.78C853.279 273.276 853.895 273.984 854.351 274.904C854.815 275.816 855.047 276.888 855.047 278.12C855.047 279.368 854.807 280.46 854.327 281.396C853.855 282.324 853.215 283.048 852.407 283.568C851.599 284.08 850.703 284.336 849.719 284.336ZM843.767 284V267.536H846.599V281.12L845.615 284H843.767ZM865.661 272.312H868.493V284H865.661V272.312ZM857.669 272.312H860.501V279.464C860.501 280.224 860.689 280.796 861.065 281.18C861.441 281.556 861.957 281.744 862.613 281.744C863.173 281.744 863.681 281.6 864.137 281.312C864.601 281.016 864.969 280.584 865.241 280.016C865.521 279.44 865.661 278.728 865.661 277.88H866.429C866.429 279.304 866.245 280.484 865.877 281.42C865.509 282.356 865.001 283.056 864.353 283.52C863.705 283.984 862.957 284.216 862.109 284.216C861.277 284.216 860.525 284.068 859.853 283.772C859.181 283.476 858.649 283 858.257 282.344C857.865 281.688 857.669 280.824 857.669 279.752V272.312ZM876.292 284.336C875.604 284.336 874.972 284.208 874.396 283.952C873.828 283.696 873.372 283.304 873.028 282.776C872.692 282.248 872.524 281.576 872.524 280.76V269.264H875.356V280.664C875.356 281.624 875.812 282.104 876.724 282.104C877.004 282.104 877.284 282.072 877.564 282.008C877.844 281.944 878.164 281.848 878.524 281.72L878.932 283.712C878.484 283.888 878.048 284.036 877.624 284.156C877.2 284.276 876.756 284.336 876.292 284.336ZM870.892 274.232V272.36H878.524V274.232H870.892ZM894.111 284L893.751 281.168V276.488C893.751 275.672 893.583 275.068 893.247 274.676C892.919 274.284 892.359 274.088 891.567 274.088C891.111 274.088 890.715 274.156 890.379 274.292C890.043 274.428 889.783 274.624 889.599 274.88C889.423 275.128 889.335 275.432 889.335 275.792H886.239C886.239 274.912 886.451 274.196 886.875 273.644C887.299 273.084 887.907 272.676 888.699 272.42C889.499 272.156 890.455 272.024 891.567 272.024C892.575 272.024 893.455 272.188 894.207 272.516C894.959 272.836 895.543 273.332 895.959 274.004C896.375 274.676 896.583 275.536 896.583 276.584V284H894.111ZM890.295 284.336C889.295 284.336 888.459 284.164 887.787 283.82C887.123 283.468 886.623 283.008 886.287 282.44C885.951 281.872 885.783 281.256 885.783 280.592C885.783 279.856 885.975 279.24 886.359 278.744C886.751 278.24 887.303 277.864 888.015 277.616C888.727 277.36 889.567 277.232 890.535 277.232C891.167 277.232 891.763 277.28 892.323 277.376C892.891 277.472 893.455 277.6 894.015 277.76V279.416C893.575 279.272 893.095 279.16 892.575 279.08C892.055 279 891.567 278.96 891.111 278.96C890.439 278.96 889.887 279.084 889.455 279.332C889.023 279.58 888.807 280 888.807 280.592C888.807 281.024 888.983 281.396 889.335 281.708C889.687 282.02 890.247 282.176 891.015 282.176C891.599 282.176 892.095 282.048 892.503 281.792C892.911 281.536 893.219 281.216 893.427 280.832C893.643 280.448 893.751 280.064 893.751 279.68H894.423C894.423 280.52 894.267 281.296 893.955 282.008C893.643 282.712 893.179 283.276 892.563 283.7C891.955 284.124 891.199 284.336 890.295 284.336ZM900.134 284V267.536H902.966V284H900.134ZM911.191 284.336C910.071 284.336 909.107 284.184 908.299 283.88C907.499 283.568 906.883 283.124 906.451 282.548C906.019 281.964 905.799 281.264 905.791 280.448H908.407C908.431 281.024 908.659 281.444 909.091 281.708C909.523 281.972 910.111 282.104 910.855 282.104C911.263 282.104 911.623 282.044 911.935 281.924C912.255 281.804 912.503 281.64 912.679 281.432C912.855 281.224 912.943 280.992 912.943 280.736C912.943 280.408 912.823 280.152 912.583 279.968C912.351 279.776 911.975 279.6 911.455 279.44L908.911 278.528C907.999 278.2 907.299 277.768 906.811 277.232C906.323 276.696 906.079 276.056 906.079 275.312C906.079 274.328 906.523 273.536 907.411 272.936C908.307 272.328 909.503 272.024 910.999 272.024C912.487 272.024 913.635 272.352 914.443 273.008C915.259 273.656 915.679 274.48 915.703 275.48H913.039C912.999 275.096 912.815 274.792 912.487 274.568C912.159 274.344 911.663 274.232 910.999 274.232C910.399 274.232 909.927 274.356 909.583 274.604C909.247 274.844 909.079 275.128 909.079 275.456C909.079 276.008 909.551 276.424 910.495 276.704L913.255 277.736C914.151 278.04 914.847 278.432 915.343 278.912C915.839 279.392 916.087 280 916.087 280.736C916.087 281.352 915.879 281.936 915.463 282.488C915.055 283.032 914.483 283.476 913.747 283.82C913.011 284.164 912.159 284.336 911.191 284.336ZM923.487 284.336C922.423 284.336 921.459 284.108 920.595 283.652C919.739 283.196 919.059 282.516 918.555 281.612C918.051 280.7 917.799 279.56 917.799 278.192C917.799 276.8 918.051 275.648 918.555 274.736C919.059 273.824 919.739 273.144 920.595 272.696C921.459 272.248 922.423 272.024 923.487 272.024C924.535 272.024 925.483 272.248 926.331 272.696C927.187 273.144 927.867 273.824 928.371 274.736C928.875 275.648 929.127 276.8 929.127 278.192C929.127 279.56 928.875 280.7 928.371 281.612C927.867 282.516 927.187 283.196 926.331 283.652C925.483 284.108 924.535 284.336 923.487 284.336ZM923.391 281.864C923.951 281.864 924.447 281.728 924.879 281.456C925.319 281.176 925.663 280.764 925.911 280.22C926.167 279.676 926.295 279 926.295 278.192C926.295 276.96 926.051 276.032 925.563 275.408C925.083 274.784 924.423 274.472 923.583 274.472C923.015 274.472 922.511 274.612 922.071 274.892C921.631 275.164 921.283 275.576 921.027 276.128C920.779 276.68 920.655 277.368 920.655 278.192C920.655 279.408 920.899 280.324 921.387 280.94C921.883 281.556 922.551 281.864 923.391 281.864ZM941.711 284.336C940.719 284.336 939.811 284.08 938.987 283.568C938.163 283.056 937.503 282.34 937.007 281.42C936.511 280.492 936.263 279.408 936.263 278.168C936.263 276.888 936.507 275.788 936.995 274.868C937.491 273.948 938.151 273.244 938.975 272.756C939.799 272.268 940.711 272.024 941.711 272.024C942.639 272.024 943.439 272.212 944.111 272.588C944.791 272.956 945.335 273.46 945.743 274.1C946.159 274.732 946.439 275.448 946.583 276.248C946.727 277.048 946.735 277.872 946.607 278.72H938.519V277.184H944.603L944.051 277.544C944.075 277.168 944.055 276.788 943.991 276.404C943.935 276.02 943.823 275.668 943.655 275.348C943.487 275.028 943.247 274.772 942.935 274.58C942.631 274.38 942.239 274.28 941.759 274.28C941.183 274.28 940.695 274.424 940.295 274.712C939.895 275 939.591 275.392 939.383 275.888C939.175 276.384 939.071 276.944 939.071 277.568V278.696C939.071 279.352 939.167 279.932 939.359 280.436C939.559 280.94 939.851 281.336 940.235 281.624C940.627 281.912 941.119 282.056 941.711 282.056C942.263 282.056 942.727 281.928 943.103 281.672C943.479 281.416 943.719 281.032 943.823 280.52H946.679C946.559 281.272 946.275 281.936 945.827 282.512C945.387 283.08 944.815 283.528 944.111 283.856C943.407 284.176 942.607 284.336 941.711 284.336ZM957.486 284V277.184C957.486 276.32 957.278 275.668 956.862 275.228C956.446 274.788 955.902 274.568 955.23 274.568C954.662 274.568 954.158 274.724 953.718 275.036C953.286 275.348 952.946 275.82 952.698 276.452C952.45 277.076 952.326 277.856 952.326 278.792H951.39C951.39 277.28 951.578 276.024 951.954 275.024C952.33 274.016 952.862 273.264 953.55 272.768C954.238 272.272 955.046 272.024 955.974 272.024C956.934 272.024 957.734 272.24 958.374 272.672C959.022 273.096 959.506 273.696 959.826 274.472C960.154 275.248 960.318 276.152 960.318 277.184V284H957.486ZM949.494 284V272.36H951.966L952.326 274.664V284H949.494ZM965.647 270.224C965.111 270.224 964.683 270.08 964.363 269.792C964.051 269.496 963.895 269.088 963.895 268.568C963.895 268.064 964.051 267.664 964.363 267.368C964.683 267.064 965.111 266.912 965.647 266.912C966.191 266.912 966.619 267.064 966.931 267.368C967.243 267.664 967.399 268.064 967.399 268.568C967.399 269.088 967.243 269.496 966.931 269.792C966.619 270.08 966.191 270.224 965.647 270.224ZM963.151 290.024C962.527 290.024 961.951 289.956 961.423 289.82C960.887 289.684 960.343 289.504 959.791 289.28L959.839 286.832C960.247 287.032 960.679 287.2 961.135 287.336C961.583 287.48 962.023 287.552 962.455 287.552C963.039 287.552 963.483 287.384 963.787 287.048C964.099 286.712 964.255 286.144 964.255 285.344V272.312H967.087V285.392C967.087 287.056 966.739 288.244 966.043 288.956C965.355 289.668 964.391 290.024 963.151 290.024ZM975.87 284.336C974.806 284.336 973.842 284.108 972.978 283.652C972.122 283.196 971.442 282.516 970.938 281.612C970.434 280.7 970.182 279.56 970.182 278.192C970.182 276.8 970.434 275.648 970.938 274.736C971.442 273.824 972.122 273.144 972.978 272.696C973.842 272.248 974.806 272.024 975.87 272.024C976.918 272.024 977.866 272.248 978.714 272.696C979.57 273.144 980.25 273.824 980.754 274.736C981.258 275.648 981.51 276.8 981.51 278.192C981.51 279.56 981.258 280.7 980.754 281.612C980.25 282.516 979.57 283.196 978.714 283.652C977.866 284.108 976.918 284.336 975.87 284.336ZM975.774 281.864C976.334 281.864 976.83 281.728 977.262 281.456C977.702 281.176 978.046 280.764 978.294 280.22C978.55 279.676 978.678 279 978.678 278.192C978.678 276.96 978.434 276.032 977.946 275.408C977.466 274.784 976.806 274.472 975.966 274.472C975.398 274.472 974.894 274.612 974.454 274.892C974.014 275.164 973.666 275.576 973.41 276.128C973.162 276.68 973.038 277.368 973.038 278.192C973.038 279.408 973.282 280.324 973.77 280.94C974.266 281.556 974.934 281.864 975.774 281.864ZM982.504 272.36H985.72L988.816 281.528H988.312L990.976 272.36H993.856L989.392 286.112C988.936 287.488 988.372 288.484 987.7 289.1C987.036 289.716 986.224 290.024 985.264 290.024C984.712 290.024 984.172 289.96 983.644 289.832C983.124 289.712 982.592 289.52 982.048 289.256V286.76C982.488 287.032 982.912 287.232 983.32 287.36C983.736 287.488 984.152 287.552 984.568 287.552C984.944 287.552 985.272 287.448 985.552 287.24C985.84 287.04 986.088 286.756 986.296 286.388C986.504 286.028 986.68 285.608 986.824 285.128L987.184 284L982.504 272.36ZM1003.19 284L1002.83 281.168V276.488C1002.83 275.672 1002.66 275.068 1002.33 274.676C1002 274.284 1001.44 274.088 1000.65 274.088C1000.19 274.088 999.793 274.156 999.457 274.292C999.121 274.428 998.861 274.624 998.677 274.88C998.501 275.128 998.413 275.432 998.413 275.792H995.317C995.317 274.912 995.529 274.196 995.953 273.644C996.377 273.084 996.985 272.676 997.777 272.42C998.577 272.156 999.533 272.024 1000.65 272.024C1001.65 272.024 1002.53 272.188 1003.29 272.516C1004.04 272.836 1004.62 273.332 1005.04 274.004C1005.45 274.676 1005.66 275.536 1005.66 276.584V284H1003.19ZM999.373 284.336C998.373 284.336 997.537 284.164 996.865 283.82C996.201 283.468 995.701 283.008 995.365 282.44C995.029 281.872 994.861 281.256 994.861 280.592C994.861 279.856 995.053 279.24 995.437 278.744C995.829 278.24 996.381 277.864 997.093 277.616C997.805 277.36 998.645 277.232 999.613 277.232C1000.25 277.232 1000.84 277.28 1001.4 277.376C1001.97 277.472 1002.53 277.6 1003.09 277.76V279.416C1002.65 279.272 1002.17 279.16 1001.65 279.08C1001.13 279 1000.65 278.96 1000.19 278.96C999.517 278.96 998.965 279.084 998.533 279.332C998.101 279.58 997.885 280 997.885 280.592C997.885 281.024 998.061 281.396 998.413 281.708C998.765 282.02 999.325 282.176 1000.09 282.176C1000.68 282.176 1001.17 282.048 1001.58 281.792C1001.99 281.536 1002.3 281.216 1002.51 280.832C1002.72 280.448 1002.83 280.064 1002.83 279.68H1003.5C1003.5 280.52 1003.35 281.296 1003.03 282.008C1002.72 282.712 1002.26 283.276 1001.64 283.7C1001.03 284.124 1000.28 284.336 999.373 284.336ZM1015.16 284.336C1014.44 284.336 1013.77 284.132 1013.16 283.724C1012.56 283.316 1012.08 282.708 1011.72 281.9C1011.36 281.084 1011.18 280.064 1011.18 278.84H1012.04C1012.04 279.424 1012.18 279.936 1012.44 280.376C1012.7 280.816 1013.04 281.16 1013.46 281.408C1013.88 281.648 1014.31 281.768 1014.76 281.768C1015.31 281.768 1015.8 281.616 1016.23 281.312C1016.66 281.008 1017 280.584 1017.25 280.04C1017.51 279.496 1017.64 278.856 1017.64 278.12C1017.64 277.408 1017.51 276.788 1017.26 276.26C1017.02 275.724 1016.67 275.308 1016.23 275.012C1015.8 274.716 1015.3 274.568 1014.73 274.568C1014.26 274.568 1013.82 274.684 1013.41 274.916C1013 275.14 1012.67 275.468 1012.42 275.9C1012.17 276.324 1012.04 276.84 1012.04 277.448H1011.18C1011.18 276.272 1011.35 275.28 1011.68 274.472C1012.03 273.664 1012.51 273.056 1013.14 272.648C1013.77 272.232 1014.52 272.024 1015.38 272.024C1016.32 272.024 1017.18 272.276 1017.95 272.78C1018.72 273.276 1019.34 273.984 1019.8 274.904C1020.26 275.816 1020.49 276.888 1020.49 278.12C1020.49 279.368 1020.25 280.46 1019.77 281.396C1019.3 282.324 1018.66 283.048 1017.85 283.568C1017.04 284.08 1016.15 284.336 1015.16 284.336ZM1009.21 284V267.536H1012.04V281.12L1011.06 284H1009.21ZM1023.35 284V267.536H1026.19V284H1023.35ZM1034.41 284.336C1033.42 284.336 1032.51 284.08 1031.69 283.568C1030.86 283.056 1030.2 282.34 1029.71 281.42C1029.21 280.492 1028.96 279.408 1028.96 278.168C1028.96 276.888 1029.21 275.788 1029.7 274.868C1030.19 273.948 1030.85 273.244 1031.68 272.756C1032.5 272.268 1033.41 272.024 1034.41 272.024C1035.34 272.024 1036.14 272.212 1036.81 272.588C1037.49 272.956 1038.04 273.46 1038.44 274.1C1038.86 274.732 1039.14 275.448 1039.28 276.248C1039.43 277.048 1039.44 277.872 1039.31 278.72H1031.22V277.184H1037.3L1036.75 277.544C1036.78 277.168 1036.76 276.788 1036.69 276.404C1036.64 276.02 1036.52 275.668 1036.36 275.348C1036.19 275.028 1035.95 274.772 1035.64 274.58C1035.33 274.38 1034.94 274.28 1034.46 274.28C1033.88 274.28 1033.4 274.424 1033 274.712C1032.6 275 1032.29 275.392 1032.08 275.888C1031.88 276.384 1031.77 276.944 1031.77 277.568V278.696C1031.77 279.352 1031.87 279.932 1032.06 280.436C1032.26 280.94 1032.55 281.336 1032.94 281.624C1033.33 281.912 1033.82 282.056 1034.41 282.056C1034.96 282.056 1035.43 281.928 1035.8 281.672C1036.18 281.416 1036.42 281.032 1036.52 280.52H1039.38C1039.26 281.272 1038.98 281.936 1038.53 282.512C1038.09 283.08 1037.52 283.528 1036.81 283.856C1036.11 284.176 1035.31 284.336 1034.41 284.336ZM1044.16 279.344V278.384C1044.16 277.688 1044.24 277.116 1044.4 276.668C1044.57 276.22 1044.83 275.844 1045.17 275.54C1045.52 275.228 1045.99 274.928 1046.56 274.64C1047.07 274.384 1047.46 274.148 1047.74 273.932C1048.02 273.708 1048.21 273.48 1048.31 273.248C1048.43 273.016 1048.48 272.744 1048.48 272.432C1048.48 271.928 1048.28 271.512 1047.87 271.184C1047.46 270.848 1046.91 270.68 1046.2 270.68C1045.36 270.68 1044.71 270.868 1044.26 271.244C1043.81 271.612 1043.55 272.104 1043.49 272.72H1040.54C1040.63 271.328 1041.14 270.212 1042.07 269.372C1043.02 268.532 1044.35 268.112 1046.08 268.112C1047.22 268.112 1048.2 268.304 1049.02 268.688C1049.85 269.072 1050.48 269.592 1050.93 270.248C1051.38 270.904 1051.6 271.64 1051.6 272.456C1051.6 273.288 1051.39 273.992 1050.97 274.568C1050.55 275.144 1049.9 275.656 1049.01 276.104C1048.49 276.368 1048.08 276.616 1047.79 276.848C1047.5 277.08 1047.29 277.336 1047.17 277.616C1047.05 277.888 1046.99 278.232 1046.99 278.648V279.344H1044.16ZM1045.65 284.336C1045.07 284.336 1044.59 284.156 1044.22 283.796C1043.86 283.436 1043.68 282.996 1043.68 282.476C1043.68 281.932 1043.86 281.48 1044.22 281.12C1044.59 280.752 1045.06 280.568 1045.64 280.568C1046.22 280.568 1046.71 280.752 1047.09 281.12C1047.47 281.48 1047.67 281.928 1047.67 282.464C1047.67 282.992 1047.47 283.436 1047.09 283.796C1046.71 284.156 1046.23 284.336 1045.65 284.336Z" fill="#666666"/>
</svg>
