<svg width="1500" height="475" viewBox="0 0 1500 475" fill="none" xmlns="http://www.w3.org/2000/svg">
<rect width="1500" height="475" fill="#E5E5E5"/>
<rect width="1500" height="475" fill="white"/>
<path d="M645.998 173.44C644.208 173.44 642.648 173.016 641.318 172.168C639.999 171.309 638.973 170.084 638.24 168.493C637.507 166.901 637.141 164.99 637.141 162.76C637.141 160.457 637.518 158.525 638.271 156.965C639.036 155.395 640.083 154.212 641.412 153.416C642.753 152.61 644.281 152.207 645.998 152.207C648.375 152.207 650.228 152.782 651.558 153.934C652.898 155.086 653.757 156.583 654.134 158.426L650.176 159.148C649.851 158.08 649.333 157.216 648.621 156.557C647.909 155.897 647.035 155.567 645.998 155.567C645.087 155.567 644.266 155.834 643.533 156.368C642.8 156.892 642.213 157.688 641.774 158.756C641.344 159.824 641.13 161.158 641.13 162.76C641.13 164.268 641.318 165.566 641.695 166.655C642.083 167.744 642.637 168.582 643.36 169.168C644.082 169.754 644.962 170.047 645.998 170.047C647.328 170.047 648.354 169.697 649.077 168.995C649.809 168.283 650.176 167.378 650.176 166.278H654.134C654.134 167.796 653.804 169.089 653.144 170.157C652.495 171.215 651.563 172.026 650.349 172.592C649.134 173.157 647.684 173.44 645.998 173.44ZM665.403 152.615H669.109V161.127H677.998V152.615H681.705V173H677.998V164.362H669.109V173H665.403V152.615ZM692.23 173L699.171 152.615H703.82L710.479 173H706.584L705.171 168.603H697.601L696.156 173H692.23ZM698.543 165.807H704.291L701.433 157.044L698.543 165.807ZM724.738 152.615V169.765H733.125V173H721.032V152.615H724.738ZM747.169 152.615V169.765H755.556V173H743.463V152.615H747.169ZM765.863 173V152.615H778.961V155.819H769.569V161.19H778.395V164.394H769.569V169.765H778.961V173H765.863ZM791.177 152.615H795.228L804.494 167.158H804.212V152.615H807.918V173H804.149L794.286 157.578H794.883V173H791.177V152.615ZM828.108 173.44C826.444 173.44 824.941 173 823.601 172.121C822.261 171.241 821.193 170.016 820.397 168.446C819.612 166.865 819.219 165.022 819.219 162.917C819.219 161.253 819.46 159.761 819.942 158.441C820.434 157.122 821.114 155.997 821.983 155.065C822.852 154.133 823.873 153.426 825.046 152.945C826.219 152.453 827.491 152.207 828.862 152.207C830.768 152.207 832.364 152.62 833.652 153.447C834.951 154.274 835.961 155.578 836.683 157.358L832.883 158.237C832.349 157.368 831.731 156.709 831.029 156.258C830.338 155.798 829.553 155.567 828.674 155.567C827.669 155.567 826.752 155.866 825.925 156.463C825.098 157.049 824.439 157.892 823.947 158.991C823.454 160.09 823.208 161.399 823.208 162.917C823.208 164.341 823.423 165.587 823.852 166.655C824.292 167.723 824.905 168.555 825.69 169.152C826.475 169.749 827.386 170.047 828.422 170.047C829.302 170.047 830.087 169.854 830.778 169.466C831.48 169.069 832.029 168.503 832.427 167.77C832.836 167.037 833.04 166.153 833.04 165.116H833.856C833.856 166.812 833.652 168.283 833.244 169.529C832.846 170.775 832.223 171.738 831.375 172.419C830.527 173.099 829.438 173.44 828.108 173.44ZM833.574 173L833.04 168.508V164.99L828.454 164.896V162.54H836.589V173H833.574ZM848.8 173V152.615H861.898V155.819H852.506V161.19H861.333V164.394H852.506V169.765H861.898V173H848.8Z" fill="#383838"/>
<path d="M510.735 241.636H512.579V246.964H518.382V241.636H520.216V254H518.382V248.565H512.579V254H510.735V241.636ZM527.05 254.252C526.202 254.252 525.442 254.068 524.769 253.699C524.103 253.33 523.576 252.78 523.187 252.049C522.799 251.318 522.605 250.416 522.605 249.342C522.605 248.248 522.799 247.339 523.187 246.614C523.576 245.883 524.103 245.333 524.769 244.965C525.442 244.596 526.202 244.411 527.05 244.411C527.885 244.411 528.635 244.596 529.302 244.965C529.968 245.333 530.492 245.883 530.874 246.614C531.262 247.339 531.456 248.248 531.456 249.342C531.456 250.416 531.262 251.318 530.874 252.049C530.492 252.78 529.968 253.33 529.302 253.699C528.635 254.068 527.885 254.252 527.05 254.252ZM526.992 252.641C527.529 252.641 527.991 252.512 528.38 252.253C528.774 251.994 529.075 251.619 529.282 251.127C529.496 250.629 529.602 250.034 529.602 249.342C529.602 248.281 529.386 247.459 528.952 246.877C528.525 246.294 527.907 246.003 527.099 246.003C526.555 246.003 526.086 246.136 525.691 246.401C525.303 246.66 525.002 247.038 524.789 247.536C524.582 248.028 524.478 248.63 524.478 249.342C524.478 250.383 524.695 251.195 525.128 251.778C525.562 252.353 526.183 252.641 526.992 252.641ZM532.226 244.664H534.148L536.371 252.156H536.167L538.312 245.139H539.913L542.048 252.175H541.854L544.076 244.664H545.92L542.853 254H541.048L538.933 247.401H539.214L537.127 254H535.322L532.226 244.664ZM555.313 254.252C554.55 254.252 553.838 254.049 553.178 253.641C552.518 253.233 551.988 252.661 551.586 251.923C551.185 251.186 550.985 250.319 550.985 249.322C550.985 248.274 551.185 247.388 551.586 246.663C551.988 245.932 552.518 245.375 553.178 244.994C553.838 244.606 554.55 244.411 555.313 244.411C555.876 244.411 556.377 244.502 556.817 244.683C557.257 244.858 557.636 245.097 557.953 245.401C558.27 245.699 558.525 246.035 558.72 246.411C558.92 246.786 559.059 247.174 559.137 247.575L557.264 247.672C557.128 247.187 556.889 246.799 556.546 246.508C556.209 246.21 555.792 246.061 555.294 246.061C554.873 246.061 554.475 246.181 554.1 246.42C553.731 246.653 553.43 247.012 553.197 247.498C552.971 247.976 552.858 248.585 552.858 249.322C552.858 250.008 552.965 250.594 553.178 251.079C553.392 251.564 553.683 251.936 554.051 252.195C554.42 252.454 554.834 252.583 555.294 252.583C555.954 252.583 556.445 252.425 556.769 252.108C557.099 251.784 557.264 251.341 557.264 250.778H559.137C559.137 251.431 558.985 252.02 558.681 252.544C558.377 253.068 557.937 253.486 557.361 253.796C556.792 254.1 556.109 254.252 555.313 254.252ZM567.405 254L567.172 251.855V247.963C567.172 247.2 567.014 246.647 566.697 246.304C566.38 245.955 565.878 245.78 565.193 245.78C564.804 245.78 564.458 245.838 564.154 245.955C563.856 246.065 563.62 246.233 563.446 246.459C563.277 246.686 563.193 246.97 563.193 247.313H561.155C561.155 246.627 561.323 246.071 561.66 245.644C561.996 245.217 562.465 244.906 563.067 244.712C563.675 244.512 564.384 244.411 565.193 244.411C565.95 244.411 566.616 244.538 567.192 244.79C567.768 245.036 568.214 245.424 568.531 245.955C568.855 246.485 569.016 247.171 569.016 248.012V254H567.405ZM564.28 254.252C563.497 254.252 562.847 254.116 562.33 253.845C561.812 253.567 561.424 253.204 561.165 252.758C560.913 252.311 560.786 251.836 560.786 251.331C560.786 250.716 560.942 250.212 561.252 249.817C561.569 249.416 562.006 249.118 562.562 248.924C563.119 248.73 563.759 248.633 564.484 248.633C564.982 248.633 565.468 248.678 565.94 248.769C566.412 248.86 566.878 248.979 567.337 249.128V250.244C566.962 250.108 566.545 250.002 566.085 249.924C565.632 249.84 565.209 249.798 564.814 249.798C564.225 249.798 563.734 249.914 563.339 250.147C562.944 250.38 562.747 250.775 562.747 251.331C562.747 251.739 562.902 252.091 563.213 252.389C563.523 252.68 564.015 252.826 564.688 252.826C565.18 252.826 565.613 252.716 565.988 252.496C566.364 252.269 566.655 251.988 566.862 251.651C567.069 251.315 567.172 250.979 567.172 250.642H567.619C567.619 251.289 567.486 251.888 567.221 252.437C566.962 252.981 566.584 253.421 566.085 253.757C565.587 254.087 564.985 254.252 564.28 254.252ZM578.584 254V248.526C578.584 247.718 578.39 247.106 578.002 246.692C577.62 246.272 577.102 246.061 576.449 246.061C575.931 246.061 575.478 246.204 575.09 246.488C574.709 246.767 574.411 247.177 574.197 247.721C573.99 248.258 573.887 248.915 573.887 249.691H573.227C573.227 248.546 573.372 247.582 573.664 246.799C573.961 246.016 574.385 245.424 574.935 245.023C575.485 244.615 576.145 244.411 576.915 244.411C577.665 244.411 578.299 244.58 578.817 244.916C579.341 245.253 579.739 245.731 580.011 246.352C580.282 246.967 580.418 247.692 580.418 248.526V254H578.584ZM572.043 254V244.664H573.644L573.887 246.682V254H572.043ZM586.279 254L590.51 241.636H592.791L596.896 254H594.955L593.995 251.05H589.22L588.22 254H586.279ZM589.686 249.633H593.538L591.617 243.858L589.686 249.633ZM605.062 244.635H606.916V254H605.062V244.635ZM598.54 244.635H600.384V250.419C600.384 251.124 600.556 251.658 600.899 252.02C601.248 252.382 601.737 252.564 602.364 252.564C602.895 252.564 603.361 252.425 603.762 252.146C604.169 251.868 604.486 251.473 604.713 250.962C604.946 250.451 605.062 249.846 605.062 249.148H605.654C605.654 250.241 605.505 251.16 605.208 251.904C604.91 252.648 604.493 253.214 603.956 253.602C603.419 253.984 602.791 254.175 602.073 254.175C601.387 254.175 600.776 254.049 600.239 253.796C599.708 253.544 599.291 253.156 598.987 252.632C598.689 252.101 598.54 251.418 598.54 250.584V244.635ZM613.21 254.252C612.679 254.252 612.2 254.152 611.773 253.951C611.346 253.751 611.007 253.45 610.754 253.049C610.508 252.641 610.386 252.13 610.386 251.516V242.121H612.22V251.457C612.22 252.337 612.631 252.777 613.452 252.777C613.705 252.777 613.951 252.751 614.19 252.7C614.429 252.641 614.701 252.557 615.005 252.447L615.267 253.757C614.924 253.9 614.585 254.016 614.248 254.107C613.918 254.204 613.572 254.252 613.21 254.252ZM608.959 245.916V244.664H614.986V245.916H608.959ZM620.688 254.252C619.841 254.252 619.08 254.068 618.407 253.699C617.741 253.33 617.214 252.78 616.826 252.049C616.437 251.318 616.243 250.416 616.243 249.342C616.243 248.248 616.437 247.339 616.826 246.614C617.214 245.883 617.741 245.333 618.407 244.965C619.08 244.596 619.841 244.411 620.688 244.411C621.523 244.411 622.273 244.596 622.94 244.965C623.606 245.333 624.13 245.883 624.512 246.614C624.9 247.339 625.094 248.248 625.094 249.342C625.094 250.416 624.9 251.318 624.512 252.049C624.13 252.78 623.606 253.33 622.94 253.699C622.273 254.068 621.523 254.252 620.688 254.252ZM620.63 252.641C621.167 252.641 621.63 252.512 622.018 252.253C622.412 251.994 622.713 251.619 622.92 251.127C623.134 250.629 623.241 250.034 623.241 249.342C623.241 248.281 623.024 247.459 622.59 246.877C622.163 246.294 621.545 246.003 620.737 246.003C620.193 246.003 619.724 246.136 619.329 246.401C618.941 246.66 618.64 247.038 618.427 247.536C618.22 248.028 618.116 248.63 618.116 249.342C618.116 250.383 618.333 251.195 618.767 251.778C619.2 252.353 619.821 252.641 620.63 252.641ZM627.456 241.636H630.106L634.026 249.759H633.852L637.773 241.636H640.335V254H638.471V243.664H638.772L634.541 252.535H633.328L629.116 243.713H629.3V254H627.456V241.636ZM647.146 254.252C646.298 254.252 645.538 254.068 644.865 253.699C644.199 253.33 643.671 252.78 643.283 252.049C642.895 251.318 642.701 250.416 642.701 249.342C642.701 248.248 642.895 247.339 643.283 246.614C643.671 245.883 644.199 245.333 644.865 244.965C645.538 244.596 646.298 244.411 647.146 244.411C647.98 244.411 648.731 244.596 649.397 244.965C650.064 245.333 650.588 245.883 650.969 246.614C651.358 247.339 651.552 248.248 651.552 249.342C651.552 250.416 651.358 251.318 650.969 252.049C650.588 252.78 650.064 253.33 649.397 253.699C648.731 254.068 647.98 254.252 647.146 254.252ZM647.087 252.641C647.624 252.641 648.087 252.512 648.475 252.253C648.87 251.994 649.171 251.619 649.378 251.127C649.591 250.629 649.698 250.034 649.698 249.342C649.698 248.281 649.481 247.459 649.048 246.877C648.621 246.294 648.003 246.003 647.194 246.003C646.651 246.003 646.182 246.136 645.787 246.401C645.399 246.66 645.098 247.038 644.884 247.536C644.677 248.028 644.574 248.63 644.574 249.342C644.574 250.383 644.791 251.195 645.224 251.778C645.658 252.353 646.279 252.641 647.087 252.641ZM656.913 254.252C656.382 254.252 655.903 254.152 655.476 253.951C655.049 253.751 654.709 253.45 654.457 253.049C654.211 252.641 654.088 252.13 654.088 251.516V242.121H655.923V251.457C655.923 252.337 656.333 252.777 657.155 252.777C657.407 252.777 657.653 252.751 657.893 252.7C658.132 252.641 658.404 252.557 658.708 252.447L658.97 253.757C658.627 253.9 658.287 254.016 657.951 254.107C657.621 254.204 657.275 254.252 656.913 254.252ZM652.662 245.916V244.664H658.689V245.916H652.662ZM661.945 242.674C661.577 242.674 661.285 242.574 661.072 242.373C660.865 242.166 660.761 241.888 660.761 241.539C660.761 241.202 660.865 240.937 661.072 240.743C661.285 240.542 661.577 240.442 661.945 240.442C662.308 240.442 662.592 240.542 662.799 240.743C663.013 240.937 663.12 241.202 663.12 241.539C663.12 241.888 663.013 242.166 662.799 242.373C662.592 242.574 662.308 242.674 661.945 242.674ZM661.023 254V244.635H662.867V254H661.023ZM669.933 254.252C669.086 254.252 668.326 254.068 667.653 253.699C666.986 253.33 666.459 252.78 666.071 252.049C665.683 251.318 665.489 250.416 665.489 249.342C665.489 248.248 665.683 247.339 666.071 246.614C666.459 245.883 666.986 245.333 667.653 244.965C668.326 244.596 669.086 244.411 669.933 244.411C670.768 244.411 671.519 244.596 672.185 244.965C672.851 245.333 673.375 245.883 673.757 246.614C674.145 247.339 674.34 248.248 674.34 249.342C674.34 250.416 674.145 251.318 673.757 252.049C673.375 252.78 672.851 253.33 672.185 253.699C671.519 254.068 670.768 254.252 669.933 254.252ZM669.875 252.641C670.412 252.641 670.875 252.512 671.263 252.253C671.658 251.994 671.959 251.619 672.166 251.127C672.379 250.629 672.486 250.034 672.486 249.342C672.486 248.281 672.269 247.459 671.836 246.877C671.409 246.294 670.791 246.003 669.982 246.003C669.438 246.003 668.969 246.136 668.575 246.401C668.187 246.66 667.886 247.038 667.672 247.536C667.465 248.028 667.362 248.63 667.362 249.342C667.362 250.383 667.578 251.195 668.012 251.778C668.445 252.353 669.066 252.641 669.875 252.641ZM683.243 254V248.526C683.243 247.718 683.049 247.106 682.66 246.692C682.279 246.272 681.761 246.061 681.108 246.061C680.59 246.061 680.137 246.204 679.749 246.488C679.367 246.767 679.069 247.177 678.856 247.721C678.649 248.258 678.545 248.915 678.545 249.691H677.885C677.885 248.546 678.031 247.582 678.322 246.799C678.62 246.016 679.044 245.424 679.594 245.023C680.144 244.615 680.803 244.411 681.573 244.411C682.324 244.411 682.958 244.58 683.476 244.916C684 245.253 684.398 245.731 684.669 246.352C684.941 246.967 685.077 247.692 685.077 248.526V254H683.243ZM676.701 254V244.664H678.303L678.545 246.682V254H676.701ZM695.751 254.252C694.988 254.252 694.276 254.049 693.616 253.641C692.956 253.233 692.426 252.661 692.025 251.923C691.623 251.186 691.423 250.319 691.423 249.322C691.423 248.274 691.623 247.388 692.025 246.663C692.426 245.932 692.956 245.375 693.616 244.994C694.276 244.606 694.988 244.411 695.751 244.411C696.314 244.411 696.816 244.502 697.256 244.683C697.696 244.858 698.074 245.097 698.391 245.401C698.708 245.699 698.964 246.035 699.158 246.411C699.358 246.786 699.497 247.174 699.575 247.575L697.702 247.672C697.566 247.187 697.327 246.799 696.984 246.508C696.647 246.21 696.23 246.061 695.732 246.061C695.311 246.061 694.913 246.181 694.538 246.42C694.169 246.653 693.869 247.012 693.636 247.498C693.409 247.976 693.296 248.585 693.296 249.322C693.296 250.008 693.403 250.594 693.616 251.079C693.83 251.564 694.121 251.936 694.49 252.195C694.858 252.454 695.273 252.583 695.732 252.583C696.392 252.583 696.884 252.425 697.207 252.108C697.537 251.784 697.702 251.341 697.702 250.778H699.575C699.575 251.431 699.423 252.02 699.119 252.544C698.815 253.068 698.375 253.486 697.799 253.796C697.23 254.1 696.547 254.252 695.751 254.252ZM701.991 254V244.635H703.835V254H701.991ZM703.331 249.827C703.331 248.63 703.454 247.637 703.699 246.847C703.952 246.052 704.301 245.46 704.748 245.071C705.2 244.683 705.731 244.489 706.339 244.489C706.52 244.489 706.689 244.502 706.844 244.528C707.006 244.554 707.164 244.589 707.319 244.635L707.251 246.469C707.077 246.424 706.886 246.385 706.679 246.352C706.478 246.314 706.294 246.294 706.126 246.294C705.595 246.294 705.162 246.437 704.825 246.721C704.489 246.999 704.24 247.404 704.078 247.934C703.916 248.458 703.835 249.089 703.835 249.827H703.331ZM712.114 254.252C711.312 254.252 710.587 254.045 709.94 253.631C709.293 253.217 708.779 252.641 708.397 251.904C708.022 251.166 707.834 250.312 707.834 249.342C707.834 248.313 708.022 247.433 708.397 246.702C708.772 245.964 709.283 245.398 709.93 245.003C710.577 244.609 711.305 244.411 712.114 244.411C712.839 244.411 713.46 244.56 713.977 244.858C714.495 245.149 714.912 245.544 715.229 246.042C715.546 246.534 715.763 247.093 715.88 247.721C716.003 248.348 716.025 248.995 715.948 249.662H709.309V248.594H714.686L714.239 248.885C714.259 248.536 714.239 248.187 714.181 247.837C714.13 247.488 714.026 247.168 713.871 246.877C713.715 246.579 713.495 246.343 713.211 246.168C712.933 245.987 712.577 245.896 712.143 245.896C711.6 245.896 711.144 246.032 710.775 246.304C710.412 246.576 710.138 246.941 709.95 247.401C709.762 247.853 709.668 248.352 709.668 248.895V249.642C709.668 250.244 709.759 250.778 709.94 251.244C710.121 251.71 710.39 252.078 710.746 252.35C711.108 252.615 711.564 252.748 712.114 252.748C712.651 252.748 713.094 252.622 713.444 252.37C713.8 252.117 714.02 251.739 714.104 251.234H715.986C715.889 251.842 715.666 252.373 715.317 252.826C714.967 253.279 714.518 253.631 713.968 253.884C713.424 254.129 712.806 254.252 712.114 254.252ZM724.236 254L724.003 251.855V247.963C724.003 247.2 723.844 246.647 723.527 246.304C723.21 245.955 722.709 245.78 722.023 245.78C721.635 245.78 721.289 245.838 720.985 245.955C720.687 246.065 720.451 246.233 720.276 246.459C720.108 246.686 720.024 246.97 720.024 247.313H717.986C717.986 246.627 718.154 246.071 718.49 245.644C718.827 245.217 719.296 244.906 719.898 244.712C720.506 244.512 721.214 244.411 722.023 244.411C722.78 244.411 723.446 244.538 724.022 244.79C724.598 245.036 725.045 245.424 725.362 245.955C725.685 246.485 725.847 247.171 725.847 248.012V254H724.236ZM721.111 254.252C720.328 254.252 719.678 254.116 719.16 253.845C718.642 253.567 718.254 253.204 717.995 252.758C717.743 252.311 717.617 251.836 717.617 251.331C717.617 250.716 717.772 250.212 718.083 249.817C718.4 249.416 718.837 249.118 719.393 248.924C719.949 248.73 720.59 248.633 721.315 248.633C721.813 248.633 722.298 248.678 722.77 248.769C723.243 248.86 723.708 248.979 724.168 249.128V250.244C723.793 250.108 723.375 250.002 722.916 249.924C722.463 249.84 722.039 249.798 721.645 249.798C721.056 249.798 720.564 249.914 720.169 250.147C719.775 250.38 719.577 250.775 719.577 251.331C719.577 251.739 719.733 252.091 720.043 252.389C720.354 252.68 720.846 252.826 721.518 252.826C722.01 252.826 722.444 252.716 722.819 252.496C723.194 252.269 723.485 251.988 723.692 251.651C723.899 251.315 724.003 250.979 724.003 250.642H724.449C724.449 251.289 724.317 251.888 724.051 252.437C723.793 252.981 723.414 253.421 722.916 253.757C722.418 254.087 721.816 254.252 721.111 254.252ZM731.872 254.252C731.342 254.252 730.863 254.152 730.436 253.951C730.009 253.751 729.669 253.45 729.417 253.049C729.171 252.641 729.048 252.13 729.048 251.516V242.121H730.882V251.457C730.882 252.337 731.293 252.777 732.115 252.777C732.367 252.777 732.613 252.751 732.852 252.7C733.092 252.641 733.364 252.557 733.668 252.447L733.93 253.757C733.587 253.9 733.247 254.016 732.911 254.107C732.581 254.204 732.235 254.252 731.872 254.252ZM727.621 245.916V244.664H733.648V245.916H727.621ZM739.186 254.252C738.383 254.252 737.659 254.045 737.012 253.631C736.365 253.217 735.85 252.641 735.469 251.904C735.093 251.166 734.906 250.312 734.906 249.342C734.906 248.313 735.093 247.433 735.469 246.702C735.844 245.964 736.355 245.398 737.002 245.003C737.649 244.609 738.377 244.411 739.186 244.411C739.91 244.411 740.531 244.56 741.049 244.858C741.567 245.149 741.984 245.544 742.301 246.042C742.618 246.534 742.835 247.093 742.951 247.721C743.074 248.348 743.097 248.995 743.019 249.662H736.381V248.594H741.758L741.311 248.885C741.331 248.536 741.311 248.187 741.253 247.837C741.201 247.488 741.098 247.168 740.942 246.877C740.787 246.579 740.567 246.343 740.282 246.168C740.004 245.987 739.648 245.896 739.215 245.896C738.671 245.896 738.215 246.032 737.846 246.304C737.484 246.576 737.209 246.941 737.022 247.401C736.834 247.853 736.74 248.352 736.74 248.895V249.642C736.74 250.244 736.831 250.778 737.012 251.244C737.193 251.71 737.461 252.078 737.817 252.35C738.18 252.615 738.636 252.748 739.186 252.748C739.723 252.748 740.166 252.622 740.515 252.37C740.871 252.117 741.091 251.739 741.175 251.234H743.058C742.961 251.842 742.738 252.373 742.388 252.826C742.039 253.279 741.589 253.631 741.039 253.884C740.496 254.129 739.878 254.252 739.186 254.252ZM755.561 254L755.328 251.855V247.963C755.328 247.2 755.17 246.647 754.852 246.304C754.535 245.955 754.034 245.78 753.348 245.78C752.96 245.78 752.614 245.838 752.31 245.955C752.012 246.065 751.776 246.233 751.601 246.459C751.433 246.686 751.349 246.97 751.349 247.313H749.311C749.311 246.627 749.479 246.071 749.816 245.644C750.152 245.217 750.621 244.906 751.223 244.712C751.831 244.512 752.539 244.411 753.348 244.411C754.105 244.411 754.772 244.538 755.347 244.79C755.923 245.036 756.37 245.424 756.687 245.955C757.01 246.485 757.172 247.171 757.172 248.012V254H755.561ZM752.436 254.252C751.653 254.252 751.003 254.116 750.485 253.845C749.968 253.567 749.579 253.204 749.321 252.758C749.068 252.311 748.942 251.836 748.942 251.331C748.942 250.716 749.097 250.212 749.408 249.817C749.725 249.416 750.162 249.118 750.718 248.924C751.275 248.73 751.915 248.633 752.64 248.633C753.138 248.633 753.623 248.678 754.095 248.769C754.568 248.86 755.034 248.979 755.493 249.128V250.244C755.118 250.108 754.7 250.002 754.241 249.924C753.788 249.84 753.364 249.798 752.97 249.798C752.381 249.798 751.889 249.914 751.495 250.147C751.1 250.38 750.903 250.775 750.903 251.331C750.903 251.739 751.058 252.091 751.368 252.389C751.679 252.68 752.171 252.826 752.844 252.826C753.335 252.826 753.769 252.716 754.144 252.496C754.519 252.269 754.81 251.988 755.017 251.651C755.225 251.315 755.328 250.979 755.328 250.642H755.774C755.774 251.289 755.642 251.888 755.377 252.437C755.118 252.981 754.739 253.421 754.241 253.757C753.743 254.087 753.141 254.252 752.436 254.252ZM770.741 244.635H772.595V254H770.741V244.635ZM764.219 244.635H766.063V250.419C766.063 251.124 766.235 251.658 766.578 252.02C766.927 252.382 767.415 252.564 768.043 252.564C768.573 252.564 769.039 252.425 769.44 252.146C769.848 251.868 770.165 251.473 770.392 250.962C770.624 250.451 770.741 249.846 770.741 249.148H771.333C771.333 250.241 771.184 251.16 770.887 251.904C770.589 252.648 770.172 253.214 769.635 253.602C769.098 253.984 768.47 254.175 767.752 254.175C767.066 254.175 766.455 254.049 765.918 253.796C765.387 253.544 764.97 253.156 764.666 252.632C764.368 252.101 764.219 251.418 764.219 250.584V244.635ZM782.431 254V248.526C782.431 247.718 782.237 247.106 781.848 246.692C781.467 246.272 780.949 246.061 780.296 246.061C779.778 246.061 779.325 246.204 778.937 246.488C778.555 246.767 778.258 247.177 778.044 247.721C777.837 248.258 777.734 248.915 777.734 249.691H777.074C777.074 248.546 777.219 247.582 777.51 246.799C777.808 246.016 778.232 245.424 778.782 245.023C779.332 244.615 779.992 244.411 780.762 244.411C781.512 244.411 782.146 244.58 782.664 244.916C783.188 245.253 783.586 245.731 783.857 246.352C784.129 246.967 784.265 247.692 784.265 248.526V254H782.431ZM775.89 254V244.664H777.491L777.734 246.682V254H775.89ZM788.357 242.674C787.988 242.674 787.697 242.574 787.483 242.373C787.276 242.166 787.173 241.888 787.173 241.539C787.173 241.202 787.276 240.937 787.483 240.743C787.697 240.542 787.988 240.442 788.357 240.442C788.719 240.442 789.004 240.542 789.211 240.743C789.424 240.937 789.531 241.202 789.531 241.539C789.531 241.888 789.424 242.166 789.211 242.373C789.004 242.574 788.719 242.674 788.357 242.674ZM787.435 254V244.635H789.279V254H787.435ZM796.18 254.252C795.429 254.252 794.727 254.058 794.074 253.67C793.427 253.275 792.903 252.709 792.502 251.972C792.101 251.234 791.9 250.351 791.9 249.322C791.9 248.293 792.097 247.414 792.492 246.682C792.887 245.951 793.404 245.392 794.045 245.003C794.685 244.609 795.368 244.411 796.093 244.411C796.72 244.411 797.289 244.567 797.801 244.877C798.312 245.181 798.719 245.644 799.023 246.265C799.328 246.886 799.48 247.666 799.48 248.604H798.742C798.742 248.061 798.632 247.601 798.412 247.226C798.192 246.844 797.904 246.556 797.548 246.362C797.192 246.162 796.804 246.061 796.384 246.061C795.898 246.061 795.458 246.191 795.064 246.45C794.669 246.708 794.355 247.08 794.122 247.566C793.889 248.051 793.773 248.636 793.773 249.322C793.773 250.04 793.899 250.642 794.152 251.127C794.41 251.613 794.74 251.978 795.141 252.224C795.549 252.463 795.973 252.583 796.413 252.583C796.807 252.583 797.183 252.492 797.539 252.311C797.894 252.13 798.182 251.862 798.402 251.506C798.629 251.15 798.742 250.716 798.742 250.205H799.188C799.188 251.008 799.078 251.713 798.858 252.321C798.645 252.923 798.315 253.395 797.869 253.738C797.422 254.081 796.859 254.252 796.18 254.252ZM801.372 258.814C800.414 258.561 799.735 258.167 799.334 257.63C798.939 257.099 798.742 256.352 798.742 255.388V246.906L799.353 244.664H800.576V255.524C800.576 255.938 800.615 256.261 800.693 256.494C800.777 256.734 800.919 256.921 801.12 257.057C801.32 257.193 801.595 257.319 801.945 257.436L801.372 258.814ZM810.198 244.635H812.052V254H810.198V244.635ZM803.676 244.635H805.52V250.419C805.52 251.124 805.692 251.658 806.034 252.02C806.384 252.382 806.872 252.564 807.5 252.564C808.03 252.564 808.496 252.425 808.897 252.146C809.305 251.868 809.622 251.473 809.848 250.962C810.081 250.451 810.198 249.846 810.198 249.148H810.79C810.79 250.241 810.641 251.16 810.343 251.904C810.046 252.648 809.628 253.214 809.091 253.602C808.554 253.984 807.927 254.175 807.209 254.175C806.523 254.175 805.911 254.049 805.374 253.796C804.844 253.544 804.427 253.156 804.123 252.632C803.825 252.101 803.676 251.418 803.676 250.584V244.635ZM818.695 254.252C817.892 254.252 817.168 254.045 816.521 253.631C815.874 253.217 815.359 252.641 814.978 251.904C814.602 251.166 814.415 250.312 814.415 249.342C814.415 248.313 814.602 247.433 814.978 246.702C815.353 245.964 815.864 245.398 816.511 245.003C817.158 244.609 817.886 244.411 818.695 244.411C819.419 244.411 820.041 244.56 820.558 244.858C821.076 245.149 821.493 245.544 821.81 246.042C822.127 246.534 822.344 247.093 822.46 247.721C822.583 248.348 822.606 248.995 822.528 249.662H815.89V248.594H821.267L820.82 248.885C820.84 248.536 820.82 248.187 820.762 247.837C820.71 247.488 820.607 247.168 820.451 246.877C820.296 246.579 820.076 246.343 819.791 246.168C819.513 245.987 819.157 245.896 818.724 245.896C818.18 245.896 817.724 246.032 817.355 246.304C816.993 246.576 816.718 246.941 816.531 247.401C816.343 247.853 816.249 248.352 816.249 248.895V249.642C816.249 250.244 816.34 250.778 816.521 251.244C816.702 251.71 816.97 252.078 817.326 252.35C817.689 252.615 818.145 252.748 818.695 252.748C819.232 252.748 819.675 252.622 820.024 252.37C820.38 252.117 820.6 251.739 820.684 251.234H822.567C822.47 251.842 822.247 252.373 821.897 252.826C821.548 253.279 821.098 253.631 820.548 253.884C820.005 254.129 819.387 254.252 818.695 254.252ZM824.984 256.339L823.606 255.65C824 255.449 824.34 255.226 824.625 254.98C824.909 254.734 825.097 254.44 825.188 254.097C824.877 254.052 824.612 253.932 824.392 253.738C824.172 253.544 824.062 253.288 824.062 252.971C824.062 252.648 824.181 252.376 824.421 252.156C824.667 251.93 824.977 251.816 825.353 251.816C825.825 251.816 826.2 251.985 826.478 252.321C826.763 252.657 826.905 253.059 826.905 253.524C826.905 254.061 826.737 254.586 826.401 255.097C826.071 255.614 825.598 256.028 824.984 256.339ZM837.575 254.252C836.895 254.252 836.306 254.1 835.808 253.796C835.31 253.486 834.928 253.033 834.663 252.437C834.404 251.836 834.275 251.092 834.275 250.205H834.993C834.993 250.716 835.103 251.15 835.323 251.506C835.543 251.855 835.831 252.124 836.187 252.311C836.549 252.492 836.934 252.583 837.342 252.583C837.769 252.583 838.183 252.463 838.584 252.224C838.991 251.978 839.325 251.613 839.583 251.127C839.842 250.642 839.972 250.04 839.972 249.322C839.972 248.636 839.855 248.051 839.622 247.566C839.396 247.08 839.085 246.708 838.691 246.45C838.296 246.191 837.853 246.061 837.361 246.061C836.947 246.061 836.559 246.162 836.196 246.362C835.834 246.556 835.543 246.844 835.323 247.226C835.103 247.601 834.993 248.061 834.993 248.604H834.275C834.275 247.666 834.424 246.886 834.721 246.265C835.025 245.644 835.433 245.181 835.944 244.877C836.455 244.567 837.021 244.411 837.642 244.411C838.374 244.411 839.059 244.609 839.7 245.003C840.34 245.392 840.858 245.951 841.253 246.682C841.654 247.414 841.854 248.293 841.854 249.322C841.854 250.351 841.654 251.234 841.253 251.972C840.852 252.709 840.324 253.275 839.671 253.67C839.024 254.058 838.325 254.252 837.575 254.252ZM833.149 258.581V244.664H834.673L834.993 246.906V258.581H833.149ZM847.575 254.252C846.772 254.252 846.048 254.045 845.401 253.631C844.754 253.217 844.239 252.641 843.858 251.904C843.482 251.166 843.295 250.312 843.295 249.342C843.295 248.313 843.482 247.433 843.858 246.702C844.233 245.964 844.744 245.398 845.391 245.003C846.038 244.609 846.766 244.411 847.575 244.411C848.299 244.411 848.92 244.56 849.438 244.858C849.956 245.149 850.373 245.544 850.69 246.042C851.007 246.534 851.224 247.093 851.34 247.721C851.463 248.348 851.486 248.995 851.408 249.662H844.77V248.594H850.147L849.7 248.885C849.719 248.536 849.7 248.187 849.642 247.837C849.59 247.488 849.487 247.168 849.331 246.877C849.176 246.579 848.956 246.343 848.671 246.168C848.393 245.987 848.037 245.896 847.604 245.896C847.06 245.896 846.604 246.032 846.235 246.304C845.873 246.576 845.598 246.941 845.41 247.401C845.223 247.853 845.129 248.352 845.129 248.895V249.642C845.129 250.244 845.22 250.778 845.401 251.244C845.582 251.71 845.85 252.078 846.206 252.35C846.569 252.615 847.025 252.748 847.575 252.748C848.112 252.748 848.555 252.622 848.904 252.37C849.26 252.117 849.48 251.739 849.564 251.234H851.447C851.35 251.842 851.127 252.373 850.777 252.826C850.428 253.279 849.978 253.631 849.428 253.884C848.885 254.129 848.267 254.252 847.575 254.252ZM853.844 254V244.635H855.688V254H853.844ZM855.184 249.827C855.184 248.63 855.306 247.637 855.552 246.847C855.805 246.052 856.154 245.46 856.6 245.071C857.053 244.683 857.584 244.489 858.192 244.489C858.373 244.489 858.541 244.502 858.697 244.528C858.859 244.554 859.017 244.589 859.172 244.635L859.104 246.469C858.93 246.424 858.739 246.385 858.532 246.352C858.331 246.314 858.147 246.294 857.979 246.294C857.448 246.294 857.015 246.437 856.678 246.721C856.342 246.999 856.093 247.404 855.931 247.934C855.769 248.458 855.688 249.089 855.688 249.827H855.184ZM864.035 254.252C863.129 254.252 862.366 254.126 861.745 253.874C861.123 253.615 860.648 253.259 860.318 252.806C859.994 252.347 859.826 251.81 859.813 251.195H861.55C861.576 251.732 861.79 252.13 862.191 252.389C862.599 252.648 863.149 252.777 863.841 252.777C864.21 252.777 864.543 252.719 864.84 252.602C865.145 252.486 865.384 252.328 865.559 252.127C865.74 251.926 865.83 251.7 865.83 251.448C865.83 251.131 865.714 250.881 865.481 250.7C865.248 250.513 864.873 250.348 864.355 250.205L862.443 249.555C861.68 249.296 861.094 248.953 860.687 248.526C860.279 248.093 860.075 247.575 860.075 246.974C860.075 246.204 860.418 245.586 861.104 245.12C861.79 244.648 862.699 244.411 863.831 244.411C865.002 244.411 865.905 244.661 866.539 245.159C867.179 245.65 867.513 246.268 867.538 247.012H865.762C865.717 246.644 865.533 246.362 865.209 246.168C864.892 245.967 864.433 245.867 863.831 245.867C863.268 245.867 862.825 245.99 862.502 246.236C862.185 246.482 862.026 246.76 862.026 247.071C862.026 247.627 862.505 248.041 863.462 248.313L865.471 249.021C866.235 249.267 866.824 249.584 867.238 249.972C867.652 250.361 867.859 250.852 867.859 251.448C867.859 251.926 867.7 252.379 867.383 252.806C867.066 253.233 866.62 253.583 866.044 253.854C865.475 254.12 864.805 254.252 864.035 254.252ZM873.864 254.252C873.016 254.252 872.256 254.068 871.583 253.699C870.916 253.33 870.389 252.78 870.001 252.049C869.613 251.318 869.419 250.416 869.419 249.342C869.419 248.248 869.613 247.339 870.001 246.614C870.389 245.883 870.916 245.333 871.583 244.965C872.256 244.596 873.016 244.411 873.864 244.411C874.698 244.411 875.449 244.596 876.115 244.965C876.782 245.333 877.306 245.883 877.687 246.614C878.076 247.339 878.27 248.248 878.27 249.342C878.27 250.416 878.076 251.318 877.687 252.049C877.306 252.78 876.782 253.33 876.115 253.699C875.449 254.068 874.698 254.252 873.864 254.252ZM873.805 252.641C874.342 252.641 874.805 252.512 875.193 252.253C875.588 251.994 875.889 251.619 876.096 251.127C876.309 250.629 876.416 250.034 876.416 249.342C876.416 248.281 876.199 247.459 875.766 246.877C875.339 246.294 874.721 246.003 873.912 246.003C873.369 246.003 872.9 246.136 872.505 246.401C872.117 246.66 871.816 247.038 871.602 247.536C871.395 248.028 871.292 248.63 871.292 249.342C871.292 250.383 871.508 251.195 871.942 251.778C872.375 252.353 872.997 252.641 873.805 252.641ZM887.173 254V248.526C887.173 247.718 886.979 247.106 886.59 246.692C886.209 246.272 885.691 246.061 885.038 246.061C884.52 246.061 884.067 246.204 883.679 246.488C883.297 246.767 883 247.177 882.786 247.721C882.579 248.258 882.475 248.915 882.475 249.691H881.816C881.816 248.546 881.961 247.582 882.252 246.799C882.55 246.016 882.974 245.424 883.524 245.023C884.074 244.615 884.734 244.411 885.503 244.411C886.254 244.411 886.888 244.58 887.406 244.916C887.93 245.253 888.328 245.731 888.599 246.352C888.871 246.967 889.007 247.692 889.007 248.526V254H887.173ZM880.632 254V244.664H882.233L882.475 246.682V254H880.632ZM897.883 254L897.65 251.855V247.963C897.65 247.2 897.492 246.647 897.175 246.304C896.858 245.955 896.356 245.78 895.671 245.78C895.282 245.78 894.936 245.838 894.632 245.955C894.334 246.065 894.098 246.233 893.924 246.459C893.755 246.686 893.671 246.97 893.671 247.313H891.633C891.633 246.627 891.801 246.071 892.138 245.644C892.474 245.217 892.943 244.906 893.545 244.712C894.153 244.512 894.862 244.411 895.671 244.411C896.428 244.411 897.094 244.538 897.67 244.79C898.246 245.036 898.692 245.424 899.009 245.955C899.333 246.485 899.494 247.171 899.494 248.012V254H897.883ZM894.758 254.252C893.975 254.252 893.325 254.116 892.808 253.845C892.29 253.567 891.902 253.204 891.643 252.758C891.391 252.311 891.264 251.836 891.264 251.331C891.264 250.716 891.42 250.212 891.73 249.817C892.047 249.416 892.484 249.118 893.04 248.924C893.597 248.73 894.237 248.633 894.962 248.633C895.46 248.633 895.945 248.678 896.418 248.769C896.89 248.86 897.356 248.979 897.815 249.128V250.244C897.44 250.108 897.023 250.002 896.563 249.924C896.11 249.84 895.687 249.798 895.292 249.798C894.703 249.798 894.212 249.914 893.817 250.147C893.422 250.38 893.225 250.775 893.225 251.331C893.225 251.739 893.38 252.091 893.691 252.389C894.001 252.68 894.493 252.826 895.166 252.826C895.658 252.826 896.091 252.716 896.466 252.496C896.842 252.269 897.133 251.988 897.34 251.651C897.547 251.315 897.65 250.979 897.65 250.642H898.097C898.097 251.289 897.964 251.888 897.699 252.437C897.44 252.981 897.062 253.421 896.563 253.757C896.065 254.087 895.463 254.252 894.758 254.252ZM902.521 254V240.733H904.365V254H902.521ZM915.335 254.252C914.429 254.252 913.666 254.126 913.045 253.874C912.424 253.615 911.948 253.259 911.618 252.806C911.294 252.347 911.126 251.81 911.113 251.195H912.851C912.876 251.732 913.09 252.13 913.491 252.389C913.899 252.648 914.449 252.777 915.141 252.777C915.51 252.777 915.843 252.719 916.141 252.602C916.445 252.486 916.684 252.328 916.859 252.127C917.04 251.926 917.13 251.7 917.13 251.448C917.13 251.131 917.014 250.881 916.781 250.7C916.548 250.513 916.173 250.348 915.655 250.205L913.743 249.555C912.98 249.296 912.394 248.953 911.987 248.526C911.579 248.093 911.375 247.575 911.375 246.974C911.375 246.204 911.718 245.586 912.404 245.12C913.09 244.648 913.999 244.411 915.131 244.411C916.302 244.411 917.205 244.661 917.839 245.159C918.479 245.65 918.813 246.268 918.839 247.012H917.062C917.017 246.644 916.833 246.362 916.509 246.168C916.192 245.967 915.733 245.867 915.131 245.867C914.568 245.867 914.125 245.99 913.802 246.236C913.485 246.482 913.326 246.76 913.326 247.071C913.326 247.627 913.805 248.041 914.762 248.313L916.771 249.021C917.535 249.267 918.124 249.584 918.538 249.972C918.952 250.361 919.159 250.852 919.159 251.448C919.159 251.926 919 252.379 918.683 252.806C918.366 253.233 917.92 253.583 917.344 253.854C916.775 254.12 916.105 254.252 915.335 254.252ZM928.192 254V248.526C928.192 247.718 927.997 247.106 927.609 246.692C927.227 246.272 926.71 246.061 926.056 246.061C925.539 246.061 925.086 246.204 924.698 246.488C924.316 246.767 924.018 247.177 923.805 247.721C923.598 248.258 923.494 248.915 923.494 249.691H922.834C922.834 248.546 922.98 247.582 923.271 246.799C923.569 246.016 923.992 245.424 924.542 245.023C925.092 244.615 925.752 244.411 926.522 244.411C927.273 244.411 927.907 244.58 928.424 244.916C928.949 245.253 929.346 245.731 929.618 246.352C929.89 246.967 930.026 247.692 930.026 248.526V254H928.192ZM921.65 254V240.733H923.494V254H921.65ZM936.563 254.252C935.716 254.252 934.955 254.068 934.282 253.699C933.616 253.33 933.089 252.78 932.701 252.049C932.312 251.318 932.118 250.416 932.118 249.342C932.118 248.248 932.312 247.339 932.701 246.614C933.089 245.883 933.616 245.333 934.282 244.965C934.955 244.596 935.716 244.411 936.563 244.411C937.398 244.411 938.148 244.596 938.815 244.965C939.481 245.333 940.005 245.883 940.387 246.614C940.775 247.339 940.969 248.248 940.969 249.342C940.969 250.416 940.775 251.318 940.387 252.049C940.005 252.78 939.481 253.33 938.815 253.699C938.148 254.068 937.398 254.252 936.563 254.252ZM936.505 252.641C937.042 252.641 937.505 252.512 937.893 252.253C938.287 251.994 938.588 251.619 938.795 251.127C939.009 250.629 939.116 250.034 939.116 249.342C939.116 248.281 938.899 247.459 938.465 246.877C938.038 246.294 937.42 246.003 936.612 246.003C936.068 246.003 935.599 246.136 935.204 246.401C934.816 246.66 934.515 247.038 934.302 247.536C934.095 248.028 933.991 248.63 933.991 249.342C933.991 250.383 934.208 251.195 934.642 251.778C935.075 252.353 935.696 252.641 936.505 252.641ZM947.757 254.252C947.077 254.252 946.489 254.1 945.99 253.796C945.492 253.486 945.11 253.033 944.845 252.437C944.586 251.836 944.457 251.092 944.457 250.205H945.175C945.175 250.716 945.285 251.15 945.505 251.506C945.725 251.855 946.013 252.124 946.369 252.311C946.731 252.492 947.116 252.583 947.524 252.583C947.951 252.583 948.365 252.463 948.766 252.224C949.174 251.978 949.507 251.613 949.766 251.127C950.024 250.642 950.154 250.04 950.154 249.322C950.154 248.636 950.037 248.051 949.804 247.566C949.578 247.08 949.267 246.708 948.873 246.45C948.478 246.191 948.035 246.061 947.543 246.061C947.129 246.061 946.741 246.162 946.379 246.362C946.016 246.556 945.725 246.844 945.505 247.226C945.285 247.601 945.175 248.061 945.175 248.604H944.457C944.457 247.666 944.606 246.886 944.903 246.265C945.207 245.644 945.615 245.181 946.126 244.877C946.637 244.567 947.203 244.411 947.825 244.411C948.556 244.411 949.242 244.609 949.882 245.003C950.523 245.392 951.04 245.951 951.435 246.682C951.836 247.414 952.037 248.293 952.037 249.322C952.037 250.351 951.836 251.234 951.435 251.972C951.034 252.709 950.506 253.275 949.853 253.67C949.206 254.058 948.507 254.252 947.757 254.252ZM943.331 258.581V244.664H944.855L945.175 246.906V258.581H943.331ZM958.834 254.252C958.155 254.252 957.566 254.1 957.068 253.796C956.57 253.486 956.188 253.033 955.923 252.437C955.664 251.836 955.534 251.092 955.534 250.205H956.252C956.252 250.716 956.362 251.15 956.582 251.506C956.802 251.855 957.09 252.124 957.446 252.311C957.809 252.492 958.193 252.583 958.601 252.583C959.028 252.583 959.442 252.463 959.843 252.224C960.251 251.978 960.584 251.613 960.843 251.127C961.102 250.642 961.231 250.04 961.231 249.322C961.231 248.636 961.115 248.051 960.882 247.566C960.655 247.08 960.345 246.708 959.95 246.45C959.555 246.191 959.112 246.061 958.62 246.061C958.206 246.061 957.818 246.162 957.456 246.362C957.094 246.556 956.802 246.844 956.582 247.226C956.362 247.601 956.252 248.061 956.252 248.604H955.534C955.534 247.666 955.683 246.886 955.981 246.265C956.285 245.644 956.692 245.181 957.204 244.877C957.715 244.567 958.281 244.411 958.902 244.411C959.633 244.411 960.319 244.609 960.959 245.003C961.6 245.392 962.118 245.951 962.512 246.682C962.913 247.414 963.114 248.293 963.114 249.322C963.114 250.351 962.913 251.234 962.512 251.972C962.111 252.709 961.584 253.275 960.93 253.67C960.283 254.058 959.585 254.252 958.834 254.252ZM954.409 258.581V244.664H955.932L956.252 246.906V258.581H954.409ZM966.553 242.674C966.185 242.674 965.893 242.574 965.68 242.373C965.473 242.166 965.369 241.888 965.369 241.539C965.369 241.202 965.473 240.937 965.68 240.743C965.893 240.542 966.185 240.442 966.553 240.442C966.916 240.442 967.2 240.542 967.407 240.743C967.621 240.937 967.728 241.202 967.728 241.539C967.728 241.888 967.621 242.166 967.407 242.373C967.2 242.574 966.916 242.674 966.553 242.674ZM965.631 254V244.635H967.475V254H965.631ZM977.57 254V248.526C977.57 247.718 977.375 247.106 976.987 246.692C976.605 246.272 976.088 246.061 975.434 246.061C974.917 246.061 974.464 246.204 974.076 246.488C973.694 246.767 973.396 247.177 973.183 247.721C972.976 248.258 972.872 248.915 972.872 249.691H972.212C972.212 248.546 972.358 247.582 972.649 246.799C972.947 246.016 973.37 245.424 973.92 245.023C974.47 244.615 975.13 244.411 975.9 244.411C976.651 244.411 977.285 244.58 977.802 244.916C978.326 245.253 978.724 245.731 978.996 246.352C979.268 246.967 979.404 247.692 979.404 248.526V254H977.57ZM971.028 254V244.664H972.63L972.872 246.682V254H971.028ZM985.864 258.814C984.854 258.814 983.984 258.675 983.253 258.396C982.528 258.118 981.969 257.746 981.574 257.28C981.179 256.814 980.982 256.307 980.982 255.757C980.982 255.058 981.237 254.521 981.749 254.146C982.26 253.777 982.91 253.592 983.699 253.592L984.893 254.155C984.22 254.155 983.699 254.291 983.331 254.563C982.968 254.835 982.787 255.203 982.787 255.669C982.787 256.155 983.052 256.552 983.583 256.863C984.113 257.18 984.874 257.339 985.864 257.339C986.582 257.339 987.213 257.232 987.756 257.018C988.299 256.811 988.72 256.536 989.018 256.193C989.315 255.857 989.464 255.495 989.464 255.106C989.464 254.841 989.367 254.615 989.173 254.427C988.985 254.246 988.697 254.155 988.309 254.155H984.893C984.259 254.155 983.699 254.058 983.214 253.864C982.735 253.664 982.36 253.402 982.088 253.078C981.817 252.755 981.681 252.395 981.681 252.001C981.681 251.613 981.791 251.279 982.011 251.001C982.231 250.716 982.522 250.503 982.884 250.361C983.246 250.212 983.644 250.137 984.078 250.137L984.495 250.778C984.307 250.778 984.12 250.82 983.932 250.904C983.745 250.982 983.589 251.101 983.466 251.263C983.343 251.425 983.282 251.626 983.282 251.865C983.282 252.143 983.398 252.376 983.631 252.564C983.871 252.745 984.291 252.835 984.893 252.835H988.309C989.241 252.835 989.972 253.02 990.502 253.389C991.033 253.757 991.298 254.294 991.298 255C991.298 255.64 991.078 256.252 990.638 256.834C990.198 257.416 989.571 257.892 988.756 258.26C987.947 258.629 986.983 258.814 985.864 258.814ZM986.067 251.195C985.343 251.195 984.683 251.056 984.087 250.778C983.499 250.493 983.03 250.099 982.68 249.594C982.331 249.083 982.156 248.488 982.156 247.808C982.156 247.122 982.331 246.527 982.68 246.022C983.03 245.511 983.499 245.117 984.087 244.838C984.683 244.554 985.343 244.411 986.067 244.411C986.773 244.411 987.416 244.554 987.999 244.838C988.587 245.117 989.056 245.511 989.406 246.022C989.762 246.527 989.94 247.122 989.94 247.808C989.94 248.488 989.762 249.083 989.406 249.594C989.056 250.099 988.587 250.493 987.999 250.778C987.416 251.056 986.773 251.195 986.067 251.195ZM986.067 249.895C986.734 249.895 987.242 249.697 987.591 249.303C987.947 248.902 988.125 248.403 988.125 247.808C988.125 247.187 987.947 246.686 987.591 246.304C987.242 245.922 986.734 245.731 986.067 245.731C985.414 245.731 984.903 245.922 984.534 246.304C984.172 246.686 983.99 247.187 983.99 247.808C983.99 248.403 984.172 248.902 984.534 249.303C984.903 249.697 985.414 249.895 986.067 249.895ZM989.241 245.906L988.377 245.489C988.377 244.932 988.494 244.447 988.726 244.033C988.959 243.619 989.283 243.295 989.697 243.062C990.111 242.83 990.587 242.713 991.124 242.713L991.007 244.509C990.431 244.509 989.991 244.622 989.687 244.848C989.39 245.075 989.241 245.427 989.241 245.906ZM517.711 286.252C516.909 286.252 516.184 286.045 515.537 285.631C514.89 285.217 514.376 284.641 513.994 283.904C513.619 283.166 513.431 282.312 513.431 281.342C513.431 280.313 513.619 279.433 513.994 278.702C514.369 277.964 514.88 277.398 515.527 277.003C516.174 276.609 516.902 276.411 517.711 276.411C518.435 276.411 519.057 276.56 519.574 276.858C520.092 277.149 520.509 277.544 520.826 278.042C521.143 278.534 521.36 279.093 521.476 279.721C521.599 280.348 521.622 280.995 521.544 281.662H514.906V280.594H520.283L519.836 280.885C519.856 280.536 519.836 280.187 519.778 279.837C519.726 279.488 519.623 279.168 519.467 278.877C519.312 278.579 519.092 278.343 518.807 278.168C518.529 277.987 518.173 277.896 517.74 277.896C517.196 277.896 516.74 278.032 516.372 278.304C516.009 278.576 515.734 278.941 515.547 279.401C515.359 279.853 515.265 280.352 515.265 280.895V281.642C515.265 282.244 515.356 282.778 515.537 283.244C515.718 283.71 515.987 284.078 516.342 284.35C516.705 284.615 517.161 284.748 517.711 284.748C518.248 284.748 518.691 284.622 519.04 284.37C519.396 284.117 519.616 283.739 519.7 283.234H521.583C521.486 283.842 521.263 284.373 520.913 284.826C520.564 285.279 520.114 285.631 519.564 285.884C519.021 286.129 518.403 286.252 517.711 286.252ZM522.505 286L526.086 281.342L522.505 276.635H524.767L527.28 279.944L529.677 276.635H531.929L528.348 281.342L531.919 286H529.668L527.144 282.681L524.767 286H522.505ZM538.194 286.252C537.515 286.252 536.926 286.1 536.428 285.796C535.93 285.486 535.548 285.033 535.283 284.437C535.024 283.836 534.895 283.092 534.895 282.205H535.613C535.613 282.716 535.723 283.15 535.943 283.506C536.163 283.855 536.451 284.124 536.806 284.311C537.169 284.492 537.554 284.583 537.961 284.583C538.388 284.583 538.802 284.463 539.204 284.224C539.611 283.978 539.944 283.613 540.203 283.127C540.462 282.642 540.591 282.04 540.591 281.322C540.591 280.636 540.475 280.051 540.242 279.566C540.016 279.08 539.705 278.708 539.31 278.45C538.916 278.191 538.472 278.061 537.981 278.061C537.567 278.061 537.178 278.162 536.816 278.362C536.454 278.556 536.163 278.844 535.943 279.226C535.723 279.601 535.613 280.061 535.613 280.604H534.895C534.895 279.666 535.043 278.886 535.341 278.265C535.645 277.644 536.053 277.181 536.564 276.877C537.075 276.567 537.641 276.411 538.262 276.411C538.993 276.411 539.679 276.609 540.32 277.003C540.96 277.392 541.478 277.951 541.872 278.682C542.274 279.414 542.474 280.293 542.474 281.322C542.474 282.351 542.274 283.234 541.872 283.972C541.471 284.709 540.944 285.275 540.291 285.67C539.644 286.058 538.945 286.252 538.194 286.252ZM533.769 290.581V276.664H535.292L535.613 278.906V290.581H533.769ZM548.194 286.252C547.392 286.252 546.667 286.045 546.02 285.631C545.373 285.217 544.859 284.641 544.477 283.904C544.102 283.166 543.914 282.312 543.914 281.342C543.914 280.313 544.102 279.433 544.477 278.702C544.853 277.964 545.364 277.398 546.011 277.003C546.658 276.609 547.386 276.411 548.194 276.411C548.919 276.411 549.54 276.56 550.058 276.858C550.575 277.149 550.993 277.544 551.31 278.042C551.627 278.534 551.843 279.093 551.96 279.721C552.083 280.348 552.105 280.995 552.028 281.662H545.39V280.594H550.766L550.32 280.885C550.339 280.536 550.32 280.187 550.262 279.837C550.21 279.488 550.106 279.168 549.951 278.877C549.796 278.579 549.576 278.343 549.291 278.168C549.013 277.987 548.657 277.896 548.223 277.896C547.68 277.896 547.224 278.032 546.855 278.304C546.493 278.576 546.218 278.941 546.03 279.401C545.843 279.853 545.749 280.352 545.749 280.895V281.642C545.749 282.244 545.839 282.778 546.02 283.244C546.202 283.71 546.47 284.078 546.826 284.35C547.188 284.615 547.644 284.748 548.194 284.748C548.731 284.748 549.175 284.622 549.524 284.37C549.88 284.117 550.1 283.739 550.184 283.234H552.067C551.97 283.842 551.746 284.373 551.397 284.826C551.048 285.279 550.598 285.631 550.048 285.884C549.505 286.129 548.887 286.252 548.194 286.252ZM554.464 286V276.635H556.308V286H554.464ZM555.803 281.827C555.803 280.63 555.926 279.637 556.172 278.847C556.424 278.052 556.774 277.46 557.22 277.071C557.673 276.683 558.204 276.489 558.812 276.489C558.993 276.489 559.161 276.502 559.316 276.528C559.478 276.554 559.637 276.589 559.792 276.635L559.724 278.469C559.549 278.424 559.359 278.385 559.151 278.352C558.951 278.314 558.767 278.294 558.598 278.294C558.068 278.294 557.634 278.437 557.298 278.721C556.961 278.999 556.712 279.404 556.551 279.934C556.389 280.458 556.308 281.089 556.308 281.827H555.803ZM562.306 274.674C561.937 274.674 561.646 274.574 561.433 274.373C561.226 274.166 561.122 273.888 561.122 273.539C561.122 273.202 561.226 272.937 561.433 272.743C561.646 272.542 561.937 272.442 562.306 272.442C562.668 272.442 562.953 272.542 563.16 272.743C563.374 272.937 563.48 273.202 563.48 273.539C563.48 273.888 563.374 274.166 563.16 274.373C562.953 274.574 562.668 274.674 562.306 274.674ZM561.384 286V276.635H563.228V286H561.384ZM570.129 286.252C569.327 286.252 568.602 286.045 567.955 285.631C567.308 285.217 566.794 284.641 566.412 283.904C566.037 283.166 565.849 282.312 565.849 281.342C565.849 280.313 566.037 279.433 566.412 278.702C566.787 277.964 567.299 277.398 567.946 277.003C568.593 276.609 569.32 276.411 570.129 276.411C570.854 276.411 571.475 276.56 571.993 276.858C572.51 277.149 572.927 277.544 573.245 278.042C573.562 278.534 573.778 279.093 573.895 279.721C574.018 280.348 574.04 280.995 573.963 281.662H567.324V280.594H572.701L572.255 280.885C572.274 280.536 572.255 280.187 572.196 279.837C572.145 279.488 572.041 279.168 571.886 278.877C571.731 278.579 571.511 278.343 571.226 278.168C570.948 277.987 570.592 277.896 570.158 277.896C569.615 277.896 569.159 278.032 568.79 278.304C568.428 278.576 568.153 278.941 567.965 279.401C567.777 279.853 567.684 280.352 567.684 280.895V281.642C567.684 282.244 567.774 282.778 567.955 283.244C568.136 283.71 568.405 284.078 568.761 284.35C569.123 284.615 569.579 284.748 570.129 284.748C570.666 284.748 571.109 284.622 571.459 284.37C571.815 284.117 572.035 283.739 572.119 283.234H574.001C573.904 283.842 573.681 284.373 573.332 284.826C572.982 285.279 572.533 285.631 571.983 285.884C571.439 286.129 570.821 286.252 570.129 286.252ZM582.94 286V280.526C582.94 279.718 582.746 279.106 582.358 278.692C581.976 278.272 581.458 278.061 580.805 278.061C580.287 278.061 579.834 278.204 579.446 278.488C579.064 278.767 578.767 279.177 578.553 279.721C578.346 280.258 578.243 280.915 578.243 281.691H577.583C577.583 280.546 577.728 279.582 578.02 278.799C578.317 278.016 578.741 277.424 579.291 277.023C579.841 276.615 580.501 276.411 581.271 276.411C582.021 276.411 582.655 276.58 583.173 276.916C583.697 277.253 584.095 277.731 584.367 278.352C584.638 278.967 584.774 279.692 584.774 280.526V286H582.94ZM576.399 286V276.664H578L578.243 278.682V286H576.399ZM591.195 286.252C590.432 286.252 589.72 286.049 589.06 285.641C588.4 285.233 587.87 284.661 587.468 283.923C587.067 283.186 586.867 282.319 586.867 281.322C586.867 280.274 587.067 279.388 587.468 278.663C587.87 277.932 588.4 277.375 589.06 276.994C589.72 276.606 590.432 276.411 591.195 276.411C591.758 276.411 592.259 276.502 592.699 276.683C593.139 276.858 593.518 277.097 593.835 277.401C594.152 277.699 594.407 278.035 594.602 278.411C594.802 278.786 594.941 279.174 595.019 279.575L593.146 279.672C593.01 279.187 592.771 278.799 592.428 278.508C592.091 278.21 591.674 278.061 591.176 278.061C590.755 278.061 590.357 278.181 589.982 278.42C589.613 278.653 589.312 279.012 589.079 279.498C588.853 279.976 588.74 280.585 588.74 281.322C588.74 282.008 588.846 282.594 589.06 283.079C589.274 283.564 589.565 283.936 589.933 284.195C590.302 284.454 590.716 284.583 591.176 284.583C591.836 284.583 592.327 284.425 592.651 284.108C592.981 283.784 593.146 283.341 593.146 282.778H595.019C595.019 283.431 594.867 284.02 594.563 284.544C594.259 285.068 593.819 285.486 593.243 285.796C592.674 286.1 591.991 286.252 591.195 286.252ZM600.783 286.252C599.981 286.252 599.256 286.045 598.609 285.631C597.962 285.217 597.448 284.641 597.066 283.904C596.691 283.166 596.503 282.312 596.503 281.342C596.503 280.313 596.691 279.433 597.066 278.702C597.442 277.964 597.953 277.398 598.6 277.003C599.247 276.609 599.975 276.411 600.783 276.411C601.508 276.411 602.129 276.56 602.647 276.858C603.164 277.149 603.582 277.544 603.899 278.042C604.216 278.534 604.432 279.093 604.549 279.721C604.672 280.348 604.694 280.995 604.617 281.662H597.979V280.594H603.355L602.909 280.885C602.928 280.536 602.909 280.187 602.851 279.837C602.799 279.488 602.695 279.168 602.54 278.877C602.385 278.579 602.165 278.343 601.88 278.168C601.602 277.987 601.246 277.896 600.812 277.896C600.269 277.896 599.813 278.032 599.444 278.304C599.082 278.576 598.807 278.941 598.619 279.401C598.432 279.853 598.338 280.352 598.338 280.895V281.642C598.338 282.244 598.428 282.778 598.609 283.244C598.791 283.71 599.059 284.078 599.415 284.35C599.777 284.615 600.233 284.748 600.783 284.748C601.32 284.748 601.764 284.622 602.113 284.37C602.469 284.117 602.689 283.739 602.773 283.234H604.656C604.559 283.842 604.335 284.373 603.986 284.826C603.637 285.279 603.187 285.631 602.637 285.884C602.094 286.129 601.476 286.252 600.783 286.252ZM614.305 286.252C613.775 286.252 613.296 286.152 612.869 285.951C612.442 285.751 612.102 285.45 611.85 285.049C611.604 284.641 611.481 284.13 611.481 283.516V274.121H613.315V283.457C613.315 284.337 613.726 284.777 614.548 284.777C614.8 284.777 615.046 284.751 615.285 284.7C615.525 284.641 615.797 284.557 616.101 284.447L616.363 285.757C616.02 285.9 615.68 286.016 615.344 286.107C615.014 286.204 614.668 286.252 614.305 286.252ZM610.055 277.916V276.664H616.081V277.916H610.055ZM624.812 286V280.526C624.812 279.718 624.618 279.106 624.229 278.692C623.848 278.272 623.33 278.061 622.677 278.061C622.159 278.061 621.706 278.204 621.318 278.488C620.936 278.767 620.639 279.177 620.425 279.721C620.218 280.258 620.114 280.915 620.114 281.691H619.455C619.455 280.546 619.6 279.582 619.891 278.799C620.189 278.016 620.613 277.424 621.163 277.023C621.713 276.615 622.373 276.411 623.142 276.411C623.893 276.411 624.527 276.58 625.045 276.916C625.569 277.253 625.967 277.731 626.238 278.352C626.51 278.967 626.646 279.692 626.646 280.526V286H624.812ZM618.271 286V272.733H620.114V286H618.271ZM635.522 286L635.289 283.855V279.963C635.289 279.2 635.131 278.647 634.814 278.304C634.497 277.955 633.995 277.78 633.31 277.78C632.921 277.78 632.575 277.838 632.271 277.955C631.973 278.065 631.737 278.233 631.563 278.459C631.394 278.686 631.31 278.97 631.31 279.313H629.272C629.272 278.627 629.44 278.071 629.777 277.644C630.113 277.217 630.582 276.906 631.184 276.712C631.792 276.512 632.501 276.411 633.31 276.411C634.066 276.411 634.733 276.538 635.309 276.79C635.885 277.036 636.331 277.424 636.648 277.955C636.972 278.485 637.133 279.171 637.133 280.012V286H635.522ZM632.397 286.252C631.614 286.252 630.964 286.116 630.447 285.845C629.929 285.567 629.541 285.204 629.282 284.758C629.03 284.311 628.903 283.836 628.903 283.331C628.903 282.716 629.059 282.212 629.369 281.817C629.686 281.416 630.123 281.118 630.679 280.924C631.236 280.73 631.876 280.633 632.601 280.633C633.099 280.633 633.584 280.678 634.057 280.769C634.529 280.86 634.995 280.979 635.454 281.128V282.244C635.079 282.108 634.662 282.002 634.202 281.924C633.749 281.84 633.326 281.798 632.931 281.798C632.342 281.798 631.851 281.914 631.456 282.147C631.061 282.38 630.864 282.775 630.864 283.331C630.864 283.739 631.019 284.091 631.33 284.389C631.64 284.68 632.132 284.826 632.805 284.826C633.297 284.826 633.73 284.716 634.105 284.496C634.481 284.269 634.772 283.988 634.979 283.651C635.186 283.315 635.289 282.979 635.289 282.642H635.736C635.736 283.289 635.603 283.888 635.338 284.437C635.079 284.981 634.701 285.421 634.202 285.757C633.704 286.087 633.102 286.252 632.397 286.252ZM643.159 286.252C642.628 286.252 642.149 286.152 641.722 285.951C641.295 285.751 640.956 285.45 640.703 285.049C640.457 284.641 640.335 284.13 640.335 283.516V274.121H642.169V283.457C642.169 284.337 642.58 284.777 643.401 284.777C643.654 284.777 643.9 284.751 644.139 284.7C644.378 284.641 644.65 284.557 644.954 284.447L645.216 285.757C644.873 285.9 644.534 286.016 644.197 286.107C643.867 286.204 643.521 286.252 643.159 286.252ZM638.908 277.916V276.664H644.935V277.916H638.908ZM652.445 274.674C652.076 274.674 651.785 274.574 651.572 274.373C651.365 274.166 651.261 273.888 651.261 273.539C651.261 273.202 651.365 272.937 651.572 272.743C651.785 272.542 652.076 272.442 652.445 272.442C652.807 272.442 653.092 272.542 653.299 272.743C653.513 272.937 653.619 273.202 653.619 273.539C653.619 273.888 653.513 274.166 653.299 274.373C653.092 274.574 652.807 274.674 652.445 274.674ZM651.523 286V276.635H653.367V286H651.523ZM660.336 286.252C659.43 286.252 658.667 286.126 658.046 285.874C657.425 285.615 656.949 285.259 656.619 284.806C656.296 284.347 656.127 283.81 656.114 283.195H657.852C657.878 283.732 658.091 284.13 658.492 284.389C658.9 284.648 659.45 284.777 660.142 284.777C660.511 284.777 660.844 284.719 661.142 284.602C661.446 284.486 661.685 284.328 661.86 284.127C662.041 283.926 662.132 283.7 662.132 283.448C662.132 283.131 662.015 282.881 661.782 282.7C661.549 282.513 661.174 282.348 660.656 282.205L658.744 281.555C657.981 281.296 657.396 280.953 656.988 280.526C656.58 280.093 656.376 279.575 656.376 278.974C656.376 278.204 656.719 277.586 657.405 277.12C658.091 276.648 659 276.411 660.132 276.411C661.303 276.411 662.206 276.661 662.84 277.159C663.481 277.65 663.814 278.268 663.84 279.012H662.064C662.018 278.644 661.834 278.362 661.51 278.168C661.193 277.967 660.734 277.867 660.132 277.867C659.569 277.867 659.126 277.99 658.803 278.236C658.486 278.482 658.327 278.76 658.327 279.071C658.327 279.627 658.806 280.041 659.764 280.313L661.772 281.021C662.536 281.267 663.125 281.584 663.539 281.972C663.953 282.361 664.16 282.852 664.16 283.448C664.16 283.926 664.001 284.379 663.684 284.806C663.367 285.233 662.921 285.583 662.345 285.854C661.776 286.12 661.106 286.252 660.336 286.252ZM677.446 286V280.526C677.446 279.718 677.252 279.106 676.864 278.692C676.482 278.272 675.965 278.061 675.311 278.061C674.793 278.061 674.341 278.204 673.952 278.488C673.571 278.767 673.273 279.177 673.06 279.721C672.852 280.258 672.749 280.915 672.749 281.691H672.089C672.089 280.546 672.235 279.582 672.526 278.799C672.823 278.016 673.247 277.424 673.797 277.023C674.347 276.615 675.007 276.411 675.777 276.411C676.527 276.411 677.161 276.58 677.679 276.916C678.203 277.253 678.601 277.731 678.873 278.352C679.145 278.967 679.28 279.692 679.28 280.526V286H677.446ZM670.905 286V276.664H672.506L672.749 278.682V286H670.905ZM685.818 286.252C684.97 286.252 684.21 286.068 683.537 285.699C682.871 285.33 682.343 284.78 681.955 284.049C681.567 283.318 681.373 282.416 681.373 281.342C681.373 280.248 681.567 279.339 681.955 278.614C682.343 277.883 682.871 277.333 683.537 276.965C684.21 276.596 684.97 276.411 685.818 276.411C686.652 276.411 687.403 276.596 688.069 276.965C688.736 277.333 689.26 277.883 689.642 278.614C690.03 279.339 690.224 280.248 690.224 281.342C690.224 282.416 690.03 283.318 689.642 284.049C689.26 284.78 688.736 285.33 688.069 285.699C687.403 286.068 686.652 286.252 685.818 286.252ZM685.76 284.641C686.297 284.641 686.759 284.512 687.147 284.253C687.542 283.994 687.843 283.619 688.05 283.127C688.263 282.629 688.37 282.034 688.37 281.342C688.37 280.281 688.153 279.459 687.72 278.877C687.293 278.294 686.675 278.003 685.866 278.003C685.323 278.003 684.854 278.136 684.459 278.401C684.071 278.66 683.77 279.038 683.557 279.536C683.349 280.028 683.246 280.63 683.246 281.342C683.246 282.383 683.463 283.195 683.896 283.778C684.33 284.353 684.951 284.641 685.76 284.641ZM695.585 286.252C695.054 286.252 694.575 286.152 694.148 285.951C693.721 285.751 693.382 285.45 693.129 285.049C692.883 284.641 692.761 284.13 692.761 283.516V274.121H694.595V283.457C694.595 284.337 695.006 284.777 695.827 284.777C696.08 284.777 696.325 284.751 696.565 284.7C696.804 284.641 697.076 284.557 697.38 284.447L697.642 285.757C697.299 285.9 696.96 286.016 696.623 286.107C696.293 286.204 695.947 286.252 695.585 286.252ZM691.334 277.916V276.664H697.361V277.916H691.334ZM707.317 286.252C706.469 286.252 705.709 286.068 705.036 285.699C704.37 285.33 703.842 284.78 703.454 284.049C703.066 283.318 702.872 282.416 702.872 281.342C702.872 280.248 703.066 279.339 703.454 278.614C703.842 277.883 704.37 277.333 705.036 276.965C705.709 276.596 706.469 276.411 707.317 276.411C708.151 276.411 708.902 276.596 709.568 276.965C710.235 277.333 710.759 277.883 711.14 278.614C711.529 279.339 711.723 280.248 711.723 281.342C711.723 282.416 711.529 283.318 711.14 284.049C710.759 284.78 710.235 285.33 709.568 285.699C708.902 286.068 708.151 286.252 707.317 286.252ZM707.258 284.641C707.795 284.641 708.258 284.512 708.646 284.253C709.041 283.994 709.342 283.619 709.549 283.127C709.762 282.629 709.869 282.034 709.869 281.342C709.869 280.281 709.652 279.459 709.219 278.877C708.792 278.294 708.174 278.003 707.365 278.003C706.822 278.003 706.353 278.136 705.958 278.401C705.57 278.66 705.269 279.038 705.055 279.536C704.848 280.028 704.745 280.63 704.745 281.342C704.745 282.383 704.962 283.195 705.395 283.778C705.829 284.353 706.45 284.641 707.258 284.641ZM720.626 286V280.526C720.626 279.718 720.432 279.106 720.044 278.692C719.662 278.272 719.144 278.061 718.491 278.061C717.973 278.061 717.52 278.204 717.132 278.488C716.75 278.767 716.453 279.177 716.239 279.721C716.032 280.258 715.929 280.915 715.929 281.691H715.269C715.269 280.546 715.414 279.582 715.705 278.799C716.003 278.016 716.427 277.424 716.977 277.023C717.527 276.615 718.187 276.411 718.957 276.411C719.707 276.411 720.341 276.58 720.859 276.916C721.383 277.253 721.781 277.731 722.052 278.352C722.324 278.967 722.46 279.692 722.46 280.526V286H720.626ZM714.085 286V276.664H715.686L715.929 278.682V286H714.085ZM725.484 286V272.733H727.328V286H725.484ZM729.144 276.664H731.211L734.025 284.389H733.647L735.908 276.664H737.791L734.249 287.795C733.925 288.805 733.508 289.559 732.997 290.057C732.492 290.561 731.858 290.814 731.095 290.814C730.667 290.814 730.257 290.759 729.862 290.649C729.474 290.539 729.076 290.377 728.668 290.163V288.504C729.018 288.75 729.354 288.928 729.678 289.038C730.001 289.148 730.338 289.203 730.687 289.203C731.036 289.203 731.334 289.096 731.58 288.882C731.832 288.675 732.042 288.397 732.211 288.048C732.385 287.705 732.534 287.33 732.657 286.922L732.938 286L729.144 276.664ZM747.09 286.252C746.288 286.252 745.563 286.045 744.916 285.631C744.269 285.217 743.755 284.641 743.373 283.904C742.998 283.166 742.81 282.312 742.81 281.342C742.81 280.313 742.998 279.433 743.373 278.702C743.748 277.964 744.259 277.398 744.906 277.003C745.553 276.609 746.281 276.411 747.09 276.411C747.815 276.411 748.436 276.56 748.953 276.858C749.471 277.149 749.888 277.544 750.205 278.042C750.522 278.534 750.739 279.093 750.856 279.721C750.978 280.348 751.001 280.995 750.923 281.662H744.285V280.594H749.662L749.215 280.885C749.235 280.536 749.215 280.187 749.157 279.837C749.105 279.488 749.002 279.168 748.847 278.877C748.691 278.579 748.471 278.343 748.187 278.168C747.908 277.987 747.553 277.896 747.119 277.896C746.576 277.896 746.12 278.032 745.751 278.304C745.388 278.576 745.113 278.941 744.926 279.401C744.738 279.853 744.644 280.352 744.644 280.895V281.642C744.644 282.244 744.735 282.778 744.916 283.244C745.097 283.71 745.366 284.078 745.722 284.35C746.084 284.615 746.54 284.748 747.09 284.748C747.627 284.748 748.07 284.622 748.42 284.37C748.775 284.117 748.995 283.739 749.08 283.234H750.962C750.865 283.842 750.642 284.373 750.293 284.826C749.943 285.279 749.494 285.631 748.944 285.884C748.4 286.129 747.782 286.252 747.09 286.252ZM753.884 286V275.354C753.884 274.707 754.007 274.183 754.252 273.781C754.505 273.374 754.838 273.073 755.252 272.879C755.666 272.685 756.122 272.588 756.62 272.588C756.905 272.588 757.196 272.607 757.494 272.646C757.798 272.685 758.096 272.743 758.387 272.821L758.037 274.257C757.856 274.192 757.672 274.14 757.484 274.102C757.303 274.063 757.128 274.043 756.96 274.043C756.76 274.043 756.565 274.082 756.378 274.16C756.19 274.231 756.035 274.364 755.912 274.558C755.796 274.752 755.737 275.027 755.737 275.383V286H753.884ZM752.418 277.916V276.664H757.572V277.916H752.418ZM760.241 286V275.354C760.241 274.707 760.364 274.183 760.61 273.781C760.862 273.374 761.196 273.073 761.61 272.879C762.024 272.685 762.48 272.588 762.978 272.588C763.263 272.588 763.554 272.607 763.851 272.646C764.156 272.685 764.453 272.743 764.744 272.821L764.395 274.257C764.214 274.192 764.029 274.14 763.842 274.102C763.661 274.063 763.486 274.043 763.318 274.043C763.117 274.043 762.923 274.082 762.735 274.16C762.548 274.231 762.392 274.364 762.27 274.558C762.153 274.752 762.095 275.027 762.095 275.383V286H760.241ZM758.776 277.916V276.664H763.929V277.916H758.776ZM767.636 274.674C767.268 274.674 766.976 274.574 766.763 274.373C766.556 274.166 766.452 273.888 766.452 273.539C766.452 273.202 766.556 272.937 766.763 272.743C766.976 272.542 767.268 272.442 767.636 272.442C767.999 272.442 768.283 272.542 768.49 272.743C768.704 272.937 768.811 273.202 768.811 273.539C768.811 273.888 768.704 274.166 768.49 274.373C768.283 274.574 767.999 274.674 767.636 274.674ZM766.714 286V276.635H768.558V286H766.714ZM775.518 286.252C774.755 286.252 774.043 286.049 773.383 285.641C772.723 285.233 772.192 284.661 771.791 283.923C771.39 283.186 771.19 282.319 771.19 281.322C771.19 280.274 771.39 279.388 771.791 278.663C772.192 277.932 772.723 277.375 773.383 276.994C774.043 276.606 774.755 276.411 775.518 276.411C776.081 276.411 776.582 276.502 777.022 276.683C777.462 276.858 777.841 277.097 778.158 277.401C778.475 277.699 778.73 278.035 778.925 278.411C779.125 278.786 779.264 279.174 779.342 279.575L777.469 279.672C777.333 279.187 777.094 278.799 776.751 278.508C776.414 278.21 775.997 278.061 775.499 278.061C775.078 278.061 774.68 278.181 774.305 278.42C773.936 278.653 773.635 279.012 773.402 279.498C773.176 279.976 773.063 280.585 773.063 281.322C773.063 282.008 773.169 282.594 773.383 283.079C773.596 283.564 773.888 283.936 774.256 284.195C774.625 284.454 775.039 284.583 775.499 284.583C776.159 284.583 776.65 284.425 776.974 284.108C777.304 283.784 777.469 283.341 777.469 282.778H779.342C779.342 283.431 779.19 284.02 778.886 284.544C778.582 285.068 778.142 285.486 777.566 285.796C776.996 286.1 776.314 286.252 775.518 286.252ZM782.826 274.674C782.457 274.674 782.166 274.574 781.952 274.373C781.745 274.166 781.642 273.888 781.642 273.539C781.642 273.202 781.745 272.937 781.952 272.743C782.166 272.542 782.457 272.442 782.826 272.442C783.188 272.442 783.473 272.542 783.68 272.743C783.893 272.937 784 273.202 784 273.539C784 273.888 783.893 274.166 783.68 274.373C783.473 274.574 783.188 274.674 782.826 274.674ZM781.904 286V276.635H783.748V286H781.904ZM790.649 286.252C789.847 286.252 789.122 286.045 788.475 285.631C787.828 285.217 787.313 284.641 786.932 283.904C786.557 283.166 786.369 282.312 786.369 281.342C786.369 280.313 786.557 279.433 786.932 278.702C787.307 277.964 787.818 277.398 788.465 277.003C789.112 276.609 789.84 276.411 790.649 276.411C791.373 276.411 791.995 276.56 792.512 276.858C793.03 277.149 793.447 277.544 793.764 278.042C794.081 278.534 794.298 279.093 794.414 279.721C794.537 280.348 794.56 280.995 794.482 281.662H787.844V280.594H793.221L792.774 280.885C792.794 280.536 792.774 280.187 792.716 279.837C792.664 279.488 792.561 279.168 792.405 278.877C792.25 278.579 792.03 278.343 791.745 278.168C791.467 277.987 791.111 277.896 790.678 277.896C790.134 277.896 789.678 278.032 789.309 278.304C788.947 278.576 788.672 278.941 788.485 279.401C788.297 279.853 788.203 280.352 788.203 280.895V281.642C788.203 282.244 788.294 282.778 788.475 283.244C788.656 283.71 788.925 284.078 789.28 284.35C789.643 284.615 790.099 284.748 790.649 284.748C791.186 284.748 791.629 284.622 791.978 284.37C792.334 284.117 792.554 283.739 792.638 283.234H794.521C794.424 283.842 794.201 284.373 793.851 284.826C793.502 285.279 793.052 285.631 792.502 285.884C791.959 286.129 791.341 286.252 790.649 286.252ZM803.46 286V280.526C803.46 279.718 803.265 279.106 802.877 278.692C802.495 278.272 801.978 278.061 801.324 278.061C800.807 278.061 800.354 278.204 799.966 278.488C799.584 278.767 799.286 279.177 799.073 279.721C798.866 280.258 798.762 280.915 798.762 281.691H798.102C798.102 280.546 798.248 279.582 798.539 278.799C798.837 278.016 799.26 277.424 799.81 277.023C800.36 276.615 801.02 276.411 801.79 276.411C802.541 276.411 803.175 276.58 803.692 276.916C804.217 277.253 804.614 277.731 804.886 278.352C805.158 278.967 805.294 279.692 805.294 280.526V286H803.46ZM796.918 286V276.664H798.52L798.762 278.682V286H796.918ZM811.317 286.252C810.786 286.252 810.307 286.152 809.88 285.951C809.453 285.751 809.114 285.45 808.861 285.049C808.616 284.641 808.493 284.13 808.493 283.516V274.121H810.327V283.457C810.327 284.337 810.738 284.777 811.559 284.777C811.812 284.777 812.058 284.751 812.297 284.7C812.536 284.641 812.808 284.557 813.112 284.447L813.374 285.757C813.031 285.9 812.692 286.016 812.355 286.107C812.025 286.204 811.679 286.252 811.317 286.252ZM807.066 277.916V276.664H813.093V277.916H807.066ZM815.301 288.339L813.923 287.65C814.318 287.449 814.658 287.226 814.942 286.98C815.227 286.734 815.415 286.44 815.505 286.097C815.195 286.052 814.929 285.932 814.709 285.738C814.489 285.544 814.379 285.288 814.379 284.971C814.379 284.648 814.499 284.376 814.739 284.156C814.984 283.93 815.295 283.816 815.67 283.816C816.143 283.816 816.518 283.985 816.796 284.321C817.081 284.657 817.223 285.059 817.223 285.524C817.223 286.061 817.055 286.586 816.718 287.097C816.388 287.614 815.916 288.028 815.301 288.339ZM827.96 286.252C827.352 286.252 826.799 286.091 826.301 285.767C825.809 285.437 825.414 284.952 825.117 284.311C824.826 283.671 824.68 282.885 824.68 281.953H825.311C825.311 282.496 825.427 282.966 825.66 283.36C825.9 283.755 826.204 284.059 826.572 284.273C826.941 284.48 827.326 284.583 827.727 284.583C828.206 284.583 828.636 284.45 829.018 284.185C829.406 283.92 829.714 283.541 829.94 283.05C830.173 282.551 830.289 281.966 830.289 281.293C830.289 280.627 830.176 280.054 829.95 279.575C829.723 279.09 829.416 278.718 829.028 278.459C828.64 278.194 828.2 278.061 827.708 278.061C827.294 278.061 826.902 278.162 826.534 278.362C826.171 278.563 825.877 278.86 825.65 279.255C825.424 279.643 825.311 280.119 825.311 280.682H824.68C824.68 279.769 824.822 278.996 825.107 278.362C825.392 277.728 825.786 277.246 826.291 276.916C826.802 276.58 827.401 276.411 828.086 276.411C828.83 276.411 829.51 276.612 830.124 277.013C830.746 277.408 831.241 277.971 831.609 278.702C831.985 279.433 832.172 280.297 832.172 281.293C832.172 282.296 831.981 283.169 831.6 283.913C831.218 284.651 830.707 285.227 830.066 285.641C829.432 286.049 828.73 286.252 827.96 286.252ZM823.467 286V272.733H825.311V283.758L824.719 286H823.467ZM840.947 276.635H842.8V286H840.947V276.635ZM834.425 276.635H836.269V282.419C836.269 283.124 836.44 283.658 836.783 284.02C837.133 284.382 837.621 284.564 838.249 284.564C838.779 284.564 839.245 284.425 839.646 284.146C840.054 283.868 840.371 283.473 840.597 282.962C840.83 282.451 840.947 281.846 840.947 281.148H841.539C841.539 282.241 841.39 283.16 841.092 283.904C840.795 284.648 840.377 285.214 839.84 285.602C839.303 285.984 838.676 286.175 837.958 286.175C837.272 286.175 836.66 286.049 836.123 285.796C835.593 285.544 835.176 285.156 834.871 284.632C834.574 284.101 834.425 283.418 834.425 282.584V276.635ZM849.094 286.252C848.564 286.252 848.085 286.152 847.658 285.951C847.231 285.751 846.891 285.45 846.639 285.049C846.393 284.641 846.27 284.13 846.27 283.516V274.121H848.104V283.457C848.104 284.337 848.515 284.777 849.337 284.777C849.589 284.777 849.835 284.751 850.074 284.7C850.314 284.641 850.586 284.557 850.89 284.447L851.152 285.757C850.809 285.9 850.469 286.016 850.133 286.107C849.803 286.204 849.457 286.252 849.094 286.252ZM844.843 277.916V276.664H850.87V277.916H844.843ZM863.165 286L862.932 283.855V279.963C862.932 279.2 862.774 278.647 862.457 278.304C862.14 277.955 861.638 277.78 860.952 277.78C860.564 277.78 860.218 277.838 859.914 277.955C859.616 278.065 859.38 278.233 859.206 278.459C859.037 278.686 858.953 278.97 858.953 279.313H856.915C856.915 278.627 857.083 278.071 857.42 277.644C857.756 277.217 858.225 276.906 858.827 276.712C859.435 276.512 860.144 276.411 860.952 276.411C861.709 276.411 862.376 276.538 862.952 276.79C863.527 277.036 863.974 277.424 864.291 277.955C864.614 278.485 864.776 279.171 864.776 280.012V286H863.165ZM860.04 286.252C859.257 286.252 858.607 286.116 858.089 285.845C857.572 285.567 857.184 285.204 856.925 284.758C856.673 284.311 856.546 283.836 856.546 283.331C856.546 282.716 856.702 282.212 857.012 281.817C857.329 281.416 857.766 281.118 858.322 280.924C858.879 280.73 859.519 280.633 860.244 280.633C860.742 280.633 861.227 280.678 861.7 280.769C862.172 280.86 862.638 280.979 863.097 281.128V282.244C862.722 282.108 862.305 282.002 861.845 281.924C861.392 281.84 860.969 281.798 860.574 281.798C859.985 281.798 859.493 281.914 859.099 282.147C858.704 282.38 858.507 282.775 858.507 283.331C858.507 283.739 858.662 284.091 858.973 284.389C859.283 284.68 859.775 284.826 860.448 284.826C860.939 284.826 861.373 284.716 861.748 284.496C862.123 284.269 862.415 283.988 862.622 283.651C862.829 283.315 862.932 282.979 862.932 282.642H863.379C863.379 283.289 863.246 283.888 862.981 284.437C862.722 284.981 862.343 285.421 861.845 285.757C861.347 286.087 860.745 286.252 860.04 286.252ZM867.803 286V272.733H869.647V286H867.803ZM876.363 286.252C875.458 286.252 874.694 286.126 874.073 285.874C873.452 285.615 872.976 285.259 872.646 284.806C872.323 284.347 872.155 283.81 872.142 283.195H873.879C873.905 283.732 874.118 284.13 874.519 284.389C874.927 284.648 875.477 284.777 876.169 284.777C876.538 284.777 876.871 284.719 877.169 284.602C877.473 284.486 877.712 284.328 877.887 284.127C878.068 283.926 878.159 283.7 878.159 283.448C878.159 283.131 878.042 282.881 877.809 282.7C877.576 282.513 877.201 282.348 876.684 282.205L874.772 281.555C874.008 281.296 873.423 280.953 873.015 280.526C872.608 280.093 872.404 279.575 872.404 278.974C872.404 278.204 872.747 277.586 873.432 277.12C874.118 276.648 875.027 276.411 876.16 276.411C877.331 276.411 878.233 276.661 878.867 277.159C879.508 277.65 879.841 278.268 879.867 279.012H878.091C878.046 278.644 877.861 278.362 877.538 278.168C877.221 277.967 876.761 277.867 876.16 277.867C875.597 277.867 875.153 277.99 874.83 278.236C874.513 278.482 874.354 278.76 874.354 279.071C874.354 279.627 874.833 280.041 875.791 280.313L877.8 281.021C878.563 281.267 879.152 281.584 879.566 281.972C879.98 282.361 880.187 282.852 880.187 283.448C880.187 283.926 880.029 284.379 879.712 284.806C879.395 285.233 878.948 285.583 878.372 285.854C877.803 286.12 877.133 286.252 876.363 286.252ZM886.192 286.252C885.344 286.252 884.584 286.068 883.911 285.699C883.245 285.33 882.718 284.78 882.329 284.049C881.941 283.318 881.747 282.416 881.747 281.342C881.747 280.248 881.941 279.339 882.329 278.614C882.718 277.883 883.245 277.333 883.911 276.965C884.584 276.596 885.344 276.411 886.192 276.411C887.027 276.411 887.777 276.596 888.444 276.965C889.11 277.333 889.634 277.883 890.016 278.614C890.404 279.339 890.598 280.248 890.598 281.342C890.598 282.416 890.404 283.318 890.016 284.049C889.634 284.78 889.11 285.33 888.444 285.699C887.777 286.068 887.027 286.252 886.192 286.252ZM886.134 284.641C886.671 284.641 887.133 284.512 887.522 284.253C887.916 283.994 888.217 283.619 888.424 283.127C888.638 282.629 888.744 282.034 888.744 281.342C888.744 280.281 888.528 279.459 888.094 278.877C887.667 278.294 887.049 278.003 886.24 278.003C885.697 278.003 885.228 278.136 884.833 278.401C884.445 278.66 884.144 279.038 883.931 279.536C883.724 280.028 883.62 280.63 883.62 281.342C883.62 282.383 883.837 283.195 884.27 283.778C884.704 284.353 885.325 284.641 886.134 284.641ZM900.562 286.252C899.759 286.252 899.035 286.045 898.388 285.631C897.741 285.217 897.226 284.641 896.845 283.904C896.469 283.166 896.282 282.312 896.282 281.342C896.282 280.313 896.469 279.433 896.845 278.702C897.22 277.964 897.731 277.398 898.378 277.003C899.025 276.609 899.753 276.411 900.562 276.411C901.286 276.411 901.907 276.56 902.425 276.858C902.943 277.149 903.36 277.544 903.677 278.042C903.994 278.534 904.211 279.093 904.327 279.721C904.45 280.348 904.473 280.995 904.395 281.662H897.757V280.594H903.134L902.687 280.885C902.706 280.536 902.687 280.187 902.629 279.837C902.577 279.488 902.474 279.168 902.318 278.877C902.163 278.579 901.943 278.343 901.658 278.168C901.38 277.987 901.024 277.896 900.591 277.896C900.047 277.896 899.591 278.032 899.222 278.304C898.86 278.576 898.585 278.941 898.397 279.401C898.21 279.853 898.116 280.352 898.116 280.895V281.642C898.116 282.244 898.207 282.778 898.388 283.244C898.569 283.71 898.837 284.078 899.193 284.35C899.556 284.615 900.012 284.748 900.562 284.748C901.099 284.748 901.542 284.622 901.891 284.37C902.247 284.117 902.467 283.739 902.551 283.234H904.434C904.337 283.842 904.114 284.373 903.764 284.826C903.415 285.279 902.965 285.631 902.415 285.884C901.872 286.129 901.254 286.252 900.562 286.252ZM913.372 286V280.526C913.372 279.718 913.178 279.106 912.79 278.692C912.408 278.272 911.891 278.061 911.237 278.061C910.72 278.061 910.267 278.204 909.879 278.488C909.497 278.767 909.199 279.177 908.986 279.721C908.779 280.258 908.675 280.915 908.675 281.691H908.015C908.015 280.546 908.161 279.582 908.452 278.799C908.75 278.016 909.173 277.424 909.723 277.023C910.273 276.615 910.933 276.411 911.703 276.411C912.454 276.411 913.088 276.58 913.605 276.916C914.129 277.253 914.527 277.731 914.799 278.352C915.071 278.967 915.207 279.692 915.207 280.526V286H913.372ZM906.831 286V276.664H908.433L908.675 278.682V286H906.831ZM919.512 274.674C919.15 274.674 918.862 274.574 918.648 274.373C918.441 274.166 918.338 273.888 918.338 273.539C918.338 273.202 918.441 272.937 918.648 272.743C918.862 272.542 919.15 272.442 919.512 272.442C919.874 272.442 920.162 272.542 920.376 272.743C920.589 272.937 920.696 273.202 920.696 273.539C920.696 273.888 920.589 274.166 920.376 274.373C920.162 274.574 919.874 274.674 919.512 274.674ZM917.406 290.814C916.934 290.814 916.487 290.755 916.067 290.639C915.64 290.529 915.203 290.364 914.756 290.144L914.815 288.552C915.177 288.74 915.539 288.895 915.902 289.018C916.264 289.141 916.633 289.203 917.008 289.203C917.519 289.203 917.914 289.044 918.192 288.727C918.47 288.417 918.609 287.912 918.609 287.213V276.625H920.444V287.233C920.444 288.514 920.169 289.429 919.619 289.979C919.069 290.535 918.331 290.814 917.406 290.814ZM927.514 286.252C926.666 286.252 925.906 286.068 925.233 285.699C924.567 285.33 924.04 284.78 923.651 284.049C923.263 283.318 923.069 282.416 923.069 281.342C923.069 280.248 923.263 279.339 923.651 278.614C924.04 277.883 924.567 277.333 925.233 276.965C925.906 276.596 926.666 276.411 927.514 276.411C928.349 276.411 929.099 276.596 929.766 276.965C930.432 277.333 930.956 277.883 931.338 278.614C931.726 279.339 931.92 280.248 931.92 281.342C931.92 282.416 931.726 283.318 931.338 284.049C930.956 284.78 930.432 285.33 929.766 285.699C929.099 286.068 928.349 286.252 927.514 286.252ZM927.456 284.641C927.993 284.641 928.455 284.512 928.844 284.253C929.238 283.994 929.539 283.619 929.746 283.127C929.96 282.629 930.066 282.034 930.066 281.342C930.066 280.281 929.85 279.459 929.416 278.877C928.989 278.294 928.371 278.003 927.563 278.003C927.019 278.003 926.55 278.136 926.155 278.401C925.767 278.66 925.466 279.038 925.253 279.536C925.046 280.028 924.942 280.63 924.942 281.342C924.942 282.383 925.159 283.195 925.592 283.778C926.026 284.353 926.647 284.641 927.456 284.641ZM932.797 276.664H934.864L937.679 284.389H937.3L939.562 276.664H941.444L937.902 287.795C937.578 288.805 937.161 289.559 936.65 290.057C936.145 290.561 935.511 290.814 934.748 290.814C934.321 290.814 933.91 290.759 933.515 290.649C933.127 290.539 932.729 290.377 932.322 290.163V288.504C932.671 288.75 933.007 288.928 933.331 289.038C933.654 289.148 933.991 289.203 934.34 289.203C934.69 289.203 934.987 289.096 935.233 288.882C935.485 288.675 935.696 288.397 935.864 288.048C936.039 287.705 936.187 287.33 936.31 286.922L936.592 286L932.797 276.664ZM948.994 286L948.761 283.855V279.963C948.761 279.2 948.602 278.647 948.285 278.304C947.968 277.955 947.467 277.78 946.781 277.78C946.393 277.78 946.047 277.838 945.743 277.955C945.445 278.065 945.209 278.233 945.034 278.459C944.866 278.686 944.782 278.97 944.782 279.313H942.744C942.744 278.627 942.912 278.071 943.248 277.644C943.585 277.217 944.054 276.906 944.656 276.712C945.264 276.512 945.972 276.411 946.781 276.411C947.538 276.411 948.204 276.538 948.78 276.79C949.356 277.036 949.802 277.424 950.12 277.955C950.443 278.485 950.605 279.171 950.605 280.012V286H948.994ZM945.869 286.252C945.086 286.252 944.436 286.116 943.918 285.845C943.4 285.567 943.012 285.204 942.753 284.758C942.501 284.311 942.375 283.836 942.375 283.331C942.375 282.716 942.53 282.212 942.841 281.817C943.158 281.416 943.595 281.118 944.151 280.924C944.707 280.73 945.348 280.633 946.073 280.633C946.571 280.633 947.056 280.678 947.528 280.769C948.001 280.86 948.466 280.979 948.926 281.128V282.244C948.551 282.108 948.133 282.002 947.674 281.924C947.221 281.84 946.797 281.798 946.403 281.798C945.814 281.798 945.322 281.914 944.927 282.147C944.533 282.38 944.335 282.775 944.335 283.331C944.335 283.739 944.491 284.091 944.801 284.389C945.112 284.68 945.603 284.826 946.276 284.826C946.768 284.826 947.202 284.716 947.577 284.496C947.952 284.269 948.243 283.988 948.45 283.651C948.657 283.315 948.761 282.979 948.761 282.642H949.207C949.207 283.289 949.075 283.888 948.809 284.437C948.551 284.981 948.172 285.421 947.674 285.757C947.176 286.087 946.574 286.252 945.869 286.252ZM958.125 286.252C957.517 286.252 956.963 286.091 956.465 285.767C955.974 285.437 955.579 284.952 955.281 284.311C954.99 283.671 954.844 282.885 954.844 281.953H955.475C955.475 282.496 955.592 282.966 955.825 283.36C956.064 283.755 956.368 284.059 956.737 284.273C957.106 284.48 957.491 284.583 957.892 284.583C958.371 284.583 958.801 284.45 959.183 284.185C959.571 283.92 959.878 283.541 960.105 283.05C960.338 282.551 960.454 281.966 960.454 281.293C960.454 280.627 960.341 280.054 960.114 279.575C959.888 279.09 959.581 278.718 959.192 278.459C958.804 278.194 958.364 278.061 957.872 278.061C957.458 278.061 957.067 278.162 956.698 278.362C956.336 278.563 956.041 278.86 955.815 279.255C955.589 279.643 955.475 280.119 955.475 280.682H954.844C954.844 279.769 954.987 278.996 955.272 278.362C955.556 277.728 955.951 277.246 956.456 276.916C956.967 276.58 957.565 276.411 958.251 276.411C958.995 276.411 959.674 276.612 960.289 277.013C960.91 277.408 961.405 277.971 961.774 278.702C962.149 279.433 962.337 280.297 962.337 281.293C962.337 282.296 962.146 283.169 961.764 283.913C961.382 284.651 960.871 285.227 960.231 285.641C959.597 286.049 958.895 286.252 958.125 286.252ZM953.631 286V272.733H955.475V283.758L954.883 286H953.631ZM964.822 286V272.733H966.666V286H964.822ZM973.315 286.252C972.513 286.252 971.788 286.045 971.141 285.631C970.494 285.217 969.98 284.641 969.598 283.904C969.223 283.166 969.035 282.312 969.035 281.342C969.035 280.313 969.223 279.433 969.598 278.702C969.973 277.964 970.484 277.398 971.131 277.003C971.778 276.609 972.506 276.411 973.315 276.411C974.04 276.411 974.661 276.56 975.178 276.858C975.696 277.149 976.113 277.544 976.43 278.042C976.747 278.534 976.964 279.093 977.081 279.721C977.204 280.348 977.226 280.995 977.149 281.662H970.51V280.594H975.887L975.44 280.885C975.46 280.536 975.44 280.187 975.382 279.837C975.33 279.488 975.227 279.168 975.072 278.877C974.916 278.579 974.696 278.343 974.412 278.168C974.134 277.987 973.778 277.896 973.344 277.896C972.801 277.896 972.345 278.032 971.976 278.304C971.613 278.576 971.338 278.941 971.151 279.401C970.963 279.853 970.869 280.352 970.869 280.895V281.642C970.869 282.244 970.96 282.778 971.141 283.244C971.322 283.71 971.591 284.078 971.947 284.35C972.309 284.615 972.765 284.748 973.315 284.748C973.852 284.748 974.295 284.622 974.645 284.37C975.001 284.117 975.22 283.739 975.305 283.234H977.187C977.09 283.842 976.867 284.373 976.518 284.826C976.168 285.279 975.719 285.631 975.169 285.884C974.625 286.129 974.007 286.252 973.315 286.252ZM981.108 282.613V281.778C981.108 281.215 981.17 280.756 981.293 280.4C981.422 280.038 981.626 279.727 981.904 279.469C982.182 279.203 982.561 278.948 983.04 278.702C983.467 278.475 983.8 278.268 984.039 278.081C984.285 277.887 984.46 277.683 984.563 277.469C984.667 277.256 984.719 277 984.719 276.703C984.719 276.237 984.531 275.852 984.156 275.548C983.78 275.237 983.263 275.082 982.603 275.082C981.859 275.082 981.286 275.237 980.885 275.548C980.49 275.858 980.251 276.279 980.167 276.809H978.226C978.31 275.787 978.714 274.965 979.439 274.344C980.164 273.723 981.199 273.413 982.545 273.413C983.412 273.413 984.159 273.561 984.787 273.859C985.414 274.15 985.896 274.548 986.233 275.053C986.569 275.557 986.737 276.117 986.737 276.732C986.737 277.398 986.569 277.961 986.233 278.42C985.896 278.88 985.359 279.3 984.622 279.682C984.195 279.908 983.858 280.122 983.612 280.323C983.366 280.517 983.192 280.737 983.088 280.983C982.991 281.228 982.943 281.545 982.943 281.934V282.613H981.108ZM982.069 286.252C981.681 286.252 981.364 286.129 981.118 285.884C980.872 285.638 980.749 285.34 980.749 284.991C980.749 284.628 980.869 284.321 981.108 284.069C981.354 283.816 981.671 283.69 982.059 283.69C982.448 283.69 982.771 283.816 983.03 284.069C983.295 284.315 983.428 284.619 983.428 284.981C983.428 285.33 983.298 285.631 983.04 285.884C982.781 286.129 982.457 286.252 982.069 286.252Z" fill="#666666"/>
<line x1="422" y1="200.276" x2="1078.01" y2="200.276" stroke="#383838"/>
<line x1="422" y1="330.276" x2="1078.01" y2="330.276" stroke="#383838"/>
</svg>
