<svg width="1500" height="189" viewBox="0 0 1500 189" fill="none" xmlns="http://www.w3.org/2000/svg">
<rect width="1500" height="189" fill="#E5E5E5"/>
<rect width="1500" height="189" fill="white"/>
<path d="M667.112 89V74.722H672.392C674.101 74.722 675.41 75.1217 676.319 75.921C677.236 76.7203 677.694 77.78 677.694 79.1C677.694 80.398 677.236 81.4467 676.319 82.246C675.41 83.038 674.101 83.434 672.392 83.434H669.708V89H667.112ZM674.834 89L671.05 82.312H673.822L678.222 89H674.834ZM669.708 81.696H672.128C673.082 81.696 673.804 81.4797 674.295 81.047C674.787 80.607 675.032 80.0387 675.032 79.342C675.032 78.6307 674.809 78.0587 674.361 77.626C673.914 77.186 673.258 76.966 672.392 76.966H669.708V81.696ZM684.703 89.308C683.793 89.308 682.961 89.0733 682.206 88.604C681.45 88.1347 680.845 87.4783 680.391 86.635C679.936 85.7843 679.709 84.7907 679.709 83.654C679.709 82.4807 679.932 81.4723 680.38 80.629C680.834 79.7857 681.439 79.1403 682.195 78.693C682.95 78.2457 683.786 78.022 684.703 78.022C685.553 78.022 686.287 78.1943 686.903 78.539C687.526 78.8763 688.025 79.3383 688.399 79.925C688.78 80.5043 689.037 81.1607 689.169 81.894C689.301 82.6273 689.308 83.3827 689.191 84.16H681.777V82.752H687.354L686.848 83.082C686.87 82.7373 686.851 82.389 686.793 82.037C686.741 81.685 686.639 81.3623 686.485 81.069C686.331 80.7757 686.111 80.541 685.825 80.365C685.546 80.1817 685.187 80.09 684.747 80.09C684.219 80.09 683.771 80.222 683.405 80.486C683.038 80.75 682.759 81.1093 682.569 81.564C682.378 82.0187 682.283 82.532 682.283 83.104V84.138C682.283 84.7393 682.371 85.271 682.547 85.733C682.73 86.195 682.998 86.558 683.35 86.822C683.709 87.086 684.16 87.218 684.703 87.218C685.209 87.218 685.634 87.1007 685.979 86.866C686.323 86.6313 686.543 86.2793 686.639 85.81H689.257C689.147 86.4993 688.886 87.108 688.476 87.636C688.072 88.1567 687.548 88.5673 686.903 88.868C686.257 89.1613 685.524 89.308 684.703 89.308ZM695.775 89.308C694.88 89.308 694.062 89.0733 693.322 88.604C692.588 88.1273 692.002 87.4637 691.562 86.613C691.129 85.755 690.913 84.754 690.913 83.61C690.913 82.4807 691.122 81.498 691.54 80.662C691.965 79.8187 692.53 79.1697 693.234 78.715C693.945 78.253 694.733 78.022 695.599 78.022C696.391 78.022 697.076 78.2127 697.656 78.594C698.235 78.968 698.679 79.5253 698.987 80.266C699.295 81.0067 699.449 81.916 699.449 82.994H698.635C698.635 82.4367 698.521 81.9637 698.294 81.575C698.066 81.179 697.766 80.8783 697.392 80.673C697.025 80.4603 696.625 80.354 696.193 80.354C695.672 80.354 695.21 80.4897 694.807 80.761C694.411 81.0323 694.099 81.4137 693.872 81.905C693.644 82.389 693.531 82.9573 693.531 83.61C693.531 84.2847 693.644 84.8713 693.872 85.37C694.099 85.8687 694.411 86.2573 694.807 86.536C695.21 86.8147 695.665 86.954 696.171 86.954C696.581 86.954 696.974 86.844 697.348 86.624C697.729 86.3967 698.037 86.0813 698.272 85.678C698.514 85.2747 698.635 84.8053 698.635 84.27H699.449C699.449 85.392 699.28 86.327 698.943 87.075C698.613 87.8157 698.169 88.373 697.612 88.747C697.054 89.121 696.442 89.308 695.775 89.308ZM699.119 89L698.635 86.36V73.908H701.253V89H699.119ZM711.906 78.286H714.502V89H711.906V78.286ZM704.58 78.286H707.176V84.842C707.176 85.5387 707.349 86.063 707.693 86.415C708.038 86.7597 708.511 86.932 709.112 86.932C709.626 86.932 710.091 86.8 710.509 86.536C710.935 86.2647 711.272 85.8687 711.521 85.348C711.778 84.82 711.906 84.1673 711.906 83.39H712.61C712.61 84.6953 712.442 85.777 712.104 86.635C711.767 87.493 711.301 88.1347 710.707 88.56C710.113 88.9853 709.428 89.198 708.65 89.198C707.888 89.198 707.198 89.0623 706.582 88.791C705.966 88.5197 705.479 88.0833 705.119 87.482C704.76 86.8807 704.58 86.0887 704.58 85.106V78.286ZM722.091 89.308C721.197 89.308 720.364 89.077 719.594 88.615C718.832 88.1457 718.212 87.4893 717.735 86.646C717.266 85.7953 717.031 84.798 717.031 83.654C717.031 82.444 717.266 81.421 717.735 80.585C718.212 79.7417 718.832 79.1037 719.594 78.671C720.364 78.2383 721.197 78.022 722.091 78.022C722.788 78.022 723.4 78.1357 723.928 78.363C724.464 78.583 724.918 78.8837 725.292 79.265C725.666 79.639 725.96 80.057 726.172 80.519C726.385 80.981 726.521 81.4467 726.579 81.916L723.961 81.982C723.844 81.5127 723.624 81.124 723.301 80.816C722.986 80.508 722.575 80.354 722.069 80.354C721.651 80.354 721.259 80.4713 720.892 80.706C720.526 80.9333 720.225 81.289 719.99 81.773C719.763 82.257 719.649 82.884 719.649 83.654C719.649 84.3873 719.756 84.9997 719.968 85.491C720.188 85.975 720.482 86.3417 720.848 86.591C721.215 86.833 721.622 86.954 722.069 86.954C722.729 86.954 723.21 86.7963 723.51 86.481C723.811 86.1583 723.961 85.7293 723.961 85.194H726.579C726.579 85.9493 726.407 86.6387 726.062 87.262C725.718 87.8853 725.212 88.384 724.544 88.758C723.877 89.1247 723.059 89.308 722.091 89.308ZM733.12 89.308C732.21 89.308 731.378 89.0733 730.623 88.604C729.867 88.1347 729.262 87.4783 728.808 86.635C728.353 85.7843 728.126 84.7907 728.126 83.654C728.126 82.4807 728.349 81.4723 728.797 80.629C729.251 79.7857 729.856 79.1403 730.612 78.693C731.367 78.2457 732.203 78.022 733.12 78.022C733.97 78.022 734.704 78.1943 735.32 78.539C735.943 78.8763 736.442 79.3383 736.816 79.925C737.197 80.5043 737.454 81.1607 737.586 81.894C737.718 82.6273 737.725 83.3827 737.608 84.16H730.194V82.752H735.771L735.265 83.082C735.287 82.7373 735.268 82.389 735.21 82.037C735.158 81.685 735.056 81.3623 734.902 81.069C734.748 80.7757 734.528 80.541 734.242 80.365C733.963 80.1817 733.604 80.09 733.164 80.09C732.636 80.09 732.188 80.222 731.822 80.486C731.455 80.75 731.176 81.1093 730.986 81.564C730.795 82.0187 730.7 82.532 730.7 83.104V84.138C730.7 84.7393 730.788 85.271 730.964 85.733C731.147 86.195 731.415 86.558 731.767 86.822C732.126 87.086 732.577 87.218 733.12 87.218C733.626 87.218 734.051 87.1007 734.396 86.866C734.74 86.6313 734.96 86.2793 735.056 85.81H737.674C737.564 86.4993 737.303 87.108 736.893 87.636C736.489 88.1567 735.965 88.5673 735.32 88.868C734.674 89.1613 733.941 89.308 733.12 89.308ZM744.192 89.308C743.297 89.308 742.479 89.0733 741.739 88.604C741.005 88.1273 740.419 87.4637 739.979 86.613C739.546 85.755 739.33 84.754 739.33 83.61C739.33 82.4807 739.539 81.498 739.957 80.662C740.382 79.8187 740.947 79.1697 741.651 78.715C742.362 78.253 743.15 78.022 744.016 78.022C744.808 78.022 745.493 78.2127 746.073 78.594C746.652 78.968 747.096 79.5253 747.404 80.266C747.712 81.0067 747.866 81.916 747.866 82.994H747.052C747.052 82.4367 746.938 81.9637 746.711 81.575C746.483 81.179 746.183 80.8783 745.809 80.673C745.442 80.4603 745.042 80.354 744.61 80.354C744.089 80.354 743.627 80.4897 743.224 80.761C742.828 81.0323 742.516 81.4137 742.289 81.905C742.061 82.389 741.948 82.9573 741.948 83.61C741.948 84.2847 742.061 84.8713 742.289 85.37C742.516 85.8687 742.828 86.2573 743.224 86.536C743.627 86.8147 744.082 86.954 744.588 86.954C744.998 86.954 745.391 86.844 745.765 86.624C746.146 86.3967 746.454 86.0813 746.689 85.678C746.931 85.2747 747.052 84.8053 747.052 84.27H747.866C747.866 85.392 747.697 86.327 747.36 87.075C747.03 87.8157 746.586 88.373 746.029 88.747C745.471 89.121 744.859 89.308 744.192 89.308ZM747.536 89L747.052 86.36V73.908H749.67V89H747.536ZM758.232 89V74.722H767.23V76.966H760.828V80.728H766.68V82.95H760.828V89H758.232ZM769.713 89V78.286H772.309V89H769.713ZM771.671 84.314C771.671 82.9133 771.829 81.7547 772.144 80.838C772.46 79.9213 772.881 79.243 773.409 78.803C773.945 78.3557 774.539 78.132 775.191 78.132C775.367 78.132 775.532 78.143 775.686 78.165C775.848 78.187 776.005 78.22 776.159 78.264L776.115 80.86C775.925 80.816 775.719 80.7793 775.499 80.75C775.279 80.7207 775.081 80.706 774.905 80.706C774.333 80.706 773.853 80.8453 773.464 81.124C773.083 81.3953 772.793 81.7987 772.595 82.334C772.405 82.8693 772.309 83.5293 772.309 84.314H771.671ZM779.318 76.372C778.812 76.372 778.416 76.24 778.13 75.976C777.851 75.7047 777.712 75.3307 777.712 74.854C777.712 74.392 777.851 74.0253 778.13 73.754C778.416 73.4753 778.812 73.336 779.318 73.336C779.817 73.336 780.209 73.4753 780.495 73.754C780.781 74.0253 780.924 74.392 780.924 74.854C780.924 75.3307 780.781 75.7047 780.495 75.976C780.209 76.24 779.817 76.372 779.318 76.372ZM778.02 89V78.286H780.616V89H778.02ZM788.517 89.308C787.622 89.308 786.79 89.077 786.02 88.615C785.257 88.1457 784.637 87.4893 784.161 86.646C783.691 85.7953 783.457 84.798 783.457 83.654C783.457 82.444 783.691 81.421 784.161 80.585C784.637 79.7417 785.257 79.1037 786.02 78.671C786.79 78.2383 787.622 78.022 788.517 78.022C789.213 78.022 789.826 78.1357 790.354 78.363C790.889 78.583 791.344 78.8837 791.718 79.265C792.092 79.639 792.385 80.057 792.598 80.519C792.81 80.981 792.946 81.4467 793.005 81.916L790.387 81.982C790.269 81.5127 790.049 81.124 789.727 80.816C789.411 80.508 789.001 80.354 788.495 80.354C788.077 80.354 787.684 80.4713 787.318 80.706C786.951 80.9333 786.65 81.289 786.416 81.773C786.188 82.257 786.075 82.884 786.075 83.654C786.075 84.3873 786.181 84.9997 786.394 85.491C786.614 85.975 786.907 86.3417 787.274 86.591C787.64 86.833 788.047 86.954 788.495 86.954C789.155 86.954 789.635 86.7963 789.936 86.481C790.236 86.1583 790.387 85.7293 790.387 85.194H793.005C793.005 85.9493 792.832 86.6387 792.488 87.262C792.143 87.8853 791.637 88.384 790.97 88.758C790.302 89.1247 789.485 89.308 788.517 89.308ZM799.171 89.308C798.541 89.308 797.961 89.1907 797.433 88.956C796.913 88.7213 796.495 88.362 796.179 87.878C795.871 87.394 795.717 86.778 795.717 86.03V75.492H798.313V85.942C798.313 86.822 798.731 87.262 799.567 87.262C799.824 87.262 800.081 87.2327 800.337 87.174C800.594 87.1153 800.887 87.0273 801.217 86.91L801.591 88.736C801.181 88.8973 800.781 89.033 800.392 89.143C800.004 89.253 799.597 89.308 799.171 89.308ZM794.221 80.046V78.33H801.217V80.046H794.221ZM805.211 76.372C804.705 76.372 804.309 76.24 804.023 75.976C803.744 75.7047 803.605 75.3307 803.605 74.854C803.605 74.392 803.744 74.0253 804.023 73.754C804.309 73.4753 804.705 73.336 805.211 73.336C805.71 73.336 806.102 73.4753 806.388 73.754C806.674 74.0253 806.817 74.392 806.817 74.854C806.817 75.3307 806.674 75.7047 806.388 75.976C806.102 76.24 805.71 76.372 805.211 76.372ZM803.913 89V78.286H806.509V89H803.913ZM814.564 89.308C813.588 89.308 812.705 89.099 811.913 88.681C811.128 88.263 810.505 87.6397 810.043 86.811C809.581 85.975 809.35 84.93 809.35 83.676C809.35 82.4 809.581 81.344 810.043 80.508C810.505 79.672 811.128 79.0487 811.913 78.638C812.705 78.2273 813.588 78.022 814.564 78.022C815.524 78.022 816.393 78.2273 817.171 78.638C817.955 79.0487 818.579 79.672 819.041 80.508C819.503 81.344 819.734 82.4 819.734 83.676C819.734 84.93 819.503 85.975 819.041 86.811C818.579 87.6397 817.955 88.263 817.171 88.681C816.393 89.099 815.524 89.308 814.564 89.308ZM814.476 87.042C814.989 87.042 815.444 86.9173 815.84 86.668C816.243 86.4113 816.558 86.0337 816.786 85.535C817.02 85.0363 817.138 84.4167 817.138 83.676C817.138 82.5467 816.914 81.696 816.467 81.124C816.027 80.552 815.422 80.266 814.652 80.266C814.131 80.266 813.669 80.3943 813.266 80.651C812.862 80.9003 812.543 81.278 812.309 81.784C812.081 82.29 811.968 82.9207 811.968 83.676C811.968 84.7907 812.191 85.6303 812.639 86.195C813.093 86.7597 813.706 87.042 814.476 87.042ZM829.599 89V82.752C829.599 81.96 829.408 81.3623 829.027 80.959C828.645 80.5557 828.147 80.354 827.531 80.354C827.01 80.354 826.548 80.497 826.145 80.783C825.749 81.069 825.437 81.5017 825.21 82.081C824.982 82.653 824.869 83.368 824.869 84.226H824.011C824.011 82.84 824.183 81.6887 824.528 80.772C824.872 79.848 825.36 79.1587 825.991 78.704C826.621 78.2493 827.362 78.022 828.213 78.022C829.093 78.022 829.826 78.22 830.413 78.616C831.007 79.0047 831.45 79.5547 831.744 80.266C832.044 80.9773 832.195 81.806 832.195 82.752V89H829.599ZM822.273 89V78.33H824.539L824.869 80.442V89H822.273Z" fill="#383838"/>
<path d="M596.657 119.808H598.177V126.248C598.177 127.155 598.404 127.808 598.857 128.208C599.316 128.608 599.91 128.808 600.641 128.808C601.372 128.808 601.964 128.608 602.417 128.208C602.87 127.808 603.097 127.155 603.097 126.248V119.808H604.617V126.248C604.617 127.101 604.457 127.824 604.137 128.416C603.817 129.003 603.358 129.448 602.761 129.752C602.169 130.056 601.462 130.208 600.641 130.208C599.825 130.208 599.118 130.056 598.521 129.752C597.924 129.448 597.462 129.003 597.137 128.416C596.817 127.824 596.657 127.101 596.657 126.248V119.808ZM609.968 130.208C609.222 130.208 608.592 130.104 608.08 129.896C607.568 129.683 607.176 129.389 606.904 129.016C606.638 128.637 606.499 128.195 606.488 127.688H607.92C607.942 128.131 608.118 128.459 608.448 128.672C608.784 128.885 609.238 128.992 609.808 128.992C610.112 128.992 610.387 128.944 610.632 128.848C610.883 128.752 611.08 128.621 611.224 128.456C611.374 128.291 611.448 128.104 611.448 127.896C611.448 127.635 611.352 127.429 611.16 127.28C610.968 127.125 610.659 126.989 610.232 126.872L608.656 126.336C608.027 126.123 607.544 125.84 607.208 125.488C606.872 125.131 606.704 124.704 606.704 124.208C606.704 123.573 606.987 123.064 607.552 122.68C608.118 122.291 608.867 122.096 609.8 122.096C610.766 122.096 611.51 122.301 612.032 122.712C612.56 123.117 612.835 123.627 612.856 124.24H611.392C611.355 123.936 611.203 123.704 610.936 123.544C610.675 123.379 610.296 123.296 609.8 123.296C609.336 123.296 608.971 123.397 608.704 123.6C608.443 123.803 608.312 124.032 608.312 124.288C608.312 124.747 608.707 125.088 609.496 125.312L611.152 125.896C611.782 126.099 612.267 126.36 612.608 126.68C612.95 127 613.12 127.405 613.12 127.896C613.12 128.291 612.99 128.664 612.728 129.016C612.467 129.368 612.099 129.656 611.624 129.88C611.155 130.099 610.603 130.208 609.968 130.208ZM617.934 130.208C617.273 130.208 616.675 130.037 616.142 129.696C615.609 129.355 615.185 128.88 614.87 128.272C614.561 127.664 614.406 126.96 614.406 126.16C614.406 125.312 614.561 124.587 614.87 123.984C615.179 123.376 615.601 122.909 616.134 122.584C616.667 122.259 617.267 122.096 617.934 122.096C618.531 122.096 619.043 122.219 619.47 122.464C619.897 122.704 620.241 123.029 620.502 123.44C620.763 123.845 620.942 124.307 621.038 124.824C621.139 125.341 621.158 125.875 621.094 126.424H615.622V125.544H620.054L619.686 125.784C619.702 125.496 619.686 125.208 619.638 124.92C619.595 124.632 619.51 124.368 619.382 124.128C619.254 123.883 619.073 123.688 618.838 123.544C618.609 123.395 618.315 123.32 617.958 123.32C617.51 123.32 617.134 123.432 616.83 123.656C616.531 123.88 616.305 124.181 616.15 124.56C615.995 124.933 615.918 125.344 615.918 125.792V126.408C615.918 126.904 615.993 127.344 616.142 127.728C616.291 128.112 616.513 128.416 616.806 128.64C617.105 128.859 617.481 128.968 617.934 128.968C618.377 128.968 618.742 128.864 619.03 128.656C619.323 128.448 619.505 128.136 619.574 127.72H621.126C621.046 128.221 620.862 128.659 620.574 129.032C620.286 129.405 619.915 129.696 619.462 129.904C619.014 130.107 618.505 130.208 617.934 130.208ZM623.102 130V122.28H624.622V130H623.102ZM624.206 126.56C624.206 125.573 624.308 124.755 624.51 124.104C624.718 123.448 625.006 122.96 625.374 122.64C625.748 122.32 626.185 122.16 626.686 122.16C626.836 122.16 626.974 122.171 627.102 122.192C627.236 122.213 627.366 122.243 627.494 122.28L627.438 123.792C627.294 123.755 627.137 123.723 626.966 123.696C626.801 123.664 626.649 123.648 626.51 123.648C626.073 123.648 625.716 123.765 625.438 124C625.161 124.229 624.956 124.563 624.822 125C624.689 125.432 624.622 125.952 624.622 126.56H624.206ZM634.993 130.208C634.363 130.208 633.777 130.04 633.233 129.704C632.689 129.368 632.251 128.896 631.921 128.288C631.59 127.68 631.425 126.965 631.425 126.144C631.425 125.28 631.59 124.549 631.921 123.952C632.251 123.349 632.689 122.891 633.233 122.576C633.777 122.256 634.363 122.096 634.993 122.096C635.457 122.096 635.87 122.171 636.233 122.32C636.595 122.464 636.907 122.661 637.169 122.912C637.43 123.157 637.641 123.435 637.801 123.744C637.966 124.053 638.081 124.373 638.145 124.704L636.601 124.784C636.489 124.384 636.291 124.064 636.009 123.824C635.731 123.579 635.387 123.456 634.977 123.456C634.63 123.456 634.302 123.555 633.993 123.752C633.689 123.944 633.441 124.24 633.249 124.64C633.062 125.035 632.969 125.536 632.969 126.144C632.969 126.709 633.057 127.192 633.233 127.592C633.409 127.992 633.649 128.299 633.953 128.512C634.257 128.725 634.598 128.832 634.977 128.832C635.521 128.832 635.926 128.701 636.193 128.44C636.465 128.173 636.601 127.808 636.601 127.344H638.145C638.145 127.883 638.019 128.368 637.769 128.8C637.518 129.232 637.155 129.576 636.681 129.832C636.211 130.083 635.649 130.208 634.993 130.208ZM644.961 130L644.769 128.232V125.024C644.769 124.395 644.638 123.939 644.377 123.656C644.115 123.368 643.702 123.224 643.137 123.224C642.817 123.224 642.531 123.272 642.281 123.368C642.035 123.459 641.841 123.597 641.697 123.784C641.558 123.971 641.489 124.205 641.489 124.488H639.809C639.809 123.923 639.947 123.464 640.225 123.112C640.502 122.76 640.889 122.504 641.385 122.344C641.886 122.179 642.47 122.096 643.137 122.096C643.761 122.096 644.31 122.2 644.785 122.408C645.259 122.611 645.627 122.931 645.889 123.368C646.155 123.805 646.289 124.371 646.289 125.064V130H644.961ZM642.385 130.208C641.739 130.208 641.203 130.096 640.777 129.872C640.35 129.643 640.03 129.344 639.817 128.976C639.609 128.608 639.505 128.216 639.505 127.8C639.505 127.293 639.633 126.877 639.889 126.552C640.15 126.221 640.51 125.976 640.969 125.816C641.427 125.656 641.955 125.576 642.553 125.576C642.963 125.576 643.363 125.613 643.753 125.688C644.142 125.763 644.526 125.861 644.905 125.984V126.904C644.595 126.792 644.251 126.704 643.873 126.64C643.499 126.571 643.15 126.536 642.825 126.536C642.339 126.536 641.934 126.632 641.609 126.824C641.283 127.016 641.121 127.341 641.121 127.8C641.121 128.136 641.249 128.427 641.505 128.672C641.761 128.912 642.166 129.032 642.721 129.032C643.126 129.032 643.483 128.941 643.793 128.76C644.102 128.573 644.342 128.341 644.513 128.064C644.683 127.787 644.769 127.509 644.769 127.232H645.137C645.137 127.765 645.027 128.259 644.809 128.712C644.595 129.16 644.283 129.523 643.873 129.8C643.462 130.072 642.966 130.208 642.385 130.208ZM654.175 130V125.488C654.175 124.821 654.015 124.317 653.695 123.976C653.381 123.629 652.954 123.456 652.415 123.456C651.989 123.456 651.615 123.573 651.295 123.808C650.981 124.037 650.735 124.376 650.559 124.824C650.389 125.267 650.303 125.808 650.303 126.448H649.759C649.759 125.504 649.879 124.709 650.119 124.064C650.365 123.419 650.714 122.931 651.167 122.6C651.621 122.264 652.165 122.096 652.799 122.096C653.418 122.096 653.941 122.235 654.367 122.512C654.799 122.789 655.127 123.184 655.351 123.696C655.575 124.203 655.687 124.8 655.687 125.488V130H654.175ZM648.783 130V122.304H650.103L650.303 123.968V130H648.783ZM667.079 130V125.488C667.079 124.821 666.919 124.317 666.599 123.976C666.284 123.629 665.857 123.456 665.319 123.456C664.892 123.456 664.519 123.573 664.199 123.808C663.884 124.037 663.639 124.376 663.463 124.824C663.292 125.267 663.207 125.808 663.207 126.448H662.663C662.663 125.504 662.783 124.709 663.023 124.064C663.268 123.419 663.617 122.931 664.071 122.6C664.524 122.264 665.068 122.096 665.703 122.096C666.321 122.096 666.844 122.235 667.271 122.512C667.703 122.789 668.031 123.184 668.255 123.696C668.479 124.203 668.591 124.8 668.591 125.488V130H667.079ZM661.687 130V122.304H663.007L663.207 123.968V130H661.687ZM673.979 130.208C673.281 130.208 672.654 130.056 672.099 129.752C671.55 129.448 671.115 128.995 670.795 128.392C670.475 127.789 670.315 127.045 670.315 126.16C670.315 125.259 670.475 124.509 670.795 123.912C671.115 123.309 671.55 122.856 672.099 122.552C672.654 122.248 673.281 122.096 673.979 122.096C674.667 122.096 675.286 122.248 675.835 122.552C676.385 122.856 676.817 123.309 677.131 123.912C677.451 124.509 677.611 125.259 677.611 126.16C677.611 127.045 677.451 127.789 677.131 128.392C676.817 128.995 676.385 129.448 675.835 129.752C675.286 130.056 674.667 130.208 673.979 130.208ZM673.931 128.88C674.374 128.88 674.755 128.773 675.075 128.56C675.401 128.347 675.649 128.037 675.819 127.632C675.995 127.221 676.083 126.731 676.083 126.16C676.083 125.285 675.905 124.608 675.547 124.128C675.195 123.648 674.686 123.408 674.019 123.408C673.571 123.408 673.185 123.517 672.859 123.736C672.539 123.949 672.291 124.261 672.115 124.672C671.945 125.077 671.859 125.573 671.859 126.16C671.859 127.019 672.038 127.688 672.395 128.168C672.753 128.643 673.265 128.88 673.931 128.88ZM678.246 122.304H679.83L681.662 128.48H681.494L683.262 122.696H684.582L686.342 128.496H686.182L688.014 122.304H689.534L687.006 130H685.518L683.774 124.56H684.006L682.286 130H680.798L678.246 122.304ZM699.301 130L699.109 128.232V125.024C699.109 124.395 698.979 123.939 698.717 123.656C698.456 123.368 698.043 123.224 697.477 123.224C697.157 123.224 696.872 123.272 696.621 123.368C696.376 123.459 696.181 123.597 696.037 123.784C695.899 123.971 695.829 124.205 695.829 124.488H694.149C694.149 123.923 694.288 123.464 694.565 123.112C694.843 122.76 695.229 122.504 695.725 122.344C696.227 122.179 696.811 122.096 697.477 122.096C698.101 122.096 698.651 122.2 699.125 122.408C699.6 122.611 699.968 122.931 700.229 123.368C700.496 123.805 700.629 124.371 700.629 125.064V130H699.301ZM696.725 130.208C696.08 130.208 695.544 130.096 695.117 129.872C694.691 129.643 694.371 129.344 694.157 128.976C693.949 128.608 693.845 128.216 693.845 127.8C693.845 127.293 693.973 126.877 694.229 126.552C694.491 126.221 694.851 125.976 695.309 125.816C695.768 125.656 696.296 125.576 696.893 125.576C697.304 125.576 697.704 125.613 698.093 125.688C698.483 125.763 698.867 125.861 699.245 125.984V126.904C698.936 126.792 698.592 126.704 698.213 126.64C697.84 126.571 697.491 126.536 697.165 126.536C696.68 126.536 696.275 126.632 695.949 126.824C695.624 127.016 695.461 127.341 695.461 127.8C695.461 128.136 695.589 128.427 695.845 128.672C696.101 128.912 696.507 129.032 697.061 129.032C697.467 129.032 697.824 128.941 698.133 128.76C698.443 128.573 698.683 128.341 698.853 128.064C699.024 127.787 699.109 127.509 699.109 127.232H699.477C699.477 127.765 699.368 128.259 699.149 128.712C698.936 129.16 698.624 129.523 698.213 129.8C697.803 130.072 697.307 130.208 696.725 130.208ZM705.916 130.208C705.287 130.208 704.708 130.04 704.18 129.704C703.652 129.363 703.231 128.888 702.916 128.28C702.607 127.667 702.452 126.947 702.452 126.12C702.452 125.299 702.604 124.587 702.908 123.984C703.217 123.381 703.625 122.917 704.132 122.592C704.639 122.261 705.201 122.096 705.82 122.096C706.385 122.096 706.879 122.235 707.3 122.512C707.721 122.784 708.047 123.181 708.276 123.704C708.511 124.227 708.628 124.864 708.628 125.616H708.1C708.1 125.152 708.007 124.76 707.82 124.44C707.633 124.115 707.391 123.869 707.092 123.704C706.793 123.539 706.473 123.456 706.132 123.456C705.732 123.456 705.369 123.565 705.044 123.784C704.724 123.997 704.468 124.304 704.276 124.704C704.089 125.099 703.996 125.571 703.996 126.12C703.996 126.675 704.089 127.157 704.276 127.568C704.468 127.973 704.724 128.285 705.044 128.504C705.369 128.723 705.729 128.832 706.124 128.832C706.449 128.832 706.761 128.747 707.06 128.576C707.364 128.4 707.612 128.149 707.804 127.824C708.001 127.499 708.1 127.112 708.1 126.664H708.628C708.628 127.432 708.505 128.08 708.26 128.608C708.02 129.136 707.695 129.536 707.284 129.808C706.873 130.075 706.417 130.208 705.916 130.208ZM708.364 130L708.1 128.152V119.064H709.628V130H708.364ZM715.141 130.208C714.512 130.208 713.933 130.04 713.405 129.704C712.877 129.363 712.456 128.888 712.141 128.28C711.832 127.667 711.677 126.947 711.677 126.12C711.677 125.299 711.829 124.587 712.133 123.984C712.442 123.381 712.85 122.917 713.357 122.592C713.864 122.261 714.426 122.096 715.045 122.096C715.61 122.096 716.104 122.235 716.525 122.512C716.946 122.784 717.272 123.181 717.501 123.704C717.736 124.227 717.853 124.864 717.853 125.616H717.325C717.325 125.152 717.232 124.76 717.045 124.44C716.858 124.115 716.616 123.869 716.317 123.704C716.018 123.539 715.698 123.456 715.357 123.456C714.957 123.456 714.594 123.565 714.269 123.784C713.949 123.997 713.693 124.304 713.501 124.704C713.314 125.099 713.221 125.571 713.221 126.12C713.221 126.675 713.314 127.157 713.501 127.568C713.693 127.973 713.949 128.285 714.269 128.504C714.594 128.723 714.954 128.832 715.349 128.832C715.674 128.832 715.986 128.747 716.285 128.576C716.589 128.4 716.837 128.149 717.029 127.824C717.226 127.499 717.325 127.112 717.325 126.664H717.853C717.853 127.432 717.73 128.08 717.485 128.608C717.245 129.136 716.92 129.536 716.509 129.808C716.098 130.075 715.642 130.208 715.141 130.208ZM717.589 130L717.325 128.152V119.064H718.853V130H717.589ZM730.472 130V125.488C730.472 124.821 730.312 124.317 729.992 123.976C729.678 123.629 729.251 123.456 728.712 123.456C728.286 123.456 727.912 123.573 727.592 123.808C727.278 124.037 727.032 124.376 726.856 124.824C726.686 125.267 726.6 125.808 726.6 126.448H726.056C726.056 125.504 726.176 124.709 726.416 124.064C726.662 123.419 727.011 122.931 727.464 122.6C727.918 122.264 728.462 122.096 729.096 122.096C729.715 122.096 730.238 122.235 730.664 122.512C731.096 122.789 731.424 123.184 731.648 123.696C731.872 124.203 731.984 124.8 731.984 125.488V130H730.472ZM725.08 130V122.304H726.4L726.6 123.968V130H725.08ZM737.373 130.208C736.675 130.208 736.048 130.056 735.493 129.752C734.944 129.448 734.509 128.995 734.189 128.392C733.869 127.789 733.709 127.045 733.709 126.16C733.709 125.259 733.869 124.509 734.189 123.912C734.509 123.309 734.944 122.856 735.493 122.552C736.048 122.248 736.675 122.096 737.373 122.096C738.061 122.096 738.68 122.248 739.229 122.552C739.779 122.856 740.211 123.309 740.525 123.912C740.845 124.509 741.005 125.259 741.005 126.16C741.005 127.045 740.845 127.789 740.525 128.392C740.211 128.995 739.779 129.448 739.229 129.752C738.68 130.056 738.061 130.208 737.373 130.208ZM737.325 128.88C737.768 128.88 738.149 128.773 738.469 128.56C738.795 128.347 739.043 128.037 739.213 127.632C739.389 127.221 739.477 126.731 739.477 126.16C739.477 125.285 739.299 124.608 738.941 124.128C738.589 123.648 738.08 123.408 737.413 123.408C736.965 123.408 736.579 123.517 736.253 123.736C735.933 123.949 735.685 124.261 735.509 124.672C735.339 125.077 735.253 125.573 735.253 126.16C735.253 127.019 735.432 127.688 735.789 128.168C736.147 128.643 736.659 128.88 737.325 128.88ZM748.344 130V125.488C748.344 124.821 748.184 124.317 747.864 123.976C747.55 123.629 747.123 123.456 746.584 123.456C746.158 123.456 745.784 123.573 745.464 123.808C745.15 124.037 744.904 124.376 744.728 124.824C744.558 125.267 744.472 125.808 744.472 126.448H743.928C743.928 125.504 744.048 124.709 744.288 124.064C744.534 123.419 744.883 122.931 745.336 122.6C745.79 122.264 746.334 122.096 746.968 122.096C747.587 122.096 748.11 122.235 748.536 122.512C748.968 122.789 749.296 123.184 749.52 123.696C749.744 124.203 749.856 124.8 749.856 125.488V130H748.344ZM742.952 130V122.304H744.272L744.472 123.968V130H742.952ZM751.453 125.936V124.608H755.869V125.936H751.453ZM760.499 130.208C759.87 130.208 759.283 130.04 758.739 129.704C758.195 129.368 757.758 128.896 757.427 128.288C757.096 127.68 756.931 126.965 756.931 126.144C756.931 125.28 757.096 124.549 757.427 123.952C757.758 123.349 758.195 122.891 758.739 122.576C759.283 122.256 759.87 122.096 760.499 122.096C760.963 122.096 761.376 122.171 761.739 122.32C762.102 122.464 762.414 122.661 762.675 122.912C762.936 123.157 763.147 123.435 763.307 123.744C763.472 124.053 763.587 124.373 763.651 124.704L762.107 124.784C761.995 124.384 761.798 124.064 761.515 123.824C761.238 123.579 760.894 123.456 760.483 123.456C760.136 123.456 759.808 123.555 759.499 123.752C759.195 123.944 758.947 124.24 758.755 124.64C758.568 125.035 758.475 125.536 758.475 126.144C758.475 126.709 758.563 127.192 758.739 127.592C758.915 127.992 759.155 128.299 759.459 128.512C759.763 128.725 760.104 128.832 760.483 128.832C761.027 128.832 761.432 128.701 761.699 128.44C761.971 128.173 762.107 127.808 762.107 127.344H763.651C763.651 127.883 763.526 128.368 763.275 128.8C763.024 129.232 762.662 129.576 762.187 129.832C761.718 130.083 761.155 130.208 760.499 130.208ZM770.827 122.28H772.355V130H770.827V122.28ZM765.451 122.28H766.971V127.048C766.971 127.629 767.112 128.069 767.395 128.368C767.683 128.667 768.085 128.816 768.603 128.816C769.04 128.816 769.424 128.701 769.755 128.472C770.091 128.243 770.352 127.917 770.539 127.496C770.731 127.075 770.827 126.576 770.827 126H771.315C771.315 126.901 771.192 127.659 770.947 128.272C770.701 128.885 770.357 129.352 769.915 129.672C769.472 129.987 768.955 130.144 768.363 130.144C767.797 130.144 767.293 130.04 766.851 129.832C766.413 129.624 766.069 129.304 765.819 128.872C765.573 128.435 765.451 127.872 765.451 127.184V122.28ZM777.887 130.208C777.14 130.208 776.511 130.104 775.999 129.896C775.487 129.683 775.095 129.389 774.823 129.016C774.556 128.637 774.418 128.195 774.407 127.688H775.839C775.86 128.131 776.036 128.459 776.367 128.672C776.703 128.885 777.156 128.992 777.727 128.992C778.031 128.992 778.306 128.944 778.551 128.848C778.802 128.752 778.999 128.621 779.143 128.456C779.292 128.291 779.367 128.104 779.367 127.896C779.367 127.635 779.271 127.429 779.079 127.28C778.887 127.125 778.578 126.989 778.151 126.872L776.575 126.336C775.946 126.123 775.463 125.84 775.127 125.488C774.791 125.131 774.623 124.704 774.623 124.208C774.623 123.573 774.906 123.064 775.471 122.68C776.036 122.291 776.786 122.096 777.719 122.096C778.684 122.096 779.428 122.301 779.951 122.712C780.479 123.117 780.754 123.627 780.775 124.24H779.311C779.274 123.936 779.122 123.704 778.855 123.544C778.594 123.379 778.215 123.296 777.719 123.296C777.255 123.296 776.89 123.397 776.623 123.6C776.362 123.803 776.231 124.032 776.231 124.288C776.231 124.747 776.626 125.088 777.415 125.312L779.071 125.896C779.7 126.099 780.186 126.36 780.527 126.68C780.868 127 781.039 127.405 781.039 127.896C781.039 128.291 780.908 128.664 780.647 129.016C780.386 129.368 780.018 129.656 779.543 129.88C779.074 130.099 778.522 130.208 777.887 130.208ZM785.565 130.208C785.127 130.208 784.733 130.125 784.381 129.96C784.029 129.795 783.749 129.547 783.541 129.216C783.338 128.88 783.237 128.459 783.237 127.952V120.208H784.749V127.904C784.749 128.629 785.087 128.992 785.765 128.992C785.973 128.992 786.175 128.971 786.373 128.928C786.57 128.88 786.794 128.811 787.045 128.72L787.261 129.8C786.978 129.917 786.698 130.013 786.421 130.088C786.149 130.168 785.863 130.208 785.565 130.208ZM782.061 123.336V122.304H787.029V123.336H782.061ZM791.729 130.208C791.031 130.208 790.404 130.056 789.849 129.752C789.3 129.448 788.865 128.995 788.545 128.392C788.225 127.789 788.065 127.045 788.065 126.16C788.065 125.259 788.225 124.509 788.545 123.912C788.865 123.309 789.3 122.856 789.849 122.552C790.404 122.248 791.031 122.096 791.729 122.096C792.417 122.096 793.036 122.248 793.585 122.552C794.135 122.856 794.567 123.309 794.881 123.912C795.201 124.509 795.361 125.259 795.361 126.16C795.361 127.045 795.201 127.789 794.881 128.392C794.567 128.995 794.135 129.448 793.585 129.752C793.036 130.056 792.417 130.208 791.729 130.208ZM791.681 128.88C792.124 128.88 792.505 128.773 792.825 128.56C793.151 128.347 793.399 128.037 793.569 127.632C793.745 127.221 793.833 126.731 793.833 126.16C793.833 125.285 793.655 124.608 793.297 124.128C792.945 123.648 792.436 123.408 791.769 123.408C791.321 123.408 790.935 123.517 790.609 123.736C790.289 123.949 790.041 124.261 789.865 124.672C789.695 125.077 789.609 125.573 789.609 126.16C789.609 127.019 789.788 127.688 790.145 128.168C790.503 128.643 791.015 128.88 791.681 128.88ZM807.972 130V125.488C807.972 124.821 807.812 124.317 807.492 123.976C807.178 123.629 806.754 123.456 806.22 123.456C805.58 123.456 805.084 123.707 804.732 124.208C804.386 124.709 804.212 125.429 804.212 126.368H803.548C803.548 125.627 803.62 124.987 803.764 124.448C803.908 123.909 804.114 123.467 804.38 123.12C804.652 122.773 804.975 122.517 805.348 122.352C805.727 122.181 806.148 122.096 806.612 122.096C807.231 122.096 807.754 122.235 808.18 122.512C808.612 122.789 808.94 123.184 809.164 123.696C809.388 124.203 809.5 124.8 809.5 125.488V130H807.972ZM797.308 130V122.304H798.628L798.796 123.752C799.042 123.213 799.378 122.803 799.804 122.52C800.236 122.237 800.743 122.096 801.324 122.096C801.943 122.096 802.466 122.235 802.892 122.512C803.324 122.789 803.652 123.184 803.876 123.696C804.1 124.203 804.212 124.8 804.212 125.488V130H802.7V125.488C802.7 124.821 802.54 124.317 802.22 123.976C801.906 123.629 801.479 123.456 800.94 123.456C800.514 123.456 800.14 123.573 799.82 123.808C799.506 124.037 799.26 124.376 799.084 124.824C798.914 125.267 798.828 125.808 798.828 126.448V130H797.308ZM812.851 120.664C812.547 120.664 812.307 120.581 812.131 120.416C811.96 120.245 811.875 120.016 811.875 119.728C811.875 119.451 811.96 119.232 812.131 119.072C812.307 118.907 812.547 118.824 812.851 118.824C813.15 118.824 813.384 118.907 813.555 119.072C813.731 119.232 813.819 119.451 813.819 119.728C813.819 120.016 813.731 120.245 813.555 120.416C813.384 120.581 813.15 120.664 812.851 120.664ZM812.091 130V122.28H813.611V130H812.091ZM815.852 130V128.768L820.164 123.528H815.852V122.304H821.86V123.528L817.644 128.768H821.86V130H815.852ZM826.634 130.208C825.973 130.208 825.375 130.037 824.842 129.696C824.309 129.355 823.885 128.88 823.57 128.272C823.261 127.664 823.106 126.96 823.106 126.16C823.106 125.312 823.261 124.587 823.57 123.984C823.879 123.376 824.301 122.909 824.834 122.584C825.367 122.259 825.967 122.096 826.634 122.096C827.231 122.096 827.743 122.219 828.17 122.464C828.597 122.704 828.941 123.029 829.202 123.44C829.463 123.845 829.642 124.307 829.738 124.824C829.839 125.341 829.858 125.875 829.794 126.424H824.322V125.544H828.754L828.386 125.784C828.402 125.496 828.386 125.208 828.338 124.92C828.295 124.632 828.21 124.368 828.082 124.128C827.954 123.883 827.773 123.688 827.538 123.544C827.309 123.395 827.015 123.32 826.658 123.32C826.21 123.32 825.834 123.432 825.53 123.656C825.231 123.88 825.005 124.181 824.85 124.56C824.695 124.933 824.618 125.344 824.618 125.792V126.408C824.618 126.904 824.693 127.344 824.842 127.728C824.991 128.112 825.213 128.416 825.506 128.64C825.805 128.859 826.181 128.968 826.634 128.968C827.077 128.968 827.442 128.864 827.73 128.656C828.023 128.448 828.205 128.136 828.274 127.72H829.826C829.746 128.221 829.562 128.659 829.274 129.032C828.986 129.405 828.615 129.696 828.162 129.904C827.714 130.107 827.205 130.208 826.634 130.208ZM836.626 130L836.434 128.232V125.024C836.434 124.395 836.304 123.939 836.042 123.656C835.781 123.368 835.368 123.224 834.802 123.224C834.482 123.224 834.197 123.272 833.946 123.368C833.701 123.459 833.506 123.597 833.362 123.784C833.224 123.971 833.154 124.205 833.154 124.488H831.474C831.474 123.923 831.613 123.464 831.89 123.112C832.168 122.76 832.554 122.504 833.05 122.344C833.552 122.179 834.136 122.096 834.802 122.096C835.426 122.096 835.976 122.2 836.45 122.408C836.925 122.611 837.293 122.931 837.554 123.368C837.821 123.805 837.954 124.371 837.954 125.064V130H836.626ZM834.05 130.208C833.405 130.208 832.869 130.096 832.442 129.872C832.016 129.643 831.696 129.344 831.482 128.976C831.274 128.608 831.17 128.216 831.17 127.8C831.17 127.293 831.298 126.877 831.554 126.552C831.816 126.221 832.176 125.976 832.634 125.816C833.093 125.656 833.621 125.576 834.218 125.576C834.629 125.576 835.029 125.613 835.418 125.688C835.808 125.763 836.192 125.861 836.57 125.984V126.904C836.261 126.792 835.917 126.704 835.538 126.64C835.165 126.571 834.816 126.536 834.49 126.536C834.005 126.536 833.6 126.632 833.274 126.824C832.949 127.016 832.786 127.341 832.786 127.8C832.786 128.136 832.914 128.427 833.17 128.672C833.426 128.912 833.832 129.032 834.386 129.032C834.792 129.032 835.149 128.941 835.458 128.76C835.768 128.573 836.008 128.341 836.178 128.064C836.349 127.787 836.434 127.509 836.434 127.232H836.802C836.802 127.765 836.693 128.259 836.474 128.712C836.261 129.16 835.949 129.523 835.538 129.8C835.128 130.072 834.632 130.208 834.05 130.208ZM844.153 130.208C843.652 130.208 843.196 130.075 842.785 129.808C842.38 129.536 842.054 129.136 841.809 128.608C841.569 128.08 841.449 127.432 841.449 126.664H841.969C841.969 127.112 842.065 127.499 842.257 127.824C842.454 128.149 842.705 128.4 843.009 128.576C843.313 128.747 843.63 128.832 843.961 128.832C844.356 128.832 844.71 128.723 845.025 128.504C845.345 128.285 845.598 127.973 845.785 127.568C845.977 127.157 846.073 126.675 846.073 126.12C846.073 125.571 845.98 125.099 845.793 124.704C845.606 124.304 845.353 123.997 845.033 123.784C844.713 123.565 844.35 123.456 843.945 123.456C843.604 123.456 843.281 123.539 842.977 123.704C842.678 123.869 842.436 124.115 842.249 124.44C842.062 124.76 841.969 125.152 841.969 125.616H841.449C841.449 124.864 841.566 124.227 841.801 123.704C842.036 123.181 842.361 122.784 842.777 122.512C843.198 122.235 843.692 122.096 844.257 122.096C844.87 122.096 845.43 122.261 845.937 122.592C846.449 122.917 846.857 123.381 847.161 123.984C847.47 124.587 847.625 125.299 847.625 126.12C847.625 126.947 847.468 127.667 847.153 128.28C846.838 128.888 846.417 129.363 845.889 129.704C845.366 130.04 844.788 130.208 844.153 130.208ZM840.449 130V119.064H841.969V128.152L841.481 130H840.449ZM849.674 130V119.064H851.194V130H849.674ZM856.675 130.208C856.013 130.208 855.416 130.037 854.883 129.696C854.349 129.355 853.925 128.88 853.611 128.272C853.301 127.664 853.147 126.96 853.147 126.16C853.147 125.312 853.301 124.587 853.611 123.984C853.92 123.376 854.341 122.909 854.875 122.584C855.408 122.259 856.008 122.096 856.675 122.096C857.272 122.096 857.784 122.219 858.211 122.464C858.637 122.704 858.981 123.029 859.243 123.44C859.504 123.845 859.683 124.307 859.779 124.824C859.88 125.341 859.899 125.875 859.835 126.424H854.363V125.544H858.795L858.427 125.784C858.443 125.496 858.427 125.208 858.379 124.92C858.336 124.632 858.251 124.368 858.123 124.128C857.995 123.883 857.813 123.688 857.579 123.544C857.349 123.395 857.056 123.32 856.699 123.32C856.251 123.32 855.875 123.432 855.571 123.656C855.272 123.88 855.045 124.181 854.891 124.56C854.736 124.933 854.659 125.344 854.659 125.792V126.408C854.659 126.904 854.733 127.344 854.883 127.728C855.032 128.112 855.253 128.416 855.547 128.64C855.845 128.859 856.221 128.968 856.675 128.968C857.117 128.968 857.483 128.864 857.771 128.656C858.064 128.448 858.245 128.136 858.315 127.72H859.867C859.787 128.221 859.603 128.659 859.315 129.032C859.027 129.405 858.656 129.696 858.203 129.904C857.755 130.107 857.245 130.208 856.675 130.208ZM866.229 120.664C865.925 120.664 865.685 120.581 865.509 120.416C865.338 120.245 865.253 120.016 865.253 119.728C865.253 119.451 865.338 119.232 865.509 119.072C865.685 118.907 865.925 118.824 866.229 118.824C866.528 118.824 866.762 118.907 866.933 119.072C867.109 119.232 867.197 119.451 867.197 119.728C867.197 120.016 867.109 120.245 866.933 120.416C866.762 120.581 866.528 120.664 866.229 120.664ZM865.469 130V122.28H866.989V130H865.469ZM872.39 130.208C871.952 130.208 871.558 130.125 871.206 129.96C870.854 129.795 870.574 129.547 870.366 129.216C870.163 128.88 870.062 128.459 870.062 127.952V120.208H871.574V127.904C871.574 128.629 871.912 128.992 872.59 128.992C872.798 128.992 873 128.971 873.198 128.928C873.395 128.88 873.619 128.811 873.87 128.72L874.086 129.8C873.803 129.917 873.523 130.013 873.246 130.088C872.974 130.168 872.688 130.208 872.39 130.208ZM868.886 123.336V122.304H873.854V123.336H868.886ZM878.418 130.208C877.757 130.208 877.16 130.037 876.626 129.696C876.093 129.355 875.669 128.88 875.354 128.272C875.045 127.664 874.89 126.96 874.89 126.16C874.89 125.312 875.045 124.587 875.354 123.984C875.664 123.376 876.085 122.909 876.618 122.584C877.152 122.259 877.752 122.096 878.418 122.096C879.016 122.096 879.528 122.219 879.954 122.464C880.381 122.704 880.725 123.029 880.986 123.44C881.248 123.845 881.426 124.307 881.522 124.824C881.624 125.341 881.642 125.875 881.578 126.424H876.106V125.544H880.538L880.17 125.784C880.186 125.496 880.17 125.208 880.122 124.92C880.08 124.632 879.994 124.368 879.866 124.128C879.738 123.883 879.557 123.688 879.322 123.544C879.093 123.395 878.8 123.32 878.442 123.32C877.994 123.32 877.618 123.432 877.314 123.656C877.016 123.88 876.789 124.181 876.634 124.56C876.48 124.933 876.402 125.344 876.402 125.792V126.408C876.402 126.904 876.477 127.344 876.626 127.728C876.776 128.112 876.997 128.416 877.29 128.64C877.589 128.859 877.965 128.968 878.418 128.968C878.861 128.968 879.226 128.864 879.514 128.656C879.808 128.448 879.989 128.136 880.058 127.72H881.61C881.53 128.221 881.346 128.659 881.058 129.032C880.77 129.405 880.4 129.696 879.946 129.904C879.498 130.107 878.989 130.208 878.418 130.208ZM894.251 130V125.488C894.251 124.821 894.091 124.317 893.771 123.976C893.456 123.629 893.032 123.456 892.499 123.456C891.859 123.456 891.363 123.707 891.011 124.208C890.664 124.709 890.491 125.429 890.491 126.368H889.827C889.827 125.627 889.899 124.987 890.043 124.448C890.187 123.909 890.392 123.467 890.659 123.12C890.931 122.773 891.253 122.517 891.627 122.352C892.005 122.181 892.427 122.096 892.891 122.096C893.509 122.096 894.032 122.235 894.459 122.512C894.891 122.789 895.219 123.184 895.443 123.696C895.667 124.203 895.779 124.8 895.779 125.488V130H894.251ZM883.587 130V122.304H884.907L885.075 123.752C885.32 123.213 885.656 122.803 886.083 122.52C886.515 122.237 887.021 122.096 887.603 122.096C888.221 122.096 888.744 122.235 889.171 122.512C889.603 122.789 889.931 123.184 890.155 123.696C890.379 124.203 890.491 124.8 890.491 125.488V130H888.979V125.488C888.979 124.821 888.819 124.317 888.499 123.976C888.184 123.629 887.757 123.456 887.219 123.456C886.792 123.456 886.419 123.573 886.099 123.808C885.784 124.037 885.539 124.376 885.363 124.824C885.192 125.267 885.107 125.808 885.107 126.448V130H883.587ZM901.065 130.208C900.318 130.208 899.689 130.104 899.177 129.896C898.665 129.683 898.273 129.389 898.001 129.016C897.734 128.637 897.596 128.195 897.585 127.688H899.017C899.038 128.131 899.214 128.459 899.545 128.672C899.881 128.885 900.334 128.992 900.905 128.992C901.209 128.992 901.484 128.944 901.729 128.848C901.98 128.752 902.177 128.621 902.321 128.456C902.47 128.291 902.545 128.104 902.545 127.896C902.545 127.635 902.449 127.429 902.257 127.28C902.065 127.125 901.756 126.989 901.329 126.872L899.753 126.336C899.124 126.123 898.641 125.84 898.305 125.488C897.969 125.131 897.801 124.704 897.801 124.208C897.801 123.573 898.084 123.064 898.649 122.68C899.214 122.291 899.964 122.096 900.897 122.096C901.862 122.096 902.606 122.301 903.129 122.712C903.657 123.117 903.932 123.627 903.953 124.24H902.489C902.452 123.936 902.3 123.704 902.033 123.544C901.772 123.379 901.393 123.296 900.897 123.296C900.433 123.296 900.068 123.397 899.801 123.6C899.54 123.803 899.409 124.032 899.409 124.288C899.409 124.747 899.804 125.088 900.593 125.312L902.249 125.896C902.878 126.099 903.364 126.36 903.705 126.68C904.046 127 904.217 127.405 904.217 127.896C904.217 128.291 904.086 128.664 903.825 129.016C903.564 129.368 903.196 129.656 902.721 129.88C902.252 130.099 901.7 130.208 901.065 130.208ZM606.074 156.208C605.445 156.208 604.866 156.04 604.338 155.704C603.81 155.363 603.389 154.888 603.074 154.28C602.765 153.667 602.61 152.947 602.61 152.12C602.61 151.299 602.762 150.587 603.066 149.984C603.375 149.381 603.783 148.917 604.29 148.592C604.797 148.261 605.359 148.096 605.978 148.096C606.543 148.096 607.037 148.235 607.458 148.512C607.879 148.784 608.205 149.181 608.434 149.704C608.669 150.227 608.786 150.864 608.786 151.616H608.258C608.258 151.152 608.165 150.76 607.978 150.44C607.791 150.115 607.549 149.869 607.25 149.704C606.951 149.539 606.631 149.456 606.29 149.456C605.89 149.456 605.527 149.565 605.202 149.784C604.882 149.997 604.626 150.304 604.434 150.704C604.247 151.099 604.154 151.571 604.154 152.12C604.154 152.675 604.247 153.157 604.434 153.568C604.626 153.973 604.882 154.285 605.202 154.504C605.527 154.723 605.887 154.832 606.282 154.832C606.607 154.832 606.919 154.747 607.218 154.576C607.522 154.4 607.77 154.149 607.962 153.824C608.159 153.499 608.258 153.112 608.258 152.664H608.786C608.786 153.432 608.663 154.08 608.418 154.608C608.178 155.136 607.853 155.536 607.442 155.808C607.031 156.075 606.575 156.208 606.074 156.208ZM608.522 156L608.258 154.152V145.064H609.786V156H608.522ZM613.387 146.664C613.083 146.664 612.843 146.581 612.667 146.416C612.496 146.245 612.411 146.016 612.411 145.728C612.411 145.451 612.496 145.232 612.667 145.072C612.843 144.907 613.083 144.824 613.387 144.824C613.686 144.824 613.92 144.907 614.091 145.072C614.267 145.232 614.355 145.451 614.355 145.728C614.355 146.016 614.267 146.245 614.091 146.416C613.92 146.581 613.686 146.664 613.387 146.664ZM612.627 156V148.28H614.147V156H612.627ZM617.076 156V148.28H618.596V156H617.076ZM618.18 152.56C618.18 151.573 618.281 150.755 618.484 150.104C618.692 149.448 618.98 148.96 619.348 148.64C619.721 148.32 620.158 148.16 620.66 148.16C620.809 148.16 620.948 148.171 621.076 148.192C621.209 148.213 621.34 148.243 621.468 148.28L621.412 149.792C621.268 149.755 621.11 149.723 620.94 149.696C620.774 149.664 620.622 149.648 620.484 149.648C620.046 149.648 619.689 149.765 619.412 150C619.134 150.229 618.929 150.563 618.796 151C618.662 151.432 618.596 151.952 618.596 152.56H618.18ZM625.42 156.208C624.759 156.208 624.161 156.037 623.628 155.696C623.095 155.355 622.671 154.88 622.356 154.272C622.047 153.664 621.892 152.96 621.892 152.16C621.892 151.312 622.047 150.587 622.356 149.984C622.665 149.376 623.087 148.909 623.62 148.584C624.153 148.259 624.753 148.096 625.42 148.096C626.017 148.096 626.529 148.219 626.956 148.464C627.383 148.704 627.727 149.029 627.988 149.44C628.249 149.845 628.428 150.307 628.524 150.824C628.625 151.341 628.644 151.875 628.58 152.424H623.108V151.544H627.54L627.172 151.784C627.188 151.496 627.172 151.208 627.124 150.92C627.081 150.632 626.996 150.368 626.868 150.128C626.74 149.883 626.559 149.688 626.324 149.544C626.095 149.395 625.801 149.32 625.444 149.32C624.996 149.32 624.62 149.432 624.316 149.656C624.017 149.88 623.791 150.181 623.636 150.56C623.481 150.933 623.404 151.344 623.404 151.792V152.408C623.404 152.904 623.479 153.344 623.628 153.728C623.777 154.112 623.999 154.416 624.292 154.64C624.591 154.859 624.967 154.968 625.42 154.968C625.863 154.968 626.228 154.864 626.516 154.656C626.809 154.448 626.991 154.136 627.06 153.72H628.612C628.532 154.221 628.348 154.659 628.06 155.032C627.772 155.405 627.401 155.696 626.948 155.904C626.5 156.107 625.991 156.208 625.42 156.208ZM633.388 156.208C632.759 156.208 632.172 156.04 631.628 155.704C631.084 155.368 630.647 154.896 630.316 154.288C629.985 153.68 629.82 152.965 629.82 152.144C629.82 151.28 629.985 150.549 630.316 149.952C630.647 149.349 631.084 148.891 631.628 148.576C632.172 148.256 632.759 148.096 633.388 148.096C633.852 148.096 634.265 148.171 634.628 148.32C634.991 148.464 635.303 148.661 635.564 148.912C635.825 149.157 636.036 149.435 636.196 149.744C636.361 150.053 636.476 150.373 636.54 150.704L634.996 150.784C634.884 150.384 634.687 150.064 634.404 149.824C634.127 149.579 633.783 149.456 633.372 149.456C633.025 149.456 632.697 149.555 632.388 149.752C632.084 149.944 631.836 150.24 631.644 150.64C631.457 151.035 631.364 151.536 631.364 152.144C631.364 152.709 631.452 153.192 631.628 153.592C631.804 153.992 632.044 154.299 632.348 154.512C632.652 154.725 632.993 154.832 633.372 154.832C633.916 154.832 634.321 154.701 634.588 154.44C634.86 154.173 634.996 153.808 634.996 153.344H636.54C636.54 153.883 636.415 154.368 636.164 154.8C635.913 155.232 635.551 155.576 635.076 155.832C634.607 156.083 634.044 156.208 633.388 156.208ZM641.004 156.208C640.567 156.208 640.172 156.125 639.82 155.96C639.468 155.795 639.188 155.547 638.98 155.216C638.777 154.88 638.676 154.459 638.676 153.952V146.208H640.188V153.904C640.188 154.629 640.527 154.992 641.204 154.992C641.412 154.992 641.615 154.971 641.812 154.928C642.009 154.88 642.233 154.811 642.484 154.72L642.7 155.8C642.417 155.917 642.137 156.013 641.86 156.088C641.588 156.168 641.303 156.208 641.004 156.208ZM637.5 149.336V148.304H642.468V149.336H637.5ZM644.273 156V145.064H645.793V156H644.273ZM647.289 148.304H648.993L651.313 154.672H651.001L652.865 148.304H654.417L651.497 157.48C651.23 158.312 650.886 158.933 650.465 159.344C650.049 159.76 649.526 159.968 648.897 159.968C648.545 159.968 648.206 159.923 647.881 159.832C647.561 159.741 647.233 159.608 646.897 159.432V158.064C647.185 158.267 647.462 158.413 647.729 158.504C647.996 158.595 648.273 158.64 648.561 158.64C648.849 158.64 649.094 158.552 649.297 158.376C649.505 158.205 649.678 157.976 649.817 157.688C649.961 157.405 650.084 157.096 650.185 156.76L650.417 156L647.289 148.304ZM659.755 156V147.224C659.755 146.691 659.856 146.259 660.059 145.928C660.267 145.592 660.541 145.344 660.883 145.184C661.224 145.024 661.6 144.944 662.011 144.944C662.245 144.944 662.485 144.96 662.731 144.992C662.981 145.024 663.227 145.072 663.467 145.136L663.179 146.32C663.029 146.267 662.877 146.224 662.723 146.192C662.573 146.16 662.429 146.144 662.291 146.144C662.125 146.144 661.965 146.176 661.811 146.24C661.656 146.299 661.528 146.408 661.427 146.568C661.331 146.728 661.283 146.955 661.283 147.248V156H659.755ZM658.547 149.336V148.304H662.795V149.336H658.547ZM664.563 156V148.28H666.083V156H664.563ZM665.667 152.56C665.667 151.573 665.768 150.755 665.971 150.104C666.179 149.448 666.467 148.96 666.835 148.64C667.208 148.32 667.646 148.16 668.147 148.16C668.296 148.16 668.435 148.171 668.563 148.192C668.696 148.213 668.827 148.243 668.955 148.28L668.899 149.792C668.755 149.755 668.598 149.723 668.427 149.696C668.262 149.664 668.11 149.648 667.971 149.648C667.534 149.648 667.176 149.765 666.899 150C666.622 150.229 666.416 150.563 666.283 151C666.15 151.432 666.083 151.952 666.083 152.56H665.667ZM673.044 156.208C672.345 156.208 671.718 156.056 671.164 155.752C670.614 155.448 670.18 154.995 669.86 154.392C669.54 153.789 669.38 153.045 669.38 152.16C669.38 151.259 669.54 150.509 669.86 149.912C670.18 149.309 670.614 148.856 671.164 148.552C671.718 148.248 672.345 148.096 673.044 148.096C673.732 148.096 674.35 148.248 674.9 148.552C675.449 148.856 675.881 149.309 676.196 149.912C676.516 150.509 676.676 151.259 676.676 152.16C676.676 153.045 676.516 153.789 676.196 154.392C675.881 154.995 675.449 155.448 674.9 155.752C674.35 156.056 673.732 156.208 673.044 156.208ZM672.996 154.88C673.438 154.88 673.82 154.773 674.14 154.56C674.465 154.347 674.713 154.037 674.884 153.632C675.06 153.221 675.148 152.731 675.148 152.16C675.148 151.285 674.969 150.608 674.612 150.128C674.26 149.648 673.75 149.408 673.084 149.408C672.636 149.408 672.249 149.517 671.924 149.736C671.604 149.949 671.356 150.261 671.18 150.672C671.009 151.077 670.924 151.573 670.924 152.16C670.924 153.019 671.102 153.688 671.46 154.168C671.817 154.643 672.329 154.88 672.996 154.88ZM689.287 156V151.488C689.287 150.821 689.127 150.317 688.807 149.976C688.492 149.629 688.068 149.456 687.535 149.456C686.895 149.456 686.399 149.707 686.047 150.208C685.7 150.709 685.527 151.429 685.527 152.368H684.863C684.863 151.627 684.935 150.987 685.079 150.448C685.223 149.909 685.428 149.467 685.694 149.12C685.966 148.773 686.289 148.517 686.663 148.352C687.041 148.181 687.463 148.096 687.927 148.096C688.545 148.096 689.068 148.235 689.495 148.512C689.927 148.789 690.255 149.184 690.479 149.696C690.703 150.203 690.815 150.8 690.815 151.488V156H689.287ZM678.623 156V148.304H679.943L680.111 149.752C680.356 149.213 680.692 148.803 681.119 148.52C681.551 148.237 682.057 148.096 682.639 148.096C683.257 148.096 683.78 148.235 684.207 148.512C684.639 148.789 684.967 149.184 685.191 149.696C685.415 150.203 685.527 150.8 685.527 151.488V156H684.015V151.488C684.015 150.821 683.855 150.317 683.535 149.976C683.22 149.629 682.793 149.456 682.255 149.456C681.828 149.456 681.455 149.573 681.135 149.808C680.82 150.037 680.575 150.376 680.399 150.824C680.228 151.267 680.143 151.808 680.143 152.448V156H678.623ZM701.615 156L701.423 154.232V151.024C701.423 150.395 701.293 149.939 701.031 149.656C700.77 149.368 700.357 149.224 699.791 149.224C699.471 149.224 699.186 149.272 698.935 149.368C698.69 149.459 698.495 149.597 698.351 149.784C698.213 149.971 698.143 150.205 698.143 150.488H696.463C696.463 149.923 696.602 149.464 696.879 149.112C697.157 148.76 697.543 148.504 698.039 148.344C698.541 148.179 699.125 148.096 699.791 148.096C700.415 148.096 700.965 148.2 701.439 148.408C701.914 148.611 702.282 148.931 702.543 149.368C702.81 149.805 702.943 150.371 702.943 151.064V156H701.615ZM699.039 156.208C698.394 156.208 697.858 156.096 697.431 155.872C697.005 155.643 696.685 155.344 696.471 154.976C696.263 154.608 696.159 154.216 696.159 153.8C696.159 153.293 696.287 152.877 696.543 152.552C696.805 152.221 697.165 151.976 697.623 151.816C698.082 151.656 698.61 151.576 699.207 151.576C699.618 151.576 700.018 151.613 700.407 151.688C700.797 151.763 701.181 151.861 701.559 151.984V152.904C701.25 152.792 700.906 152.704 700.527 152.64C700.154 152.571 699.805 152.536 699.479 152.536C698.994 152.536 698.589 152.632 698.263 152.824C697.938 153.016 697.775 153.341 697.775 153.8C697.775 154.136 697.903 154.427 698.159 154.672C698.415 154.912 698.821 155.032 699.375 155.032C699.781 155.032 700.138 154.941 700.447 154.76C700.757 154.573 700.997 154.341 701.167 154.064C701.338 153.787 701.423 153.509 701.423 153.232H701.791C701.791 153.765 701.682 154.259 701.463 154.712C701.25 155.16 700.938 155.523 700.527 155.8C700.117 156.072 699.621 156.208 699.039 156.208ZM710.83 156V151.488C710.83 150.821 710.67 150.317 710.35 149.976C710.035 149.629 709.609 149.456 709.07 149.456C708.643 149.456 708.27 149.573 707.95 149.808C707.635 150.037 707.39 150.376 707.214 150.824C707.043 151.267 706.958 151.808 706.958 152.448H706.414C706.414 151.504 706.534 150.709 706.774 150.064C707.019 149.419 707.369 148.931 707.822 148.6C708.275 148.264 708.819 148.096 709.454 148.096C710.073 148.096 710.595 148.235 711.022 148.512C711.454 148.789 711.782 149.184 712.006 149.696C712.23 150.203 712.342 150.8 712.342 151.488V156H710.83ZM705.438 156V148.304H706.758L706.958 149.968V156H705.438ZM721.101 156.208C720.44 156.208 719.843 156.037 719.309 155.696C718.776 155.355 718.352 154.88 718.037 154.272C717.728 153.664 717.573 152.96 717.573 152.16C717.573 151.312 717.728 150.587 718.037 149.984C718.347 149.376 718.768 148.909 719.301 148.584C719.835 148.259 720.435 148.096 721.101 148.096C721.699 148.096 722.211 148.219 722.637 148.464C723.064 148.704 723.408 149.029 723.669 149.44C723.931 149.845 724.109 150.307 724.205 150.824C724.307 151.341 724.325 151.875 724.261 152.424H718.789V151.544H723.221L722.853 151.784C722.869 151.496 722.853 151.208 722.805 150.92C722.763 150.632 722.677 150.368 722.549 150.128C722.421 149.883 722.24 149.688 722.005 149.544C721.776 149.395 721.483 149.32 721.125 149.32C720.677 149.32 720.301 149.432 719.997 149.656C719.699 149.88 719.472 150.181 719.317 150.56C719.163 150.933 719.085 151.344 719.085 151.792V152.408C719.085 152.904 719.16 153.344 719.309 153.728C719.459 154.112 719.68 154.416 719.973 154.64C720.272 154.859 720.648 154.968 721.101 154.968C721.544 154.968 721.909 154.864 722.197 154.656C722.491 154.448 722.672 154.136 722.741 153.72H724.293C724.213 154.221 724.029 154.659 723.741 155.032C723.453 155.405 723.083 155.696 722.629 155.904C722.181 156.107 721.672 156.208 721.101 156.208ZM731.093 156L730.901 154.232V151.024C730.901 150.395 730.771 149.939 730.509 149.656C730.248 149.368 729.835 149.224 729.269 149.224C728.949 149.224 728.664 149.272 728.413 149.368C728.168 149.459 727.973 149.597 727.829 149.784C727.691 149.971 727.621 150.205 727.621 150.488H725.941C725.941 149.923 726.08 149.464 726.357 149.112C726.635 148.76 727.021 148.504 727.517 148.344C728.019 148.179 728.603 148.096 729.269 148.096C729.893 148.096 730.443 148.2 730.917 148.408C731.392 148.611 731.76 148.931 732.021 149.368C732.288 149.805 732.421 150.371 732.421 151.064V156H731.093ZM728.517 156.208C727.872 156.208 727.336 156.096 726.909 155.872C726.483 155.643 726.163 155.344 725.949 154.976C725.741 154.608 725.637 154.216 725.637 153.8C725.637 153.293 725.765 152.877 726.021 152.552C726.283 152.221 726.643 151.976 727.101 151.816C727.56 151.656 728.088 151.576 728.685 151.576C729.096 151.576 729.496 151.613 729.885 151.688C730.275 151.763 730.659 151.861 731.037 151.984V152.904C730.728 152.792 730.384 152.704 730.005 152.64C729.632 152.571 729.283 152.536 728.957 152.536C728.472 152.536 728.067 152.632 727.741 152.824C727.416 153.016 727.253 153.341 727.253 153.8C727.253 154.136 727.381 154.427 727.637 154.672C727.893 154.912 728.299 155.032 728.853 155.032C729.259 155.032 729.616 154.941 729.925 154.76C730.235 154.573 730.475 154.341 730.645 154.064C730.816 153.787 730.901 153.509 730.901 153.232H731.269C731.269 153.765 731.16 154.259 730.941 154.712C730.728 155.16 730.416 155.523 730.005 155.8C729.595 156.072 729.099 156.208 728.517 156.208ZM737.388 156.208C736.951 156.208 736.556 156.125 736.204 155.96C735.852 155.795 735.572 155.547 735.364 155.216C735.162 154.88 735.06 154.459 735.06 153.952V146.208H736.572V153.904C736.572 154.629 736.911 154.992 737.588 154.992C737.796 154.992 737.999 154.971 738.196 154.928C738.394 154.88 738.618 154.811 738.868 154.72L739.084 155.8C738.802 155.917 738.522 156.013 738.244 156.088C737.972 156.168 737.687 156.208 737.388 156.208ZM733.884 149.336V148.304H738.852V149.336H733.884ZM743.417 156.208C742.756 156.208 742.158 156.037 741.625 155.696C741.092 155.355 740.668 154.88 740.353 154.272C740.044 153.664 739.889 152.96 739.889 152.16C739.889 151.312 740.044 150.587 740.353 149.984C740.662 149.376 741.084 148.909 741.617 148.584C742.15 148.259 742.75 148.096 743.417 148.096C744.014 148.096 744.526 148.219 744.953 148.464C745.38 148.704 745.724 149.029 745.985 149.44C746.246 149.845 746.425 150.307 746.521 150.824C746.622 151.341 746.641 151.875 746.577 152.424H741.105V151.544H745.537L745.169 151.784C745.185 151.496 745.169 151.208 745.121 150.92C745.078 150.632 744.993 150.368 744.865 150.128C744.737 149.883 744.556 149.688 744.321 149.544C744.092 149.395 743.798 149.32 743.441 149.32C742.993 149.32 742.617 149.432 742.313 149.656C742.014 149.88 741.788 150.181 741.633 150.56C741.478 150.933 741.401 151.344 741.401 151.792V152.408C741.401 152.904 741.476 153.344 741.625 153.728C741.774 154.112 741.996 154.416 742.289 154.64C742.588 154.859 742.964 154.968 743.417 154.968C743.86 154.968 744.225 154.864 744.513 154.656C744.806 154.448 744.988 154.136 745.057 153.72H746.609C746.529 154.221 746.345 154.659 746.057 155.032C745.769 155.405 745.398 155.696 744.945 155.904C744.497 156.107 743.988 156.208 743.417 156.208ZM748.585 156V148.28H750.105V156H748.585ZM749.689 152.56C749.689 151.573 749.79 150.755 749.993 150.104C750.201 149.448 750.489 148.96 750.857 148.64C751.23 148.32 751.668 148.16 752.169 148.16C752.318 148.16 752.457 148.171 752.585 148.192C752.718 148.213 752.849 148.243 752.977 148.28L752.921 149.792C752.777 149.755 752.62 149.723 752.449 149.696C752.284 149.664 752.132 149.648 751.993 149.648C751.556 149.648 751.198 149.765 750.921 150C750.644 150.229 750.438 150.563 750.305 151C750.172 151.432 750.105 151.952 750.105 152.56H749.689ZM752.945 148.304H754.649L756.969 154.672H756.657L758.521 148.304H760.073L757.153 157.48C756.887 158.312 756.543 158.933 756.121 159.344C755.705 159.76 755.183 159.968 754.553 159.968C754.201 159.968 753.863 159.923 753.537 159.832C753.217 159.741 752.889 159.608 752.553 159.432V158.064C752.841 158.267 753.119 158.413 753.385 158.504C753.652 158.595 753.929 158.64 754.217 158.64C754.505 158.64 754.751 158.552 754.953 158.376C755.161 158.205 755.335 157.976 755.473 157.688C755.617 157.405 755.74 157.096 755.841 156.76L756.073 156L752.945 148.304ZM761.321 149.568L760.249 148.976C760.574 148.816 760.854 148.632 761.089 148.424C761.329 148.211 761.486 147.968 761.561 147.696C761.289 147.659 761.062 147.56 760.881 147.4C760.699 147.24 760.609 147.032 760.609 146.776C760.609 146.499 760.713 146.269 760.921 146.088C761.134 145.901 761.395 145.808 761.705 145.808C761.966 145.808 762.19 145.875 762.377 146.008C762.563 146.141 762.705 146.32 762.801 146.544C762.902 146.763 762.953 147.003 762.953 147.264C762.953 147.712 762.806 148.141 762.513 148.552C762.219 148.957 761.822 149.296 761.321 149.568ZM767.685 156.208C766.939 156.208 766.309 156.104 765.797 155.896C765.285 155.683 764.893 155.389 764.621 155.016C764.355 154.637 764.216 154.195 764.205 153.688H765.637C765.659 154.131 765.835 154.459 766.165 154.672C766.501 154.885 766.955 154.992 767.525 154.992C767.829 154.992 768.104 154.944 768.349 154.848C768.6 154.752 768.797 154.621 768.941 154.456C769.091 154.291 769.165 154.104 769.165 153.896C769.165 153.635 769.069 153.429 768.877 153.28C768.685 153.125 768.376 152.989 767.949 152.872L766.373 152.336C765.744 152.123 765.261 151.84 764.925 151.488C764.589 151.131 764.421 150.704 764.421 150.208C764.421 149.573 764.704 149.064 765.269 148.68C765.835 148.291 766.584 148.096 767.517 148.096C768.483 148.096 769.227 148.301 769.749 148.712C770.277 149.117 770.552 149.627 770.573 150.24H769.109C769.072 149.936 768.92 149.704 768.653 149.544C768.392 149.379 768.013 149.296 767.517 149.296C767.053 149.296 766.688 149.397 766.421 149.6C766.16 149.803 766.029 150.032 766.029 150.288C766.029 150.747 766.424 151.088 767.213 151.312L768.869 151.896C769.499 152.099 769.984 152.36 770.325 152.68C770.667 153 770.837 153.405 770.837 153.896C770.837 154.291 770.707 154.664 770.445 155.016C770.184 155.368 769.816 155.656 769.341 155.88C768.872 156.099 768.32 156.208 767.685 156.208ZM780.046 156.208C779.486 156.208 779 156.083 778.59 155.832C778.179 155.576 777.864 155.203 777.646 154.712C777.432 154.216 777.326 153.603 777.326 152.872H777.918C777.918 153.293 778.008 153.651 778.19 153.944C778.371 154.232 778.608 154.453 778.902 154.608C779.2 154.757 779.518 154.832 779.854 154.832C780.206 154.832 780.547 154.733 780.878 154.536C781.214 154.333 781.488 154.032 781.702 153.632C781.915 153.232 782.022 152.736 782.022 152.144C782.022 151.579 781.926 151.096 781.734 150.696C781.547 150.296 781.291 149.989 780.966 149.776C780.64 149.563 780.275 149.456 779.87 149.456C779.528 149.456 779.208 149.539 778.91 149.704C778.611 149.864 778.371 150.101 778.19 150.416C778.008 150.725 777.918 151.104 777.918 151.552H777.326C777.326 150.779 777.448 150.136 777.694 149.624C777.944 149.112 778.28 148.731 778.702 148.48C779.123 148.224 779.59 148.096 780.102 148.096C780.704 148.096 781.27 148.259 781.798 148.584C782.326 148.904 782.752 149.365 783.078 149.968C783.408 150.571 783.574 151.296 783.574 152.144C783.574 152.992 783.408 153.72 783.078 154.328C782.747 154.936 782.312 155.403 781.774 155.728C781.24 156.048 780.664 156.208 780.046 156.208ZM776.398 159.776V148.304H777.654L777.918 150.152V159.776H776.398ZM790.353 156L790.161 154.232V151.024C790.161 150.395 790.03 149.939 789.769 149.656C789.507 149.368 789.094 149.224 788.529 149.224C788.209 149.224 787.923 149.272 787.673 149.368C787.427 149.459 787.233 149.597 787.089 149.784C786.95 149.971 786.881 150.205 786.881 150.488H785.201C785.201 149.923 785.339 149.464 785.617 149.112C785.894 148.76 786.281 148.504 786.777 148.344C787.278 148.179 787.862 148.096 788.529 148.096C789.153 148.096 789.702 148.2 790.177 148.408C790.651 148.611 791.019 148.931 791.281 149.368C791.547 149.805 791.681 150.371 791.681 151.064V156H790.353ZM787.777 156.208C787.131 156.208 786.595 156.096 786.169 155.872C785.742 155.643 785.422 155.344 785.209 154.976C785.001 154.608 784.897 154.216 784.897 153.8C784.897 153.293 785.025 152.877 785.281 152.552C785.542 152.221 785.902 151.976 786.361 151.816C786.819 151.656 787.347 151.576 787.945 151.576C788.355 151.576 788.755 151.613 789.145 151.688C789.534 151.763 789.918 151.861 790.297 151.984V152.904C789.987 152.792 789.643 152.704 789.265 152.64C788.891 152.571 788.542 152.536 788.217 152.536C787.731 152.536 787.326 152.632 787.001 152.824C786.675 153.016 786.513 153.341 786.513 153.8C786.513 154.136 786.641 154.427 786.897 154.672C787.153 154.912 787.558 155.032 788.113 155.032C788.518 155.032 788.875 154.941 789.185 154.76C789.494 154.573 789.734 154.341 789.905 154.064C790.075 153.787 790.161 153.509 790.161 153.232H790.529C790.529 153.765 790.419 154.259 790.201 154.712C789.987 155.16 789.675 155.523 789.265 155.8C788.854 156.072 788.358 156.208 787.777 156.208ZM797.008 159.968C796.176 159.968 795.458 159.853 794.856 159.624C794.258 159.395 793.797 159.088 793.472 158.704C793.146 158.32 792.984 157.901 792.984 157.448C792.984 156.872 793.194 156.429 793.616 156.12C794.037 155.816 794.573 155.664 795.224 155.664L796.208 156.128C795.653 156.128 795.224 156.24 794.92 156.464C794.621 156.688 794.472 156.992 794.472 157.376C794.472 157.776 794.69 158.104 795.128 158.36C795.565 158.621 796.192 158.752 797.008 158.752C797.6 158.752 798.12 158.664 798.568 158.488C799.016 158.317 799.362 158.091 799.608 157.808C799.853 157.531 799.976 157.232 799.976 156.912C799.976 156.693 799.896 156.507 799.736 156.352C799.581 156.203 799.344 156.128 799.024 156.128H796.208C795.685 156.128 795.224 156.048 794.824 155.888C794.429 155.723 794.12 155.507 793.896 155.24C793.672 154.973 793.56 154.677 793.56 154.352C793.56 154.032 793.65 153.757 793.832 153.528C794.013 153.293 794.253 153.117 794.552 153C794.85 152.877 795.178 152.816 795.536 152.816L795.88 153.344C795.725 153.344 795.57 153.379 795.416 153.448C795.261 153.512 795.133 153.611 795.032 153.744C794.93 153.877 794.88 154.043 794.88 154.24C794.88 154.469 794.976 154.661 795.168 154.816C795.365 154.965 795.712 155.04 796.208 155.04H799.024C799.792 155.04 800.394 155.192 800.832 155.496C801.269 155.8 801.488 156.243 801.488 156.824C801.488 157.352 801.306 157.856 800.944 158.336C800.581 158.816 800.064 159.208 799.392 159.512C798.725 159.816 797.93 159.968 797.008 159.968ZM797.176 153.688C796.578 153.688 796.034 153.573 795.544 153.344C795.058 153.109 794.672 152.784 794.384 152.368C794.096 151.947 793.952 151.456 793.952 150.896C793.952 150.331 794.096 149.84 794.384 149.424C794.672 149.003 795.058 148.677 795.544 148.448C796.034 148.213 796.578 148.096 797.176 148.096C797.757 148.096 798.288 148.213 798.768 148.448C799.253 148.677 799.64 149.003 799.928 149.424C800.221 149.84 800.368 150.331 800.368 150.896C800.368 151.456 800.221 151.947 799.928 152.368C799.64 152.784 799.253 153.109 798.768 153.344C798.288 153.573 797.757 153.688 797.176 153.688ZM797.176 152.616C797.725 152.616 798.144 152.453 798.432 152.128C798.725 151.797 798.872 151.387 798.872 150.896C798.872 150.384 798.725 149.971 798.432 149.656C798.144 149.341 797.725 149.184 797.176 149.184C796.637 149.184 796.216 149.341 795.912 149.656C795.613 149.971 795.464 150.384 795.464 150.896C795.464 151.387 795.613 151.797 795.912 152.128C796.216 152.453 796.637 152.616 797.176 152.616ZM799.792 149.328L799.08 148.984C799.08 148.525 799.176 148.125 799.368 147.784C799.56 147.443 799.826 147.176 800.168 146.984C800.509 146.792 800.901 146.696 801.344 146.696L801.248 148.176C800.773 148.176 800.41 148.269 800.16 148.456C799.914 148.643 799.792 148.933 799.792 149.328ZM805.692 156.208C805.031 156.208 804.433 156.037 803.9 155.696C803.367 155.355 802.943 154.88 802.628 154.272C802.319 153.664 802.164 152.96 802.164 152.16C802.164 151.312 802.319 150.587 802.628 149.984C802.937 149.376 803.359 148.909 803.892 148.584C804.425 148.259 805.025 148.096 805.692 148.096C806.289 148.096 806.801 148.219 807.228 148.464C807.655 148.704 807.999 149.029 808.26 149.44C808.521 149.845 808.7 150.307 808.796 150.824C808.897 151.341 808.916 151.875 808.852 152.424H803.38V151.544H807.812L807.444 151.784C807.46 151.496 807.444 151.208 807.396 150.92C807.353 150.632 807.268 150.368 807.14 150.128C807.012 149.883 806.831 149.688 806.596 149.544C806.367 149.395 806.073 149.32 805.716 149.32C805.268 149.32 804.892 149.432 804.588 149.656C804.289 149.88 804.063 150.181 803.908 150.56C803.753 150.933 803.676 151.344 803.676 151.792V152.408C803.676 152.904 803.751 153.344 803.9 153.728C804.049 154.112 804.271 154.416 804.564 154.64C804.863 154.859 805.239 154.968 805.692 154.968C806.135 154.968 806.5 154.864 806.788 154.656C807.081 154.448 807.263 154.136 807.332 153.72H808.884C808.804 154.221 808.62 154.659 808.332 155.032C808.044 155.405 807.673 155.696 807.22 155.904C806.772 156.107 806.263 156.208 805.692 156.208ZM816.838 156.208C816.401 156.208 816.006 156.125 815.654 155.96C815.302 155.795 815.022 155.547 814.814 155.216C814.612 154.88 814.51 154.459 814.51 153.952V146.208H816.022V153.904C816.022 154.629 816.361 154.992 817.038 154.992C817.246 154.992 817.449 154.971 817.646 154.928C817.844 154.88 818.068 154.811 818.318 154.72L818.534 155.8C818.252 155.917 817.972 156.013 817.694 156.088C817.422 156.168 817.137 156.208 816.838 156.208ZM813.334 149.336V148.304H818.302V149.336H813.334ZM823.003 156.208C822.304 156.208 821.678 156.056 821.123 155.752C820.574 155.448 820.139 154.995 819.819 154.392C819.499 153.789 819.339 153.045 819.339 152.16C819.339 151.259 819.499 150.509 819.819 149.912C820.139 149.309 820.574 148.856 821.123 148.552C821.678 148.248 822.304 148.096 823.003 148.096C823.691 148.096 824.31 148.248 824.859 148.552C825.408 148.856 825.84 149.309 826.155 149.912C826.475 150.509 826.635 151.259 826.635 152.16C826.635 153.045 826.475 153.789 826.155 154.392C825.84 154.995 825.408 155.448 824.859 155.752C824.31 156.056 823.691 156.208 823.003 156.208ZM822.955 154.88C823.398 154.88 823.779 154.773 824.099 154.56C824.424 154.347 824.672 154.037 824.843 153.632C825.019 153.221 825.107 152.731 825.107 152.16C825.107 151.285 824.928 150.608 824.571 150.128C824.219 149.648 823.71 149.408 823.043 149.408C822.595 149.408 822.208 149.517 821.883 149.736C821.563 149.949 821.315 150.261 821.139 150.672C820.968 151.077 820.883 151.573 820.883 152.16C820.883 153.019 821.062 153.688 821.419 154.168C821.776 154.643 822.288 154.88 822.955 154.88ZM834.56 156.208C834.123 156.208 833.728 156.125 833.376 155.96C833.024 155.795 832.744 155.547 832.536 155.216C832.333 154.88 832.232 154.459 832.232 153.952V146.208H833.744V153.904C833.744 154.629 834.083 154.992 834.76 154.992C834.968 154.992 835.171 154.971 835.368 154.928C835.565 154.88 835.789 154.811 836.04 154.72L836.256 155.8C835.973 155.917 835.693 156.013 835.416 156.088C835.144 156.168 834.859 156.208 834.56 156.208ZM831.056 149.336V148.304H836.024V149.336H831.056ZM843.221 156V151.488C843.221 150.821 843.061 150.317 842.741 149.976C842.426 149.629 841.999 149.456 841.461 149.456C841.034 149.456 840.661 149.573 840.341 149.808C840.026 150.037 839.781 150.376 839.605 150.824C839.434 151.267 839.349 151.808 839.349 152.448H838.805C838.805 151.504 838.925 150.709 839.165 150.064C839.41 149.419 839.759 148.931 840.213 148.6C840.666 148.264 841.21 148.096 841.845 148.096C842.463 148.096 842.986 148.235 843.413 148.512C843.845 148.789 844.173 149.184 844.397 149.696C844.621 150.203 844.733 150.8 844.733 151.488V156H843.221ZM837.829 156V145.064H839.349V156H837.829ZM849.986 156.208C849.324 156.208 848.727 156.037 848.194 155.696C847.66 155.355 847.236 154.88 846.922 154.272C846.612 153.664 846.458 152.96 846.458 152.16C846.458 151.312 846.612 150.587 846.922 149.984C847.231 149.376 847.652 148.909 848.186 148.584C848.719 148.259 849.319 148.096 849.986 148.096C850.583 148.096 851.095 148.219 851.522 148.464C851.948 148.704 852.292 149.029 852.554 149.44C852.815 149.845 852.994 150.307 853.09 150.824C853.191 151.341 853.21 151.875 853.146 152.424H847.674V151.544H852.106L851.738 151.784C851.754 151.496 851.738 151.208 851.69 150.92C851.647 150.632 851.562 150.368 851.434 150.128C851.306 149.883 851.124 149.688 850.89 149.544C850.66 149.395 850.367 149.32 850.01 149.32C849.562 149.32 849.186 149.432 848.882 149.656C848.583 149.88 848.356 150.181 848.202 150.56C848.047 150.933 847.97 151.344 847.97 151.792V152.408C847.97 152.904 848.044 153.344 848.194 153.728C848.343 154.112 848.564 154.416 848.858 154.64C849.156 154.859 849.532 154.968 849.986 154.968C850.428 154.968 850.794 154.864 851.082 154.656C851.375 154.448 851.556 154.136 851.626 153.72H853.178C853.098 154.221 852.914 154.659 852.626 155.032C852.338 155.405 851.967 155.696 851.514 155.904C851.066 156.107 850.556 156.208 849.986 156.208ZM856.034 146.664C855.73 146.664 855.49 146.581 855.314 146.416C855.143 146.245 855.058 146.016 855.058 145.728C855.058 145.451 855.143 145.232 855.314 145.072C855.49 144.907 855.73 144.824 856.034 144.824C856.332 144.824 856.567 144.907 856.738 145.072C856.914 145.232 857.002 145.451 857.002 145.728C857.002 146.016 856.914 146.245 856.738 146.416C856.567 146.581 856.332 146.664 856.034 146.664ZM855.274 156V148.28H856.794V156H855.274ZM859.722 156V148.28H861.242V156H859.722ZM860.826 152.56C860.826 151.573 860.928 150.755 861.13 150.104C861.338 149.448 861.626 148.96 861.994 148.64C862.368 148.32 862.805 148.16 863.306 148.16C863.456 148.16 863.594 148.171 863.722 148.192C863.856 148.213 863.986 148.243 864.114 148.28L864.058 149.792C863.914 149.755 863.757 149.723 863.586 149.696C863.421 149.664 863.269 149.648 863.13 149.648C862.693 149.648 862.336 149.765 862.058 150C861.781 150.229 861.576 150.563 861.442 151C861.309 151.432 861.242 151.952 861.242 152.56H860.826ZM871.613 156.208C870.984 156.208 870.397 156.04 869.853 155.704C869.309 155.368 868.872 154.896 868.541 154.288C868.21 153.68 868.045 152.965 868.045 152.144C868.045 151.28 868.21 150.549 868.541 149.952C868.872 149.349 869.309 148.891 869.853 148.576C870.397 148.256 870.984 148.096 871.613 148.096C872.077 148.096 872.49 148.171 872.853 148.32C873.216 148.464 873.528 148.661 873.789 148.912C874.05 149.157 874.261 149.435 874.421 149.744C874.586 150.053 874.701 150.373 874.765 150.704L873.221 150.784C873.109 150.384 872.912 150.064 872.629 149.824C872.352 149.579 872.008 149.456 871.597 149.456C871.25 149.456 870.922 149.555 870.613 149.752C870.309 149.944 870.061 150.24 869.869 150.64C869.682 151.035 869.589 151.536 869.589 152.144C869.589 152.709 869.677 153.192 869.853 153.592C870.029 153.992 870.269 154.299 870.573 154.512C870.877 154.725 871.218 154.832 871.597 154.832C872.141 154.832 872.546 154.701 872.813 154.44C873.085 154.173 873.221 153.808 873.221 153.344H874.765C874.765 153.883 874.64 154.368 874.389 154.8C874.138 155.232 873.776 155.576 873.301 155.832C872.832 156.083 872.269 156.208 871.613 156.208ZM881.581 156L881.389 154.232V151.024C881.389 150.395 881.258 149.939 880.997 149.656C880.736 149.368 880.322 149.224 879.757 149.224C879.437 149.224 879.152 149.272 878.901 149.368C878.656 149.459 878.461 149.597 878.317 149.784C878.178 149.971 878.109 150.205 878.109 150.488H876.429C876.429 149.923 876.568 149.464 876.845 149.112C877.122 148.76 877.509 148.504 878.005 148.344C878.506 148.179 879.09 148.096 879.757 148.096C880.381 148.096 880.93 148.2 881.405 148.408C881.88 148.611 882.248 148.931 882.509 149.368C882.776 149.805 882.909 150.371 882.909 151.064V156H881.581ZM879.005 156.208C878.36 156.208 877.824 156.096 877.397 155.872C876.97 155.643 876.65 155.344 876.437 154.976C876.229 154.608 876.125 154.216 876.125 153.8C876.125 153.293 876.253 152.877 876.509 152.552C876.77 152.221 877.13 151.976 877.589 151.816C878.048 151.656 878.576 151.576 879.173 151.576C879.584 151.576 879.984 151.613 880.373 151.688C880.762 151.763 881.146 151.861 881.525 151.984V152.904C881.216 152.792 880.872 152.704 880.493 152.64C880.12 152.571 879.77 152.536 879.445 152.536C878.96 152.536 878.554 152.632 878.229 152.824C877.904 153.016 877.741 153.341 877.741 153.8C877.741 154.136 877.869 154.427 878.125 154.672C878.381 154.912 878.786 155.032 879.341 155.032C879.746 155.032 880.104 154.941 880.413 154.76C880.722 154.573 880.962 154.341 881.133 154.064C881.304 153.787 881.389 153.509 881.389 153.232H881.757C881.757 153.765 881.648 154.259 881.429 154.712C881.216 155.16 880.904 155.523 880.493 155.8C880.082 156.072 879.586 156.208 879.005 156.208ZM885.404 156V148.28H886.924V156H885.404ZM886.508 152.56C886.508 151.573 886.609 150.755 886.812 150.104C887.02 149.448 887.308 148.96 887.676 148.64C888.049 148.32 888.486 148.16 888.988 148.16C889.137 148.16 889.276 148.171 889.404 148.192C889.537 148.213 889.668 148.243 889.796 148.28L889.74 149.792C889.596 149.755 889.438 149.723 889.268 149.696C889.102 149.664 888.95 149.648 888.812 149.648C888.374 149.648 888.017 149.765 887.74 150C887.462 150.229 887.257 150.563 887.124 151C886.99 151.432 886.924 151.952 886.924 152.56H886.508ZM893.46 156.208C893.023 156.208 892.628 156.125 892.276 155.96C891.924 155.795 891.644 155.547 891.436 155.216C891.233 154.88 891.132 154.459 891.132 153.952V146.208H892.644V153.904C892.644 154.629 892.983 154.992 893.66 154.992C893.868 154.992 894.071 154.971 894.268 154.928C894.465 154.88 894.689 154.811 894.94 154.72L895.156 155.8C894.873 155.917 894.593 156.013 894.316 156.088C894.044 156.168 893.759 156.208 893.46 156.208ZM889.956 149.336V148.304H894.924V149.336H889.956ZM895.609 155.104C895.609 154.805 895.71 154.552 895.913 154.344C896.121 154.136 896.382 154.032 896.697 154.032C897.011 154.032 897.278 154.136 897.497 154.344C897.715 154.552 897.825 154.805 897.825 155.104C897.825 155.397 897.715 155.645 897.497 155.848C897.278 156.045 897.011 156.144 896.697 156.144C896.382 156.144 896.121 156.043 895.913 155.84C895.71 155.637 895.609 155.392 895.609 155.104Z" fill="#666666"/>
</svg>
