<svg width="1500" height="233" viewBox="0 0 1500 233" fill="none" xmlns="http://www.w3.org/2000/svg">
<rect width="1500" height="233" fill="#E5E5E5"/>
<rect width="1500" height="233" fill="white"/>
<path d="M638.4 161V140.615H642.107V161H638.4ZM657.645 161V152.08C657.645 150.949 657.373 150.095 656.828 149.52C656.284 148.944 655.572 148.656 654.692 148.656C653.949 148.656 653.289 148.86 652.714 149.268C652.148 149.677 651.703 150.294 651.379 151.122C651.054 151.938 650.892 152.959 650.892 154.184H649.667C649.667 152.205 649.913 150.561 650.405 149.253C650.897 147.933 651.593 146.949 652.494 146.3C653.394 145.651 654.452 145.326 655.666 145.326C656.922 145.326 657.969 145.609 658.807 146.174C659.655 146.729 660.289 147.515 660.707 148.53C661.137 149.546 661.351 150.729 661.351 152.08V161H657.645ZM647.185 161V145.766H650.421L650.892 148.782V161H647.185ZM668.137 142.971C667.415 142.971 666.849 142.782 666.441 142.405C666.043 142.018 665.844 141.484 665.844 140.803C665.844 140.144 666.043 139.62 666.441 139.233C666.849 138.835 667.415 138.636 668.137 138.636C668.849 138.636 669.409 138.835 669.818 139.233C670.226 139.62 670.43 140.144 670.43 140.803C670.43 141.484 670.226 142.018 669.818 142.405C669.409 142.782 668.849 142.971 668.137 142.971ZM666.284 161V145.703H669.99V161H666.284ZM680.642 161.44C679.742 161.44 678.915 161.272 678.161 160.937C677.418 160.602 676.821 160.089 676.371 159.398C675.931 158.707 675.711 157.828 675.711 156.76V141.714H679.417V156.634C679.417 157.89 680.014 158.519 681.208 158.519C681.574 158.519 681.941 158.477 682.307 158.393C682.674 158.309 683.092 158.184 683.564 158.016L684.098 160.623C683.511 160.853 682.941 161.047 682.386 161.204C681.831 161.361 681.25 161.44 680.642 161.44ZM673.575 148.216V145.766H683.564V148.216H673.575ZM689.265 142.971C688.543 142.971 687.978 142.782 687.569 142.405C687.171 142.018 686.973 141.484 686.973 140.803C686.973 140.144 687.171 139.62 687.569 139.233C687.978 138.835 688.543 138.636 689.265 138.636C689.977 138.636 690.538 138.835 690.946 139.233C691.354 139.62 691.558 140.144 691.558 140.803C691.558 141.484 691.354 142.018 690.946 142.405C690.538 142.782 689.977 142.971 689.265 142.971ZM687.412 161V145.703H691.119V161H687.412ZM706.325 161L705.854 157.294V151.169C705.854 150.101 705.634 149.31 705.194 148.797C704.765 148.284 704.032 148.028 702.996 148.028C702.399 148.028 701.88 148.117 701.441 148.295C701.001 148.473 700.661 148.729 700.42 149.064C700.19 149.389 700.074 149.787 700.074 150.258H696.023C696.023 149.106 696.3 148.169 696.855 147.447C697.41 146.714 698.206 146.18 699.242 145.845C700.289 145.499 701.54 145.326 702.996 145.326C704.315 145.326 705.466 145.541 706.451 145.97C707.435 146.389 708.199 147.038 708.744 147.918C709.288 148.797 709.56 149.923 709.56 151.294V161H706.325ZM701.331 161.44C700.022 161.44 698.928 161.215 698.048 160.764C697.179 160.304 696.525 159.702 696.085 158.958C695.646 158.215 695.426 157.409 695.426 156.54C695.426 155.577 695.677 154.77 696.18 154.121C696.693 153.462 697.415 152.97 698.347 152.645C699.279 152.31 700.378 152.142 701.645 152.142C702.472 152.142 703.252 152.205 703.985 152.331C704.728 152.456 705.466 152.624 706.199 152.833V155.001C705.624 154.812 704.995 154.666 704.315 154.561C703.634 154.456 702.996 154.404 702.399 154.404C701.519 154.404 700.797 154.566 700.231 154.891C699.666 155.215 699.383 155.765 699.383 156.54C699.383 157.105 699.614 157.592 700.074 158C700.535 158.409 701.268 158.613 702.273 158.613C703.037 158.613 703.687 158.445 704.221 158.11C704.755 157.775 705.158 157.356 705.43 156.854C705.713 156.351 705.854 155.849 705.854 155.346H706.733C706.733 156.446 706.529 157.461 706.121 158.393C705.713 159.314 705.105 160.052 704.299 160.607C703.503 161.162 702.514 161.44 701.331 161.44ZM714.208 161V139.453H717.914V161H714.208ZM730.058 161V140.615H737.251C739.544 140.615 741.329 141.18 742.606 142.311C743.894 143.442 744.538 145.044 744.538 147.117C744.538 149.169 743.894 150.76 742.606 151.891C741.329 153.022 739.544 153.587 737.251 153.587H733.795V161H730.058ZM733.795 150.352H737.251C738.402 150.352 739.271 150.048 739.858 149.441C740.444 148.834 740.737 148.059 740.737 147.117C740.737 146.154 740.444 145.363 739.858 144.745C739.271 144.128 738.402 143.819 737.251 143.819H733.795V150.352ZM747.587 161V145.703H751.293V161H747.587ZM750.382 154.31C750.382 152.31 750.608 150.656 751.058 149.347C751.508 148.038 752.11 147.07 752.864 146.441C753.628 145.803 754.476 145.483 755.408 145.483C755.659 145.483 755.895 145.499 756.115 145.531C756.345 145.562 756.57 145.609 756.79 145.672L756.727 149.378C756.455 149.315 756.162 149.263 755.848 149.221C755.534 149.179 755.251 149.158 755 149.158C754.183 149.158 753.497 149.357 752.942 149.755C752.398 150.143 751.984 150.718 751.702 151.483C751.429 152.247 751.293 153.189 751.293 154.31H750.382ZM765.132 161.44C763.739 161.44 762.478 161.141 761.347 160.545C760.227 159.948 759.337 159.058 758.677 157.875C758.018 156.681 757.688 155.189 757.688 153.399C757.688 151.577 758.018 150.069 758.677 148.876C759.337 147.682 760.227 146.792 761.347 146.206C762.478 145.62 763.739 145.326 765.132 145.326C766.503 145.326 767.744 145.62 768.854 146.206C769.974 146.792 770.864 147.682 771.524 148.876C772.183 150.069 772.513 151.577 772.513 153.399C772.513 155.189 772.183 156.681 771.524 157.875C770.864 159.058 769.974 159.948 768.854 160.545C767.744 161.141 766.503 161.44 765.132 161.44ZM765.006 158.205C765.739 158.205 766.388 158.027 766.954 157.671C767.529 157.304 767.98 156.765 768.304 156.053C768.639 155.341 768.807 154.456 768.807 153.399C768.807 151.786 768.488 150.572 767.849 149.755C767.221 148.939 766.357 148.53 765.258 148.53C764.514 148.53 763.855 148.713 763.279 149.08C762.703 149.436 762.247 149.975 761.912 150.698C761.588 151.42 761.425 152.32 761.425 153.399C761.425 154.99 761.745 156.189 762.383 156.995C763.033 157.801 763.907 158.205 765.006 158.205ZM781.289 161.44C780.389 161.44 779.562 161.272 778.808 160.937C778.065 160.602 777.468 160.089 777.018 159.398C776.578 158.707 776.358 157.828 776.358 156.76V141.714H780.064V156.634C780.064 157.89 780.661 158.519 781.855 158.519C782.221 158.519 782.588 158.477 782.954 158.393C783.321 158.309 783.739 158.184 784.211 158.016L784.744 160.623C784.158 160.853 783.588 161.047 783.033 161.204C782.478 161.361 781.897 161.44 781.289 161.44ZM774.222 148.216V145.766H784.211V148.216H774.222ZM793.744 161.44C792.352 161.44 791.09 161.141 789.96 160.545C788.839 159.948 787.949 159.058 787.29 157.875C786.63 156.681 786.3 155.189 786.3 153.399C786.3 151.577 786.63 150.069 787.29 148.876C787.949 147.682 788.839 146.792 789.96 146.206C791.09 145.62 792.352 145.326 793.744 145.326C795.116 145.326 796.357 145.62 797.467 146.206C798.587 146.792 799.477 147.682 800.136 148.876C800.796 150.069 801.126 151.577 801.126 153.399C801.126 155.189 800.796 156.681 800.136 157.875C799.477 159.058 798.587 159.948 797.467 160.545C796.357 161.141 795.116 161.44 793.744 161.44ZM793.619 158.205C794.352 158.205 795.001 158.027 795.566 157.671C796.142 157.304 796.592 156.765 796.917 156.053C797.252 155.341 797.419 154.456 797.419 153.399C797.419 151.786 797.1 150.572 796.461 149.755C795.833 148.939 794.969 148.53 793.87 148.53C793.127 148.53 792.467 148.713 791.891 149.08C791.315 149.436 790.86 149.975 790.525 150.698C790.2 151.42 790.038 152.32 790.038 153.399C790.038 154.99 790.357 156.189 790.996 156.995C791.645 157.801 792.519 158.205 793.619 158.205ZM809.902 161.44C809.002 161.44 808.174 161.272 807.421 160.937C806.677 160.602 806.08 160.089 805.63 159.398C805.19 158.707 804.971 157.828 804.971 156.76V141.714H808.677V156.634C808.677 157.89 809.274 158.519 810.467 158.519C810.834 158.519 811.2 158.477 811.567 158.393C811.933 158.309 812.352 158.184 812.823 158.016L813.357 160.623C812.771 160.853 812.2 161.047 811.645 161.204C811.09 161.361 810.509 161.44 809.902 161.44ZM802.835 148.216V145.766H812.823V148.216H802.835ZM814.033 145.766H818.242L822.294 157.765H821.635L825.121 145.766H828.89L823.048 163.764C822.451 165.565 821.713 166.868 820.834 167.675C819.965 168.481 818.902 168.884 817.645 168.884C816.923 168.884 816.216 168.8 815.525 168.633C814.845 168.476 814.148 168.224 813.437 167.879V164.612C814.012 164.968 814.567 165.23 815.101 165.397C815.646 165.565 816.19 165.649 816.735 165.649C817.227 165.649 817.656 165.513 818.022 165.24C818.399 164.979 818.724 164.607 818.996 164.125C819.268 163.654 819.499 163.104 819.687 162.476L820.158 161L814.033 145.766ZM839.033 161.44C837.912 161.44 836.96 161.199 836.174 160.717C835.389 160.236 834.787 159.508 834.368 158.534C833.96 157.55 833.756 156.32 833.756 154.844H835.106C835.106 155.524 835.264 156.105 835.578 156.587C835.892 157.069 836.305 157.44 836.818 157.702C837.342 157.953 837.902 158.079 838.499 158.079C839.116 158.079 839.724 157.911 840.321 157.576C840.928 157.231 841.43 156.713 841.828 156.022C842.226 155.32 842.425 154.435 842.425 153.367C842.425 152.394 842.257 151.556 841.922 150.855C841.587 150.143 841.127 149.598 840.54 149.221C839.965 148.844 839.305 148.656 838.562 148.656C837.933 148.656 837.358 148.797 836.834 149.08C836.311 149.363 835.892 149.776 835.578 150.321C835.264 150.855 835.106 151.504 835.106 152.268H833.756C833.756 150.666 834.002 149.357 834.494 148.342C834.986 147.316 835.646 146.557 836.473 146.065C837.3 145.572 838.206 145.326 839.19 145.326C840.394 145.326 841.525 145.646 842.582 146.284C843.65 146.923 844.514 147.844 845.173 149.048C845.833 150.242 846.163 151.682 846.163 153.367C846.163 155.064 845.828 156.514 845.158 157.718C844.488 158.922 843.608 159.843 842.519 160.482C841.441 161.12 840.279 161.44 839.033 161.44ZM831.4 168.444V145.766H834.447L835.106 149.535V168.444H831.4ZM855.471 161.44C854.173 161.44 852.985 161.105 851.906 160.435C850.828 159.765 849.964 158.827 849.315 157.623C848.666 156.409 848.341 154.99 848.341 153.367C848.341 151.692 848.66 150.253 849.299 149.048C849.948 147.844 850.812 146.923 851.89 146.284C852.969 145.646 854.162 145.326 855.471 145.326C856.686 145.326 857.733 145.572 858.612 146.065C859.502 146.546 860.214 147.206 860.748 148.043C861.293 148.871 861.659 149.808 861.847 150.855C862.036 151.902 862.046 152.98 861.879 154.09H851.294V152.08H859.256L858.534 152.551C858.565 152.059 858.539 151.561 858.455 151.059C858.382 150.556 858.235 150.095 858.015 149.677C857.796 149.258 857.481 148.923 857.073 148.672C856.675 148.41 856.162 148.279 855.534 148.279C854.78 148.279 854.142 148.467 853.618 148.844C853.095 149.221 852.697 149.734 852.424 150.383C852.152 151.033 852.016 151.765 852.016 152.582V154.058C852.016 154.917 852.142 155.676 852.393 156.336C852.655 156.995 853.037 157.513 853.539 157.89C854.053 158.267 854.696 158.456 855.471 158.456C856.194 158.456 856.801 158.288 857.293 157.953C857.785 157.618 858.099 157.116 858.235 156.446H861.973C861.816 157.43 861.444 158.299 860.858 159.053C860.282 159.796 859.534 160.382 858.612 160.812C857.691 161.23 856.644 161.44 855.471 161.44Z" fill="#383838"/>
</svg>
