<svg width="1500" height="210" viewBox="0 0 1500 210" fill="none" xmlns="http://www.w3.org/2000/svg">
<rect width="1500" height="210" fill="#E5E5E5"/>
<rect width="1500" height="210" fill="white"/>
<path d="M662.957 153V132.615H670.15C672.443 132.615 674.228 133.18 675.506 134.311C676.794 135.442 677.438 137.044 677.438 139.117C677.438 141.169 676.794 142.76 675.506 143.891C674.228 145.022 672.443 145.587 670.15 145.587H666.695V153H662.957ZM666.695 142.352H670.15C671.302 142.352 672.171 142.048 672.757 141.441C673.344 140.834 673.637 140.059 673.637 139.117C673.637 138.154 673.344 137.363 672.757 136.745C672.171 136.128 671.302 135.819 670.15 135.819H666.695V142.352ZM688.182 153V132.615H695.721C698.16 132.615 700.029 133.186 701.327 134.327C702.636 135.468 703.29 136.981 703.29 138.865C703.29 140.719 702.636 142.216 701.327 143.357C700.029 144.488 698.16 145.053 695.721 145.053H691.889V153H688.182ZM699.207 153L693.805 143.451H697.762L704.044 153H699.207ZM691.889 142.572H695.344C696.705 142.572 697.736 142.263 698.438 141.645C699.139 141.017 699.49 140.206 699.49 139.211C699.49 138.195 699.17 137.379 698.532 136.761C697.893 136.133 696.956 135.819 695.721 135.819H691.889V142.572ZM723.096 153.44C721.285 153.44 719.683 153.042 718.29 152.246C716.908 151.45 715.825 150.262 715.039 148.681C714.254 147.1 713.862 145.137 713.862 142.792C713.862 140.405 714.254 138.431 715.039 136.871C715.825 135.3 716.908 134.133 718.29 133.369C719.683 132.594 721.285 132.207 723.096 132.207C724.918 132.207 726.525 132.604 727.918 133.4C729.31 134.185 730.399 135.363 731.184 136.934C731.969 138.504 732.362 140.457 732.362 142.792C732.362 145.168 731.969 147.147 731.184 148.728C730.399 150.309 729.31 151.492 727.918 152.278C726.525 153.052 724.918 153.44 723.096 153.44ZM723.096 150.079C724.761 150.079 726.08 149.451 727.054 148.194C728.038 146.938 728.53 145.127 728.53 142.76C728.53 140.478 728.038 138.703 727.054 137.436C726.08 136.169 724.761 135.536 723.096 135.536C721.463 135.536 720.154 136.175 719.17 137.452C718.186 138.719 717.694 140.499 717.694 142.792C717.694 145.147 718.186 146.954 719.17 148.21C720.154 149.456 721.463 150.079 723.096 150.079ZM751.07 153.44C749.28 153.44 747.72 153.016 746.39 152.168C745.071 151.309 744.045 150.084 743.312 148.493C742.579 146.901 742.213 144.99 742.213 142.76C742.213 140.457 742.59 138.525 743.344 136.965C744.108 135.395 745.155 134.212 746.485 133.416C747.825 132.61 749.353 132.207 751.07 132.207C753.447 132.207 755.3 132.782 756.63 133.934C757.97 135.086 758.829 136.583 759.206 138.426L755.248 139.148C754.923 138.08 754.405 137.216 753.693 136.557C752.981 135.897 752.107 135.567 751.07 135.567C750.16 135.567 749.338 135.834 748.605 136.368C747.872 136.892 747.285 137.688 746.846 138.756C746.416 139.824 746.202 141.158 746.202 142.76C746.202 144.268 746.39 145.566 746.767 146.655C747.155 147.744 747.71 148.582 748.432 149.168C749.154 149.754 750.034 150.047 751.07 150.047C752.4 150.047 753.426 149.697 754.149 148.995C754.881 148.283 755.248 147.378 755.248 146.278H759.206C759.206 147.796 758.876 149.089 758.216 150.157C757.567 151.215 756.635 152.026 755.421 152.592C754.206 153.157 752.756 153.44 751.07 153.44ZM770.444 153V132.615H783.542V135.819H774.15V141.19H782.976V144.394H774.15V149.765H783.542V153H770.444ZM802.919 153.44C801.506 153.44 800.202 153.194 799.008 152.702C797.825 152.21 796.862 151.461 796.119 150.456C795.386 149.451 794.993 148.173 794.941 146.624H798.584C798.584 147.409 798.778 148.053 799.165 148.555C799.553 149.058 800.071 149.435 800.72 149.686C801.38 149.927 802.102 150.047 802.888 150.047C803.641 150.047 804.312 149.948 804.898 149.749C805.495 149.55 805.961 149.267 806.296 148.901C806.641 148.524 806.814 148.079 806.814 147.566C806.814 146.886 806.604 146.352 806.186 145.964C805.777 145.577 805.118 145.221 804.207 144.896L800.186 143.294C798.616 142.677 797.412 141.959 796.574 141.143C795.737 140.326 795.318 139.201 795.318 137.766C795.318 136.112 795.972 134.772 797.281 133.746C798.59 132.72 800.417 132.207 802.762 132.207C805.044 132.207 806.809 132.741 808.055 133.808C809.3 134.866 810.007 136.342 810.175 138.237H806.531C806.395 137.431 806.029 136.787 805.432 136.306C804.835 135.813 803.945 135.567 802.762 135.567C801.715 135.567 800.888 135.787 800.281 136.227C799.673 136.656 799.37 137.201 799.37 137.86C799.37 138.426 799.558 138.876 799.935 139.211C800.322 139.536 800.919 139.85 801.725 140.153L806.186 141.881C807.693 142.467 808.85 143.205 809.656 144.095C810.463 144.985 810.866 146.1 810.866 147.44C810.866 148.665 810.557 149.728 809.939 150.629C809.321 151.518 808.421 152.21 807.238 152.702C806.055 153.194 804.615 153.44 802.919 153.44ZM829.859 153.44C828.446 153.44 827.142 153.194 825.949 152.702C824.766 152.21 823.802 151.461 823.059 150.456C822.326 149.451 821.933 148.173 821.881 146.624H825.525C825.525 147.409 825.718 148.053 826.106 148.555C826.493 149.058 827.011 149.435 827.66 149.686C828.32 149.927 829.043 150.047 829.828 150.047C830.582 150.047 831.252 149.948 831.838 149.749C832.435 149.55 832.901 149.267 833.236 148.901C833.581 148.524 833.754 148.079 833.754 147.566C833.754 146.886 833.545 146.352 833.126 145.964C832.717 145.577 832.058 145.221 831.147 144.896L827.127 143.294C825.556 142.677 824.352 141.959 823.514 141.143C822.677 140.326 822.258 139.201 822.258 137.766C822.258 136.112 822.912 134.772 824.221 133.746C825.53 132.72 827.357 132.207 829.702 132.207C831.985 132.207 833.749 132.741 834.995 133.808C836.241 134.866 836.947 136.342 837.115 138.237H833.471C833.335 137.431 832.969 136.787 832.372 136.306C831.775 135.813 830.885 135.567 829.702 135.567C828.655 135.567 827.828 135.787 827.221 136.227C826.613 136.656 826.31 137.201 826.31 137.86C826.31 138.426 826.498 138.876 826.875 139.211C827.263 139.536 827.859 139.85 828.666 140.153L833.126 141.881C834.633 142.467 835.79 143.205 836.597 144.095C837.403 144.985 837.806 146.1 837.806 147.44C837.806 148.665 837.497 149.728 836.879 150.629C836.262 151.518 835.361 152.21 834.178 152.702C832.995 153.194 831.555 153.44 829.859 153.44Z" fill="#383838"/>
</svg>
