<svg width="1500" height="429" viewBox="0 0 1500 429" fill="none" xmlns="http://www.w3.org/2000/svg">
<rect width="1500" height="429" fill="#E5E5E5"/>
<rect width="1500" height="429" fill="white"/>
<path d="M540.816 196V175.615H548.009C550.302 175.615 552.087 176.18 553.365 177.311C554.653 178.442 555.296 180.044 555.296 182.117C555.296 184.169 554.653 185.76 553.365 186.891C552.087 188.022 550.302 188.587 548.009 188.587H544.554V196H540.816ZM544.554 185.352H548.009C549.161 185.352 550.03 185.048 550.616 184.441C551.203 183.834 551.496 183.059 551.496 182.117C551.496 181.154 551.203 180.363 550.616 179.745C550.03 179.128 549.161 178.819 548.009 178.819H544.554V185.352ZM566.041 196V175.615H573.58C576.019 175.615 577.888 176.186 579.186 177.327C580.495 178.468 581.149 179.981 581.149 181.865C581.149 183.719 580.495 185.216 579.186 186.357C577.888 187.488 576.019 188.053 573.58 188.053H569.747V196H566.041ZM577.066 196L571.664 186.451H575.621L581.903 196H577.066ZM569.747 185.572H573.203C574.564 185.572 575.595 185.263 576.296 184.645C576.998 184.017 577.349 183.206 577.349 182.211C577.349 181.195 577.029 180.379 576.391 179.761C575.752 179.133 574.815 178.819 573.58 178.819H569.747V185.572ZM600.955 196.44C599.144 196.44 597.542 196.042 596.149 195.246C594.767 194.45 593.684 193.262 592.898 191.681C592.113 190.1 591.721 188.137 591.721 185.792C591.721 183.405 592.113 181.431 592.898 179.871C593.684 178.3 594.767 177.133 596.149 176.369C597.542 175.594 599.144 175.207 600.955 175.207C602.777 175.207 604.384 175.604 605.776 176.4C607.169 177.185 608.258 178.363 609.043 179.934C609.828 181.504 610.221 183.457 610.221 185.792C610.221 188.168 609.828 190.147 609.043 191.728C608.258 193.309 607.169 194.492 605.776 195.278C604.384 196.052 602.777 196.44 600.955 196.44ZM600.955 193.079C602.62 193.079 603.939 192.451 604.913 191.194C605.897 189.938 606.389 188.127 606.389 185.76C606.389 183.478 605.897 181.703 604.913 180.436C603.939 179.169 602.62 178.536 600.955 178.536C599.322 178.536 598.013 179.175 597.029 180.452C596.045 181.719 595.553 183.499 595.553 185.792C595.553 188.147 596.045 189.954 597.029 191.21C598.013 192.456 599.322 193.079 600.955 193.079ZM628.929 196.44C627.139 196.44 625.579 196.016 624.249 195.168C622.93 194.309 621.904 193.084 621.171 191.493C620.438 189.901 620.072 187.99 620.072 185.76C620.072 183.457 620.449 181.525 621.202 179.965C621.967 178.395 623.014 177.212 624.343 176.416C625.684 175.61 627.212 175.207 628.929 175.207C631.306 175.207 633.159 175.782 634.489 176.934C635.829 178.086 636.688 179.583 637.065 181.426L633.107 182.148C632.782 181.08 632.264 180.216 631.552 179.557C630.84 178.897 629.966 178.567 628.929 178.567C628.018 178.567 627.197 178.834 626.464 179.368C625.731 179.892 625.144 180.688 624.705 181.756C624.275 182.824 624.061 184.158 624.061 185.76C624.061 187.268 624.249 188.566 624.626 189.655C625.014 190.744 625.568 191.582 626.291 192.168C627.013 192.754 627.893 193.047 628.929 193.047C630.259 193.047 631.285 192.697 632.008 191.995C632.74 191.283 633.107 190.378 633.107 189.278H637.065C637.065 190.796 636.735 192.089 636.075 193.157C635.426 194.215 634.494 195.026 633.28 195.592C632.065 196.157 630.615 196.44 628.929 196.44ZM648.303 196V175.615H661.401V178.819H652.009V184.19H660.835V187.394H652.009V192.765H661.401V196H648.303ZM680.778 196.44C679.364 196.44 678.061 196.194 676.867 195.702C675.684 195.21 674.721 194.461 673.978 193.456C673.245 192.451 672.852 191.173 672.8 189.624H676.443C676.443 190.409 676.637 191.053 677.024 191.555C677.412 192.058 677.93 192.435 678.579 192.686C679.239 192.927 679.961 193.047 680.747 193.047C681.5 193.047 682.17 192.948 682.757 192.749C683.354 192.55 683.819 192.267 684.154 191.901C684.5 191.524 684.673 191.079 684.673 190.566C684.673 189.886 684.463 189.352 684.045 188.964C683.636 188.577 682.977 188.221 682.066 187.896L678.045 186.294C676.475 185.677 675.271 184.959 674.433 184.143C673.596 183.326 673.177 182.201 673.177 180.766C673.177 179.112 673.831 177.772 675.14 176.746C676.449 175.72 678.276 175.207 680.621 175.207C682.903 175.207 684.668 175.741 685.913 176.808C687.159 177.866 687.866 179.342 688.034 181.237H684.39C684.254 180.431 683.888 179.787 683.291 179.306C682.694 178.813 681.804 178.567 680.621 178.567C679.574 178.567 678.747 178.787 678.139 179.227C677.532 179.656 677.229 180.201 677.229 180.86C677.229 181.426 677.417 181.876 677.794 182.211C678.181 182.536 678.778 182.85 679.584 183.153L684.045 184.881C685.552 185.467 686.709 186.205 687.515 187.095C688.322 187.985 688.725 189.1 688.725 190.44C688.725 191.665 688.416 192.728 687.798 193.629C687.18 194.518 686.28 195.21 685.097 195.702C683.914 196.194 682.474 196.44 680.778 196.44ZM707.718 196.44C706.305 196.44 705.001 196.194 703.808 195.702C702.624 195.21 701.661 194.461 700.918 193.456C700.185 192.451 699.792 191.173 699.74 189.624H703.384C703.384 190.409 703.577 191.053 703.965 191.555C704.352 192.058 704.87 192.435 705.519 192.686C706.179 192.927 706.901 193.047 707.687 193.047C708.441 193.047 709.111 192.948 709.697 192.749C710.294 192.55 710.76 192.267 711.095 191.901C711.44 191.524 711.613 191.079 711.613 190.566C711.613 189.886 711.404 189.352 710.985 188.964C710.576 188.577 709.917 188.221 709.006 187.896L704.985 186.294C703.415 185.677 702.211 184.959 701.373 184.143C700.536 183.326 700.117 182.201 700.117 180.766C700.117 179.112 700.771 177.772 702.08 176.746C703.389 175.72 705.216 175.207 707.561 175.207C709.844 175.207 711.608 175.741 712.854 176.808C714.1 177.866 714.806 179.342 714.974 181.237H711.33C711.194 180.431 710.828 179.787 710.231 179.306C709.634 178.813 708.744 178.567 707.561 178.567C706.514 178.567 705.687 178.787 705.08 179.227C704.472 179.656 704.169 180.201 704.169 180.86C704.169 181.426 704.357 181.876 704.734 182.211C705.122 182.536 705.718 182.85 706.525 183.153L710.985 184.881C712.492 185.467 713.649 186.205 714.456 187.095C715.262 187.985 715.665 189.1 715.665 190.44C715.665 191.665 715.356 192.728 714.738 193.629C714.121 194.518 713.22 195.21 712.037 195.702C710.854 196.194 709.414 196.44 707.718 196.44ZM740.938 188.148V184.912H749.764V188.148H740.938ZM775.897 196V175.615H784.126C785.697 175.615 787 175.861 788.037 176.353C789.073 176.835 789.848 177.484 790.361 178.3C790.874 179.117 791.131 180.023 791.131 181.017C791.131 182.169 790.806 183.153 790.157 183.97C789.518 184.787 788.618 185.362 787.456 185.698C788.22 185.855 788.906 186.142 789.513 186.561C790.12 186.98 790.597 187.509 790.942 188.148C791.298 188.786 791.476 189.519 791.476 190.346C791.476 190.995 791.361 191.65 791.131 192.309C790.911 192.969 790.523 193.581 789.968 194.147C789.424 194.702 788.675 195.152 787.723 195.497C786.78 195.832 785.592 196 784.158 196H775.897ZM779.603 192.765H784.063C785.246 192.765 786.11 192.529 786.655 192.058C787.21 191.576 787.487 190.933 787.487 190.126C787.487 189.32 787.204 188.676 786.639 188.195C786.074 187.703 785.215 187.456 784.063 187.456H779.603V192.765ZM779.603 178.819V184.221H783.969C785.068 184.221 785.901 183.98 786.466 183.499C787.042 183.007 787.33 182.337 787.33 181.489C787.33 180.682 787.047 180.038 786.482 179.557C785.927 179.065 785.1 178.819 784 178.819H779.603ZM803.174 196V175.615H810.713C813.152 175.615 815.021 176.186 816.319 177.327C817.628 178.468 818.283 179.981 818.283 181.865C818.283 183.719 817.628 185.216 816.319 186.357C815.021 187.488 813.152 188.053 810.713 188.053H806.881V196H803.174ZM814.199 196L808.797 186.451H812.754L819.036 196H814.199ZM806.881 185.572H810.336C811.697 185.572 812.728 185.263 813.43 184.645C814.131 184.017 814.482 183.206 814.482 182.211C814.482 181.195 814.163 180.379 813.524 179.761C812.885 179.133 811.948 178.819 810.713 178.819H806.881V185.572ZM828.068 196L835.01 175.615H839.659L846.318 196H842.423L841.009 191.603H833.44L831.995 196H828.068ZM834.382 188.807H840.13L837.272 180.044L834.382 188.807ZM856.808 175.615H860.86L870.126 190.158H869.843V175.615H873.549V196H869.78L859.917 180.578H860.514V196H856.808V175.615ZM886.296 175.615H892.892C894.965 175.615 896.781 176.034 898.341 176.871C899.901 177.698 901.116 178.876 901.985 180.405C902.854 181.934 903.288 183.74 903.288 185.823C903.288 187.886 902.854 189.681 901.985 191.21C901.116 192.728 899.901 193.906 898.341 194.744C896.781 195.581 894.965 196 892.892 196H886.296V175.615ZM890.002 178.976V192.671H892.892C894.211 192.671 895.347 192.372 896.3 191.775C897.263 191.179 898.001 190.367 898.514 189.341C899.038 188.305 899.299 187.132 899.299 185.823C899.299 184.493 899.038 183.316 898.514 182.29C898.001 181.263 897.263 180.457 896.3 179.871C895.347 179.274 894.211 178.976 892.892 178.976H890.002ZM914.769 196V175.615H918.476V196H914.769ZM931.187 175.615H935.239L944.505 190.158H944.222V175.615H947.929V196H944.159L934.297 180.578H934.893V196H931.187V175.615ZM968.119 196.44C966.454 196.44 964.952 196 963.611 195.121C962.271 194.241 961.203 193.016 960.408 191.446C959.622 189.865 959.23 188.022 959.23 185.917C959.23 184.253 959.471 182.761 959.952 181.441C960.444 180.122 961.125 178.997 961.994 178.065C962.863 177.133 963.884 176.426 965.056 175.945C966.229 175.453 967.501 175.207 968.873 175.207C970.778 175.207 972.375 175.62 973.663 176.447C974.961 177.274 975.971 178.578 976.694 180.358L972.893 181.237C972.359 180.368 971.741 179.709 971.04 179.258C970.349 178.798 969.564 178.567 968.684 178.567C967.679 178.567 966.763 178.866 965.936 179.463C965.109 180.049 964.449 180.892 963.957 181.991C963.465 183.09 963.219 184.399 963.219 185.917C963.219 187.341 963.433 188.587 963.863 189.655C964.302 190.723 964.915 191.555 965.7 192.152C966.485 192.749 967.396 193.047 968.433 193.047C969.312 193.047 970.098 192.854 970.789 192.466C971.49 192.069 972.04 191.503 972.438 190.77C972.846 190.037 973.05 189.153 973.05 188.116H973.867C973.867 189.812 973.663 191.283 973.254 192.529C972.856 193.775 972.234 194.738 971.385 195.419C970.537 196.099 969.449 196.44 968.119 196.44ZM973.584 196L973.05 191.508V187.99L968.464 187.896V185.54H976.6V196H973.584Z" fill="#383838"/>
<line x1="431" y1="223.276" x2="1087.01" y2="223.276" stroke="#383838"/>
</svg>
