<svg width="1500" height="475" viewBox="0 0 1500 475" fill="none" xmlns="http://www.w3.org/2000/svg">
<rect width="1500" height="475" fill="#E5E5E5"/>
<rect width="1500" height="475" fill="white"/>
<path d="M645.998 179.44C644.208 179.44 642.648 179.016 641.318 178.168C639.999 177.309 638.973 176.084 638.24 174.493C637.507 172.901 637.141 170.99 637.141 168.76C637.141 166.457 637.518 164.525 638.271 162.965C639.036 161.395 640.083 160.212 641.412 159.416C642.753 158.61 644.281 158.207 645.998 158.207C648.375 158.207 650.228 158.782 651.558 159.934C652.898 161.086 653.757 162.583 654.134 164.426L650.176 165.148C649.851 164.08 649.333 163.216 648.621 162.557C647.909 161.897 647.035 161.567 645.998 161.567C645.087 161.567 644.266 161.834 643.533 162.368C642.8 162.892 642.213 163.688 641.774 164.756C641.344 165.824 641.13 167.158 641.13 168.76C641.13 170.268 641.318 171.566 641.695 172.655C642.083 173.744 642.637 174.582 643.36 175.168C644.082 175.754 644.962 176.047 645.998 176.047C647.328 176.047 648.354 175.697 649.077 174.995C649.809 174.283 650.176 173.378 650.176 172.278H654.134C654.134 173.796 653.804 175.089 653.144 176.157C652.495 177.215 651.563 178.026 650.349 178.592C649.134 179.157 647.684 179.44 645.998 179.44ZM665.403 158.615H669.109V167.127H677.998V158.615H681.705V179H677.998V170.362H669.109V179H665.403V158.615ZM692.23 179L699.171 158.615H703.82L710.479 179H706.584L705.171 174.603H697.601L696.156 179H692.23ZM698.543 171.807H704.291L701.433 163.044L698.543 171.807ZM724.738 158.615V175.765H733.125V179H721.032V158.615H724.738ZM747.169 158.615V175.765H755.556V179H743.463V158.615H747.169ZM765.863 179V158.615H778.961V161.819H769.569V167.19H778.395V170.394H769.569V175.765H778.961V179H765.863ZM791.177 158.615H795.228L804.494 173.158H804.212V158.615H807.918V179H804.149L794.286 163.578H794.883V179H791.177V158.615ZM828.108 179.44C826.444 179.44 824.941 179 823.601 178.121C822.261 177.241 821.193 176.016 820.397 174.446C819.612 172.865 819.219 171.022 819.219 168.917C819.219 167.253 819.46 165.761 819.942 164.441C820.434 163.122 821.114 161.997 821.983 161.065C822.852 160.133 823.873 159.426 825.046 158.945C826.219 158.453 827.491 158.207 828.862 158.207C830.768 158.207 832.364 158.62 833.652 159.447C834.951 160.274 835.961 161.578 836.683 163.358L832.883 164.237C832.349 163.368 831.731 162.709 831.029 162.258C830.338 161.798 829.553 161.567 828.674 161.567C827.669 161.567 826.752 161.866 825.925 162.463C825.098 163.049 824.439 163.892 823.947 164.991C823.454 166.09 823.208 167.399 823.208 168.917C823.208 170.341 823.423 171.587 823.852 172.655C824.292 173.723 824.905 174.555 825.69 175.152C826.475 175.749 827.386 176.047 828.422 176.047C829.302 176.047 830.087 175.854 830.778 175.466C831.48 175.069 832.029 174.503 832.427 173.77C832.836 173.037 833.04 172.153 833.04 171.116H833.856C833.856 172.812 833.652 174.283 833.244 175.529C832.846 176.775 832.223 177.738 831.375 178.419C830.527 179.099 829.438 179.44 828.108 179.44ZM833.574 179L833.04 174.508V170.99L828.454 170.896V168.54H836.589V179H833.574ZM848.8 179V158.615H861.898V161.819H852.506V167.19H861.333V170.394H852.506V175.765H861.898V179H848.8Z" fill="#383838"/>
<path d="M514.003 227.424H516.835V233.928H523.627V227.424H526.459V243H523.627V236.4H516.835V243H514.003V227.424ZM534.909 243.336C533.845 243.336 532.881 243.108 532.017 242.652C531.161 242.196 530.481 241.516 529.977 240.612C529.473 239.7 529.221 238.56 529.221 237.192C529.221 235.8 529.473 234.648 529.977 233.736C530.481 232.824 531.161 232.144 532.017 231.696C532.881 231.248 533.845 231.024 534.909 231.024C535.957 231.024 536.905 231.248 537.753 231.696C538.609 232.144 539.289 232.824 539.793 233.736C540.297 234.648 540.549 235.8 540.549 237.192C540.549 238.56 540.297 239.7 539.793 240.612C539.289 241.516 538.609 242.196 537.753 242.652C536.905 243.108 535.957 243.336 534.909 243.336ZM534.813 240.864C535.373 240.864 535.869 240.728 536.301 240.456C536.741 240.176 537.085 239.764 537.333 239.22C537.589 238.676 537.717 238 537.717 237.192C537.717 235.96 537.473 235.032 536.985 234.408C536.505 233.784 535.845 233.472 535.005 233.472C534.437 233.472 533.933 233.612 533.493 233.892C533.053 234.164 532.705 234.576 532.449 235.128C532.201 235.68 532.077 236.368 532.077 237.192C532.077 238.408 532.321 239.324 532.809 239.94C533.305 240.556 533.973 240.864 534.813 240.864ZM541.375 231.36H544.327L546.847 240.192H546.559L548.935 231.984H551.503L553.879 240.216H553.591L556.111 231.36H558.943L555.103 243H552.319L549.943 235.272H550.375L548.047 243H545.239L541.375 231.36ZM570.793 243.336C569.817 243.336 568.909 243.084 568.069 242.58C567.237 242.068 566.561 241.352 566.041 240.432C565.529 239.504 565.273 238.416 565.273 237.168C565.273 235.848 565.529 234.732 566.041 233.82C566.561 232.9 567.237 232.204 568.069 231.732C568.909 231.26 569.817 231.024 570.793 231.024C571.553 231.024 572.221 231.148 572.797 231.396C573.381 231.636 573.877 231.964 574.285 232.38C574.693 232.788 575.013 233.244 575.245 233.748C575.477 234.252 575.625 234.76 575.689 235.272L572.833 235.344C572.705 234.832 572.465 234.408 572.113 234.072C571.769 233.736 571.321 233.568 570.769 233.568C570.313 233.568 569.885 233.696 569.485 233.952C569.085 234.2 568.757 234.588 568.501 235.116C568.253 235.644 568.129 236.328 568.129 237.168C568.129 237.968 568.245 238.636 568.477 239.172C568.717 239.7 569.037 240.1 569.437 240.372C569.837 240.636 570.281 240.768 570.769 240.768C571.489 240.768 572.013 240.596 572.341 240.252C572.669 239.9 572.833 239.432 572.833 238.848H575.689C575.689 239.672 575.501 240.424 575.125 241.104C574.749 241.784 574.197 242.328 573.469 242.736C572.741 243.136 571.849 243.336 570.793 243.336ZM585.896 243L585.536 240.168V235.488C585.536 234.672 585.368 234.068 585.032 233.676C584.704 233.284 584.144 233.088 583.352 233.088C582.896 233.088 582.5 233.156 582.164 233.292C581.828 233.428 581.568 233.624 581.384 233.88C581.208 234.128 581.12 234.432 581.12 234.792H578.024C578.024 233.912 578.236 233.196 578.66 232.644C579.084 232.084 579.692 231.676 580.484 231.42C581.284 231.156 582.24 231.024 583.352 231.024C584.36 231.024 585.24 231.188 585.992 231.516C586.744 231.836 587.328 232.332 587.744 233.004C588.16 233.676 588.368 234.536 588.368 235.584V243H585.896ZM582.08 243.336C581.08 243.336 580.244 243.164 579.572 242.82C578.908 242.468 578.408 242.008 578.072 241.44C577.736 240.872 577.568 240.256 577.568 239.592C577.568 238.856 577.76 238.24 578.144 237.744C578.536 237.24 579.088 236.864 579.8 236.616C580.512 236.36 581.352 236.232 582.32 236.232C582.952 236.232 583.548 236.28 584.108 236.376C584.676 236.472 585.24 236.6 585.8 236.76V238.416C585.36 238.272 584.88 238.16 584.36 238.08C583.84 238 583.352 237.96 582.896 237.96C582.224 237.96 581.672 238.084 581.24 238.332C580.808 238.58 580.592 239 580.592 239.592C580.592 240.024 580.768 240.396 581.12 240.708C581.472 241.02 582.032 241.176 582.8 241.176C583.384 241.176 583.88 241.048 584.288 240.792C584.696 240.536 585.004 240.216 585.212 239.832C585.428 239.448 585.536 239.064 585.536 238.68H586.208C586.208 239.52 586.052 240.296 585.74 241.008C585.428 241.712 584.964 242.276 584.348 242.7C583.74 243.124 582.984 243.336 582.08 243.336ZM599.911 243V236.184C599.911 235.32 599.703 234.668 599.287 234.228C598.871 233.788 598.327 233.568 597.655 233.568C597.087 233.568 596.583 233.724 596.143 234.036C595.711 234.348 595.371 234.82 595.123 235.452C594.875 236.076 594.751 236.856 594.751 237.792H593.815C593.815 236.28 594.003 235.024 594.379 234.024C594.755 233.016 595.287 232.264 595.975 231.768C596.663 231.272 597.471 231.024 598.399 231.024C599.359 231.024 600.159 231.24 600.799 231.672C601.447 232.096 601.931 232.696 602.251 233.472C602.579 234.248 602.743 235.152 602.743 236.184V243H599.911ZM591.919 243V231.36H594.391L594.751 233.664V243H591.919ZM611.742 243V227.424H618.03C619.23 227.424 620.226 227.612 621.018 227.988C621.81 228.356 622.402 228.852 622.794 229.476C623.186 230.1 623.382 230.792 623.382 231.552C623.382 232.432 623.134 233.184 622.638 233.808C622.15 234.432 621.462 234.872 620.574 235.128C621.158 235.248 621.682 235.468 622.146 235.788C622.61 236.108 622.974 236.512 623.238 237C623.51 237.488 623.646 238.048 623.646 238.68C623.646 239.176 623.558 239.676 623.382 240.18C623.214 240.684 622.918 241.152 622.494 241.584C622.078 242.008 621.506 242.352 620.778 242.616C620.058 242.872 619.15 243 618.054 243H611.742ZM614.574 240.528H617.982C618.886 240.528 619.546 240.348 619.962 239.988C620.386 239.62 620.598 239.128 620.598 238.512C620.598 237.896 620.382 237.404 619.95 237.036C619.518 236.66 618.862 236.472 617.982 236.472H614.574V240.528ZM614.574 229.872V234H617.91C618.75 234 619.386 233.816 619.818 233.448C620.258 233.072 620.478 232.56 620.478 231.912C620.478 231.296 620.262 230.804 619.83 230.436C619.406 230.06 618.774 229.872 617.934 229.872H614.574ZM631.289 243.336C630.225 243.336 629.261 243.108 628.397 242.652C627.541 242.196 626.861 241.516 626.357 240.612C625.853 239.7 625.601 238.56 625.601 237.192C625.601 235.8 625.853 234.648 626.357 233.736C626.861 232.824 627.541 232.144 628.397 231.696C629.261 231.248 630.225 231.024 631.289 231.024C632.337 231.024 633.285 231.248 634.133 231.696C634.989 232.144 635.669 232.824 636.173 233.736C636.677 234.648 636.929 235.8 636.929 237.192C636.929 238.56 636.677 239.7 636.173 240.612C635.669 241.516 634.989 242.196 634.133 242.652C633.285 243.108 632.337 243.336 631.289 243.336ZM631.193 240.864C631.753 240.864 632.249 240.728 632.681 240.456C633.121 240.176 633.465 239.764 633.713 239.22C633.969 238.676 634.097 238 634.097 237.192C634.097 235.96 633.853 235.032 633.365 234.408C632.885 233.784 632.225 233.472 631.385 233.472C630.817 233.472 630.313 233.612 629.873 233.892C629.433 234.164 629.085 234.576 628.829 235.128C628.581 235.68 628.457 236.368 628.457 237.192C628.457 238.408 628.701 239.324 629.189 239.94C629.685 240.556 630.353 240.864 631.193 240.864ZM644.282 243.336C643.218 243.336 642.254 243.108 641.39 242.652C640.534 242.196 639.854 241.516 639.35 240.612C638.846 239.7 638.594 238.56 638.594 237.192C638.594 235.8 638.846 234.648 639.35 233.736C639.854 232.824 640.534 232.144 641.39 231.696C642.254 231.248 643.218 231.024 644.282 231.024C645.33 231.024 646.278 231.248 647.126 231.696C647.982 232.144 648.662 232.824 649.166 233.736C649.67 234.648 649.922 235.8 649.922 237.192C649.922 238.56 649.67 239.7 649.166 240.612C648.662 241.516 647.982 242.196 647.126 242.652C646.278 243.108 645.33 243.336 644.282 243.336ZM644.186 240.864C644.746 240.864 645.242 240.728 645.674 240.456C646.114 240.176 646.458 239.764 646.706 239.22C646.962 238.676 647.09 238 647.09 237.192C647.09 235.96 646.846 235.032 646.358 234.408C645.878 233.784 645.218 233.472 644.378 233.472C643.81 233.472 643.306 233.612 642.866 233.892C642.426 234.164 642.078 234.576 641.822 235.128C641.574 235.68 641.45 236.368 641.45 237.192C641.45 238.408 641.694 239.324 642.182 239.94C642.678 240.556 643.346 240.864 644.186 240.864ZM657.036 243.336C655.916 243.336 654.952 243.184 654.144 242.88C653.344 242.568 652.728 242.124 652.296 241.548C651.864 240.964 651.644 240.264 651.636 239.448H654.252C654.276 240.024 654.504 240.444 654.936 240.708C655.368 240.972 655.956 241.104 656.7 241.104C657.108 241.104 657.468 241.044 657.78 240.924C658.1 240.804 658.348 240.64 658.524 240.432C658.7 240.224 658.788 239.992 658.788 239.736C658.788 239.408 658.668 239.152 658.428 238.968C658.196 238.776 657.82 238.6 657.3 238.44L654.756 237.528C653.844 237.2 653.144 236.768 652.656 236.232C652.168 235.696 651.924 235.056 651.924 234.312C651.924 233.328 652.368 232.536 653.256 231.936C654.152 231.328 655.348 231.024 656.844 231.024C658.332 231.024 659.48 231.352 660.288 232.008C661.104 232.656 661.524 233.48 661.548 234.48H658.884C658.844 234.096 658.66 233.792 658.332 233.568C658.004 233.344 657.508 233.232 656.844 233.232C656.244 233.232 655.772 233.356 655.428 233.604C655.092 233.844 654.924 234.128 654.924 234.456C654.924 235.008 655.396 235.424 656.34 235.704L659.1 236.736C659.996 237.04 660.692 237.432 661.188 237.912C661.684 238.392 661.932 239 661.932 239.736C661.932 240.352 661.724 240.936 661.308 241.488C660.9 242.032 660.328 242.476 659.592 242.82C658.856 243.164 658.004 243.336 657.036 243.336ZM668.684 243.336C667.996 243.336 667.364 243.208 666.788 242.952C666.22 242.696 665.764 242.304 665.42 241.776C665.084 241.248 664.916 240.576 664.916 239.76V228.264H667.748V239.664C667.748 240.624 668.204 241.104 669.116 241.104C669.396 241.104 669.676 241.072 669.956 241.008C670.236 240.944 670.556 240.848 670.916 240.72L671.324 242.712C670.876 242.888 670.44 243.036 670.016 243.156C669.592 243.276 669.148 243.336 668.684 243.336ZM663.284 233.232V231.36H670.916V233.232H663.284ZM679.759 243V229.944C679.759 229.104 679.923 228.42 680.251 227.892C680.579 227.364 681.011 226.976 681.547 226.728C682.091 226.472 682.679 226.344 683.311 226.344C683.703 226.344 684.107 226.372 684.523 226.428C684.939 226.484 685.343 226.552 685.735 226.632L685.183 228.816C684.983 228.744 684.775 228.688 684.559 228.648C684.343 228.6 684.135 228.576 683.935 228.576C683.711 228.576 683.499 228.62 683.299 228.708C683.099 228.788 682.935 228.932 682.807 229.14C682.679 229.348 682.615 229.632 682.615 229.992V243H679.759ZM678.031 233.232V231.36H684.751V233.232H678.031ZM694.716 243L694.356 240.168V235.488C694.356 234.672 694.188 234.068 693.852 233.676C693.524 233.284 692.964 233.088 692.172 233.088C691.716 233.088 691.32 233.156 690.984 233.292C690.648 233.428 690.388 233.624 690.204 233.88C690.028 234.128 689.94 234.432 689.94 234.792H686.844C686.844 233.912 687.056 233.196 687.48 232.644C687.904 232.084 688.512 231.676 689.304 231.42C690.104 231.156 691.06 231.024 692.172 231.024C693.18 231.024 694.06 231.188 694.812 231.516C695.564 231.836 696.148 232.332 696.564 233.004C696.98 233.676 697.188 234.536 697.188 235.584V243H694.716ZM690.9 243.336C689.9 243.336 689.064 243.164 688.392 242.82C687.728 242.468 687.228 242.008 686.892 241.44C686.556 240.872 686.388 240.256 686.388 239.592C686.388 238.856 686.58 238.24 686.964 237.744C687.356 237.24 687.908 236.864 688.62 236.616C689.332 236.36 690.172 236.232 691.14 236.232C691.772 236.232 692.368 236.28 692.928 236.376C693.496 236.472 694.06 236.6 694.62 236.76V238.416C694.18 238.272 693.7 238.16 693.18 238.08C692.66 238 692.172 237.96 691.716 237.96C691.044 237.96 690.492 238.084 690.06 238.332C689.628 238.58 689.412 239 689.412 239.592C689.412 240.024 689.588 240.396 689.94 240.708C690.292 241.02 690.852 241.176 691.62 241.176C692.204 241.176 692.7 241.048 693.108 240.792C693.516 240.536 693.824 240.216 694.032 239.832C694.248 239.448 694.356 239.064 694.356 238.68H695.028C695.028 239.52 694.872 240.296 694.56 241.008C694.248 241.712 693.784 242.276 693.168 242.7C692.56 243.124 691.804 243.336 690.9 243.336ZM705.155 243.336C704.179 243.336 703.271 243.084 702.431 242.58C701.599 242.068 700.923 241.352 700.403 240.432C699.891 239.504 699.635 238.416 699.635 237.168C699.635 235.848 699.891 234.732 700.403 233.82C700.923 232.9 701.599 232.204 702.431 231.732C703.271 231.26 704.179 231.024 705.155 231.024C705.915 231.024 706.583 231.148 707.159 231.396C707.743 231.636 708.239 231.964 708.647 232.38C709.055 232.788 709.375 233.244 709.607 233.748C709.839 234.252 709.987 234.76 710.051 235.272L707.195 235.344C707.067 234.832 706.827 234.408 706.475 234.072C706.131 233.736 705.683 233.568 705.131 233.568C704.675 233.568 704.247 233.696 703.847 233.952C703.447 234.2 703.119 234.588 702.863 235.116C702.615 235.644 702.491 236.328 702.491 237.168C702.491 237.968 702.607 238.636 702.839 239.172C703.079 239.7 703.399 240.1 703.799 240.372C704.199 240.636 704.643 240.768 705.131 240.768C705.851 240.768 706.375 240.596 706.703 240.252C707.031 239.9 707.195 239.432 707.195 238.848H710.051C710.051 239.672 709.863 240.424 709.487 241.104C709.111 241.784 708.559 242.328 707.831 242.736C707.103 243.136 706.211 243.336 705.155 243.336ZM714.498 229.224C713.946 229.224 713.514 229.08 713.202 228.792C712.898 228.496 712.746 228.088 712.746 227.568C712.746 227.064 712.898 226.664 713.202 226.368C713.514 226.064 713.946 225.912 714.498 225.912C715.042 225.912 715.47 226.064 715.782 226.368C716.094 226.664 716.25 227.064 716.25 227.568C716.25 228.088 716.094 228.496 715.782 228.792C715.47 229.08 715.042 229.224 714.498 229.224ZM713.082 243V231.312H715.914V243H713.082ZM720.117 243V226.536H722.949V243H720.117ZM728.486 229.224C727.934 229.224 727.502 229.08 727.19 228.792C726.886 228.496 726.734 228.088 726.734 227.568C726.734 227.064 726.886 226.664 727.19 226.368C727.502 226.064 727.934 225.912 728.486 225.912C729.03 225.912 729.458 226.064 729.77 226.368C730.082 226.664 730.238 227.064 730.238 227.568C730.238 228.088 730.082 228.496 729.77 228.792C729.458 229.08 729.03 229.224 728.486 229.224ZM727.07 243V231.312H729.902V243H727.07ZM738.041 243.336C737.353 243.336 736.721 243.208 736.145 242.952C735.577 242.696 735.121 242.304 734.777 241.776C734.441 241.248 734.273 240.576 734.273 239.76V228.264H737.105V239.664C737.105 240.624 737.561 241.104 738.473 241.104C738.753 241.104 739.033 241.072 739.313 241.008C739.593 240.944 739.913 240.848 740.273 240.72L740.681 242.712C740.233 242.888 739.797 243.036 739.373 243.156C738.949 243.276 738.505 243.336 738.041 243.336ZM732.641 233.232V231.36H740.273V233.232H732.641ZM750.389 243L750.029 240.168V235.488C750.029 234.672 749.861 234.068 749.525 233.676C749.197 233.284 748.637 233.088 747.845 233.088C747.389 233.088 746.993 233.156 746.657 233.292C746.321 233.428 746.061 233.624 745.877 233.88C745.701 234.128 745.613 234.432 745.613 234.792H742.517C742.517 233.912 742.729 233.196 743.153 232.644C743.577 232.084 744.185 231.676 744.977 231.42C745.777 231.156 746.733 231.024 747.845 231.024C748.853 231.024 749.733 231.188 750.485 231.516C751.237 231.836 751.821 232.332 752.237 233.004C752.653 233.676 752.861 234.536 752.861 235.584V243H750.389ZM746.573 243.336C745.573 243.336 744.737 243.164 744.065 242.82C743.401 242.468 742.901 242.008 742.565 241.44C742.229 240.872 742.061 240.256 742.061 239.592C742.061 238.856 742.253 238.24 742.637 237.744C743.029 237.24 743.581 236.864 744.293 236.616C745.005 236.36 745.845 236.232 746.813 236.232C747.445 236.232 748.041 236.28 748.601 236.376C749.169 236.472 749.733 236.6 750.293 236.76V238.416C749.853 238.272 749.373 238.16 748.853 238.08C748.333 238 747.845 237.96 747.389 237.96C746.717 237.96 746.165 238.084 745.733 238.332C745.301 238.58 745.085 239 745.085 239.592C745.085 240.024 745.261 240.396 745.613 240.708C745.965 241.02 746.525 241.176 747.293 241.176C747.877 241.176 748.373 241.048 748.781 240.792C749.189 240.536 749.497 240.216 749.705 239.832C749.921 239.448 750.029 239.064 750.029 238.68H750.701C750.701 239.52 750.545 240.296 750.233 241.008C749.921 241.712 749.457 242.276 748.841 242.7C748.233 243.124 747.477 243.336 746.573 243.336ZM760.348 243.336C759.66 243.336 759.028 243.208 758.452 242.952C757.884 242.696 757.428 242.304 757.084 241.776C756.748 241.248 756.58 240.576 756.58 239.76V228.264H759.412V239.664C759.412 240.624 759.868 241.104 760.78 241.104C761.06 241.104 761.34 241.072 761.62 241.008C761.9 240.944 762.22 240.848 762.58 240.72L762.988 242.712C762.54 242.888 762.104 243.036 761.68 243.156C761.256 243.276 760.812 243.336 760.348 243.336ZM754.948 233.232V231.36H762.58V233.232H754.948ZM769.625 243.336C768.633 243.336 767.725 243.08 766.901 242.568C766.077 242.056 765.417 241.34 764.921 240.42C764.425 239.492 764.177 238.408 764.177 237.168C764.177 235.888 764.421 234.788 764.909 233.868C765.405 232.948 766.065 232.244 766.889 231.756C767.713 231.268 768.625 231.024 769.625 231.024C770.553 231.024 771.353 231.212 772.025 231.588C772.705 231.956 773.249 232.46 773.657 233.1C774.073 233.732 774.353 234.448 774.497 235.248C774.641 236.048 774.649 236.872 774.521 237.72H766.433V236.184H772.517L771.965 236.544C771.989 236.168 771.969 235.788 771.905 235.404C771.849 235.02 771.737 234.668 771.569 234.348C771.401 234.028 771.161 233.772 770.849 233.58C770.545 233.38 770.153 233.28 769.673 233.28C769.097 233.28 768.609 233.424 768.209 233.712C767.809 234 767.505 234.392 767.297 234.888C767.089 235.384 766.985 235.944 766.985 236.568V237.696C766.985 238.352 767.081 238.932 767.273 239.436C767.473 239.94 767.765 240.336 768.149 240.624C768.541 240.912 769.033 241.056 769.625 241.056C770.177 241.056 770.641 240.928 771.017 240.672C771.393 240.416 771.633 240.032 771.737 239.52H774.593C774.473 240.272 774.189 240.936 773.741 241.512C773.301 242.08 772.729 242.528 772.025 242.856C771.321 243.176 770.521 243.336 769.625 243.336ZM798.694 243V236.184C798.694 235.32 798.486 234.668 798.07 234.228C797.654 233.788 797.11 233.568 796.438 233.568C795.59 233.568 794.922 233.912 794.434 234.6C793.946 235.288 793.702 236.328 793.702 237.72H792.526C792.526 236.496 792.638 235.46 792.862 234.612C793.094 233.756 793.418 233.068 793.834 232.548C794.258 232.02 794.754 231.636 795.322 231.396C795.89 231.148 796.518 231.024 797.206 231.024C798.158 231.024 798.954 231.24 799.594 231.672C800.242 232.096 800.73 232.696 801.058 233.472C801.386 234.248 801.55 235.152 801.55 236.184V243H798.694ZM782.878 243V231.36H785.35L785.662 233.352C786.046 232.576 786.554 231.996 787.186 231.612C787.818 231.22 788.542 231.024 789.358 231.024C790.318 231.024 791.118 231.24 791.758 231.672C792.406 232.096 792.89 232.696 793.21 233.472C793.538 234.248 793.702 235.152 793.702 236.184V243H790.87V236.184C790.87 235.32 790.662 234.668 790.246 234.228C789.83 233.788 789.286 233.568 788.614 233.568C788.046 233.568 787.542 233.724 787.102 234.036C786.67 234.348 786.33 234.82 786.082 235.452C785.834 236.076 785.71 236.856 785.71 237.792V243H782.878ZM809.643 243.336C808.579 243.336 807.615 243.108 806.751 242.652C805.895 242.196 805.215 241.516 804.711 240.612C804.207 239.7 803.955 238.56 803.955 237.192C803.955 235.8 804.207 234.648 804.711 233.736C805.215 232.824 805.895 232.144 806.751 231.696C807.615 231.248 808.579 231.024 809.643 231.024C810.691 231.024 811.639 231.248 812.487 231.696C813.343 232.144 814.023 232.824 814.527 233.736C815.031 234.648 815.283 235.8 815.283 237.192C815.283 238.56 815.031 239.7 814.527 240.612C814.023 241.516 813.343 242.196 812.487 242.652C811.639 243.108 810.691 243.336 809.643 243.336ZM809.547 240.864C810.107 240.864 810.603 240.728 811.035 240.456C811.475 240.176 811.819 239.764 812.067 239.22C812.323 238.676 812.451 238 812.451 237.192C812.451 235.96 812.207 235.032 811.719 234.408C811.239 233.784 810.579 233.472 809.739 233.472C809.171 233.472 808.667 233.612 808.227 233.892C807.787 234.164 807.439 234.576 807.183 235.128C806.935 235.68 806.811 236.368 806.811 237.192C806.811 238.408 807.055 239.324 807.543 239.94C808.039 240.556 808.707 240.864 809.547 240.864ZM818.053 243V231.312H820.885V243H818.053ZM820.189 237.888C820.189 236.36 820.361 235.096 820.705 234.096C821.049 233.096 821.509 232.356 822.085 231.876C822.669 231.388 823.317 231.144 824.029 231.144C824.221 231.144 824.401 231.156 824.569 231.18C824.745 231.204 824.917 231.24 825.085 231.288L825.037 234.12C824.829 234.072 824.605 234.032 824.365 234C824.125 233.968 823.909 233.952 823.717 233.952C823.093 233.952 822.569 234.104 822.145 234.408C821.729 234.704 821.413 235.144 821.197 235.728C820.989 236.312 820.885 237.032 820.885 237.888H820.189ZM831.219 243.336C830.227 243.336 829.319 243.08 828.495 242.568C827.671 242.056 827.011 241.34 826.515 240.42C826.019 239.492 825.771 238.408 825.771 237.168C825.771 235.888 826.015 234.788 826.503 233.868C826.999 232.948 827.659 232.244 828.483 231.756C829.307 231.268 830.219 231.024 831.219 231.024C832.147 231.024 832.947 231.212 833.619 231.588C834.299 231.956 834.843 232.46 835.251 233.1C835.667 233.732 835.947 234.448 836.091 235.248C836.235 236.048 836.243 236.872 836.115 237.72H828.027V236.184H834.111L833.559 236.544C833.583 236.168 833.563 235.788 833.499 235.404C833.443 235.02 833.331 234.668 833.163 234.348C832.995 234.028 832.755 233.772 832.443 233.58C832.139 233.38 831.747 233.28 831.267 233.28C830.691 233.28 830.203 233.424 829.803 233.712C829.403 234 829.099 234.392 828.891 234.888C828.683 235.384 828.579 235.944 828.579 236.568V237.696C828.579 238.352 828.675 238.932 828.867 239.436C829.067 239.94 829.359 240.336 829.743 240.624C830.135 240.912 830.627 241.056 831.219 241.056C831.771 241.056 832.235 240.928 832.611 240.672C832.987 240.416 833.227 240.032 833.331 239.52H836.187C836.067 240.272 835.783 240.936 835.335 241.512C834.895 242.08 834.323 242.528 833.619 242.856C832.915 243.176 832.115 243.336 831.219 243.336ZM848.816 243.336C847.824 243.336 846.916 243.08 846.092 242.568C845.268 242.056 844.608 241.34 844.112 240.42C843.616 239.492 843.368 238.408 843.368 237.168C843.368 235.888 843.612 234.788 844.1 233.868C844.596 232.948 845.256 232.244 846.08 231.756C846.904 231.268 847.816 231.024 848.816 231.024C849.744 231.024 850.544 231.212 851.216 231.588C851.896 231.956 852.44 232.46 852.848 233.1C853.264 233.732 853.544 234.448 853.688 235.248C853.832 236.048 853.84 236.872 853.712 237.72H845.624V236.184H851.708L851.156 236.544C851.18 236.168 851.16 235.788 851.096 235.404C851.04 235.02 850.928 234.668 850.76 234.348C850.592 234.028 850.352 233.772 850.04 233.58C849.736 233.38 849.344 233.28 848.864 233.28C848.288 233.28 847.8 233.424 847.4 233.712C847 234 846.696 234.392 846.488 234.888C846.28 235.384 846.176 235.944 846.176 236.568V237.696C846.176 238.352 846.272 238.932 846.464 239.436C846.664 239.94 846.956 240.336 847.34 240.624C847.732 240.912 848.224 241.056 848.816 241.056C849.368 241.056 849.832 240.928 850.208 240.672C850.584 240.416 850.824 240.032 850.928 239.52H853.784C853.664 240.272 853.38 240.936 852.932 241.512C852.492 242.08 851.92 242.528 851.216 242.856C850.512 243.176 849.712 243.336 848.816 243.336ZM857.27 243V229.944C857.27 229.104 857.434 228.42 857.762 227.892C858.09 227.364 858.522 226.976 859.058 226.728C859.602 226.472 860.19 226.344 860.822 226.344C861.214 226.344 861.618 226.372 862.034 226.428C862.45 226.484 862.854 226.552 863.246 226.632L862.694 228.816C862.494 228.744 862.286 228.688 862.07 228.648C861.854 228.6 861.646 228.576 861.446 228.576C861.222 228.576 861.01 228.62 860.81 228.708C860.61 228.788 860.446 228.932 860.318 229.14C860.19 229.348 860.126 229.632 860.126 229.992V243H857.27ZM855.542 233.232V231.36H862.262V233.232H855.542ZM865.483 243V229.944C865.483 229.104 865.647 228.42 865.975 227.892C866.303 227.364 866.735 226.976 867.271 226.728C867.815 226.472 868.403 226.344 869.035 226.344C869.427 226.344 869.831 226.372 870.247 226.428C870.663 226.484 871.067 226.552 871.459 226.632L870.907 228.816C870.707 228.744 870.499 228.688 870.283 228.648C870.067 228.6 869.859 228.576 869.659 228.576C869.435 228.576 869.223 228.62 869.023 228.708C868.823 228.788 868.659 228.932 868.531 229.14C868.403 229.348 868.339 229.632 868.339 229.992V243H865.483ZM863.755 233.232V231.36H870.475V233.232H863.755ZM875.287 229.224C874.735 229.224 874.303 229.08 873.991 228.792C873.687 228.496 873.535 228.088 873.535 227.568C873.535 227.064 873.687 226.664 873.991 226.368C874.303 226.064 874.735 225.912 875.287 225.912C875.831 225.912 876.259 226.064 876.571 226.368C876.883 226.664 877.039 227.064 877.039 227.568C877.039 228.088 876.883 228.496 876.571 228.792C876.259 229.08 875.831 229.224 875.287 229.224ZM873.871 243V231.312H876.703V243H873.871ZM885.338 243.336C884.362 243.336 883.454 243.084 882.614 242.58C881.782 242.068 881.106 241.352 880.586 240.432C880.074 239.504 879.818 238.416 879.818 237.168C879.818 235.848 880.074 234.732 880.586 233.82C881.106 232.9 881.782 232.204 882.614 231.732C883.454 231.26 884.362 231.024 885.338 231.024C886.098 231.024 886.766 231.148 887.342 231.396C887.926 231.636 888.422 231.964 888.83 232.38C889.238 232.788 889.558 233.244 889.79 233.748C890.022 234.252 890.17 234.76 890.234 235.272L887.378 235.344C887.25 234.832 887.01 234.408 886.658 234.072C886.314 233.736 885.866 233.568 885.314 233.568C884.858 233.568 884.43 233.696 884.03 233.952C883.63 234.2 883.302 234.588 883.046 235.116C882.798 235.644 882.674 236.328 882.674 237.168C882.674 237.968 882.79 238.636 883.022 239.172C883.262 239.7 883.582 240.1 883.982 240.372C884.382 240.636 884.826 240.768 885.314 240.768C886.034 240.768 886.558 240.596 886.886 240.252C887.214 239.9 887.378 239.432 887.378 238.848H890.234C890.234 239.672 890.046 240.424 889.67 241.104C889.294 241.784 888.742 242.328 888.014 242.736C887.286 243.136 886.394 243.336 885.338 243.336ZM894.681 229.224C894.129 229.224 893.697 229.08 893.385 228.792C893.081 228.496 892.929 228.088 892.929 227.568C892.929 227.064 893.081 226.664 893.385 226.368C893.697 226.064 894.129 225.912 894.681 225.912C895.225 225.912 895.653 226.064 895.965 226.368C896.277 226.664 896.433 227.064 896.433 227.568C896.433 228.088 896.277 228.496 895.965 228.792C895.653 229.08 895.225 229.224 894.681 229.224ZM893.265 243V231.312H896.097V243H893.265ZM904.644 243.336C903.652 243.336 902.744 243.08 901.92 242.568C901.096 242.056 900.436 241.34 899.94 240.42C899.444 239.492 899.196 238.408 899.196 237.168C899.196 235.888 899.44 234.788 899.928 233.868C900.424 232.948 901.084 232.244 901.908 231.756C902.732 231.268 903.644 231.024 904.644 231.024C905.572 231.024 906.372 231.212 907.044 231.588C907.724 231.956 908.268 232.46 908.676 233.1C909.092 233.732 909.372 234.448 909.516 235.248C909.66 236.048 909.668 236.872 909.54 237.72H901.452V236.184H907.536L906.984 236.544C907.008 236.168 906.988 235.788 906.924 235.404C906.868 235.02 906.756 234.668 906.588 234.348C906.42 234.028 906.18 233.772 905.868 233.58C905.564 233.38 905.172 233.28 904.692 233.28C904.116 233.28 903.628 233.424 903.228 233.712C902.828 234 902.524 234.392 902.316 234.888C902.108 235.384 902.004 235.944 902.004 236.568V237.696C902.004 238.352 902.1 238.932 902.292 239.436C902.492 239.94 902.784 240.336 903.168 240.624C903.56 240.912 904.052 241.056 904.644 241.056C905.196 241.056 905.66 240.928 906.036 240.672C906.412 240.416 906.652 240.032 906.756 239.52H909.612C909.492 240.272 909.208 240.936 908.76 241.512C908.32 242.08 907.748 242.528 907.044 242.856C906.34 243.176 905.54 243.336 904.644 243.336ZM920.419 243V236.184C920.419 235.32 920.211 234.668 919.795 234.228C919.379 233.788 918.835 233.568 918.163 233.568C917.595 233.568 917.091 233.724 916.651 234.036C916.219 234.348 915.879 234.82 915.631 235.452C915.383 236.076 915.259 236.856 915.259 237.792H914.323C914.323 236.28 914.511 235.024 914.887 234.024C915.263 233.016 915.795 232.264 916.483 231.768C917.171 231.272 917.979 231.024 918.907 231.024C919.867 231.024 920.667 231.24 921.307 231.672C921.955 232.096 922.439 232.696 922.759 233.472C923.087 234.248 923.251 235.152 923.251 236.184V243H920.419ZM912.427 243V231.36H914.899L915.259 233.664V243H912.427ZM930.716 243.336C930.028 243.336 929.396 243.208 928.82 242.952C928.252 242.696 927.796 242.304 927.452 241.776C927.116 241.248 926.948 240.576 926.948 239.76V228.264H929.78V239.664C929.78 240.624 930.236 241.104 931.148 241.104C931.428 241.104 931.708 241.072 931.988 241.008C932.268 240.944 932.588 240.848 932.948 240.72L933.356 242.712C932.908 242.888 932.472 243.036 932.048 243.156C931.624 243.276 931.18 243.336 930.716 243.336ZM925.316 233.232V231.36H932.948V233.232H925.316ZM941.791 243V229.944C941.791 229.104 941.955 228.42 942.283 227.892C942.611 227.364 943.043 226.976 943.579 226.728C944.123 226.472 944.711 226.344 945.343 226.344C945.735 226.344 946.139 226.372 946.555 226.428C946.971 226.484 947.375 226.552 947.767 226.632L947.215 228.816C947.015 228.744 946.807 228.688 946.591 228.648C946.375 228.6 946.167 228.576 945.967 228.576C945.743 228.576 945.531 228.62 945.331 228.708C945.131 228.788 944.967 228.932 944.839 229.14C944.711 229.348 944.647 229.632 944.647 229.992V243H941.791ZM940.063 233.232V231.36H946.783V233.232H940.063ZM953.915 243.336C952.851 243.336 951.887 243.108 951.023 242.652C950.167 242.196 949.487 241.516 948.983 240.612C948.479 239.7 948.227 238.56 948.227 237.192C948.227 235.8 948.479 234.648 948.983 233.736C949.487 232.824 950.167 232.144 951.023 231.696C951.887 231.248 952.851 231.024 953.915 231.024C954.963 231.024 955.911 231.248 956.759 231.696C957.615 232.144 958.295 232.824 958.799 233.736C959.303 234.648 959.555 235.8 959.555 237.192C959.555 238.56 959.303 239.7 958.799 240.612C958.295 241.516 957.615 242.196 956.759 242.652C955.911 243.108 954.963 243.336 953.915 243.336ZM953.819 240.864C954.379 240.864 954.875 240.728 955.307 240.456C955.747 240.176 956.091 239.764 956.339 239.22C956.595 238.676 956.723 238 956.723 237.192C956.723 235.96 956.479 235.032 955.991 234.408C955.511 233.784 954.851 233.472 954.011 233.472C953.443 233.472 952.939 233.612 952.499 233.892C952.059 234.164 951.711 234.576 951.455 235.128C951.207 235.68 951.083 236.368 951.083 237.192C951.083 238.408 951.327 239.324 951.815 239.94C952.311 240.556 952.979 240.864 953.819 240.864ZM966.909 243.336C965.845 243.336 964.881 243.108 964.017 242.652C963.161 242.196 962.481 241.516 961.977 240.612C961.473 239.7 961.221 238.56 961.221 237.192C961.221 235.8 961.473 234.648 961.977 233.736C962.481 232.824 963.161 232.144 964.017 231.696C964.881 231.248 965.845 231.024 966.909 231.024C967.957 231.024 968.905 231.248 969.753 231.696C970.609 232.144 971.289 232.824 971.793 233.736C972.297 234.648 972.549 235.8 972.549 237.192C972.549 238.56 972.297 239.7 971.793 240.612C971.289 241.516 970.609 242.196 969.753 242.652C968.905 243.108 967.957 243.336 966.909 243.336ZM966.813 240.864C967.373 240.864 967.869 240.728 968.301 240.456C968.741 240.176 969.085 239.764 969.333 239.22C969.589 238.676 969.717 238 969.717 237.192C969.717 235.96 969.473 235.032 968.985 234.408C968.505 233.784 967.845 233.472 967.005 233.472C966.437 233.472 965.933 233.612 965.493 233.892C965.053 234.164 964.705 234.576 964.449 235.128C964.201 235.68 964.077 236.368 964.077 237.192C964.077 238.408 964.321 239.324 964.809 239.94C965.305 240.556 965.973 240.864 966.813 240.864ZM979.615 243.336C978.639 243.336 977.747 243.08 976.939 242.568C976.139 242.048 975.499 241.324 975.019 240.396C974.547 239.46 974.311 238.368 974.311 237.12C974.311 235.888 974.539 234.816 974.995 233.904C975.459 232.984 976.075 232.276 976.843 231.78C977.619 231.276 978.479 231.024 979.423 231.024C980.287 231.024 981.035 231.232 981.667 231.648C982.299 232.056 982.783 232.664 983.119 233.472C983.455 234.28 983.623 235.272 983.623 236.448H982.735C982.735 235.84 982.611 235.324 982.363 234.9C982.115 234.468 981.787 234.14 981.379 233.916C980.979 233.684 980.543 233.568 980.071 233.568C979.503 233.568 978.999 233.716 978.559 234.012C978.127 234.308 977.787 234.724 977.539 235.26C977.291 235.788 977.167 236.408 977.167 237.12C977.167 237.856 977.291 238.496 977.539 239.04C977.787 239.584 978.127 240.008 978.559 240.312C978.999 240.616 979.495 240.768 980.047 240.768C980.495 240.768 980.923 240.648 981.331 240.408C981.747 240.16 982.083 239.816 982.339 239.376C982.603 238.936 982.735 238.424 982.735 237.84H983.623C983.623 239.064 983.439 240.084 983.071 240.9C982.711 241.708 982.227 242.316 981.619 242.724C981.011 243.132 980.343 243.336 979.615 243.336ZM983.263 243L982.735 240.12V226.536H985.591V243H983.263ZM480.084 284.336C479.02 284.336 478.056 284.108 477.192 283.652C476.336 283.196 475.656 282.516 475.152 281.612C474.648 280.7 474.396 279.56 474.396 278.192C474.396 276.8 474.648 275.648 475.152 274.736C475.656 273.824 476.336 273.144 477.192 272.696C478.056 272.248 479.02 272.024 480.084 272.024C481.132 272.024 482.08 272.248 482.928 272.696C483.784 273.144 484.464 273.824 484.968 274.736C485.472 275.648 485.724 276.8 485.724 278.192C485.724 279.56 485.472 280.7 484.968 281.612C484.464 282.516 483.784 283.196 482.928 283.652C482.08 284.108 481.132 284.336 480.084 284.336ZM479.988 281.864C480.548 281.864 481.044 281.728 481.476 281.456C481.916 281.176 482.26 280.764 482.508 280.22C482.764 279.676 482.892 279 482.892 278.192C482.892 276.96 482.648 276.032 482.16 275.408C481.68 274.784 481.02 274.472 480.18 274.472C479.612 274.472 479.108 274.612 478.668 274.892C478.228 275.164 477.88 275.576 477.624 276.128C477.376 276.68 477.252 277.368 477.252 278.192C477.252 279.408 477.496 280.324 477.984 280.94C478.48 281.556 479.148 281.864 479.988 281.864ZM488.494 284V272.312H491.326V284H488.494ZM490.63 278.888C490.63 277.36 490.802 276.096 491.146 275.096C491.49 274.096 491.95 273.356 492.526 272.876C493.11 272.388 493.758 272.144 494.47 272.144C494.662 272.144 494.842 272.156 495.01 272.18C495.186 272.204 495.358 272.24 495.526 272.288L495.478 275.12C495.27 275.072 495.046 275.032 494.806 275C494.566 274.968 494.35 274.952 494.158 274.952C493.534 274.952 493.01 275.104 492.586 275.408C492.17 275.704 491.854 276.144 491.638 276.728C491.43 277.312 491.326 278.032 491.326 278.888H490.63ZM501.612 284.336C500.636 284.336 499.744 284.08 498.936 283.568C498.136 283.048 497.496 282.324 497.016 281.396C496.544 280.46 496.308 279.368 496.308 278.12C496.308 276.888 496.536 275.816 496.992 274.904C497.456 273.984 498.072 273.276 498.84 272.78C499.616 272.276 500.476 272.024 501.42 272.024C502.284 272.024 503.032 272.232 503.664 272.648C504.296 273.056 504.78 273.664 505.116 274.472C505.452 275.28 505.62 276.272 505.62 277.448H504.732C504.732 276.84 504.608 276.324 504.36 275.9C504.112 275.468 503.784 275.14 503.376 274.916C502.976 274.684 502.54 274.568 502.068 274.568C501.5 274.568 500.996 274.716 500.556 275.012C500.124 275.308 499.784 275.724 499.536 276.26C499.288 276.788 499.164 277.408 499.164 278.12C499.164 278.856 499.288 279.496 499.536 280.04C499.784 280.584 500.124 281.008 500.556 281.312C500.996 281.616 501.492 281.768 502.044 281.768C502.492 281.768 502.92 281.648 503.328 281.408C503.744 281.16 504.08 280.816 504.336 280.376C504.6 279.936 504.732 279.424 504.732 278.84H505.62C505.62 280.064 505.436 281.084 505.068 281.9C504.708 282.708 504.224 283.316 503.616 283.724C503.008 284.132 502.34 284.336 501.612 284.336ZM505.26 284L504.732 281.12V267.536H507.588V284H505.26ZM515.802 284.336C514.81 284.336 513.902 284.08 513.078 283.568C512.254 283.056 511.594 282.34 511.098 281.42C510.602 280.492 510.354 279.408 510.354 278.168C510.354 276.888 510.598 275.788 511.086 274.868C511.582 273.948 512.242 273.244 513.066 272.756C513.89 272.268 514.802 272.024 515.802 272.024C516.73 272.024 517.53 272.212 518.202 272.588C518.882 272.956 519.426 273.46 519.834 274.1C520.25 274.732 520.53 275.448 520.674 276.248C520.818 277.048 520.826 277.872 520.698 278.72H512.61V277.184H518.694L518.142 277.544C518.166 277.168 518.146 276.788 518.082 276.404C518.026 276.02 517.914 275.668 517.746 275.348C517.578 275.028 517.338 274.772 517.026 274.58C516.722 274.38 516.33 274.28 515.85 274.28C515.274 274.28 514.786 274.424 514.386 274.712C513.986 275 513.682 275.392 513.474 275.888C513.266 276.384 513.162 276.944 513.162 277.568V278.696C513.162 279.352 513.258 279.932 513.45 280.436C513.65 280.94 513.942 281.336 514.326 281.624C514.718 281.912 515.21 282.056 515.802 282.056C516.354 282.056 516.818 281.928 517.194 281.672C517.57 281.416 517.81 281.032 517.914 280.52H520.77C520.65 281.272 520.366 281.936 519.918 282.512C519.478 283.08 518.906 283.528 518.202 283.856C517.498 284.176 516.698 284.336 515.802 284.336ZM523.584 284V272.312H526.416V284H523.584ZM525.72 278.888C525.72 277.36 525.892 276.096 526.236 275.096C526.58 274.096 527.04 273.356 527.616 272.876C528.2 272.388 528.848 272.144 529.56 272.144C529.752 272.144 529.932 272.156 530.1 272.18C530.276 272.204 530.448 272.24 530.616 272.288L530.568 275.12C530.36 275.072 530.136 275.032 529.896 275C529.656 274.968 529.44 274.952 529.248 274.952C528.624 274.952 528.1 275.104 527.676 275.408C527.26 275.704 526.944 276.144 526.728 276.728C526.52 277.312 526.416 278.032 526.416 278.888H525.72ZM534.062 270.224C533.51 270.224 533.078 270.08 532.766 269.792C532.462 269.496 532.31 269.088 532.31 268.568C532.31 268.064 532.462 267.664 532.766 267.368C533.078 267.064 533.51 266.912 534.062 266.912C534.606 266.912 535.034 267.064 535.346 267.368C535.658 267.664 535.814 268.064 535.814 268.568C535.814 269.088 535.658 269.496 535.346 269.792C535.034 270.08 534.606 270.224 534.062 270.224ZM532.646 284V272.312H535.478V284H532.646ZM547.673 284V277.184C547.673 276.32 547.465 275.668 547.049 275.228C546.633 274.788 546.089 274.568 545.417 274.568C544.849 274.568 544.345 274.724 543.905 275.036C543.473 275.348 543.133 275.82 542.885 276.452C542.637 277.076 542.513 277.856 542.513 278.792H541.577C541.577 277.28 541.765 276.024 542.141 275.024C542.517 274.016 543.049 273.264 543.737 272.768C544.425 272.272 545.233 272.024 546.161 272.024C547.121 272.024 547.921 272.24 548.561 272.672C549.209 273.096 549.693 273.696 550.013 274.472C550.341 275.248 550.505 276.152 550.505 277.184V284H547.673ZM539.681 284V272.36H542.153L542.513 274.664V284H539.681ZM558.522 290.024C557.186 290.024 556.042 289.84 555.09 289.472C554.146 289.104 553.422 288.62 552.918 288.02C552.414 287.428 552.162 286.784 552.162 286.088C552.162 285.264 552.462 284.624 553.062 284.168C553.662 283.72 554.418 283.496 555.33 283.496L557.394 284.264C556.61 284.264 556.006 284.412 555.582 284.708C555.158 285.004 554.946 285.416 554.946 285.944C554.946 286.496 555.262 286.936 555.894 287.264C556.534 287.6 557.41 287.768 558.522 287.768C559.33 287.768 560.03 287.648 560.622 287.408C561.214 287.168 561.67 286.856 561.99 286.472C562.318 286.088 562.482 285.68 562.482 285.248C562.482 284.96 562.386 284.724 562.194 284.54C562.002 284.356 561.706 284.264 561.306 284.264H557.394C556.61 284.264 555.894 284.14 555.246 283.892C554.606 283.636 554.094 283.296 553.71 282.872C553.334 282.44 553.146 281.96 553.146 281.432C553.146 280.944 553.282 280.524 553.554 280.172C553.826 279.812 554.194 279.536 554.658 279.344C555.13 279.152 555.658 279.056 556.242 279.056L556.962 279.992C556.73 279.992 556.506 280.04 556.29 280.136C556.082 280.224 555.91 280.356 555.774 280.532C555.638 280.708 555.57 280.928 555.57 281.192C555.57 281.512 555.706 281.772 555.978 281.972C556.25 282.172 556.722 282.272 557.394 282.272H561.306C562.546 282.272 563.518 282.5 564.222 282.956C564.934 283.412 565.29 284.112 565.29 285.056C565.29 285.896 565.014 286.692 564.462 287.444C563.91 288.204 563.126 288.824 562.11 289.304C561.102 289.784 559.906 290.024 558.522 290.024ZM558.666 280.4C557.746 280.4 556.902 280.228 556.134 279.884C555.374 279.532 554.766 279.044 554.31 278.42C553.854 277.796 553.626 277.064 553.626 276.224C553.626 275.368 553.854 274.624 554.31 273.992C554.766 273.36 555.374 272.876 556.134 272.54C556.902 272.196 557.746 272.024 558.666 272.024C559.562 272.024 560.39 272.196 561.15 272.54C561.91 272.876 562.522 273.36 562.986 273.992C563.45 274.624 563.682 275.368 563.682 276.224C563.682 277.064 563.45 277.796 562.986 278.42C562.522 279.044 561.91 279.532 561.15 279.884C560.39 280.228 559.562 280.4 558.666 280.4ZM558.69 278.432C559.426 278.432 559.978 278.22 560.346 277.796C560.714 277.372 560.898 276.848 560.898 276.224C560.898 275.552 560.71 275.012 560.334 274.604C559.966 274.196 559.41 273.992 558.666 273.992C557.946 273.992 557.394 274.196 557.01 274.604C556.626 275.012 556.434 275.552 556.434 276.224C556.434 276.848 556.626 277.372 557.01 277.796C557.402 278.22 557.962 278.432 558.69 278.432ZM562.794 273.896L561.498 273.152C561.498 272.456 561.658 271.848 561.978 271.328C562.306 270.8 562.738 270.392 563.274 270.104C563.818 269.816 564.418 269.672 565.074 269.672L564.93 272.384C564.234 272.384 563.702 272.508 563.334 272.756C562.974 272.996 562.794 273.376 562.794 273.896ZM570.929 272.36H573.881L576.401 281.192H576.113L578.489 272.984H581.057L583.433 281.216H583.145L585.665 272.36H588.497L584.657 284H581.873L579.497 276.272H579.929L577.601 284H574.793L570.929 272.36ZM598.453 284V277.184C598.453 276.32 598.245 275.668 597.829 275.228C597.413 274.788 596.869 274.568 596.197 274.568C595.629 274.568 595.125 274.724 594.685 275.036C594.253 275.348 593.913 275.82 593.665 276.452C593.417 277.076 593.293 277.856 593.293 278.792H592.357C592.357 277.28 592.545 276.024 592.921 275.024C593.297 274.016 593.829 273.264 594.517 272.768C595.205 272.272 596.013 272.024 596.941 272.024C597.901 272.024 598.701 272.24 599.341 272.672C599.989 273.096 600.473 273.696 600.793 274.472C601.121 275.248 601.285 276.152 601.285 277.184V284H598.453ZM590.461 284V267.536H593.293V284H590.461ZM606.47 270.224C605.918 270.224 605.486 270.08 605.174 269.792C604.87 269.496 604.718 269.088 604.718 268.568C604.718 268.064 604.87 267.664 605.174 267.368C605.486 267.064 605.918 266.912 606.47 266.912C607.014 266.912 607.442 267.064 607.754 267.368C608.066 267.664 608.222 268.064 608.222 268.568C608.222 269.088 608.066 269.496 607.754 269.792C607.442 270.08 607.014 270.224 606.47 270.224ZM605.054 284V272.312H607.886V284H605.054ZM612.089 284V267.536H614.921V284H612.089ZM623.146 284.336C622.154 284.336 621.246 284.08 620.422 283.568C619.598 283.056 618.938 282.34 618.442 281.42C617.946 280.492 617.698 279.408 617.698 278.168C617.698 276.888 617.942 275.788 618.43 274.868C618.926 273.948 619.586 273.244 620.41 272.756C621.234 272.268 622.146 272.024 623.146 272.024C624.074 272.024 624.874 272.212 625.546 272.588C626.226 272.956 626.77 273.46 627.178 274.1C627.594 274.732 627.874 275.448 628.018 276.248C628.162 277.048 628.17 277.872 628.042 278.72H619.954V277.184H626.038L625.486 277.544C625.51 277.168 625.49 276.788 625.426 276.404C625.37 276.02 625.258 275.668 625.09 275.348C624.922 275.028 624.682 274.772 624.37 274.58C624.066 274.38 623.674 274.28 623.194 274.28C622.618 274.28 622.13 274.424 621.73 274.712C621.33 275 621.026 275.392 620.818 275.888C620.61 276.384 620.506 276.944 620.506 277.568V278.696C620.506 279.352 620.602 279.932 620.794 280.436C620.994 280.94 621.286 281.336 621.67 281.624C622.062 281.912 622.554 282.056 623.146 282.056C623.698 282.056 624.162 281.928 624.538 281.672C624.914 281.416 625.154 281.032 625.258 280.52H628.114C627.994 281.272 627.71 281.936 627.262 282.512C626.822 283.08 626.25 283.528 625.546 283.856C624.842 284.176 624.042 284.336 623.146 284.336ZM640.742 284.336C639.622 284.336 638.658 284.184 637.85 283.88C637.05 283.568 636.434 283.124 636.002 282.548C635.57 281.964 635.35 281.264 635.342 280.448H637.958C637.982 281.024 638.21 281.444 638.642 281.708C639.074 281.972 639.662 282.104 640.406 282.104C640.814 282.104 641.174 282.044 641.486 281.924C641.806 281.804 642.054 281.64 642.23 281.432C642.406 281.224 642.494 280.992 642.494 280.736C642.494 280.408 642.374 280.152 642.134 279.968C641.902 279.776 641.526 279.6 641.006 279.44L638.462 278.528C637.55 278.2 636.85 277.768 636.362 277.232C635.874 276.696 635.63 276.056 635.63 275.312C635.63 274.328 636.074 273.536 636.962 272.936C637.858 272.328 639.054 272.024 640.55 272.024C642.038 272.024 643.186 272.352 643.994 273.008C644.81 273.656 645.23 274.48 645.254 275.48H642.59C642.55 275.096 642.366 274.792 642.038 274.568C641.71 274.344 641.214 274.232 640.55 274.232C639.95 274.232 639.478 274.356 639.134 274.604C638.798 274.844 638.63 275.128 638.63 275.456C638.63 276.008 639.102 276.424 640.046 276.704L642.806 277.736C643.702 278.04 644.398 278.432 644.894 278.912C645.39 279.392 645.638 280 645.638 280.736C645.638 281.352 645.43 281.936 645.014 282.488C644.606 283.032 644.034 283.476 643.298 283.82C642.562 284.164 641.71 284.336 640.742 284.336ZM652.391 284.336C651.703 284.336 651.071 284.208 650.495 283.952C649.927 283.696 649.471 283.304 649.127 282.776C648.791 282.248 648.623 281.576 648.623 280.76V269.264H651.455V280.664C651.455 281.624 651.911 282.104 652.823 282.104C653.103 282.104 653.383 282.072 653.663 282.008C653.943 281.944 654.263 281.848 654.623 281.72L655.031 283.712C654.583 283.888 654.147 284.036 653.723 284.156C653.299 284.276 652.855 284.336 652.391 284.336ZM646.991 274.232V272.36H654.623V274.232H646.991ZM664.739 284L664.379 281.168V276.488C664.379 275.672 664.211 275.068 663.875 274.676C663.547 274.284 662.987 274.088 662.195 274.088C661.739 274.088 661.343 274.156 661.007 274.292C660.671 274.428 660.411 274.624 660.227 274.88C660.051 275.128 659.963 275.432 659.963 275.792H656.867C656.867 274.912 657.079 274.196 657.503 273.644C657.927 273.084 658.535 272.676 659.327 272.42C660.127 272.156 661.083 272.024 662.195 272.024C663.203 272.024 664.083 272.188 664.835 272.516C665.587 272.836 666.171 273.332 666.587 274.004C667.003 274.676 667.211 275.536 667.211 276.584V284H664.739ZM660.923 284.336C659.923 284.336 659.087 284.164 658.415 283.82C657.751 283.468 657.251 283.008 656.915 282.44C656.579 281.872 656.411 281.256 656.411 280.592C656.411 279.856 656.603 279.24 656.987 278.744C657.379 278.24 657.931 277.864 658.643 277.616C659.355 277.36 660.195 277.232 661.163 277.232C661.795 277.232 662.391 277.28 662.951 277.376C663.519 277.472 664.083 277.6 664.643 277.76V279.416C664.203 279.272 663.723 279.16 663.203 279.08C662.683 279 662.195 278.96 661.739 278.96C661.067 278.96 660.515 279.084 660.083 279.332C659.651 279.58 659.435 280 659.435 280.592C659.435 281.024 659.611 281.396 659.963 281.708C660.315 282.02 660.875 282.176 661.643 282.176C662.227 282.176 662.723 282.048 663.131 281.792C663.539 281.536 663.847 281.216 664.055 280.832C664.271 280.448 664.379 280.064 664.379 279.68H665.051C665.051 280.52 664.895 281.296 664.583 282.008C664.271 282.712 663.807 283.276 663.191 283.7C662.583 284.124 661.827 284.336 660.923 284.336ZM678.754 284V277.184C678.754 276.32 678.546 275.668 678.13 275.228C677.714 274.788 677.17 274.568 676.498 274.568C675.93 274.568 675.426 274.724 674.986 275.036C674.554 275.348 674.214 275.82 673.966 276.452C673.718 277.076 673.594 277.856 673.594 278.792H672.658C672.658 277.28 672.846 276.024 673.222 275.024C673.598 274.016 674.13 273.264 674.818 272.768C675.506 272.272 676.314 272.024 677.242 272.024C678.202 272.024 679.002 272.24 679.642 272.672C680.29 273.096 680.774 273.696 681.094 274.472C681.422 275.248 681.586 276.152 681.586 277.184V284H678.754ZM670.762 284V272.36H673.234L673.594 274.664V284H670.762ZM689.412 284.336C688.436 284.336 687.544 284.08 686.736 283.568C685.936 283.048 685.296 282.324 684.816 281.396C684.344 280.46 684.108 279.368 684.108 278.12C684.108 276.888 684.336 275.816 684.792 274.904C685.256 273.984 685.872 273.276 686.64 272.78C687.416 272.276 688.276 272.024 689.22 272.024C690.084 272.024 690.832 272.232 691.464 272.648C692.096 273.056 692.58 273.664 692.916 274.472C693.252 275.28 693.42 276.272 693.42 277.448H692.532C692.532 276.84 692.408 276.324 692.16 275.9C691.912 275.468 691.584 275.14 691.176 274.916C690.776 274.684 690.34 274.568 689.868 274.568C689.3 274.568 688.796 274.716 688.356 275.012C687.924 275.308 687.584 275.724 687.336 276.26C687.088 276.788 686.964 277.408 686.964 278.12C686.964 278.856 687.088 279.496 687.336 280.04C687.584 280.584 687.924 281.008 688.356 281.312C688.796 281.616 689.292 281.768 689.844 281.768C690.292 281.768 690.72 281.648 691.128 281.408C691.544 281.16 691.88 280.816 692.136 280.376C692.4 279.936 692.532 279.424 692.532 278.84H693.42C693.42 280.064 693.236 281.084 692.868 281.9C692.508 282.708 692.024 283.316 691.416 283.724C690.808 284.132 690.14 284.336 689.412 284.336ZM693.06 284L692.532 281.12V267.536H695.388V284H693.06ZM700.914 270.224C700.362 270.224 699.93 270.08 699.618 269.792C699.314 269.496 699.162 269.088 699.162 268.568C699.162 268.064 699.314 267.664 699.618 267.368C699.93 267.064 700.362 266.912 700.914 266.912C701.458 266.912 701.886 267.064 702.198 267.368C702.51 267.664 702.666 268.064 702.666 268.568C702.666 269.088 702.51 269.496 702.198 269.792C701.886 270.08 701.458 270.224 700.914 270.224ZM699.498 284V272.312H702.33V284H699.498ZM714.525 284V277.184C714.525 276.32 714.317 275.668 713.901 275.228C713.485 274.788 712.941 274.568 712.269 274.568C711.701 274.568 711.197 274.724 710.757 275.036C710.325 275.348 709.985 275.82 709.737 276.452C709.489 277.076 709.365 277.856 709.365 278.792H708.429C708.429 277.28 708.617 276.024 708.993 275.024C709.369 274.016 709.901 273.264 710.589 272.768C711.277 272.272 712.085 272.024 713.013 272.024C713.973 272.024 714.773 272.24 715.413 272.672C716.061 273.096 716.545 273.696 716.865 274.472C717.193 275.248 717.357 276.152 717.357 277.184V284H714.525ZM706.533 284V272.36H709.005L709.365 274.664V284H706.533ZM725.374 290.024C724.038 290.024 722.894 289.84 721.942 289.472C720.998 289.104 720.274 288.62 719.77 288.02C719.266 287.428 719.014 286.784 719.014 286.088C719.014 285.264 719.314 284.624 719.914 284.168C720.514 283.72 721.27 283.496 722.182 283.496L724.246 284.264C723.462 284.264 722.858 284.412 722.434 284.708C722.01 285.004 721.798 285.416 721.798 285.944C721.798 286.496 722.114 286.936 722.746 287.264C723.386 287.6 724.262 287.768 725.374 287.768C726.182 287.768 726.882 287.648 727.474 287.408C728.066 287.168 728.522 286.856 728.842 286.472C729.17 286.088 729.334 285.68 729.334 285.248C729.334 284.96 729.238 284.724 729.046 284.54C728.854 284.356 728.558 284.264 728.158 284.264H724.246C723.462 284.264 722.746 284.14 722.098 283.892C721.458 283.636 720.946 283.296 720.562 282.872C720.186 282.44 719.998 281.96 719.998 281.432C719.998 280.944 720.134 280.524 720.406 280.172C720.678 279.812 721.046 279.536 721.51 279.344C721.982 279.152 722.51 279.056 723.094 279.056L723.814 279.992C723.582 279.992 723.358 280.04 723.142 280.136C722.934 280.224 722.762 280.356 722.626 280.532C722.49 280.708 722.422 280.928 722.422 281.192C722.422 281.512 722.558 281.772 722.83 281.972C723.102 282.172 723.574 282.272 724.246 282.272H728.158C729.398 282.272 730.37 282.5 731.074 282.956C731.786 283.412 732.142 284.112 732.142 285.056C732.142 285.896 731.866 286.692 731.314 287.444C730.762 288.204 729.978 288.824 728.962 289.304C727.954 289.784 726.758 290.024 725.374 290.024ZM725.518 280.4C724.598 280.4 723.754 280.228 722.986 279.884C722.226 279.532 721.618 279.044 721.162 278.42C720.706 277.796 720.478 277.064 720.478 276.224C720.478 275.368 720.706 274.624 721.162 273.992C721.618 273.36 722.226 272.876 722.986 272.54C723.754 272.196 724.598 272.024 725.518 272.024C726.414 272.024 727.242 272.196 728.002 272.54C728.762 272.876 729.374 273.36 729.838 273.992C730.302 274.624 730.534 275.368 730.534 276.224C730.534 277.064 730.302 277.796 729.838 278.42C729.374 279.044 728.762 279.532 728.002 279.884C727.242 280.228 726.414 280.4 725.518 280.4ZM725.542 278.432C726.278 278.432 726.83 278.22 727.198 277.796C727.566 277.372 727.75 276.848 727.75 276.224C727.75 275.552 727.562 275.012 727.186 274.604C726.818 274.196 726.262 273.992 725.518 273.992C724.798 273.992 724.246 274.196 723.862 274.604C723.478 275.012 723.286 275.552 723.286 276.224C723.286 276.848 723.478 277.372 723.862 277.796C724.254 278.22 724.814 278.432 725.542 278.432ZM729.646 273.896L728.35 273.152C728.35 272.456 728.51 271.848 728.83 271.328C729.158 270.8 729.59 270.392 730.126 270.104C730.67 269.816 731.27 269.672 731.926 269.672L731.782 272.384C731.086 272.384 730.554 272.508 730.186 272.756C729.826 272.996 729.646 273.376 729.646 273.896ZM744.309 284.336C743.245 284.336 742.281 284.108 741.417 283.652C740.561 283.196 739.881 282.516 739.377 281.612C738.873 280.7 738.621 279.56 738.621 278.192C738.621 276.8 738.873 275.648 739.377 274.736C739.881 273.824 740.561 273.144 741.417 272.696C742.281 272.248 743.245 272.024 744.309 272.024C745.357 272.024 746.305 272.248 747.153 272.696C748.009 273.144 748.689 273.824 749.193 274.736C749.697 275.648 749.949 276.8 749.949 278.192C749.949 279.56 749.697 280.7 749.193 281.612C748.689 282.516 748.009 283.196 747.153 283.652C746.305 284.108 745.357 284.336 744.309 284.336ZM744.213 281.864C744.773 281.864 745.269 281.728 745.701 281.456C746.141 281.176 746.485 280.764 746.733 280.22C746.989 279.676 747.117 279 747.117 278.192C747.117 276.96 746.873 276.032 746.385 275.408C745.905 274.784 745.245 274.472 744.405 274.472C743.837 274.472 743.333 274.612 742.893 274.892C742.453 275.164 742.105 275.576 741.849 276.128C741.601 276.68 741.477 277.368 741.477 278.192C741.477 279.408 741.721 280.324 742.209 280.94C742.705 281.556 743.373 281.864 744.213 281.864ZM760.471 272.312H763.303V284H760.471V272.312ZM752.479 272.312H755.311V279.464C755.311 280.224 755.499 280.796 755.875 281.18C756.251 281.556 756.767 281.744 757.423 281.744C757.983 281.744 758.491 281.6 758.947 281.312C759.411 281.016 759.779 280.584 760.051 280.016C760.331 279.44 760.471 278.728 760.471 277.88H761.239C761.239 279.304 761.055 280.484 760.687 281.42C760.319 282.356 759.811 283.056 759.163 283.52C758.515 283.984 757.767 284.216 756.919 284.216C756.087 284.216 755.335 284.068 754.663 283.772C753.991 283.476 753.459 283 753.067 282.344C752.675 281.688 752.479 280.824 752.479 279.752V272.312ZM771.102 284.336C770.414 284.336 769.782 284.208 769.206 283.952C768.638 283.696 768.182 283.304 767.838 282.776C767.502 282.248 767.334 281.576 767.334 280.76V269.264H770.166V280.664C770.166 281.624 770.622 282.104 771.534 282.104C771.814 282.104 772.094 282.072 772.374 282.008C772.654 281.944 772.974 281.848 773.334 281.72L773.742 283.712C773.294 283.888 772.858 284.036 772.434 284.156C772.01 284.276 771.566 284.336 771.102 284.336ZM765.702 274.232V272.36H773.334V274.232H765.702ZM782.177 284V270.944C782.177 270.104 782.341 269.42 782.669 268.892C782.997 268.364 783.429 267.976 783.965 267.728C784.509 267.472 785.097 267.344 785.729 267.344C786.121 267.344 786.525 267.372 786.941 267.428C787.357 267.484 787.761 267.552 788.153 267.632L787.601 269.816C787.401 269.744 787.193 269.688 786.977 269.648C786.761 269.6 786.553 269.576 786.353 269.576C786.129 269.576 785.917 269.62 785.717 269.708C785.517 269.788 785.353 269.932 785.225 270.14C785.097 270.348 785.033 270.632 785.033 270.992V284H782.177ZM780.449 274.232V272.36H787.169V274.232H780.449ZM789.717 284V272.312H792.549V284H789.717ZM791.853 278.888C791.853 277.36 792.025 276.096 792.369 275.096C792.713 274.096 793.173 273.356 793.749 272.876C794.333 272.388 794.981 272.144 795.693 272.144C795.885 272.144 796.065 272.156 796.233 272.18C796.409 272.204 796.581 272.24 796.749 272.288L796.701 275.12C796.493 275.072 796.269 275.032 796.029 275C795.789 274.968 795.573 274.952 795.381 274.952C794.757 274.952 794.233 275.104 793.809 275.408C793.393 275.704 793.077 276.144 792.861 276.728C792.653 277.312 792.549 278.032 792.549 278.888H791.853ZM803.123 284.336C802.059 284.336 801.095 284.108 800.231 283.652C799.375 283.196 798.695 282.516 798.191 281.612C797.687 280.7 797.435 279.56 797.435 278.192C797.435 276.8 797.687 275.648 798.191 274.736C798.695 273.824 799.375 273.144 800.231 272.696C801.095 272.248 802.059 272.024 803.123 272.024C804.171 272.024 805.119 272.248 805.967 272.696C806.823 273.144 807.503 273.824 808.007 274.736C808.511 275.648 808.763 276.8 808.763 278.192C808.763 279.56 808.511 280.7 808.007 281.612C807.503 282.516 806.823 283.196 805.967 283.652C805.119 284.108 804.171 284.336 803.123 284.336ZM803.027 281.864C803.587 281.864 804.083 281.728 804.515 281.456C804.955 281.176 805.299 280.764 805.547 280.22C805.803 279.676 805.931 279 805.931 278.192C805.931 276.96 805.687 276.032 805.199 275.408C804.719 274.784 804.059 274.472 803.219 274.472C802.651 274.472 802.147 274.612 801.707 274.892C801.267 275.164 800.919 275.576 800.663 276.128C800.415 276.68 800.291 277.368 800.291 278.192C800.291 279.408 800.535 280.324 801.023 280.94C801.519 281.556 802.187 281.864 803.027 281.864ZM827.349 284V277.184C827.349 276.32 827.141 275.668 826.725 275.228C826.309 274.788 825.765 274.568 825.093 274.568C824.245 274.568 823.577 274.912 823.089 275.6C822.601 276.288 822.357 277.328 822.357 278.72H821.181C821.181 277.496 821.293 276.46 821.517 275.612C821.749 274.756 822.073 274.068 822.489 273.548C822.913 273.02 823.409 272.636 823.977 272.396C824.545 272.148 825.173 272.024 825.861 272.024C826.813 272.024 827.609 272.24 828.249 272.672C828.897 273.096 829.385 273.696 829.713 274.472C830.041 275.248 830.205 276.152 830.205 277.184V284H827.349ZM811.533 284V272.36H814.005L814.317 274.352C814.701 273.576 815.209 272.996 815.841 272.612C816.473 272.22 817.197 272.024 818.013 272.024C818.973 272.024 819.773 272.24 820.413 272.672C821.061 273.096 821.545 273.696 821.865 274.472C822.193 275.248 822.357 276.152 822.357 277.184V284H819.525V277.184C819.525 276.32 819.317 275.668 818.901 275.228C818.485 274.788 817.941 274.568 817.269 274.568C816.701 274.568 816.197 274.724 815.757 275.036C815.325 275.348 814.985 275.82 814.737 276.452C814.489 277.076 814.365 277.856 814.365 278.792V284H811.533ZM843.6 284.336C842.624 284.336 841.716 284.084 840.876 283.58C840.044 283.068 839.368 282.352 838.848 281.432C838.336 280.504 838.08 279.416 838.08 278.168C838.08 276.848 838.336 275.732 838.848 274.82C839.368 273.9 840.044 273.204 840.876 272.732C841.716 272.26 842.624 272.024 843.6 272.024C844.36 272.024 845.028 272.148 845.604 272.396C846.188 272.636 846.684 272.964 847.092 273.38C847.5 273.788 847.82 274.244 848.052 274.748C848.284 275.252 848.432 275.76 848.496 276.272L845.64 276.344C845.512 275.832 845.272 275.408 844.92 275.072C844.576 274.736 844.128 274.568 843.576 274.568C843.12 274.568 842.692 274.696 842.292 274.952C841.892 275.2 841.564 275.588 841.308 276.116C841.06 276.644 840.936 277.328 840.936 278.168C840.936 278.968 841.052 279.636 841.284 280.172C841.524 280.7 841.844 281.1 842.244 281.372C842.644 281.636 843.088 281.768 843.576 281.768C844.296 281.768 844.82 281.596 845.148 281.252C845.476 280.9 845.64 280.432 845.64 279.848H848.496C848.496 280.672 848.308 281.424 847.932 282.104C847.556 282.784 847.004 283.328 846.276 283.736C845.548 284.136 844.656 284.336 843.6 284.336ZM855.871 284.336C854.807 284.336 853.843 284.108 852.979 283.652C852.123 283.196 851.443 282.516 850.939 281.612C850.435 280.7 850.183 279.56 850.183 278.192C850.183 276.8 850.435 275.648 850.939 274.736C851.443 273.824 852.123 273.144 852.979 272.696C853.843 272.248 854.807 272.024 855.871 272.024C856.919 272.024 857.867 272.248 858.715 272.696C859.571 273.144 860.251 273.824 860.755 274.736C861.259 275.648 861.511 276.8 861.511 278.192C861.511 279.56 861.259 280.7 860.755 281.612C860.251 282.516 859.571 283.196 858.715 283.652C857.867 284.108 856.919 284.336 855.871 284.336ZM855.775 281.864C856.335 281.864 856.831 281.728 857.263 281.456C857.703 281.176 858.047 280.764 858.295 280.22C858.551 279.676 858.679 279 858.679 278.192C858.679 276.96 858.435 276.032 857.947 275.408C857.467 274.784 856.807 274.472 855.967 274.472C855.399 274.472 854.895 274.612 854.455 274.892C854.015 275.164 853.667 275.576 853.411 276.128C853.163 276.68 853.039 277.368 853.039 278.192C853.039 279.408 853.283 280.324 853.771 280.94C854.267 281.556 854.935 281.864 855.775 281.864ZM880.097 284V277.184C880.097 276.32 879.889 275.668 879.473 275.228C879.057 274.788 878.513 274.568 877.841 274.568C876.993 274.568 876.325 274.912 875.837 275.6C875.349 276.288 875.105 277.328 875.105 278.72H873.929C873.929 277.496 874.041 276.46 874.265 275.612C874.497 274.756 874.821 274.068 875.237 273.548C875.661 273.02 876.157 272.636 876.725 272.396C877.293 272.148 877.921 272.024 878.609 272.024C879.561 272.024 880.357 272.24 880.997 272.672C881.645 273.096 882.133 273.696 882.461 274.472C882.789 275.248 882.953 276.152 882.953 277.184V284H880.097ZM864.281 284V272.36H866.753L867.065 274.352C867.449 273.576 867.957 272.996 868.589 272.612C869.221 272.22 869.945 272.024 870.761 272.024C871.721 272.024 872.521 272.24 873.161 272.672C873.809 273.096 874.293 273.696 874.613 274.472C874.941 275.248 875.105 276.152 875.105 277.184V284H872.273V277.184C872.273 276.32 872.065 275.668 871.649 275.228C871.233 274.788 870.689 274.568 870.017 274.568C869.449 274.568 868.945 274.724 868.505 275.036C868.073 275.348 867.733 275.82 867.485 276.452C867.237 277.076 867.113 277.856 867.113 278.792V284H864.281ZM892.294 284.336C891.438 284.336 890.71 284.152 890.11 283.784C889.51 283.416 889.05 282.86 888.73 282.116C888.418 281.364 888.262 280.424 888.262 279.296H889.294C889.294 279.816 889.414 280.26 889.654 280.628C889.894 280.996 890.21 281.28 890.602 281.48C891.002 281.672 891.43 281.768 891.886 281.768C892.358 281.768 892.822 281.64 893.278 281.384C893.742 281.12 894.126 280.724 894.43 280.196C894.734 279.66 894.886 278.984 894.886 278.168C894.886 277.424 894.758 276.784 894.502 276.248C894.246 275.704 893.894 275.288 893.446 275C893.006 274.712 892.502 274.568 891.934 274.568C891.454 274.568 891.014 274.676 890.614 274.892C890.214 275.108 889.894 275.424 889.654 275.84C889.414 276.248 889.294 276.744 889.294 277.328H888.262C888.262 276.104 888.45 275.104 888.826 274.328C889.202 273.544 889.706 272.964 890.338 272.588C890.97 272.212 891.662 272.024 892.414 272.024C893.334 272.024 894.198 272.268 895.006 272.756C895.822 273.244 896.482 273.948 896.986 274.868C897.49 275.78 897.742 276.88 897.742 278.168C897.742 279.464 897.486 280.572 896.974 281.492C896.462 282.412 895.79 283.116 894.958 283.604C894.134 284.092 893.246 284.336 892.294 284.336ZM886.462 289.688V272.36H888.79L889.294 275.24V289.688H886.462ZM904.855 284.336C903.863 284.336 902.955 284.08 902.131 283.568C901.307 283.056 900.647 282.34 900.151 281.42C899.655 280.492 899.407 279.408 899.407 278.168C899.407 276.888 899.651 275.788 900.139 274.868C900.635 273.948 901.295 273.244 902.119 272.756C902.943 272.268 903.855 272.024 904.855 272.024C905.783 272.024 906.583 272.212 907.255 272.588C907.935 272.956 908.479 273.46 908.887 274.1C909.303 274.732 909.583 275.448 909.727 276.248C909.871 277.048 909.879 277.872 909.751 278.72H901.663V277.184H907.747L907.195 277.544C907.219 277.168 907.199 276.788 907.135 276.404C907.079 276.02 906.967 275.668 906.799 275.348C906.631 275.028 906.391 274.772 906.079 274.58C905.775 274.38 905.383 274.28 904.903 274.28C904.327 274.28 903.839 274.424 903.439 274.712C903.039 275 902.735 275.392 902.527 275.888C902.319 276.384 902.215 276.944 902.215 277.568V278.696C902.215 279.352 902.311 279.932 902.503 280.436C902.703 280.94 902.995 281.336 903.379 281.624C903.771 281.912 904.263 282.056 904.855 282.056C905.407 282.056 905.871 281.928 906.247 281.672C906.623 281.416 906.863 281.032 906.967 280.52H909.823C909.703 281.272 909.419 281.936 908.971 282.512C908.531 283.08 907.959 283.528 907.255 283.856C906.551 284.176 905.751 284.336 904.855 284.336ZM916.573 284.336C915.885 284.336 915.253 284.208 914.677 283.952C914.109 283.696 913.653 283.304 913.309 282.776C912.973 282.248 912.805 281.576 912.805 280.76V269.264H915.637V280.664C915.637 281.624 916.093 282.104 917.005 282.104C917.285 282.104 917.565 282.072 917.845 282.008C918.125 281.944 918.445 281.848 918.805 281.72L919.213 283.712C918.765 283.888 918.329 284.036 917.905 284.156C917.481 284.276 917.037 284.336 916.573 284.336ZM911.173 274.232V272.36H918.805V274.232H911.173ZM923.162 270.224C922.61 270.224 922.178 270.08 921.866 269.792C921.562 269.496 921.41 269.088 921.41 268.568C921.41 268.064 921.562 267.664 921.866 267.368C922.178 267.064 922.61 266.912 923.162 266.912C923.706 266.912 924.134 267.064 924.446 267.368C924.758 267.664 924.914 268.064 924.914 268.568C924.914 269.088 924.758 269.496 924.446 269.792C924.134 270.08 923.706 270.224 923.162 270.224ZM921.746 284V272.312H924.578V284H921.746ZM936.773 284V277.184C936.773 276.32 936.565 275.668 936.149 275.228C935.733 274.788 935.189 274.568 934.517 274.568C933.949 274.568 933.445 274.724 933.005 275.036C932.573 275.348 932.233 275.82 931.985 276.452C931.737 277.076 931.613 277.856 931.613 278.792H930.677C930.677 277.28 930.865 276.024 931.241 275.024C931.617 274.016 932.149 273.264 932.837 272.768C933.525 272.272 934.333 272.024 935.261 272.024C936.221 272.024 937.021 272.24 937.661 272.672C938.309 273.096 938.793 273.696 939.113 274.472C939.441 275.248 939.605 276.152 939.605 277.184V284H936.773ZM928.781 284V272.36H931.253L931.613 274.664V284H928.781ZM947.622 290.024C946.286 290.024 945.142 289.84 944.19 289.472C943.246 289.104 942.522 288.62 942.018 288.02C941.514 287.428 941.262 286.784 941.262 286.088C941.262 285.264 941.562 284.624 942.162 284.168C942.762 283.72 943.518 283.496 944.43 283.496L946.494 284.264C945.71 284.264 945.106 284.412 944.682 284.708C944.258 285.004 944.046 285.416 944.046 285.944C944.046 286.496 944.362 286.936 944.994 287.264C945.634 287.6 946.51 287.768 947.622 287.768C948.43 287.768 949.13 287.648 949.722 287.408C950.314 287.168 950.77 286.856 951.09 286.472C951.418 286.088 951.582 285.68 951.582 285.248C951.582 284.96 951.486 284.724 951.294 284.54C951.102 284.356 950.806 284.264 950.406 284.264H946.494C945.71 284.264 944.994 284.14 944.346 283.892C943.706 283.636 943.194 283.296 942.81 282.872C942.434 282.44 942.246 281.96 942.246 281.432C942.246 280.944 942.382 280.524 942.654 280.172C942.926 279.812 943.294 279.536 943.758 279.344C944.23 279.152 944.758 279.056 945.342 279.056L946.062 279.992C945.83 279.992 945.606 280.04 945.39 280.136C945.182 280.224 945.01 280.356 944.874 280.532C944.738 280.708 944.67 280.928 944.67 281.192C944.67 281.512 944.806 281.772 945.078 281.972C945.35 282.172 945.822 282.272 946.494 282.272H950.406C951.646 282.272 952.618 282.5 953.322 282.956C954.034 283.412 954.39 284.112 954.39 285.056C954.39 285.896 954.114 286.692 953.562 287.444C953.01 288.204 952.226 288.824 951.21 289.304C950.202 289.784 949.006 290.024 947.622 290.024ZM947.766 280.4C946.846 280.4 946.002 280.228 945.234 279.884C944.474 279.532 943.866 279.044 943.41 278.42C942.954 277.796 942.726 277.064 942.726 276.224C942.726 275.368 942.954 274.624 943.41 273.992C943.866 273.36 944.474 272.876 945.234 272.54C946.002 272.196 946.846 272.024 947.766 272.024C948.662 272.024 949.49 272.196 950.25 272.54C951.01 272.876 951.622 273.36 952.086 273.992C952.55 274.624 952.782 275.368 952.782 276.224C952.782 277.064 952.55 277.796 952.086 278.42C951.622 279.044 951.01 279.532 950.25 279.884C949.49 280.228 948.662 280.4 947.766 280.4ZM947.79 278.432C948.526 278.432 949.078 278.22 949.446 277.796C949.814 277.372 949.998 276.848 949.998 276.224C949.998 275.552 949.81 275.012 949.434 274.604C949.066 274.196 948.51 273.992 947.766 273.992C947.046 273.992 946.494 274.196 946.11 274.604C945.726 275.012 945.534 275.552 945.534 276.224C945.534 276.848 945.726 277.372 946.11 277.796C946.502 278.22 947.062 278.432 947.79 278.432ZM951.894 273.896L950.598 273.152C950.598 272.456 950.758 271.848 951.078 271.328C951.406 270.8 951.838 270.392 952.374 270.104C952.918 269.816 953.518 269.672 954.174 269.672L954.03 272.384C953.334 272.384 952.802 272.508 952.434 272.756C952.074 272.996 951.894 273.376 951.894 273.896ZM969.389 284L969.029 281.168V276.488C969.029 275.672 968.861 275.068 968.525 274.676C968.197 274.284 967.637 274.088 966.845 274.088C966.389 274.088 965.993 274.156 965.657 274.292C965.321 274.428 965.061 274.624 964.877 274.88C964.701 275.128 964.613 275.432 964.613 275.792H961.517C961.517 274.912 961.729 274.196 962.153 273.644C962.577 273.084 963.185 272.676 963.977 272.42C964.777 272.156 965.733 272.024 966.845 272.024C967.853 272.024 968.733 272.188 969.485 272.516C970.237 272.836 970.821 273.332 971.237 274.004C971.653 274.676 971.861 275.536 971.861 276.584V284H969.389ZM965.573 284.336C964.573 284.336 963.737 284.164 963.065 283.82C962.401 283.468 961.901 283.008 961.565 282.44C961.229 281.872 961.061 281.256 961.061 280.592C961.061 279.856 961.253 279.24 961.637 278.744C962.029 278.24 962.581 277.864 963.293 277.616C964.005 277.36 964.845 277.232 965.813 277.232C966.445 277.232 967.041 277.28 967.601 277.376C968.169 277.472 968.733 277.6 969.293 277.76V279.416C968.853 279.272 968.373 279.16 967.853 279.08C967.333 279 966.845 278.96 966.389 278.96C965.717 278.96 965.165 279.084 964.733 279.332C964.301 279.58 964.085 280 964.085 280.592C964.085 281.024 964.261 281.396 964.613 281.708C964.965 282.02 965.525 282.176 966.293 282.176C966.877 282.176 967.373 282.048 967.781 281.792C968.189 281.536 968.497 281.216 968.705 280.832C968.921 280.448 969.029 280.064 969.029 279.68H969.701C969.701 280.52 969.545 281.296 969.233 282.008C968.921 282.712 968.457 283.276 967.841 283.7C967.233 284.124 966.477 284.336 965.573 284.336ZM981.244 284.336C980.388 284.336 979.66 284.152 979.06 283.784C978.46 283.416 978 282.86 977.68 282.116C977.368 281.364 977.212 280.424 977.212 279.296H978.244C978.244 279.816 978.364 280.26 978.604 280.628C978.844 280.996 979.16 281.28 979.552 281.48C979.952 281.672 980.38 281.768 980.836 281.768C981.308 281.768 981.772 281.64 982.228 281.384C982.692 281.12 983.076 280.724 983.38 280.196C983.684 279.66 983.836 278.984 983.836 278.168C983.836 277.424 983.708 276.784 983.452 276.248C983.196 275.704 982.844 275.288 982.396 275C981.956 274.712 981.452 274.568 980.884 274.568C980.404 274.568 979.964 274.676 979.564 274.892C979.164 275.108 978.844 275.424 978.604 275.84C978.364 276.248 978.244 276.744 978.244 277.328H977.212C977.212 276.104 977.4 275.104 977.776 274.328C978.152 273.544 978.656 272.964 979.288 272.588C979.92 272.212 980.612 272.024 981.364 272.024C982.284 272.024 983.148 272.268 983.956 272.756C984.772 273.244 985.432 273.948 985.936 274.868C986.44 275.78 986.692 276.88 986.692 278.168C986.692 279.464 986.436 280.572 985.924 281.492C985.412 282.412 984.74 283.116 983.908 283.604C983.084 284.092 982.196 284.336 981.244 284.336ZM975.412 289.688V272.36H977.74L978.244 275.24V289.688H975.412ZM995.293 284.336C994.437 284.336 993.709 284.152 993.109 283.784C992.509 283.416 992.049 282.86 991.729 282.116C991.417 281.364 991.261 280.424 991.261 279.296H992.293C992.293 279.816 992.413 280.26 992.653 280.628C992.893 280.996 993.209 281.28 993.601 281.48C994.001 281.672 994.429 281.768 994.885 281.768C995.357 281.768 995.821 281.64 996.277 281.384C996.741 281.12 997.125 280.724 997.429 280.196C997.733 279.66 997.885 278.984 997.885 278.168C997.885 277.424 997.757 276.784 997.501 276.248C997.245 275.704 996.893 275.288 996.445 275C996.005 274.712 995.501 274.568 994.933 274.568C994.453 274.568 994.013 274.676 993.613 274.892C993.213 275.108 992.893 275.424 992.653 275.84C992.413 276.248 992.293 276.744 992.293 277.328H991.261C991.261 276.104 991.449 275.104 991.825 274.328C992.201 273.544 992.705 272.964 993.337 272.588C993.969 272.212 994.661 272.024 995.413 272.024C996.333 272.024 997.197 272.268 998.005 272.756C998.821 273.244 999.481 273.948 999.985 274.868C1000.49 275.78 1000.74 276.88 1000.74 278.168C1000.74 279.464 1000.48 280.572 999.973 281.492C999.461 282.412 998.789 283.116 997.957 283.604C997.133 284.092 996.245 284.336 995.293 284.336ZM989.461 289.688V272.36H991.789L992.293 275.24V289.688H989.461ZM1007.85 284.336C1006.73 284.336 1005.77 284.184 1004.96 283.88C1004.16 283.568 1003.55 283.124 1003.11 282.548C1002.68 281.964 1002.46 281.264 1002.45 280.448H1005.07C1005.09 281.024 1005.32 281.444 1005.75 281.708C1006.19 281.972 1006.77 282.104 1007.52 282.104C1007.93 282.104 1008.29 282.044 1008.6 281.924C1008.92 281.804 1009.17 281.64 1009.34 281.432C1009.52 281.224 1009.61 280.992 1009.61 280.736C1009.61 280.408 1009.49 280.152 1009.25 279.968C1009.01 279.776 1008.64 279.6 1008.12 279.44L1005.57 278.528C1004.66 278.2 1003.96 277.768 1003.47 277.232C1002.99 276.696 1002.74 276.056 1002.74 275.312C1002.74 274.328 1003.19 273.536 1004.07 272.936C1004.97 272.328 1006.17 272.024 1007.66 272.024C1009.15 272.024 1010.3 272.352 1011.11 273.008C1011.92 273.656 1012.34 274.48 1012.37 275.48H1009.7C1009.66 275.096 1009.48 274.792 1009.15 274.568C1008.82 274.344 1008.33 274.232 1007.66 274.232C1007.06 274.232 1006.59 274.356 1006.25 274.604C1005.91 274.844 1005.74 275.128 1005.74 275.456C1005.74 276.008 1006.21 276.424 1007.16 276.704L1009.92 277.736C1010.81 278.04 1011.51 278.432 1012.01 278.912C1012.5 279.392 1012.75 280 1012.75 280.736C1012.75 281.352 1012.54 281.936 1012.13 282.488C1011.72 283.032 1011.15 283.476 1010.41 283.82C1009.67 284.164 1008.82 284.336 1007.85 284.336ZM1017.53 279.344V278.384C1017.53 277.688 1017.61 277.116 1017.77 276.668C1017.94 276.22 1018.2 275.844 1018.54 275.54C1018.89 275.228 1019.36 274.928 1019.93 274.64C1020.44 274.384 1020.83 274.148 1021.11 273.932C1021.39 273.708 1021.58 273.48 1021.69 273.248C1021.8 273.016 1021.85 272.744 1021.85 272.432C1021.85 271.928 1021.65 271.512 1021.24 271.184C1020.83 270.848 1020.28 270.68 1019.57 270.68C1018.73 270.68 1018.09 270.868 1017.63 271.244C1017.18 271.612 1016.93 272.104 1016.86 272.72H1013.91C1014 271.328 1014.51 270.212 1015.45 269.372C1016.39 268.532 1017.73 268.112 1019.45 268.112C1020.59 268.112 1021.57 268.304 1022.39 268.688C1023.22 269.072 1023.85 269.592 1024.3 270.248C1024.75 270.904 1024.97 271.64 1024.97 272.456C1024.97 273.288 1024.76 273.992 1024.34 274.568C1023.92 275.144 1023.27 275.656 1022.38 276.104C1021.86 276.368 1021.45 276.616 1021.16 276.848C1020.87 277.08 1020.67 277.336 1020.55 277.616C1020.43 277.888 1020.37 278.232 1020.37 278.648V279.344H1017.53ZM1019.02 284.336C1018.44 284.336 1017.96 284.156 1017.59 283.796C1017.23 283.436 1017.05 282.996 1017.05 282.476C1017.05 281.932 1017.23 281.48 1017.59 281.12C1017.96 280.752 1018.43 280.568 1019.01 280.568C1019.59 280.568 1020.08 280.752 1020.46 281.12C1020.85 281.48 1021.04 281.928 1021.04 282.464C1021.04 282.992 1020.85 283.436 1020.46 283.796C1020.08 284.156 1019.6 284.336 1019.02 284.336Z" fill="#666666"/>
</svg>
