<svg width="1500" height="429" viewBox="0 0 1500 429" fill="none" xmlns="http://www.w3.org/2000/svg">
<rect width="1500" height="429" fill="#E5E5E5"/>
<rect width="1500" height="429" fill="white"/>
<path d="M662.957 196V175.615H670.15C672.443 175.615 674.228 176.18 675.506 177.311C676.794 178.442 677.438 180.044 677.438 182.117C677.438 184.169 676.794 185.76 675.506 186.891C674.228 188.022 672.443 188.587 670.15 188.587H666.695V196H662.957ZM666.695 185.352H670.15C671.302 185.352 672.171 185.048 672.757 184.441C673.344 183.834 673.637 183.059 673.637 182.117C673.637 181.154 673.344 180.363 672.757 179.745C672.171 179.128 671.302 178.819 670.15 178.819H666.695V185.352ZM688.182 196V175.615H695.721C698.16 175.615 700.029 176.186 701.327 177.327C702.636 178.468 703.29 179.981 703.29 181.865C703.29 183.719 702.636 185.216 701.327 186.357C700.029 187.488 698.16 188.053 695.721 188.053H691.889V196H688.182ZM699.207 196L693.805 186.451H697.762L704.044 196H699.207ZM691.889 185.572H695.344C696.705 185.572 697.736 185.263 698.438 184.645C699.139 184.017 699.49 183.206 699.49 182.211C699.49 181.195 699.17 180.379 698.532 179.761C697.893 179.133 696.956 178.819 695.721 178.819H691.889V185.572ZM723.096 196.44C721.285 196.44 719.683 196.042 718.29 195.246C716.908 194.45 715.825 193.262 715.039 191.681C714.254 190.1 713.862 188.137 713.862 185.792C713.862 183.405 714.254 181.431 715.039 179.871C715.825 178.3 716.908 177.133 718.29 176.369C719.683 175.594 721.285 175.207 723.096 175.207C724.918 175.207 726.525 175.604 727.918 176.4C729.31 177.185 730.399 178.363 731.184 179.934C731.969 181.504 732.362 183.457 732.362 185.792C732.362 188.168 731.969 190.147 731.184 191.728C730.399 193.309 729.31 194.492 727.918 195.278C726.525 196.052 724.918 196.44 723.096 196.44ZM723.096 193.079C724.761 193.079 726.08 192.451 727.054 191.194C728.038 189.938 728.53 188.127 728.53 185.76C728.53 183.478 728.038 181.703 727.054 180.436C726.08 179.169 724.761 178.536 723.096 178.536C721.463 178.536 720.154 179.175 719.17 180.452C718.186 181.719 717.694 183.499 717.694 185.792C717.694 188.147 718.186 189.954 719.17 191.21C720.154 192.456 721.463 193.079 723.096 193.079ZM751.07 196.44C749.28 196.44 747.72 196.016 746.39 195.168C745.071 194.309 744.045 193.084 743.312 191.493C742.579 189.901 742.213 187.99 742.213 185.76C742.213 183.457 742.59 181.525 743.344 179.965C744.108 178.395 745.155 177.212 746.485 176.416C747.825 175.61 749.353 175.207 751.07 175.207C753.447 175.207 755.3 175.782 756.63 176.934C757.97 178.086 758.829 179.583 759.206 181.426L755.248 182.148C754.923 181.08 754.405 180.216 753.693 179.557C752.981 178.897 752.107 178.567 751.07 178.567C750.16 178.567 749.338 178.834 748.605 179.368C747.872 179.892 747.285 180.688 746.846 181.756C746.416 182.824 746.202 184.158 746.202 185.76C746.202 187.268 746.39 188.566 746.767 189.655C747.155 190.744 747.71 191.582 748.432 192.168C749.154 192.754 750.034 193.047 751.07 193.047C752.4 193.047 753.426 192.697 754.149 191.995C754.881 191.283 755.248 190.378 755.248 189.278H759.206C759.206 190.796 758.876 192.089 758.216 193.157C757.567 194.215 756.635 195.026 755.421 195.592C754.206 196.157 752.756 196.44 751.07 196.44ZM770.444 196V175.615H783.542V178.819H774.15V184.19H782.976V187.394H774.15V192.765H783.542V196H770.444ZM802.919 196.44C801.506 196.44 800.202 196.194 799.008 195.702C797.825 195.21 796.862 194.461 796.119 193.456C795.386 192.451 794.993 191.173 794.941 189.624H798.584C798.584 190.409 798.778 191.053 799.165 191.555C799.553 192.058 800.071 192.435 800.72 192.686C801.38 192.927 802.102 193.047 802.888 193.047C803.641 193.047 804.312 192.948 804.898 192.749C805.495 192.55 805.961 192.267 806.296 191.901C806.641 191.524 806.814 191.079 806.814 190.566C806.814 189.886 806.604 189.352 806.186 188.964C805.777 188.577 805.118 188.221 804.207 187.896L800.186 186.294C798.616 185.677 797.412 184.959 796.574 184.143C795.737 183.326 795.318 182.201 795.318 180.766C795.318 179.112 795.972 177.772 797.281 176.746C798.59 175.72 800.417 175.207 802.762 175.207C805.044 175.207 806.809 175.741 808.055 176.808C809.3 177.866 810.007 179.342 810.175 181.237H806.531C806.395 180.431 806.029 179.787 805.432 179.306C804.835 178.813 803.945 178.567 802.762 178.567C801.715 178.567 800.888 178.787 800.281 179.227C799.673 179.656 799.37 180.201 799.37 180.86C799.37 181.426 799.558 181.876 799.935 182.211C800.322 182.536 800.919 182.85 801.725 183.153L806.186 184.881C807.693 185.467 808.85 186.205 809.656 187.095C810.463 187.985 810.866 189.1 810.866 190.44C810.866 191.665 810.557 192.728 809.939 193.629C809.321 194.518 808.421 195.21 807.238 195.702C806.055 196.194 804.615 196.44 802.919 196.44ZM829.859 196.44C828.446 196.44 827.142 196.194 825.949 195.702C824.766 195.21 823.802 194.461 823.059 193.456C822.326 192.451 821.933 191.173 821.881 189.624H825.525C825.525 190.409 825.718 191.053 826.106 191.555C826.493 192.058 827.011 192.435 827.66 192.686C828.32 192.927 829.043 193.047 829.828 193.047C830.582 193.047 831.252 192.948 831.838 192.749C832.435 192.55 832.901 192.267 833.236 191.901C833.581 191.524 833.754 191.079 833.754 190.566C833.754 189.886 833.545 189.352 833.126 188.964C832.717 188.577 832.058 188.221 831.147 187.896L827.127 186.294C825.556 185.677 824.352 184.959 823.514 184.143C822.677 183.326 822.258 182.201 822.258 180.766C822.258 179.112 822.912 177.772 824.221 176.746C825.53 175.72 827.357 175.207 829.702 175.207C831.985 175.207 833.749 175.741 834.995 176.808C836.241 177.866 836.947 179.342 837.115 181.237H833.471C833.335 180.431 832.969 179.787 832.372 179.306C831.775 178.813 830.885 178.567 829.702 178.567C828.655 178.567 827.828 178.787 827.221 179.227C826.613 179.656 826.31 180.201 826.31 180.86C826.31 181.426 826.498 181.876 826.875 182.211C827.263 182.536 827.859 182.85 828.666 183.153L833.126 184.881C834.633 185.467 835.79 186.205 836.597 187.095C837.403 187.985 837.806 189.1 837.806 190.44C837.806 191.665 837.497 192.728 836.879 193.629C836.262 194.518 835.361 195.21 834.178 195.702C832.995 196.194 831.555 196.44 829.859 196.44Z" fill="#383838"/>
<line x1="422" y1="223.276" x2="1078.01" y2="223.276" stroke="#383838"/>
</svg>
