<svg width="1500" height="292" viewBox="0 0 1500 292" fill="none" xmlns="http://www.w3.org/2000/svg">
<rect width="1500" height="292" fill="#E5E5E5"/>
<rect width="1500" height="292" fill="white"/>
<path d="M645.998 39.4397C644.208 39.4397 642.648 39.0157 641.318 38.1676C639.999 37.3091 638.973 36.0841 638.24 34.4927C637.507 32.9012 637.141 30.9904 637.141 28.7603C637.141 26.4569 637.518 24.5252 638.271 22.9652C639.036 21.3947 640.083 20.2116 641.412 19.4159C642.753 18.6097 644.281 18.2066 645.998 18.2066C648.375 18.2066 650.228 18.7824 651.558 19.9341C652.898 21.0858 653.757 22.583 654.134 24.4258L650.176 25.1482C649.851 24.0802 649.333 23.2165 648.621 22.5569C647.909 21.8973 647.035 21.5674 645.998 21.5674C645.087 21.5674 644.266 21.8344 643.533 22.3684C642.8 22.8919 642.213 23.6876 641.774 24.7556C641.344 25.8235 641.13 27.1584 641.13 28.7603C641.13 30.268 641.318 31.5663 641.695 32.6552C642.083 33.7441 642.637 34.5817 643.36 35.168C644.082 35.7543 644.962 36.0475 645.998 36.0475C647.328 36.0475 648.354 35.6967 649.077 34.9952C649.809 34.2833 650.176 33.3776 650.176 32.2783H654.134C654.134 33.7964 653.804 35.0895 653.144 36.1574C652.495 37.2149 651.563 38.0263 650.349 38.5917C649.134 39.1571 647.684 39.4397 645.998 39.4397ZM665.403 18.6149H669.109V27.127H677.998V18.6149H681.705V39H677.998V30.3622H669.109V39H665.403V18.6149ZM692.23 39L699.171 18.6149H703.82L710.479 39H706.584L705.171 34.6026H697.601L696.156 39H692.23ZM698.543 31.8071H704.291L701.433 23.0437L698.543 31.8071ZM724.738 18.6149V35.7648H733.125V39H721.032V18.6149H724.738ZM747.169 18.6149V35.7648H755.556V39H743.463V18.6149H747.169ZM765.863 39V18.6149H778.961V21.8187H769.569V27.1898H778.395V30.3937H769.569V35.7648H778.961V39H765.863ZM791.177 18.6149H795.228L804.494 33.1577H804.212V18.6149H807.918V39H804.149L794.286 23.5777H794.883V39H791.177V18.6149ZM828.108 39.4397C826.444 39.4397 824.941 39 823.601 38.1205C822.261 37.241 821.193 36.016 820.397 34.4455C819.612 32.8646 819.219 31.0219 819.219 28.9174C819.219 27.2527 819.46 25.7607 819.942 24.4415C820.434 23.1222 821.114 21.9967 821.983 21.0649C822.852 20.1331 823.873 19.4263 825.046 18.9447C826.219 18.4526 827.491 18.2066 828.862 18.2066C830.768 18.2066 832.364 18.6201 833.652 19.4473C834.951 20.2744 835.961 21.5779 836.683 23.3578L832.883 24.2373C832.349 23.3683 831.731 22.7087 831.029 22.2585C830.338 21.7978 829.553 21.5674 828.674 21.5674C827.669 21.5674 826.752 21.8658 825.925 22.4626C825.098 23.049 824.439 23.8918 823.947 24.9911C823.454 26.0905 823.208 27.3992 823.208 28.9174C823.208 30.3413 823.423 31.5872 823.852 32.6552C824.292 33.7231 824.905 34.5555 825.69 35.1523C826.475 35.7491 827.386 36.0475 828.422 36.0475C829.302 36.0475 830.087 35.8538 830.778 35.4664C831.48 35.0685 832.029 34.5031 832.427 33.7702C832.836 33.0373 833.04 32.1526 833.04 31.1161H833.856C833.856 32.8122 833.652 34.2833 833.244 35.5292C832.846 36.7751 832.223 37.7384 831.375 38.4189C830.527 39.0995 829.438 39.4397 828.108 39.4397ZM833.574 39L833.04 34.5084V30.9904L828.454 30.8962V28.5405H836.589V39H833.574ZM848.8 39V18.6149H861.898V21.8187H852.506V27.1898H861.333V30.3937H852.506V35.7648H861.898V39H848.8Z" fill="#383838"/>
<path d="M564.951 107.636H566.795V112.964H572.598V107.636H574.433V120H572.598V114.565H566.795V120H564.951V107.636ZM581.266 120.252C580.419 120.252 579.659 120.068 578.986 119.699C578.319 119.33 577.792 118.78 577.404 118.049C577.016 117.318 576.822 116.416 576.822 115.342C576.822 114.248 577.016 113.339 577.404 112.614C577.792 111.883 578.319 111.333 578.986 110.965C579.659 110.596 580.419 110.411 581.266 110.411C582.101 110.411 582.852 110.596 583.518 110.965C584.184 111.333 584.708 111.883 585.09 112.614C585.478 113.339 585.672 114.248 585.672 115.342C585.672 116.416 585.478 117.318 585.09 118.049C584.708 118.78 584.184 119.33 583.518 119.699C582.852 120.068 582.101 120.252 581.266 120.252ZM581.208 118.641C581.745 118.641 582.208 118.512 582.596 118.253C582.991 117.994 583.292 117.619 583.499 117.127C583.712 116.629 583.819 116.034 583.819 115.342C583.819 114.281 583.602 113.459 583.169 112.877C582.742 112.294 582.124 112.003 581.315 112.003C580.771 112.003 580.302 112.136 579.908 112.401C579.52 112.66 579.219 113.038 579.005 113.536C578.798 114.028 578.695 114.63 578.695 115.342C578.695 116.383 578.911 117.195 579.345 117.778C579.778 118.353 580.399 118.641 581.208 118.641ZM586.443 110.664H588.364L590.587 118.156H590.383L592.528 111.139H594.129L596.264 118.175H596.07L598.293 110.664H600.137L597.07 120H595.265L593.149 113.401H593.43L591.344 120H589.539L586.443 110.664ZM609.529 120.252C608.766 120.252 608.054 120.049 607.394 119.641C606.734 119.233 606.204 118.661 605.803 117.923C605.402 117.186 605.201 116.319 605.201 115.322C605.201 114.274 605.402 113.388 605.803 112.663C606.204 111.932 606.734 111.375 607.394 110.994C608.054 110.606 608.766 110.411 609.529 110.411C610.092 110.411 610.594 110.502 611.034 110.683C611.474 110.858 611.852 111.097 612.169 111.401C612.486 111.699 612.742 112.035 612.936 112.411C613.137 112.786 613.276 113.174 613.353 113.575L611.48 113.672C611.344 113.187 611.105 112.799 610.762 112.508C610.426 112.21 610.008 112.061 609.51 112.061C609.09 112.061 608.692 112.181 608.316 112.42C607.948 112.653 607.647 113.012 607.414 113.498C607.187 113.976 607.074 114.585 607.074 115.322C607.074 116.008 607.181 116.594 607.394 117.079C607.608 117.564 607.899 117.936 608.268 118.195C608.637 118.454 609.051 118.583 609.51 118.583C610.17 118.583 610.662 118.425 610.985 118.108C611.315 117.784 611.48 117.341 611.48 116.778H613.353C613.353 117.431 613.201 118.02 612.897 118.544C612.593 119.068 612.153 119.486 611.577 119.796C611.008 120.1 610.325 120.252 609.529 120.252ZM621.622 120L621.389 117.855V113.963C621.389 113.2 621.23 112.647 620.913 112.304C620.596 111.955 620.095 111.78 619.409 111.78C619.021 111.78 618.675 111.838 618.37 111.955C618.073 112.065 617.837 112.233 617.662 112.459C617.494 112.686 617.41 112.97 617.41 113.313H615.372C615.372 112.627 615.54 112.071 615.876 111.644C616.213 111.217 616.682 110.906 617.283 110.712C617.892 110.512 618.6 110.411 619.409 110.411C620.166 110.411 620.832 110.538 621.408 110.79C621.984 111.036 622.43 111.424 622.747 111.955C623.071 112.485 623.233 113.171 623.233 114.012V120H621.622ZM618.497 120.252C617.714 120.252 617.064 120.116 616.546 119.845C616.028 119.567 615.64 119.204 615.381 118.758C615.129 118.311 615.003 117.836 615.003 117.331C615.003 116.716 615.158 116.212 615.469 115.817C615.786 115.416 616.222 115.118 616.779 114.924C617.335 114.73 617.976 114.633 618.7 114.633C619.199 114.633 619.684 114.678 620.156 114.769C620.628 114.86 621.094 114.979 621.554 115.128V116.244C621.178 116.108 620.761 116.002 620.302 115.924C619.849 115.84 619.425 115.798 619.03 115.798C618.442 115.798 617.95 115.914 617.555 116.147C617.161 116.38 616.963 116.775 616.963 117.331C616.963 117.739 617.119 118.091 617.429 118.389C617.74 118.68 618.231 118.826 618.904 118.826C619.396 118.826 619.829 118.716 620.205 118.496C620.58 118.269 620.871 117.988 621.078 117.651C621.285 117.315 621.389 116.979 621.389 116.642H621.835C621.835 117.289 621.703 117.888 621.437 118.437C621.178 118.981 620.8 119.421 620.302 119.757C619.804 120.087 619.202 120.252 618.497 120.252ZM632.8 120V114.526C632.8 113.718 632.606 113.106 632.218 112.692C631.836 112.272 631.319 112.061 630.665 112.061C630.148 112.061 629.695 112.204 629.307 112.488C628.925 112.767 628.627 113.177 628.414 113.721C628.207 114.258 628.103 114.915 628.103 115.691H627.443C627.443 114.546 627.589 113.582 627.88 112.799C628.178 112.016 628.601 111.424 629.151 111.023C629.701 110.615 630.361 110.411 631.131 110.411C631.882 110.411 632.516 110.58 633.033 110.916C633.557 111.253 633.955 111.731 634.227 112.352C634.499 112.967 634.635 113.692 634.635 114.526V120H632.8ZM626.259 120V110.664H627.861L628.103 112.682V120H626.259ZM641.912 120V107.636H646.697C647.622 107.636 648.389 107.785 648.997 108.082C649.612 108.38 650.071 108.775 650.375 109.266C650.679 109.758 650.831 110.298 650.831 110.887C650.831 111.592 650.634 112.2 650.239 112.712C649.851 113.223 649.282 113.575 648.531 113.769C649.023 113.853 649.456 114.031 649.832 114.303C650.207 114.568 650.501 114.898 650.715 115.293C650.935 115.688 651.045 116.124 651.045 116.603C651.045 117.011 650.974 117.415 650.831 117.816C650.689 118.218 650.453 118.583 650.123 118.913C649.793 119.243 649.35 119.508 648.793 119.709C648.237 119.903 647.541 120 646.707 120H641.912ZM643.756 118.389H646.668C647.509 118.389 648.117 118.214 648.492 117.865C648.874 117.516 649.065 117.063 649.065 116.506C649.065 115.943 648.864 115.49 648.463 115.148C648.062 114.805 647.464 114.633 646.668 114.633H643.756V118.389ZM643.756 109.227V113.032H646.629C647.347 113.032 647.91 112.86 648.318 112.517C648.732 112.175 648.939 111.699 648.939 111.091C648.939 110.515 648.738 110.062 648.337 109.732C647.942 109.396 647.38 109.227 646.648 109.227H643.756ZM657.223 120.252C656.376 120.252 655.615 120.068 654.943 119.699C654.276 119.33 653.749 118.78 653.361 118.049C652.972 117.318 652.778 116.416 652.778 115.342C652.778 114.248 652.972 113.339 653.361 112.614C653.749 111.883 654.276 111.333 654.943 110.965C655.615 110.596 656.376 110.411 657.223 110.411C658.058 110.411 658.808 110.596 659.475 110.965C660.141 111.333 660.665 111.883 661.047 112.614C661.435 113.339 661.629 114.248 661.629 115.342C661.629 116.416 661.435 117.318 661.047 118.049C660.665 118.78 660.141 119.33 659.475 119.699C658.808 120.068 658.058 120.252 657.223 120.252ZM657.165 118.641C657.702 118.641 658.165 118.512 658.553 118.253C658.947 117.994 659.248 117.619 659.455 117.127C659.669 116.629 659.776 116.034 659.776 115.342C659.776 114.281 659.559 113.459 659.125 112.877C658.698 112.294 658.08 112.003 657.272 112.003C656.728 112.003 656.259 112.136 655.865 112.401C655.476 112.66 655.175 113.038 654.962 113.536C654.755 114.028 654.651 114.63 654.651 115.342C654.651 116.383 654.868 117.195 655.302 117.778C655.735 118.353 656.356 118.641 657.165 118.641ZM667.504 120.252C666.657 120.252 665.897 120.068 665.224 119.699C664.557 119.33 664.03 118.78 663.642 118.049C663.254 117.318 663.06 116.416 663.06 115.342C663.06 114.248 663.254 113.339 663.642 112.614C664.03 111.883 664.557 111.333 665.224 110.965C665.897 110.596 666.657 110.411 667.504 110.411C668.339 110.411 669.09 110.596 669.756 110.965C670.422 111.333 670.946 111.883 671.328 112.614C671.716 113.339 671.911 114.248 671.911 115.342C671.911 116.416 671.716 117.318 671.328 118.049C670.946 118.78 670.422 119.33 669.756 119.699C669.09 120.068 668.339 120.252 667.504 120.252ZM667.446 118.641C667.983 118.641 668.446 118.512 668.834 118.253C669.229 117.994 669.53 117.619 669.737 117.127C669.95 116.629 670.057 116.034 670.057 115.342C670.057 114.281 669.84 113.459 669.407 112.877C668.98 112.294 668.362 112.003 667.553 112.003C667.009 112.003 666.54 112.136 666.146 112.401C665.758 112.66 665.457 113.038 665.243 113.536C665.036 114.028 664.933 114.63 664.933 115.342C664.933 116.383 665.149 117.195 665.583 117.778C666.016 118.353 666.637 118.641 667.446 118.641ZM677.689 120.252C676.783 120.252 676.019 120.126 675.398 119.874C674.777 119.615 674.302 119.259 673.972 118.806C673.648 118.347 673.48 117.81 673.467 117.195H675.204C675.23 117.732 675.444 118.13 675.845 118.389C676.252 118.648 676.802 118.777 677.495 118.777C677.863 118.777 678.197 118.719 678.494 118.602C678.798 118.486 679.038 118.328 679.212 118.127C679.393 117.926 679.484 117.7 679.484 117.448C679.484 117.131 679.368 116.881 679.135 116.7C678.902 116.513 678.526 116.348 678.009 116.205L676.097 115.555C675.334 115.296 674.748 114.953 674.34 114.526C673.933 114.093 673.729 113.575 673.729 112.974C673.729 112.204 674.072 111.586 674.758 111.12C675.444 110.648 676.353 110.411 677.485 110.411C678.656 110.411 679.558 110.661 680.193 111.159C680.833 111.65 681.166 112.268 681.192 113.012H679.416C679.371 112.644 679.186 112.362 678.863 112.168C678.546 111.967 678.087 111.867 677.485 111.867C676.922 111.867 676.479 111.99 676.155 112.236C675.838 112.482 675.68 112.76 675.68 113.071C675.68 113.627 676.158 114.041 677.116 114.313L679.125 115.021C679.888 115.267 680.477 115.584 680.891 115.972C681.305 116.361 681.512 116.852 681.512 117.448C681.512 117.926 681.354 118.379 681.037 118.806C680.72 119.233 680.273 119.583 679.698 119.854C679.128 120.12 678.459 120.252 677.689 120.252ZM687.003 120.252C686.472 120.252 685.994 120.152 685.567 119.951C685.139 119.751 684.8 119.45 684.547 119.049C684.302 118.641 684.179 118.13 684.179 117.516V108.121H686.013V117.457C686.013 118.337 686.424 118.777 687.245 118.777C687.498 118.777 687.744 118.751 687.983 118.7C688.222 118.641 688.494 118.557 688.798 118.447L689.06 119.757C688.717 119.9 688.378 120.016 688.041 120.107C687.711 120.204 687.365 120.252 687.003 120.252ZM682.752 111.916V110.664H688.779V111.916H682.752ZM695.746 120V109.354C695.746 108.707 695.869 108.183 696.114 107.781C696.367 107.374 696.7 107.073 697.114 106.879C697.528 106.685 697.984 106.588 698.483 106.588C698.767 106.588 699.058 106.607 699.356 106.646C699.66 106.685 699.958 106.743 700.249 106.821L699.899 108.257C699.718 108.192 699.534 108.14 699.346 108.102C699.165 108.063 698.99 108.043 698.822 108.043C698.622 108.043 698.428 108.082 698.24 108.16C698.052 108.231 697.897 108.364 697.774 108.558C697.658 108.752 697.599 109.027 697.599 109.383V120H695.746ZM694.28 111.916V110.664H699.434V111.916H694.28ZM707.431 120L707.198 117.855V113.963C707.198 113.2 707.04 112.647 706.723 112.304C706.406 111.955 705.904 111.78 705.219 111.78C704.83 111.78 704.484 111.838 704.18 111.955C703.882 112.065 703.646 112.233 703.472 112.459C703.303 112.686 703.219 112.97 703.219 113.313H701.181C701.181 112.627 701.349 112.071 701.686 111.644C702.022 111.217 702.491 110.906 703.093 110.712C703.701 110.512 704.41 110.411 705.219 110.411C705.976 110.411 706.642 110.538 707.218 110.79C707.794 111.036 708.24 111.424 708.557 111.955C708.881 112.485 709.042 113.171 709.042 114.012V120H707.431ZM704.306 120.252C703.523 120.252 702.873 120.116 702.356 119.845C701.838 119.567 701.45 119.204 701.191 118.758C700.939 118.311 700.812 117.836 700.812 117.331C700.812 116.716 700.968 116.212 701.278 115.817C701.595 115.416 702.032 115.118 702.588 114.924C703.145 114.73 703.785 114.633 704.51 114.633C705.008 114.633 705.494 114.678 705.966 114.769C706.438 114.86 706.904 114.979 707.363 115.128V116.244C706.988 116.108 706.571 116.002 706.111 115.924C705.658 115.84 705.235 115.798 704.84 115.798C704.251 115.798 703.76 115.914 703.365 116.147C702.97 116.38 702.773 116.775 702.773 117.331C702.773 117.739 702.928 118.091 703.239 118.389C703.549 118.68 704.041 118.826 704.714 118.826C705.206 118.826 705.639 118.716 706.014 118.496C706.39 118.269 706.681 117.988 706.888 117.651C707.095 117.315 707.198 116.979 707.198 116.642H707.645C707.645 117.289 707.512 117.888 707.247 118.437C706.988 118.981 706.61 119.421 706.111 119.757C705.613 120.087 705.011 120.252 704.306 120.252ZM715.466 120.252C714.702 120.252 713.99 120.049 713.331 119.641C712.671 119.233 712.14 118.661 711.739 117.923C711.338 117.186 711.137 116.319 711.137 115.322C711.137 114.274 711.338 113.388 711.739 112.663C712.14 111.932 712.671 111.375 713.331 110.994C713.99 110.606 714.702 110.411 715.466 110.411C716.029 110.411 716.53 110.502 716.97 110.683C717.41 110.858 717.788 111.097 718.105 111.401C718.422 111.699 718.678 112.035 718.872 112.411C719.073 112.786 719.212 113.174 719.289 113.575L717.416 113.672C717.28 113.187 717.041 112.799 716.698 112.508C716.362 112.21 715.944 112.061 715.446 112.061C715.026 112.061 714.628 112.181 714.253 112.42C713.884 112.653 713.583 113.012 713.35 113.498C713.123 113.976 713.01 114.585 713.01 115.322C713.01 116.008 713.117 116.594 713.331 117.079C713.544 117.564 713.835 117.936 714.204 118.195C714.573 118.454 714.987 118.583 715.446 118.583C716.106 118.583 716.598 118.425 716.921 118.108C717.251 117.784 717.416 117.341 717.416 116.778H719.289C719.289 117.431 719.137 118.02 718.833 118.544C718.529 119.068 718.089 119.486 717.513 119.796C716.944 120.1 716.261 120.252 715.466 120.252ZM722.773 108.674C722.404 108.674 722.113 108.574 721.9 108.373C721.693 108.166 721.589 107.888 721.589 107.539C721.589 107.202 721.693 106.937 721.9 106.743C722.113 106.542 722.404 106.442 722.773 106.442C723.136 106.442 723.42 106.542 723.627 106.743C723.841 106.937 723.948 107.202 723.948 107.539C723.948 107.888 723.841 108.166 723.627 108.373C723.42 108.574 723.136 108.674 722.773 108.674ZM721.851 120V110.635H723.695V120H721.851ZM727.248 120V106.733H729.092V120H727.248ZM733.46 108.674C733.091 108.674 732.8 108.574 732.587 108.373C732.38 108.166 732.276 107.888 732.276 107.539C732.276 107.202 732.38 106.937 732.587 106.743C732.8 106.542 733.091 106.442 733.46 106.442C733.822 106.442 734.107 106.542 734.314 106.743C734.528 106.937 734.634 107.202 734.634 107.539C734.634 107.888 734.528 108.166 734.314 108.373C734.107 108.574 733.822 108.674 733.46 108.674ZM732.538 120V110.635H734.382V120H732.538ZM740.934 120.252C740.403 120.252 739.925 120.152 739.497 119.951C739.07 119.751 738.731 119.45 738.478 119.049C738.233 118.641 738.11 118.13 738.11 117.516V108.121H739.944V117.457C739.944 118.337 740.355 118.777 741.176 118.777C741.429 118.777 741.675 118.751 741.914 118.7C742.153 118.641 742.425 118.557 742.729 118.447L742.991 119.757C742.648 119.9 742.309 120.016 741.972 120.107C741.642 120.204 741.296 120.252 740.934 120.252ZM736.683 111.916V110.664H742.71V111.916H736.683ZM750.751 120L750.518 117.855V113.963C750.518 113.2 750.36 112.647 750.043 112.304C749.726 111.955 749.224 111.78 748.538 111.78C748.15 111.78 747.804 111.838 747.5 111.955C747.202 112.065 746.966 112.233 746.792 112.459C746.623 112.686 746.539 112.97 746.539 113.313H744.501C744.501 112.627 744.669 112.071 745.006 111.644C745.342 111.217 745.811 110.906 746.413 110.712C747.021 110.512 747.73 110.411 748.538 110.411C749.295 110.411 749.962 110.538 750.538 110.79C751.114 111.036 751.56 111.424 751.877 111.955C752.2 112.485 752.362 113.171 752.362 114.012V120H750.751ZM747.626 120.252C746.843 120.252 746.193 120.116 745.675 119.845C745.158 119.567 744.77 119.204 744.511 118.758C744.259 118.311 744.132 117.836 744.132 117.331C744.132 116.716 744.288 116.212 744.598 115.817C744.915 115.416 745.352 115.118 745.908 114.924C746.465 114.73 747.105 114.633 747.83 114.633C748.328 114.633 748.813 114.678 749.286 114.769C749.758 114.86 750.224 114.979 750.683 115.128V116.244C750.308 116.108 749.891 116.002 749.431 115.924C748.978 115.84 748.555 115.798 748.16 115.798C747.571 115.798 747.079 115.914 746.685 116.147C746.29 116.38 746.093 116.775 746.093 117.331C746.093 117.739 746.248 118.091 746.559 118.389C746.869 118.68 747.361 118.826 748.034 118.826C748.526 118.826 748.959 118.716 749.334 118.496C749.71 118.269 750.001 117.988 750.208 117.651C750.415 117.315 750.518 116.979 750.518 116.642H750.965C750.965 117.289 750.832 117.888 750.567 118.437C750.308 118.981 749.93 119.421 749.431 119.757C748.933 120.087 748.331 120.252 747.626 120.252ZM758.388 120.252C757.857 120.252 757.378 120.152 756.951 119.951C756.524 119.751 756.185 119.45 755.932 119.049C755.686 118.641 755.564 118.13 755.564 117.516V108.121H757.398V117.457C757.398 118.337 757.809 118.777 758.63 118.777C758.883 118.777 759.128 118.751 759.368 118.7C759.607 118.641 759.879 118.557 760.183 118.447L760.445 119.757C760.102 119.9 759.763 120.016 759.426 120.107C759.096 120.204 758.75 120.252 758.388 120.252ZM754.137 111.916V110.664H760.164V111.916H754.137ZM765.701 120.252C764.899 120.252 764.174 120.045 763.527 119.631C762.88 119.217 762.366 118.641 761.984 117.904C761.609 117.166 761.421 116.312 761.421 115.342C761.421 114.313 761.609 113.433 761.984 112.702C762.359 111.964 762.871 111.398 763.518 111.003C764.165 110.609 764.892 110.411 765.701 110.411C766.426 110.411 767.047 110.56 767.565 110.858C768.082 111.149 768.499 111.544 768.816 112.042C769.133 112.534 769.35 113.093 769.467 113.721C769.59 114.348 769.612 114.995 769.535 115.662H762.896V114.594H768.273L767.827 114.885C767.846 114.536 767.827 114.187 767.768 113.837C767.717 113.488 767.613 113.168 767.458 112.877C767.302 112.579 767.082 112.343 766.798 112.168C766.52 111.987 766.164 111.896 765.73 111.896C765.187 111.896 764.731 112.032 764.362 112.304C764 112.576 763.725 112.941 763.537 113.401C763.349 113.853 763.255 114.352 763.255 114.895V115.642C763.255 116.244 763.346 116.778 763.527 117.244C763.708 117.71 763.977 118.078 764.333 118.35C764.695 118.615 765.151 118.748 765.701 118.748C766.238 118.748 766.681 118.622 767.031 118.37C767.387 118.117 767.607 117.739 767.691 117.234H769.573C769.476 117.842 769.253 118.373 768.904 118.826C768.554 119.279 768.105 119.631 767.555 119.884C767.011 120.129 766.393 120.252 765.701 120.252ZM789.161 120V114.526C789.161 113.718 788.967 113.106 788.579 112.692C788.197 112.272 787.683 112.061 787.036 112.061C786.259 112.061 785.658 112.365 785.23 112.974C784.81 113.582 784.6 114.455 784.6 115.594H783.794C783.794 114.695 783.881 113.918 784.056 113.265C784.231 112.611 784.48 112.074 784.803 111.654C785.133 111.233 785.525 110.923 785.978 110.722C786.437 110.515 786.948 110.411 787.511 110.411C788.262 110.411 788.896 110.58 789.413 110.916C789.937 111.253 790.335 111.731 790.607 112.352C790.879 112.967 791.015 113.692 791.015 114.526V120H789.161ZM776.224 120V110.664H777.826L778.029 112.42C778.327 111.767 778.735 111.269 779.252 110.926C779.776 110.583 780.391 110.411 781.096 110.411C781.847 110.411 782.481 110.58 782.998 110.916C783.522 111.253 783.92 111.731 784.192 112.352C784.464 112.967 784.6 113.692 784.6 114.526V120H782.765V114.526C782.765 113.718 782.571 113.106 782.183 112.692C781.801 112.272 781.284 112.061 780.63 112.061C780.113 112.061 779.66 112.204 779.272 112.488C778.89 112.767 778.592 113.177 778.379 113.721C778.172 114.258 778.068 114.915 778.068 115.691V120H776.224ZM797.525 120.252C796.677 120.252 795.917 120.068 795.244 119.699C794.578 119.33 794.051 118.78 793.662 118.049C793.274 117.318 793.08 116.416 793.08 115.342C793.08 114.248 793.274 113.339 793.662 112.614C794.051 111.883 794.578 111.333 795.244 110.965C795.917 110.596 796.677 110.411 797.525 110.411C798.36 110.411 799.11 110.596 799.776 110.965C800.443 111.333 800.967 111.883 801.349 112.614C801.737 113.339 801.931 114.248 801.931 115.342C801.931 116.416 801.737 117.318 801.349 118.049C800.967 118.78 800.443 119.33 799.776 119.699C799.11 120.068 798.36 120.252 797.525 120.252ZM797.467 118.641C798.004 118.641 798.466 118.512 798.854 118.253C799.249 117.994 799.55 117.619 799.757 117.127C799.971 116.629 800.077 116.034 800.077 115.342C800.077 114.281 799.861 113.459 799.427 112.877C799 112.294 798.382 112.003 797.573 112.003C797.03 112.003 796.561 112.136 796.166 112.401C795.778 112.66 795.477 113.038 795.264 113.536C795.057 114.028 794.953 114.63 794.953 115.342C794.953 116.383 795.17 117.195 795.603 117.778C796.037 118.353 796.658 118.641 797.467 118.641ZM804.293 120V110.635H806.137V120H804.293ZM805.632 115.827C805.632 114.63 805.755 113.637 806.001 112.847C806.253 112.052 806.603 111.46 807.049 111.071C807.502 110.683 808.033 110.489 808.641 110.489C808.822 110.489 808.99 110.502 809.145 110.528C809.307 110.554 809.466 110.589 809.621 110.635L809.553 112.469C809.378 112.424 809.187 112.385 808.98 112.352C808.78 112.314 808.595 112.294 808.427 112.294C807.897 112.294 807.463 112.437 807.127 112.721C806.79 112.999 806.541 113.404 806.38 113.934C806.218 114.458 806.137 115.089 806.137 115.827H805.632ZM814.416 120.252C813.613 120.252 812.889 120.045 812.242 119.631C811.595 119.217 811.08 118.641 810.699 117.904C810.323 117.166 810.136 116.312 810.136 115.342C810.136 114.313 810.323 113.433 810.699 112.702C811.074 111.964 811.585 111.398 812.232 111.003C812.879 110.609 813.607 110.411 814.416 110.411C815.14 110.411 815.761 110.56 816.279 110.858C816.797 111.149 817.214 111.544 817.531 112.042C817.848 112.534 818.065 113.093 818.181 113.721C818.304 114.348 818.327 114.995 818.249 115.662H811.611V114.594H816.988L816.541 114.885C816.56 114.536 816.541 114.187 816.483 113.837C816.431 113.488 816.328 113.168 816.172 112.877C816.017 112.579 815.797 112.343 815.512 112.168C815.234 111.987 814.878 111.896 814.445 111.896C813.901 111.896 813.445 112.032 813.076 112.304C812.714 112.576 812.439 112.941 812.251 113.401C812.064 113.853 811.97 114.352 811.97 114.895V115.642C811.97 116.244 812.061 116.778 812.242 117.244C812.423 117.71 812.691 118.078 813.047 118.35C813.41 118.615 813.866 118.748 814.416 118.748C814.953 118.748 815.396 118.622 815.745 118.37C816.101 118.117 816.321 117.739 816.405 117.234H818.288C818.191 117.842 817.968 118.373 817.618 118.826C817.269 119.279 816.819 119.631 816.269 119.884C815.726 120.129 815.108 120.252 814.416 120.252ZM828.287 120.252C827.485 120.252 826.76 120.045 826.113 119.631C825.466 119.217 824.952 118.641 824.57 117.904C824.195 117.166 824.007 116.312 824.007 115.342C824.007 114.313 824.195 113.433 824.57 112.702C824.945 111.964 825.456 111.398 826.103 111.003C826.75 110.609 827.478 110.411 828.287 110.411C829.012 110.411 829.633 110.56 830.15 110.858C830.668 111.149 831.085 111.544 831.402 112.042C831.719 112.534 831.936 113.093 832.053 113.721C832.175 114.348 832.198 114.995 832.121 115.662H825.482V114.594H830.859L830.412 114.885C830.432 114.536 830.412 114.187 830.354 113.837C830.302 113.488 830.199 113.168 830.044 112.877C829.888 112.579 829.668 112.343 829.384 112.168C829.105 111.987 828.75 111.896 828.316 111.896C827.773 111.896 827.317 112.032 826.948 112.304C826.585 112.576 826.31 112.941 826.123 113.401C825.935 113.853 825.841 114.352 825.841 114.895V115.642C825.841 116.244 825.932 116.778 826.113 117.244C826.294 117.71 826.563 118.078 826.919 118.35C827.281 118.615 827.737 118.748 828.287 118.748C828.824 118.748 829.267 118.622 829.617 118.37C829.972 118.117 830.192 117.739 830.277 117.234H832.159C832.062 117.842 831.839 118.373 831.49 118.826C831.14 119.279 830.691 119.631 830.141 119.884C829.597 120.129 828.979 120.252 828.287 120.252ZM835.081 120V109.354C835.081 108.707 835.204 108.183 835.449 107.781C835.702 107.374 836.035 107.073 836.449 106.879C836.863 106.685 837.319 106.588 837.817 106.588C838.102 106.588 838.393 106.607 838.691 106.646C838.995 106.685 839.293 106.743 839.584 106.821L839.234 108.257C839.053 108.192 838.869 108.14 838.681 108.102C838.5 108.063 838.325 108.043 838.157 108.043C837.957 108.043 837.762 108.082 837.575 108.16C837.387 108.231 837.232 108.364 837.109 108.558C836.993 108.752 836.934 109.027 836.934 109.383V120H835.081ZM833.615 111.916V110.664H838.769V111.916H833.615ZM841.438 120V109.354C841.438 108.707 841.561 108.183 841.807 107.781C842.059 107.374 842.393 107.073 842.807 106.879C843.221 106.685 843.677 106.588 844.175 106.588C844.46 106.588 844.751 106.607 845.048 106.646C845.353 106.685 845.65 106.743 845.941 106.821L845.592 108.257C845.411 108.192 845.226 108.14 845.039 108.102C844.858 108.063 844.683 108.043 844.515 108.043C844.314 108.043 844.12 108.082 843.932 108.16C843.745 108.231 843.589 108.364 843.467 108.558C843.35 108.752 843.292 109.027 843.292 109.383V120H841.438ZM839.973 111.916V110.664H845.126V111.916H839.973ZM848.833 108.674C848.465 108.674 848.173 108.574 847.96 108.373C847.753 108.166 847.649 107.888 847.649 107.539C847.649 107.202 847.753 106.937 847.96 106.743C848.173 106.542 848.465 106.442 848.833 106.442C849.196 106.442 849.48 106.542 849.687 106.743C849.901 106.937 850.008 107.202 850.008 107.539C850.008 107.888 849.901 108.166 849.687 108.373C849.48 108.574 849.196 108.674 848.833 108.674ZM847.911 120V110.635H849.755V120H847.911ZM856.715 120.252C855.952 120.252 855.24 120.049 854.58 119.641C853.92 119.233 853.39 118.661 852.988 117.923C852.587 117.186 852.387 116.319 852.387 115.322C852.387 114.274 852.587 113.388 852.988 112.663C853.39 111.932 853.92 111.375 854.58 110.994C855.24 110.606 855.952 110.411 856.715 110.411C857.278 110.411 857.779 110.502 858.219 110.683C858.659 110.858 859.038 111.097 859.355 111.401C859.672 111.699 859.927 112.035 860.122 112.411C860.322 112.786 860.461 113.174 860.539 113.575L858.666 113.672C858.53 113.187 858.291 112.799 857.948 112.508C857.611 112.21 857.194 112.061 856.696 112.061C856.275 112.061 855.877 112.181 855.502 112.42C855.133 112.653 854.832 113.012 854.599 113.498C854.373 113.976 854.26 114.585 854.26 115.322C854.26 116.008 854.366 116.594 854.58 117.079C854.794 117.564 855.085 117.936 855.453 118.195C855.822 118.454 856.236 118.583 856.696 118.583C857.356 118.583 857.847 118.425 858.171 118.108C858.501 117.784 858.666 117.341 858.666 116.778H860.539C860.539 117.431 860.387 118.02 860.083 118.544C859.779 119.068 859.339 119.486 858.763 119.796C858.193 120.1 857.511 120.252 856.715 120.252ZM864.023 108.674C863.654 108.674 863.363 108.574 863.149 108.373C862.942 108.166 862.839 107.888 862.839 107.539C862.839 107.202 862.942 106.937 863.149 106.743C863.363 106.542 863.654 106.442 864.023 106.442C864.385 106.442 864.67 106.542 864.877 106.743C865.09 106.937 865.197 107.202 865.197 107.539C865.197 107.888 865.09 108.166 864.877 108.373C864.67 108.574 864.385 108.674 864.023 108.674ZM863.101 120V110.635H864.945V120H863.101ZM871.846 120.252C871.044 120.252 870.319 120.045 869.672 119.631C869.025 119.217 868.511 118.641 868.129 117.904C867.754 117.166 867.566 116.312 867.566 115.342C867.566 114.313 867.754 113.433 868.129 112.702C868.504 111.964 869.015 111.398 869.662 111.003C870.309 110.609 871.037 110.411 871.846 110.411C872.57 110.411 873.192 110.56 873.709 110.858C874.227 111.149 874.644 111.544 874.961 112.042C875.278 112.534 875.495 113.093 875.611 113.721C875.734 114.348 875.757 114.995 875.679 115.662H869.041V114.594H874.418L873.971 114.885C873.991 114.536 873.971 114.187 873.913 113.837C873.861 113.488 873.758 113.168 873.602 112.877C873.447 112.579 873.227 112.343 872.942 112.168C872.664 111.987 872.308 111.896 871.875 111.896C871.331 111.896 870.875 112.032 870.507 112.304C870.144 112.576 869.869 112.941 869.682 113.401C869.494 113.853 869.4 114.352 869.4 114.895V115.642C869.4 116.244 869.491 116.778 869.672 117.244C869.853 117.71 870.122 118.078 870.477 118.35C870.84 118.615 871.296 118.748 871.846 118.748C872.383 118.748 872.826 118.622 873.175 118.37C873.531 118.117 873.751 117.739 873.835 117.234H875.718C875.621 117.842 875.398 118.373 875.048 118.826C874.699 119.279 874.249 119.631 873.699 119.884C873.156 120.129 872.538 120.252 871.846 120.252ZM884.657 120V114.526C884.657 113.718 884.462 113.106 884.074 112.692C883.693 112.272 883.175 112.061 882.521 112.061C882.004 112.061 881.551 112.204 881.163 112.488C880.781 112.767 880.483 113.177 880.27 113.721C880.063 114.258 879.959 114.915 879.959 115.691H879.299C879.299 114.546 879.445 113.582 879.736 112.799C880.034 112.016 880.458 111.424 881.007 111.023C881.557 110.615 882.217 110.411 882.987 110.411C883.738 110.411 884.372 110.58 884.889 110.916C885.414 111.253 885.811 111.731 886.083 112.352C886.355 112.967 886.491 113.692 886.491 114.526V120H884.657ZM878.115 120V110.664H879.717L879.959 112.682V120H878.115ZM892.514 120.252C891.983 120.252 891.504 120.152 891.077 119.951C890.65 119.751 890.311 119.45 890.058 119.049C889.813 118.641 889.69 118.13 889.69 117.516V108.121H891.524V117.457C891.524 118.337 891.935 118.777 892.756 118.777C893.009 118.777 893.255 118.751 893.494 118.7C893.733 118.641 894.005 118.557 894.309 118.447L894.571 119.757C894.228 119.9 893.889 120.016 893.552 120.107C893.222 120.204 892.876 120.252 892.514 120.252ZM888.263 111.916V110.664H894.29V111.916H888.263ZM901.257 120V109.354C901.257 108.707 901.38 108.183 901.625 107.781C901.878 107.374 902.211 107.073 902.625 106.879C903.039 106.685 903.495 106.588 903.993 106.588C904.278 106.588 904.569 106.607 904.867 106.646C905.171 106.685 905.469 106.743 905.76 106.821L905.41 108.257C905.229 108.192 905.045 108.14 904.857 108.102C904.676 108.063 904.501 108.043 904.333 108.043C904.133 108.043 903.938 108.082 903.751 108.16C903.563 108.231 903.408 108.364 903.285 108.558C903.169 108.752 903.11 109.027 903.11 109.383V120H901.257ZM899.791 111.916V110.664H904.945V111.916H899.791ZM910.603 120.252C909.756 120.252 908.996 120.068 908.323 119.699C907.656 119.33 907.129 118.78 906.741 118.049C906.353 117.318 906.158 116.416 906.158 115.342C906.158 114.248 906.353 113.339 906.741 112.614C907.129 111.883 907.656 111.333 908.323 110.965C908.996 110.596 909.756 110.411 910.603 110.411C911.438 110.411 912.188 110.596 912.855 110.965C913.521 111.333 914.045 111.883 914.427 112.614C914.815 113.339 915.009 114.248 915.009 115.342C915.009 116.416 914.815 117.318 914.427 118.049C914.045 118.78 913.521 119.33 912.855 119.699C912.188 120.068 911.438 120.252 910.603 120.252ZM910.545 118.641C911.082 118.641 911.545 118.512 911.933 118.253C912.328 117.994 912.628 117.619 912.835 117.127C913.049 116.629 913.156 116.034 913.156 115.342C913.156 114.281 912.939 113.459 912.505 112.877C912.078 112.294 911.461 112.003 910.652 112.003C910.108 112.003 909.639 112.136 909.245 112.401C908.856 112.66 908.556 113.038 908.342 113.536C908.135 114.028 908.031 114.63 908.031 115.342C908.031 116.383 908.248 117.195 908.682 117.778C909.115 118.353 909.736 118.641 910.545 118.641ZM920.885 120.252C920.037 120.252 919.277 120.068 918.604 119.699C917.937 119.33 917.41 118.78 917.022 118.049C916.634 117.318 916.44 116.416 916.44 115.342C916.44 114.248 916.634 113.339 917.022 112.614C917.41 111.883 917.937 111.333 918.604 110.965C919.277 110.596 920.037 110.411 920.885 110.411C921.719 110.411 922.47 110.596 923.136 110.965C923.803 111.333 924.327 111.883 924.708 112.614C925.097 113.339 925.291 114.248 925.291 115.342C925.291 116.416 925.097 117.318 924.708 118.049C924.327 118.78 923.803 119.33 923.136 119.699C922.47 120.068 921.719 120.252 920.885 120.252ZM920.826 118.641C921.363 118.641 921.826 118.512 922.214 118.253C922.609 117.994 922.91 117.619 923.117 117.127C923.33 116.629 923.437 116.034 923.437 115.342C923.437 114.281 923.22 113.459 922.787 112.877C922.36 112.294 921.742 112.003 920.933 112.003C920.39 112.003 919.921 112.136 919.526 112.401C919.138 112.66 918.837 113.038 918.623 113.536C918.416 114.028 918.313 114.63 918.313 115.342C918.313 116.383 918.529 117.195 918.963 117.778C919.396 118.353 920.018 118.641 920.826 118.641ZM931.04 120.252C930.276 120.252 929.574 120.049 928.934 119.641C928.293 119.227 927.782 118.651 927.4 117.913C927.025 117.169 926.837 116.296 926.837 115.293C926.837 114.297 927.022 113.433 927.391 112.702C927.766 111.971 928.261 111.408 928.875 111.013C929.49 110.612 930.173 110.411 930.923 110.411C931.609 110.411 932.207 110.58 932.719 110.916C933.23 111.246 933.624 111.728 933.903 112.362C934.187 112.996 934.33 113.769 934.33 114.682H933.689C933.689 114.119 933.576 113.643 933.349 113.255C933.123 112.86 932.829 112.563 932.466 112.362C932.104 112.162 931.716 112.061 931.302 112.061C930.816 112.061 930.376 112.194 929.982 112.459C929.594 112.718 929.283 113.09 929.05 113.575C928.824 114.054 928.71 114.627 928.71 115.293C928.71 115.966 928.824 116.551 929.05 117.05C929.283 117.541 929.594 117.92 929.982 118.185C930.376 118.45 930.813 118.583 931.292 118.583C931.687 118.583 932.065 118.48 932.427 118.273C932.796 118.059 933.097 117.755 933.33 117.36C933.569 116.966 933.689 116.496 933.689 115.953H934.33C934.33 116.885 934.181 117.671 933.883 118.311C933.592 118.952 933.197 119.437 932.699 119.767C932.201 120.091 931.648 120.252 931.04 120.252ZM934.009 120L933.689 117.758V106.733H935.543V120H934.009ZM553.548 152.252C552.701 152.252 551.941 152.068 551.268 151.699C550.601 151.33 550.074 150.78 549.686 150.049C549.298 149.318 549.104 148.416 549.104 147.342C549.104 146.248 549.298 145.339 549.686 144.614C550.074 143.883 550.601 143.333 551.268 142.965C551.941 142.596 552.701 142.411 553.548 142.411C554.383 142.411 555.134 142.596 555.8 142.965C556.466 143.333 556.99 143.883 557.372 144.614C557.76 145.339 557.954 146.248 557.954 147.342C557.954 148.416 557.76 149.318 557.372 150.049C556.99 150.78 556.466 151.33 555.8 151.699C555.134 152.068 554.383 152.252 553.548 152.252ZM553.49 150.641C554.027 150.641 554.49 150.512 554.878 150.253C555.273 149.994 555.574 149.619 555.781 149.127C555.994 148.629 556.101 148.034 556.101 147.342C556.101 146.281 555.884 145.459 555.451 144.877C555.024 144.294 554.406 144.003 553.597 144.003C553.053 144.003 552.584 144.136 552.19 144.401C551.802 144.66 551.501 145.038 551.287 145.536C551.08 146.028 550.977 146.63 550.977 147.342C550.977 148.383 551.193 149.195 551.627 149.778C552.06 150.353 552.681 150.641 553.49 150.641ZM560.316 152V142.635H562.16V152H560.316ZM561.656 147.827C561.656 146.63 561.779 145.637 562.025 144.847C562.277 144.052 562.626 143.46 563.073 143.071C563.526 142.683 564.056 142.489 564.664 142.489C564.845 142.489 565.014 142.502 565.169 142.528C565.331 142.554 565.489 142.589 565.644 142.635L565.577 144.469C565.402 144.424 565.211 144.385 565.004 144.352C564.803 144.314 564.619 144.294 564.451 144.294C563.92 144.294 563.487 144.437 563.15 144.721C562.814 144.999 562.565 145.404 562.403 145.934C562.241 146.458 562.16 147.089 562.16 147.827H561.656ZM570.478 152.252C569.715 152.252 569.013 152.049 568.372 151.641C567.731 151.227 567.22 150.651 566.839 149.913C566.463 149.169 566.276 148.296 566.276 147.293C566.276 146.297 566.46 145.433 566.829 144.702C567.204 143.971 567.699 143.408 568.314 143.013C568.928 142.612 569.611 142.411 570.362 142.411C571.047 142.411 571.646 142.58 572.157 142.916C572.668 143.246 573.063 143.728 573.341 144.362C573.626 144.996 573.768 145.769 573.768 146.682H573.127C573.127 146.119 573.014 145.643 572.788 145.255C572.561 144.86 572.267 144.563 571.905 144.362C571.542 144.162 571.154 144.061 570.74 144.061C570.255 144.061 569.815 144.194 569.42 144.459C569.032 144.718 568.721 145.09 568.488 145.575C568.262 146.054 568.149 146.627 568.149 147.293C568.149 147.966 568.262 148.551 568.488 149.05C568.721 149.541 569.032 149.92 569.42 150.185C569.815 150.45 570.252 150.583 570.73 150.583C571.125 150.583 571.504 150.48 571.866 150.273C572.235 150.059 572.535 149.755 572.768 149.36C573.008 148.966 573.127 148.496 573.127 147.953H573.768C573.768 148.885 573.619 149.671 573.322 150.311C573.03 150.952 572.636 151.437 572.138 151.767C571.639 152.091 571.086 152.252 570.478 152.252ZM573.448 152L573.127 149.758V138.733H574.981V152H573.448ZM581.63 152.252C580.828 152.252 580.103 152.045 579.456 151.631C578.809 151.217 578.295 150.641 577.913 149.904C577.538 149.166 577.35 148.312 577.35 147.342C577.35 146.313 577.538 145.433 577.913 144.702C578.289 143.964 578.8 143.398 579.447 143.003C580.094 142.609 580.822 142.411 581.63 142.411C582.355 142.411 582.976 142.56 583.494 142.858C584.011 143.149 584.429 143.544 584.746 144.042C585.063 144.534 585.279 145.093 585.396 145.721C585.519 146.348 585.541 146.995 585.464 147.662H578.826V146.594H584.202L583.756 146.885C583.775 146.536 583.756 146.187 583.697 145.837C583.646 145.488 583.542 145.168 583.387 144.877C583.232 144.579 583.012 144.343 582.727 144.168C582.449 143.987 582.093 143.896 581.659 143.896C581.116 143.896 580.66 144.032 580.291 144.304C579.929 144.576 579.654 144.941 579.466 145.401C579.278 145.853 579.185 146.352 579.185 146.895V147.642C579.185 148.244 579.275 148.778 579.456 149.244C579.638 149.71 579.906 150.078 580.262 150.35C580.624 150.615 581.08 150.748 581.63 150.748C582.167 150.748 582.61 150.622 582.96 150.37C583.316 150.117 583.536 149.739 583.62 149.234H585.503C585.406 149.842 585.182 150.373 584.833 150.826C584.484 151.279 584.034 151.631 583.484 151.884C582.94 152.129 582.323 152.252 581.63 152.252ZM587.9 152V142.635H589.744V152H587.9ZM589.239 147.827C589.239 146.63 589.362 145.637 589.608 144.847C589.86 144.052 590.21 143.46 590.656 143.071C591.109 142.683 591.64 142.489 592.248 142.489C592.429 142.489 592.597 142.502 592.752 142.528C592.914 142.554 593.073 142.589 593.228 142.635L593.16 144.469C592.985 144.424 592.794 144.385 592.587 144.352C592.387 144.314 592.202 144.294 592.034 144.294C591.504 144.294 591.07 144.437 590.734 144.721C590.397 144.999 590.148 145.404 589.986 145.934C589.825 146.458 589.744 147.089 589.744 147.827H589.239ZM595.742 140.674C595.373 140.674 595.082 140.574 594.869 140.373C594.661 140.166 594.558 139.888 594.558 139.539C594.558 139.202 594.661 138.937 594.869 138.743C595.082 138.542 595.373 138.442 595.742 138.442C596.104 138.442 596.389 138.542 596.596 138.743C596.81 138.937 596.916 139.202 596.916 139.539C596.916 139.888 596.81 140.166 596.596 140.373C596.389 140.574 596.104 140.674 595.742 140.674ZM594.82 152V142.635H596.664V152H594.82ZM606.758 152V146.526C606.758 145.718 606.564 145.106 606.176 144.692C605.794 144.272 605.276 144.061 604.623 144.061C604.105 144.061 603.652 144.204 603.264 144.488C602.883 144.767 602.585 145.177 602.371 145.721C602.164 146.258 602.061 146.915 602.061 147.691H601.401C601.401 146.546 601.546 145.582 601.838 144.799C602.135 144.016 602.559 143.424 603.109 143.023C603.659 142.615 604.319 142.411 605.089 142.411C605.839 142.411 606.473 142.58 606.991 142.916C607.515 143.253 607.913 143.731 608.185 144.352C608.456 144.967 608.592 145.692 608.592 146.526V152H606.758ZM600.217 152V142.664H601.818L602.061 144.682V152H600.217ZM615.052 156.814C614.043 156.814 613.172 156.675 612.441 156.396C611.717 156.118 611.157 155.746 610.762 155.28C610.368 154.814 610.17 154.307 610.17 153.757C610.17 153.058 610.426 152.521 610.937 152.146C611.448 151.777 612.098 151.592 612.888 151.592L614.082 152.155C613.409 152.155 612.888 152.291 612.519 152.563C612.157 152.835 611.976 153.203 611.976 153.669C611.976 154.155 612.241 154.552 612.771 154.863C613.302 155.18 614.062 155.339 615.052 155.339C615.77 155.339 616.401 155.232 616.944 155.018C617.488 154.811 617.909 154.536 618.206 154.193C618.504 153.857 618.653 153.495 618.653 153.106C618.653 152.841 618.556 152.615 618.361 152.427C618.174 152.246 617.886 152.155 617.498 152.155H614.082C613.447 152.155 612.888 152.058 612.403 151.864C611.924 151.664 611.549 151.402 611.277 151.078C611.005 150.755 610.869 150.395 610.869 150.001C610.869 149.613 610.979 149.279 611.199 149.001C611.419 148.716 611.71 148.503 612.073 148.361C612.435 148.212 612.833 148.137 613.266 148.137L613.684 148.778C613.496 148.778 613.308 148.82 613.121 148.904C612.933 148.982 612.778 149.101 612.655 149.263C612.532 149.425 612.47 149.626 612.47 149.865C612.47 150.143 612.587 150.376 612.82 150.564C613.059 150.745 613.48 150.835 614.082 150.835H617.498C618.429 150.835 619.16 151.02 619.691 151.389C620.222 151.757 620.487 152.294 620.487 153C620.487 153.64 620.267 154.252 619.827 154.834C619.387 155.416 618.759 155.892 617.944 156.26C617.135 156.629 616.171 156.814 615.052 156.814ZM615.256 149.195C614.531 149.195 613.871 149.056 613.276 148.778C612.687 148.493 612.218 148.099 611.869 147.594C611.519 147.083 611.345 146.488 611.345 145.808C611.345 145.122 611.519 144.527 611.869 144.022C612.218 143.511 612.687 143.117 613.276 142.838C613.871 142.554 614.531 142.411 615.256 142.411C615.961 142.411 616.605 142.554 617.187 142.838C617.776 143.117 618.245 143.511 618.594 144.022C618.95 144.527 619.128 145.122 619.128 145.808C619.128 146.488 618.95 147.083 618.594 147.594C618.245 148.099 617.776 148.493 617.187 148.778C616.605 149.056 615.961 149.195 615.256 149.195ZM615.256 147.895C615.922 147.895 616.43 147.697 616.78 147.303C617.135 146.902 617.313 146.403 617.313 145.808C617.313 145.187 617.135 144.686 616.78 144.304C616.43 143.922 615.922 143.731 615.256 143.731C614.602 143.731 614.091 143.922 613.722 144.304C613.36 144.686 613.179 145.187 613.179 145.808C613.179 146.403 613.36 146.902 613.722 147.303C614.091 147.697 614.602 147.895 615.256 147.895ZM618.429 143.906L617.566 143.489C617.566 142.932 617.682 142.447 617.915 142.033C618.148 141.619 618.471 141.295 618.885 141.062C619.3 140.83 619.775 140.713 620.312 140.713L620.196 142.509C619.62 142.509 619.18 142.622 618.876 142.848C618.578 143.075 618.429 143.427 618.429 143.906ZM624.901 142.664H626.822L629.045 150.156H628.841L630.986 143.139H632.587L634.722 150.175H634.528L636.751 142.664H638.595L635.528 152H633.723L631.607 145.401H631.888L629.802 152H627.997L624.901 142.664ZM646.878 152V146.526C646.878 145.718 646.684 145.106 646.296 144.692C645.914 144.272 645.397 144.061 644.743 144.061C644.226 144.061 643.773 144.204 643.385 144.488C643.003 144.767 642.705 145.177 642.492 145.721C642.285 146.258 642.181 146.915 642.181 147.691H641.521C641.521 146.546 641.667 145.582 641.958 144.799C642.256 144.016 642.679 143.424 643.229 143.023C643.779 142.615 644.439 142.411 645.209 142.411C645.96 142.411 646.594 142.58 647.111 142.916C647.635 143.253 648.033 143.731 648.305 144.352C648.577 144.967 648.713 145.692 648.713 146.526V152H646.878ZM640.337 152V138.733H642.181V152H640.337ZM652.804 140.674C652.436 140.674 652.144 140.574 651.931 140.373C651.724 140.166 651.62 139.888 651.62 139.539C651.62 139.202 651.724 138.937 651.931 138.743C652.144 138.542 652.436 138.442 652.804 138.442C653.167 138.442 653.451 138.542 653.658 138.743C653.872 138.937 653.979 139.202 653.979 139.539C653.979 139.888 653.872 140.166 653.658 140.373C653.451 140.574 653.167 140.674 652.804 140.674ZM651.882 152V142.635H653.726V152H651.882ZM657.279 152V138.733H659.123V152H657.279ZM665.772 152.252C664.97 152.252 664.245 152.045 663.598 151.631C662.951 151.217 662.437 150.641 662.055 149.904C661.68 149.166 661.492 148.312 661.492 147.342C661.492 146.313 661.68 145.433 662.055 144.702C662.43 143.964 662.941 143.398 663.588 143.003C664.235 142.609 664.963 142.411 665.772 142.411C666.497 142.411 667.118 142.56 667.635 142.858C668.153 143.149 668.57 143.544 668.887 144.042C669.204 144.534 669.421 145.093 669.537 145.721C669.66 146.348 669.683 146.995 669.605 147.662H662.967V146.594H668.344L667.897 146.885C667.917 146.536 667.897 146.187 667.839 145.837C667.787 145.488 667.684 145.168 667.528 144.877C667.373 144.579 667.153 144.343 666.869 144.168C666.59 143.987 666.234 143.896 665.801 143.896C665.258 143.896 664.801 144.032 664.433 144.304C664.07 144.576 663.795 144.941 663.608 145.401C663.42 145.853 663.326 146.352 663.326 146.895V147.642C663.326 148.244 663.417 148.778 663.598 149.244C663.779 149.71 664.048 150.078 664.403 150.35C664.766 150.615 665.222 150.748 665.772 150.748C666.309 150.748 666.752 150.622 667.101 150.37C667.457 150.117 667.677 149.739 667.761 149.234H669.644C669.547 149.842 669.324 150.373 668.975 150.826C668.625 151.279 668.175 151.631 667.626 151.884C667.082 152.129 666.464 152.252 665.772 152.252ZM679.711 152.252C678.805 152.252 678.042 152.126 677.421 151.874C676.8 151.615 676.324 151.259 675.994 150.806C675.671 150.347 675.502 149.81 675.489 149.195H677.227C677.253 149.732 677.466 150.13 677.867 150.389C678.275 150.648 678.825 150.777 679.517 150.777C679.886 150.777 680.219 150.719 680.517 150.602C680.821 150.486 681.06 150.328 681.235 150.127C681.416 149.926 681.507 149.7 681.507 149.448C681.507 149.131 681.39 148.881 681.157 148.7C680.924 148.513 680.549 148.348 680.031 148.205L678.12 147.555C677.356 147.296 676.771 146.953 676.363 146.526C675.955 146.093 675.751 145.575 675.751 144.974C675.751 144.204 676.094 143.586 676.78 143.12C677.466 142.648 678.375 142.411 679.507 142.411C680.678 142.411 681.581 142.661 682.215 143.159C682.856 143.65 683.189 144.268 683.215 145.012H681.439C681.393 144.644 681.209 144.362 680.885 144.168C680.568 143.967 680.109 143.867 679.507 143.867C678.944 143.867 678.501 143.99 678.178 144.236C677.861 144.482 677.702 144.76 677.702 145.071C677.702 145.627 678.181 146.041 679.139 146.313L681.147 147.021C681.911 147.267 682.5 147.584 682.914 147.972C683.328 148.361 683.535 148.852 683.535 149.448C683.535 149.926 683.376 150.379 683.059 150.806C682.742 151.233 682.296 151.583 681.72 151.854C681.151 152.12 680.481 152.252 679.711 152.252ZM689.025 152.252C688.495 152.252 688.016 152.152 687.589 151.951C687.162 151.751 686.822 151.45 686.57 151.049C686.324 150.641 686.201 150.13 686.201 149.516V140.121H688.035V149.457C688.035 150.337 688.446 150.777 689.268 150.777C689.52 150.777 689.766 150.751 690.006 150.7C690.245 150.641 690.517 150.557 690.821 150.447L691.083 151.757C690.74 151.9 690.4 152.016 690.064 152.107C689.734 152.204 689.388 152.252 689.025 152.252ZM684.775 143.916V142.664H690.801V143.916H684.775ZM698.843 152L698.61 149.855V145.963C698.61 145.2 698.451 144.647 698.134 144.304C697.817 143.955 697.316 143.78 696.63 143.78C696.242 143.78 695.896 143.838 695.592 143.955C695.294 144.065 695.058 144.233 694.883 144.459C694.715 144.686 694.631 144.97 694.631 145.313H692.593C692.593 144.627 692.761 144.071 693.097 143.644C693.434 143.217 693.903 142.906 694.505 142.712C695.113 142.512 695.821 142.411 696.63 142.411C697.387 142.411 698.053 142.538 698.629 142.79C699.205 143.036 699.651 143.424 699.968 143.955C700.292 144.485 700.454 145.171 700.454 146.012V152H698.843ZM695.718 152.252C694.935 152.252 694.285 152.116 693.767 151.845C693.249 151.567 692.861 151.204 692.602 150.758C692.35 150.311 692.224 149.836 692.224 149.331C692.224 148.716 692.379 148.212 692.69 147.817C693.007 147.416 693.444 147.118 694 146.924C694.556 146.73 695.197 146.633 695.922 146.633C696.42 146.633 696.905 146.678 697.377 146.769C697.85 146.86 698.315 146.979 698.775 147.128V148.244C698.4 148.108 697.982 148.002 697.523 147.924C697.07 147.84 696.646 147.798 696.251 147.798C695.663 147.798 695.171 147.914 694.776 148.147C694.382 148.38 694.184 148.775 694.184 149.331C694.184 149.739 694.34 150.091 694.65 150.389C694.961 150.68 695.452 150.826 696.125 150.826C696.617 150.826 697.051 150.716 697.426 150.496C697.801 150.269 698.092 149.988 698.299 149.651C698.506 149.315 698.61 148.979 698.61 148.642H699.056C699.056 149.289 698.924 149.888 698.658 150.437C698.4 150.981 698.021 151.421 697.523 151.757C697.025 152.087 696.423 152.252 695.718 152.252ZM710.022 152V146.526C710.022 145.718 709.827 145.106 709.439 144.692C709.057 144.272 708.54 144.061 707.886 144.061C707.369 144.061 706.916 144.204 706.528 144.488C706.146 144.767 705.848 145.177 705.635 145.721C705.428 146.258 705.324 146.915 705.324 147.691H704.664C704.664 146.546 704.81 145.582 705.101 144.799C705.399 144.016 705.822 143.424 706.372 143.023C706.922 142.615 707.582 142.411 708.352 142.411C709.103 142.411 709.737 142.58 710.254 142.916C710.778 143.253 711.176 143.731 711.448 144.352C711.72 144.967 711.856 145.692 711.856 146.526V152H710.022ZM703.48 152V142.664H705.082L705.324 144.682V152H703.48ZM718.267 152.252C717.504 152.252 716.802 152.049 716.161 151.641C715.52 151.227 715.009 150.651 714.628 149.913C714.252 149.169 714.065 148.296 714.065 147.293C714.065 146.297 714.249 145.433 714.618 144.702C714.993 143.971 715.488 143.408 716.103 143.013C716.717 142.612 717.4 142.411 718.151 142.411C718.836 142.411 719.435 142.58 719.946 142.916C720.457 143.246 720.852 143.728 721.13 144.362C721.415 144.996 721.557 145.769 721.557 146.682H720.916C720.916 146.119 720.803 145.643 720.577 145.255C720.35 144.86 720.056 144.563 719.694 144.362C719.331 144.162 718.943 144.061 718.529 144.061C718.044 144.061 717.604 144.194 717.209 144.459C716.821 144.718 716.51 145.09 716.277 145.575C716.051 146.054 715.938 146.627 715.938 147.293C715.938 147.966 716.051 148.551 716.277 149.05C716.51 149.541 716.821 149.92 717.209 150.185C717.604 150.45 718.041 150.583 718.519 150.583C718.914 150.583 719.292 150.48 719.655 150.273C720.024 150.059 720.324 149.755 720.557 149.36C720.797 148.966 720.916 148.496 720.916 147.953H721.557C721.557 148.885 721.408 149.671 721.111 150.311C720.819 150.952 720.425 151.437 719.927 151.767C719.428 152.091 718.875 152.252 718.267 152.252ZM721.237 152L720.916 149.758V138.733H722.77V152H721.237ZM727.139 140.674C726.77 140.674 726.479 140.574 726.265 140.373C726.058 140.166 725.955 139.888 725.955 139.539C725.955 139.202 726.058 138.937 726.265 138.743C726.479 138.542 726.77 138.442 727.139 138.442C727.501 138.442 727.786 138.542 727.993 138.743C728.206 138.937 728.313 139.202 728.313 139.539C728.313 139.888 728.206 140.166 727.993 140.373C727.786 140.574 727.501 140.674 727.139 140.674ZM726.217 152V142.635H728.061V152H726.217ZM738.155 152V146.526C738.155 145.718 737.961 145.106 737.572 144.692C737.191 144.272 736.673 144.061 736.02 144.061C735.502 144.061 735.049 144.204 734.661 144.488C734.279 144.767 733.981 145.177 733.768 145.721C733.561 146.258 733.457 146.915 733.457 147.691H732.797C732.797 146.546 732.943 145.582 733.234 144.799C733.532 144.016 733.956 143.424 734.506 143.023C735.056 142.615 735.715 142.411 736.485 142.411C737.236 142.411 737.87 142.58 738.388 142.916C738.912 143.253 739.31 143.731 739.581 144.352C739.853 144.967 739.989 145.692 739.989 146.526V152H738.155ZM731.613 152V142.664H733.215L733.457 144.682V152H731.613ZM746.449 156.814C745.439 156.814 744.569 156.675 743.838 156.396C743.113 156.118 742.554 155.746 742.159 155.28C741.764 154.814 741.567 154.307 741.567 153.757C741.567 153.058 741.823 152.521 742.334 152.146C742.845 151.777 743.495 151.592 744.284 151.592L745.478 152.155C744.805 152.155 744.284 152.291 743.916 152.563C743.553 152.835 743.372 153.203 743.372 153.669C743.372 154.155 743.637 154.552 744.168 154.863C744.698 155.18 745.459 155.339 746.449 155.339C747.167 155.339 747.798 155.232 748.341 155.018C748.885 154.811 749.305 154.536 749.603 154.193C749.9 153.857 750.049 153.495 750.049 153.106C750.049 152.841 749.952 152.615 749.758 152.427C749.57 152.246 749.282 152.155 748.894 152.155H745.478C744.844 152.155 744.284 152.058 743.799 151.864C743.32 151.664 742.945 151.402 742.673 151.078C742.402 150.755 742.266 150.395 742.266 150.001C742.266 149.613 742.376 149.279 742.596 149.001C742.816 148.716 743.107 148.503 743.469 148.361C743.832 148.212 744.229 148.137 744.663 148.137L745.08 148.778C744.893 148.778 744.705 148.82 744.517 148.904C744.33 148.982 744.174 149.101 744.051 149.263C743.929 149.425 743.867 149.626 743.867 149.865C743.867 150.143 743.984 150.376 744.216 150.564C744.456 150.745 744.876 150.835 745.478 150.835H748.894C749.826 150.835 750.557 151.02 751.088 151.389C751.618 151.757 751.883 152.294 751.883 153C751.883 153.64 751.663 154.252 751.223 154.834C750.784 155.416 750.156 155.892 749.341 156.26C748.532 156.629 747.568 156.814 746.449 156.814ZM746.652 149.195C745.928 149.195 745.268 149.056 744.673 148.778C744.084 148.493 743.615 148.099 743.265 147.594C742.916 147.083 742.741 146.488 742.741 145.808C742.741 145.122 742.916 144.527 743.265 144.022C743.615 143.511 744.084 143.117 744.673 142.838C745.268 142.554 745.928 142.411 746.652 142.411C747.358 142.411 748.001 142.554 748.584 142.838C749.172 143.117 749.642 143.511 749.991 144.022C750.347 144.527 750.525 145.122 750.525 145.808C750.525 146.488 750.347 147.083 749.991 147.594C749.642 148.099 749.172 148.493 748.584 148.778C748.001 149.056 747.358 149.195 746.652 149.195ZM746.652 147.895C747.319 147.895 747.827 147.697 748.176 147.303C748.532 146.902 748.71 146.403 748.71 145.808C748.71 145.187 748.532 144.686 748.176 144.304C747.827 143.922 747.319 143.731 746.652 143.731C745.999 143.731 745.488 143.922 745.119 144.304C744.757 144.686 744.576 145.187 744.576 145.808C744.576 146.403 744.757 146.902 745.119 147.303C745.488 147.697 745.999 147.895 746.652 147.895ZM749.826 143.906L748.962 143.489C748.962 142.932 749.079 142.447 749.312 142.033C749.545 141.619 749.868 141.295 750.282 141.062C750.696 140.83 751.172 140.713 751.709 140.713L751.592 142.509C751.016 142.509 750.576 142.622 750.272 142.848C749.975 143.075 749.826 143.427 749.826 143.906ZM761.402 152.252C760.555 152.252 759.794 152.068 759.122 151.699C758.455 151.33 757.928 150.78 757.54 150.049C757.151 149.318 756.957 148.416 756.957 147.342C756.957 146.248 757.151 145.339 757.54 144.614C757.928 143.883 758.455 143.333 759.122 142.965C759.794 142.596 760.555 142.411 761.402 142.411C762.237 142.411 762.987 142.596 763.654 142.965C764.32 143.333 764.844 143.883 765.226 144.614C765.614 145.339 765.808 146.248 765.808 147.342C765.808 148.416 765.614 149.318 765.226 150.049C764.844 150.78 764.32 151.33 763.654 151.699C762.987 152.068 762.237 152.252 761.402 152.252ZM761.344 150.641C761.881 150.641 762.344 150.512 762.732 150.253C763.126 149.994 763.427 149.619 763.634 149.127C763.848 148.629 763.955 148.034 763.955 147.342C763.955 146.281 763.738 145.459 763.304 144.877C762.877 144.294 762.259 144.003 761.451 144.003C760.907 144.003 760.438 144.136 760.044 144.401C759.655 144.66 759.354 145.038 759.141 145.536C758.934 146.028 758.83 146.63 758.83 147.342C758.83 148.383 759.047 149.195 759.481 149.778C759.914 150.353 760.535 150.641 761.344 150.641ZM774.459 142.635H776.313V152H774.459V142.635ZM767.937 142.635H769.781V148.419C769.781 149.124 769.953 149.658 770.296 150.02C770.645 150.382 771.133 150.564 771.761 150.564C772.292 150.564 772.757 150.425 773.159 150.146C773.566 149.868 773.883 149.473 774.11 148.962C774.343 148.451 774.459 147.846 774.459 147.148H775.051C775.051 148.241 774.902 149.16 774.605 149.904C774.307 150.648 773.89 151.214 773.353 151.602C772.816 151.984 772.188 152.175 771.47 152.175C770.784 152.175 770.173 152.049 769.636 151.796C769.105 151.544 768.688 151.156 768.384 150.632C768.086 150.101 767.937 149.418 767.937 148.584V142.635ZM782.607 152.252C782.076 152.252 781.597 152.152 781.17 151.951C780.743 151.751 780.404 151.45 780.151 151.049C779.905 150.641 779.782 150.13 779.782 149.516V140.121H781.617V149.457C781.617 150.337 782.027 150.777 782.849 150.777C783.102 150.777 783.347 150.751 783.587 150.7C783.826 150.641 784.098 150.557 784.402 150.447L784.664 151.757C784.321 151.9 783.981 152.016 783.645 152.107C783.315 152.204 782.969 152.252 782.607 152.252ZM778.356 143.916V142.664H784.383V143.916H778.356ZM791.349 152V141.354C791.349 140.707 791.472 140.183 791.718 139.781C791.971 139.374 792.304 139.073 792.718 138.879C793.132 138.685 793.588 138.588 794.086 138.588C794.371 138.588 794.662 138.607 794.96 138.646C795.264 138.685 795.561 138.743 795.853 138.821L795.503 140.257C795.322 140.192 795.138 140.14 794.95 140.102C794.769 140.063 794.594 140.043 794.426 140.043C794.225 140.043 794.031 140.082 793.844 140.16C793.656 140.231 793.501 140.364 793.378 140.558C793.261 140.752 793.203 141.027 793.203 141.383V152H791.349ZM789.884 143.916V142.664H795.037V143.916H789.884ZM797.183 152V142.635H799.027V152H797.183ZM798.522 147.827C798.522 146.63 798.645 145.637 798.891 144.847C799.143 144.052 799.493 143.46 799.939 143.071C800.392 142.683 800.923 142.489 801.531 142.489C801.712 142.489 801.88 142.502 802.035 142.528C802.197 142.554 802.356 142.589 802.511 142.635L802.443 144.469C802.268 144.424 802.077 144.385 801.87 144.352C801.67 144.314 801.485 144.294 801.317 144.294C800.787 144.294 800.353 144.437 800.017 144.721C799.68 144.999 799.431 145.404 799.269 145.934C799.108 146.458 799.027 147.089 799.027 147.827H798.522ZM807.471 152.252C806.623 152.252 805.863 152.068 805.19 151.699C804.524 151.33 803.996 150.78 803.608 150.049C803.22 149.318 803.026 148.416 803.026 147.342C803.026 146.248 803.22 145.339 803.608 144.614C803.996 143.883 804.524 143.333 805.19 142.965C805.863 142.596 806.623 142.411 807.471 142.411C808.305 142.411 809.056 142.596 809.722 142.965C810.389 143.333 810.913 143.883 811.294 144.614C811.683 145.339 811.877 146.248 811.877 147.342C811.877 148.416 811.683 149.318 811.294 150.049C810.913 150.78 810.389 151.33 809.722 151.699C809.056 152.068 808.305 152.252 807.471 152.252ZM807.412 150.641C807.949 150.641 808.412 150.512 808.8 150.253C809.195 149.994 809.496 149.619 809.703 149.127C809.916 148.629 810.023 148.034 810.023 147.342C810.023 146.281 809.806 145.459 809.373 144.877C808.946 144.294 808.328 144.003 807.519 144.003C806.976 144.003 806.507 144.136 806.112 144.401C805.724 144.66 805.423 145.038 805.209 145.536C805.002 146.028 804.899 146.63 804.899 147.342C804.899 148.383 805.116 149.195 805.549 149.778C805.983 150.353 806.604 150.641 807.412 150.641ZM827.175 152V146.526C827.175 145.718 826.981 145.106 826.593 144.692C826.211 144.272 825.697 144.061 825.05 144.061C824.274 144.061 823.672 144.365 823.245 144.974C822.824 145.582 822.614 146.455 822.614 147.594H821.809C821.809 146.695 821.896 145.918 822.071 145.265C822.245 144.611 822.494 144.074 822.818 143.654C823.148 143.233 823.539 142.923 823.992 142.722C824.452 142.515 824.963 142.411 825.526 142.411C826.276 142.411 826.91 142.58 827.428 142.916C827.952 143.253 828.35 143.731 828.621 144.352C828.893 144.967 829.029 145.692 829.029 146.526V152H827.175ZM814.239 152V142.664H815.84L816.044 144.42C816.341 143.767 816.749 143.269 817.267 142.926C817.791 142.583 818.405 142.411 819.111 142.411C819.861 142.411 820.495 142.58 821.013 142.916C821.537 143.253 821.935 143.731 822.206 144.352C822.478 144.967 822.614 145.692 822.614 146.526V152H820.78V146.526C820.78 145.718 820.586 145.106 820.198 144.692C819.816 144.272 819.298 144.061 818.645 144.061C818.127 144.061 817.674 144.204 817.286 144.488C816.904 144.767 816.607 145.177 816.393 145.721C816.186 146.258 816.083 146.915 816.083 147.691V152H814.239ZM839.696 152.252C838.79 152.252 838.027 152.126 837.405 151.874C836.784 151.615 836.309 151.259 835.979 150.806C835.655 150.347 835.487 149.81 835.474 149.195H837.211C837.237 149.732 837.451 150.13 837.852 150.389C838.259 150.648 838.809 150.777 839.502 150.777C839.87 150.777 840.204 150.719 840.501 150.602C840.805 150.486 841.045 150.328 841.219 150.127C841.401 149.926 841.491 149.7 841.491 149.448C841.491 149.131 841.375 148.881 841.142 148.7C840.909 148.513 840.534 148.348 840.016 148.205L838.104 147.555C837.341 147.296 836.755 146.953 836.348 146.526C835.94 146.093 835.736 145.575 835.736 144.974C835.736 144.204 836.079 143.586 836.765 143.12C837.451 142.648 838.36 142.411 839.492 142.411C840.663 142.411 841.566 142.661 842.2 143.159C842.84 143.65 843.173 144.268 843.199 145.012H841.423C841.378 144.644 841.194 144.362 840.87 144.168C840.553 143.967 840.094 143.867 839.492 143.867C838.929 143.867 838.486 143.99 838.162 144.236C837.845 144.482 837.687 144.76 837.687 145.071C837.687 145.627 838.166 146.041 839.123 146.313L841.132 147.021C841.896 147.267 842.484 147.584 842.898 147.972C843.313 148.361 843.52 148.852 843.52 149.448C843.52 149.926 843.361 150.379 843.044 150.806C842.727 151.233 842.281 151.583 841.705 151.854C841.135 152.12 840.466 152.252 839.696 152.252ZM847.079 140.674C846.71 140.674 846.419 140.574 846.205 140.373C845.998 140.166 845.895 139.888 845.895 139.539C845.895 139.202 845.998 138.937 846.205 138.743C846.419 138.542 846.71 138.442 847.079 138.442C847.441 138.442 847.726 138.542 847.933 138.743C848.146 138.937 848.253 139.202 848.253 139.539C848.253 139.888 848.146 140.166 847.933 140.373C847.726 140.574 847.441 140.674 847.079 140.674ZM846.157 152V142.635H848.001V152H846.157ZM864.49 152V146.526C864.49 145.718 864.296 145.106 863.908 144.692C863.526 144.272 863.012 144.061 862.365 144.061C861.589 144.061 860.987 144.365 860.56 144.974C860.139 145.582 859.929 146.455 859.929 147.594H859.124C859.124 146.695 859.211 145.918 859.386 145.265C859.56 144.611 859.809 144.074 860.133 143.654C860.463 143.233 860.854 142.923 861.307 142.722C861.767 142.515 862.278 142.411 862.841 142.411C863.591 142.411 864.225 142.58 864.743 142.916C865.267 143.253 865.665 143.731 865.936 144.352C866.208 144.967 866.344 145.692 866.344 146.526V152H864.49ZM851.554 152V142.664H853.155L853.359 144.42C853.656 143.767 854.064 143.269 854.582 142.926C855.106 142.583 855.72 142.411 856.426 142.411C857.176 142.411 857.81 142.58 858.328 142.916C858.852 143.253 859.25 143.731 859.521 144.352C859.793 144.967 859.929 145.692 859.929 146.526V152H858.095V146.526C858.095 145.718 857.901 145.106 857.512 144.692C857.131 144.272 856.613 144.061 855.96 144.061C855.442 144.061 854.989 144.204 854.601 144.488C854.219 144.767 853.922 145.177 853.708 145.721C853.501 146.258 853.398 146.915 853.398 147.691V152H851.554ZM870.409 140.674C870.04 140.674 869.749 140.574 869.535 140.373C869.328 140.166 869.225 139.888 869.225 139.539C869.225 139.202 869.328 138.937 869.535 138.743C869.749 138.542 870.04 138.442 870.409 138.442C870.771 138.442 871.056 138.542 871.263 138.743C871.476 138.937 871.583 139.202 871.583 139.539C871.583 139.888 871.476 140.166 871.263 140.373C871.056 140.574 870.771 140.674 870.409 140.674ZM869.487 152V142.635H871.331V152H869.487ZM874.884 152V138.733H876.727V152H874.884ZM885.88 152L885.647 149.855V145.963C885.647 145.2 885.489 144.647 885.172 144.304C884.855 143.955 884.353 143.78 883.667 143.78C883.279 143.78 882.933 143.838 882.629 143.955C882.331 144.065 882.095 144.233 881.92 144.459C881.752 144.686 881.668 144.97 881.668 145.313H879.63C879.63 144.627 879.798 144.071 880.135 143.644C880.471 143.217 880.94 142.906 881.542 142.712C882.15 142.512 882.859 142.411 883.667 142.411C884.424 142.411 885.091 142.538 885.667 142.79C886.242 143.036 886.689 143.424 887.006 143.955C887.329 144.485 887.491 145.171 887.491 146.012V152H885.88ZM882.755 152.252C881.972 152.252 881.322 152.116 880.804 151.845C880.287 151.567 879.899 151.204 879.64 150.758C879.387 150.311 879.261 149.836 879.261 149.331C879.261 148.716 879.416 148.212 879.727 147.817C880.044 147.416 880.481 147.118 881.037 146.924C881.594 146.73 882.234 146.633 882.959 146.633C883.457 146.633 883.942 146.678 884.415 146.769C884.887 146.86 885.353 146.979 885.812 147.128V148.244C885.437 148.108 885.02 148.002 884.56 147.924C884.107 147.84 883.683 147.798 883.289 147.798C882.7 147.798 882.208 147.914 881.814 148.147C881.419 148.38 881.222 148.775 881.222 149.331C881.222 149.739 881.377 150.091 881.687 150.389C881.998 150.68 882.49 150.826 883.163 150.826C883.654 150.826 884.088 150.716 884.463 150.496C884.838 150.269 885.13 149.988 885.337 149.651C885.544 149.315 885.647 148.979 885.647 148.642H886.094C886.094 149.289 885.961 149.888 885.696 150.437C885.437 150.981 885.058 151.421 884.56 151.757C884.062 152.087 883.46 152.252 882.755 152.252ZM890.518 152V142.635H892.362V152H890.518ZM891.857 147.827C891.857 146.63 891.98 145.637 892.226 144.847C892.478 144.052 892.827 143.46 893.274 143.071C893.727 142.683 894.257 142.489 894.865 142.489C895.047 142.489 895.215 142.502 895.37 142.528C895.532 142.554 895.69 142.589 895.846 142.635L895.778 144.469C895.603 144.424 895.412 144.385 895.205 144.352C895.005 144.314 894.82 144.294 894.652 144.294C894.121 144.294 893.688 144.437 893.352 144.721C893.015 144.999 892.766 145.404 892.604 145.934C892.442 146.458 892.362 147.089 892.362 147.827H891.857ZM907.398 152L907.165 149.855V145.963C907.165 145.2 907.006 144.647 906.689 144.304C906.372 143.955 905.871 143.78 905.185 143.78C904.797 143.78 904.451 143.838 904.147 143.955C903.849 144.065 903.613 144.233 903.438 144.459C903.27 144.686 903.186 144.97 903.186 145.313H901.148C901.148 144.627 901.316 144.071 901.652 143.644C901.989 143.217 902.458 142.906 903.06 142.712C903.668 142.512 904.376 142.411 905.185 142.411C905.942 142.411 906.609 142.538 907.184 142.79C907.76 143.036 908.207 143.424 908.524 143.955C908.847 144.485 909.009 145.171 909.009 146.012V152H907.398ZM904.273 152.252C903.49 152.252 902.84 152.116 902.322 151.845C901.805 151.567 901.416 151.204 901.158 150.758C900.905 150.311 900.779 149.836 900.779 149.331C900.779 148.716 900.934 148.212 901.245 147.817C901.562 147.416 901.999 147.118 902.555 146.924C903.111 146.73 903.752 146.633 904.477 146.633C904.975 146.633 905.46 146.678 905.932 146.769C906.405 146.86 906.871 146.979 907.33 147.128V148.244C906.955 148.108 906.537 148.002 906.078 147.924C905.625 147.84 905.201 147.798 904.807 147.798C904.218 147.798 903.726 147.914 903.331 148.147C902.937 148.38 902.739 148.775 902.739 149.331C902.739 149.739 902.895 150.091 903.205 150.389C903.516 150.68 904.008 150.826 904.68 150.826C905.172 150.826 905.606 150.716 905.981 150.496C906.356 150.269 906.647 149.988 906.854 149.651C907.061 149.315 907.165 148.979 907.165 148.642H907.611C907.611 149.289 907.479 149.888 907.213 150.437C906.955 150.981 906.576 151.421 906.078 151.757C905.58 152.087 904.978 152.252 904.273 152.252ZM916.461 152.252C915.782 152.252 915.193 152.1 914.695 151.796C914.196 151.486 913.815 151.033 913.549 150.437C913.291 149.836 913.161 149.092 913.161 148.205H913.879C913.879 148.716 913.989 149.15 914.209 149.506C914.429 149.855 914.717 150.124 915.073 150.311C915.435 150.492 915.82 150.583 916.228 150.583C916.655 150.583 917.069 150.463 917.47 150.224C917.878 149.978 918.211 149.613 918.47 149.127C918.729 148.642 918.858 148.04 918.858 147.322C918.858 146.636 918.742 146.051 918.509 145.566C918.282 145.08 917.972 144.708 917.577 144.45C917.182 144.191 916.739 144.061 916.247 144.061C915.833 144.061 915.445 144.162 915.083 144.362C914.721 144.556 914.429 144.844 914.209 145.226C913.989 145.601 913.879 146.061 913.879 146.604H913.161C913.161 145.666 913.31 144.886 913.608 144.265C913.912 143.644 914.319 143.181 914.831 142.877C915.342 142.567 915.908 142.411 916.529 142.411C917.26 142.411 917.946 142.609 918.586 143.003C919.227 143.392 919.744 143.951 920.139 144.682C920.54 145.414 920.741 146.293 920.741 147.322C920.741 148.351 920.54 149.234 920.139 149.972C919.738 150.709 919.211 151.275 918.557 151.67C917.91 152.058 917.211 152.252 916.461 152.252ZM912.035 156.581V142.664H913.559L913.879 144.906V156.581H912.035ZM927.538 152.252C926.859 152.252 926.27 152.1 925.772 151.796C925.274 151.486 924.892 151.033 924.627 150.437C924.368 149.836 924.239 149.092 924.239 148.205H924.957C924.957 148.716 925.067 149.15 925.287 149.506C925.507 149.855 925.795 150.124 926.15 150.311C926.513 150.492 926.898 150.583 927.305 150.583C927.732 150.583 928.146 150.463 928.548 150.224C928.955 149.978 929.288 149.613 929.547 149.127C929.806 148.642 929.935 148.04 929.935 147.322C929.935 146.636 929.819 146.051 929.586 145.566C929.36 145.08 929.049 144.708 928.654 144.45C928.26 144.191 927.817 144.061 927.325 144.061C926.911 144.061 926.523 144.162 926.16 144.362C925.798 144.556 925.507 144.844 925.287 145.226C925.067 145.601 924.957 146.061 924.957 146.604H924.239C924.239 145.666 924.387 144.886 924.685 144.265C924.989 143.644 925.397 143.181 925.908 142.877C926.419 142.567 926.985 142.411 927.606 142.411C928.337 142.411 929.023 142.609 929.664 143.003C930.304 143.392 930.822 143.951 931.216 144.682C931.618 145.414 931.818 146.293 931.818 147.322C931.818 148.351 931.618 149.234 931.216 149.972C930.815 150.709 930.288 151.275 929.635 151.67C928.988 152.058 928.289 152.252 927.538 152.252ZM923.113 156.581V142.664H924.636L924.957 144.906V156.581H923.113ZM937.606 152.252C936.701 152.252 935.937 152.126 935.316 151.874C934.695 151.615 934.219 151.259 933.889 150.806C933.566 150.347 933.398 149.81 933.385 149.195H935.122C935.148 149.732 935.361 150.13 935.762 150.389C936.17 150.648 936.72 150.777 937.412 150.777C937.781 150.777 938.114 150.719 938.412 150.602C938.716 150.486 938.955 150.328 939.13 150.127C939.311 149.926 939.402 149.7 939.402 149.448C939.402 149.131 939.285 148.881 939.052 148.7C938.819 148.513 938.444 148.348 937.927 148.205L936.015 147.555C935.251 147.296 934.666 146.953 934.258 146.526C933.85 146.093 933.647 145.575 933.647 144.974C933.647 144.204 933.99 143.586 934.675 143.12C935.361 142.648 936.27 142.411 937.402 142.411C938.574 142.411 939.476 142.661 940.11 143.159C940.751 143.65 941.084 144.268 941.11 145.012H939.334C939.289 144.644 939.104 144.362 938.781 144.168C938.464 143.967 938.004 143.867 937.402 143.867C936.84 143.867 936.396 143.99 936.073 144.236C935.756 144.482 935.597 144.76 935.597 145.071C935.597 145.627 936.076 146.041 937.034 146.313L939.043 147.021C939.806 147.267 940.395 147.584 940.809 147.972C941.223 148.361 941.43 148.852 941.43 149.448C941.43 149.926 941.272 150.379 940.955 150.806C940.637 151.233 940.191 151.583 939.615 151.854C939.046 152.12 938.376 152.252 937.606 152.252ZM945.445 148.613V147.778C945.445 147.215 945.507 146.756 945.63 146.4C945.759 146.038 945.963 145.727 946.241 145.469C946.519 145.203 946.898 144.948 947.377 144.702C947.804 144.475 948.137 144.268 948.376 144.081C948.622 143.887 948.797 143.683 948.9 143.469C949.004 143.256 949.056 143 949.056 142.703C949.056 142.237 948.868 141.852 948.493 141.548C948.118 141.237 947.6 141.082 946.94 141.082C946.196 141.082 945.623 141.237 945.222 141.548C944.828 141.858 944.588 142.279 944.504 142.809H942.563C942.647 141.787 943.051 140.965 943.776 140.344C944.501 139.723 945.536 139.413 946.882 139.413C947.749 139.413 948.496 139.561 949.124 139.859C949.751 140.15 950.233 140.548 950.57 141.053C950.906 141.557 951.074 142.117 951.074 142.732C951.074 143.398 950.906 143.961 950.57 144.42C950.233 144.88 949.696 145.3 948.959 145.682C948.532 145.908 948.195 146.122 947.949 146.323C947.703 146.517 947.529 146.737 947.425 146.983C947.328 147.228 947.28 147.545 947.28 147.934V148.613H945.445ZM946.406 152.252C946.018 152.252 945.701 152.129 945.455 151.884C945.209 151.638 945.086 151.34 945.086 150.991C945.086 150.628 945.206 150.321 945.445 150.069C945.691 149.816 946.008 149.69 946.396 149.69C946.785 149.69 947.108 149.816 947.367 150.069C947.632 150.315 947.765 150.619 947.765 150.981C947.765 151.33 947.635 151.631 947.377 151.884C947.118 152.129 946.794 152.252 946.406 152.252Z" fill="#666666"/>
<line x1="422" y1="66.2762" x2="1078.01" y2="66.2762" stroke="#383838"/>
<line x1="422" y1="196.276" x2="1078.01" y2="196.276" stroke="#383838"/>
</svg>
