<svg width="1500" height="290" viewBox="0 0 1500 290" fill="none" xmlns="http://www.w3.org/2000/svg">
<rect width="1500" height="290" fill="#E5E5E5"/>
<rect width="1500" height="290" fill="white"/>
<path d="M662.957 176V155.615H670.15C672.443 155.615 674.228 156.18 675.506 157.311C676.794 158.442 677.438 160.044 677.438 162.117C677.438 164.169 676.794 165.76 675.506 166.891C674.228 168.022 672.443 168.587 670.15 168.587H666.695V176H662.957ZM666.695 165.352H670.15C671.302 165.352 672.171 165.048 672.757 164.441C673.344 163.834 673.637 163.059 673.637 162.117C673.637 161.154 673.344 160.363 672.757 159.745C672.171 159.128 671.302 158.819 670.15 158.819H666.695V165.352ZM688.182 176V155.615H695.721C698.16 155.615 700.029 156.186 701.327 157.327C702.636 158.468 703.29 159.981 703.29 161.865C703.29 163.719 702.636 165.216 701.327 166.357C700.029 167.488 698.16 168.053 695.721 168.053H691.889V176H688.182ZM699.207 176L693.805 166.451H697.762L704.044 176H699.207ZM691.889 165.572H695.344C696.705 165.572 697.736 165.263 698.438 164.645C699.139 164.017 699.49 163.206 699.49 162.211C699.49 161.195 699.17 160.379 698.532 159.761C697.893 159.133 696.956 158.819 695.721 158.819H691.889V165.572ZM723.096 176.44C721.285 176.44 719.683 176.042 718.29 175.246C716.908 174.45 715.825 173.262 715.039 171.681C714.254 170.1 713.862 168.137 713.862 165.792C713.862 163.405 714.254 161.431 715.039 159.871C715.825 158.3 716.908 157.133 718.29 156.369C719.683 155.594 721.285 155.207 723.096 155.207C724.918 155.207 726.525 155.604 727.918 156.4C729.31 157.185 730.399 158.363 731.184 159.934C731.969 161.504 732.362 163.457 732.362 165.792C732.362 168.168 731.969 170.147 731.184 171.728C730.399 173.309 729.31 174.492 727.918 175.278C726.525 176.052 724.918 176.44 723.096 176.44ZM723.096 173.079C724.761 173.079 726.08 172.451 727.054 171.194C728.038 169.938 728.53 168.127 728.53 165.76C728.53 163.478 728.038 161.703 727.054 160.436C726.08 159.169 724.761 158.536 723.096 158.536C721.463 158.536 720.154 159.175 719.17 160.452C718.186 161.719 717.694 163.499 717.694 165.792C717.694 168.147 718.186 169.954 719.17 171.21C720.154 172.456 721.463 173.079 723.096 173.079ZM751.07 176.44C749.28 176.44 747.72 176.016 746.39 175.168C745.071 174.309 744.045 173.084 743.312 171.493C742.579 169.901 742.213 167.99 742.213 165.76C742.213 163.457 742.59 161.525 743.344 159.965C744.108 158.395 745.155 157.212 746.485 156.416C747.825 155.61 749.353 155.207 751.07 155.207C753.447 155.207 755.3 155.782 756.63 156.934C757.97 158.086 758.829 159.583 759.206 161.426L755.248 162.148C754.923 161.08 754.405 160.216 753.693 159.557C752.981 158.897 752.107 158.567 751.07 158.567C750.16 158.567 749.338 158.834 748.605 159.368C747.872 159.892 747.285 160.688 746.846 161.756C746.416 162.824 746.202 164.158 746.202 165.76C746.202 167.268 746.39 168.566 746.767 169.655C747.155 170.744 747.71 171.582 748.432 172.168C749.154 172.754 750.034 173.047 751.07 173.047C752.4 173.047 753.426 172.697 754.149 171.995C754.881 171.283 755.248 170.378 755.248 169.278H759.206C759.206 170.796 758.876 172.089 758.216 173.157C757.567 174.215 756.635 175.026 755.421 175.592C754.206 176.157 752.756 176.44 751.07 176.44ZM770.444 176V155.615H783.542V158.819H774.15V164.19H782.976V167.394H774.15V172.765H783.542V176H770.444ZM802.919 176.44C801.506 176.44 800.202 176.194 799.008 175.702C797.825 175.21 796.862 174.461 796.119 173.456C795.386 172.451 794.993 171.173 794.941 169.624H798.584C798.584 170.409 798.778 171.053 799.165 171.555C799.553 172.058 800.071 172.435 800.72 172.686C801.38 172.927 802.102 173.047 802.888 173.047C803.641 173.047 804.312 172.948 804.898 172.749C805.495 172.55 805.961 172.267 806.296 171.901C806.641 171.524 806.814 171.079 806.814 170.566C806.814 169.886 806.604 169.352 806.186 168.964C805.777 168.577 805.118 168.221 804.207 167.896L800.186 166.294C798.616 165.677 797.412 164.959 796.574 164.143C795.737 163.326 795.318 162.201 795.318 160.766C795.318 159.112 795.972 157.772 797.281 156.746C798.59 155.72 800.417 155.207 802.762 155.207C805.044 155.207 806.809 155.741 808.055 156.808C809.3 157.866 810.007 159.342 810.175 161.237H806.531C806.395 160.431 806.029 159.787 805.432 159.306C804.835 158.813 803.945 158.567 802.762 158.567C801.715 158.567 800.888 158.787 800.281 159.227C799.673 159.656 799.37 160.201 799.37 160.86C799.37 161.426 799.558 161.876 799.935 162.211C800.322 162.536 800.919 162.85 801.725 163.153L806.186 164.881C807.693 165.467 808.85 166.205 809.656 167.095C810.463 167.985 810.866 169.1 810.866 170.44C810.866 171.665 810.557 172.728 809.939 173.629C809.321 174.518 808.421 175.21 807.238 175.702C806.055 176.194 804.615 176.44 802.919 176.44ZM829.859 176.44C828.446 176.44 827.142 176.194 825.949 175.702C824.766 175.21 823.802 174.461 823.059 173.456C822.326 172.451 821.933 171.173 821.881 169.624H825.525C825.525 170.409 825.718 171.053 826.106 171.555C826.493 172.058 827.011 172.435 827.66 172.686C828.32 172.927 829.043 173.047 829.828 173.047C830.582 173.047 831.252 172.948 831.838 172.749C832.435 172.55 832.901 172.267 833.236 171.901C833.581 171.524 833.754 171.079 833.754 170.566C833.754 169.886 833.545 169.352 833.126 168.964C832.717 168.577 832.058 168.221 831.147 167.896L827.127 166.294C825.556 165.677 824.352 164.959 823.514 164.143C822.677 163.326 822.258 162.201 822.258 160.766C822.258 159.112 822.912 157.772 824.221 156.746C825.53 155.72 827.357 155.207 829.702 155.207C831.985 155.207 833.749 155.741 834.995 156.808C836.241 157.866 836.947 159.342 837.115 161.237H833.471C833.335 160.431 832.969 159.787 832.372 159.306C831.775 158.813 830.885 158.567 829.702 158.567C828.655 158.567 827.828 158.787 827.221 159.227C826.613 159.656 826.31 160.201 826.31 160.86C826.31 161.426 826.498 161.876 826.875 162.211C827.263 162.536 827.859 162.85 828.666 163.153L833.126 164.881C834.633 165.467 835.79 166.205 836.597 167.095C837.403 167.985 837.806 169.1 837.806 170.44C837.806 171.665 837.497 172.728 836.879 173.629C836.262 174.518 835.361 175.21 834.178 175.702C832.995 176.194 831.555 176.44 829.859 176.44Z" fill="#383838"/>
<line x1="422" y1="203.276" x2="1078.01" y2="203.276" stroke="#383838"/>
</svg>
