<svg width="1500" height="475" viewBox="0 0 1500 475" fill="none" xmlns="http://www.w3.org/2000/svg">
<rect width="1500" height="475" fill="#E5E5E5"/>
<rect width="1500" height="475" fill="white"/>
<path d="M645.998 173.44C644.208 173.44 642.648 173.016 641.318 172.168C639.999 171.309 638.973 170.084 638.24 168.493C637.507 166.901 637.141 164.99 637.141 162.76C637.141 160.457 637.518 158.525 638.271 156.965C639.036 155.395 640.083 154.212 641.412 153.416C642.753 152.61 644.281 152.207 645.998 152.207C648.375 152.207 650.228 152.782 651.558 153.934C652.898 155.086 653.757 156.583 654.134 158.426L650.176 159.148C649.851 158.08 649.333 157.216 648.621 156.557C647.909 155.897 647.035 155.567 645.998 155.567C645.087 155.567 644.266 155.834 643.533 156.368C642.8 156.892 642.213 157.688 641.774 158.756C641.344 159.824 641.13 161.158 641.13 162.76C641.13 164.268 641.318 165.566 641.695 166.655C642.083 167.744 642.637 168.582 643.36 169.168C644.082 169.754 644.962 170.047 645.998 170.047C647.328 170.047 648.354 169.697 649.077 168.995C649.809 168.283 650.176 167.378 650.176 166.278H654.134C654.134 167.796 653.804 169.089 653.144 170.157C652.495 171.215 651.563 172.026 650.349 172.592C649.134 173.157 647.684 173.44 645.998 173.44ZM665.403 152.615H669.109V161.127H677.998V152.615H681.705V173H677.998V164.362H669.109V173H665.403V152.615ZM692.23 173L699.171 152.615H703.82L710.479 173H706.584L705.171 168.603H697.601L696.156 173H692.23ZM698.543 165.807H704.291L701.433 157.044L698.543 165.807ZM724.738 152.615V169.765H733.125V173H721.032V152.615H724.738ZM747.169 152.615V169.765H755.556V173H743.463V152.615H747.169ZM765.863 173V152.615H778.961V155.819H769.569V161.19H778.395V164.394H769.569V169.765H778.961V173H765.863ZM791.177 152.615H795.228L804.494 167.158H804.212V152.615H807.918V173H804.149L794.286 157.578H794.883V173H791.177V152.615ZM828.108 173.44C826.444 173.44 824.941 173 823.601 172.121C822.261 171.241 821.193 170.016 820.397 168.446C819.612 166.865 819.219 165.022 819.219 162.917C819.219 161.253 819.46 159.761 819.942 158.441C820.434 157.122 821.114 155.997 821.983 155.065C822.852 154.133 823.873 153.426 825.046 152.945C826.219 152.453 827.491 152.207 828.862 152.207C830.768 152.207 832.364 152.62 833.652 153.447C834.951 154.274 835.961 155.578 836.683 157.358L832.883 158.237C832.349 157.368 831.731 156.709 831.029 156.258C830.338 155.798 829.553 155.567 828.674 155.567C827.669 155.567 826.752 155.866 825.925 156.463C825.098 157.049 824.439 157.892 823.947 158.991C823.454 160.09 823.208 161.399 823.208 162.917C823.208 164.341 823.423 165.587 823.852 166.655C824.292 167.723 824.905 168.555 825.69 169.152C826.475 169.749 827.386 170.047 828.422 170.047C829.302 170.047 830.087 169.854 830.778 169.466C831.48 169.069 832.029 168.503 832.427 167.77C832.836 167.037 833.04 166.153 833.04 165.116H833.856C833.856 166.812 833.652 168.283 833.244 169.529C832.846 170.775 832.223 171.738 831.375 172.419C830.527 173.099 829.438 173.44 828.108 173.44ZM833.574 173L833.04 168.508V164.99L828.454 164.896V162.54H836.589V173H833.574ZM848.8 173V152.615H861.898V155.819H852.506V161.19H861.333V164.394H852.506V169.765H861.898V173H848.8Z" fill="#383838"/>
<path d="M564.951 241.636H566.795V246.964H572.598V241.636H574.433V254H572.598V248.565H566.795V254H564.951V241.636ZM581.266 254.252C580.419 254.252 579.659 254.068 578.986 253.699C578.319 253.33 577.792 252.78 577.404 252.049C577.016 251.318 576.822 250.416 576.822 249.342C576.822 248.248 577.016 247.339 577.404 246.614C577.792 245.883 578.319 245.333 578.986 244.965C579.659 244.596 580.419 244.411 581.266 244.411C582.101 244.411 582.852 244.596 583.518 244.965C584.184 245.333 584.708 245.883 585.09 246.614C585.478 247.339 585.672 248.248 585.672 249.342C585.672 250.416 585.478 251.318 585.09 252.049C584.708 252.78 584.184 253.33 583.518 253.699C582.852 254.068 582.101 254.252 581.266 254.252ZM581.208 252.641C581.745 252.641 582.208 252.512 582.596 252.253C582.991 251.994 583.292 251.619 583.499 251.127C583.712 250.629 583.819 250.034 583.819 249.342C583.819 248.281 583.602 247.459 583.169 246.877C582.742 246.294 582.124 246.003 581.315 246.003C580.771 246.003 580.302 246.136 579.908 246.401C579.52 246.66 579.219 247.038 579.005 247.536C578.798 248.028 578.695 248.63 578.695 249.342C578.695 250.383 578.911 251.195 579.345 251.778C579.778 252.353 580.399 252.641 581.208 252.641ZM586.443 244.664H588.364L590.587 252.156H590.383L592.528 245.139H594.129L596.264 252.175H596.07L598.293 244.664H600.137L597.07 254H595.265L593.149 247.401H593.43L591.344 254H589.539L586.443 244.664ZM609.529 254.252C608.766 254.252 608.054 254.049 607.394 253.641C606.734 253.233 606.204 252.661 605.803 251.923C605.402 251.186 605.201 250.319 605.201 249.322C605.201 248.274 605.402 247.388 605.803 246.663C606.204 245.932 606.734 245.375 607.394 244.994C608.054 244.606 608.766 244.411 609.529 244.411C610.092 244.411 610.594 244.502 611.034 244.683C611.474 244.858 611.852 245.097 612.169 245.401C612.486 245.699 612.742 246.035 612.936 246.411C613.137 246.786 613.276 247.174 613.353 247.575L611.48 247.672C611.344 247.187 611.105 246.799 610.762 246.508C610.426 246.21 610.008 246.061 609.51 246.061C609.09 246.061 608.692 246.181 608.316 246.42C607.948 246.653 607.647 247.012 607.414 247.498C607.187 247.976 607.074 248.585 607.074 249.322C607.074 250.008 607.181 250.594 607.394 251.079C607.608 251.564 607.899 251.936 608.268 252.195C608.637 252.454 609.051 252.583 609.51 252.583C610.17 252.583 610.662 252.425 610.985 252.108C611.315 251.784 611.48 251.341 611.48 250.778H613.353C613.353 251.431 613.201 252.02 612.897 252.544C612.593 253.068 612.153 253.486 611.577 253.796C611.008 254.1 610.325 254.252 609.529 254.252ZM621.622 254L621.389 251.855V247.963C621.389 247.2 621.23 246.647 620.913 246.304C620.596 245.955 620.095 245.78 619.409 245.78C619.021 245.78 618.675 245.838 618.37 245.955C618.073 246.065 617.837 246.233 617.662 246.459C617.494 246.686 617.41 246.97 617.41 247.313H615.372C615.372 246.627 615.54 246.071 615.876 245.644C616.213 245.217 616.682 244.906 617.283 244.712C617.892 244.512 618.6 244.411 619.409 244.411C620.166 244.411 620.832 244.538 621.408 244.79C621.984 245.036 622.43 245.424 622.747 245.955C623.071 246.485 623.233 247.171 623.233 248.012V254H621.622ZM618.497 254.252C617.714 254.252 617.064 254.116 616.546 253.845C616.028 253.567 615.64 253.204 615.381 252.758C615.129 252.311 615.003 251.836 615.003 251.331C615.003 250.716 615.158 250.212 615.469 249.817C615.786 249.416 616.222 249.118 616.779 248.924C617.335 248.73 617.976 248.633 618.7 248.633C619.199 248.633 619.684 248.678 620.156 248.769C620.628 248.86 621.094 248.979 621.554 249.128V250.244C621.178 250.108 620.761 250.002 620.302 249.924C619.849 249.84 619.425 249.798 619.03 249.798C618.442 249.798 617.95 249.914 617.555 250.147C617.161 250.38 616.963 250.775 616.963 251.331C616.963 251.739 617.119 252.091 617.429 252.389C617.74 252.68 618.231 252.826 618.904 252.826C619.396 252.826 619.829 252.716 620.205 252.496C620.58 252.269 620.871 251.988 621.078 251.651C621.285 251.315 621.389 250.979 621.389 250.642H621.835C621.835 251.289 621.703 251.888 621.437 252.437C621.178 252.981 620.8 253.421 620.302 253.757C619.804 254.087 619.202 254.252 618.497 254.252ZM632.8 254V248.526C632.8 247.718 632.606 247.106 632.218 246.692C631.836 246.272 631.319 246.061 630.665 246.061C630.148 246.061 629.695 246.204 629.307 246.488C628.925 246.767 628.627 247.177 628.414 247.721C628.207 248.258 628.103 248.915 628.103 249.691H627.443C627.443 248.546 627.589 247.582 627.88 246.799C628.178 246.016 628.601 245.424 629.151 245.023C629.701 244.615 630.361 244.411 631.131 244.411C631.882 244.411 632.516 244.58 633.033 244.916C633.557 245.253 633.955 245.731 634.227 246.352C634.499 246.967 634.635 247.692 634.635 248.526V254H632.8ZM626.259 254V244.664H627.861L628.103 246.682V254H626.259ZM641.912 254V241.636H646.697C647.622 241.636 648.389 241.785 648.997 242.082C649.612 242.38 650.071 242.775 650.375 243.266C650.679 243.758 650.831 244.298 650.831 244.887C650.831 245.592 650.634 246.2 650.239 246.712C649.851 247.223 649.282 247.575 648.531 247.769C649.023 247.853 649.456 248.031 649.832 248.303C650.207 248.568 650.501 248.898 650.715 249.293C650.935 249.688 651.045 250.124 651.045 250.603C651.045 251.011 650.974 251.415 650.831 251.816C650.689 252.218 650.453 252.583 650.123 252.913C649.793 253.243 649.35 253.508 648.793 253.709C648.237 253.903 647.541 254 646.707 254H641.912ZM643.756 252.389H646.668C647.509 252.389 648.117 252.214 648.492 251.865C648.874 251.516 649.065 251.063 649.065 250.506C649.065 249.943 648.864 249.49 648.463 249.148C648.062 248.805 647.464 248.633 646.668 248.633H643.756V252.389ZM643.756 243.227V247.032H646.629C647.347 247.032 647.91 246.86 648.318 246.517C648.732 246.175 648.939 245.699 648.939 245.091C648.939 244.515 648.738 244.062 648.337 243.732C647.942 243.396 647.38 243.227 646.648 243.227H643.756ZM657.223 254.252C656.376 254.252 655.615 254.068 654.943 253.699C654.276 253.33 653.749 252.78 653.361 252.049C652.972 251.318 652.778 250.416 652.778 249.342C652.778 248.248 652.972 247.339 653.361 246.614C653.749 245.883 654.276 245.333 654.943 244.965C655.615 244.596 656.376 244.411 657.223 244.411C658.058 244.411 658.808 244.596 659.475 244.965C660.141 245.333 660.665 245.883 661.047 246.614C661.435 247.339 661.629 248.248 661.629 249.342C661.629 250.416 661.435 251.318 661.047 252.049C660.665 252.78 660.141 253.33 659.475 253.699C658.808 254.068 658.058 254.252 657.223 254.252ZM657.165 252.641C657.702 252.641 658.165 252.512 658.553 252.253C658.947 251.994 659.248 251.619 659.455 251.127C659.669 250.629 659.776 250.034 659.776 249.342C659.776 248.281 659.559 247.459 659.125 246.877C658.698 246.294 658.08 246.003 657.272 246.003C656.728 246.003 656.259 246.136 655.865 246.401C655.476 246.66 655.175 247.038 654.962 247.536C654.755 248.028 654.651 248.63 654.651 249.342C654.651 250.383 654.868 251.195 655.302 251.778C655.735 252.353 656.356 252.641 657.165 252.641ZM667.504 254.252C666.657 254.252 665.897 254.068 665.224 253.699C664.557 253.33 664.03 252.78 663.642 252.049C663.254 251.318 663.06 250.416 663.06 249.342C663.06 248.248 663.254 247.339 663.642 246.614C664.03 245.883 664.557 245.333 665.224 244.965C665.897 244.596 666.657 244.411 667.504 244.411C668.339 244.411 669.09 244.596 669.756 244.965C670.422 245.333 670.946 245.883 671.328 246.614C671.716 247.339 671.911 248.248 671.911 249.342C671.911 250.416 671.716 251.318 671.328 252.049C670.946 252.78 670.422 253.33 669.756 253.699C669.09 254.068 668.339 254.252 667.504 254.252ZM667.446 252.641C667.983 252.641 668.446 252.512 668.834 252.253C669.229 251.994 669.53 251.619 669.737 251.127C669.95 250.629 670.057 250.034 670.057 249.342C670.057 248.281 669.84 247.459 669.407 246.877C668.98 246.294 668.362 246.003 667.553 246.003C667.009 246.003 666.54 246.136 666.146 246.401C665.758 246.66 665.457 247.038 665.243 247.536C665.036 248.028 664.933 248.63 664.933 249.342C664.933 250.383 665.149 251.195 665.583 251.778C666.016 252.353 666.637 252.641 667.446 252.641ZM677.689 254.252C676.783 254.252 676.019 254.126 675.398 253.874C674.777 253.615 674.302 253.259 673.972 252.806C673.648 252.347 673.48 251.81 673.467 251.195H675.204C675.23 251.732 675.444 252.13 675.845 252.389C676.252 252.648 676.802 252.777 677.495 252.777C677.863 252.777 678.197 252.719 678.494 252.602C678.798 252.486 679.038 252.328 679.212 252.127C679.393 251.926 679.484 251.7 679.484 251.448C679.484 251.131 679.368 250.881 679.135 250.7C678.902 250.513 678.526 250.348 678.009 250.205L676.097 249.555C675.334 249.296 674.748 248.953 674.34 248.526C673.933 248.093 673.729 247.575 673.729 246.974C673.729 246.204 674.072 245.586 674.758 245.12C675.444 244.648 676.353 244.411 677.485 244.411C678.656 244.411 679.558 244.661 680.193 245.159C680.833 245.65 681.166 246.268 681.192 247.012H679.416C679.371 246.644 679.186 246.362 678.863 246.168C678.546 245.967 678.087 245.867 677.485 245.867C676.922 245.867 676.479 245.99 676.155 246.236C675.838 246.482 675.68 246.76 675.68 247.071C675.68 247.627 676.158 248.041 677.116 248.313L679.125 249.021C679.888 249.267 680.477 249.584 680.891 249.972C681.305 250.361 681.512 250.852 681.512 251.448C681.512 251.926 681.354 252.379 681.037 252.806C680.72 253.233 680.273 253.583 679.698 253.854C679.128 254.12 678.459 254.252 677.689 254.252ZM687.003 254.252C686.472 254.252 685.994 254.152 685.567 253.951C685.139 253.751 684.8 253.45 684.547 253.049C684.302 252.641 684.179 252.13 684.179 251.516V242.121H686.013V251.457C686.013 252.337 686.424 252.777 687.245 252.777C687.498 252.777 687.744 252.751 687.983 252.7C688.222 252.641 688.494 252.557 688.798 252.447L689.06 253.757C688.717 253.9 688.378 254.016 688.041 254.107C687.711 254.204 687.365 254.252 687.003 254.252ZM682.752 245.916V244.664H688.779V245.916H682.752ZM695.746 254V243.354C695.746 242.707 695.869 242.183 696.114 241.781C696.367 241.374 696.7 241.073 697.114 240.879C697.528 240.685 697.984 240.588 698.483 240.588C698.767 240.588 699.058 240.607 699.356 240.646C699.66 240.685 699.958 240.743 700.249 240.821L699.899 242.257C699.718 242.192 699.534 242.14 699.346 242.102C699.165 242.063 698.99 242.043 698.822 242.043C698.622 242.043 698.428 242.082 698.24 242.16C698.052 242.231 697.897 242.364 697.774 242.558C697.658 242.752 697.599 243.027 697.599 243.383V254H695.746ZM694.28 245.916V244.664H699.434V245.916H694.28ZM707.431 254L707.198 251.855V247.963C707.198 247.2 707.04 246.647 706.723 246.304C706.406 245.955 705.904 245.78 705.219 245.78C704.83 245.78 704.484 245.838 704.18 245.955C703.882 246.065 703.646 246.233 703.472 246.459C703.303 246.686 703.219 246.97 703.219 247.313H701.181C701.181 246.627 701.349 246.071 701.686 245.644C702.022 245.217 702.491 244.906 703.093 244.712C703.701 244.512 704.41 244.411 705.219 244.411C705.976 244.411 706.642 244.538 707.218 244.79C707.794 245.036 708.24 245.424 708.557 245.955C708.881 246.485 709.042 247.171 709.042 248.012V254H707.431ZM704.306 254.252C703.523 254.252 702.873 254.116 702.356 253.845C701.838 253.567 701.45 253.204 701.191 252.758C700.939 252.311 700.812 251.836 700.812 251.331C700.812 250.716 700.968 250.212 701.278 249.817C701.595 249.416 702.032 249.118 702.588 248.924C703.145 248.73 703.785 248.633 704.51 248.633C705.008 248.633 705.494 248.678 705.966 248.769C706.438 248.86 706.904 248.979 707.363 249.128V250.244C706.988 250.108 706.571 250.002 706.111 249.924C705.658 249.84 705.235 249.798 704.84 249.798C704.251 249.798 703.76 249.914 703.365 250.147C702.97 250.38 702.773 250.775 702.773 251.331C702.773 251.739 702.928 252.091 703.239 252.389C703.549 252.68 704.041 252.826 704.714 252.826C705.206 252.826 705.639 252.716 706.014 252.496C706.39 252.269 706.681 251.988 706.888 251.651C707.095 251.315 707.198 250.979 707.198 250.642H707.645C707.645 251.289 707.512 251.888 707.247 252.437C706.988 252.981 706.61 253.421 706.111 253.757C705.613 254.087 705.011 254.252 704.306 254.252ZM715.466 254.252C714.702 254.252 713.99 254.049 713.331 253.641C712.671 253.233 712.14 252.661 711.739 251.923C711.338 251.186 711.137 250.319 711.137 249.322C711.137 248.274 711.338 247.388 711.739 246.663C712.14 245.932 712.671 245.375 713.331 244.994C713.99 244.606 714.702 244.411 715.466 244.411C716.029 244.411 716.53 244.502 716.97 244.683C717.41 244.858 717.788 245.097 718.105 245.401C718.422 245.699 718.678 246.035 718.872 246.411C719.073 246.786 719.212 247.174 719.289 247.575L717.416 247.672C717.28 247.187 717.041 246.799 716.698 246.508C716.362 246.21 715.944 246.061 715.446 246.061C715.026 246.061 714.628 246.181 714.253 246.42C713.884 246.653 713.583 247.012 713.35 247.498C713.123 247.976 713.01 248.585 713.01 249.322C713.01 250.008 713.117 250.594 713.331 251.079C713.544 251.564 713.835 251.936 714.204 252.195C714.573 252.454 714.987 252.583 715.446 252.583C716.106 252.583 716.598 252.425 716.921 252.108C717.251 251.784 717.416 251.341 717.416 250.778H719.289C719.289 251.431 719.137 252.02 718.833 252.544C718.529 253.068 718.089 253.486 717.513 253.796C716.944 254.1 716.261 254.252 715.466 254.252ZM722.773 242.674C722.404 242.674 722.113 242.574 721.9 242.373C721.693 242.166 721.589 241.888 721.589 241.539C721.589 241.202 721.693 240.937 721.9 240.743C722.113 240.542 722.404 240.442 722.773 240.442C723.136 240.442 723.42 240.542 723.627 240.743C723.841 240.937 723.948 241.202 723.948 241.539C723.948 241.888 723.841 242.166 723.627 242.373C723.42 242.574 723.136 242.674 722.773 242.674ZM721.851 254V244.635H723.695V254H721.851ZM727.248 254V240.733H729.092V254H727.248ZM733.46 242.674C733.091 242.674 732.8 242.574 732.587 242.373C732.38 242.166 732.276 241.888 732.276 241.539C732.276 241.202 732.38 240.937 732.587 240.743C732.8 240.542 733.091 240.442 733.46 240.442C733.822 240.442 734.107 240.542 734.314 240.743C734.528 240.937 734.634 241.202 734.634 241.539C734.634 241.888 734.528 242.166 734.314 242.373C734.107 242.574 733.822 242.674 733.46 242.674ZM732.538 254V244.635H734.382V254H732.538ZM740.934 254.252C740.403 254.252 739.925 254.152 739.497 253.951C739.07 253.751 738.731 253.45 738.478 253.049C738.233 252.641 738.11 252.13 738.11 251.516V242.121H739.944V251.457C739.944 252.337 740.355 252.777 741.176 252.777C741.429 252.777 741.675 252.751 741.914 252.7C742.153 252.641 742.425 252.557 742.729 252.447L742.991 253.757C742.648 253.9 742.309 254.016 741.972 254.107C741.642 254.204 741.296 254.252 740.934 254.252ZM736.683 245.916V244.664H742.71V245.916H736.683ZM750.751 254L750.518 251.855V247.963C750.518 247.2 750.36 246.647 750.043 246.304C749.726 245.955 749.224 245.78 748.538 245.78C748.15 245.78 747.804 245.838 747.5 245.955C747.202 246.065 746.966 246.233 746.792 246.459C746.623 246.686 746.539 246.97 746.539 247.313H744.501C744.501 246.627 744.669 246.071 745.006 245.644C745.342 245.217 745.811 244.906 746.413 244.712C747.021 244.512 747.73 244.411 748.538 244.411C749.295 244.411 749.962 244.538 750.538 244.79C751.114 245.036 751.56 245.424 751.877 245.955C752.2 246.485 752.362 247.171 752.362 248.012V254H750.751ZM747.626 254.252C746.843 254.252 746.193 254.116 745.675 253.845C745.158 253.567 744.77 253.204 744.511 252.758C744.259 252.311 744.132 251.836 744.132 251.331C744.132 250.716 744.288 250.212 744.598 249.817C744.915 249.416 745.352 249.118 745.908 248.924C746.465 248.73 747.105 248.633 747.83 248.633C748.328 248.633 748.813 248.678 749.286 248.769C749.758 248.86 750.224 248.979 750.683 249.128V250.244C750.308 250.108 749.891 250.002 749.431 249.924C748.978 249.84 748.555 249.798 748.16 249.798C747.571 249.798 747.079 249.914 746.685 250.147C746.29 250.38 746.093 250.775 746.093 251.331C746.093 251.739 746.248 252.091 746.559 252.389C746.869 252.68 747.361 252.826 748.034 252.826C748.526 252.826 748.959 252.716 749.334 252.496C749.71 252.269 750.001 251.988 750.208 251.651C750.415 251.315 750.518 250.979 750.518 250.642H750.965C750.965 251.289 750.832 251.888 750.567 252.437C750.308 252.981 749.93 253.421 749.431 253.757C748.933 254.087 748.331 254.252 747.626 254.252ZM758.388 254.252C757.857 254.252 757.378 254.152 756.951 253.951C756.524 253.751 756.185 253.45 755.932 253.049C755.686 252.641 755.564 252.13 755.564 251.516V242.121H757.398V251.457C757.398 252.337 757.809 252.777 758.63 252.777C758.883 252.777 759.128 252.751 759.368 252.7C759.607 252.641 759.879 252.557 760.183 252.447L760.445 253.757C760.102 253.9 759.763 254.016 759.426 254.107C759.096 254.204 758.75 254.252 758.388 254.252ZM754.137 245.916V244.664H760.164V245.916H754.137ZM765.701 254.252C764.899 254.252 764.174 254.045 763.527 253.631C762.88 253.217 762.366 252.641 761.984 251.904C761.609 251.166 761.421 250.312 761.421 249.342C761.421 248.313 761.609 247.433 761.984 246.702C762.359 245.964 762.871 245.398 763.518 245.003C764.165 244.609 764.892 244.411 765.701 244.411C766.426 244.411 767.047 244.56 767.565 244.858C768.082 245.149 768.499 245.544 768.816 246.042C769.133 246.534 769.35 247.093 769.467 247.721C769.59 248.348 769.612 248.995 769.535 249.662H762.896V248.594H768.273L767.827 248.885C767.846 248.536 767.827 248.187 767.768 247.837C767.717 247.488 767.613 247.168 767.458 246.877C767.302 246.579 767.082 246.343 766.798 246.168C766.52 245.987 766.164 245.896 765.73 245.896C765.187 245.896 764.731 246.032 764.362 246.304C764 246.576 763.725 246.941 763.537 247.401C763.349 247.853 763.255 248.352 763.255 248.895V249.642C763.255 250.244 763.346 250.778 763.527 251.244C763.708 251.71 763.977 252.078 764.333 252.35C764.695 252.615 765.151 252.748 765.701 252.748C766.238 252.748 766.681 252.622 767.031 252.37C767.387 252.117 767.607 251.739 767.691 251.234H769.573C769.476 251.842 769.253 252.373 768.904 252.826C768.554 253.279 768.105 253.631 767.555 253.884C767.011 254.129 766.393 254.252 765.701 254.252ZM789.161 254V248.526C789.161 247.718 788.967 247.106 788.579 246.692C788.197 246.272 787.683 246.061 787.036 246.061C786.259 246.061 785.658 246.365 785.23 246.974C784.81 247.582 784.6 248.455 784.6 249.594H783.794C783.794 248.695 783.881 247.918 784.056 247.265C784.231 246.611 784.48 246.074 784.803 245.654C785.133 245.233 785.525 244.923 785.978 244.722C786.437 244.515 786.948 244.411 787.511 244.411C788.262 244.411 788.896 244.58 789.413 244.916C789.937 245.253 790.335 245.731 790.607 246.352C790.879 246.967 791.015 247.692 791.015 248.526V254H789.161ZM776.224 254V244.664H777.826L778.029 246.42C778.327 245.767 778.735 245.269 779.252 244.926C779.776 244.583 780.391 244.411 781.096 244.411C781.847 244.411 782.481 244.58 782.998 244.916C783.522 245.253 783.92 245.731 784.192 246.352C784.464 246.967 784.6 247.692 784.6 248.526V254H782.765V248.526C782.765 247.718 782.571 247.106 782.183 246.692C781.801 246.272 781.284 246.061 780.63 246.061C780.113 246.061 779.66 246.204 779.272 246.488C778.89 246.767 778.592 247.177 778.379 247.721C778.172 248.258 778.068 248.915 778.068 249.691V254H776.224ZM797.525 254.252C796.677 254.252 795.917 254.068 795.244 253.699C794.578 253.33 794.051 252.78 793.662 252.049C793.274 251.318 793.08 250.416 793.08 249.342C793.08 248.248 793.274 247.339 793.662 246.614C794.051 245.883 794.578 245.333 795.244 244.965C795.917 244.596 796.677 244.411 797.525 244.411C798.36 244.411 799.11 244.596 799.776 244.965C800.443 245.333 800.967 245.883 801.349 246.614C801.737 247.339 801.931 248.248 801.931 249.342C801.931 250.416 801.737 251.318 801.349 252.049C800.967 252.78 800.443 253.33 799.776 253.699C799.11 254.068 798.36 254.252 797.525 254.252ZM797.467 252.641C798.004 252.641 798.466 252.512 798.854 252.253C799.249 251.994 799.55 251.619 799.757 251.127C799.971 250.629 800.077 250.034 800.077 249.342C800.077 248.281 799.861 247.459 799.427 246.877C799 246.294 798.382 246.003 797.573 246.003C797.03 246.003 796.561 246.136 796.166 246.401C795.778 246.66 795.477 247.038 795.264 247.536C795.057 248.028 794.953 248.63 794.953 249.342C794.953 250.383 795.17 251.195 795.603 251.778C796.037 252.353 796.658 252.641 797.467 252.641ZM804.293 254V244.635H806.137V254H804.293ZM805.632 249.827C805.632 248.63 805.755 247.637 806.001 246.847C806.253 246.052 806.603 245.46 807.049 245.071C807.502 244.683 808.033 244.489 808.641 244.489C808.822 244.489 808.99 244.502 809.145 244.528C809.307 244.554 809.466 244.589 809.621 244.635L809.553 246.469C809.378 246.424 809.187 246.385 808.98 246.352C808.78 246.314 808.595 246.294 808.427 246.294C807.897 246.294 807.463 246.437 807.127 246.721C806.79 246.999 806.541 247.404 806.38 247.934C806.218 248.458 806.137 249.089 806.137 249.827H805.632ZM814.416 254.252C813.613 254.252 812.889 254.045 812.242 253.631C811.595 253.217 811.08 252.641 810.699 251.904C810.323 251.166 810.136 250.312 810.136 249.342C810.136 248.313 810.323 247.433 810.699 246.702C811.074 245.964 811.585 245.398 812.232 245.003C812.879 244.609 813.607 244.411 814.416 244.411C815.14 244.411 815.761 244.56 816.279 244.858C816.797 245.149 817.214 245.544 817.531 246.042C817.848 246.534 818.065 247.093 818.181 247.721C818.304 248.348 818.327 248.995 818.249 249.662H811.611V248.594H816.988L816.541 248.885C816.56 248.536 816.541 248.187 816.483 247.837C816.431 247.488 816.328 247.168 816.172 246.877C816.017 246.579 815.797 246.343 815.512 246.168C815.234 245.987 814.878 245.896 814.445 245.896C813.901 245.896 813.445 246.032 813.076 246.304C812.714 246.576 812.439 246.941 812.251 247.401C812.064 247.853 811.97 248.352 811.97 248.895V249.642C811.97 250.244 812.061 250.778 812.242 251.244C812.423 251.71 812.691 252.078 813.047 252.35C813.41 252.615 813.866 252.748 814.416 252.748C814.953 252.748 815.396 252.622 815.745 252.37C816.101 252.117 816.321 251.739 816.405 251.234H818.288C818.191 251.842 817.968 252.373 817.618 252.826C817.269 253.279 816.819 253.631 816.269 253.884C815.726 254.129 815.108 254.252 814.416 254.252ZM828.287 254.252C827.485 254.252 826.76 254.045 826.113 253.631C825.466 253.217 824.952 252.641 824.57 251.904C824.195 251.166 824.007 250.312 824.007 249.342C824.007 248.313 824.195 247.433 824.57 246.702C824.945 245.964 825.456 245.398 826.103 245.003C826.75 244.609 827.478 244.411 828.287 244.411C829.012 244.411 829.633 244.56 830.15 244.858C830.668 245.149 831.085 245.544 831.402 246.042C831.719 246.534 831.936 247.093 832.053 247.721C832.175 248.348 832.198 248.995 832.121 249.662H825.482V248.594H830.859L830.412 248.885C830.432 248.536 830.412 248.187 830.354 247.837C830.302 247.488 830.199 247.168 830.044 246.877C829.888 246.579 829.668 246.343 829.384 246.168C829.105 245.987 828.75 245.896 828.316 245.896C827.773 245.896 827.317 246.032 826.948 246.304C826.585 246.576 826.31 246.941 826.123 247.401C825.935 247.853 825.841 248.352 825.841 248.895V249.642C825.841 250.244 825.932 250.778 826.113 251.244C826.294 251.71 826.563 252.078 826.919 252.35C827.281 252.615 827.737 252.748 828.287 252.748C828.824 252.748 829.267 252.622 829.617 252.37C829.972 252.117 830.192 251.739 830.277 251.234H832.159C832.062 251.842 831.839 252.373 831.49 252.826C831.14 253.279 830.691 253.631 830.141 253.884C829.597 254.129 828.979 254.252 828.287 254.252ZM835.081 254V243.354C835.081 242.707 835.204 242.183 835.449 241.781C835.702 241.374 836.035 241.073 836.449 240.879C836.863 240.685 837.319 240.588 837.817 240.588C838.102 240.588 838.393 240.607 838.691 240.646C838.995 240.685 839.293 240.743 839.584 240.821L839.234 242.257C839.053 242.192 838.869 242.14 838.681 242.102C838.5 242.063 838.325 242.043 838.157 242.043C837.957 242.043 837.762 242.082 837.575 242.16C837.387 242.231 837.232 242.364 837.109 242.558C836.993 242.752 836.934 243.027 836.934 243.383V254H835.081ZM833.615 245.916V244.664H838.769V245.916H833.615ZM841.438 254V243.354C841.438 242.707 841.561 242.183 841.807 241.781C842.059 241.374 842.393 241.073 842.807 240.879C843.221 240.685 843.677 240.588 844.175 240.588C844.46 240.588 844.751 240.607 845.048 240.646C845.353 240.685 845.65 240.743 845.941 240.821L845.592 242.257C845.411 242.192 845.226 242.14 845.039 242.102C844.858 242.063 844.683 242.043 844.515 242.043C844.314 242.043 844.12 242.082 843.932 242.16C843.745 242.231 843.589 242.364 843.467 242.558C843.35 242.752 843.292 243.027 843.292 243.383V254H841.438ZM839.973 245.916V244.664H845.126V245.916H839.973ZM848.833 242.674C848.465 242.674 848.173 242.574 847.96 242.373C847.753 242.166 847.649 241.888 847.649 241.539C847.649 241.202 847.753 240.937 847.96 240.743C848.173 240.542 848.465 240.442 848.833 240.442C849.196 240.442 849.48 240.542 849.687 240.743C849.901 240.937 850.008 241.202 850.008 241.539C850.008 241.888 849.901 242.166 849.687 242.373C849.48 242.574 849.196 242.674 848.833 242.674ZM847.911 254V244.635H849.755V254H847.911ZM856.715 254.252C855.952 254.252 855.24 254.049 854.58 253.641C853.92 253.233 853.39 252.661 852.988 251.923C852.587 251.186 852.387 250.319 852.387 249.322C852.387 248.274 852.587 247.388 852.988 246.663C853.39 245.932 853.92 245.375 854.58 244.994C855.24 244.606 855.952 244.411 856.715 244.411C857.278 244.411 857.779 244.502 858.219 244.683C858.659 244.858 859.038 245.097 859.355 245.401C859.672 245.699 859.927 246.035 860.122 246.411C860.322 246.786 860.461 247.174 860.539 247.575L858.666 247.672C858.53 247.187 858.291 246.799 857.948 246.508C857.611 246.21 857.194 246.061 856.696 246.061C856.275 246.061 855.877 246.181 855.502 246.42C855.133 246.653 854.832 247.012 854.599 247.498C854.373 247.976 854.26 248.585 854.26 249.322C854.26 250.008 854.366 250.594 854.58 251.079C854.794 251.564 855.085 251.936 855.453 252.195C855.822 252.454 856.236 252.583 856.696 252.583C857.356 252.583 857.847 252.425 858.171 252.108C858.501 251.784 858.666 251.341 858.666 250.778H860.539C860.539 251.431 860.387 252.02 860.083 252.544C859.779 253.068 859.339 253.486 858.763 253.796C858.193 254.1 857.511 254.252 856.715 254.252ZM864.023 242.674C863.654 242.674 863.363 242.574 863.149 242.373C862.942 242.166 862.839 241.888 862.839 241.539C862.839 241.202 862.942 240.937 863.149 240.743C863.363 240.542 863.654 240.442 864.023 240.442C864.385 240.442 864.67 240.542 864.877 240.743C865.09 240.937 865.197 241.202 865.197 241.539C865.197 241.888 865.09 242.166 864.877 242.373C864.67 242.574 864.385 242.674 864.023 242.674ZM863.101 254V244.635H864.945V254H863.101ZM871.846 254.252C871.044 254.252 870.319 254.045 869.672 253.631C869.025 253.217 868.511 252.641 868.129 251.904C867.754 251.166 867.566 250.312 867.566 249.342C867.566 248.313 867.754 247.433 868.129 246.702C868.504 245.964 869.015 245.398 869.662 245.003C870.309 244.609 871.037 244.411 871.846 244.411C872.57 244.411 873.192 244.56 873.709 244.858C874.227 245.149 874.644 245.544 874.961 246.042C875.278 246.534 875.495 247.093 875.611 247.721C875.734 248.348 875.757 248.995 875.679 249.662H869.041V248.594H874.418L873.971 248.885C873.991 248.536 873.971 248.187 873.913 247.837C873.861 247.488 873.758 247.168 873.602 246.877C873.447 246.579 873.227 246.343 872.942 246.168C872.664 245.987 872.308 245.896 871.875 245.896C871.331 245.896 870.875 246.032 870.507 246.304C870.144 246.576 869.869 246.941 869.682 247.401C869.494 247.853 869.4 248.352 869.4 248.895V249.642C869.4 250.244 869.491 250.778 869.672 251.244C869.853 251.71 870.122 252.078 870.477 252.35C870.84 252.615 871.296 252.748 871.846 252.748C872.383 252.748 872.826 252.622 873.175 252.37C873.531 252.117 873.751 251.739 873.835 251.234H875.718C875.621 251.842 875.398 252.373 875.048 252.826C874.699 253.279 874.249 253.631 873.699 253.884C873.156 254.129 872.538 254.252 871.846 254.252ZM884.657 254V248.526C884.657 247.718 884.462 247.106 884.074 246.692C883.693 246.272 883.175 246.061 882.521 246.061C882.004 246.061 881.551 246.204 881.163 246.488C880.781 246.767 880.483 247.177 880.27 247.721C880.063 248.258 879.959 248.915 879.959 249.691H879.299C879.299 248.546 879.445 247.582 879.736 246.799C880.034 246.016 880.458 245.424 881.007 245.023C881.557 244.615 882.217 244.411 882.987 244.411C883.738 244.411 884.372 244.58 884.889 244.916C885.414 245.253 885.811 245.731 886.083 246.352C886.355 246.967 886.491 247.692 886.491 248.526V254H884.657ZM878.115 254V244.664H879.717L879.959 246.682V254H878.115ZM892.514 254.252C891.983 254.252 891.504 254.152 891.077 253.951C890.65 253.751 890.311 253.45 890.058 253.049C889.813 252.641 889.69 252.13 889.69 251.516V242.121H891.524V251.457C891.524 252.337 891.935 252.777 892.756 252.777C893.009 252.777 893.255 252.751 893.494 252.7C893.733 252.641 894.005 252.557 894.309 252.447L894.571 253.757C894.228 253.9 893.889 254.016 893.552 254.107C893.222 254.204 892.876 254.252 892.514 254.252ZM888.263 245.916V244.664H894.29V245.916H888.263ZM901.257 254V243.354C901.257 242.707 901.38 242.183 901.625 241.781C901.878 241.374 902.211 241.073 902.625 240.879C903.039 240.685 903.495 240.588 903.993 240.588C904.278 240.588 904.569 240.607 904.867 240.646C905.171 240.685 905.469 240.743 905.76 240.821L905.41 242.257C905.229 242.192 905.045 242.14 904.857 242.102C904.676 242.063 904.501 242.043 904.333 242.043C904.133 242.043 903.938 242.082 903.751 242.16C903.563 242.231 903.408 242.364 903.285 242.558C903.169 242.752 903.11 243.027 903.11 243.383V254H901.257ZM899.791 245.916V244.664H904.945V245.916H899.791ZM910.603 254.252C909.756 254.252 908.996 254.068 908.323 253.699C907.656 253.33 907.129 252.78 906.741 252.049C906.353 251.318 906.158 250.416 906.158 249.342C906.158 248.248 906.353 247.339 906.741 246.614C907.129 245.883 907.656 245.333 908.323 244.965C908.996 244.596 909.756 244.411 910.603 244.411C911.438 244.411 912.188 244.596 912.855 244.965C913.521 245.333 914.045 245.883 914.427 246.614C914.815 247.339 915.009 248.248 915.009 249.342C915.009 250.416 914.815 251.318 914.427 252.049C914.045 252.78 913.521 253.33 912.855 253.699C912.188 254.068 911.438 254.252 910.603 254.252ZM910.545 252.641C911.082 252.641 911.545 252.512 911.933 252.253C912.328 251.994 912.628 251.619 912.835 251.127C913.049 250.629 913.156 250.034 913.156 249.342C913.156 248.281 912.939 247.459 912.505 246.877C912.078 246.294 911.461 246.003 910.652 246.003C910.108 246.003 909.639 246.136 909.245 246.401C908.856 246.66 908.556 247.038 908.342 247.536C908.135 248.028 908.031 248.63 908.031 249.342C908.031 250.383 908.248 251.195 908.682 251.778C909.115 252.353 909.736 252.641 910.545 252.641ZM920.885 254.252C920.037 254.252 919.277 254.068 918.604 253.699C917.937 253.33 917.41 252.78 917.022 252.049C916.634 251.318 916.44 250.416 916.44 249.342C916.44 248.248 916.634 247.339 917.022 246.614C917.41 245.883 917.937 245.333 918.604 244.965C919.277 244.596 920.037 244.411 920.885 244.411C921.719 244.411 922.47 244.596 923.136 244.965C923.803 245.333 924.327 245.883 924.708 246.614C925.097 247.339 925.291 248.248 925.291 249.342C925.291 250.416 925.097 251.318 924.708 252.049C924.327 252.78 923.803 253.33 923.136 253.699C922.47 254.068 921.719 254.252 920.885 254.252ZM920.826 252.641C921.363 252.641 921.826 252.512 922.214 252.253C922.609 251.994 922.91 251.619 923.117 251.127C923.33 250.629 923.437 250.034 923.437 249.342C923.437 248.281 923.22 247.459 922.787 246.877C922.36 246.294 921.742 246.003 920.933 246.003C920.39 246.003 919.921 246.136 919.526 246.401C919.138 246.66 918.837 247.038 918.623 247.536C918.416 248.028 918.313 248.63 918.313 249.342C918.313 250.383 918.529 251.195 918.963 251.778C919.396 252.353 920.018 252.641 920.826 252.641ZM931.04 254.252C930.276 254.252 929.574 254.049 928.934 253.641C928.293 253.227 927.782 252.651 927.4 251.913C927.025 251.169 926.837 250.296 926.837 249.293C926.837 248.297 927.022 247.433 927.391 246.702C927.766 245.971 928.261 245.408 928.875 245.013C929.49 244.612 930.173 244.411 930.923 244.411C931.609 244.411 932.207 244.58 932.719 244.916C933.23 245.246 933.624 245.728 933.903 246.362C934.187 246.996 934.33 247.769 934.33 248.682H933.689C933.689 248.119 933.576 247.643 933.349 247.255C933.123 246.86 932.829 246.563 932.466 246.362C932.104 246.162 931.716 246.061 931.302 246.061C930.816 246.061 930.376 246.194 929.982 246.459C929.594 246.718 929.283 247.09 929.05 247.575C928.824 248.054 928.71 248.627 928.71 249.293C928.71 249.966 928.824 250.551 929.05 251.05C929.283 251.541 929.594 251.92 929.982 252.185C930.376 252.45 930.813 252.583 931.292 252.583C931.687 252.583 932.065 252.48 932.427 252.273C932.796 252.059 933.097 251.755 933.33 251.36C933.569 250.966 933.689 250.496 933.689 249.953H934.33C934.33 250.885 934.181 251.671 933.883 252.311C933.592 252.952 933.197 253.437 932.699 253.767C932.201 254.091 931.648 254.252 931.04 254.252ZM934.009 254L933.689 251.758V240.733H935.543V254H934.009ZM553.548 286.252C552.701 286.252 551.941 286.068 551.268 285.699C550.601 285.33 550.074 284.78 549.686 284.049C549.298 283.318 549.104 282.416 549.104 281.342C549.104 280.248 549.298 279.339 549.686 278.614C550.074 277.883 550.601 277.333 551.268 276.965C551.941 276.596 552.701 276.411 553.548 276.411C554.383 276.411 555.134 276.596 555.8 276.965C556.466 277.333 556.99 277.883 557.372 278.614C557.76 279.339 557.954 280.248 557.954 281.342C557.954 282.416 557.76 283.318 557.372 284.049C556.99 284.78 556.466 285.33 555.8 285.699C555.134 286.068 554.383 286.252 553.548 286.252ZM553.49 284.641C554.027 284.641 554.49 284.512 554.878 284.253C555.273 283.994 555.574 283.619 555.781 283.127C555.994 282.629 556.101 282.034 556.101 281.342C556.101 280.281 555.884 279.459 555.451 278.877C555.024 278.294 554.406 278.003 553.597 278.003C553.053 278.003 552.584 278.136 552.19 278.401C551.802 278.66 551.501 279.038 551.287 279.536C551.08 280.028 550.977 280.63 550.977 281.342C550.977 282.383 551.193 283.195 551.627 283.778C552.06 284.353 552.681 284.641 553.49 284.641ZM560.316 286V276.635H562.16V286H560.316ZM561.656 281.827C561.656 280.63 561.779 279.637 562.025 278.847C562.277 278.052 562.626 277.46 563.073 277.071C563.526 276.683 564.056 276.489 564.664 276.489C564.845 276.489 565.014 276.502 565.169 276.528C565.331 276.554 565.489 276.589 565.644 276.635L565.577 278.469C565.402 278.424 565.211 278.385 565.004 278.352C564.803 278.314 564.619 278.294 564.451 278.294C563.92 278.294 563.487 278.437 563.15 278.721C562.814 278.999 562.565 279.404 562.403 279.934C562.241 280.458 562.16 281.089 562.16 281.827H561.656ZM570.478 286.252C569.715 286.252 569.013 286.049 568.372 285.641C567.731 285.227 567.22 284.651 566.839 283.913C566.463 283.169 566.276 282.296 566.276 281.293C566.276 280.297 566.46 279.433 566.829 278.702C567.204 277.971 567.699 277.408 568.314 277.013C568.928 276.612 569.611 276.411 570.362 276.411C571.047 276.411 571.646 276.58 572.157 276.916C572.668 277.246 573.063 277.728 573.341 278.362C573.626 278.996 573.768 279.769 573.768 280.682H573.127C573.127 280.119 573.014 279.643 572.788 279.255C572.561 278.86 572.267 278.563 571.905 278.362C571.542 278.162 571.154 278.061 570.74 278.061C570.255 278.061 569.815 278.194 569.42 278.459C569.032 278.718 568.721 279.09 568.488 279.575C568.262 280.054 568.149 280.627 568.149 281.293C568.149 281.966 568.262 282.551 568.488 283.05C568.721 283.541 569.032 283.92 569.42 284.185C569.815 284.45 570.252 284.583 570.73 284.583C571.125 284.583 571.504 284.48 571.866 284.273C572.235 284.059 572.535 283.755 572.768 283.36C573.008 282.966 573.127 282.496 573.127 281.953H573.768C573.768 282.885 573.619 283.671 573.322 284.311C573.03 284.952 572.636 285.437 572.138 285.767C571.639 286.091 571.086 286.252 570.478 286.252ZM573.448 286L573.127 283.758V272.733H574.981V286H573.448ZM581.63 286.252C580.828 286.252 580.103 286.045 579.456 285.631C578.809 285.217 578.295 284.641 577.913 283.904C577.538 283.166 577.35 282.312 577.35 281.342C577.35 280.313 577.538 279.433 577.913 278.702C578.289 277.964 578.8 277.398 579.447 277.003C580.094 276.609 580.822 276.411 581.63 276.411C582.355 276.411 582.976 276.56 583.494 276.858C584.011 277.149 584.429 277.544 584.746 278.042C585.063 278.534 585.279 279.093 585.396 279.721C585.519 280.348 585.541 280.995 585.464 281.662H578.826V280.594H584.202L583.756 280.885C583.775 280.536 583.756 280.187 583.697 279.837C583.646 279.488 583.542 279.168 583.387 278.877C583.232 278.579 583.012 278.343 582.727 278.168C582.449 277.987 582.093 277.896 581.659 277.896C581.116 277.896 580.66 278.032 580.291 278.304C579.929 278.576 579.654 278.941 579.466 279.401C579.278 279.853 579.185 280.352 579.185 280.895V281.642C579.185 282.244 579.275 282.778 579.456 283.244C579.638 283.71 579.906 284.078 580.262 284.35C580.624 284.615 581.08 284.748 581.63 284.748C582.167 284.748 582.61 284.622 582.96 284.37C583.316 284.117 583.536 283.739 583.62 283.234H585.503C585.406 283.842 585.182 284.373 584.833 284.826C584.484 285.279 584.034 285.631 583.484 285.884C582.94 286.129 582.323 286.252 581.63 286.252ZM587.9 286V276.635H589.744V286H587.9ZM589.239 281.827C589.239 280.63 589.362 279.637 589.608 278.847C589.86 278.052 590.21 277.46 590.656 277.071C591.109 276.683 591.64 276.489 592.248 276.489C592.429 276.489 592.597 276.502 592.752 276.528C592.914 276.554 593.073 276.589 593.228 276.635L593.16 278.469C592.985 278.424 592.794 278.385 592.587 278.352C592.387 278.314 592.202 278.294 592.034 278.294C591.504 278.294 591.07 278.437 590.734 278.721C590.397 278.999 590.148 279.404 589.986 279.934C589.825 280.458 589.744 281.089 589.744 281.827H589.239ZM595.742 274.674C595.373 274.674 595.082 274.574 594.869 274.373C594.661 274.166 594.558 273.888 594.558 273.539C594.558 273.202 594.661 272.937 594.869 272.743C595.082 272.542 595.373 272.442 595.742 272.442C596.104 272.442 596.389 272.542 596.596 272.743C596.81 272.937 596.916 273.202 596.916 273.539C596.916 273.888 596.81 274.166 596.596 274.373C596.389 274.574 596.104 274.674 595.742 274.674ZM594.82 286V276.635H596.664V286H594.82ZM606.758 286V280.526C606.758 279.718 606.564 279.106 606.176 278.692C605.794 278.272 605.276 278.061 604.623 278.061C604.105 278.061 603.652 278.204 603.264 278.488C602.883 278.767 602.585 279.177 602.371 279.721C602.164 280.258 602.061 280.915 602.061 281.691H601.401C601.401 280.546 601.546 279.582 601.838 278.799C602.135 278.016 602.559 277.424 603.109 277.023C603.659 276.615 604.319 276.411 605.089 276.411C605.839 276.411 606.473 276.58 606.991 276.916C607.515 277.253 607.913 277.731 608.185 278.352C608.456 278.967 608.592 279.692 608.592 280.526V286H606.758ZM600.217 286V276.664H601.818L602.061 278.682V286H600.217ZM615.052 290.814C614.043 290.814 613.172 290.675 612.441 290.396C611.717 290.118 611.157 289.746 610.762 289.28C610.368 288.814 610.17 288.307 610.17 287.757C610.17 287.058 610.426 286.521 610.937 286.146C611.448 285.777 612.098 285.592 612.888 285.592L614.082 286.155C613.409 286.155 612.888 286.291 612.519 286.563C612.157 286.835 611.976 287.203 611.976 287.669C611.976 288.155 612.241 288.552 612.771 288.863C613.302 289.18 614.062 289.339 615.052 289.339C615.77 289.339 616.401 289.232 616.944 289.018C617.488 288.811 617.909 288.536 618.206 288.193C618.504 287.857 618.653 287.495 618.653 287.106C618.653 286.841 618.556 286.615 618.361 286.427C618.174 286.246 617.886 286.155 617.498 286.155H614.082C613.447 286.155 612.888 286.058 612.403 285.864C611.924 285.664 611.549 285.402 611.277 285.078C611.005 284.755 610.869 284.395 610.869 284.001C610.869 283.613 610.979 283.279 611.199 283.001C611.419 282.716 611.71 282.503 612.073 282.361C612.435 282.212 612.833 282.137 613.266 282.137L613.684 282.778C613.496 282.778 613.308 282.82 613.121 282.904C612.933 282.982 612.778 283.101 612.655 283.263C612.532 283.425 612.47 283.626 612.47 283.865C612.47 284.143 612.587 284.376 612.82 284.564C613.059 284.745 613.48 284.835 614.082 284.835H617.498C618.429 284.835 619.16 285.02 619.691 285.389C620.222 285.757 620.487 286.294 620.487 287C620.487 287.64 620.267 288.252 619.827 288.834C619.387 289.416 618.759 289.892 617.944 290.26C617.135 290.629 616.171 290.814 615.052 290.814ZM615.256 283.195C614.531 283.195 613.871 283.056 613.276 282.778C612.687 282.493 612.218 282.099 611.869 281.594C611.519 281.083 611.345 280.488 611.345 279.808C611.345 279.122 611.519 278.527 611.869 278.022C612.218 277.511 612.687 277.117 613.276 276.838C613.871 276.554 614.531 276.411 615.256 276.411C615.961 276.411 616.605 276.554 617.187 276.838C617.776 277.117 618.245 277.511 618.594 278.022C618.95 278.527 619.128 279.122 619.128 279.808C619.128 280.488 618.95 281.083 618.594 281.594C618.245 282.099 617.776 282.493 617.187 282.778C616.605 283.056 615.961 283.195 615.256 283.195ZM615.256 281.895C615.922 281.895 616.43 281.697 616.78 281.303C617.135 280.902 617.313 280.403 617.313 279.808C617.313 279.187 617.135 278.686 616.78 278.304C616.43 277.922 615.922 277.731 615.256 277.731C614.602 277.731 614.091 277.922 613.722 278.304C613.36 278.686 613.179 279.187 613.179 279.808C613.179 280.403 613.36 280.902 613.722 281.303C614.091 281.697 614.602 281.895 615.256 281.895ZM618.429 277.906L617.566 277.489C617.566 276.932 617.682 276.447 617.915 276.033C618.148 275.619 618.471 275.295 618.885 275.062C619.3 274.83 619.775 274.713 620.312 274.713L620.196 276.509C619.62 276.509 619.18 276.622 618.876 276.848C618.578 277.075 618.429 277.427 618.429 277.906ZM624.901 276.664H626.822L629.045 284.156H628.841L630.986 277.139H632.587L634.722 284.175H634.528L636.751 276.664H638.595L635.528 286H633.723L631.607 279.401H631.888L629.802 286H627.997L624.901 276.664ZM646.878 286V280.526C646.878 279.718 646.684 279.106 646.296 278.692C645.914 278.272 645.397 278.061 644.743 278.061C644.226 278.061 643.773 278.204 643.385 278.488C643.003 278.767 642.705 279.177 642.492 279.721C642.285 280.258 642.181 280.915 642.181 281.691H641.521C641.521 280.546 641.667 279.582 641.958 278.799C642.256 278.016 642.679 277.424 643.229 277.023C643.779 276.615 644.439 276.411 645.209 276.411C645.96 276.411 646.594 276.58 647.111 276.916C647.635 277.253 648.033 277.731 648.305 278.352C648.577 278.967 648.713 279.692 648.713 280.526V286H646.878ZM640.337 286V272.733H642.181V286H640.337ZM652.804 274.674C652.436 274.674 652.144 274.574 651.931 274.373C651.724 274.166 651.62 273.888 651.62 273.539C651.62 273.202 651.724 272.937 651.931 272.743C652.144 272.542 652.436 272.442 652.804 272.442C653.167 272.442 653.451 272.542 653.658 272.743C653.872 272.937 653.979 273.202 653.979 273.539C653.979 273.888 653.872 274.166 653.658 274.373C653.451 274.574 653.167 274.674 652.804 274.674ZM651.882 286V276.635H653.726V286H651.882ZM657.279 286V272.733H659.123V286H657.279ZM665.772 286.252C664.97 286.252 664.245 286.045 663.598 285.631C662.951 285.217 662.437 284.641 662.055 283.904C661.68 283.166 661.492 282.312 661.492 281.342C661.492 280.313 661.68 279.433 662.055 278.702C662.43 277.964 662.941 277.398 663.588 277.003C664.235 276.609 664.963 276.411 665.772 276.411C666.497 276.411 667.118 276.56 667.635 276.858C668.153 277.149 668.57 277.544 668.887 278.042C669.204 278.534 669.421 279.093 669.537 279.721C669.66 280.348 669.683 280.995 669.605 281.662H662.967V280.594H668.344L667.897 280.885C667.917 280.536 667.897 280.187 667.839 279.837C667.787 279.488 667.684 279.168 667.528 278.877C667.373 278.579 667.153 278.343 666.869 278.168C666.59 277.987 666.234 277.896 665.801 277.896C665.258 277.896 664.801 278.032 664.433 278.304C664.07 278.576 663.795 278.941 663.608 279.401C663.42 279.853 663.326 280.352 663.326 280.895V281.642C663.326 282.244 663.417 282.778 663.598 283.244C663.779 283.71 664.048 284.078 664.403 284.35C664.766 284.615 665.222 284.748 665.772 284.748C666.309 284.748 666.752 284.622 667.101 284.37C667.457 284.117 667.677 283.739 667.761 283.234H669.644C669.547 283.842 669.324 284.373 668.975 284.826C668.625 285.279 668.175 285.631 667.626 285.884C667.082 286.129 666.464 286.252 665.772 286.252ZM679.711 286.252C678.805 286.252 678.042 286.126 677.421 285.874C676.8 285.615 676.324 285.259 675.994 284.806C675.671 284.347 675.502 283.81 675.489 283.195H677.227C677.253 283.732 677.466 284.13 677.867 284.389C678.275 284.648 678.825 284.777 679.517 284.777C679.886 284.777 680.219 284.719 680.517 284.602C680.821 284.486 681.06 284.328 681.235 284.127C681.416 283.926 681.507 283.7 681.507 283.448C681.507 283.131 681.39 282.881 681.157 282.7C680.924 282.513 680.549 282.348 680.031 282.205L678.12 281.555C677.356 281.296 676.771 280.953 676.363 280.526C675.955 280.093 675.751 279.575 675.751 278.974C675.751 278.204 676.094 277.586 676.78 277.12C677.466 276.648 678.375 276.411 679.507 276.411C680.678 276.411 681.581 276.661 682.215 277.159C682.856 277.65 683.189 278.268 683.215 279.012H681.439C681.393 278.644 681.209 278.362 680.885 278.168C680.568 277.967 680.109 277.867 679.507 277.867C678.944 277.867 678.501 277.99 678.178 278.236C677.861 278.482 677.702 278.76 677.702 279.071C677.702 279.627 678.181 280.041 679.139 280.313L681.147 281.021C681.911 281.267 682.5 281.584 682.914 281.972C683.328 282.361 683.535 282.852 683.535 283.448C683.535 283.926 683.376 284.379 683.059 284.806C682.742 285.233 682.296 285.583 681.72 285.854C681.151 286.12 680.481 286.252 679.711 286.252ZM689.025 286.252C688.495 286.252 688.016 286.152 687.589 285.951C687.162 285.751 686.822 285.45 686.57 285.049C686.324 284.641 686.201 284.13 686.201 283.516V274.121H688.035V283.457C688.035 284.337 688.446 284.777 689.268 284.777C689.52 284.777 689.766 284.751 690.006 284.7C690.245 284.641 690.517 284.557 690.821 284.447L691.083 285.757C690.74 285.9 690.4 286.016 690.064 286.107C689.734 286.204 689.388 286.252 689.025 286.252ZM684.775 277.916V276.664H690.801V277.916H684.775ZM698.843 286L698.61 283.855V279.963C698.61 279.2 698.451 278.647 698.134 278.304C697.817 277.955 697.316 277.78 696.63 277.78C696.242 277.78 695.896 277.838 695.592 277.955C695.294 278.065 695.058 278.233 694.883 278.459C694.715 278.686 694.631 278.97 694.631 279.313H692.593C692.593 278.627 692.761 278.071 693.097 277.644C693.434 277.217 693.903 276.906 694.505 276.712C695.113 276.512 695.821 276.411 696.63 276.411C697.387 276.411 698.053 276.538 698.629 276.79C699.205 277.036 699.651 277.424 699.968 277.955C700.292 278.485 700.454 279.171 700.454 280.012V286H698.843ZM695.718 286.252C694.935 286.252 694.285 286.116 693.767 285.845C693.249 285.567 692.861 285.204 692.602 284.758C692.35 284.311 692.224 283.836 692.224 283.331C692.224 282.716 692.379 282.212 692.69 281.817C693.007 281.416 693.444 281.118 694 280.924C694.556 280.73 695.197 280.633 695.922 280.633C696.42 280.633 696.905 280.678 697.377 280.769C697.85 280.86 698.315 280.979 698.775 281.128V282.244C698.4 282.108 697.982 282.002 697.523 281.924C697.07 281.84 696.646 281.798 696.251 281.798C695.663 281.798 695.171 281.914 694.776 282.147C694.382 282.38 694.184 282.775 694.184 283.331C694.184 283.739 694.34 284.091 694.65 284.389C694.961 284.68 695.452 284.826 696.125 284.826C696.617 284.826 697.051 284.716 697.426 284.496C697.801 284.269 698.092 283.988 698.299 283.651C698.506 283.315 698.61 282.979 698.61 282.642H699.056C699.056 283.289 698.924 283.888 698.658 284.437C698.4 284.981 698.021 285.421 697.523 285.757C697.025 286.087 696.423 286.252 695.718 286.252ZM710.022 286V280.526C710.022 279.718 709.827 279.106 709.439 278.692C709.057 278.272 708.54 278.061 707.886 278.061C707.369 278.061 706.916 278.204 706.528 278.488C706.146 278.767 705.848 279.177 705.635 279.721C705.428 280.258 705.324 280.915 705.324 281.691H704.664C704.664 280.546 704.81 279.582 705.101 278.799C705.399 278.016 705.822 277.424 706.372 277.023C706.922 276.615 707.582 276.411 708.352 276.411C709.103 276.411 709.737 276.58 710.254 276.916C710.778 277.253 711.176 277.731 711.448 278.352C711.72 278.967 711.856 279.692 711.856 280.526V286H710.022ZM703.48 286V276.664H705.082L705.324 278.682V286H703.48ZM718.267 286.252C717.504 286.252 716.802 286.049 716.161 285.641C715.52 285.227 715.009 284.651 714.628 283.913C714.252 283.169 714.065 282.296 714.065 281.293C714.065 280.297 714.249 279.433 714.618 278.702C714.993 277.971 715.488 277.408 716.103 277.013C716.717 276.612 717.4 276.411 718.151 276.411C718.836 276.411 719.435 276.58 719.946 276.916C720.457 277.246 720.852 277.728 721.13 278.362C721.415 278.996 721.557 279.769 721.557 280.682H720.916C720.916 280.119 720.803 279.643 720.577 279.255C720.35 278.86 720.056 278.563 719.694 278.362C719.331 278.162 718.943 278.061 718.529 278.061C718.044 278.061 717.604 278.194 717.209 278.459C716.821 278.718 716.51 279.09 716.277 279.575C716.051 280.054 715.938 280.627 715.938 281.293C715.938 281.966 716.051 282.551 716.277 283.05C716.51 283.541 716.821 283.92 717.209 284.185C717.604 284.45 718.041 284.583 718.519 284.583C718.914 284.583 719.292 284.48 719.655 284.273C720.024 284.059 720.324 283.755 720.557 283.36C720.797 282.966 720.916 282.496 720.916 281.953H721.557C721.557 282.885 721.408 283.671 721.111 284.311C720.819 284.952 720.425 285.437 719.927 285.767C719.428 286.091 718.875 286.252 718.267 286.252ZM721.237 286L720.916 283.758V272.733H722.77V286H721.237ZM727.139 274.674C726.77 274.674 726.479 274.574 726.265 274.373C726.058 274.166 725.955 273.888 725.955 273.539C725.955 273.202 726.058 272.937 726.265 272.743C726.479 272.542 726.77 272.442 727.139 272.442C727.501 272.442 727.786 272.542 727.993 272.743C728.206 272.937 728.313 273.202 728.313 273.539C728.313 273.888 728.206 274.166 727.993 274.373C727.786 274.574 727.501 274.674 727.139 274.674ZM726.217 286V276.635H728.061V286H726.217ZM738.155 286V280.526C738.155 279.718 737.961 279.106 737.572 278.692C737.191 278.272 736.673 278.061 736.02 278.061C735.502 278.061 735.049 278.204 734.661 278.488C734.279 278.767 733.981 279.177 733.768 279.721C733.561 280.258 733.457 280.915 733.457 281.691H732.797C732.797 280.546 732.943 279.582 733.234 278.799C733.532 278.016 733.956 277.424 734.506 277.023C735.056 276.615 735.715 276.411 736.485 276.411C737.236 276.411 737.87 276.58 738.388 276.916C738.912 277.253 739.31 277.731 739.581 278.352C739.853 278.967 739.989 279.692 739.989 280.526V286H738.155ZM731.613 286V276.664H733.215L733.457 278.682V286H731.613ZM746.449 290.814C745.439 290.814 744.569 290.675 743.838 290.396C743.113 290.118 742.554 289.746 742.159 289.28C741.764 288.814 741.567 288.307 741.567 287.757C741.567 287.058 741.823 286.521 742.334 286.146C742.845 285.777 743.495 285.592 744.284 285.592L745.478 286.155C744.805 286.155 744.284 286.291 743.916 286.563C743.553 286.835 743.372 287.203 743.372 287.669C743.372 288.155 743.637 288.552 744.168 288.863C744.698 289.18 745.459 289.339 746.449 289.339C747.167 289.339 747.798 289.232 748.341 289.018C748.885 288.811 749.305 288.536 749.603 288.193C749.9 287.857 750.049 287.495 750.049 287.106C750.049 286.841 749.952 286.615 749.758 286.427C749.57 286.246 749.282 286.155 748.894 286.155H745.478C744.844 286.155 744.284 286.058 743.799 285.864C743.32 285.664 742.945 285.402 742.673 285.078C742.402 284.755 742.266 284.395 742.266 284.001C742.266 283.613 742.376 283.279 742.596 283.001C742.816 282.716 743.107 282.503 743.469 282.361C743.832 282.212 744.229 282.137 744.663 282.137L745.08 282.778C744.893 282.778 744.705 282.82 744.517 282.904C744.33 282.982 744.174 283.101 744.051 283.263C743.929 283.425 743.867 283.626 743.867 283.865C743.867 284.143 743.984 284.376 744.216 284.564C744.456 284.745 744.876 284.835 745.478 284.835H748.894C749.826 284.835 750.557 285.02 751.088 285.389C751.618 285.757 751.883 286.294 751.883 287C751.883 287.64 751.663 288.252 751.223 288.834C750.784 289.416 750.156 289.892 749.341 290.26C748.532 290.629 747.568 290.814 746.449 290.814ZM746.652 283.195C745.928 283.195 745.268 283.056 744.673 282.778C744.084 282.493 743.615 282.099 743.265 281.594C742.916 281.083 742.741 280.488 742.741 279.808C742.741 279.122 742.916 278.527 743.265 278.022C743.615 277.511 744.084 277.117 744.673 276.838C745.268 276.554 745.928 276.411 746.652 276.411C747.358 276.411 748.001 276.554 748.584 276.838C749.172 277.117 749.642 277.511 749.991 278.022C750.347 278.527 750.525 279.122 750.525 279.808C750.525 280.488 750.347 281.083 749.991 281.594C749.642 282.099 749.172 282.493 748.584 282.778C748.001 283.056 747.358 283.195 746.652 283.195ZM746.652 281.895C747.319 281.895 747.827 281.697 748.176 281.303C748.532 280.902 748.71 280.403 748.71 279.808C748.71 279.187 748.532 278.686 748.176 278.304C747.827 277.922 747.319 277.731 746.652 277.731C745.999 277.731 745.488 277.922 745.119 278.304C744.757 278.686 744.576 279.187 744.576 279.808C744.576 280.403 744.757 280.902 745.119 281.303C745.488 281.697 745.999 281.895 746.652 281.895ZM749.826 277.906L748.962 277.489C748.962 276.932 749.079 276.447 749.312 276.033C749.545 275.619 749.868 275.295 750.282 275.062C750.696 274.83 751.172 274.713 751.709 274.713L751.592 276.509C751.016 276.509 750.576 276.622 750.272 276.848C749.975 277.075 749.826 277.427 749.826 277.906ZM761.402 286.252C760.555 286.252 759.794 286.068 759.122 285.699C758.455 285.33 757.928 284.78 757.54 284.049C757.151 283.318 756.957 282.416 756.957 281.342C756.957 280.248 757.151 279.339 757.54 278.614C757.928 277.883 758.455 277.333 759.122 276.965C759.794 276.596 760.555 276.411 761.402 276.411C762.237 276.411 762.987 276.596 763.654 276.965C764.32 277.333 764.844 277.883 765.226 278.614C765.614 279.339 765.808 280.248 765.808 281.342C765.808 282.416 765.614 283.318 765.226 284.049C764.844 284.78 764.32 285.33 763.654 285.699C762.987 286.068 762.237 286.252 761.402 286.252ZM761.344 284.641C761.881 284.641 762.344 284.512 762.732 284.253C763.126 283.994 763.427 283.619 763.634 283.127C763.848 282.629 763.955 282.034 763.955 281.342C763.955 280.281 763.738 279.459 763.304 278.877C762.877 278.294 762.259 278.003 761.451 278.003C760.907 278.003 760.438 278.136 760.044 278.401C759.655 278.66 759.354 279.038 759.141 279.536C758.934 280.028 758.83 280.63 758.83 281.342C758.83 282.383 759.047 283.195 759.481 283.778C759.914 284.353 760.535 284.641 761.344 284.641ZM774.459 276.635H776.313V286H774.459V276.635ZM767.937 276.635H769.781V282.419C769.781 283.124 769.953 283.658 770.296 284.02C770.645 284.382 771.133 284.564 771.761 284.564C772.292 284.564 772.757 284.425 773.159 284.146C773.566 283.868 773.883 283.473 774.11 282.962C774.343 282.451 774.459 281.846 774.459 281.148H775.051C775.051 282.241 774.902 283.16 774.605 283.904C774.307 284.648 773.89 285.214 773.353 285.602C772.816 285.984 772.188 286.175 771.47 286.175C770.784 286.175 770.173 286.049 769.636 285.796C769.105 285.544 768.688 285.156 768.384 284.632C768.086 284.101 767.937 283.418 767.937 282.584V276.635ZM782.607 286.252C782.076 286.252 781.597 286.152 781.17 285.951C780.743 285.751 780.404 285.45 780.151 285.049C779.905 284.641 779.782 284.13 779.782 283.516V274.121H781.617V283.457C781.617 284.337 782.027 284.777 782.849 284.777C783.102 284.777 783.347 284.751 783.587 284.7C783.826 284.641 784.098 284.557 784.402 284.447L784.664 285.757C784.321 285.9 783.981 286.016 783.645 286.107C783.315 286.204 782.969 286.252 782.607 286.252ZM778.356 277.916V276.664H784.383V277.916H778.356ZM791.349 286V275.354C791.349 274.707 791.472 274.183 791.718 273.781C791.971 273.374 792.304 273.073 792.718 272.879C793.132 272.685 793.588 272.588 794.086 272.588C794.371 272.588 794.662 272.607 794.96 272.646C795.264 272.685 795.561 272.743 795.853 272.821L795.503 274.257C795.322 274.192 795.138 274.14 794.95 274.102C794.769 274.063 794.594 274.043 794.426 274.043C794.225 274.043 794.031 274.082 793.844 274.16C793.656 274.231 793.501 274.364 793.378 274.558C793.261 274.752 793.203 275.027 793.203 275.383V286H791.349ZM789.884 277.916V276.664H795.037V277.916H789.884ZM797.183 286V276.635H799.027V286H797.183ZM798.522 281.827C798.522 280.63 798.645 279.637 798.891 278.847C799.143 278.052 799.493 277.46 799.939 277.071C800.392 276.683 800.923 276.489 801.531 276.489C801.712 276.489 801.88 276.502 802.035 276.528C802.197 276.554 802.356 276.589 802.511 276.635L802.443 278.469C802.268 278.424 802.077 278.385 801.87 278.352C801.67 278.314 801.485 278.294 801.317 278.294C800.787 278.294 800.353 278.437 800.017 278.721C799.68 278.999 799.431 279.404 799.269 279.934C799.108 280.458 799.027 281.089 799.027 281.827H798.522ZM807.471 286.252C806.623 286.252 805.863 286.068 805.19 285.699C804.524 285.33 803.996 284.78 803.608 284.049C803.22 283.318 803.026 282.416 803.026 281.342C803.026 280.248 803.22 279.339 803.608 278.614C803.996 277.883 804.524 277.333 805.19 276.965C805.863 276.596 806.623 276.411 807.471 276.411C808.305 276.411 809.056 276.596 809.722 276.965C810.389 277.333 810.913 277.883 811.294 278.614C811.683 279.339 811.877 280.248 811.877 281.342C811.877 282.416 811.683 283.318 811.294 284.049C810.913 284.78 810.389 285.33 809.722 285.699C809.056 286.068 808.305 286.252 807.471 286.252ZM807.412 284.641C807.949 284.641 808.412 284.512 808.8 284.253C809.195 283.994 809.496 283.619 809.703 283.127C809.916 282.629 810.023 282.034 810.023 281.342C810.023 280.281 809.806 279.459 809.373 278.877C808.946 278.294 808.328 278.003 807.519 278.003C806.976 278.003 806.507 278.136 806.112 278.401C805.724 278.66 805.423 279.038 805.209 279.536C805.002 280.028 804.899 280.63 804.899 281.342C804.899 282.383 805.116 283.195 805.549 283.778C805.983 284.353 806.604 284.641 807.412 284.641ZM827.175 286V280.526C827.175 279.718 826.981 279.106 826.593 278.692C826.211 278.272 825.697 278.061 825.05 278.061C824.274 278.061 823.672 278.365 823.245 278.974C822.824 279.582 822.614 280.455 822.614 281.594H821.809C821.809 280.695 821.896 279.918 822.071 279.265C822.245 278.611 822.494 278.074 822.818 277.654C823.148 277.233 823.539 276.923 823.992 276.722C824.452 276.515 824.963 276.411 825.526 276.411C826.276 276.411 826.91 276.58 827.428 276.916C827.952 277.253 828.35 277.731 828.621 278.352C828.893 278.967 829.029 279.692 829.029 280.526V286H827.175ZM814.239 286V276.664H815.84L816.044 278.42C816.341 277.767 816.749 277.269 817.267 276.926C817.791 276.583 818.405 276.411 819.111 276.411C819.861 276.411 820.495 276.58 821.013 276.916C821.537 277.253 821.935 277.731 822.206 278.352C822.478 278.967 822.614 279.692 822.614 280.526V286H820.78V280.526C820.78 279.718 820.586 279.106 820.198 278.692C819.816 278.272 819.298 278.061 818.645 278.061C818.127 278.061 817.674 278.204 817.286 278.488C816.904 278.767 816.607 279.177 816.393 279.721C816.186 280.258 816.083 280.915 816.083 281.691V286H814.239ZM839.696 286.252C838.79 286.252 838.027 286.126 837.405 285.874C836.784 285.615 836.309 285.259 835.979 284.806C835.655 284.347 835.487 283.81 835.474 283.195H837.211C837.237 283.732 837.451 284.13 837.852 284.389C838.259 284.648 838.809 284.777 839.502 284.777C839.87 284.777 840.204 284.719 840.501 284.602C840.805 284.486 841.045 284.328 841.219 284.127C841.401 283.926 841.491 283.7 841.491 283.448C841.491 283.131 841.375 282.881 841.142 282.7C840.909 282.513 840.534 282.348 840.016 282.205L838.104 281.555C837.341 281.296 836.755 280.953 836.348 280.526C835.94 280.093 835.736 279.575 835.736 278.974C835.736 278.204 836.079 277.586 836.765 277.12C837.451 276.648 838.36 276.411 839.492 276.411C840.663 276.411 841.566 276.661 842.2 277.159C842.84 277.65 843.173 278.268 843.199 279.012H841.423C841.378 278.644 841.194 278.362 840.87 278.168C840.553 277.967 840.094 277.867 839.492 277.867C838.929 277.867 838.486 277.99 838.162 278.236C837.845 278.482 837.687 278.76 837.687 279.071C837.687 279.627 838.166 280.041 839.123 280.313L841.132 281.021C841.896 281.267 842.484 281.584 842.898 281.972C843.313 282.361 843.52 282.852 843.52 283.448C843.52 283.926 843.361 284.379 843.044 284.806C842.727 285.233 842.281 285.583 841.705 285.854C841.135 286.12 840.466 286.252 839.696 286.252ZM847.079 274.674C846.71 274.674 846.419 274.574 846.205 274.373C845.998 274.166 845.895 273.888 845.895 273.539C845.895 273.202 845.998 272.937 846.205 272.743C846.419 272.542 846.71 272.442 847.079 272.442C847.441 272.442 847.726 272.542 847.933 272.743C848.146 272.937 848.253 273.202 848.253 273.539C848.253 273.888 848.146 274.166 847.933 274.373C847.726 274.574 847.441 274.674 847.079 274.674ZM846.157 286V276.635H848.001V286H846.157ZM864.49 286V280.526C864.49 279.718 864.296 279.106 863.908 278.692C863.526 278.272 863.012 278.061 862.365 278.061C861.589 278.061 860.987 278.365 860.56 278.974C860.139 279.582 859.929 280.455 859.929 281.594H859.124C859.124 280.695 859.211 279.918 859.386 279.265C859.56 278.611 859.809 278.074 860.133 277.654C860.463 277.233 860.854 276.923 861.307 276.722C861.767 276.515 862.278 276.411 862.841 276.411C863.591 276.411 864.225 276.58 864.743 276.916C865.267 277.253 865.665 277.731 865.936 278.352C866.208 278.967 866.344 279.692 866.344 280.526V286H864.49ZM851.554 286V276.664H853.155L853.359 278.42C853.656 277.767 854.064 277.269 854.582 276.926C855.106 276.583 855.72 276.411 856.426 276.411C857.176 276.411 857.81 276.58 858.328 276.916C858.852 277.253 859.25 277.731 859.521 278.352C859.793 278.967 859.929 279.692 859.929 280.526V286H858.095V280.526C858.095 279.718 857.901 279.106 857.512 278.692C857.131 278.272 856.613 278.061 855.96 278.061C855.442 278.061 854.989 278.204 854.601 278.488C854.219 278.767 853.922 279.177 853.708 279.721C853.501 280.258 853.398 280.915 853.398 281.691V286H851.554ZM870.409 274.674C870.04 274.674 869.749 274.574 869.535 274.373C869.328 274.166 869.225 273.888 869.225 273.539C869.225 273.202 869.328 272.937 869.535 272.743C869.749 272.542 870.04 272.442 870.409 272.442C870.771 272.442 871.056 272.542 871.263 272.743C871.476 272.937 871.583 273.202 871.583 273.539C871.583 273.888 871.476 274.166 871.263 274.373C871.056 274.574 870.771 274.674 870.409 274.674ZM869.487 286V276.635H871.331V286H869.487ZM874.884 286V272.733H876.727V286H874.884ZM885.88 286L885.647 283.855V279.963C885.647 279.2 885.489 278.647 885.172 278.304C884.855 277.955 884.353 277.78 883.667 277.78C883.279 277.78 882.933 277.838 882.629 277.955C882.331 278.065 882.095 278.233 881.92 278.459C881.752 278.686 881.668 278.97 881.668 279.313H879.63C879.63 278.627 879.798 278.071 880.135 277.644C880.471 277.217 880.94 276.906 881.542 276.712C882.15 276.512 882.859 276.411 883.667 276.411C884.424 276.411 885.091 276.538 885.667 276.79C886.242 277.036 886.689 277.424 887.006 277.955C887.329 278.485 887.491 279.171 887.491 280.012V286H885.88ZM882.755 286.252C881.972 286.252 881.322 286.116 880.804 285.845C880.287 285.567 879.899 285.204 879.64 284.758C879.387 284.311 879.261 283.836 879.261 283.331C879.261 282.716 879.416 282.212 879.727 281.817C880.044 281.416 880.481 281.118 881.037 280.924C881.594 280.73 882.234 280.633 882.959 280.633C883.457 280.633 883.942 280.678 884.415 280.769C884.887 280.86 885.353 280.979 885.812 281.128V282.244C885.437 282.108 885.02 282.002 884.56 281.924C884.107 281.84 883.683 281.798 883.289 281.798C882.7 281.798 882.208 281.914 881.814 282.147C881.419 282.38 881.222 282.775 881.222 283.331C881.222 283.739 881.377 284.091 881.687 284.389C881.998 284.68 882.49 284.826 883.163 284.826C883.654 284.826 884.088 284.716 884.463 284.496C884.838 284.269 885.13 283.988 885.337 283.651C885.544 283.315 885.647 282.979 885.647 282.642H886.094C886.094 283.289 885.961 283.888 885.696 284.437C885.437 284.981 885.058 285.421 884.56 285.757C884.062 286.087 883.46 286.252 882.755 286.252ZM890.518 286V276.635H892.362V286H890.518ZM891.857 281.827C891.857 280.63 891.98 279.637 892.226 278.847C892.478 278.052 892.827 277.46 893.274 277.071C893.727 276.683 894.257 276.489 894.865 276.489C895.047 276.489 895.215 276.502 895.37 276.528C895.532 276.554 895.69 276.589 895.846 276.635L895.778 278.469C895.603 278.424 895.412 278.385 895.205 278.352C895.005 278.314 894.82 278.294 894.652 278.294C894.121 278.294 893.688 278.437 893.352 278.721C893.015 278.999 892.766 279.404 892.604 279.934C892.442 280.458 892.362 281.089 892.362 281.827H891.857ZM907.398 286L907.165 283.855V279.963C907.165 279.2 907.006 278.647 906.689 278.304C906.372 277.955 905.871 277.78 905.185 277.78C904.797 277.78 904.451 277.838 904.147 277.955C903.849 278.065 903.613 278.233 903.438 278.459C903.27 278.686 903.186 278.97 903.186 279.313H901.148C901.148 278.627 901.316 278.071 901.652 277.644C901.989 277.217 902.458 276.906 903.06 276.712C903.668 276.512 904.376 276.411 905.185 276.411C905.942 276.411 906.609 276.538 907.184 276.79C907.76 277.036 908.207 277.424 908.524 277.955C908.847 278.485 909.009 279.171 909.009 280.012V286H907.398ZM904.273 286.252C903.49 286.252 902.84 286.116 902.322 285.845C901.805 285.567 901.416 285.204 901.158 284.758C900.905 284.311 900.779 283.836 900.779 283.331C900.779 282.716 900.934 282.212 901.245 281.817C901.562 281.416 901.999 281.118 902.555 280.924C903.111 280.73 903.752 280.633 904.477 280.633C904.975 280.633 905.46 280.678 905.932 280.769C906.405 280.86 906.871 280.979 907.33 281.128V282.244C906.955 282.108 906.537 282.002 906.078 281.924C905.625 281.84 905.201 281.798 904.807 281.798C904.218 281.798 903.726 281.914 903.331 282.147C902.937 282.38 902.739 282.775 902.739 283.331C902.739 283.739 902.895 284.091 903.205 284.389C903.516 284.68 904.008 284.826 904.68 284.826C905.172 284.826 905.606 284.716 905.981 284.496C906.356 284.269 906.647 283.988 906.854 283.651C907.061 283.315 907.165 282.979 907.165 282.642H907.611C907.611 283.289 907.479 283.888 907.213 284.437C906.955 284.981 906.576 285.421 906.078 285.757C905.58 286.087 904.978 286.252 904.273 286.252ZM916.461 286.252C915.782 286.252 915.193 286.1 914.695 285.796C914.196 285.486 913.815 285.033 913.549 284.437C913.291 283.836 913.161 283.092 913.161 282.205H913.879C913.879 282.716 913.989 283.15 914.209 283.506C914.429 283.855 914.717 284.124 915.073 284.311C915.435 284.492 915.82 284.583 916.228 284.583C916.655 284.583 917.069 284.463 917.47 284.224C917.878 283.978 918.211 283.613 918.47 283.127C918.729 282.642 918.858 282.04 918.858 281.322C918.858 280.636 918.742 280.051 918.509 279.566C918.282 279.08 917.972 278.708 917.577 278.45C917.182 278.191 916.739 278.061 916.247 278.061C915.833 278.061 915.445 278.162 915.083 278.362C914.721 278.556 914.429 278.844 914.209 279.226C913.989 279.601 913.879 280.061 913.879 280.604H913.161C913.161 279.666 913.31 278.886 913.608 278.265C913.912 277.644 914.319 277.181 914.831 276.877C915.342 276.567 915.908 276.411 916.529 276.411C917.26 276.411 917.946 276.609 918.586 277.003C919.227 277.392 919.744 277.951 920.139 278.682C920.54 279.414 920.741 280.293 920.741 281.322C920.741 282.351 920.54 283.234 920.139 283.972C919.738 284.709 919.211 285.275 918.557 285.67C917.91 286.058 917.211 286.252 916.461 286.252ZM912.035 290.581V276.664H913.559L913.879 278.906V290.581H912.035ZM927.538 286.252C926.859 286.252 926.27 286.1 925.772 285.796C925.274 285.486 924.892 285.033 924.627 284.437C924.368 283.836 924.239 283.092 924.239 282.205H924.957C924.957 282.716 925.067 283.15 925.287 283.506C925.507 283.855 925.795 284.124 926.15 284.311C926.513 284.492 926.898 284.583 927.305 284.583C927.732 284.583 928.146 284.463 928.548 284.224C928.955 283.978 929.288 283.613 929.547 283.127C929.806 282.642 929.935 282.04 929.935 281.322C929.935 280.636 929.819 280.051 929.586 279.566C929.36 279.08 929.049 278.708 928.654 278.45C928.26 278.191 927.817 278.061 927.325 278.061C926.911 278.061 926.523 278.162 926.16 278.362C925.798 278.556 925.507 278.844 925.287 279.226C925.067 279.601 924.957 280.061 924.957 280.604H924.239C924.239 279.666 924.387 278.886 924.685 278.265C924.989 277.644 925.397 277.181 925.908 276.877C926.419 276.567 926.985 276.411 927.606 276.411C928.337 276.411 929.023 276.609 929.664 277.003C930.304 277.392 930.822 277.951 931.216 278.682C931.618 279.414 931.818 280.293 931.818 281.322C931.818 282.351 931.618 283.234 931.216 283.972C930.815 284.709 930.288 285.275 929.635 285.67C928.988 286.058 928.289 286.252 927.538 286.252ZM923.113 290.581V276.664H924.636L924.957 278.906V290.581H923.113ZM937.606 286.252C936.701 286.252 935.937 286.126 935.316 285.874C934.695 285.615 934.219 285.259 933.889 284.806C933.566 284.347 933.398 283.81 933.385 283.195H935.122C935.148 283.732 935.361 284.13 935.762 284.389C936.17 284.648 936.72 284.777 937.412 284.777C937.781 284.777 938.114 284.719 938.412 284.602C938.716 284.486 938.955 284.328 939.13 284.127C939.311 283.926 939.402 283.7 939.402 283.448C939.402 283.131 939.285 282.881 939.052 282.7C938.819 282.513 938.444 282.348 937.927 282.205L936.015 281.555C935.251 281.296 934.666 280.953 934.258 280.526C933.85 280.093 933.647 279.575 933.647 278.974C933.647 278.204 933.99 277.586 934.675 277.12C935.361 276.648 936.27 276.411 937.402 276.411C938.574 276.411 939.476 276.661 940.11 277.159C940.751 277.65 941.084 278.268 941.11 279.012H939.334C939.289 278.644 939.104 278.362 938.781 278.168C938.464 277.967 938.004 277.867 937.402 277.867C936.84 277.867 936.396 277.99 936.073 278.236C935.756 278.482 935.597 278.76 935.597 279.071C935.597 279.627 936.076 280.041 937.034 280.313L939.043 281.021C939.806 281.267 940.395 281.584 940.809 281.972C941.223 282.361 941.43 282.852 941.43 283.448C941.43 283.926 941.272 284.379 940.955 284.806C940.637 285.233 940.191 285.583 939.615 285.854C939.046 286.12 938.376 286.252 937.606 286.252ZM945.445 282.613V281.778C945.445 281.215 945.507 280.756 945.63 280.4C945.759 280.038 945.963 279.727 946.241 279.469C946.519 279.203 946.898 278.948 947.377 278.702C947.804 278.475 948.137 278.268 948.376 278.081C948.622 277.887 948.797 277.683 948.9 277.469C949.004 277.256 949.056 277 949.056 276.703C949.056 276.237 948.868 275.852 948.493 275.548C948.118 275.237 947.6 275.082 946.94 275.082C946.196 275.082 945.623 275.237 945.222 275.548C944.828 275.858 944.588 276.279 944.504 276.809H942.563C942.647 275.787 943.051 274.965 943.776 274.344C944.501 273.723 945.536 273.413 946.882 273.413C947.749 273.413 948.496 273.561 949.124 273.859C949.751 274.15 950.233 274.548 950.57 275.053C950.906 275.557 951.074 276.117 951.074 276.732C951.074 277.398 950.906 277.961 950.57 278.42C950.233 278.88 949.696 279.3 948.959 279.682C948.532 279.908 948.195 280.122 947.949 280.323C947.703 280.517 947.529 280.737 947.425 280.983C947.328 281.228 947.28 281.545 947.28 281.934V282.613H945.445ZM946.406 286.252C946.018 286.252 945.701 286.129 945.455 285.884C945.209 285.638 945.086 285.34 945.086 284.991C945.086 284.628 945.206 284.321 945.445 284.069C945.691 283.816 946.008 283.69 946.396 283.69C946.785 283.69 947.108 283.816 947.367 284.069C947.632 284.315 947.765 284.619 947.765 284.981C947.765 285.33 947.635 285.631 947.377 285.884C947.118 286.129 946.794 286.252 946.406 286.252Z" fill="#666666"/>
<line x1="422" y1="200.276" x2="1078.01" y2="200.276" stroke="#383838"/>
<line x1="422" y1="330.276" x2="1078.01" y2="330.276" stroke="#383838"/>
</svg>
