<svg width="1500" height="475" viewBox="0 0 1500 475" fill="none" xmlns="http://www.w3.org/2000/svg">
<rect width="1500" height="475" fill="#E5E5E5"/>
<rect width="1500" height="475" fill="white"/>
<path d="M645.998 165.44C644.208 165.44 642.648 165.016 641.318 164.168C639.999 163.309 638.973 162.084 638.24 160.493C637.507 158.901 637.141 156.99 637.141 154.76C637.141 152.457 637.518 150.525 638.271 148.965C639.036 147.395 640.083 146.212 641.412 145.416C642.753 144.61 644.281 144.207 645.998 144.207C648.375 144.207 650.228 144.782 651.558 145.934C652.898 147.086 653.757 148.583 654.134 150.426L650.176 151.148C649.851 150.08 649.333 149.216 648.621 148.557C647.909 147.897 647.035 147.567 645.998 147.567C645.087 147.567 644.266 147.834 643.533 148.368C642.8 148.892 642.213 149.688 641.774 150.756C641.344 151.824 641.13 153.158 641.13 154.76C641.13 156.268 641.318 157.566 641.695 158.655C642.083 159.744 642.637 160.582 643.36 161.168C644.082 161.754 644.962 162.047 645.998 162.047C647.328 162.047 648.354 161.697 649.077 160.995C649.809 160.283 650.176 159.378 650.176 158.278H654.134C654.134 159.796 653.804 161.089 653.144 162.157C652.495 163.215 651.563 164.026 650.349 164.592C649.134 165.157 647.684 165.44 645.998 165.44ZM665.403 144.615H669.109V153.127H677.998V144.615H681.705V165H677.998V156.362H669.109V165H665.403V144.615ZM692.23 165L699.171 144.615H703.82L710.479 165H706.584L705.171 160.603H697.601L696.156 165H692.23ZM698.543 157.807H704.291L701.433 149.044L698.543 157.807ZM724.738 144.615V161.765H733.125V165H721.032V144.615H724.738ZM747.169 144.615V161.765H755.556V165H743.463V144.615H747.169ZM765.863 165V144.615H778.961V147.819H769.569V153.19H778.395V156.394H769.569V161.765H778.961V165H765.863ZM791.177 144.615H795.228L804.494 159.158H804.212V144.615H807.918V165H804.149L794.286 149.578H794.883V165H791.177V144.615ZM828.108 165.44C826.444 165.44 824.941 165 823.601 164.121C822.261 163.241 821.193 162.016 820.397 160.446C819.612 158.865 819.219 157.022 819.219 154.917C819.219 153.253 819.46 151.761 819.942 150.441C820.434 149.122 821.114 147.997 821.983 147.065C822.852 146.133 823.873 145.426 825.046 144.945C826.219 144.453 827.491 144.207 828.862 144.207C830.768 144.207 832.364 144.62 833.652 145.447C834.951 146.274 835.961 147.578 836.683 149.358L832.883 150.237C832.349 149.368 831.731 148.709 831.029 148.258C830.338 147.798 829.553 147.567 828.674 147.567C827.669 147.567 826.752 147.866 825.925 148.463C825.098 149.049 824.439 149.892 823.947 150.991C823.454 152.09 823.208 153.399 823.208 154.917C823.208 156.341 823.423 157.587 823.852 158.655C824.292 159.723 824.905 160.555 825.69 161.152C826.475 161.749 827.386 162.047 828.422 162.047C829.302 162.047 830.087 161.854 830.778 161.466C831.48 161.069 832.029 160.503 832.427 159.77C832.836 159.037 833.04 158.153 833.04 157.116H833.856C833.856 158.812 833.652 160.283 833.244 161.529C832.846 162.775 832.223 163.738 831.375 164.419C830.527 165.099 829.438 165.44 828.108 165.44ZM833.574 165L833.04 160.508V156.99L828.454 156.896V154.54H836.589V165H833.574ZM848.8 165V144.615H861.898V147.819H852.506V153.19H861.333V156.394H852.506V161.765H861.898V165H848.8Z" fill="#383838"/>
<path d="M564.951 233.636H566.795V238.964H572.598V233.636H574.433V246H572.598V240.565H566.795V246H564.951V233.636ZM581.266 246.252C580.419 246.252 579.659 246.068 578.986 245.699C578.319 245.33 577.792 244.78 577.404 244.049C577.016 243.318 576.822 242.416 576.822 241.342C576.822 240.248 577.016 239.339 577.404 238.614C577.792 237.883 578.319 237.333 578.986 236.965C579.659 236.596 580.419 236.411 581.266 236.411C582.101 236.411 582.852 236.596 583.518 236.965C584.184 237.333 584.708 237.883 585.09 238.614C585.478 239.339 585.672 240.248 585.672 241.342C585.672 242.416 585.478 243.318 585.09 244.049C584.708 244.78 584.184 245.33 583.518 245.699C582.852 246.068 582.101 246.252 581.266 246.252ZM581.208 244.641C581.745 244.641 582.208 244.512 582.596 244.253C582.991 243.994 583.292 243.619 583.499 243.127C583.712 242.629 583.819 242.034 583.819 241.342C583.819 240.281 583.602 239.459 583.169 238.877C582.742 238.294 582.124 238.003 581.315 238.003C580.771 238.003 580.302 238.136 579.908 238.401C579.52 238.66 579.219 239.038 579.005 239.536C578.798 240.028 578.695 240.63 578.695 241.342C578.695 242.383 578.911 243.195 579.345 243.778C579.778 244.353 580.399 244.641 581.208 244.641ZM586.443 236.664H588.364L590.587 244.156H590.383L592.528 237.139H594.129L596.264 244.175H596.07L598.293 236.664H600.137L597.07 246H595.265L593.149 239.401H593.43L591.344 246H589.539L586.443 236.664ZM609.529 246.252C608.766 246.252 608.054 246.049 607.394 245.641C606.734 245.233 606.204 244.661 605.803 243.923C605.402 243.186 605.201 242.319 605.201 241.322C605.201 240.274 605.402 239.388 605.803 238.663C606.204 237.932 606.734 237.375 607.394 236.994C608.054 236.606 608.766 236.411 609.529 236.411C610.092 236.411 610.594 236.502 611.034 236.683C611.474 236.858 611.852 237.097 612.169 237.401C612.486 237.699 612.742 238.035 612.936 238.411C613.137 238.786 613.276 239.174 613.353 239.575L611.48 239.672C611.344 239.187 611.105 238.799 610.762 238.508C610.426 238.21 610.008 238.061 609.51 238.061C609.09 238.061 608.692 238.181 608.316 238.42C607.948 238.653 607.647 239.012 607.414 239.498C607.187 239.976 607.074 240.585 607.074 241.322C607.074 242.008 607.181 242.594 607.394 243.079C607.608 243.564 607.899 243.936 608.268 244.195C608.637 244.454 609.051 244.583 609.51 244.583C610.17 244.583 610.662 244.425 610.985 244.108C611.315 243.784 611.48 243.341 611.48 242.778H613.353C613.353 243.431 613.201 244.02 612.897 244.544C612.593 245.068 612.153 245.486 611.577 245.796C611.008 246.1 610.325 246.252 609.529 246.252ZM621.622 246L621.389 243.855V239.963C621.389 239.2 621.23 238.647 620.913 238.304C620.596 237.955 620.095 237.78 619.409 237.78C619.021 237.78 618.675 237.838 618.37 237.955C618.073 238.065 617.837 238.233 617.662 238.459C617.494 238.686 617.41 238.97 617.41 239.313H615.372C615.372 238.627 615.54 238.071 615.876 237.644C616.213 237.217 616.682 236.906 617.283 236.712C617.892 236.512 618.6 236.411 619.409 236.411C620.166 236.411 620.832 236.538 621.408 236.79C621.984 237.036 622.43 237.424 622.747 237.955C623.071 238.485 623.233 239.171 623.233 240.012V246H621.622ZM618.497 246.252C617.714 246.252 617.064 246.116 616.546 245.845C616.028 245.567 615.64 245.204 615.381 244.758C615.129 244.311 615.003 243.836 615.003 243.331C615.003 242.716 615.158 242.212 615.469 241.817C615.786 241.416 616.222 241.118 616.779 240.924C617.335 240.73 617.976 240.633 618.7 240.633C619.199 240.633 619.684 240.678 620.156 240.769C620.628 240.86 621.094 240.979 621.554 241.128V242.244C621.178 242.108 620.761 242.002 620.302 241.924C619.849 241.84 619.425 241.798 619.03 241.798C618.442 241.798 617.95 241.914 617.555 242.147C617.161 242.38 616.963 242.775 616.963 243.331C616.963 243.739 617.119 244.091 617.429 244.389C617.74 244.68 618.231 244.826 618.904 244.826C619.396 244.826 619.829 244.716 620.205 244.496C620.58 244.269 620.871 243.988 621.078 243.651C621.285 243.315 621.389 242.979 621.389 242.642H621.835C621.835 243.289 621.703 243.888 621.437 244.437C621.178 244.981 620.8 245.421 620.302 245.757C619.804 246.087 619.202 246.252 618.497 246.252ZM632.8 246V240.526C632.8 239.718 632.606 239.106 632.218 238.692C631.836 238.272 631.319 238.061 630.665 238.061C630.148 238.061 629.695 238.204 629.307 238.488C628.925 238.767 628.627 239.177 628.414 239.721C628.207 240.258 628.103 240.915 628.103 241.691H627.443C627.443 240.546 627.589 239.582 627.88 238.799C628.178 238.016 628.601 237.424 629.151 237.023C629.701 236.615 630.361 236.411 631.131 236.411C631.882 236.411 632.516 236.58 633.033 236.916C633.557 237.253 633.955 237.731 634.227 238.352C634.499 238.967 634.635 239.692 634.635 240.526V246H632.8ZM626.259 246V236.664H627.861L628.103 238.682V246H626.259ZM641.912 246V233.636H646.697C647.622 233.636 648.389 233.785 648.997 234.082C649.612 234.38 650.071 234.775 650.375 235.266C650.679 235.758 650.831 236.298 650.831 236.887C650.831 237.592 650.634 238.2 650.239 238.712C649.851 239.223 649.282 239.575 648.531 239.769C649.023 239.853 649.456 240.031 649.832 240.303C650.207 240.568 650.501 240.898 650.715 241.293C650.935 241.688 651.045 242.124 651.045 242.603C651.045 243.011 650.974 243.415 650.831 243.816C650.689 244.218 650.453 244.583 650.123 244.913C649.793 245.243 649.35 245.508 648.793 245.709C648.237 245.903 647.541 246 646.707 246H641.912ZM643.756 244.389H646.668C647.509 244.389 648.117 244.214 648.492 243.865C648.874 243.516 649.065 243.063 649.065 242.506C649.065 241.943 648.864 241.49 648.463 241.148C648.062 240.805 647.464 240.633 646.668 240.633H643.756V244.389ZM643.756 235.227V239.032H646.629C647.347 239.032 647.91 238.86 648.318 238.517C648.732 238.175 648.939 237.699 648.939 237.091C648.939 236.515 648.738 236.062 648.337 235.732C647.942 235.396 647.38 235.227 646.648 235.227H643.756ZM657.223 246.252C656.376 246.252 655.615 246.068 654.943 245.699C654.276 245.33 653.749 244.78 653.361 244.049C652.972 243.318 652.778 242.416 652.778 241.342C652.778 240.248 652.972 239.339 653.361 238.614C653.749 237.883 654.276 237.333 654.943 236.965C655.615 236.596 656.376 236.411 657.223 236.411C658.058 236.411 658.808 236.596 659.475 236.965C660.141 237.333 660.665 237.883 661.047 238.614C661.435 239.339 661.629 240.248 661.629 241.342C661.629 242.416 661.435 243.318 661.047 244.049C660.665 244.78 660.141 245.33 659.475 245.699C658.808 246.068 658.058 246.252 657.223 246.252ZM657.165 244.641C657.702 244.641 658.165 244.512 658.553 244.253C658.947 243.994 659.248 243.619 659.455 243.127C659.669 242.629 659.776 242.034 659.776 241.342C659.776 240.281 659.559 239.459 659.125 238.877C658.698 238.294 658.08 238.003 657.272 238.003C656.728 238.003 656.259 238.136 655.865 238.401C655.476 238.66 655.175 239.038 654.962 239.536C654.755 240.028 654.651 240.63 654.651 241.342C654.651 242.383 654.868 243.195 655.302 243.778C655.735 244.353 656.356 244.641 657.165 244.641ZM667.504 246.252C666.657 246.252 665.897 246.068 665.224 245.699C664.557 245.33 664.03 244.78 663.642 244.049C663.254 243.318 663.06 242.416 663.06 241.342C663.06 240.248 663.254 239.339 663.642 238.614C664.03 237.883 664.557 237.333 665.224 236.965C665.897 236.596 666.657 236.411 667.504 236.411C668.339 236.411 669.09 236.596 669.756 236.965C670.422 237.333 670.946 237.883 671.328 238.614C671.716 239.339 671.911 240.248 671.911 241.342C671.911 242.416 671.716 243.318 671.328 244.049C670.946 244.78 670.422 245.33 669.756 245.699C669.09 246.068 668.339 246.252 667.504 246.252ZM667.446 244.641C667.983 244.641 668.446 244.512 668.834 244.253C669.229 243.994 669.53 243.619 669.737 243.127C669.95 242.629 670.057 242.034 670.057 241.342C670.057 240.281 669.84 239.459 669.407 238.877C668.98 238.294 668.362 238.003 667.553 238.003C667.009 238.003 666.54 238.136 666.146 238.401C665.758 238.66 665.457 239.038 665.243 239.536C665.036 240.028 664.933 240.63 664.933 241.342C664.933 242.383 665.149 243.195 665.583 243.778C666.016 244.353 666.637 244.641 667.446 244.641ZM677.689 246.252C676.783 246.252 676.019 246.126 675.398 245.874C674.777 245.615 674.302 245.259 673.972 244.806C673.648 244.347 673.48 243.81 673.467 243.195H675.204C675.23 243.732 675.444 244.13 675.845 244.389C676.252 244.648 676.802 244.777 677.495 244.777C677.863 244.777 678.197 244.719 678.494 244.602C678.798 244.486 679.038 244.328 679.212 244.127C679.393 243.926 679.484 243.7 679.484 243.448C679.484 243.131 679.368 242.881 679.135 242.7C678.902 242.513 678.526 242.348 678.009 242.205L676.097 241.555C675.334 241.296 674.748 240.953 674.34 240.526C673.933 240.093 673.729 239.575 673.729 238.974C673.729 238.204 674.072 237.586 674.758 237.12C675.444 236.648 676.353 236.411 677.485 236.411C678.656 236.411 679.558 236.661 680.193 237.159C680.833 237.65 681.166 238.268 681.192 239.012H679.416C679.371 238.644 679.186 238.362 678.863 238.168C678.546 237.967 678.087 237.867 677.485 237.867C676.922 237.867 676.479 237.99 676.155 238.236C675.838 238.482 675.68 238.76 675.68 239.071C675.68 239.627 676.158 240.041 677.116 240.313L679.125 241.021C679.888 241.267 680.477 241.584 680.891 241.972C681.305 242.361 681.512 242.852 681.512 243.448C681.512 243.926 681.354 244.379 681.037 244.806C680.72 245.233 680.273 245.583 679.698 245.854C679.128 246.12 678.459 246.252 677.689 246.252ZM687.003 246.252C686.472 246.252 685.994 246.152 685.567 245.951C685.139 245.751 684.8 245.45 684.547 245.049C684.302 244.641 684.179 244.13 684.179 243.516V234.121H686.013V243.457C686.013 244.337 686.424 244.777 687.245 244.777C687.498 244.777 687.744 244.751 687.983 244.7C688.222 244.641 688.494 244.557 688.798 244.447L689.06 245.757C688.717 245.9 688.378 246.016 688.041 246.107C687.711 246.204 687.365 246.252 687.003 246.252ZM682.752 237.916V236.664H688.779V237.916H682.752ZM695.746 246V235.354C695.746 234.707 695.869 234.183 696.114 233.781C696.367 233.374 696.7 233.073 697.114 232.879C697.528 232.685 697.984 232.588 698.483 232.588C698.767 232.588 699.058 232.607 699.356 232.646C699.66 232.685 699.958 232.743 700.249 232.821L699.899 234.257C699.718 234.192 699.534 234.14 699.346 234.102C699.165 234.063 698.99 234.043 698.822 234.043C698.622 234.043 698.428 234.082 698.24 234.16C698.052 234.231 697.897 234.364 697.774 234.558C697.658 234.752 697.599 235.027 697.599 235.383V246H695.746ZM694.28 237.916V236.664H699.434V237.916H694.28ZM707.431 246L707.198 243.855V239.963C707.198 239.2 707.04 238.647 706.723 238.304C706.406 237.955 705.904 237.78 705.219 237.78C704.83 237.78 704.484 237.838 704.18 237.955C703.882 238.065 703.646 238.233 703.472 238.459C703.303 238.686 703.219 238.97 703.219 239.313H701.181C701.181 238.627 701.349 238.071 701.686 237.644C702.022 237.217 702.491 236.906 703.093 236.712C703.701 236.512 704.41 236.411 705.219 236.411C705.976 236.411 706.642 236.538 707.218 236.79C707.794 237.036 708.24 237.424 708.557 237.955C708.881 238.485 709.042 239.171 709.042 240.012V246H707.431ZM704.306 246.252C703.523 246.252 702.873 246.116 702.356 245.845C701.838 245.567 701.45 245.204 701.191 244.758C700.939 244.311 700.812 243.836 700.812 243.331C700.812 242.716 700.968 242.212 701.278 241.817C701.595 241.416 702.032 241.118 702.588 240.924C703.145 240.73 703.785 240.633 704.51 240.633C705.008 240.633 705.494 240.678 705.966 240.769C706.438 240.86 706.904 240.979 707.363 241.128V242.244C706.988 242.108 706.571 242.002 706.111 241.924C705.658 241.84 705.235 241.798 704.84 241.798C704.251 241.798 703.76 241.914 703.365 242.147C702.97 242.38 702.773 242.775 702.773 243.331C702.773 243.739 702.928 244.091 703.239 244.389C703.549 244.68 704.041 244.826 704.714 244.826C705.206 244.826 705.639 244.716 706.014 244.496C706.39 244.269 706.681 243.988 706.888 243.651C707.095 243.315 707.198 242.979 707.198 242.642H707.645C707.645 243.289 707.512 243.888 707.247 244.437C706.988 244.981 706.61 245.421 706.111 245.757C705.613 246.087 705.011 246.252 704.306 246.252ZM715.466 246.252C714.702 246.252 713.99 246.049 713.331 245.641C712.671 245.233 712.14 244.661 711.739 243.923C711.338 243.186 711.137 242.319 711.137 241.322C711.137 240.274 711.338 239.388 711.739 238.663C712.14 237.932 712.671 237.375 713.331 236.994C713.99 236.606 714.702 236.411 715.466 236.411C716.029 236.411 716.53 236.502 716.97 236.683C717.41 236.858 717.788 237.097 718.105 237.401C718.422 237.699 718.678 238.035 718.872 238.411C719.073 238.786 719.212 239.174 719.289 239.575L717.416 239.672C717.28 239.187 717.041 238.799 716.698 238.508C716.362 238.21 715.944 238.061 715.446 238.061C715.026 238.061 714.628 238.181 714.253 238.42C713.884 238.653 713.583 239.012 713.35 239.498C713.123 239.976 713.01 240.585 713.01 241.322C713.01 242.008 713.117 242.594 713.331 243.079C713.544 243.564 713.835 243.936 714.204 244.195C714.573 244.454 714.987 244.583 715.446 244.583C716.106 244.583 716.598 244.425 716.921 244.108C717.251 243.784 717.416 243.341 717.416 242.778H719.289C719.289 243.431 719.137 244.02 718.833 244.544C718.529 245.068 718.089 245.486 717.513 245.796C716.944 246.1 716.261 246.252 715.466 246.252ZM722.773 234.674C722.404 234.674 722.113 234.574 721.9 234.373C721.693 234.166 721.589 233.888 721.589 233.539C721.589 233.202 721.693 232.937 721.9 232.743C722.113 232.542 722.404 232.442 722.773 232.442C723.136 232.442 723.42 232.542 723.627 232.743C723.841 232.937 723.948 233.202 723.948 233.539C723.948 233.888 723.841 234.166 723.627 234.373C723.42 234.574 723.136 234.674 722.773 234.674ZM721.851 246V236.635H723.695V246H721.851ZM727.248 246V232.733H729.092V246H727.248ZM733.46 234.674C733.091 234.674 732.8 234.574 732.587 234.373C732.38 234.166 732.276 233.888 732.276 233.539C732.276 233.202 732.38 232.937 732.587 232.743C732.8 232.542 733.091 232.442 733.46 232.442C733.822 232.442 734.107 232.542 734.314 232.743C734.528 232.937 734.634 233.202 734.634 233.539C734.634 233.888 734.528 234.166 734.314 234.373C734.107 234.574 733.822 234.674 733.46 234.674ZM732.538 246V236.635H734.382V246H732.538ZM740.934 246.252C740.403 246.252 739.925 246.152 739.497 245.951C739.07 245.751 738.731 245.45 738.478 245.049C738.233 244.641 738.11 244.13 738.11 243.516V234.121H739.944V243.457C739.944 244.337 740.355 244.777 741.176 244.777C741.429 244.777 741.675 244.751 741.914 244.7C742.153 244.641 742.425 244.557 742.729 244.447L742.991 245.757C742.648 245.9 742.309 246.016 741.972 246.107C741.642 246.204 741.296 246.252 740.934 246.252ZM736.683 237.916V236.664H742.71V237.916H736.683ZM750.751 246L750.518 243.855V239.963C750.518 239.2 750.36 238.647 750.043 238.304C749.726 237.955 749.224 237.78 748.538 237.78C748.15 237.78 747.804 237.838 747.5 237.955C747.202 238.065 746.966 238.233 746.792 238.459C746.623 238.686 746.539 238.97 746.539 239.313H744.501C744.501 238.627 744.669 238.071 745.006 237.644C745.342 237.217 745.811 236.906 746.413 236.712C747.021 236.512 747.73 236.411 748.538 236.411C749.295 236.411 749.962 236.538 750.538 236.79C751.114 237.036 751.56 237.424 751.877 237.955C752.2 238.485 752.362 239.171 752.362 240.012V246H750.751ZM747.626 246.252C746.843 246.252 746.193 246.116 745.675 245.845C745.158 245.567 744.77 245.204 744.511 244.758C744.259 244.311 744.132 243.836 744.132 243.331C744.132 242.716 744.288 242.212 744.598 241.817C744.915 241.416 745.352 241.118 745.908 240.924C746.465 240.73 747.105 240.633 747.83 240.633C748.328 240.633 748.813 240.678 749.286 240.769C749.758 240.86 750.224 240.979 750.683 241.128V242.244C750.308 242.108 749.891 242.002 749.431 241.924C748.978 241.84 748.555 241.798 748.16 241.798C747.571 241.798 747.079 241.914 746.685 242.147C746.29 242.38 746.093 242.775 746.093 243.331C746.093 243.739 746.248 244.091 746.559 244.389C746.869 244.68 747.361 244.826 748.034 244.826C748.526 244.826 748.959 244.716 749.334 244.496C749.71 244.269 750.001 243.988 750.208 243.651C750.415 243.315 750.518 242.979 750.518 242.642H750.965C750.965 243.289 750.832 243.888 750.567 244.437C750.308 244.981 749.93 245.421 749.431 245.757C748.933 246.087 748.331 246.252 747.626 246.252ZM758.388 246.252C757.857 246.252 757.378 246.152 756.951 245.951C756.524 245.751 756.185 245.45 755.932 245.049C755.686 244.641 755.564 244.13 755.564 243.516V234.121H757.398V243.457C757.398 244.337 757.809 244.777 758.63 244.777C758.883 244.777 759.128 244.751 759.368 244.7C759.607 244.641 759.879 244.557 760.183 244.447L760.445 245.757C760.102 245.9 759.763 246.016 759.426 246.107C759.096 246.204 758.75 246.252 758.388 246.252ZM754.137 237.916V236.664H760.164V237.916H754.137ZM765.701 246.252C764.899 246.252 764.174 246.045 763.527 245.631C762.88 245.217 762.366 244.641 761.984 243.904C761.609 243.166 761.421 242.312 761.421 241.342C761.421 240.313 761.609 239.433 761.984 238.702C762.359 237.964 762.871 237.398 763.518 237.003C764.165 236.609 764.892 236.411 765.701 236.411C766.426 236.411 767.047 236.56 767.565 236.858C768.082 237.149 768.499 237.544 768.816 238.042C769.133 238.534 769.35 239.093 769.467 239.721C769.59 240.348 769.612 240.995 769.535 241.662H762.896V240.594H768.273L767.827 240.885C767.846 240.536 767.827 240.187 767.768 239.837C767.717 239.488 767.613 239.168 767.458 238.877C767.302 238.579 767.082 238.343 766.798 238.168C766.52 237.987 766.164 237.896 765.73 237.896C765.187 237.896 764.731 238.032 764.362 238.304C764 238.576 763.725 238.941 763.537 239.401C763.349 239.853 763.255 240.352 763.255 240.895V241.642C763.255 242.244 763.346 242.778 763.527 243.244C763.708 243.71 763.977 244.078 764.333 244.35C764.695 244.615 765.151 244.748 765.701 244.748C766.238 244.748 766.681 244.622 767.031 244.37C767.387 244.117 767.607 243.739 767.691 243.234H769.573C769.476 243.842 769.253 244.373 768.904 244.826C768.554 245.279 768.105 245.631 767.555 245.884C767.011 246.129 766.393 246.252 765.701 246.252ZM789.161 246V240.526C789.161 239.718 788.967 239.106 788.579 238.692C788.197 238.272 787.683 238.061 787.036 238.061C786.259 238.061 785.658 238.365 785.23 238.974C784.81 239.582 784.6 240.455 784.6 241.594H783.794C783.794 240.695 783.881 239.918 784.056 239.265C784.231 238.611 784.48 238.074 784.803 237.654C785.133 237.233 785.525 236.923 785.978 236.722C786.437 236.515 786.948 236.411 787.511 236.411C788.262 236.411 788.896 236.58 789.413 236.916C789.937 237.253 790.335 237.731 790.607 238.352C790.879 238.967 791.015 239.692 791.015 240.526V246H789.161ZM776.224 246V236.664H777.826L778.029 238.42C778.327 237.767 778.735 237.269 779.252 236.926C779.776 236.583 780.391 236.411 781.096 236.411C781.847 236.411 782.481 236.58 782.998 236.916C783.522 237.253 783.92 237.731 784.192 238.352C784.464 238.967 784.6 239.692 784.6 240.526V246H782.765V240.526C782.765 239.718 782.571 239.106 782.183 238.692C781.801 238.272 781.284 238.061 780.63 238.061C780.113 238.061 779.66 238.204 779.272 238.488C778.89 238.767 778.592 239.177 778.379 239.721C778.172 240.258 778.068 240.915 778.068 241.691V246H776.224ZM797.525 246.252C796.677 246.252 795.917 246.068 795.244 245.699C794.578 245.33 794.051 244.78 793.662 244.049C793.274 243.318 793.08 242.416 793.08 241.342C793.08 240.248 793.274 239.339 793.662 238.614C794.051 237.883 794.578 237.333 795.244 236.965C795.917 236.596 796.677 236.411 797.525 236.411C798.36 236.411 799.11 236.596 799.776 236.965C800.443 237.333 800.967 237.883 801.349 238.614C801.737 239.339 801.931 240.248 801.931 241.342C801.931 242.416 801.737 243.318 801.349 244.049C800.967 244.78 800.443 245.33 799.776 245.699C799.11 246.068 798.36 246.252 797.525 246.252ZM797.467 244.641C798.004 244.641 798.466 244.512 798.854 244.253C799.249 243.994 799.55 243.619 799.757 243.127C799.971 242.629 800.077 242.034 800.077 241.342C800.077 240.281 799.861 239.459 799.427 238.877C799 238.294 798.382 238.003 797.573 238.003C797.03 238.003 796.561 238.136 796.166 238.401C795.778 238.66 795.477 239.038 795.264 239.536C795.057 240.028 794.953 240.63 794.953 241.342C794.953 242.383 795.17 243.195 795.603 243.778C796.037 244.353 796.658 244.641 797.467 244.641ZM804.293 246V236.635H806.137V246H804.293ZM805.632 241.827C805.632 240.63 805.755 239.637 806.001 238.847C806.253 238.052 806.603 237.46 807.049 237.071C807.502 236.683 808.033 236.489 808.641 236.489C808.822 236.489 808.99 236.502 809.145 236.528C809.307 236.554 809.466 236.589 809.621 236.635L809.553 238.469C809.378 238.424 809.187 238.385 808.98 238.352C808.78 238.314 808.595 238.294 808.427 238.294C807.897 238.294 807.463 238.437 807.127 238.721C806.79 238.999 806.541 239.404 806.38 239.934C806.218 240.458 806.137 241.089 806.137 241.827H805.632ZM814.416 246.252C813.613 246.252 812.889 246.045 812.242 245.631C811.595 245.217 811.08 244.641 810.699 243.904C810.323 243.166 810.136 242.312 810.136 241.342C810.136 240.313 810.323 239.433 810.699 238.702C811.074 237.964 811.585 237.398 812.232 237.003C812.879 236.609 813.607 236.411 814.416 236.411C815.14 236.411 815.761 236.56 816.279 236.858C816.797 237.149 817.214 237.544 817.531 238.042C817.848 238.534 818.065 239.093 818.181 239.721C818.304 240.348 818.327 240.995 818.249 241.662H811.611V240.594H816.988L816.541 240.885C816.56 240.536 816.541 240.187 816.483 239.837C816.431 239.488 816.328 239.168 816.172 238.877C816.017 238.579 815.797 238.343 815.512 238.168C815.234 237.987 814.878 237.896 814.445 237.896C813.901 237.896 813.445 238.032 813.076 238.304C812.714 238.576 812.439 238.941 812.251 239.401C812.064 239.853 811.97 240.352 811.97 240.895V241.642C811.97 242.244 812.061 242.778 812.242 243.244C812.423 243.71 812.691 244.078 813.047 244.35C813.41 244.615 813.866 244.748 814.416 244.748C814.953 244.748 815.396 244.622 815.745 244.37C816.101 244.117 816.321 243.739 816.405 243.234H818.288C818.191 243.842 817.968 244.373 817.618 244.826C817.269 245.279 816.819 245.631 816.269 245.884C815.726 246.129 815.108 246.252 814.416 246.252ZM828.287 246.252C827.485 246.252 826.76 246.045 826.113 245.631C825.466 245.217 824.952 244.641 824.57 243.904C824.195 243.166 824.007 242.312 824.007 241.342C824.007 240.313 824.195 239.433 824.57 238.702C824.945 237.964 825.456 237.398 826.103 237.003C826.75 236.609 827.478 236.411 828.287 236.411C829.012 236.411 829.633 236.56 830.15 236.858C830.668 237.149 831.085 237.544 831.402 238.042C831.719 238.534 831.936 239.093 832.053 239.721C832.175 240.348 832.198 240.995 832.121 241.662H825.482V240.594H830.859L830.412 240.885C830.432 240.536 830.412 240.187 830.354 239.837C830.302 239.488 830.199 239.168 830.044 238.877C829.888 238.579 829.668 238.343 829.384 238.168C829.105 237.987 828.75 237.896 828.316 237.896C827.773 237.896 827.317 238.032 826.948 238.304C826.585 238.576 826.31 238.941 826.123 239.401C825.935 239.853 825.841 240.352 825.841 240.895V241.642C825.841 242.244 825.932 242.778 826.113 243.244C826.294 243.71 826.563 244.078 826.919 244.35C827.281 244.615 827.737 244.748 828.287 244.748C828.824 244.748 829.267 244.622 829.617 244.37C829.972 244.117 830.192 243.739 830.277 243.234H832.159C832.062 243.842 831.839 244.373 831.49 244.826C831.14 245.279 830.691 245.631 830.141 245.884C829.597 246.129 828.979 246.252 828.287 246.252ZM835.081 246V235.354C835.081 234.707 835.204 234.183 835.449 233.781C835.702 233.374 836.035 233.073 836.449 232.879C836.863 232.685 837.319 232.588 837.817 232.588C838.102 232.588 838.393 232.607 838.691 232.646C838.995 232.685 839.293 232.743 839.584 232.821L839.234 234.257C839.053 234.192 838.869 234.14 838.681 234.102C838.5 234.063 838.325 234.043 838.157 234.043C837.957 234.043 837.762 234.082 837.575 234.16C837.387 234.231 837.232 234.364 837.109 234.558C836.993 234.752 836.934 235.027 836.934 235.383V246H835.081ZM833.615 237.916V236.664H838.769V237.916H833.615ZM841.438 246V235.354C841.438 234.707 841.561 234.183 841.807 233.781C842.059 233.374 842.393 233.073 842.807 232.879C843.221 232.685 843.677 232.588 844.175 232.588C844.46 232.588 844.751 232.607 845.048 232.646C845.353 232.685 845.65 232.743 845.941 232.821L845.592 234.257C845.411 234.192 845.226 234.14 845.039 234.102C844.858 234.063 844.683 234.043 844.515 234.043C844.314 234.043 844.12 234.082 843.932 234.16C843.745 234.231 843.589 234.364 843.467 234.558C843.35 234.752 843.292 235.027 843.292 235.383V246H841.438ZM839.973 237.916V236.664H845.126V237.916H839.973ZM848.833 234.674C848.465 234.674 848.173 234.574 847.96 234.373C847.753 234.166 847.649 233.888 847.649 233.539C847.649 233.202 847.753 232.937 847.96 232.743C848.173 232.542 848.465 232.442 848.833 232.442C849.196 232.442 849.48 232.542 849.687 232.743C849.901 232.937 850.008 233.202 850.008 233.539C850.008 233.888 849.901 234.166 849.687 234.373C849.48 234.574 849.196 234.674 848.833 234.674ZM847.911 246V236.635H849.755V246H847.911ZM856.715 246.252C855.952 246.252 855.24 246.049 854.58 245.641C853.92 245.233 853.39 244.661 852.988 243.923C852.587 243.186 852.387 242.319 852.387 241.322C852.387 240.274 852.587 239.388 852.988 238.663C853.39 237.932 853.92 237.375 854.58 236.994C855.24 236.606 855.952 236.411 856.715 236.411C857.278 236.411 857.779 236.502 858.219 236.683C858.659 236.858 859.038 237.097 859.355 237.401C859.672 237.699 859.927 238.035 860.122 238.411C860.322 238.786 860.461 239.174 860.539 239.575L858.666 239.672C858.53 239.187 858.291 238.799 857.948 238.508C857.611 238.21 857.194 238.061 856.696 238.061C856.275 238.061 855.877 238.181 855.502 238.42C855.133 238.653 854.832 239.012 854.599 239.498C854.373 239.976 854.26 240.585 854.26 241.322C854.26 242.008 854.366 242.594 854.58 243.079C854.794 243.564 855.085 243.936 855.453 244.195C855.822 244.454 856.236 244.583 856.696 244.583C857.356 244.583 857.847 244.425 858.171 244.108C858.501 243.784 858.666 243.341 858.666 242.778H860.539C860.539 243.431 860.387 244.02 860.083 244.544C859.779 245.068 859.339 245.486 858.763 245.796C858.193 246.1 857.511 246.252 856.715 246.252ZM864.023 234.674C863.654 234.674 863.363 234.574 863.149 234.373C862.942 234.166 862.839 233.888 862.839 233.539C862.839 233.202 862.942 232.937 863.149 232.743C863.363 232.542 863.654 232.442 864.023 232.442C864.385 232.442 864.67 232.542 864.877 232.743C865.09 232.937 865.197 233.202 865.197 233.539C865.197 233.888 865.09 234.166 864.877 234.373C864.67 234.574 864.385 234.674 864.023 234.674ZM863.101 246V236.635H864.945V246H863.101ZM871.846 246.252C871.044 246.252 870.319 246.045 869.672 245.631C869.025 245.217 868.511 244.641 868.129 243.904C867.754 243.166 867.566 242.312 867.566 241.342C867.566 240.313 867.754 239.433 868.129 238.702C868.504 237.964 869.015 237.398 869.662 237.003C870.309 236.609 871.037 236.411 871.846 236.411C872.57 236.411 873.192 236.56 873.709 236.858C874.227 237.149 874.644 237.544 874.961 238.042C875.278 238.534 875.495 239.093 875.611 239.721C875.734 240.348 875.757 240.995 875.679 241.662H869.041V240.594H874.418L873.971 240.885C873.991 240.536 873.971 240.187 873.913 239.837C873.861 239.488 873.758 239.168 873.602 238.877C873.447 238.579 873.227 238.343 872.942 238.168C872.664 237.987 872.308 237.896 871.875 237.896C871.331 237.896 870.875 238.032 870.507 238.304C870.144 238.576 869.869 238.941 869.682 239.401C869.494 239.853 869.4 240.352 869.4 240.895V241.642C869.4 242.244 869.491 242.778 869.672 243.244C869.853 243.71 870.122 244.078 870.477 244.35C870.84 244.615 871.296 244.748 871.846 244.748C872.383 244.748 872.826 244.622 873.175 244.37C873.531 244.117 873.751 243.739 873.835 243.234H875.718C875.621 243.842 875.398 244.373 875.048 244.826C874.699 245.279 874.249 245.631 873.699 245.884C873.156 246.129 872.538 246.252 871.846 246.252ZM884.657 246V240.526C884.657 239.718 884.462 239.106 884.074 238.692C883.693 238.272 883.175 238.061 882.521 238.061C882.004 238.061 881.551 238.204 881.163 238.488C880.781 238.767 880.483 239.177 880.27 239.721C880.063 240.258 879.959 240.915 879.959 241.691H879.299C879.299 240.546 879.445 239.582 879.736 238.799C880.034 238.016 880.458 237.424 881.007 237.023C881.557 236.615 882.217 236.411 882.987 236.411C883.738 236.411 884.372 236.58 884.889 236.916C885.414 237.253 885.811 237.731 886.083 238.352C886.355 238.967 886.491 239.692 886.491 240.526V246H884.657ZM878.115 246V236.664H879.717L879.959 238.682V246H878.115ZM892.514 246.252C891.983 246.252 891.504 246.152 891.077 245.951C890.65 245.751 890.311 245.45 890.058 245.049C889.813 244.641 889.69 244.13 889.69 243.516V234.121H891.524V243.457C891.524 244.337 891.935 244.777 892.756 244.777C893.009 244.777 893.255 244.751 893.494 244.7C893.733 244.641 894.005 244.557 894.309 244.447L894.571 245.757C894.228 245.9 893.889 246.016 893.552 246.107C893.222 246.204 892.876 246.252 892.514 246.252ZM888.263 237.916V236.664H894.29V237.916H888.263ZM901.257 246V235.354C901.257 234.707 901.38 234.183 901.625 233.781C901.878 233.374 902.211 233.073 902.625 232.879C903.039 232.685 903.495 232.588 903.993 232.588C904.278 232.588 904.569 232.607 904.867 232.646C905.171 232.685 905.469 232.743 905.76 232.821L905.41 234.257C905.229 234.192 905.045 234.14 904.857 234.102C904.676 234.063 904.501 234.043 904.333 234.043C904.133 234.043 903.938 234.082 903.751 234.16C903.563 234.231 903.408 234.364 903.285 234.558C903.169 234.752 903.11 235.027 903.11 235.383V246H901.257ZM899.791 237.916V236.664H904.945V237.916H899.791ZM910.603 246.252C909.756 246.252 908.996 246.068 908.323 245.699C907.656 245.33 907.129 244.78 906.741 244.049C906.353 243.318 906.158 242.416 906.158 241.342C906.158 240.248 906.353 239.339 906.741 238.614C907.129 237.883 907.656 237.333 908.323 236.965C908.996 236.596 909.756 236.411 910.603 236.411C911.438 236.411 912.188 236.596 912.855 236.965C913.521 237.333 914.045 237.883 914.427 238.614C914.815 239.339 915.009 240.248 915.009 241.342C915.009 242.416 914.815 243.318 914.427 244.049C914.045 244.78 913.521 245.33 912.855 245.699C912.188 246.068 911.438 246.252 910.603 246.252ZM910.545 244.641C911.082 244.641 911.545 244.512 911.933 244.253C912.328 243.994 912.628 243.619 912.835 243.127C913.049 242.629 913.156 242.034 913.156 241.342C913.156 240.281 912.939 239.459 912.505 238.877C912.078 238.294 911.461 238.003 910.652 238.003C910.108 238.003 909.639 238.136 909.245 238.401C908.856 238.66 908.556 239.038 908.342 239.536C908.135 240.028 908.031 240.63 908.031 241.342C908.031 242.383 908.248 243.195 908.682 243.778C909.115 244.353 909.736 244.641 910.545 244.641ZM920.885 246.252C920.037 246.252 919.277 246.068 918.604 245.699C917.937 245.33 917.41 244.78 917.022 244.049C916.634 243.318 916.44 242.416 916.44 241.342C916.44 240.248 916.634 239.339 917.022 238.614C917.41 237.883 917.937 237.333 918.604 236.965C919.277 236.596 920.037 236.411 920.885 236.411C921.719 236.411 922.47 236.596 923.136 236.965C923.803 237.333 924.327 237.883 924.708 238.614C925.097 239.339 925.291 240.248 925.291 241.342C925.291 242.416 925.097 243.318 924.708 244.049C924.327 244.78 923.803 245.33 923.136 245.699C922.47 246.068 921.719 246.252 920.885 246.252ZM920.826 244.641C921.363 244.641 921.826 244.512 922.214 244.253C922.609 243.994 922.91 243.619 923.117 243.127C923.33 242.629 923.437 242.034 923.437 241.342C923.437 240.281 923.22 239.459 922.787 238.877C922.36 238.294 921.742 238.003 920.933 238.003C920.39 238.003 919.921 238.136 919.526 238.401C919.138 238.66 918.837 239.038 918.623 239.536C918.416 240.028 918.313 240.63 918.313 241.342C918.313 242.383 918.529 243.195 918.963 243.778C919.396 244.353 920.018 244.641 920.826 244.641ZM931.04 246.252C930.276 246.252 929.574 246.049 928.934 245.641C928.293 245.227 927.782 244.651 927.4 243.913C927.025 243.169 926.837 242.296 926.837 241.293C926.837 240.297 927.022 239.433 927.391 238.702C927.766 237.971 928.261 237.408 928.875 237.013C929.49 236.612 930.173 236.411 930.923 236.411C931.609 236.411 932.207 236.58 932.719 236.916C933.23 237.246 933.624 237.728 933.903 238.362C934.187 238.996 934.33 239.769 934.33 240.682H933.689C933.689 240.119 933.576 239.643 933.349 239.255C933.123 238.86 932.829 238.563 932.466 238.362C932.104 238.162 931.716 238.061 931.302 238.061C930.816 238.061 930.376 238.194 929.982 238.459C929.594 238.718 929.283 239.09 929.05 239.575C928.824 240.054 928.71 240.627 928.71 241.293C928.71 241.966 928.824 242.551 929.05 243.05C929.283 243.541 929.594 243.92 929.982 244.185C930.376 244.45 930.813 244.583 931.292 244.583C931.687 244.583 932.065 244.48 932.427 244.273C932.796 244.059 933.097 243.755 933.33 243.36C933.569 242.966 933.689 242.496 933.689 241.953H934.33C934.33 242.885 934.181 243.671 933.883 244.311C933.592 244.952 933.197 245.437 932.699 245.767C932.201 246.091 931.648 246.252 931.04 246.252ZM934.009 246L933.689 243.758V232.733H935.543V246H934.009ZM553.548 278.252C552.701 278.252 551.941 278.068 551.268 277.699C550.601 277.33 550.074 276.78 549.686 276.049C549.298 275.318 549.104 274.416 549.104 273.342C549.104 272.248 549.298 271.339 549.686 270.614C550.074 269.883 550.601 269.333 551.268 268.965C551.941 268.596 552.701 268.411 553.548 268.411C554.383 268.411 555.134 268.596 555.8 268.965C556.466 269.333 556.99 269.883 557.372 270.614C557.76 271.339 557.954 272.248 557.954 273.342C557.954 274.416 557.76 275.318 557.372 276.049C556.99 276.78 556.466 277.33 555.8 277.699C555.134 278.068 554.383 278.252 553.548 278.252ZM553.49 276.641C554.027 276.641 554.49 276.512 554.878 276.253C555.273 275.994 555.574 275.619 555.781 275.127C555.994 274.629 556.101 274.034 556.101 273.342C556.101 272.281 555.884 271.459 555.451 270.877C555.024 270.294 554.406 270.003 553.597 270.003C553.053 270.003 552.584 270.136 552.19 270.401C551.802 270.66 551.501 271.038 551.287 271.536C551.08 272.028 550.977 272.63 550.977 273.342C550.977 274.383 551.193 275.195 551.627 275.778C552.06 276.353 552.681 276.641 553.49 276.641ZM560.316 278V268.635H562.16V278H560.316ZM561.656 273.827C561.656 272.63 561.779 271.637 562.025 270.847C562.277 270.052 562.626 269.46 563.073 269.071C563.526 268.683 564.056 268.489 564.664 268.489C564.845 268.489 565.014 268.502 565.169 268.528C565.331 268.554 565.489 268.589 565.644 268.635L565.577 270.469C565.402 270.424 565.211 270.385 565.004 270.352C564.803 270.314 564.619 270.294 564.451 270.294C563.92 270.294 563.487 270.437 563.15 270.721C562.814 270.999 562.565 271.404 562.403 271.934C562.241 272.458 562.16 273.089 562.16 273.827H561.656ZM570.478 278.252C569.715 278.252 569.013 278.049 568.372 277.641C567.731 277.227 567.22 276.651 566.839 275.913C566.463 275.169 566.276 274.296 566.276 273.293C566.276 272.297 566.46 271.433 566.829 270.702C567.204 269.971 567.699 269.408 568.314 269.013C568.928 268.612 569.611 268.411 570.362 268.411C571.047 268.411 571.646 268.58 572.157 268.916C572.668 269.246 573.063 269.728 573.341 270.362C573.626 270.996 573.768 271.769 573.768 272.682H573.127C573.127 272.119 573.014 271.643 572.788 271.255C572.561 270.86 572.267 270.563 571.905 270.362C571.542 270.162 571.154 270.061 570.74 270.061C570.255 270.061 569.815 270.194 569.42 270.459C569.032 270.718 568.721 271.09 568.488 271.575C568.262 272.054 568.149 272.627 568.149 273.293C568.149 273.966 568.262 274.551 568.488 275.05C568.721 275.541 569.032 275.92 569.42 276.185C569.815 276.45 570.252 276.583 570.73 276.583C571.125 276.583 571.504 276.48 571.866 276.273C572.235 276.059 572.535 275.755 572.768 275.36C573.008 274.966 573.127 274.496 573.127 273.953H573.768C573.768 274.885 573.619 275.671 573.322 276.311C573.03 276.952 572.636 277.437 572.138 277.767C571.639 278.091 571.086 278.252 570.478 278.252ZM573.448 278L573.127 275.758V264.733H574.981V278H573.448ZM581.63 278.252C580.828 278.252 580.103 278.045 579.456 277.631C578.809 277.217 578.295 276.641 577.913 275.904C577.538 275.166 577.35 274.312 577.35 273.342C577.35 272.313 577.538 271.433 577.913 270.702C578.289 269.964 578.8 269.398 579.447 269.003C580.094 268.609 580.822 268.411 581.63 268.411C582.355 268.411 582.976 268.56 583.494 268.858C584.011 269.149 584.429 269.544 584.746 270.042C585.063 270.534 585.279 271.093 585.396 271.721C585.519 272.348 585.541 272.995 585.464 273.662H578.826V272.594H584.202L583.756 272.885C583.775 272.536 583.756 272.187 583.697 271.837C583.646 271.488 583.542 271.168 583.387 270.877C583.232 270.579 583.012 270.343 582.727 270.168C582.449 269.987 582.093 269.896 581.659 269.896C581.116 269.896 580.66 270.032 580.291 270.304C579.929 270.576 579.654 270.941 579.466 271.401C579.278 271.853 579.185 272.352 579.185 272.895V273.642C579.185 274.244 579.275 274.778 579.456 275.244C579.638 275.71 579.906 276.078 580.262 276.35C580.624 276.615 581.08 276.748 581.63 276.748C582.167 276.748 582.61 276.622 582.96 276.37C583.316 276.117 583.536 275.739 583.62 275.234H585.503C585.406 275.842 585.182 276.373 584.833 276.826C584.484 277.279 584.034 277.631 583.484 277.884C582.94 278.129 582.323 278.252 581.63 278.252ZM587.9 278V268.635H589.744V278H587.9ZM589.239 273.827C589.239 272.63 589.362 271.637 589.608 270.847C589.86 270.052 590.21 269.46 590.656 269.071C591.109 268.683 591.64 268.489 592.248 268.489C592.429 268.489 592.597 268.502 592.752 268.528C592.914 268.554 593.073 268.589 593.228 268.635L593.16 270.469C592.985 270.424 592.794 270.385 592.587 270.352C592.387 270.314 592.202 270.294 592.034 270.294C591.504 270.294 591.07 270.437 590.734 270.721C590.397 270.999 590.148 271.404 589.986 271.934C589.825 272.458 589.744 273.089 589.744 273.827H589.239ZM595.742 266.674C595.373 266.674 595.082 266.574 594.869 266.373C594.661 266.166 594.558 265.888 594.558 265.539C594.558 265.202 594.661 264.937 594.869 264.743C595.082 264.542 595.373 264.442 595.742 264.442C596.104 264.442 596.389 264.542 596.596 264.743C596.81 264.937 596.916 265.202 596.916 265.539C596.916 265.888 596.81 266.166 596.596 266.373C596.389 266.574 596.104 266.674 595.742 266.674ZM594.82 278V268.635H596.664V278H594.82ZM606.758 278V272.526C606.758 271.718 606.564 271.106 606.176 270.692C605.794 270.272 605.276 270.061 604.623 270.061C604.105 270.061 603.652 270.204 603.264 270.488C602.883 270.767 602.585 271.177 602.371 271.721C602.164 272.258 602.061 272.915 602.061 273.691H601.401C601.401 272.546 601.546 271.582 601.838 270.799C602.135 270.016 602.559 269.424 603.109 269.023C603.659 268.615 604.319 268.411 605.089 268.411C605.839 268.411 606.473 268.58 606.991 268.916C607.515 269.253 607.913 269.731 608.185 270.352C608.456 270.967 608.592 271.692 608.592 272.526V278H606.758ZM600.217 278V268.664H601.818L602.061 270.682V278H600.217ZM615.052 282.814C614.043 282.814 613.172 282.675 612.441 282.396C611.717 282.118 611.157 281.746 610.762 281.28C610.368 280.814 610.17 280.307 610.17 279.757C610.17 279.058 610.426 278.521 610.937 278.146C611.448 277.777 612.098 277.592 612.888 277.592L614.082 278.155C613.409 278.155 612.888 278.291 612.519 278.563C612.157 278.835 611.976 279.203 611.976 279.669C611.976 280.155 612.241 280.552 612.771 280.863C613.302 281.18 614.062 281.339 615.052 281.339C615.77 281.339 616.401 281.232 616.944 281.018C617.488 280.811 617.909 280.536 618.206 280.193C618.504 279.857 618.653 279.495 618.653 279.106C618.653 278.841 618.556 278.615 618.361 278.427C618.174 278.246 617.886 278.155 617.498 278.155H614.082C613.447 278.155 612.888 278.058 612.403 277.864C611.924 277.664 611.549 277.402 611.277 277.078C611.005 276.755 610.869 276.395 610.869 276.001C610.869 275.613 610.979 275.279 611.199 275.001C611.419 274.716 611.71 274.503 612.073 274.361C612.435 274.212 612.833 274.137 613.266 274.137L613.684 274.778C613.496 274.778 613.308 274.82 613.121 274.904C612.933 274.982 612.778 275.101 612.655 275.263C612.532 275.425 612.47 275.626 612.47 275.865C612.47 276.143 612.587 276.376 612.82 276.564C613.059 276.745 613.48 276.835 614.082 276.835H617.498C618.429 276.835 619.16 277.02 619.691 277.389C620.222 277.757 620.487 278.294 620.487 279C620.487 279.64 620.267 280.252 619.827 280.834C619.387 281.416 618.759 281.892 617.944 282.26C617.135 282.629 616.171 282.814 615.052 282.814ZM615.256 275.195C614.531 275.195 613.871 275.056 613.276 274.778C612.687 274.493 612.218 274.099 611.869 273.594C611.519 273.083 611.345 272.488 611.345 271.808C611.345 271.122 611.519 270.527 611.869 270.022C612.218 269.511 612.687 269.117 613.276 268.838C613.871 268.554 614.531 268.411 615.256 268.411C615.961 268.411 616.605 268.554 617.187 268.838C617.776 269.117 618.245 269.511 618.594 270.022C618.95 270.527 619.128 271.122 619.128 271.808C619.128 272.488 618.95 273.083 618.594 273.594C618.245 274.099 617.776 274.493 617.187 274.778C616.605 275.056 615.961 275.195 615.256 275.195ZM615.256 273.895C615.922 273.895 616.43 273.697 616.78 273.303C617.135 272.902 617.313 272.403 617.313 271.808C617.313 271.187 617.135 270.686 616.78 270.304C616.43 269.922 615.922 269.731 615.256 269.731C614.602 269.731 614.091 269.922 613.722 270.304C613.36 270.686 613.179 271.187 613.179 271.808C613.179 272.403 613.36 272.902 613.722 273.303C614.091 273.697 614.602 273.895 615.256 273.895ZM618.429 269.906L617.566 269.489C617.566 268.932 617.682 268.447 617.915 268.033C618.148 267.619 618.471 267.295 618.885 267.062C619.3 266.83 619.775 266.713 620.312 266.713L620.196 268.509C619.62 268.509 619.18 268.622 618.876 268.848C618.578 269.075 618.429 269.427 618.429 269.906ZM624.901 268.664H626.822L629.045 276.156H628.841L630.986 269.139H632.587L634.722 276.175H634.528L636.751 268.664H638.595L635.528 278H633.723L631.607 271.401H631.888L629.802 278H627.997L624.901 268.664ZM646.878 278V272.526C646.878 271.718 646.684 271.106 646.296 270.692C645.914 270.272 645.397 270.061 644.743 270.061C644.226 270.061 643.773 270.204 643.385 270.488C643.003 270.767 642.705 271.177 642.492 271.721C642.285 272.258 642.181 272.915 642.181 273.691H641.521C641.521 272.546 641.667 271.582 641.958 270.799C642.256 270.016 642.679 269.424 643.229 269.023C643.779 268.615 644.439 268.411 645.209 268.411C645.96 268.411 646.594 268.58 647.111 268.916C647.635 269.253 648.033 269.731 648.305 270.352C648.577 270.967 648.713 271.692 648.713 272.526V278H646.878ZM640.337 278V264.733H642.181V278H640.337ZM652.804 266.674C652.436 266.674 652.144 266.574 651.931 266.373C651.724 266.166 651.62 265.888 651.62 265.539C651.62 265.202 651.724 264.937 651.931 264.743C652.144 264.542 652.436 264.442 652.804 264.442C653.167 264.442 653.451 264.542 653.658 264.743C653.872 264.937 653.979 265.202 653.979 265.539C653.979 265.888 653.872 266.166 653.658 266.373C653.451 266.574 653.167 266.674 652.804 266.674ZM651.882 278V268.635H653.726V278H651.882ZM657.279 278V264.733H659.123V278H657.279ZM665.772 278.252C664.97 278.252 664.245 278.045 663.598 277.631C662.951 277.217 662.437 276.641 662.055 275.904C661.68 275.166 661.492 274.312 661.492 273.342C661.492 272.313 661.68 271.433 662.055 270.702C662.43 269.964 662.941 269.398 663.588 269.003C664.235 268.609 664.963 268.411 665.772 268.411C666.497 268.411 667.118 268.56 667.635 268.858C668.153 269.149 668.57 269.544 668.887 270.042C669.204 270.534 669.421 271.093 669.537 271.721C669.66 272.348 669.683 272.995 669.605 273.662H662.967V272.594H668.344L667.897 272.885C667.917 272.536 667.897 272.187 667.839 271.837C667.787 271.488 667.684 271.168 667.528 270.877C667.373 270.579 667.153 270.343 666.869 270.168C666.59 269.987 666.234 269.896 665.801 269.896C665.258 269.896 664.801 270.032 664.433 270.304C664.07 270.576 663.795 270.941 663.608 271.401C663.42 271.853 663.326 272.352 663.326 272.895V273.642C663.326 274.244 663.417 274.778 663.598 275.244C663.779 275.71 664.048 276.078 664.403 276.35C664.766 276.615 665.222 276.748 665.772 276.748C666.309 276.748 666.752 276.622 667.101 276.37C667.457 276.117 667.677 275.739 667.761 275.234H669.644C669.547 275.842 669.324 276.373 668.975 276.826C668.625 277.279 668.175 277.631 667.626 277.884C667.082 278.129 666.464 278.252 665.772 278.252ZM679.711 278.252C678.805 278.252 678.042 278.126 677.421 277.874C676.8 277.615 676.324 277.259 675.994 276.806C675.671 276.347 675.502 275.81 675.489 275.195H677.227C677.253 275.732 677.466 276.13 677.867 276.389C678.275 276.648 678.825 276.777 679.517 276.777C679.886 276.777 680.219 276.719 680.517 276.602C680.821 276.486 681.06 276.328 681.235 276.127C681.416 275.926 681.507 275.7 681.507 275.448C681.507 275.131 681.39 274.881 681.157 274.7C680.924 274.513 680.549 274.348 680.031 274.205L678.12 273.555C677.356 273.296 676.771 272.953 676.363 272.526C675.955 272.093 675.751 271.575 675.751 270.974C675.751 270.204 676.094 269.586 676.78 269.12C677.466 268.648 678.375 268.411 679.507 268.411C680.678 268.411 681.581 268.661 682.215 269.159C682.856 269.65 683.189 270.268 683.215 271.012H681.439C681.393 270.644 681.209 270.362 680.885 270.168C680.568 269.967 680.109 269.867 679.507 269.867C678.944 269.867 678.501 269.99 678.178 270.236C677.861 270.482 677.702 270.76 677.702 271.071C677.702 271.627 678.181 272.041 679.139 272.313L681.147 273.021C681.911 273.267 682.5 273.584 682.914 273.972C683.328 274.361 683.535 274.852 683.535 275.448C683.535 275.926 683.376 276.379 683.059 276.806C682.742 277.233 682.296 277.583 681.72 277.854C681.151 278.12 680.481 278.252 679.711 278.252ZM689.025 278.252C688.495 278.252 688.016 278.152 687.589 277.951C687.162 277.751 686.822 277.45 686.57 277.049C686.324 276.641 686.201 276.13 686.201 275.516V266.121H688.035V275.457C688.035 276.337 688.446 276.777 689.268 276.777C689.52 276.777 689.766 276.751 690.006 276.7C690.245 276.641 690.517 276.557 690.821 276.447L691.083 277.757C690.74 277.9 690.4 278.016 690.064 278.107C689.734 278.204 689.388 278.252 689.025 278.252ZM684.775 269.916V268.664H690.801V269.916H684.775ZM698.843 278L698.61 275.855V271.963C698.61 271.2 698.451 270.647 698.134 270.304C697.817 269.955 697.316 269.78 696.63 269.78C696.242 269.78 695.896 269.838 695.592 269.955C695.294 270.065 695.058 270.233 694.883 270.459C694.715 270.686 694.631 270.97 694.631 271.313H692.593C692.593 270.627 692.761 270.071 693.097 269.644C693.434 269.217 693.903 268.906 694.505 268.712C695.113 268.512 695.821 268.411 696.63 268.411C697.387 268.411 698.053 268.538 698.629 268.79C699.205 269.036 699.651 269.424 699.968 269.955C700.292 270.485 700.454 271.171 700.454 272.012V278H698.843ZM695.718 278.252C694.935 278.252 694.285 278.116 693.767 277.845C693.249 277.567 692.861 277.204 692.602 276.758C692.35 276.311 692.224 275.836 692.224 275.331C692.224 274.716 692.379 274.212 692.69 273.817C693.007 273.416 693.444 273.118 694 272.924C694.556 272.73 695.197 272.633 695.922 272.633C696.42 272.633 696.905 272.678 697.377 272.769C697.85 272.86 698.315 272.979 698.775 273.128V274.244C698.4 274.108 697.982 274.002 697.523 273.924C697.07 273.84 696.646 273.798 696.251 273.798C695.663 273.798 695.171 273.914 694.776 274.147C694.382 274.38 694.184 274.775 694.184 275.331C694.184 275.739 694.34 276.091 694.65 276.389C694.961 276.68 695.452 276.826 696.125 276.826C696.617 276.826 697.051 276.716 697.426 276.496C697.801 276.269 698.092 275.988 698.299 275.651C698.506 275.315 698.61 274.979 698.61 274.642H699.056C699.056 275.289 698.924 275.888 698.658 276.437C698.4 276.981 698.021 277.421 697.523 277.757C697.025 278.087 696.423 278.252 695.718 278.252ZM710.022 278V272.526C710.022 271.718 709.827 271.106 709.439 270.692C709.057 270.272 708.54 270.061 707.886 270.061C707.369 270.061 706.916 270.204 706.528 270.488C706.146 270.767 705.848 271.177 705.635 271.721C705.428 272.258 705.324 272.915 705.324 273.691H704.664C704.664 272.546 704.81 271.582 705.101 270.799C705.399 270.016 705.822 269.424 706.372 269.023C706.922 268.615 707.582 268.411 708.352 268.411C709.103 268.411 709.737 268.58 710.254 268.916C710.778 269.253 711.176 269.731 711.448 270.352C711.72 270.967 711.856 271.692 711.856 272.526V278H710.022ZM703.48 278V268.664H705.082L705.324 270.682V278H703.48ZM718.267 278.252C717.504 278.252 716.802 278.049 716.161 277.641C715.52 277.227 715.009 276.651 714.628 275.913C714.252 275.169 714.065 274.296 714.065 273.293C714.065 272.297 714.249 271.433 714.618 270.702C714.993 269.971 715.488 269.408 716.103 269.013C716.717 268.612 717.4 268.411 718.151 268.411C718.836 268.411 719.435 268.58 719.946 268.916C720.457 269.246 720.852 269.728 721.13 270.362C721.415 270.996 721.557 271.769 721.557 272.682H720.916C720.916 272.119 720.803 271.643 720.577 271.255C720.35 270.86 720.056 270.563 719.694 270.362C719.331 270.162 718.943 270.061 718.529 270.061C718.044 270.061 717.604 270.194 717.209 270.459C716.821 270.718 716.51 271.09 716.277 271.575C716.051 272.054 715.938 272.627 715.938 273.293C715.938 273.966 716.051 274.551 716.277 275.05C716.51 275.541 716.821 275.92 717.209 276.185C717.604 276.45 718.041 276.583 718.519 276.583C718.914 276.583 719.292 276.48 719.655 276.273C720.024 276.059 720.324 275.755 720.557 275.36C720.797 274.966 720.916 274.496 720.916 273.953H721.557C721.557 274.885 721.408 275.671 721.111 276.311C720.819 276.952 720.425 277.437 719.927 277.767C719.428 278.091 718.875 278.252 718.267 278.252ZM721.237 278L720.916 275.758V264.733H722.77V278H721.237ZM727.139 266.674C726.77 266.674 726.479 266.574 726.265 266.373C726.058 266.166 725.955 265.888 725.955 265.539C725.955 265.202 726.058 264.937 726.265 264.743C726.479 264.542 726.77 264.442 727.139 264.442C727.501 264.442 727.786 264.542 727.993 264.743C728.206 264.937 728.313 265.202 728.313 265.539C728.313 265.888 728.206 266.166 727.993 266.373C727.786 266.574 727.501 266.674 727.139 266.674ZM726.217 278V268.635H728.061V278H726.217ZM738.155 278V272.526C738.155 271.718 737.961 271.106 737.572 270.692C737.191 270.272 736.673 270.061 736.02 270.061C735.502 270.061 735.049 270.204 734.661 270.488C734.279 270.767 733.981 271.177 733.768 271.721C733.561 272.258 733.457 272.915 733.457 273.691H732.797C732.797 272.546 732.943 271.582 733.234 270.799C733.532 270.016 733.956 269.424 734.506 269.023C735.056 268.615 735.715 268.411 736.485 268.411C737.236 268.411 737.87 268.58 738.388 268.916C738.912 269.253 739.31 269.731 739.581 270.352C739.853 270.967 739.989 271.692 739.989 272.526V278H738.155ZM731.613 278V268.664H733.215L733.457 270.682V278H731.613ZM746.449 282.814C745.439 282.814 744.569 282.675 743.838 282.396C743.113 282.118 742.554 281.746 742.159 281.28C741.764 280.814 741.567 280.307 741.567 279.757C741.567 279.058 741.823 278.521 742.334 278.146C742.845 277.777 743.495 277.592 744.284 277.592L745.478 278.155C744.805 278.155 744.284 278.291 743.916 278.563C743.553 278.835 743.372 279.203 743.372 279.669C743.372 280.155 743.637 280.552 744.168 280.863C744.698 281.18 745.459 281.339 746.449 281.339C747.167 281.339 747.798 281.232 748.341 281.018C748.885 280.811 749.305 280.536 749.603 280.193C749.9 279.857 750.049 279.495 750.049 279.106C750.049 278.841 749.952 278.615 749.758 278.427C749.57 278.246 749.282 278.155 748.894 278.155H745.478C744.844 278.155 744.284 278.058 743.799 277.864C743.32 277.664 742.945 277.402 742.673 277.078C742.402 276.755 742.266 276.395 742.266 276.001C742.266 275.613 742.376 275.279 742.596 275.001C742.816 274.716 743.107 274.503 743.469 274.361C743.832 274.212 744.229 274.137 744.663 274.137L745.08 274.778C744.893 274.778 744.705 274.82 744.517 274.904C744.33 274.982 744.174 275.101 744.051 275.263C743.929 275.425 743.867 275.626 743.867 275.865C743.867 276.143 743.984 276.376 744.216 276.564C744.456 276.745 744.876 276.835 745.478 276.835H748.894C749.826 276.835 750.557 277.02 751.088 277.389C751.618 277.757 751.883 278.294 751.883 279C751.883 279.64 751.663 280.252 751.223 280.834C750.784 281.416 750.156 281.892 749.341 282.26C748.532 282.629 747.568 282.814 746.449 282.814ZM746.652 275.195C745.928 275.195 745.268 275.056 744.673 274.778C744.084 274.493 743.615 274.099 743.265 273.594C742.916 273.083 742.741 272.488 742.741 271.808C742.741 271.122 742.916 270.527 743.265 270.022C743.615 269.511 744.084 269.117 744.673 268.838C745.268 268.554 745.928 268.411 746.652 268.411C747.358 268.411 748.001 268.554 748.584 268.838C749.172 269.117 749.642 269.511 749.991 270.022C750.347 270.527 750.525 271.122 750.525 271.808C750.525 272.488 750.347 273.083 749.991 273.594C749.642 274.099 749.172 274.493 748.584 274.778C748.001 275.056 747.358 275.195 746.652 275.195ZM746.652 273.895C747.319 273.895 747.827 273.697 748.176 273.303C748.532 272.902 748.71 272.403 748.71 271.808C748.71 271.187 748.532 270.686 748.176 270.304C747.827 269.922 747.319 269.731 746.652 269.731C745.999 269.731 745.488 269.922 745.119 270.304C744.757 270.686 744.576 271.187 744.576 271.808C744.576 272.403 744.757 272.902 745.119 273.303C745.488 273.697 745.999 273.895 746.652 273.895ZM749.826 269.906L748.962 269.489C748.962 268.932 749.079 268.447 749.312 268.033C749.545 267.619 749.868 267.295 750.282 267.062C750.696 266.83 751.172 266.713 751.709 266.713L751.592 268.509C751.016 268.509 750.576 268.622 750.272 268.848C749.975 269.075 749.826 269.427 749.826 269.906ZM761.402 278.252C760.555 278.252 759.794 278.068 759.122 277.699C758.455 277.33 757.928 276.78 757.54 276.049C757.151 275.318 756.957 274.416 756.957 273.342C756.957 272.248 757.151 271.339 757.54 270.614C757.928 269.883 758.455 269.333 759.122 268.965C759.794 268.596 760.555 268.411 761.402 268.411C762.237 268.411 762.987 268.596 763.654 268.965C764.32 269.333 764.844 269.883 765.226 270.614C765.614 271.339 765.808 272.248 765.808 273.342C765.808 274.416 765.614 275.318 765.226 276.049C764.844 276.78 764.32 277.33 763.654 277.699C762.987 278.068 762.237 278.252 761.402 278.252ZM761.344 276.641C761.881 276.641 762.344 276.512 762.732 276.253C763.126 275.994 763.427 275.619 763.634 275.127C763.848 274.629 763.955 274.034 763.955 273.342C763.955 272.281 763.738 271.459 763.304 270.877C762.877 270.294 762.259 270.003 761.451 270.003C760.907 270.003 760.438 270.136 760.044 270.401C759.655 270.66 759.354 271.038 759.141 271.536C758.934 272.028 758.83 272.63 758.83 273.342C758.83 274.383 759.047 275.195 759.481 275.778C759.914 276.353 760.535 276.641 761.344 276.641ZM774.459 268.635H776.313V278H774.459V268.635ZM767.937 268.635H769.781V274.419C769.781 275.124 769.953 275.658 770.296 276.02C770.645 276.382 771.133 276.564 771.761 276.564C772.292 276.564 772.757 276.425 773.159 276.146C773.566 275.868 773.883 275.473 774.11 274.962C774.343 274.451 774.459 273.846 774.459 273.148H775.051C775.051 274.241 774.902 275.16 774.605 275.904C774.307 276.648 773.89 277.214 773.353 277.602C772.816 277.984 772.188 278.175 771.47 278.175C770.784 278.175 770.173 278.049 769.636 277.796C769.105 277.544 768.688 277.156 768.384 276.632C768.086 276.101 767.937 275.418 767.937 274.584V268.635ZM782.607 278.252C782.076 278.252 781.597 278.152 781.17 277.951C780.743 277.751 780.404 277.45 780.151 277.049C779.905 276.641 779.782 276.13 779.782 275.516V266.121H781.617V275.457C781.617 276.337 782.027 276.777 782.849 276.777C783.102 276.777 783.347 276.751 783.587 276.7C783.826 276.641 784.098 276.557 784.402 276.447L784.664 277.757C784.321 277.9 783.981 278.016 783.645 278.107C783.315 278.204 782.969 278.252 782.607 278.252ZM778.356 269.916V268.664H784.383V269.916H778.356ZM791.349 278V267.354C791.349 266.707 791.472 266.183 791.718 265.781C791.971 265.374 792.304 265.073 792.718 264.879C793.132 264.685 793.588 264.588 794.086 264.588C794.371 264.588 794.662 264.607 794.96 264.646C795.264 264.685 795.561 264.743 795.853 264.821L795.503 266.257C795.322 266.192 795.138 266.14 794.95 266.102C794.769 266.063 794.594 266.043 794.426 266.043C794.225 266.043 794.031 266.082 793.844 266.16C793.656 266.231 793.501 266.364 793.378 266.558C793.261 266.752 793.203 267.027 793.203 267.383V278H791.349ZM789.884 269.916V268.664H795.037V269.916H789.884ZM797.183 278V268.635H799.027V278H797.183ZM798.522 273.827C798.522 272.63 798.645 271.637 798.891 270.847C799.143 270.052 799.493 269.46 799.939 269.071C800.392 268.683 800.923 268.489 801.531 268.489C801.712 268.489 801.88 268.502 802.035 268.528C802.197 268.554 802.356 268.589 802.511 268.635L802.443 270.469C802.268 270.424 802.077 270.385 801.87 270.352C801.67 270.314 801.485 270.294 801.317 270.294C800.787 270.294 800.353 270.437 800.017 270.721C799.68 270.999 799.431 271.404 799.269 271.934C799.108 272.458 799.027 273.089 799.027 273.827H798.522ZM807.471 278.252C806.623 278.252 805.863 278.068 805.19 277.699C804.524 277.33 803.996 276.78 803.608 276.049C803.22 275.318 803.026 274.416 803.026 273.342C803.026 272.248 803.22 271.339 803.608 270.614C803.996 269.883 804.524 269.333 805.19 268.965C805.863 268.596 806.623 268.411 807.471 268.411C808.305 268.411 809.056 268.596 809.722 268.965C810.389 269.333 810.913 269.883 811.294 270.614C811.683 271.339 811.877 272.248 811.877 273.342C811.877 274.416 811.683 275.318 811.294 276.049C810.913 276.78 810.389 277.33 809.722 277.699C809.056 278.068 808.305 278.252 807.471 278.252ZM807.412 276.641C807.949 276.641 808.412 276.512 808.8 276.253C809.195 275.994 809.496 275.619 809.703 275.127C809.916 274.629 810.023 274.034 810.023 273.342C810.023 272.281 809.806 271.459 809.373 270.877C808.946 270.294 808.328 270.003 807.519 270.003C806.976 270.003 806.507 270.136 806.112 270.401C805.724 270.66 805.423 271.038 805.209 271.536C805.002 272.028 804.899 272.63 804.899 273.342C804.899 274.383 805.116 275.195 805.549 275.778C805.983 276.353 806.604 276.641 807.412 276.641ZM827.175 278V272.526C827.175 271.718 826.981 271.106 826.593 270.692C826.211 270.272 825.697 270.061 825.05 270.061C824.274 270.061 823.672 270.365 823.245 270.974C822.824 271.582 822.614 272.455 822.614 273.594H821.809C821.809 272.695 821.896 271.918 822.071 271.265C822.245 270.611 822.494 270.074 822.818 269.654C823.148 269.233 823.539 268.923 823.992 268.722C824.452 268.515 824.963 268.411 825.526 268.411C826.276 268.411 826.91 268.58 827.428 268.916C827.952 269.253 828.35 269.731 828.621 270.352C828.893 270.967 829.029 271.692 829.029 272.526V278H827.175ZM814.239 278V268.664H815.84L816.044 270.42C816.341 269.767 816.749 269.269 817.267 268.926C817.791 268.583 818.405 268.411 819.111 268.411C819.861 268.411 820.495 268.58 821.013 268.916C821.537 269.253 821.935 269.731 822.206 270.352C822.478 270.967 822.614 271.692 822.614 272.526V278H820.78V272.526C820.78 271.718 820.586 271.106 820.198 270.692C819.816 270.272 819.298 270.061 818.645 270.061C818.127 270.061 817.674 270.204 817.286 270.488C816.904 270.767 816.607 271.177 816.393 271.721C816.186 272.258 816.083 272.915 816.083 273.691V278H814.239ZM839.696 278.252C838.79 278.252 838.027 278.126 837.405 277.874C836.784 277.615 836.309 277.259 835.979 276.806C835.655 276.347 835.487 275.81 835.474 275.195H837.211C837.237 275.732 837.451 276.13 837.852 276.389C838.259 276.648 838.809 276.777 839.502 276.777C839.87 276.777 840.204 276.719 840.501 276.602C840.805 276.486 841.045 276.328 841.219 276.127C841.401 275.926 841.491 275.7 841.491 275.448C841.491 275.131 841.375 274.881 841.142 274.7C840.909 274.513 840.534 274.348 840.016 274.205L838.104 273.555C837.341 273.296 836.755 272.953 836.348 272.526C835.94 272.093 835.736 271.575 835.736 270.974C835.736 270.204 836.079 269.586 836.765 269.12C837.451 268.648 838.36 268.411 839.492 268.411C840.663 268.411 841.566 268.661 842.2 269.159C842.84 269.65 843.173 270.268 843.199 271.012H841.423C841.378 270.644 841.194 270.362 840.87 270.168C840.553 269.967 840.094 269.867 839.492 269.867C838.929 269.867 838.486 269.99 838.162 270.236C837.845 270.482 837.687 270.76 837.687 271.071C837.687 271.627 838.166 272.041 839.123 272.313L841.132 273.021C841.896 273.267 842.484 273.584 842.898 273.972C843.313 274.361 843.52 274.852 843.52 275.448C843.52 275.926 843.361 276.379 843.044 276.806C842.727 277.233 842.281 277.583 841.705 277.854C841.135 278.12 840.466 278.252 839.696 278.252ZM847.079 266.674C846.71 266.674 846.419 266.574 846.205 266.373C845.998 266.166 845.895 265.888 845.895 265.539C845.895 265.202 845.998 264.937 846.205 264.743C846.419 264.542 846.71 264.442 847.079 264.442C847.441 264.442 847.726 264.542 847.933 264.743C848.146 264.937 848.253 265.202 848.253 265.539C848.253 265.888 848.146 266.166 847.933 266.373C847.726 266.574 847.441 266.674 847.079 266.674ZM846.157 278V268.635H848.001V278H846.157ZM864.49 278V272.526C864.49 271.718 864.296 271.106 863.908 270.692C863.526 270.272 863.012 270.061 862.365 270.061C861.589 270.061 860.987 270.365 860.56 270.974C860.139 271.582 859.929 272.455 859.929 273.594H859.124C859.124 272.695 859.211 271.918 859.386 271.265C859.56 270.611 859.809 270.074 860.133 269.654C860.463 269.233 860.854 268.923 861.307 268.722C861.767 268.515 862.278 268.411 862.841 268.411C863.591 268.411 864.225 268.58 864.743 268.916C865.267 269.253 865.665 269.731 865.936 270.352C866.208 270.967 866.344 271.692 866.344 272.526V278H864.49ZM851.554 278V268.664H853.155L853.359 270.42C853.656 269.767 854.064 269.269 854.582 268.926C855.106 268.583 855.72 268.411 856.426 268.411C857.176 268.411 857.81 268.58 858.328 268.916C858.852 269.253 859.25 269.731 859.521 270.352C859.793 270.967 859.929 271.692 859.929 272.526V278H858.095V272.526C858.095 271.718 857.901 271.106 857.512 270.692C857.131 270.272 856.613 270.061 855.96 270.061C855.442 270.061 854.989 270.204 854.601 270.488C854.219 270.767 853.922 271.177 853.708 271.721C853.501 272.258 853.398 272.915 853.398 273.691V278H851.554ZM870.409 266.674C870.04 266.674 869.749 266.574 869.535 266.373C869.328 266.166 869.225 265.888 869.225 265.539C869.225 265.202 869.328 264.937 869.535 264.743C869.749 264.542 870.04 264.442 870.409 264.442C870.771 264.442 871.056 264.542 871.263 264.743C871.476 264.937 871.583 265.202 871.583 265.539C871.583 265.888 871.476 266.166 871.263 266.373C871.056 266.574 870.771 266.674 870.409 266.674ZM869.487 278V268.635H871.331V278H869.487ZM874.884 278V264.733H876.727V278H874.884ZM885.88 278L885.647 275.855V271.963C885.647 271.2 885.489 270.647 885.172 270.304C884.855 269.955 884.353 269.78 883.667 269.78C883.279 269.78 882.933 269.838 882.629 269.955C882.331 270.065 882.095 270.233 881.92 270.459C881.752 270.686 881.668 270.97 881.668 271.313H879.63C879.63 270.627 879.798 270.071 880.135 269.644C880.471 269.217 880.94 268.906 881.542 268.712C882.15 268.512 882.859 268.411 883.667 268.411C884.424 268.411 885.091 268.538 885.667 268.79C886.242 269.036 886.689 269.424 887.006 269.955C887.329 270.485 887.491 271.171 887.491 272.012V278H885.88ZM882.755 278.252C881.972 278.252 881.322 278.116 880.804 277.845C880.287 277.567 879.899 277.204 879.64 276.758C879.387 276.311 879.261 275.836 879.261 275.331C879.261 274.716 879.416 274.212 879.727 273.817C880.044 273.416 880.481 273.118 881.037 272.924C881.594 272.73 882.234 272.633 882.959 272.633C883.457 272.633 883.942 272.678 884.415 272.769C884.887 272.86 885.353 272.979 885.812 273.128V274.244C885.437 274.108 885.02 274.002 884.56 273.924C884.107 273.84 883.683 273.798 883.289 273.798C882.7 273.798 882.208 273.914 881.814 274.147C881.419 274.38 881.222 274.775 881.222 275.331C881.222 275.739 881.377 276.091 881.687 276.389C881.998 276.68 882.49 276.826 883.163 276.826C883.654 276.826 884.088 276.716 884.463 276.496C884.838 276.269 885.13 275.988 885.337 275.651C885.544 275.315 885.647 274.979 885.647 274.642H886.094C886.094 275.289 885.961 275.888 885.696 276.437C885.437 276.981 885.058 277.421 884.56 277.757C884.062 278.087 883.46 278.252 882.755 278.252ZM890.518 278V268.635H892.362V278H890.518ZM891.857 273.827C891.857 272.63 891.98 271.637 892.226 270.847C892.478 270.052 892.827 269.46 893.274 269.071C893.727 268.683 894.257 268.489 894.865 268.489C895.047 268.489 895.215 268.502 895.37 268.528C895.532 268.554 895.69 268.589 895.846 268.635L895.778 270.469C895.603 270.424 895.412 270.385 895.205 270.352C895.005 270.314 894.82 270.294 894.652 270.294C894.121 270.294 893.688 270.437 893.352 270.721C893.015 270.999 892.766 271.404 892.604 271.934C892.442 272.458 892.362 273.089 892.362 273.827H891.857ZM907.398 278L907.165 275.855V271.963C907.165 271.2 907.006 270.647 906.689 270.304C906.372 269.955 905.871 269.78 905.185 269.78C904.797 269.78 904.451 269.838 904.147 269.955C903.849 270.065 903.613 270.233 903.438 270.459C903.27 270.686 903.186 270.97 903.186 271.313H901.148C901.148 270.627 901.316 270.071 901.652 269.644C901.989 269.217 902.458 268.906 903.06 268.712C903.668 268.512 904.376 268.411 905.185 268.411C905.942 268.411 906.609 268.538 907.184 268.79C907.76 269.036 908.207 269.424 908.524 269.955C908.847 270.485 909.009 271.171 909.009 272.012V278H907.398ZM904.273 278.252C903.49 278.252 902.84 278.116 902.322 277.845C901.805 277.567 901.416 277.204 901.158 276.758C900.905 276.311 900.779 275.836 900.779 275.331C900.779 274.716 900.934 274.212 901.245 273.817C901.562 273.416 901.999 273.118 902.555 272.924C903.111 272.73 903.752 272.633 904.477 272.633C904.975 272.633 905.46 272.678 905.932 272.769C906.405 272.86 906.871 272.979 907.33 273.128V274.244C906.955 274.108 906.537 274.002 906.078 273.924C905.625 273.84 905.201 273.798 904.807 273.798C904.218 273.798 903.726 273.914 903.331 274.147C902.937 274.38 902.739 274.775 902.739 275.331C902.739 275.739 902.895 276.091 903.205 276.389C903.516 276.68 904.008 276.826 904.68 276.826C905.172 276.826 905.606 276.716 905.981 276.496C906.356 276.269 906.647 275.988 906.854 275.651C907.061 275.315 907.165 274.979 907.165 274.642H907.611C907.611 275.289 907.479 275.888 907.213 276.437C906.955 276.981 906.576 277.421 906.078 277.757C905.58 278.087 904.978 278.252 904.273 278.252ZM916.461 278.252C915.782 278.252 915.193 278.1 914.695 277.796C914.196 277.486 913.815 277.033 913.549 276.437C913.291 275.836 913.161 275.092 913.161 274.205H913.879C913.879 274.716 913.989 275.15 914.209 275.506C914.429 275.855 914.717 276.124 915.073 276.311C915.435 276.492 915.82 276.583 916.228 276.583C916.655 276.583 917.069 276.463 917.47 276.224C917.878 275.978 918.211 275.613 918.47 275.127C918.729 274.642 918.858 274.04 918.858 273.322C918.858 272.636 918.742 272.051 918.509 271.566C918.282 271.08 917.972 270.708 917.577 270.45C917.182 270.191 916.739 270.061 916.247 270.061C915.833 270.061 915.445 270.162 915.083 270.362C914.721 270.556 914.429 270.844 914.209 271.226C913.989 271.601 913.879 272.061 913.879 272.604H913.161C913.161 271.666 913.31 270.886 913.608 270.265C913.912 269.644 914.319 269.181 914.831 268.877C915.342 268.567 915.908 268.411 916.529 268.411C917.26 268.411 917.946 268.609 918.586 269.003C919.227 269.392 919.744 269.951 920.139 270.682C920.54 271.414 920.741 272.293 920.741 273.322C920.741 274.351 920.54 275.234 920.139 275.972C919.738 276.709 919.211 277.275 918.557 277.67C917.91 278.058 917.211 278.252 916.461 278.252ZM912.035 282.581V268.664H913.559L913.879 270.906V282.581H912.035ZM927.538 278.252C926.859 278.252 926.27 278.1 925.772 277.796C925.274 277.486 924.892 277.033 924.627 276.437C924.368 275.836 924.239 275.092 924.239 274.205H924.957C924.957 274.716 925.067 275.15 925.287 275.506C925.507 275.855 925.795 276.124 926.15 276.311C926.513 276.492 926.898 276.583 927.305 276.583C927.732 276.583 928.146 276.463 928.548 276.224C928.955 275.978 929.288 275.613 929.547 275.127C929.806 274.642 929.935 274.04 929.935 273.322C929.935 272.636 929.819 272.051 929.586 271.566C929.36 271.08 929.049 270.708 928.654 270.45C928.26 270.191 927.817 270.061 927.325 270.061C926.911 270.061 926.523 270.162 926.16 270.362C925.798 270.556 925.507 270.844 925.287 271.226C925.067 271.601 924.957 272.061 924.957 272.604H924.239C924.239 271.666 924.387 270.886 924.685 270.265C924.989 269.644 925.397 269.181 925.908 268.877C926.419 268.567 926.985 268.411 927.606 268.411C928.337 268.411 929.023 268.609 929.664 269.003C930.304 269.392 930.822 269.951 931.216 270.682C931.618 271.414 931.818 272.293 931.818 273.322C931.818 274.351 931.618 275.234 931.216 275.972C930.815 276.709 930.288 277.275 929.635 277.67C928.988 278.058 928.289 278.252 927.538 278.252ZM923.113 282.581V268.664H924.636L924.957 270.906V282.581H923.113ZM937.606 278.252C936.701 278.252 935.937 278.126 935.316 277.874C934.695 277.615 934.219 277.259 933.889 276.806C933.566 276.347 933.398 275.81 933.385 275.195H935.122C935.148 275.732 935.361 276.13 935.762 276.389C936.17 276.648 936.72 276.777 937.412 276.777C937.781 276.777 938.114 276.719 938.412 276.602C938.716 276.486 938.955 276.328 939.13 276.127C939.311 275.926 939.402 275.7 939.402 275.448C939.402 275.131 939.285 274.881 939.052 274.7C938.819 274.513 938.444 274.348 937.927 274.205L936.015 273.555C935.251 273.296 934.666 272.953 934.258 272.526C933.85 272.093 933.647 271.575 933.647 270.974C933.647 270.204 933.99 269.586 934.675 269.12C935.361 268.648 936.27 268.411 937.402 268.411C938.574 268.411 939.476 268.661 940.11 269.159C940.751 269.65 941.084 270.268 941.11 271.012H939.334C939.289 270.644 939.104 270.362 938.781 270.168C938.464 269.967 938.004 269.867 937.402 269.867C936.84 269.867 936.396 269.99 936.073 270.236C935.756 270.482 935.597 270.76 935.597 271.071C935.597 271.627 936.076 272.041 937.034 272.313L939.043 273.021C939.806 273.267 940.395 273.584 940.809 273.972C941.223 274.361 941.43 274.852 941.43 275.448C941.43 275.926 941.272 276.379 940.955 276.806C940.637 277.233 940.191 277.583 939.615 277.854C939.046 278.12 938.376 278.252 937.606 278.252ZM945.445 274.613V273.778C945.445 273.215 945.507 272.756 945.63 272.4C945.759 272.038 945.963 271.727 946.241 271.469C946.519 271.203 946.898 270.948 947.377 270.702C947.804 270.475 948.137 270.268 948.376 270.081C948.622 269.887 948.797 269.683 948.9 269.469C949.004 269.256 949.056 269 949.056 268.703C949.056 268.237 948.868 267.852 948.493 267.548C948.118 267.237 947.6 267.082 946.94 267.082C946.196 267.082 945.623 267.237 945.222 267.548C944.828 267.858 944.588 268.279 944.504 268.809H942.563C942.647 267.787 943.051 266.965 943.776 266.344C944.501 265.723 945.536 265.413 946.882 265.413C947.749 265.413 948.496 265.561 949.124 265.859C949.751 266.15 950.233 266.548 950.57 267.053C950.906 267.557 951.074 268.117 951.074 268.732C951.074 269.398 950.906 269.961 950.57 270.42C950.233 270.88 949.696 271.3 948.959 271.682C948.532 271.908 948.195 272.122 947.949 272.323C947.703 272.517 947.529 272.737 947.425 272.983C947.328 273.228 947.28 273.545 947.28 273.934V274.613H945.445ZM946.406 278.252C946.018 278.252 945.701 278.129 945.455 277.884C945.209 277.638 945.086 277.34 945.086 276.991C945.086 276.628 945.206 276.321 945.445 276.069C945.691 275.816 946.008 275.69 946.396 275.69C946.785 275.69 947.108 275.816 947.367 276.069C947.632 276.315 947.765 276.619 947.765 276.981C947.765 277.33 947.635 277.631 947.377 277.884C947.118 278.129 946.794 278.252 946.406 278.252Z" fill="#666666"/>
<line x1="422" y1="192.276" x2="1078.01" y2="192.276" stroke="#383838"/>
<line x1="422" y1="322.276" x2="1078.01" y2="322.276" stroke="#383838"/>
</svg>
