<svg width="1500" height="164" viewBox="0 0 1500 164" fill="none" xmlns="http://www.w3.org/2000/svg">
<rect width="1500" height="164" fill="#E5E5E5"/>
<rect width="1500" height="164" fill="white"/>
<path d="M639.4 108V87.6149H643.107V108H639.4ZM658.645 108V99.0796C658.645 97.9488 658.373 97.0955 657.828 96.5196C657.284 95.9438 656.572 95.6559 655.692 95.6559C654.949 95.6559 654.289 95.86 653.714 96.2684C653.148 96.6767 652.703 97.2944 652.379 98.1216C652.054 98.9382 651.892 99.959 651.892 101.184H650.667C650.667 99.2052 650.913 97.5614 651.405 96.2527C651.897 94.9334 652.593 93.9493 653.494 93.3001C654.394 92.651 655.452 92.3264 656.666 92.3264C657.922 92.3264 658.969 92.6091 659.807 93.1745C660.655 93.7294 661.289 94.5146 661.707 95.5302C662.137 96.5458 662.351 97.7289 662.351 99.0796V108H658.645ZM648.185 108V92.7661H651.421L651.892 95.7815V108H648.185ZM669.137 89.9707C668.415 89.9707 667.849 89.7822 667.441 89.4053C667.043 89.0179 666.844 88.4839 666.844 87.8034C666.844 87.1438 667.043 86.6203 667.441 86.2329C667.849 85.835 668.415 85.6361 669.137 85.6361C669.849 85.6361 670.409 85.835 670.818 86.2329C671.226 86.6203 671.43 87.1438 671.43 87.8034C671.43 88.4839 671.226 89.0179 670.818 89.4053C670.409 89.7822 669.849 89.9707 669.137 89.9707ZM667.284 108V92.7033H670.99V108H667.284ZM681.642 108.44C680.742 108.44 679.915 108.272 679.161 107.937C678.418 107.602 677.821 107.089 677.371 106.398C676.931 105.707 676.711 104.828 676.711 103.76V88.7143H680.417V103.634C680.417 104.89 681.014 105.519 682.208 105.519C682.574 105.519 682.941 105.477 683.307 105.393C683.674 105.309 684.092 105.184 684.564 105.016L685.098 107.623C684.511 107.853 683.941 108.047 683.386 108.204C682.831 108.361 682.25 108.44 681.642 108.44ZM674.575 95.2161V92.7661H684.564V95.2161H674.575ZM690.265 89.9707C689.543 89.9707 688.978 89.7822 688.569 89.4053C688.171 89.0179 687.973 88.4839 687.973 87.8034C687.973 87.1438 688.171 86.6203 688.569 86.2329C688.978 85.835 689.543 85.6361 690.265 85.6361C690.977 85.6361 691.538 85.835 691.946 86.2329C692.354 86.6203 692.558 87.1438 692.558 87.8034C692.558 88.4839 692.354 89.0179 691.946 89.4053C691.538 89.7822 690.977 89.9707 690.265 89.9707ZM688.412 108V92.7033H692.119V108H688.412ZM707.325 108L706.854 104.294V98.1687C706.854 97.1007 706.634 96.3102 706.194 95.7972C705.765 95.2842 705.032 95.0277 703.996 95.0277C703.399 95.0277 702.88 95.1167 702.441 95.2947C702.001 95.4726 701.661 95.7292 701.42 96.0642C701.19 96.3888 701.074 96.7866 701.074 97.2578H697.023C697.023 96.1061 697.3 95.169 697.855 94.4466C698.41 93.7137 699.206 93.1797 700.242 92.8447C701.289 92.4992 702.54 92.3264 703.996 92.3264C705.315 92.3264 706.466 92.541 707.451 92.9703C708.435 93.3891 709.199 94.0383 709.744 94.9177C710.288 95.7972 710.56 96.9227 710.56 98.2943V108H707.325ZM702.331 108.44C701.022 108.44 699.928 108.215 699.048 107.764C698.179 107.304 697.525 106.702 697.085 105.958C696.646 105.215 696.426 104.409 696.426 103.54C696.426 102.577 696.677 101.77 697.18 101.121C697.693 100.462 698.415 99.9695 699.347 99.6449C700.279 99.3099 701.378 99.1424 702.645 99.1424C703.472 99.1424 704.252 99.2052 704.985 99.3308C705.728 99.4565 706.466 99.624 707.199 99.8334V102.001C706.624 101.812 705.995 101.666 705.315 101.561C704.634 101.456 703.996 101.404 703.399 101.404C702.519 101.404 701.797 101.566 701.231 101.891C700.666 102.215 700.383 102.765 700.383 103.54C700.383 104.105 700.614 104.592 701.074 105C701.535 105.409 702.268 105.613 703.273 105.613C704.037 105.613 704.687 105.445 705.221 105.11C705.755 104.775 706.158 104.356 706.43 103.854C706.713 103.351 706.854 102.849 706.854 102.346H707.733C707.733 103.446 707.529 104.461 707.121 105.393C706.713 106.314 706.105 107.052 705.299 107.607C704.503 108.162 703.514 108.44 702.331 108.44ZM715.208 108V86.4527H718.914V108H715.208ZM731.058 108V87.6149H738.251C740.544 87.6149 742.329 88.1803 743.606 89.311C744.894 90.4418 745.538 92.0437 745.538 94.1168C745.538 96.1689 744.894 97.7603 743.606 98.8911C742.329 100.022 740.544 100.587 738.251 100.587H734.795V108H731.058ZM734.795 97.352H738.251C739.402 97.352 740.271 97.0484 740.858 96.4411C741.444 95.8339 741.737 95.0591 741.737 94.1168C741.737 93.1535 741.444 92.3631 740.858 91.7453C740.271 91.1276 739.402 90.8187 738.251 90.8187H734.795V97.352ZM748.587 108V92.7033H752.293V108H748.587ZM751.382 101.31C751.382 99.3099 751.608 97.6556 752.058 96.3469C752.508 95.0381 753.11 94.0697 753.864 93.4415C754.628 92.8028 755.476 92.4835 756.408 92.4835C756.659 92.4835 756.895 92.4992 757.115 92.5306C757.345 92.562 757.57 92.6091 757.79 92.6719L757.727 96.3783C757.455 96.3155 757.162 96.2631 756.848 96.2212C756.534 96.1794 756.251 96.1584 756 96.1584C755.183 96.1584 754.497 96.3574 753.942 96.7552C753.398 97.1426 752.984 97.7185 752.702 98.4828C752.429 99.2471 752.293 100.189 752.293 101.31H751.382ZM766.132 108.44C764.739 108.44 763.478 108.141 762.347 107.545C761.227 106.948 760.337 106.058 759.677 104.875C759.018 103.681 758.688 102.189 758.688 100.399C758.688 98.577 759.018 97.0693 759.677 95.8757C760.337 94.6822 761.227 93.7922 762.347 93.2059C763.478 92.6196 764.739 92.3264 766.132 92.3264C767.503 92.3264 768.744 92.6196 769.854 93.2059C770.974 93.7922 771.864 94.6822 772.524 95.8757C773.183 97.0693 773.513 98.577 773.513 100.399C773.513 102.189 773.183 103.681 772.524 104.875C771.864 106.058 770.974 106.948 769.854 107.545C768.744 108.141 767.503 108.44 766.132 108.44ZM766.006 105.205C766.739 105.205 767.388 105.027 767.954 104.671C768.529 104.304 768.98 103.765 769.304 103.053C769.639 102.341 769.807 101.456 769.807 100.399C769.807 98.7864 769.488 97.5719 768.849 96.7552C768.221 95.9386 767.357 95.5302 766.258 95.5302C765.514 95.5302 764.855 95.7135 764.279 96.0799C763.703 96.4359 763.247 96.9751 762.912 97.6975C762.588 98.4199 762.425 99.3204 762.425 100.399C762.425 101.99 762.745 103.189 763.383 103.995C764.033 104.801 764.907 105.205 766.006 105.205ZM782.289 108.44C781.389 108.44 780.562 108.272 779.808 107.937C779.065 107.602 778.468 107.089 778.018 106.398C777.578 105.707 777.358 104.828 777.358 103.76V88.7143H781.064V103.634C781.064 104.89 781.661 105.519 782.855 105.519C783.221 105.519 783.588 105.477 783.954 105.393C784.321 105.309 784.739 105.184 785.211 105.016L785.744 107.623C785.158 107.853 784.588 108.047 784.033 108.204C783.478 108.361 782.897 108.44 782.289 108.44ZM775.222 95.2161V92.7661H785.211V95.2161H775.222ZM794.744 108.44C793.352 108.44 792.09 108.141 790.96 107.545C789.839 106.948 788.949 106.058 788.29 104.875C787.63 103.681 787.3 102.189 787.3 100.399C787.3 98.577 787.63 97.0693 788.29 95.8757C788.949 94.6822 789.839 93.7922 790.96 93.2059C792.09 92.6196 793.352 92.3264 794.744 92.3264C796.116 92.3264 797.357 92.6196 798.467 93.2059C799.587 93.7922 800.477 94.6822 801.136 95.8757C801.796 97.0693 802.126 98.577 802.126 100.399C802.126 102.189 801.796 103.681 801.136 104.875C800.477 106.058 799.587 106.948 798.467 107.545C797.357 108.141 796.116 108.44 794.744 108.44ZM794.619 105.205C795.352 105.205 796.001 105.027 796.566 104.671C797.142 104.304 797.592 103.765 797.917 103.053C798.252 102.341 798.419 101.456 798.419 100.399C798.419 98.7864 798.1 97.5719 797.461 96.7552C796.833 95.9386 795.969 95.5302 794.87 95.5302C794.127 95.5302 793.467 95.7135 792.891 96.0799C792.315 96.4359 791.86 96.9751 791.525 97.6975C791.2 98.4199 791.038 99.3204 791.038 100.399C791.038 101.99 791.357 103.189 791.996 103.995C792.645 104.801 793.519 105.205 794.619 105.205ZM810.902 108.44C810.002 108.44 809.174 108.272 808.421 107.937C807.677 107.602 807.08 107.089 806.63 106.398C806.19 105.707 805.971 104.828 805.971 103.76V88.7143H809.677V103.634C809.677 104.89 810.274 105.519 811.467 105.519C811.834 105.519 812.2 105.477 812.567 105.393C812.933 105.309 813.352 105.184 813.823 105.016L814.357 107.623C813.771 107.853 813.2 108.047 812.645 108.204C812.09 108.361 811.509 108.44 810.902 108.44ZM803.835 95.2161V92.7661H813.823V95.2161H803.835ZM815.033 92.7661H819.242L823.294 104.765H822.635L826.121 92.7661H829.89L824.048 110.764C823.451 112.565 822.713 113.868 821.834 114.675C820.965 115.481 819.902 115.884 818.645 115.884C817.923 115.884 817.216 115.8 816.525 115.633C815.845 115.476 815.148 115.224 814.437 114.879V111.612C815.012 111.968 815.567 112.23 816.101 112.397C816.646 112.565 817.19 112.649 817.735 112.649C818.227 112.649 818.656 112.513 819.022 112.24C819.399 111.979 819.724 111.607 819.996 111.125C820.268 110.654 820.499 110.104 820.687 109.476L821.158 108L815.033 92.7661ZM840.033 108.44C838.912 108.44 837.96 108.199 837.174 107.717C836.389 107.236 835.787 106.508 835.368 105.534C834.96 104.55 834.756 103.32 834.756 101.844H836.106C836.106 102.524 836.264 103.105 836.578 103.587C836.892 104.069 837.305 104.44 837.818 104.702C838.342 104.953 838.902 105.079 839.499 105.079C840.116 105.079 840.724 104.911 841.321 104.576C841.928 104.231 842.43 103.713 842.828 103.022C843.226 102.32 843.425 101.435 843.425 100.367C843.425 99.3937 843.257 98.5561 842.922 97.8546C842.587 97.1426 842.127 96.5982 841.54 96.2212C840.965 95.8443 840.305 95.6559 839.562 95.6559C838.933 95.6559 838.358 95.7972 837.834 96.0799C837.311 96.3626 836.892 96.7762 836.578 97.3206C836.264 97.8546 836.106 98.5037 836.106 99.268H834.756C834.756 97.6661 835.002 96.3574 835.494 95.3418C835.986 94.3157 836.646 93.5566 837.473 93.0645C838.3 92.5725 839.206 92.3264 840.19 92.3264C841.394 92.3264 842.525 92.6457 843.582 93.2844C844.65 93.9231 845.514 94.8444 846.173 96.0485C846.833 97.2421 847.163 98.6817 847.163 100.367C847.163 102.064 846.828 103.514 846.158 104.718C845.488 105.922 844.608 106.843 843.519 107.482C842.441 108.12 841.279 108.44 840.033 108.44ZM832.4 115.444V92.7661H835.447L836.106 96.5353V115.444H832.4ZM856.471 108.44C855.173 108.44 853.985 108.105 852.906 107.435C851.828 106.765 850.964 105.827 850.315 104.623C849.666 103.409 849.341 101.99 849.341 100.367C849.341 98.6922 849.66 97.2525 850.299 96.0485C850.948 94.8444 851.812 93.9231 852.89 93.2844C853.969 92.6457 855.162 92.3264 856.471 92.3264C857.686 92.3264 858.733 92.5725 859.612 93.0645C860.502 93.5462 861.214 94.2058 861.748 95.0434C862.293 95.8705 862.659 96.8076 862.847 97.8546C863.036 98.9016 863.046 99.98 862.879 101.09H852.294V99.0796H860.256L859.534 99.5507C859.565 99.0586 859.539 98.5613 859.455 98.0587C859.382 97.5562 859.235 97.0955 859.015 96.6767C858.796 96.2579 858.481 95.9229 858.073 95.6716C857.675 95.4098 857.162 95.2789 856.534 95.2789C855.78 95.2789 855.142 95.4674 854.618 95.8443C854.095 96.2212 853.697 96.7343 853.424 97.3834C853.152 98.0326 853.016 98.7655 853.016 99.5821V101.058C853.016 101.917 853.142 102.676 853.393 103.336C853.655 103.995 854.037 104.513 854.539 104.89C855.053 105.267 855.696 105.456 856.471 105.456C857.194 105.456 857.801 105.288 858.293 104.953C858.785 104.618 859.099 104.116 859.235 103.446H862.973C862.816 104.43 862.444 105.299 861.858 106.053C861.282 106.796 860.534 107.382 859.612 107.812C858.691 108.23 857.644 108.44 856.471 108.44Z" fill="#383838"/>
</svg>
