<svg width="4701" height="879" viewBox="0 0 4701 879" fill="none" xmlns="http://www.w3.org/2000/svg">
<rect width="4701" height="879" fill="#E5E5E5"/>
<rect width="4701" height="879" fill="white"/>
<path d="M70.1573 694.56V705.76H85.1973V712.864H70.1573V724.704H87.1173V732H61.1973V687.264H87.1173V694.56H70.1573ZM139.292 696.032C143.644 696.032 147.142 697.376 149.788 700.064C152.476 702.709 153.82 706.421 153.82 711.2V732H144.86V712.416C144.86 709.643 144.156 707.531 142.748 706.08C141.34 704.587 139.42 703.84 136.988 703.84C134.556 703.84 132.614 704.587 131.164 706.08C129.756 707.531 129.052 709.643 129.052 712.416V732H120.092V712.416C120.092 709.643 119.388 707.531 117.98 706.08C116.572 704.587 114.652 703.84 112.22 703.84C109.745 703.84 107.782 704.587 106.332 706.08C104.924 707.531 104.22 709.643 104.22 712.416V732H95.2598V696.544H104.22V700.832C105.372 699.339 106.844 698.165 108.636 697.312C110.47 696.459 112.476 696.032 114.652 696.032C117.425 696.032 119.9 696.629 122.076 697.824C124.252 698.976 125.937 700.64 127.132 702.816C128.284 700.768 129.948 699.125 132.124 697.888C134.342 696.651 136.732 696.032 139.292 696.032ZM171.282 701.664C172.434 700.043 174.013 698.699 176.018 697.632C178.066 696.523 180.392 695.968 182.994 695.968C186.024 695.968 188.754 696.715 191.186 698.208C193.661 699.701 195.602 701.835 197.01 704.608C198.461 707.339 199.186 710.517 199.186 714.144C199.186 717.771 198.461 720.992 197.01 723.808C195.602 726.581 193.661 728.736 191.186 730.272C188.754 731.808 186.024 732.576 182.994 732.576C180.392 732.576 178.088 732.043 176.082 730.976C174.12 729.909 172.52 728.565 171.282 726.944V748.896H162.322V696.544H171.282V701.664ZM190.034 714.144C190.034 712.011 189.586 710.176 188.69 708.64C187.837 707.061 186.685 705.867 185.234 705.056C183.826 704.245 182.29 703.84 180.626 703.84C179.005 703.84 177.469 704.267 176.018 705.12C174.61 705.931 173.458 707.125 172.562 708.704C171.709 710.283 171.282 712.139 171.282 714.272C171.282 716.405 171.709 718.261 172.562 719.84C173.458 721.419 174.61 722.635 176.018 723.488C177.469 724.299 179.005 724.704 180.626 724.704C182.29 724.704 183.826 724.277 185.234 723.424C186.685 722.571 187.837 721.355 188.69 719.776C189.586 718.197 190.034 716.32 190.034 714.144ZM203.393 714.144C203.393 710.56 204.097 707.381 205.505 704.608C206.956 701.835 208.897 699.701 211.329 698.208C213.804 696.715 216.556 695.968 219.585 695.968C222.231 695.968 224.535 696.501 226.497 697.568C228.503 698.635 230.103 699.979 231.297 701.6V696.544H240.321V732H231.297V726.816C230.145 728.48 228.545 729.867 226.497 730.976C224.492 732.043 222.167 732.576 219.521 732.576C216.535 732.576 213.804 731.808 211.329 730.272C208.897 728.736 206.956 726.581 205.505 723.808C204.097 720.992 203.393 717.771 203.393 714.144ZM231.297 714.272C231.297 712.096 230.871 710.24 230.017 708.704C229.164 707.125 228.012 705.931 226.561 705.12C225.111 704.267 223.553 703.84 221.889 703.84C220.225 703.84 218.689 704.245 217.281 705.056C215.873 705.867 214.721 707.061 213.825 708.64C212.972 710.176 212.545 712.011 212.545 714.144C212.545 716.277 212.972 718.155 213.825 719.776C214.721 721.355 215.873 722.571 217.281 723.424C218.732 724.277 220.268 724.704 221.889 724.704C223.553 724.704 225.111 724.299 226.561 723.488C228.012 722.635 229.164 721.44 230.017 719.904C230.871 718.325 231.297 716.448 231.297 714.272ZM259.504 703.904V721.056C259.504 722.251 259.782 723.125 260.336 723.68C260.934 724.192 261.915 724.448 263.28 724.448H267.44V732H261.808C254.256 732 250.48 728.331 250.48 720.992V703.904H246.256V696.544H250.48V687.776H259.504V696.544H267.44V703.904H259.504ZM293.853 696.032C296.541 696.032 298.93 696.629 301.021 697.824C303.111 698.976 304.733 700.704 305.885 703.008C307.079 705.269 307.677 708 307.677 711.2V732H298.717V712.416C298.717 709.6 298.013 707.445 296.605 705.952C295.197 704.416 293.277 703.648 290.845 703.648C288.37 703.648 286.407 704.416 284.957 705.952C283.549 707.445 282.845 709.6 282.845 712.416V732H273.885V684.64H282.845V700.96C283.997 699.424 285.533 698.229 287.453 697.376C289.373 696.48 291.506 696.032 293.853 696.032ZM320.741 692.32C319.163 692.32 317.84 691.829 316.773 690.848C315.749 689.824 315.237 688.565 315.237 687.072C315.237 685.579 315.749 684.341 316.773 683.36C317.84 682.336 319.163 681.824 320.741 681.824C322.32 681.824 323.621 682.336 324.645 683.36C325.712 684.341 326.245 685.579 326.245 687.072C326.245 688.565 325.712 689.824 324.645 690.848C323.621 691.829 322.32 692.32 320.741 692.32ZM325.157 696.544V732H316.197V696.544H325.157ZM342.202 724.64H358.01V732H332.026V724.768L347.514 703.904H332.09V696.544H357.818V703.776L342.202 724.64ZM397.907 713.504C397.907 714.784 397.822 715.936 397.651 716.96H371.731C371.945 719.52 372.841 721.525 374.419 722.976C375.998 724.427 377.939 725.152 380.243 725.152C383.571 725.152 385.939 723.723 387.347 720.864H397.011C395.987 724.277 394.025 727.093 391.123 729.312C388.222 731.488 384.659 732.576 380.435 732.576C377.022 732.576 373.95 731.829 371.219 730.336C368.531 728.8 366.419 726.645 364.883 723.872C363.39 721.099 362.643 717.899 362.643 714.272C362.643 710.603 363.39 707.381 364.883 704.608C366.377 701.835 368.467 699.701 371.155 698.208C373.843 696.715 376.937 695.968 380.435 695.968C383.806 695.968 386.814 696.693 389.459 698.144C392.147 699.595 394.217 701.664 395.667 704.352C397.161 706.997 397.907 710.048 397.907 713.504ZM388.627 710.944C388.585 708.64 387.753 706.805 386.131 705.44C384.51 704.032 382.526 703.328 380.179 703.328C377.961 703.328 376.083 704.011 374.547 705.376C373.054 706.699 372.137 708.555 371.795 710.944H388.627ZM468.849 696.544L458.481 732H448.817L442.353 707.232L435.889 732H426.161L415.729 696.544H424.817L431.089 723.552L437.873 696.544H447.345L454.001 723.488L460.273 696.544H468.849ZM478.241 692.32C476.663 692.32 475.34 691.829 474.273 690.848C473.249 689.824 472.737 688.565 472.737 687.072C472.737 685.579 473.249 684.341 474.273 683.36C475.34 682.336 476.663 681.824 478.241 681.824C479.82 681.824 481.121 682.336 482.145 683.36C483.212 684.341 483.745 685.579 483.745 687.072C483.745 688.565 483.212 689.824 482.145 690.848C481.121 691.829 479.82 692.32 478.241 692.32ZM482.657 696.544V732H473.697V696.544H482.657ZM501.942 703.904V721.056C501.942 722.251 502.219 723.125 502.774 723.68C503.371 724.192 504.352 724.448 505.718 724.448H509.878V732H504.246C496.694 732 492.918 728.331 492.918 720.992V703.904H488.694V696.544H492.918V687.776H501.942V696.544H509.878V703.904H501.942ZM536.29 696.032C538.978 696.032 541.368 696.629 543.458 697.824C545.549 698.976 547.17 700.704 548.322 703.008C549.517 705.269 550.114 708 550.114 711.2V732H541.154V712.416C541.154 709.6 540.45 707.445 539.042 705.952C537.634 704.416 535.714 703.648 533.282 703.648C530.808 703.648 528.845 704.416 527.394 705.952C525.986 707.445 525.282 709.6 525.282 712.416V732H516.322V684.64H525.282V700.96C526.434 699.424 527.97 698.229 529.89 697.376C531.81 696.48 533.944 696.032 536.29 696.032ZM582.717 687.328V714.976C582.717 718.005 583.506 720.331 585.085 721.952C586.663 723.531 588.882 724.32 591.741 724.32C594.642 724.32 596.882 723.531 598.461 721.952C600.039 720.331 600.829 718.005 600.829 714.976V687.328H609.853V714.912C609.853 718.709 609.021 721.931 607.357 724.576C605.735 727.179 603.538 729.141 600.765 730.464C598.034 731.787 594.983 732.448 591.613 732.448C588.285 732.448 585.255 731.787 582.525 730.464C579.837 729.141 577.703 727.179 576.125 724.576C574.546 721.931 573.757 718.709 573.757 714.912V687.328H582.717ZM632.078 732.576C629.176 732.576 626.574 732.064 624.27 731.04C621.966 729.973 620.131 728.544 618.766 726.752C617.443 724.96 616.718 722.976 616.59 720.8H625.614C625.784 722.165 626.446 723.296 627.598 724.192C628.792 725.088 630.264 725.536 632.014 725.536C633.72 725.536 635.043 725.195 635.982 724.512C636.963 723.829 637.454 722.955 637.454 721.888C637.454 720.736 636.856 719.883 635.662 719.328C634.51 718.731 632.654 718.091 630.094 717.408C627.448 716.768 625.272 716.107 623.566 715.424C621.902 714.741 620.451 713.696 619.214 712.288C618.019 710.88 617.422 708.981 617.422 706.592C617.422 704.629 617.976 702.837 619.086 701.216C620.238 699.595 621.859 698.315 623.95 697.376C626.083 696.437 628.579 695.968 631.438 695.968C635.662 695.968 639.032 697.035 641.55 699.168C644.067 701.259 645.454 704.096 645.71 707.68H637.134C637.006 706.272 636.408 705.163 635.342 704.352C634.318 703.499 632.931 703.072 631.182 703.072C629.56 703.072 628.302 703.371 627.406 703.968C626.552 704.565 626.126 705.397 626.126 706.464C626.126 707.659 626.723 708.576 627.918 709.216C629.112 709.813 630.968 710.432 633.486 711.072C636.046 711.712 638.158 712.373 639.822 713.056C641.486 713.739 642.915 714.805 644.11 716.256C645.347 717.664 645.987 719.541 646.03 721.888C646.03 723.936 645.454 725.771 644.302 727.392C643.192 729.013 641.571 730.293 639.438 731.232C637.347 732.128 634.894 732.576 632.078 732.576ZM686.345 713.504C686.345 714.784 686.259 715.936 686.089 716.96H660.169C660.382 719.52 661.278 721.525 662.857 722.976C664.435 724.427 666.377 725.152 668.681 725.152C672.009 725.152 674.377 723.723 675.785 720.864H685.449C684.425 724.277 682.462 727.093 679.561 729.312C676.659 731.488 673.097 732.576 668.873 732.576C665.459 732.576 662.387 731.829 659.657 730.336C656.969 728.8 654.857 726.645 653.321 723.872C651.827 721.099 651.081 717.899 651.081 714.272C651.081 710.603 651.827 707.381 653.321 704.608C654.814 701.835 656.905 699.701 659.593 698.208C662.281 696.715 665.374 695.968 668.873 695.968C672.243 695.968 675.251 696.693 677.897 698.144C680.585 699.595 682.654 701.664 684.105 704.352C685.598 706.997 686.345 710.048 686.345 713.504ZM677.065 710.944C677.022 708.64 676.19 706.805 674.569 705.44C672.947 704.032 670.963 703.328 668.617 703.328C666.398 703.328 664.521 704.011 662.985 705.376C661.491 706.699 660.574 708.555 660.233 710.944H677.065ZM701.845 702.048C702.997 700.171 704.49 698.699 706.325 697.632C708.202 696.565 710.335 696.032 712.725 696.032V705.44H710.357C707.541 705.44 705.407 706.101 703.957 707.424C702.549 708.747 701.845 711.051 701.845 714.336V732H692.885V696.544H701.845V702.048ZM732.328 732.576C729.426 732.576 726.824 732.064 724.52 731.04C722.216 729.973 720.381 728.544 719.016 726.752C717.693 724.96 716.968 722.976 716.84 720.8H725.864C726.034 722.165 726.696 723.296 727.848 724.192C729.042 725.088 730.514 725.536 732.264 725.536C733.97 725.536 735.293 725.195 736.232 724.512C737.213 723.829 737.704 722.955 737.704 721.888C737.704 720.736 737.106 719.883 735.912 719.328C734.76 718.731 732.904 718.091 730.344 717.408C727.698 716.768 725.522 716.107 723.816 715.424C722.152 714.741 720.701 713.696 719.464 712.288C718.269 710.88 717.672 708.981 717.672 706.592C717.672 704.629 718.226 702.837 719.336 701.216C720.488 699.595 722.109 698.315 724.2 697.376C726.333 696.437 728.829 695.968 731.688 695.968C735.912 695.968 739.282 697.035 741.8 699.168C744.317 701.259 745.704 704.096 745.96 707.68H737.384C737.256 706.272 736.658 705.163 735.592 704.352C734.568 703.499 733.181 703.072 731.432 703.072C729.81 703.072 728.552 703.371 727.656 703.968C726.802 704.565 726.376 705.397 726.376 706.464C726.376 707.659 726.973 708.576 728.168 709.216C729.362 709.813 731.218 710.432 733.736 711.072C736.296 711.712 738.408 712.373 740.072 713.056C741.736 713.739 743.165 714.805 744.36 716.256C745.597 717.664 746.237 719.541 746.28 721.888C746.28 723.936 745.704 725.771 744.552 727.392C743.442 729.013 741.821 730.293 739.688 731.232C737.597 732.128 735.144 732.576 732.328 732.576Z" fill="black"/>
<path d="M1484.25 687.328C1488.94 687.328 1493.06 688.245 1496.6 690.08C1500.19 691.915 1502.94 694.539 1504.86 697.952C1506.82 701.323 1507.8 705.248 1507.8 709.728C1507.8 714.208 1506.82 718.133 1504.86 721.504C1502.94 724.832 1500.19 727.413 1496.6 729.248C1493.06 731.083 1488.94 732 1484.25 732H1468.63V687.328H1484.25ZM1483.93 724.384C1488.62 724.384 1492.25 723.104 1494.81 720.544C1497.37 717.984 1498.65 714.379 1498.65 709.728C1498.65 705.077 1497.37 701.451 1494.81 698.848C1492.25 696.203 1488.62 694.88 1483.93 694.88H1477.59V724.384H1483.93ZM1547.47 713.504C1547.47 714.784 1547.38 715.936 1547.21 716.96H1521.29C1521.51 719.52 1522.4 721.525 1523.98 722.976C1525.56 724.427 1527.5 725.152 1529.81 725.152C1533.13 725.152 1535.5 723.723 1536.91 720.864H1546.57C1545.55 724.277 1543.59 727.093 1540.69 729.312C1537.78 731.488 1534.22 732.576 1530 732.576C1526.58 732.576 1523.51 731.829 1520.78 730.336C1518.09 728.8 1515.98 726.645 1514.45 723.872C1512.95 721.099 1512.21 717.899 1512.21 714.272C1512.21 710.603 1512.95 707.381 1514.45 704.608C1515.94 701.835 1518.03 699.701 1520.72 698.208C1523.41 696.715 1526.5 695.968 1530 695.968C1533.37 695.968 1536.38 696.693 1539.02 698.144C1541.71 699.595 1543.78 701.664 1545.23 704.352C1546.72 706.997 1547.47 710.048 1547.47 713.504ZM1538.19 710.944C1538.15 708.64 1537.32 706.805 1535.69 705.44C1534.07 704.032 1532.09 703.328 1529.74 703.328C1527.52 703.328 1525.65 704.011 1524.11 705.376C1522.62 706.699 1521.7 708.555 1521.36 710.944H1538.19ZM1570.27 703.904H1564.06V732H1554.97V703.904H1550.94V696.544H1554.97V694.752C1554.97 690.4 1556.21 687.2 1558.68 685.152C1561.16 683.104 1564.89 682.144 1569.88 682.272V689.824C1567.71 689.781 1566.19 690.144 1565.34 690.912C1564.48 691.68 1564.06 693.067 1564.06 695.072V696.544H1570.27V703.904ZM1580.62 692.32C1579.04 692.32 1577.71 691.829 1576.65 690.848C1575.62 689.824 1575.11 688.565 1575.11 687.072C1575.11 685.579 1575.62 684.341 1576.65 683.36C1577.71 682.336 1579.04 681.824 1580.62 681.824C1582.19 681.824 1583.5 682.336 1584.52 683.36C1585.59 684.341 1586.12 685.579 1586.12 687.072C1586.12 688.565 1585.59 689.824 1584.52 690.848C1583.5 691.829 1582.19 692.32 1580.62 692.32ZM1585.03 696.544V732H1576.07V696.544H1585.03ZM1613.53 696.032C1617.76 696.032 1621.17 697.376 1623.77 700.064C1626.38 702.709 1627.68 706.421 1627.68 711.2V732H1618.72V712.416C1618.72 709.6 1618.01 707.445 1616.6 705.952C1615.2 704.416 1613.28 703.648 1610.84 703.648C1608.37 703.648 1606.41 704.416 1604.96 705.952C1603.55 707.445 1602.84 709.6 1602.84 712.416V732H1593.88V696.544H1602.84V700.96C1604.04 699.424 1605.55 698.229 1607.39 697.376C1609.27 696.48 1611.31 696.032 1613.53 696.032ZM1669.16 713.504C1669.16 714.784 1669.07 715.936 1668.9 716.96H1642.98C1643.19 719.52 1644.09 721.525 1645.67 722.976C1647.25 724.427 1649.19 725.152 1651.49 725.152C1654.82 725.152 1657.19 723.723 1658.6 720.864H1668.26C1667.24 724.277 1665.27 727.093 1662.37 729.312C1659.47 731.488 1655.91 732.576 1651.69 732.576C1648.27 732.576 1645.2 731.829 1642.47 730.336C1639.78 728.8 1637.67 726.645 1636.13 723.872C1634.64 721.099 1633.89 717.899 1633.89 714.272C1633.89 710.603 1634.64 707.381 1636.13 704.608C1637.63 701.835 1639.72 699.701 1642.41 698.208C1645.09 696.715 1648.19 695.968 1651.69 695.968C1655.06 695.968 1658.06 696.693 1660.71 698.144C1663.4 699.595 1665.47 701.664 1666.92 704.352C1668.41 706.997 1669.16 710.048 1669.16 713.504ZM1659.88 710.944C1659.83 708.64 1659 706.805 1657.38 705.44C1655.76 704.032 1653.78 703.328 1651.43 703.328C1649.21 703.328 1647.33 704.011 1645.8 705.376C1644.3 706.699 1643.39 708.555 1643.05 710.944H1659.88ZM1723.52 701.152C1723.52 703.541 1722.95 705.781 1721.8 707.872C1720.69 709.963 1718.92 711.648 1716.48 712.928C1714.09 714.208 1711.06 714.848 1707.4 714.848H1699.91V732H1690.95V687.328H1707.4C1710.85 687.328 1713.8 687.925 1716.23 689.12C1718.66 690.315 1720.47 691.957 1721.67 694.048C1722.9 696.139 1723.52 698.507 1723.52 701.152ZM1707.01 707.616C1709.49 707.616 1711.32 707.061 1712.52 705.952C1713.71 704.8 1714.31 703.2 1714.31 701.152C1714.31 696.8 1711.88 694.624 1707.01 694.624H1699.91V707.616H1707.01ZM1738.84 702.048C1740 700.171 1741.49 698.699 1743.32 697.632C1745.2 696.565 1747.34 696.032 1749.72 696.032V705.44H1747.36C1744.54 705.44 1742.41 706.101 1740.96 707.424C1739.55 708.747 1738.84 711.051 1738.84 714.336V732H1729.88V696.544H1738.84V702.048ZM1771.5 732.576C1768.09 732.576 1765.02 731.829 1762.29 730.336C1759.56 728.8 1757.4 726.645 1755.82 723.872C1754.29 721.099 1753.52 717.899 1753.52 714.272C1753.52 710.645 1754.31 707.445 1755.89 704.672C1757.51 701.899 1759.71 699.765 1762.48 698.272C1765.25 696.736 1768.35 695.968 1771.76 695.968C1775.17 695.968 1778.27 696.736 1781.04 698.272C1783.81 699.765 1785.99 701.899 1787.57 704.672C1789.19 707.445 1790 710.645 1790 714.272C1790 717.899 1789.17 721.099 1787.5 723.872C1785.88 726.645 1783.66 728.8 1780.85 730.336C1778.07 731.829 1774.96 732.576 1771.5 732.576ZM1771.5 724.768C1773.13 724.768 1774.64 724.384 1776.05 723.616C1777.5 722.805 1778.65 721.611 1779.5 720.032C1780.36 718.453 1780.78 716.533 1780.78 714.272C1780.78 710.901 1779.89 708.32 1778.1 706.528C1776.35 704.693 1774.19 703.776 1771.63 703.776C1769.07 703.776 1766.92 704.693 1765.17 706.528C1763.46 708.32 1762.61 710.901 1762.61 714.272C1762.61 717.643 1763.44 720.245 1765.1 722.08C1766.81 723.872 1768.94 724.768 1771.5 724.768ZM1805.53 701.728C1806.68 700.021 1808.26 698.635 1810.27 697.568C1812.32 696.501 1814.64 695.968 1817.24 695.968C1820.27 695.968 1823 696.715 1825.44 698.208C1827.91 699.701 1829.85 701.835 1831.26 704.608C1832.71 707.339 1833.44 710.517 1833.44 714.144C1833.44 717.771 1832.71 720.992 1831.26 723.808C1829.85 726.581 1827.91 728.736 1825.44 730.272C1823 731.808 1820.27 732.576 1817.24 732.576C1814.6 732.576 1812.27 732.064 1810.27 731.04C1808.31 729.973 1806.73 728.608 1805.53 726.944V732H1796.57V684.64H1805.53V701.728ZM1824.28 714.144C1824.28 712.011 1823.84 710.176 1822.94 708.64C1822.09 707.061 1820.93 705.867 1819.48 705.056C1818.08 704.245 1816.54 703.84 1814.88 703.84C1813.25 703.84 1811.72 704.267 1810.27 705.12C1808.86 705.931 1807.71 707.125 1806.81 708.704C1805.96 710.283 1805.53 712.139 1805.53 714.272C1805.53 716.405 1805.96 718.261 1806.81 719.84C1807.71 721.419 1808.86 722.635 1810.27 723.488C1811.72 724.299 1813.25 724.704 1814.88 724.704C1816.54 724.704 1818.08 724.277 1819.48 723.424C1820.93 722.571 1822.09 721.355 1822.94 719.776C1823.84 718.197 1824.28 716.32 1824.28 714.144ZM1848.91 684.64V732H1839.95V684.64H1848.91ZM1890.72 713.504C1890.72 714.784 1890.63 715.936 1890.46 716.96H1864.54C1864.76 719.52 1865.65 721.525 1867.23 722.976C1868.81 724.427 1870.75 725.152 1873.06 725.152C1876.38 725.152 1878.75 723.723 1880.16 720.864H1889.82C1888.8 724.277 1886.84 727.093 1883.94 729.312C1881.03 731.488 1877.47 732.576 1873.25 732.576C1869.83 732.576 1866.76 731.829 1864.03 730.336C1861.34 728.8 1859.23 726.645 1857.7 723.872C1856.2 721.099 1855.46 717.899 1855.46 714.272C1855.46 710.603 1856.2 707.381 1857.7 704.608C1859.19 701.835 1861.28 699.701 1863.97 698.208C1866.66 696.715 1869.75 695.968 1873.25 695.968C1876.62 695.968 1879.63 696.693 1882.27 698.144C1884.96 699.595 1887.03 701.664 1888.48 704.352C1889.97 706.997 1890.72 710.048 1890.72 713.504ZM1881.44 710.944C1881.4 708.64 1880.57 706.805 1878.94 705.44C1877.32 704.032 1875.34 703.328 1872.99 703.328C1870.77 703.328 1868.9 704.011 1867.36 705.376C1865.87 706.699 1864.95 708.555 1864.61 710.944H1881.44ZM1941.29 696.032C1945.64 696.032 1949.14 697.376 1951.79 700.064C1954.48 702.709 1955.82 706.421 1955.82 711.2V732H1946.86V712.416C1946.86 709.643 1946.16 707.531 1944.75 706.08C1943.34 704.587 1941.42 703.84 1938.99 703.84C1936.56 703.84 1934.61 704.587 1933.16 706.08C1931.76 707.531 1931.05 709.643 1931.05 712.416V732H1922.09V712.416C1922.09 709.643 1921.39 707.531 1919.98 706.08C1918.57 704.587 1916.65 703.84 1914.22 703.84C1911.75 703.84 1909.78 704.587 1908.33 706.08C1906.92 707.531 1906.22 709.643 1906.22 712.416V732H1897.26V696.544H1906.22V700.832C1907.37 699.339 1908.84 698.165 1910.64 697.312C1912.47 696.459 1914.48 696.032 1916.65 696.032C1919.43 696.032 1921.9 696.629 1924.08 697.824C1926.25 698.976 1927.94 700.64 1929.13 702.816C1930.28 700.768 1931.95 699.125 1934.12 697.888C1936.34 696.651 1938.73 696.032 1941.29 696.032ZM1977.89 732.576C1974.99 732.576 1972.39 732.064 1970.08 731.04C1967.78 729.973 1965.94 728.544 1964.58 726.752C1963.26 724.96 1962.53 722.976 1962.4 720.8H1971.43C1971.6 722.165 1972.26 723.296 1973.41 724.192C1974.6 725.088 1976.08 725.536 1977.83 725.536C1979.53 725.536 1980.86 725.195 1981.79 724.512C1982.78 723.829 1983.27 722.955 1983.27 721.888C1983.27 720.736 1982.67 719.883 1981.47 719.328C1980.32 718.731 1978.47 718.091 1975.91 717.408C1973.26 716.768 1971.08 716.107 1969.38 715.424C1967.71 714.741 1966.26 713.696 1965.03 712.288C1963.83 710.88 1963.23 708.981 1963.23 706.592C1963.23 704.629 1963.79 702.837 1964.9 701.216C1966.05 699.595 1967.67 698.315 1969.76 697.376C1971.9 696.437 1974.39 695.968 1977.25 695.968C1981.47 695.968 1984.84 697.035 1987.36 699.168C1989.88 701.259 1991.27 704.096 1991.52 707.68H1982.95C1982.82 706.272 1982.22 705.163 1981.15 704.352C1980.13 703.499 1978.74 703.072 1976.99 703.072C1975.37 703.072 1974.11 703.371 1973.22 703.968C1972.36 704.565 1971.94 705.397 1971.94 706.464C1971.94 707.659 1972.54 708.576 1973.73 709.216C1974.92 709.813 1976.78 710.432 1979.3 711.072C1981.86 711.712 1983.97 712.373 1985.63 713.056C1987.3 713.739 1988.73 714.805 1989.92 716.256C1991.16 717.664 1991.8 719.541 1991.84 721.888C1991.84 723.936 1991.27 725.771 1990.11 727.392C1989 729.013 1987.38 730.293 1985.25 731.232C1983.16 732.128 1980.71 732.576 1977.89 732.576ZM1553.53 828L1548.67 823.2C1544.53 826.912 1539.48 828.768 1533.5 828.768C1530.22 828.768 1527.32 828.213 1524.8 827.104C1522.32 825.952 1520.4 824.352 1519.04 822.304C1517.67 820.213 1516.99 817.803 1516.99 815.072C1516.99 812.128 1517.82 809.483 1519.49 807.136C1521.15 804.789 1523.6 802.891 1526.85 801.44C1525.69 800.032 1524.86 798.688 1524.35 797.408C1523.84 796.085 1523.58 794.677 1523.58 793.184C1523.58 791.136 1524.12 789.301 1525.18 787.68C1526.25 786.016 1527.76 784.715 1529.73 783.776C1531.73 782.837 1534.06 782.368 1536.7 782.368C1539.39 782.368 1541.69 782.88 1543.61 783.904C1545.53 784.928 1546.96 786.293 1547.9 788C1548.84 789.707 1549.25 791.605 1549.12 793.696H1540.41C1540.46 792.288 1540.12 791.221 1539.39 790.496C1538.66 789.728 1537.68 789.344 1536.45 789.344C1535.25 789.344 1534.25 789.707 1533.44 790.432C1532.67 791.115 1532.29 792.011 1532.29 793.12C1532.29 794.187 1532.61 795.253 1533.25 796.32C1533.89 797.344 1534.93 798.624 1536.38 800.16L1547.65 811.296C1547.73 811.211 1547.8 811.125 1547.84 811.04C1547.88 810.955 1547.92 810.869 1547.97 810.784L1551.61 804.704H1560.96L1556.48 812.576C1555.62 814.24 1554.71 815.819 1553.73 817.312L1564.54 828H1553.53ZM1533.76 821.344C1537.26 821.344 1540.35 820.107 1543.04 817.632L1532.03 806.752C1527.89 808.587 1525.82 811.189 1525.82 814.56C1525.82 816.48 1526.55 818.101 1528 819.424C1529.45 820.704 1531.37 821.344 1533.76 821.344ZM1593.06 783.328V810.976C1593.06 814.005 1593.85 816.331 1595.43 817.952C1597.01 819.531 1599.23 820.32 1602.08 820.32C1604.99 820.32 1607.23 819.531 1608.8 817.952C1610.38 816.331 1611.17 814.005 1611.17 810.976V783.328H1620.2V810.912C1620.2 814.709 1619.36 817.931 1617.7 820.576C1616.08 823.179 1613.88 825.141 1611.11 826.464C1608.38 827.787 1605.33 828.448 1601.96 828.448C1598.63 828.448 1595.6 827.787 1592.87 826.464C1590.18 825.141 1588.05 823.179 1586.47 820.576C1584.89 817.931 1584.1 814.709 1584.1 810.912V783.328H1593.06ZM1642.42 828.576C1639.52 828.576 1636.92 828.064 1634.61 827.04C1632.31 825.973 1630.47 824.544 1629.11 822.752C1627.79 820.96 1627.06 818.976 1626.93 816.8H1635.96C1636.13 818.165 1636.79 819.296 1637.94 820.192C1639.14 821.088 1640.61 821.536 1642.36 821.536C1644.06 821.536 1645.39 821.195 1646.33 820.512C1647.31 819.829 1647.8 818.955 1647.8 817.888C1647.8 816.736 1647.2 815.883 1646.01 815.328C1644.85 814.731 1643 814.091 1640.44 813.408C1637.79 812.768 1635.62 812.107 1633.91 811.424C1632.25 810.741 1630.79 809.696 1629.56 808.288C1628.36 806.88 1627.77 804.981 1627.77 802.592C1627.77 800.629 1628.32 798.837 1629.43 797.216C1630.58 795.595 1632.2 794.315 1634.29 793.376C1636.43 792.437 1638.92 791.968 1641.78 791.968C1646.01 791.968 1649.38 793.035 1651.89 795.168C1654.41 797.259 1655.8 800.096 1656.05 803.68H1647.48C1647.35 802.272 1646.75 801.163 1645.69 800.352C1644.66 799.499 1643.27 799.072 1641.53 799.072C1639.9 799.072 1638.65 799.371 1637.75 799.968C1636.9 800.565 1636.47 801.397 1636.47 802.464C1636.47 803.659 1637.07 804.576 1638.26 805.216C1639.46 805.813 1641.31 806.432 1643.83 807.072C1646.39 807.712 1648.5 808.373 1650.17 809.056C1651.83 809.739 1653.26 810.805 1654.45 812.256C1655.69 813.664 1656.33 815.541 1656.37 817.888C1656.37 819.936 1655.8 821.771 1654.65 823.392C1653.54 825.013 1651.91 826.293 1649.78 827.232C1647.69 828.128 1645.24 828.576 1642.42 828.576ZM1696.69 809.504C1696.69 810.784 1696.6 811.936 1696.43 812.96H1670.51C1670.73 815.52 1671.62 817.525 1673.2 818.976C1674.78 820.427 1676.72 821.152 1679.02 821.152C1682.35 821.152 1684.72 819.723 1686.13 816.864H1695.79C1694.77 820.277 1692.81 823.093 1689.9 825.312C1687 827.488 1683.44 828.576 1679.22 828.576C1675.8 828.576 1672.73 827.829 1670 826.336C1667.31 824.8 1665.2 822.645 1663.66 819.872C1662.17 817.099 1661.42 813.899 1661.42 810.272C1661.42 806.603 1662.17 803.381 1663.66 800.608C1665.16 797.835 1667.25 795.701 1669.94 794.208C1672.62 792.715 1675.72 791.968 1679.22 791.968C1682.59 791.968 1685.6 792.693 1688.24 794.144C1690.93 795.595 1693 797.664 1694.45 800.352C1695.94 802.997 1696.69 806.048 1696.69 809.504ZM1687.41 806.944C1687.37 804.64 1686.53 802.805 1684.91 801.44C1683.29 800.032 1681.31 799.328 1678.96 799.328C1676.74 799.328 1674.86 800.011 1673.33 801.376C1671.84 802.699 1670.92 804.555 1670.58 806.944H1687.41ZM1712.19 798.048C1713.34 796.171 1714.83 794.699 1716.67 793.632C1718.55 792.565 1720.68 792.032 1723.07 792.032V801.44H1720.7C1717.88 801.44 1715.75 802.101 1714.3 803.424C1712.89 804.747 1712.19 807.051 1712.19 810.336V828H1703.23V792.544H1712.19V798.048ZM1782.56 828H1773.6L1753.31 797.344V828H1744.35V783.264H1753.31L1773.6 813.984V783.264H1782.56V828ZM1824.38 809.504C1824.38 810.784 1824.29 811.936 1824.12 812.96H1798.2C1798.41 815.52 1799.31 817.525 1800.89 818.976C1802.47 820.427 1804.41 821.152 1806.71 821.152C1810.04 821.152 1812.41 819.723 1813.82 816.864H1823.48C1822.46 820.277 1820.49 823.093 1817.59 825.312C1814.69 827.488 1811.13 828.576 1806.9 828.576C1803.49 828.576 1800.42 827.829 1797.69 826.336C1795 824.8 1792.89 822.645 1791.35 819.872C1789.86 817.099 1789.11 813.899 1789.11 810.272C1789.11 806.603 1789.86 803.381 1791.35 800.608C1792.85 797.835 1794.94 795.701 1797.62 794.208C1800.31 792.715 1803.41 791.968 1806.9 791.968C1810.27 791.968 1813.28 792.693 1815.93 794.144C1818.62 795.595 1820.69 797.664 1822.14 800.352C1823.63 802.997 1824.38 806.048 1824.38 809.504ZM1815.1 806.944C1815.05 804.64 1814.22 802.805 1812.6 801.44C1810.98 800.032 1808.99 799.328 1806.65 799.328C1804.43 799.328 1802.55 800.011 1801.02 801.376C1799.52 802.699 1798.61 804.555 1798.26 806.944H1815.1ZM1863.88 809.504C1863.88 810.784 1863.79 811.936 1863.62 812.96H1837.7C1837.91 815.52 1838.81 817.525 1840.39 818.976C1841.97 820.427 1843.91 821.152 1846.21 821.152C1849.54 821.152 1851.91 819.723 1853.32 816.864H1862.98C1861.96 820.277 1859.99 823.093 1857.09 825.312C1854.19 827.488 1850.63 828.576 1846.4 828.576C1842.99 828.576 1839.92 827.829 1837.19 826.336C1834.5 824.8 1832.39 822.645 1830.85 819.872C1829.36 817.099 1828.61 813.899 1828.61 810.272C1828.61 806.603 1829.36 803.381 1830.85 800.608C1832.35 797.835 1834.44 795.701 1837.12 794.208C1839.81 792.715 1842.91 791.968 1846.4 791.968C1849.77 791.968 1852.78 792.693 1855.43 794.144C1858.12 795.595 1860.19 797.664 1861.64 800.352C1863.13 802.997 1863.88 806.048 1863.88 809.504ZM1854.6 806.944C1854.55 804.64 1853.72 802.805 1852.1 801.44C1850.48 800.032 1848.49 799.328 1846.15 799.328C1843.93 799.328 1842.05 800.011 1840.52 801.376C1839.02 802.699 1838.11 804.555 1837.76 806.944H1854.6ZM1868.11 810.144C1868.11 806.56 1868.82 803.381 1870.22 800.608C1871.67 797.835 1873.64 795.701 1876.11 794.208C1878.59 792.715 1881.34 791.968 1884.37 791.968C1886.67 791.968 1888.87 792.48 1890.96 793.504C1893.05 794.485 1894.71 795.808 1895.95 797.472V780.64H1905.04V828H1895.95V822.752C1894.84 824.501 1893.29 825.909 1891.28 826.976C1889.27 828.043 1886.95 828.576 1884.3 828.576C1881.32 828.576 1878.59 827.808 1876.11 826.272C1873.64 824.736 1871.67 822.581 1870.22 819.808C1868.82 816.992 1868.11 813.771 1868.11 810.144ZM1896.02 810.272C1896.02 808.096 1895.59 806.24 1894.74 804.704C1893.88 803.125 1892.73 801.931 1891.28 801.12C1889.83 800.267 1888.27 799.84 1886.61 799.84C1884.94 799.84 1883.41 800.245 1882 801.056C1880.59 801.867 1879.44 803.061 1878.54 804.64C1877.69 806.176 1877.26 808.011 1877.26 810.144C1877.26 812.277 1877.69 814.155 1878.54 815.776C1879.44 817.355 1880.59 818.571 1882 819.424C1883.45 820.277 1884.99 820.704 1886.61 820.704C1888.27 820.704 1889.83 820.299 1891.28 819.488C1892.73 818.635 1893.88 817.44 1894.74 815.904C1895.59 814.325 1896.02 812.448 1896.02 810.272ZM1927.36 828.576C1924.46 828.576 1921.86 828.064 1919.55 827.04C1917.25 825.973 1915.41 824.544 1914.05 822.752C1912.72 820.96 1912 818.976 1911.87 816.8H1920.9C1921.07 818.165 1921.73 819.296 1922.88 820.192C1924.07 821.088 1925.55 821.536 1927.3 821.536C1929 821.536 1930.32 821.195 1931.26 820.512C1932.24 819.829 1932.74 818.955 1932.74 817.888C1932.74 816.736 1932.14 815.883 1930.94 815.328C1929.79 814.731 1927.94 814.091 1925.38 813.408C1922.73 812.768 1920.55 812.107 1918.85 811.424C1917.18 810.741 1915.73 809.696 1914.5 808.288C1913.3 806.88 1912.7 804.981 1912.7 802.592C1912.7 800.629 1913.26 798.837 1914.37 797.216C1915.52 795.595 1917.14 794.315 1919.23 793.376C1921.36 792.437 1923.86 791.968 1926.72 791.968C1930.94 791.968 1934.31 793.035 1936.83 795.168C1939.35 797.259 1940.74 800.096 1940.99 803.68H1932.42C1932.29 802.272 1931.69 801.163 1930.62 800.352C1929.6 799.499 1928.21 799.072 1926.46 799.072C1924.84 799.072 1923.58 799.371 1922.69 799.968C1921.83 800.565 1921.41 801.397 1921.41 802.464C1921.41 803.659 1922 804.576 1923.2 805.216C1924.39 805.813 1926.25 806.432 1928.77 807.072C1931.33 807.712 1933.44 808.373 1935.1 809.056C1936.77 809.739 1938.2 810.805 1939.39 812.256C1940.63 813.664 1941.27 815.541 1941.31 817.888C1941.31 819.936 1940.74 821.771 1939.58 823.392C1938.47 825.013 1936.85 826.293 1934.72 827.232C1932.63 828.128 1930.18 828.576 1927.36 828.576Z" fill="black"/>
<path d="M2803.28 673.328V718H2794.32V673.328H2803.28ZM2809.83 700.144C2809.83 696.56 2810.53 693.381 2811.94 690.608C2813.39 687.835 2815.36 685.701 2817.83 684.208C2820.31 682.715 2823.06 681.968 2826.09 681.968C2828.39 681.968 2830.59 682.48 2832.68 683.504C2834.77 684.485 2836.43 685.808 2837.67 687.472V670.64H2846.76V718H2837.67V712.752C2836.56 714.501 2835 715.909 2833 716.976C2830.99 718.043 2828.67 718.576 2826.02 718.576C2823.04 718.576 2820.31 717.808 2817.83 716.272C2815.36 714.736 2813.39 712.581 2811.94 709.808C2810.53 706.992 2809.83 703.771 2809.83 700.144ZM2837.73 700.272C2837.73 698.096 2837.31 696.24 2836.45 694.704C2835.6 693.125 2834.45 691.931 2833 691.12C2831.55 690.267 2829.99 689.84 2828.33 689.84C2826.66 689.84 2825.13 690.245 2823.72 691.056C2822.31 691.867 2821.16 693.061 2820.26 694.64C2819.41 696.176 2818.98 698.011 2818.98 700.144C2818.98 702.277 2819.41 704.155 2820.26 705.776C2821.16 707.355 2822.31 708.571 2823.72 709.424C2825.17 710.277 2826.71 710.704 2828.33 710.704C2829.99 710.704 2831.55 710.299 2833 709.488C2834.45 708.635 2835.6 707.44 2836.45 705.904C2837.31 704.325 2837.73 702.448 2837.73 700.272ZM2888.47 699.504C2888.47 700.784 2888.38 701.936 2888.21 702.96H2862.29C2862.51 705.52 2863.4 707.525 2864.98 708.976C2866.56 710.427 2868.5 711.152 2870.81 711.152C2874.13 711.152 2876.5 709.723 2877.91 706.864H2887.57C2886.55 710.277 2884.59 713.093 2881.69 715.312C2878.78 717.488 2875.22 718.576 2871 718.576C2867.58 718.576 2864.51 717.829 2861.78 716.336C2859.09 714.8 2856.98 712.645 2855.45 709.872C2853.95 707.099 2853.21 703.899 2853.21 700.272C2853.21 696.603 2853.95 693.381 2855.45 690.608C2856.94 687.835 2859.03 685.701 2861.72 684.208C2864.41 682.715 2867.5 681.968 2871 681.968C2874.37 681.968 2877.38 682.693 2880.02 684.144C2882.71 685.595 2884.78 687.664 2886.23 690.352C2887.72 692.997 2888.47 696.048 2888.47 699.504ZM2879.19 696.944C2879.15 694.64 2878.32 692.805 2876.69 691.44C2875.07 690.032 2873.09 689.328 2870.74 689.328C2868.52 689.328 2866.65 690.011 2865.11 691.376C2863.62 692.699 2862.7 694.555 2862.36 696.944H2879.19ZM2892.71 700.144C2892.71 696.56 2893.41 693.381 2894.82 690.608C2896.27 687.835 2898.21 685.701 2900.64 684.208C2903.12 682.715 2905.87 681.968 2908.9 681.968C2911.54 681.968 2913.85 682.501 2915.81 683.568C2917.82 684.635 2919.42 685.979 2920.61 687.6V682.544H2929.63V718H2920.61V712.816C2919.46 714.48 2917.86 715.867 2915.81 716.976C2913.8 718.043 2911.48 718.576 2908.83 718.576C2905.85 718.576 2903.12 717.808 2900.64 716.272C2898.21 714.736 2896.27 712.581 2894.82 709.808C2893.41 706.992 2892.71 703.771 2892.71 700.144ZM2920.61 700.272C2920.61 698.096 2920.18 696.24 2919.33 694.704C2918.48 693.125 2917.32 691.931 2915.87 691.12C2914.42 690.267 2912.87 689.84 2911.2 689.84C2909.54 689.84 2908 690.245 2906.59 691.056C2905.19 691.867 2904.03 693.061 2903.14 694.64C2902.28 696.176 2901.86 698.011 2901.86 700.144C2901.86 702.277 2902.28 704.155 2903.14 705.776C2904.03 707.355 2905.19 708.571 2906.59 709.424C2908.04 710.277 2909.58 710.704 2911.2 710.704C2912.87 710.704 2914.42 710.299 2915.87 709.488C2917.32 708.635 2918.48 707.44 2919.33 705.904C2920.18 704.325 2920.61 702.448 2920.61 700.272ZM2948.82 689.904V707.056C2948.82 708.251 2949.09 709.125 2949.65 709.68C2950.25 710.192 2951.23 710.448 2952.59 710.448H2956.75V718H2951.12C2943.57 718 2939.79 714.331 2939.79 706.992V689.904H2935.57V682.544H2939.79V673.776H2948.82V682.544H2956.75V689.904H2948.82ZM2996.16 699.504C2996.16 700.784 2996.07 701.936 2995.9 702.96H2969.98C2970.19 705.52 2971.09 707.525 2972.67 708.976C2974.25 710.427 2976.19 711.152 2978.49 711.152C2981.82 711.152 2984.19 709.723 2985.6 706.864H2995.26C2994.24 710.277 2992.27 713.093 2989.37 715.312C2986.47 717.488 2982.91 718.576 2978.69 718.576C2975.27 718.576 2972.2 717.829 2969.47 716.336C2966.78 714.8 2964.67 712.645 2963.13 709.872C2961.64 707.099 2960.89 703.899 2960.89 700.272C2960.89 696.603 2961.64 693.381 2963.13 690.608C2964.63 687.835 2966.72 685.701 2969.41 684.208C2972.09 682.715 2975.19 681.968 2978.69 681.968C2982.06 681.968 2985.06 682.693 2987.71 684.144C2990.4 685.595 2992.47 687.664 2993.92 690.352C2995.41 692.997 2996.16 696.048 2996.16 699.504ZM2986.88 696.944C2986.83 694.64 2986 692.805 2984.38 691.44C2982.76 690.032 2980.78 689.328 2978.43 689.328C2976.21 689.328 2974.33 690.011 2972.8 691.376C2971.3 692.699 2970.39 694.555 2970.05 696.944H2986.88ZM3033.37 718.448C3030.26 718.448 3027.44 717.915 3024.92 716.848C3022.45 715.781 3020.49 714.245 3019.04 712.24C3017.58 710.235 3016.84 707.867 3016.8 705.136H3026.4C3026.52 706.971 3027.16 708.421 3028.32 709.488C3029.51 710.555 3031.13 711.088 3033.18 711.088C3035.27 711.088 3036.91 710.597 3038.11 709.616C3039.3 708.592 3039.9 707.269 3039.9 705.648C3039.9 704.325 3039.49 703.237 3038.68 702.384C3037.87 701.531 3036.85 700.869 3035.61 700.4C3034.42 699.888 3032.75 699.333 3030.62 698.736C3027.72 697.883 3025.35 697.051 3023.52 696.24C3021.72 695.387 3020.17 694.128 3018.84 692.464C3017.56 690.757 3016.92 688.496 3016.92 685.68C3016.92 683.035 3017.58 680.731 3018.91 678.768C3020.23 676.805 3022.09 675.312 3024.48 674.288C3026.86 673.221 3029.6 672.688 3032.67 672.688C3037.28 672.688 3041.01 673.819 3043.87 676.08C3046.77 678.299 3048.37 681.413 3048.67 685.424H3038.81C3038.73 683.888 3038.06 682.629 3036.83 681.648C3035.63 680.624 3034.03 680.112 3032.03 680.112C3030.28 680.112 3028.87 680.56 3027.8 681.456C3026.78 682.352 3026.27 683.653 3026.27 685.36C3026.27 686.555 3026.65 687.557 3027.42 688.368C3028.23 689.136 3029.21 689.776 3030.36 690.288C3031.56 690.757 3033.22 691.312 3035.36 691.952C3038.26 692.805 3040.62 693.659 3042.46 694.512C3044.29 695.365 3045.87 696.645 3047.2 698.352C3048.52 700.059 3049.18 702.299 3049.18 705.072C3049.18 707.461 3048.56 709.68 3047.32 711.728C3046.09 713.776 3044.27 715.419 3041.88 716.656C3039.49 717.851 3036.66 718.448 3033.37 718.448ZM3072.69 718.576C3069.28 718.576 3066.21 717.829 3063.48 716.336C3060.74 714.8 3058.59 712.645 3057.01 709.872C3055.48 707.099 3054.71 703.899 3054.71 700.272C3054.71 696.645 3055.5 693.445 3057.08 690.672C3058.7 687.899 3060.89 685.765 3063.67 684.272C3066.44 682.736 3069.53 681.968 3072.95 681.968C3076.36 681.968 3079.45 682.736 3082.23 684.272C3085 685.765 3087.18 687.899 3088.76 690.672C3090.38 693.445 3091.19 696.645 3091.19 700.272C3091.19 703.899 3090.36 707.099 3088.69 709.872C3087.07 712.645 3084.85 714.8 3082.04 716.336C3079.26 717.829 3076.15 718.576 3072.69 718.576ZM3072.69 710.768C3074.31 710.768 3075.83 710.384 3077.24 709.616C3078.69 708.805 3079.84 707.611 3080.69 706.032C3081.54 704.453 3081.97 702.533 3081.97 700.272C3081.97 696.901 3081.08 694.32 3079.28 692.528C3077.53 690.693 3075.38 689.776 3072.82 689.776C3070.26 689.776 3068.1 690.693 3066.36 692.528C3064.65 694.32 3063.8 696.901 3063.8 700.272C3063.8 703.643 3064.63 706.245 3066.29 708.08C3068 709.872 3070.13 710.768 3072.69 710.768ZM3106.72 670.64V718H3097.76V670.64H3106.72ZM3149.04 682.544V718H3140.02V713.52C3138.87 715.056 3137.35 716.272 3135.48 717.168C3133.64 718.021 3131.64 718.448 3129.46 718.448C3126.69 718.448 3124.23 717.872 3122.1 716.72C3119.97 715.525 3118.28 713.797 3117.04 711.536C3115.85 709.232 3115.25 706.501 3115.25 703.344V682.544H3124.21V702.064C3124.21 704.88 3124.92 707.056 3126.32 708.592C3127.73 710.085 3129.65 710.832 3132.08 710.832C3134.56 710.832 3136.5 710.085 3137.91 708.592C3139.32 707.056 3140.02 704.88 3140.02 702.064V682.544H3149.04ZM3168.32 689.904V707.056C3168.32 708.251 3168.59 709.125 3169.15 709.68C3169.75 710.192 3170.73 710.448 3172.09 710.448H3176.25V718H3170.62C3163.07 718 3159.29 714.331 3159.29 706.992V689.904H3155.07V682.544H3159.29V673.776H3168.32V682.544H3176.25V689.904H3168.32ZM3187.24 678.32C3185.66 678.32 3184.34 677.829 3183.27 676.848C3182.25 675.824 3181.74 674.565 3181.74 673.072C3181.74 671.579 3182.25 670.341 3183.27 669.36C3184.34 668.336 3185.66 667.824 3187.24 667.824C3188.82 667.824 3190.12 668.336 3191.15 669.36C3192.21 670.341 3192.75 671.579 3192.75 673.072C3192.75 674.565 3192.21 675.824 3191.15 676.848C3190.12 677.829 3188.82 678.32 3187.24 678.32ZM3191.66 682.544V718H3182.7V682.544H3191.66ZM3216.25 718.576C3212.84 718.576 3209.77 717.829 3207.04 716.336C3204.31 714.8 3202.15 712.645 3200.57 709.872C3199.04 707.099 3198.27 703.899 3198.27 700.272C3198.27 696.645 3199.06 693.445 3200.64 690.672C3202.26 687.899 3204.46 685.765 3207.23 684.272C3210 682.736 3213.1 681.968 3216.51 681.968C3219.92 681.968 3223.02 682.736 3225.79 684.272C3228.56 685.765 3230.74 687.899 3232.32 690.672C3233.94 693.445 3234.75 696.645 3234.75 700.272C3234.75 703.899 3233.92 707.099 3232.25 709.872C3230.63 712.645 3228.41 714.8 3225.6 716.336C3222.82 717.829 3219.71 718.576 3216.25 718.576ZM3216.25 710.768C3217.88 710.768 3219.39 710.384 3220.8 709.616C3222.25 708.805 3223.4 707.611 3224.25 706.032C3225.11 704.453 3225.53 702.533 3225.53 700.272C3225.53 696.901 3224.64 694.32 3222.85 692.528C3221.1 690.693 3218.94 689.776 3216.38 689.776C3213.82 689.776 3211.67 690.693 3209.92 692.528C3208.21 694.32 3207.36 696.901 3207.36 700.272C3207.36 703.643 3208.19 706.245 3209.85 708.08C3211.56 709.872 3213.69 710.768 3216.25 710.768ZM3260.97 682.032C3265.19 682.032 3268.61 683.376 3271.21 686.064C3273.81 688.709 3275.11 692.421 3275.11 697.2V718H3266.15V698.416C3266.15 695.6 3265.45 693.445 3264.04 691.952C3262.63 690.416 3260.71 689.648 3258.28 689.648C3255.81 689.648 3253.84 690.416 3252.39 691.952C3250.99 693.445 3250.28 695.6 3250.28 698.416V718H3241.32V682.544H3250.28V686.96C3251.48 685.424 3252.99 684.229 3254.83 683.376C3256.7 682.48 3258.75 682.032 3260.97 682.032ZM3297.2 718.576C3294.3 718.576 3291.7 718.064 3289.39 717.04C3287.09 715.973 3285.26 714.544 3283.89 712.752C3282.57 710.96 3281.84 708.976 3281.71 706.8H3290.74C3290.91 708.165 3291.57 709.296 3292.72 710.192C3293.92 711.088 3295.39 711.536 3297.14 711.536C3298.85 711.536 3300.17 711.195 3301.11 710.512C3302.09 709.829 3302.58 708.955 3302.58 707.888C3302.58 706.736 3301.98 705.883 3300.79 705.328C3299.63 704.731 3297.78 704.091 3295.22 703.408C3292.57 702.768 3290.4 702.107 3288.69 701.424C3287.03 700.741 3285.58 699.696 3284.34 698.288C3283.14 696.88 3282.55 694.981 3282.55 692.592C3282.55 690.629 3283.1 688.837 3284.21 687.216C3285.36 685.595 3286.98 684.315 3289.07 683.376C3291.21 682.437 3293.7 681.968 3296.56 681.968C3300.79 681.968 3304.16 683.035 3306.67 685.168C3309.19 687.259 3310.58 690.096 3310.83 693.68H3302.26C3302.13 692.272 3301.53 691.163 3300.47 690.352C3299.44 689.499 3298.06 689.072 3296.31 689.072C3294.69 689.072 3293.43 689.371 3292.53 689.968C3291.68 690.565 3291.25 691.397 3291.25 692.464C3291.25 693.659 3291.85 694.576 3293.04 695.216C3294.24 695.813 3296.09 696.432 3298.61 697.072C3301.17 697.712 3303.28 698.373 3304.95 699.056C3306.61 699.739 3308.04 700.805 3309.23 702.256C3310.47 703.664 3311.11 705.541 3311.15 707.888C3311.15 709.936 3310.58 711.771 3309.43 713.392C3308.32 715.013 3306.7 716.293 3304.56 717.232C3302.47 718.128 3300.02 718.576 3297.2 718.576Z" fill="black"/>
<path d="M4328.15 687.152C4328.15 689.541 4327.57 691.781 4326.42 693.872C4325.31 695.963 4323.54 697.648 4321.11 698.928C4318.72 700.208 4315.69 700.848 4312.02 700.848H4304.53V718H4295.57V673.328H4312.02C4315.48 673.328 4318.42 673.925 4320.85 675.12C4323.28 676.315 4325.1 677.957 4326.29 680.048C4327.53 682.139 4328.15 684.507 4328.15 687.152ZM4311.64 693.616C4314.11 693.616 4315.95 693.061 4317.14 691.952C4318.33 690.8 4318.93 689.2 4318.93 687.152C4318.93 682.8 4316.5 680.624 4311.64 680.624H4304.53V693.616H4311.64ZM4343.47 688.048C4344.62 686.171 4346.12 684.699 4347.95 683.632C4349.83 682.565 4351.96 682.032 4354.35 682.032V691.44H4351.98C4349.17 691.44 4347.03 692.101 4345.58 693.424C4344.17 694.747 4343.47 697.051 4343.47 700.336V718H4334.51V682.544H4343.47V688.048ZM4376.13 718.576C4372.72 718.576 4369.64 717.829 4366.91 716.336C4364.18 714.8 4362.03 712.645 4360.45 709.872C4358.91 707.099 4358.14 703.899 4358.14 700.272C4358.14 696.645 4358.93 693.445 4360.51 690.672C4362.13 687.899 4364.33 685.765 4367.1 684.272C4369.88 682.736 4372.97 681.968 4376.38 681.968C4379.8 681.968 4382.89 682.736 4385.66 684.272C4388.44 685.765 4390.61 687.899 4392.19 690.672C4393.81 693.445 4394.62 696.645 4394.62 700.272C4394.62 703.899 4393.79 707.099 4392.13 709.872C4390.51 712.645 4388.29 714.8 4385.47 716.336C4382.7 717.829 4379.58 718.576 4376.13 718.576ZM4376.13 710.768C4377.75 710.768 4379.26 710.384 4380.67 709.616C4382.12 708.805 4383.28 707.611 4384.13 706.032C4384.98 704.453 4385.41 702.533 4385.41 700.272C4385.41 696.901 4384.51 694.32 4382.72 692.528C4380.97 690.693 4378.82 689.776 4376.26 689.776C4373.7 689.776 4371.54 690.693 4369.79 692.528C4368.09 694.32 4367.23 696.901 4367.23 700.272C4367.23 703.643 4368.06 706.245 4369.73 708.08C4371.44 709.872 4373.57 710.768 4376.13 710.768ZM4411.63 689.904V707.056C4411.63 708.251 4411.91 709.125 4412.46 709.68C4413.06 710.192 4414.04 710.448 4415.41 710.448H4419.57V718H4413.93C4406.38 718 4402.61 714.331 4402.61 706.992V689.904H4398.38V682.544H4402.61V673.776H4411.63V682.544H4419.57V689.904H4411.63ZM4441.75 718.576C4438.34 718.576 4435.27 717.829 4432.54 716.336C4429.81 714.8 4427.65 712.645 4426.07 709.872C4424.54 707.099 4423.77 703.899 4423.77 700.272C4423.77 696.645 4424.56 693.445 4426.14 690.672C4427.76 687.899 4429.96 685.765 4432.73 684.272C4435.5 682.736 4438.6 681.968 4442.01 681.968C4445.42 681.968 4448.52 682.736 4451.29 684.272C4454.06 685.765 4456.24 687.899 4457.82 690.672C4459.44 693.445 4460.25 696.645 4460.25 700.272C4460.25 703.899 4459.42 707.099 4457.75 709.872C4456.13 712.645 4453.91 714.8 4451.1 716.336C4448.32 717.829 4445.21 718.576 4441.75 718.576ZM4441.75 710.768C4443.38 710.768 4444.89 710.384 4446.3 709.616C4447.75 708.805 4448.9 707.611 4449.75 706.032C4450.61 704.453 4451.03 702.533 4451.03 700.272C4451.03 696.901 4450.14 694.32 4448.35 692.528C4446.6 690.693 4444.44 689.776 4441.88 689.776C4439.32 689.776 4437.17 690.693 4435.42 692.528C4433.71 694.32 4432.86 696.901 4432.86 700.272C4432.86 703.643 4433.69 706.245 4435.35 708.08C4437.06 709.872 4439.19 710.768 4441.75 710.768ZM4477.25 689.904V707.056C4477.25 708.251 4477.53 709.125 4478.09 709.68C4478.68 710.192 4479.66 710.448 4481.03 710.448H4485.19V718H4479.56C4472.01 718 4468.23 714.331 4468.23 706.992V689.904H4464.01V682.544H4468.23V673.776H4477.25V682.544H4485.19V689.904H4477.25ZM4525.55 682.544L4503.6 734.768H4494.07L4501.75 717.104L4487.54 682.544H4497.59L4506.74 707.312L4516.02 682.544H4525.55ZM4539.34 687.664C4540.5 686.043 4542.08 684.699 4544.08 683.632C4546.13 682.523 4548.45 681.968 4551.06 681.968C4554.09 681.968 4556.82 682.715 4559.25 684.208C4561.72 685.701 4563.66 687.835 4565.07 690.608C4566.52 693.339 4567.25 696.517 4567.25 700.144C4567.25 703.771 4566.52 706.992 4565.07 709.808C4563.66 712.581 4561.72 714.736 4559.25 716.272C4556.82 717.808 4554.09 718.576 4551.06 718.576C4548.45 718.576 4546.15 718.043 4544.14 716.976C4542.18 715.909 4540.58 714.565 4539.34 712.944V734.896H4530.38V682.544H4539.34V687.664ZM4558.1 700.144C4558.1 698.011 4557.65 696.176 4556.75 694.64C4555.9 693.061 4554.75 691.867 4553.3 691.056C4551.89 690.245 4550.35 689.84 4548.69 689.84C4547.07 689.84 4545.53 690.267 4544.08 691.12C4542.67 691.931 4541.52 693.125 4540.62 694.704C4539.77 696.283 4539.34 698.139 4539.34 700.272C4539.34 702.405 4539.77 704.261 4540.62 705.84C4541.52 707.419 4542.67 708.635 4544.08 709.488C4545.53 710.299 4547.07 710.704 4548.69 710.704C4550.35 710.704 4551.89 710.277 4553.3 709.424C4554.75 708.571 4555.9 707.355 4556.75 705.776C4557.65 704.197 4558.1 702.32 4558.1 700.144ZM4606.72 699.504C4606.72 700.784 4606.63 701.936 4606.46 702.96H4580.54C4580.76 705.52 4581.65 707.525 4583.23 708.976C4584.81 710.427 4586.75 711.152 4589.06 711.152C4592.38 711.152 4594.75 709.723 4596.16 706.864H4605.82C4604.8 710.277 4602.84 713.093 4599.94 715.312C4597.03 717.488 4593.47 718.576 4589.25 718.576C4585.83 718.576 4582.76 717.829 4580.03 716.336C4577.34 714.8 4575.23 712.645 4573.7 709.872C4572.2 707.099 4571.46 703.899 4571.46 700.272C4571.46 696.603 4572.2 693.381 4573.7 690.608C4575.19 687.835 4577.28 685.701 4579.97 684.208C4582.66 682.715 4585.75 681.968 4589.25 681.968C4592.62 681.968 4595.63 682.693 4598.27 684.144C4600.96 685.595 4603.03 687.664 4604.48 690.352C4605.97 692.997 4606.72 696.048 4606.72 699.504ZM4597.44 696.944C4597.4 694.64 4596.57 692.805 4594.94 691.44C4593.32 690.032 4591.34 689.328 4588.99 689.328C4586.77 689.328 4584.9 690.011 4583.36 691.376C4581.87 692.699 4580.95 694.555 4580.61 696.944H4597.44Z" fill="black"/>
<path d="M528.899 370.976H501.522C504.312 378.616 505.837 386.861 505.837 395.454V498.923C505.837 502.506 505.213 505.945 504.079 509.144H549.339C566.246 509.144 580 495.389 580 478.483V422.077C580.001 393.9 557.076 370.976 528.899 370.976Z" fill="black"/>
<path d="M300.164 395.455C300.164 386.861 301.688 378.616 304.479 370.976H277.102C248.924 370.976 226 393.901 226 422.078V478.484C226 495.39 239.754 509.145 256.661 509.145H301.922C300.787 505.945 300.164 502.507 300.164 498.924V395.455V395.455Z" fill="black"/>
<path d="M434.294 344.353H371.707C343.529 344.353 320.605 367.277 320.605 395.455V498.924C320.605 504.568 325.18 509.144 330.825 509.144H475.176C480.82 509.144 485.396 504.569 485.396 498.924V395.455C485.396 367.277 462.472 344.353 434.294 344.353Z" fill="black"/>
<path d="M403 208.854C369.113 208.854 341.544 236.423 341.544 270.311C341.544 293.297 354.231 313.372 372.966 323.912C381.853 328.911 392.098 331.768 403 331.768C413.902 331.768 424.148 328.911 433.034 323.912C451.771 313.372 464.457 293.297 464.457 270.311C464.457 236.424 436.888 208.854 403 208.854Z" fill="black"/>
<path d="M295.084 266.137C269.74 266.137 249.123 286.754 249.123 312.098C249.123 337.442 269.74 358.059 295.084 358.059C301.513 358.059 307.634 356.728 313.195 354.334C322.81 350.195 330.738 342.867 335.643 333.689C339.087 327.247 341.045 319.898 341.045 312.098C341.045 286.755 320.428 266.137 295.084 266.137Z" fill="black"/>
<path d="M510.917 266.137C485.573 266.137 464.955 286.754 464.955 312.098C464.955 319.898 466.914 327.247 470.357 333.689C475.263 342.868 483.191 350.195 492.805 354.334C498.366 356.728 504.488 358.059 510.917 358.059C536.26 358.059 556.878 337.442 556.878 312.098C556.878 286.754 536.26 266.137 510.917 266.137Z" fill="black"/>
<path d="M1936.93 284.174L1919.62 266.861C1911.53 258.772 1898.37 258.774 1890.28 266.861L1853.81 303.329V186.113C1853.81 168.957 1839.86 155 1822.7 155H1620.12C1602.96 155 1589 168.957 1589 186.113V477.887C1589 495.043 1602.96 509 1620.12 509H1822.7C1839.86 509 1853.81 495.043 1853.81 477.887V395.587L1936.93 313.508C1945.02 305.421 1945.02 292.261 1936.93 284.174ZM1812.89 406.845L1781.69 421.405L1796.24 390.238L1873.66 312.818L1890.78 329.934L1812.89 406.845ZM1833.07 477.887C1833.07 483.605 1828.42 488.258 1822.7 488.258H1620.12C1614.4 488.258 1609.75 483.605 1609.75 477.887V186.113C1609.75 180.395 1614.4 175.742 1620.12 175.742H1822.7C1828.42 175.742 1833.07 180.395 1833.07 186.113V324.071C1775.56 381.581 1779.32 377.45 1778.22 379.809L1750.84 438.478C1748.99 442.431 1749.82 447.114 1752.9 450.197C1755.98 453.282 1760.67 454.106 1764.62 452.262L1823.29 424.883C1825.44 423.879 1825.79 423.255 1833.07 416.069V477.887ZM1905.53 315.36L1888.33 298.151L1904.95 281.527L1922.26 298.846L1905.53 315.36Z" fill="black"/>
<path d="M1644.32 242.809H1799.19C1804.92 242.809 1809.56 238.165 1809.56 232.438C1809.56 226.71 1804.92 222.066 1799.19 222.066H1644.32C1638.59 222.066 1633.95 226.71 1633.95 232.438C1633.95 238.165 1638.59 242.809 1644.32 242.809Z" fill="black"/>
<path d="M1644.32 298.121H1766C1771.73 298.121 1776.38 293.478 1776.38 287.75C1776.38 282.022 1771.73 277.379 1766 277.379H1644.32C1638.59 277.379 1633.95 282.022 1633.95 287.75C1633.95 293.478 1638.59 298.121 1644.32 298.121Z" fill="black"/>
<path d="M1732.82 332.691H1644.32C1638.59 332.691 1633.95 337.335 1633.95 343.062C1633.95 348.79 1638.59 353.434 1644.32 353.434H1732.82C1738.54 353.434 1743.19 348.79 1743.19 343.062C1743.19 337.335 1738.54 332.691 1732.82 332.691Z" fill="black"/>
<g clip-path="url(#clip0)">
<path d="M3052 190.4C3055.26 190.4 3057.9 187.758 3057.9 184.5V160.9C3057.9 157.642 3055.26 155 3052 155C3048.74 155 3046.1 157.642 3046.1 160.9V184.5C3046.1 187.758 3048.74 190.4 3052 190.4Z" fill="black"/>
<path d="M2979.04 182.034L2990.84 202.465C2992.45 205.298 2996.05 206.288 2998.89 204.677C3001.72 203.067 3002.71 199.465 3001.1 196.632C3001.09 196.609 3001.07 196.587 3001.06 196.564L2989.26 176.133C2987.65 173.3 2984.05 172.31 2981.22 173.92C2978.38 175.531 2977.39 179.133 2979 181.966C2979.02 181.989 2979.03 182.011 2979.04 182.034Z" fill="black"/>
<path d="M2931.47 233.82C2931.49 233.833 2931.51 233.845 2931.54 233.859L2951.97 245.658C2954.78 247.306 2958.39 246.364 2960.04 243.552C2961.69 240.741 2960.75 237.126 2957.93 235.479C2957.91 235.466 2957.89 235.453 2957.87 235.44L2937.43 223.64C2934.62 221.992 2931.01 222.935 2929.36 225.746C2927.71 228.557 2928.66 232.172 2931.47 233.82Z" fill="black"/>
<path d="M2945.8 296.599C2945.8 293.34 2943.16 290.699 2939.9 290.699H2916.3C2913.04 290.699 2910.4 293.34 2910.4 296.599C2910.4 299.857 2913.04 302.498 2916.3 302.498H2939.9C2943.16 302.498 2945.8 299.857 2945.8 296.599Z" fill="black"/>
<path d="M2952.04 347.499C2952.01 347.512 2951.99 347.525 2951.97 347.539L2931.54 359.338C2928.7 360.948 2927.71 364.55 2929.32 367.383C2930.93 370.216 2934.53 371.207 2937.37 369.597C2937.39 369.584 2937.41 369.57 2937.43 369.557L2957.87 357.757C2960.7 356.147 2961.69 352.545 2960.08 349.713C2958.47 346.88 2954.87 345.889 2952.04 347.499Z" fill="black"/>
<path d="M3172.53 359.378C3172.51 359.365 3172.49 359.352 3172.47 359.338L3152.03 347.539C3149.22 345.89 3145.61 346.833 3143.96 349.643C3142.31 352.454 3143.25 356.069 3146.06 357.717C3146.09 357.731 3146.11 357.744 3146.13 357.757L3166.56 369.557C3169.38 371.205 3172.99 370.263 3174.64 367.452C3176.29 364.641 3175.34 361.027 3172.53 359.378Z" fill="black"/>
<path d="M3187.7 290.699H3164.1C3160.84 290.699 3158.2 293.34 3158.2 296.599C3158.2 299.857 3160.84 302.498 3164.1 302.498H3187.7C3190.96 302.498 3193.6 299.857 3193.6 296.599C3193.6 293.34 3190.96 290.699 3187.7 290.699Z" fill="black"/>
<path d="M3149.09 246.449C3150.13 246.449 3151.14 246.176 3152.04 245.658L3172.47 233.859C3175.3 232.248 3176.29 228.646 3174.68 225.813C3173.07 222.981 3169.47 221.99 3166.64 223.601C3166.62 223.613 3166.59 223.627 3166.57 223.64L3146.14 235.44C3143.32 237.069 3142.35 240.677 3143.98 243.499C3145.03 245.324 3146.98 246.449 3149.09 246.449Z" fill="black"/>
<path d="M3105.09 204.627C3105.09 204.628 3105.1 204.63 3105.1 204.63C3107.92 206.258 3111.53 205.29 3113.16 202.466C3113.16 202.466 3113.16 202.465 3113.16 202.465L3124.96 182.034C3126.61 179.223 3125.66 175.608 3122.85 173.959C3120.04 172.311 3116.43 173.254 3114.78 176.064C3114.77 176.087 3114.75 176.11 3114.74 176.133L3102.94 196.564C3101.31 199.385 3102.27 202.995 3105.09 204.627Z" fill="black"/>
<path d="M3063.8 390.998C3067.06 390.998 3069.7 388.356 3069.7 385.098V320.198H3081.5C3094.53 320.198 3105.1 309.632 3105.1 296.599C3105.1 283.565 3094.53 272.999 3081.5 272.999C3068.47 272.999 3057.9 283.565 3057.9 296.599V308.398H3046.1V296.599C3046.1 283.565 3035.53 272.999 3022.5 272.999C3009.47 272.999 2998.9 283.565 2998.9 296.599C2998.9 309.632 3009.47 320.198 3022.5 320.198H3034.3V385.098C3034.3 388.356 3036.94 390.998 3040.2 390.998C3043.46 390.998 3046.1 388.356 3046.1 385.098V320.198H3057.9V385.098C3057.9 388.356 3060.54 390.998 3063.8 390.998ZM3069.7 296.599C3069.7 290.081 3074.98 284.799 3081.5 284.799C3088.02 284.799 3093.3 290.081 3093.3 296.599C3093.3 303.116 3088.02 308.398 3081.5 308.398H3069.7V296.599ZM3034.3 308.398H3022.5C3015.98 308.398 3010.7 303.116 3010.7 296.599C3010.7 290.081 3015.98 284.799 3022.5 284.799C3029.02 284.799 3034.3 290.081 3034.3 296.599V308.398Z" fill="black"/>
<path d="M3056.58 202.312C3004.51 199.81 2960.27 239.997 2957.76 292.072C2956.33 321.89 2969.09 350.629 2992.16 369.569C2996.32 372.826 2998.8 377.781 2998.9 383.062V396.897C2998.93 404.371 3003.65 411.02 3010.7 413.512V420.497C3010.72 424.865 3012.36 429.072 3015.3 432.297C3009.17 438.967 3009.17 449.227 3015.3 455.897C3008.74 463.087 3009.26 474.234 3016.45 480.793C3019.71 483.773 3023.98 485.416 3028.4 485.397C3031.58 485.48 3034.22 482.972 3034.3 479.797C3034.33 478.558 3033.96 477.341 3033.25 476.328C3033.06 475.968 3032.84 475.626 3032.59 475.308C3032.1 474.864 3031.55 474.501 3030.95 474.234C3030.78 474.145 3030.61 474.075 3030.43 474.004C3029.83 473.786 3029.21 473.661 3028.57 473.632C3028.51 473.632 3028.46 473.597 3028.4 473.597C3025.14 473.597 3022.5 470.955 3022.5 467.697C3022.5 464.438 3025.14 461.797 3028.4 461.797H3052C3055.26 461.797 3057.9 459.155 3057.9 455.897C3057.9 452.639 3055.26 449.997 3052 449.997H3028.4C3025.14 449.997 3022.5 447.355 3022.5 444.097C3022.5 440.839 3025.14 438.197 3028.4 438.197H3052C3055.26 438.197 3057.9 435.555 3057.9 432.297C3057.9 429.039 3055.26 426.397 3052 426.397H3028.4C3025.14 426.397 3022.5 423.755 3022.5 420.497V414.597H3052C3055.26 414.597 3057.9 411.956 3057.9 408.697C3057.9 405.439 3055.26 402.797 3052 402.797H3016.6C3013.34 402.797 3010.7 400.156 3010.7 396.897V383.062C3010.6 374.24 3006.54 365.93 2999.64 360.436C2964.4 331.472 2959.31 279.421 2988.27 244.178C3004.84 224.017 3029.96 212.872 3056.02 214.117C3099.62 216.71 3133.86 252.435 3134.6 296.097C3134.81 321.21 3123.52 345.039 3103.95 360.778C3097.1 366.421 3093.18 374.871 3093.3 383.747V396.897C3093.3 400.156 3090.66 402.797 3087.4 402.797H3069.7C3066.44 402.797 3063.8 405.439 3063.8 408.697C3063.8 411.956 3066.44 414.597 3069.7 414.597H3081.5V420.497C3081.5 423.755 3078.86 426.397 3075.6 426.397H3069.7C3066.44 426.397 3063.8 429.039 3063.8 432.297C3063.8 435.555 3066.44 438.197 3069.7 438.197H3075.6C3078.86 438.197 3081.5 440.839 3081.5 444.097C3081.5 447.355 3078.86 449.997 3075.6 449.997H3069.7C3066.44 449.997 3063.8 452.639 3063.8 455.897C3063.8 459.155 3066.44 461.797 3069.7 461.797H3075.6C3078.86 461.797 3081.5 464.438 3081.5 467.697C3081.5 470.955 3078.86 473.597 3075.6 473.597H3046.1C3042.84 473.597 3040.2 476.238 3040.2 479.497C3040.2 482.755 3042.84 485.397 3046.1 485.397H3068.69C3065.43 494.613 3055.32 499.444 3046.1 496.186C3043.28 495.189 3040.76 493.492 3038.77 491.255C3036.61 488.821 3032.88 488.605 3030.44 490.771C3028.01 492.938 3027.79 496.668 3029.96 499.102C3040.75 511.261 3059.35 512.371 3071.51 501.582C3076.53 497.125 3079.88 491.086 3081 484.464C3090.24 481.576 3095.39 471.745 3092.5 462.505C3091.73 460.05 3090.43 457.794 3088.7 455.897C3094.83 449.227 3094.83 438.967 3088.7 432.297C3091.64 429.072 3093.28 424.865 3093.3 420.497V413.512C3100.35 411.02 3105.07 404.371 3105.1 396.897V383.747C3105.02 378.446 3107.32 373.388 3111.36 369.958C3133.74 351.967 3146.65 324.721 3146.4 296.009C3145.55 246.104 3106.41 205.274 3056.58 202.312Z" fill="black"/>
</g>
<path d="M4293.85 315.345H4329.06C4331.92 315.345 4334.25 313.024 4334.25 310.16C4334.25 307.295 4331.92 304.974 4329.06 304.974H4293.85C4290.98 304.974 4288.66 307.295 4288.66 310.16C4288.66 313.024 4290.98 315.345 4293.85 315.345Z" fill="black"/>
<path d="M4592.79 301.924C4595.66 301.924 4597.98 299.603 4597.98 296.738V180.928C4597.98 166.631 4586.35 155 4572.05 155H4525.42C4522.56 155 4520.24 157.321 4520.24 160.186C4520.24 163.05 4522.56 165.371 4525.42 165.371H4572.05C4580.63 165.371 4587.61 172.35 4587.61 180.928V194.539H4474.26V180.928C4474.26 172.35 4481.24 165.371 4489.82 165.371H4501.23C4504.09 165.371 4506.41 163.05 4506.41 160.186C4506.41 157.321 4504.09 155 4501.23 155H4489.82C4475.52 155 4463.89 166.631 4463.89 180.928V259.402H4455.25C4433.33 259.402 4415.49 277.236 4415.49 299.158V362.768C4415.49 378.971 4402.31 392.152 4386.11 392.152H4379.49V312.295C4379.49 297.998 4367.86 286.367 4353.57 286.367H4269.95C4255.65 286.367 4244.02 297.998 4244.02 312.295V483.072C4244.02 497.369 4255.65 509 4269.95 509H4273.75C4276.62 509 4278.94 506.679 4278.94 503.814C4278.94 500.95 4276.62 498.629 4273.75 498.629H4269.95C4261.37 498.629 4254.39 491.65 4254.39 483.072V474.542H4369.12V483.072C4369.12 491.65 4362.14 498.629 4353.57 498.629H4297.95C4295.09 498.629 4292.77 500.95 4292.77 503.814C4292.77 506.679 4295.09 509 4297.95 509H4353.57C4367.86 509 4379.49 497.369 4379.49 483.072V402.523H4386.11C4408.03 402.523 4425.86 384.689 4425.86 362.768V299.158C4425.86 282.955 4439.04 269.773 4455.25 269.773H4463.89V353.088C4463.89 367.385 4475.52 379.016 4489.82 379.016H4572.05C4586.35 379.016 4597.98 367.385 4597.98 353.088V320.938C4597.98 318.073 4595.66 315.752 4592.79 315.752C4589.93 315.752 4587.61 318.073 4587.61 320.938V333.962H4474.26V269.773H4518.09L4508.62 279.243C4506.6 281.269 4506.6 284.552 4508.62 286.577C4509.63 287.589 4510.96 288.095 4512.29 288.095C4513.61 288.095 4514.94 287.589 4515.95 286.577L4534.28 268.254C4536.28 266.321 4536.28 262.853 4534.28 260.921L4515.95 242.598C4513.93 240.574 4510.65 240.574 4508.62 242.598C4506.6 244.624 4506.6 247.907 4508.62 249.932L4518.09 259.402H4474.26V204.91H4587.61V296.738C4587.61 299.603 4589.93 301.924 4592.79 301.924V301.924ZM4269.95 296.738H4353.57C4362.14 296.738 4369.12 303.717 4369.12 312.295V325.649H4254.39V312.295C4254.39 303.717 4261.37 296.738 4269.95 296.738ZM4369.12 464.171H4254.39V336.02H4369.12V392.152H4341.91C4340.48 384.644 4333.87 378.949 4325.95 378.949H4324.23C4321.36 378.949 4319.04 381.27 4319.04 384.134C4319.04 386.999 4321.36 389.32 4324.23 389.32H4325.95C4329.19 389.32 4331.83 391.956 4331.83 395.197V399.478C4331.83 402.719 4329.19 405.355 4325.95 405.355H4296.91C4293.67 405.355 4291.04 402.719 4291.04 399.478V395.197C4291.04 391.956 4293.67 389.32 4296.91 389.32H4300.25C4303.11 389.32 4305.43 386.999 4305.43 384.134C4305.43 381.27 4303.11 378.949 4300.25 378.949H4296.91C4287.96 378.949 4280.67 386.237 4280.67 395.197V399.478C4280.67 408.438 4287.96 415.727 4296.91 415.727H4325.95C4333.87 415.727 4340.48 410.031 4341.91 402.523H4369.12V464.171ZM4587.61 344.333V353.088C4587.61 361.665 4580.63 368.645 4572.05 368.645H4489.82C4481.24 368.645 4474.26 361.665 4474.26 353.088V344.333H4587.61Z" fill="black"/>
<path d="M4513.22 184.1H4548.05C4550.91 184.1 4553.23 181.779 4553.23 178.914C4553.23 176.05 4550.91 173.729 4548.05 173.729H4513.22C4510.36 173.729 4508.04 176.05 4508.04 178.914C4508.04 181.779 4510.36 184.1 4513.22 184.1Z" fill="black"/>
<circle cx="710" cy="359" r="48.5" fill="white" stroke="black" stroke-width="15"/>
<line x1="761" y1="359.5" x2="1482" y2="359.5" stroke="black" stroke-width="15"/>
<circle cx="2047" cy="359" r="48.5" fill="white" stroke="black" stroke-width="15"/>
<line x1="2098" y1="359.5" x2="2819" y2="359.5" stroke="black" stroke-width="15"/>
<circle cx="3333" cy="359" r="48.5" fill="white" stroke="black" stroke-width="15"/>
<line x1="3384" y1="359.5" x2="4105" y2="359.5" stroke="black" stroke-width="15"/>
<defs>
<clipPath id="clip0">
<rect width="354" height="354" fill="white" transform="translate(2875 155)"/>
</clipPath>
</defs>
</svg>
