<svg width="4701" height="879" viewBox="0 0 4701 879" fill="none" xmlns="http://www.w3.org/2000/svg">
<rect width="4701" height="879" fill="#E5E5E5"/>
<rect width="4701" height="879" fill="white"/>
<path d="M74.2583 664V619.2H103.506V625.792H82.4503V638.08H101.586V644.48H82.4503V657.408H103.506V664H74.2583ZM111.066 664V632.256H118.298L119.002 636.544C120.026 635.008 121.37 633.792 123.034 632.896C124.741 631.957 126.704 631.488 128.922 631.488C133.829 631.488 137.306 633.387 139.354 637.184C140.506 635.435 142.042 634.048 143.962 633.024C145.925 632 148.058 631.488 150.362 631.488C154.501 631.488 157.68 632.725 159.898 635.2C162.117 637.675 163.226 641.301 163.226 646.08V664H155.034V646.848C155.034 644.117 154.501 642.027 153.434 640.576C152.41 639.125 150.81 638.4 148.634 638.4C146.416 638.4 144.624 639.211 143.258 640.832C141.936 642.453 141.274 644.715 141.274 647.616V664H133.082V646.848C133.082 644.117 132.549 642.027 131.482 640.576C130.416 639.125 128.773 638.4 126.554 638.4C124.378 638.4 122.608 639.211 121.242 640.832C119.92 642.453 119.258 644.715 119.258 647.616V664H111.066ZM171.004 678.08V632.256H178.3L179.196 636.8C180.22 635.392 181.564 634.155 183.228 633.088C184.934 632.021 187.132 631.488 189.82 631.488C192.806 631.488 195.473 632.213 197.82 633.664C200.166 635.115 202.022 637.099 203.388 639.616C204.753 642.133 205.436 644.992 205.436 648.192C205.436 651.392 204.753 654.251 203.388 656.768C202.022 659.243 200.166 661.205 197.82 662.656C195.473 664.064 192.806 664.768 189.82 664.768C187.43 664.768 185.34 664.32 183.548 663.424C181.756 662.528 180.305 661.269 179.196 659.648V678.08H171.004ZM188.092 657.6C190.694 657.6 192.849 656.725 194.556 654.976C196.262 653.227 197.116 650.965 197.116 648.192C197.116 645.419 196.262 643.136 194.556 641.344C192.849 639.552 190.694 638.656 188.092 638.656C185.446 638.656 183.27 639.552 181.564 641.344C179.9 643.093 179.068 645.355 179.068 648.128C179.068 650.901 179.9 653.184 181.564 654.976C183.27 656.725 185.446 657.6 188.092 657.6ZM223.698 664.768C220.967 664.768 218.727 664.341 216.978 663.488C215.228 662.592 213.927 661.419 213.074 659.968C212.22 658.517 211.794 656.917 211.794 655.168C211.794 652.224 212.946 649.835 215.25 648C217.554 646.165 221.01 645.248 225.618 645.248H233.682V644.48C233.682 642.304 233.063 640.704 231.826 639.68C230.588 638.656 229.052 638.144 227.218 638.144C225.554 638.144 224.103 638.549 222.866 639.36C221.628 640.128 220.86 641.28 220.562 642.816H212.562C212.775 640.512 213.543 638.507 214.866 636.8C216.231 635.093 217.98 633.792 220.114 632.896C222.247 631.957 224.636 631.488 227.282 631.488C231.804 631.488 235.367 632.619 237.97 634.88C240.572 637.141 241.874 640.341 241.874 644.48V664H234.898L234.13 658.88C233.191 660.587 231.868 661.995 230.162 663.104C228.498 664.213 226.343 664.768 223.698 664.768ZM225.554 658.368C227.9 658.368 229.714 657.6 230.994 656.064C232.316 654.528 233.148 652.629 233.49 650.368H226.514C224.338 650.368 222.78 650.773 221.842 651.584C220.903 652.352 220.434 653.312 220.434 654.464C220.434 655.701 220.903 656.661 221.842 657.344C222.78 658.027 224.018 658.368 225.554 658.368ZM263.398 664C260.07 664 257.403 663.189 255.398 661.568C253.392 659.947 252.39 657.067 252.39 652.928V639.104H246.95V632.256H252.39L253.35 623.744H260.582V632.256H269.158V639.104H260.582V652.992C260.582 654.528 260.902 655.595 261.542 656.192C262.224 656.747 263.376 657.024 264.998 657.024H268.966V664H263.398ZM276.191 664V617.92H284.383V637.12C285.45 635.371 286.879 634.005 288.671 633.024C290.506 632 292.597 631.488 294.943 631.488C298.869 631.488 301.898 632.725 304.031 635.2C306.207 637.675 307.295 641.301 307.295 646.08V664H299.167V646.848C299.167 644.117 298.613 642.027 297.503 640.576C296.437 639.125 294.73 638.4 292.383 638.4C290.079 638.4 288.159 639.211 286.623 640.832C285.13 642.453 284.383 644.715 284.383 647.616V664H276.191ZM319.545 627.328C318.051 627.328 316.814 626.88 315.833 625.984C314.894 625.088 314.425 623.957 314.425 622.592C314.425 621.227 314.894 620.117 315.833 619.264C316.814 618.368 318.051 617.92 319.545 617.92C321.038 617.92 322.254 618.368 323.193 619.264C324.174 620.117 324.665 621.227 324.665 622.592C324.665 623.957 324.174 625.088 323.193 625.984C322.254 626.88 321.038 627.328 319.545 627.328ZM315.449 664V632.256H323.641V664H315.449ZM330.143 664V657.408L346.335 639.04H330.335V632.256H355.679V638.848L339.231 657.216H355.999V664H330.143ZM378.24 664.768C375.04 664.768 372.203 664.085 369.728 662.72C367.254 661.355 365.312 659.435 363.904 656.96C362.496 654.485 361.792 651.627 361.792 648.384C361.792 645.099 362.475 642.176 363.84 639.616C365.248 637.056 367.168 635.072 369.6 633.664C372.075 632.213 374.976 631.488 378.304 631.488C381.419 631.488 384.171 632.171 386.56 633.536C388.95 634.901 390.806 636.779 392.128 639.168C393.494 641.515 394.176 644.139 394.176 647.04C394.176 647.509 394.155 648 394.112 648.512C394.112 649.024 394.091 649.557 394.048 650.112H369.92C370.091 652.587 370.944 654.528 372.48 655.936C374.059 657.344 375.958 658.048 378.176 658.048C379.84 658.048 381.227 657.685 382.336 656.96C383.488 656.192 384.342 655.211 384.896 654.016H393.216C392.619 656.021 391.616 657.856 390.208 659.52C388.843 661.141 387.136 662.421 385.088 663.36C383.083 664.299 380.8 664.768 378.24 664.768ZM378.304 638.144C376.299 638.144 374.528 638.72 372.992 639.872C371.456 640.981 370.475 642.688 370.048 644.992H385.856C385.728 642.901 384.96 641.237 383.552 640C382.144 638.763 380.395 638.144 378.304 638.144ZM422.524 664L413.244 632.256H421.372L426.876 655.104L433.276 632.256H442.364L448.764 655.104L454.332 632.256H462.46L453.116 664H444.604L437.82 640.256L431.036 664H422.524ZM472.045 627.328C470.551 627.328 469.314 626.88 468.333 625.984C467.394 625.088 466.925 623.957 466.925 622.592C466.925 621.227 467.394 620.117 468.333 619.264C469.314 618.368 470.551 617.92 472.045 617.92C473.538 617.92 474.754 618.368 475.693 619.264C476.674 620.117 477.165 621.227 477.165 622.592C477.165 623.957 476.674 625.088 475.693 625.984C474.754 626.88 473.538 627.328 472.045 627.328ZM467.949 664V632.256H476.141V664H467.949ZM498.835 664C495.507 664 492.841 663.189 490.835 661.568C488.83 659.947 487.827 657.067 487.827 652.928V639.104H482.387V632.256H487.827L488.787 623.744H496.019V632.256H504.595V639.104H496.019V652.992C496.019 654.528 496.339 655.595 496.979 656.192C497.662 656.747 498.814 657.024 500.435 657.024H504.403V664H498.835ZM511.629 664V617.92H519.821V637.12C520.887 635.371 522.317 634.005 524.109 633.024C525.943 632 528.034 631.488 530.381 631.488C534.306 631.488 537.335 632.725 539.469 635.2C541.645 637.675 542.733 641.301 542.733 646.08V664H534.605V646.848C534.605 644.117 534.05 642.027 532.941 640.576C531.874 639.125 530.167 638.4 527.821 638.4C525.517 638.4 523.597 639.211 522.061 640.832C520.567 642.453 519.821 644.715 519.821 647.616V664H511.629ZM583.288 664.768C580.003 664.768 577.038 664.128 574.392 662.848C571.747 661.525 569.635 659.541 568.056 656.896C566.52 654.251 565.752 650.901 565.752 646.848V619.2H573.944V646.912C573.944 650.411 574.776 653.013 576.44 654.72C578.147 656.427 580.494 657.28 583.48 657.28C586.424 657.28 588.75 656.427 590.456 654.72C592.163 653.013 593.016 650.411 593.016 646.912V619.2H601.208V646.848C601.208 650.901 600.398 654.251 598.776 656.896C597.155 659.541 594.979 661.525 592.248 662.848C589.56 664.128 586.574 664.768 583.288 664.768ZM622.499 664.768C619.683 664.768 617.208 664.32 615.075 663.424C612.941 662.485 611.235 661.205 609.955 659.584C608.675 657.963 607.907 656.085 607.651 653.952H615.907C616.163 655.189 616.845 656.256 617.955 657.152C619.107 658.005 620.579 658.432 622.371 658.432C624.163 658.432 625.464 658.069 626.275 657.344C627.128 656.619 627.555 655.787 627.555 654.848C627.555 653.483 626.957 652.565 625.763 652.096C624.568 651.584 622.904 651.093 620.771 650.624C619.405 650.325 618.019 649.963 616.611 649.536C615.203 649.109 613.901 648.576 612.707 647.936C611.555 647.253 610.616 646.4 609.891 645.376C609.165 644.309 608.803 643.008 608.803 641.472C608.803 638.656 609.912 636.288 612.131 634.368C614.392 632.448 617.549 631.488 621.603 631.488C625.357 631.488 628.344 632.363 630.563 634.112C632.824 635.861 634.168 638.272 634.595 641.344H626.851C626.381 638.997 624.611 637.824 621.539 637.824C620.003 637.824 618.808 638.123 617.955 638.72C617.144 639.317 616.739 640.064 616.739 640.96C616.739 641.899 617.357 642.645 618.595 643.2C619.832 643.755 621.475 644.267 623.523 644.736C625.741 645.248 627.768 645.824 629.603 646.464C631.48 647.061 632.973 647.979 634.083 649.216C635.192 650.411 635.747 652.139 635.747 654.4C635.789 656.363 635.277 658.133 634.211 659.712C633.144 661.291 631.608 662.528 629.603 663.424C627.597 664.32 625.229 664.768 622.499 664.768ZM658.428 664.768C655.228 664.768 652.39 664.085 649.916 662.72C647.441 661.355 645.5 659.435 644.092 656.96C642.684 654.485 641.98 651.627 641.98 648.384C641.98 645.099 642.662 642.176 644.028 639.616C645.436 637.056 647.356 635.072 649.788 633.664C652.262 632.213 655.164 631.488 658.492 631.488C661.606 631.488 664.358 632.171 666.748 633.536C669.137 634.901 670.993 636.779 672.316 639.168C673.681 641.515 674.364 644.139 674.364 647.04C674.364 647.509 674.342 648 674.3 648.512C674.3 649.024 674.278 649.557 674.236 650.112H650.108C650.278 652.587 651.132 654.528 652.668 655.936C654.246 657.344 656.145 658.048 658.364 658.048C660.028 658.048 661.414 657.685 662.524 656.96C663.676 656.192 664.529 655.211 665.084 654.016H673.404C672.806 656.021 671.804 657.856 670.396 659.52C669.03 661.141 667.324 662.421 665.276 663.36C663.27 664.299 660.988 664.768 658.428 664.768ZM658.492 638.144C656.486 638.144 654.716 638.72 653.18 639.872C651.644 640.981 650.662 642.688 650.236 644.992H666.044C665.916 642.901 665.148 641.237 663.74 640C662.332 638.763 660.582 638.144 658.492 638.144ZM681.254 664V632.256H688.55L689.318 638.208C690.47 636.16 692.027 634.539 693.99 633.344C695.995 632.107 698.342 631.488 701.03 631.488V640.128H698.726C696.934 640.128 695.334 640.405 693.926 640.96C692.518 641.515 691.408 642.475 690.598 643.84C689.83 645.205 689.446 647.104 689.446 649.536V664H681.254ZM719.749 664.768C716.933 664.768 714.458 664.32 712.325 663.424C710.191 662.485 708.485 661.205 707.205 659.584C705.925 657.963 705.157 656.085 704.901 653.952H713.157C713.413 655.189 714.095 656.256 715.205 657.152C716.357 658.005 717.829 658.432 719.621 658.432C721.413 658.432 722.714 658.069 723.525 657.344C724.378 656.619 724.805 655.787 724.805 654.848C724.805 653.483 724.207 652.565 723.013 652.096C721.818 651.584 720.154 651.093 718.021 650.624C716.655 650.325 715.269 649.963 713.861 649.536C712.453 649.109 711.151 648.576 709.957 647.936C708.805 647.253 707.866 646.4 707.141 645.376C706.415 644.309 706.053 643.008 706.053 641.472C706.053 638.656 707.162 636.288 709.381 634.368C711.642 632.448 714.799 631.488 718.853 631.488C722.607 631.488 725.594 632.363 727.813 634.112C730.074 635.861 731.418 638.272 731.845 641.344H724.101C723.631 638.997 721.861 637.824 718.789 637.824C717.253 637.824 716.058 638.123 715.205 638.72C714.394 639.317 713.989 640.064 713.989 640.96C713.989 641.899 714.607 642.645 715.845 643.2C717.082 643.755 718.725 644.267 720.773 644.736C722.991 645.248 725.018 645.824 726.853 646.464C728.73 647.061 730.223 647.979 731.333 649.216C732.442 650.411 732.997 652.139 732.997 654.4C733.039 656.363 732.527 658.133 731.461 659.712C730.394 661.291 728.858 662.528 726.853 663.424C724.847 664.32 722.479 664.768 719.749 664.768Z" fill="#444444"/>
<path d="M1480.04 656V611.2H1495.34C1500.58 611.2 1504.89 612.139 1508.26 614.016C1511.68 615.851 1514.19 618.453 1515.82 621.824C1517.48 625.152 1518.31 629.077 1518.31 633.6C1518.31 638.123 1517.48 642.069 1515.82 645.44C1514.19 648.768 1511.68 651.371 1508.26 653.248C1504.89 655.083 1500.58 656 1495.34 656H1480.04ZM1488.23 648.96H1494.95C1498.71 648.96 1501.67 648.363 1503.85 647.168C1506.02 645.931 1507.58 644.181 1508.52 641.92C1509.46 639.616 1509.93 636.843 1509.93 633.6C1509.93 630.4 1509.46 627.648 1508.52 625.344C1507.58 623.04 1506.02 621.269 1503.85 620.032C1501.67 618.795 1498.71 618.176 1494.95 618.176H1488.23V648.96ZM1540.77 656.768C1537.57 656.768 1534.73 656.085 1532.26 654.72C1529.78 653.355 1527.84 651.435 1526.44 648.96C1525.03 646.485 1524.32 643.627 1524.32 640.384C1524.32 637.099 1525.01 634.176 1526.37 631.616C1527.78 629.056 1529.7 627.072 1532.13 625.664C1534.61 624.213 1537.51 623.488 1540.84 623.488C1543.95 623.488 1546.7 624.171 1549.09 625.536C1551.48 626.901 1553.34 628.779 1554.66 631.168C1556.02 633.515 1556.71 636.139 1556.71 639.04C1556.71 639.509 1556.69 640 1556.64 640.512C1556.64 641.024 1556.62 641.557 1556.58 642.112H1532.45C1532.62 644.587 1533.48 646.528 1535.01 647.936C1536.59 649.344 1538.49 650.048 1540.71 650.048C1542.37 650.048 1543.76 649.685 1544.87 648.96C1546.02 648.192 1546.87 647.211 1547.43 646.016H1555.75C1555.15 648.021 1554.15 649.856 1552.74 651.52C1551.37 653.141 1549.67 654.421 1547.62 655.36C1545.61 656.299 1543.33 656.768 1540.77 656.768ZM1540.84 630.144C1538.83 630.144 1537.06 630.72 1535.52 631.872C1533.99 632.981 1533.01 634.688 1532.58 636.992H1548.39C1548.26 634.901 1547.49 633.237 1546.08 632C1544.68 630.763 1542.93 630.144 1540.84 630.144ZM1565.07 656V631.104H1560.72V624.256H1565.07V620.544C1565.07 616.704 1566.03 613.973 1567.95 612.352C1569.91 610.731 1572.56 609.92 1575.89 609.92H1579.41V616.896H1577.17C1575.76 616.896 1574.75 617.173 1574.16 617.728C1573.56 618.283 1573.26 619.221 1573.26 620.544V624.256H1593.74V656H1585.55V631.104H1573.26V656H1565.07ZM1589.71 619.712C1588.22 619.712 1586.98 619.264 1586 618.368C1585.06 617.472 1584.59 616.341 1584.59 614.976C1584.59 613.611 1585.06 612.501 1586 611.648C1586.98 610.752 1588.22 610.304 1589.71 610.304C1591.2 610.304 1592.42 610.752 1593.36 611.648C1594.34 612.501 1594.83 613.611 1594.83 614.976C1594.83 616.341 1594.34 617.472 1593.36 618.368C1592.42 619.264 1591.2 619.712 1589.71 619.712ZM1602.41 656V624.256H1609.64L1610.28 629.632C1611.26 627.755 1612.67 626.261 1614.51 625.152C1616.38 624.043 1618.58 623.488 1621.1 623.488C1625.02 623.488 1628.07 624.725 1630.25 627.2C1632.43 629.675 1633.51 633.301 1633.51 638.08V656H1625.32V638.848C1625.32 636.117 1624.77 634.027 1623.66 632.576C1622.55 631.125 1620.82 630.4 1618.47 630.4C1616.17 630.4 1614.27 631.211 1612.78 632.832C1611.33 634.453 1610.6 636.715 1610.6 639.616V656H1602.41ZM1656.77 656.768C1653.57 656.768 1650.73 656.085 1648.26 654.72C1645.78 653.355 1643.84 651.435 1642.44 648.96C1641.03 646.485 1640.32 643.627 1640.32 640.384C1640.32 637.099 1641.01 634.176 1642.37 631.616C1643.78 629.056 1645.7 627.072 1648.13 625.664C1650.61 624.213 1653.51 623.488 1656.84 623.488C1659.95 623.488 1662.7 624.171 1665.09 625.536C1667.48 626.901 1669.34 628.779 1670.66 631.168C1672.02 633.515 1672.71 636.139 1672.71 639.04C1672.71 639.509 1672.69 640 1672.64 640.512C1672.64 641.024 1672.62 641.557 1672.58 642.112H1648.45C1648.62 644.587 1649.48 646.528 1651.01 647.936C1652.59 649.344 1654.49 650.048 1656.71 650.048C1658.37 650.048 1659.76 649.685 1660.87 648.96C1662.02 648.192 1662.87 647.211 1663.43 646.016H1671.75C1671.15 648.021 1670.15 649.856 1668.74 651.52C1667.37 653.141 1665.67 654.421 1663.62 655.36C1661.61 656.299 1659.33 656.768 1656.77 656.768ZM1656.84 630.144C1654.83 630.144 1653.06 630.72 1651.52 631.872C1649.99 632.981 1649.01 634.688 1648.58 636.992H1664.39C1664.26 634.901 1663.49 633.237 1662.08 632C1660.68 630.763 1658.93 630.144 1656.84 630.144ZM1695.04 656V611.2H1711.62C1715.2 611.2 1718.16 611.797 1720.51 612.992C1722.86 614.187 1724.61 615.829 1725.76 617.92C1726.91 620.011 1727.49 622.357 1727.49 624.96C1727.49 627.435 1726.93 629.717 1725.82 631.808C1724.71 633.856 1722.99 635.52 1720.64 636.8C1718.29 638.037 1715.28 638.656 1711.62 638.656H1703.23V656H1695.04ZM1703.23 632H1711.1C1713.96 632 1716.01 631.381 1717.25 630.144C1718.53 628.864 1719.17 627.136 1719.17 624.96C1719.17 622.741 1718.53 621.013 1717.25 619.776C1716.01 618.496 1713.96 617.856 1711.1 617.856H1703.23V632ZM1733.72 656V624.256H1741.02L1741.79 630.208C1742.94 628.16 1744.5 626.539 1746.46 625.344C1748.46 624.107 1750.81 623.488 1753.5 623.488V632.128H1751.19C1749.4 632.128 1747.8 632.405 1746.39 632.96C1744.99 633.515 1743.88 634.475 1743.07 635.84C1742.3 637.205 1741.91 639.104 1741.91 641.536V656H1733.72ZM1773.77 656.768C1770.7 656.768 1767.92 656.064 1765.45 654.656C1763.02 653.248 1761.07 651.307 1759.62 648.832C1758.22 646.315 1757.51 643.413 1757.51 640.128C1757.51 636.843 1758.24 633.963 1759.69 631.488C1761.14 628.971 1763.08 627.008 1765.51 625.6C1767.99 624.192 1770.76 623.488 1773.83 623.488C1776.86 623.488 1779.59 624.192 1782.02 625.6C1784.5 627.008 1786.44 628.971 1787.85 631.488C1789.3 633.963 1790.02 636.843 1790.02 640.128C1790.02 643.413 1789.3 646.315 1787.85 648.832C1786.44 651.307 1784.5 653.248 1782.02 654.656C1779.55 656.064 1776.8 656.768 1773.77 656.768ZM1773.77 649.664C1775.9 649.664 1777.76 648.875 1779.34 647.296C1780.91 645.675 1781.7 643.285 1781.7 640.128C1781.7 636.971 1780.91 634.603 1779.34 633.024C1777.76 631.403 1775.92 630.592 1773.83 630.592C1771.66 630.592 1769.78 631.403 1768.2 633.024C1766.66 634.603 1765.9 636.971 1765.9 640.128C1765.9 643.285 1766.66 645.675 1768.2 647.296C1769.78 648.875 1771.63 649.664 1773.77 649.664ZM1816.16 656.768C1813.77 656.768 1811.68 656.32 1809.89 655.424C1808.1 654.528 1806.65 653.269 1805.54 651.648L1804.64 656H1797.35V609.92H1805.54V628.8C1806.56 627.392 1807.91 626.155 1809.57 625.088C1811.28 624.021 1813.48 623.488 1816.16 623.488C1819.15 623.488 1821.82 624.213 1824.16 625.664C1826.51 627.115 1828.37 629.099 1829.73 631.616C1831.1 634.133 1831.78 636.992 1831.78 640.192C1831.78 643.392 1831.1 646.251 1829.73 648.768C1828.37 651.243 1826.51 653.205 1824.16 654.656C1821.82 656.064 1819.15 656.768 1816.16 656.768ZM1814.44 649.6C1817.04 649.6 1819.19 648.725 1820.9 646.976C1822.61 645.227 1823.46 642.965 1823.46 640.192C1823.46 637.419 1822.61 635.136 1820.9 633.344C1819.19 631.552 1817.04 630.656 1814.44 630.656C1811.79 630.656 1809.61 631.552 1807.91 633.344C1806.24 635.093 1805.41 637.355 1805.41 640.128C1805.41 642.901 1806.24 645.184 1807.91 646.976C1809.61 648.725 1811.79 649.6 1814.44 649.6ZM1839.1 656V609.92H1847.29V656H1839.1ZM1871.08 656.768C1867.88 656.768 1865.05 656.085 1862.57 654.72C1860.1 653.355 1858.16 651.435 1856.75 648.96C1855.34 646.485 1854.64 643.627 1854.64 640.384C1854.64 637.099 1855.32 634.176 1856.68 631.616C1858.09 629.056 1860.01 627.072 1862.44 625.664C1864.92 624.213 1867.82 623.488 1871.15 623.488C1874.26 623.488 1877.01 624.171 1879.4 625.536C1881.79 626.901 1883.65 628.779 1884.97 631.168C1886.34 633.515 1887.02 636.139 1887.02 639.04C1887.02 639.509 1887 640 1886.96 640.512C1886.96 641.024 1886.93 641.557 1886.89 642.112H1862.76C1862.93 644.587 1863.79 646.528 1865.32 647.936C1866.9 649.344 1868.8 650.048 1871.02 650.048C1872.68 650.048 1874.07 649.685 1875.18 648.96C1876.33 648.192 1877.19 647.211 1877.74 646.016H1886.06C1885.46 648.021 1884.46 649.856 1883.05 651.52C1881.69 653.141 1879.98 654.421 1877.93 655.36C1875.93 656.299 1873.64 656.768 1871.08 656.768ZM1871.15 630.144C1869.14 630.144 1867.37 630.72 1865.84 631.872C1864.3 632.981 1863.32 634.688 1862.89 636.992H1878.7C1878.57 634.901 1877.8 633.237 1876.4 632C1874.99 630.763 1873.24 630.144 1871.15 630.144ZM1893.91 656V624.256H1901.14L1901.85 628.544C1902.87 627.008 1904.21 625.792 1905.88 624.896C1907.58 623.957 1909.55 623.488 1911.77 623.488C1916.67 623.488 1920.15 625.387 1922.2 629.184C1923.35 627.435 1924.89 626.048 1926.81 625.024C1928.77 624 1930.9 623.488 1933.21 623.488C1937.34 623.488 1940.52 624.725 1942.74 627.2C1944.96 629.675 1946.07 633.301 1946.07 638.08V656H1937.88V638.848C1937.88 636.117 1937.34 634.027 1936.28 632.576C1935.25 631.125 1933.65 630.4 1931.48 630.4C1929.26 630.4 1927.47 631.211 1926.1 632.832C1924.78 634.453 1924.12 636.715 1924.12 639.616V656H1915.93V638.848C1915.93 636.117 1915.39 634.027 1914.33 632.576C1913.26 631.125 1911.62 630.4 1909.4 630.4C1907.22 630.4 1905.45 631.211 1904.09 632.832C1902.76 634.453 1902.1 636.715 1902.1 639.616V656H1893.91ZM1966.97 656.768C1964.15 656.768 1961.68 656.32 1959.54 655.424C1957.41 654.485 1955.7 653.205 1954.42 651.584C1953.14 649.963 1952.38 648.085 1952.12 645.952H1960.38C1960.63 647.189 1961.31 648.256 1962.42 649.152C1963.58 650.005 1965.05 650.432 1966.84 650.432C1968.63 650.432 1969.93 650.069 1970.74 649.344C1971.6 648.619 1972.02 647.787 1972.02 646.848C1972.02 645.483 1971.43 644.565 1970.23 644.096C1969.04 643.584 1967.37 643.093 1965.24 642.624C1963.87 642.325 1962.49 641.963 1961.08 641.536C1959.67 641.109 1958.37 640.576 1957.18 639.936C1956.02 639.253 1955.08 638.4 1954.36 637.376C1953.63 636.309 1953.27 635.008 1953.27 633.472C1953.27 630.656 1954.38 628.288 1956.6 626.368C1958.86 624.448 1962.02 623.488 1966.07 623.488C1969.83 623.488 1972.81 624.363 1975.03 626.112C1977.29 627.861 1978.64 630.272 1979.06 633.344H1971.32C1970.85 630.997 1969.08 629.824 1966.01 629.824C1964.47 629.824 1963.28 630.123 1962.42 630.72C1961.61 631.317 1961.21 632.064 1961.21 632.96C1961.21 633.899 1961.83 634.645 1963.06 635.2C1964.3 635.755 1965.94 636.267 1967.99 636.736C1970.21 637.248 1972.24 637.824 1974.07 638.464C1975.95 639.061 1977.44 639.979 1978.55 641.216C1979.66 642.411 1980.22 644.139 1980.22 646.4C1980.26 648.363 1979.75 650.133 1978.68 651.712C1977.61 653.291 1976.08 654.528 1974.07 655.424C1972.07 656.32 1969.7 656.768 1966.97 656.768ZM1538.81 739.704C1535.53 739.704 1532.67 739.149 1530.24 738.04C1527.81 736.888 1525.91 735.288 1524.54 733.24C1523.22 731.192 1522.56 728.803 1522.56 726.072C1522.56 723.171 1523.37 720.547 1524.99 718.2C1526.61 715.853 1529.02 713.976 1532.22 712.568C1530.94 711.075 1530.02 709.667 1529.47 708.344C1528.91 707.021 1528.64 705.613 1528.64 704.12C1528.64 702.072 1529.15 700.259 1530.17 698.68C1531.2 697.059 1532.65 695.779 1534.53 694.84C1536.45 693.901 1538.73 693.432 1541.37 693.432C1544.06 693.432 1546.34 693.923 1548.22 694.904C1550.1 695.885 1551.51 697.208 1552.44 698.872C1553.43 700.536 1553.87 702.392 1553.79 704.44H1545.98C1545.98 702.861 1545.51 701.688 1544.57 700.92C1543.68 700.109 1542.59 699.704 1541.31 699.704C1539.86 699.704 1538.69 700.109 1537.79 700.92C1536.94 701.731 1536.51 702.776 1536.51 704.056C1536.51 705.123 1536.85 706.211 1537.53 707.32C1538.22 708.429 1539.22 709.709 1540.54 711.16L1553.09 723.576C1553.98 722.125 1554.92 720.44 1555.9 718.52L1557.31 715.704H1565.69L1563.45 720.056C1561.75 723.512 1560.04 726.435 1558.33 728.824L1568.64 739H1558.85L1553.85 734.008C1551.68 736.013 1549.35 737.464 1546.88 738.36C1544.45 739.256 1541.76 739.704 1538.81 739.704ZM1530.49 725.56C1530.49 727.651 1531.26 729.421 1532.8 730.872C1534.38 732.28 1536.47 732.984 1539.07 732.984C1542.78 732.984 1546 731.661 1548.73 729.016L1536.89 717.304C1534.72 718.243 1533.1 719.416 1532.03 720.824C1531.01 722.232 1530.49 723.811 1530.49 725.56ZM1606.44 739.768C1603.16 739.768 1600.19 739.128 1597.55 737.848C1594.9 736.525 1592.79 734.541 1591.21 731.896C1589.68 729.251 1588.91 725.901 1588.91 721.848V694.2H1597.1V721.912C1597.1 725.411 1597.93 728.013 1599.6 729.72C1601.3 731.427 1603.65 732.28 1606.64 732.28C1609.58 732.28 1611.91 731.427 1613.61 729.72C1615.32 728.013 1616.17 725.411 1616.17 721.912V694.2H1624.36V721.848C1624.36 725.901 1623.55 729.251 1621.93 731.896C1620.31 734.541 1618.14 736.525 1615.4 737.848C1612.72 739.128 1609.73 739.768 1606.44 739.768ZM1645.66 739.768C1642.84 739.768 1640.36 739.32 1638.23 738.424C1636.1 737.485 1634.39 736.205 1633.11 734.584C1631.83 732.963 1631.06 731.085 1630.81 728.952H1639.06C1639.32 730.189 1640 731.256 1641.11 732.152C1642.26 733.005 1643.74 733.432 1645.53 733.432C1647.32 733.432 1648.62 733.069 1649.43 732.344C1650.28 731.619 1650.71 730.787 1650.71 729.848C1650.71 728.483 1650.11 727.565 1648.92 727.096C1647.72 726.584 1646.06 726.093 1643.93 725.624C1642.56 725.325 1641.18 724.963 1639.77 724.536C1638.36 724.109 1637.06 723.576 1635.86 722.936C1634.71 722.253 1633.77 721.4 1633.05 720.376C1632.32 719.309 1631.96 718.008 1631.96 716.472C1631.96 713.656 1633.07 711.288 1635.29 709.368C1637.55 707.448 1640.71 706.488 1644.76 706.488C1648.51 706.488 1651.5 707.363 1653.72 709.112C1655.98 710.861 1657.32 713.272 1657.75 716.344H1650.01C1649.54 713.997 1647.77 712.824 1644.7 712.824C1643.16 712.824 1641.96 713.123 1641.11 713.72C1640.3 714.317 1639.9 715.064 1639.9 715.96C1639.9 716.899 1640.51 717.645 1641.75 718.2C1642.99 718.755 1644.63 719.267 1646.68 719.736C1648.9 720.248 1650.92 720.824 1652.76 721.464C1654.64 722.061 1656.13 722.979 1657.24 724.216C1658.35 725.411 1658.9 727.139 1658.9 729.4C1658.95 731.363 1658.43 733.133 1657.37 734.712C1656.3 736.291 1654.76 737.528 1652.76 738.424C1650.75 739.32 1648.39 739.768 1645.66 739.768ZM1681.58 739.768C1678.38 739.768 1675.55 739.085 1673.07 737.72C1670.6 736.355 1668.66 734.435 1667.25 731.96C1665.84 729.485 1665.14 726.627 1665.14 723.384C1665.14 720.099 1665.82 717.176 1667.18 714.616C1668.59 712.056 1670.51 710.072 1672.94 708.664C1675.42 707.213 1678.32 706.488 1681.65 706.488C1684.76 706.488 1687.51 707.171 1689.9 708.536C1692.29 709.901 1694.15 711.779 1695.47 714.168C1696.84 716.515 1697.52 719.139 1697.52 722.04C1697.52 722.509 1697.5 723 1697.46 723.512C1697.46 724.024 1697.43 724.557 1697.39 725.112H1673.26C1673.43 727.587 1674.29 729.528 1675.82 730.936C1677.4 732.344 1679.3 733.048 1681.52 733.048C1683.18 733.048 1684.57 732.685 1685.68 731.96C1686.83 731.192 1687.69 730.211 1688.24 729.016H1696.56C1695.96 731.021 1694.96 732.856 1693.55 734.52C1692.19 736.141 1690.48 737.421 1688.43 738.36C1686.43 739.299 1684.14 739.768 1681.58 739.768ZM1681.65 713.144C1679.64 713.144 1677.87 713.72 1676.34 714.872C1674.8 715.981 1673.82 717.688 1673.39 719.992H1689.2C1689.07 717.901 1688.3 716.237 1686.9 715C1685.49 713.763 1683.74 713.144 1681.65 713.144ZM1704.41 739V707.256H1711.71L1712.47 713.208C1713.63 711.16 1715.18 709.539 1717.15 708.344C1719.15 707.107 1721.5 706.488 1724.19 706.488V715.128H1721.88C1720.09 715.128 1718.49 715.405 1717.08 715.96C1715.67 716.515 1714.56 717.475 1713.75 718.84C1712.99 720.205 1712.6 722.104 1712.6 724.536V739H1704.41ZM1745.23 739V694.2H1753.42L1774.48 725.752V694.2H1782.67V739H1774.48L1753.42 707.512V739H1745.23ZM1806.58 739.768C1803.38 739.768 1800.55 739.085 1798.07 737.72C1795.6 736.355 1793.66 734.435 1792.25 731.96C1790.84 729.485 1790.14 726.627 1790.14 723.384C1790.14 720.099 1790.82 717.176 1792.18 714.616C1793.59 712.056 1795.51 710.072 1797.94 708.664C1800.42 707.213 1803.32 706.488 1806.65 706.488C1809.76 706.488 1812.51 707.171 1814.9 708.536C1817.29 709.901 1819.15 711.779 1820.47 714.168C1821.84 716.515 1822.52 719.139 1822.52 722.04C1822.52 722.509 1822.5 723 1822.46 723.512C1822.46 724.024 1822.43 724.557 1822.39 725.112H1798.26C1798.43 727.587 1799.29 729.528 1800.82 730.936C1802.4 732.344 1804.3 733.048 1806.52 733.048C1808.18 733.048 1809.57 732.685 1810.68 731.96C1811.83 731.192 1812.69 730.211 1813.24 729.016H1821.56C1820.96 731.021 1819.96 732.856 1818.55 734.52C1817.19 736.141 1815.48 737.421 1813.43 738.36C1811.43 739.299 1809.14 739.768 1806.58 739.768ZM1806.65 713.144C1804.64 713.144 1802.87 713.72 1801.34 714.872C1799.8 715.981 1798.82 717.688 1798.39 719.992H1814.2C1814.07 717.901 1813.3 716.237 1811.9 715C1810.49 713.763 1808.74 713.144 1806.65 713.144ZM1844.83 739.768C1841.63 739.768 1838.8 739.085 1836.32 737.72C1833.85 736.355 1831.91 734.435 1830.5 731.96C1829.09 729.485 1828.39 726.627 1828.39 723.384C1828.39 720.099 1829.07 717.176 1830.43 714.616C1831.84 712.056 1833.76 710.072 1836.19 708.664C1838.67 707.213 1841.57 706.488 1844.9 706.488C1848.01 706.488 1850.76 707.171 1853.15 708.536C1855.54 709.901 1857.4 711.779 1858.72 714.168C1860.09 716.515 1860.77 719.139 1860.77 722.04C1860.77 722.509 1860.75 723 1860.71 723.512C1860.71 724.024 1860.68 724.557 1860.64 725.112H1836.51C1836.68 727.587 1837.54 729.528 1839.07 730.936C1840.65 732.344 1842.55 733.048 1844.77 733.048C1846.43 733.048 1847.82 732.685 1848.93 731.96C1850.08 731.192 1850.94 730.211 1851.49 729.016H1859.81C1859.21 731.021 1858.21 732.856 1856.8 734.52C1855.44 736.141 1853.73 737.421 1851.68 738.36C1849.68 739.299 1847.39 739.768 1844.83 739.768ZM1844.9 713.144C1842.89 713.144 1841.12 713.72 1839.59 714.872C1838.05 715.981 1837.07 717.688 1836.64 719.992H1852.45C1852.32 717.901 1851.55 716.237 1850.15 715C1848.74 713.763 1846.99 713.144 1844.9 713.144ZM1882.25 739.768C1879.27 739.768 1876.6 739.043 1874.25 737.592C1871.91 736.141 1870.05 734.157 1868.68 731.64C1867.32 729.123 1866.64 726.264 1866.64 723.064C1866.64 719.864 1867.32 717.027 1868.68 714.552C1870.05 712.035 1871.91 710.072 1874.25 708.664C1876.6 707.213 1879.27 706.488 1882.25 706.488C1884.64 706.488 1886.73 706.936 1888.52 707.832C1890.32 708.728 1891.77 709.987 1892.88 711.608V692.92H1901.07V739H1893.77L1892.88 734.456C1891.85 735.864 1890.49 737.101 1888.78 738.168C1887.12 739.235 1884.94 739.768 1882.25 739.768ZM1883.98 732.6C1886.63 732.6 1888.78 731.725 1890.44 729.976C1892.15 728.184 1893 725.901 1893 723.128C1893 720.355 1892.15 718.093 1890.44 716.344C1888.78 714.552 1886.63 713.656 1883.98 713.656C1881.38 713.656 1879.22 714.531 1877.52 716.28C1875.81 718.029 1874.96 720.291 1874.96 723.064C1874.96 725.837 1875.81 728.12 1877.52 729.912C1879.22 731.704 1881.38 732.6 1883.98 732.6ZM1922.53 739.768C1919.71 739.768 1917.24 739.32 1915.11 738.424C1912.97 737.485 1911.27 736.205 1909.99 734.584C1908.71 732.963 1907.94 731.085 1907.68 728.952H1915.94C1916.19 730.189 1916.88 731.256 1917.99 732.152C1919.14 733.005 1920.61 733.432 1922.4 733.432C1924.19 733.432 1925.5 733.069 1926.31 732.344C1927.16 731.619 1927.59 730.787 1927.59 729.848C1927.59 728.483 1926.99 727.565 1925.79 727.096C1924.6 726.584 1922.94 726.093 1920.8 725.624C1919.44 725.325 1918.05 724.963 1916.64 724.536C1915.23 724.109 1913.93 723.576 1912.74 722.936C1911.59 722.253 1910.65 721.4 1909.92 720.376C1909.2 719.309 1908.83 718.008 1908.83 716.472C1908.83 713.656 1909.94 711.288 1912.16 709.368C1914.42 707.448 1917.58 706.488 1921.63 706.488C1925.39 706.488 1928.38 707.363 1930.59 709.112C1932.86 710.861 1934.2 713.272 1934.63 716.344H1926.88C1926.41 713.997 1924.64 712.824 1921.57 712.824C1920.03 712.824 1918.84 713.123 1917.99 713.72C1917.18 714.317 1916.77 715.064 1916.77 715.96C1916.77 716.899 1917.39 717.645 1918.63 718.2C1919.86 718.755 1921.51 719.267 1923.55 719.736C1925.77 720.248 1927.8 720.824 1929.63 721.464C1931.51 722.061 1933 722.979 1934.11 724.216C1935.22 725.411 1935.78 727.139 1935.78 729.4C1935.82 731.363 1935.31 733.133 1934.24 734.712C1933.18 736.291 1931.64 737.528 1929.63 738.424C1927.63 739.32 1925.26 739.768 1922.53 739.768Z" fill="#444444"/>
<path d="M2805.91 650V605.2H2814.11V650H2805.91ZM2837.19 650.768C2834.2 650.768 2831.54 650.043 2829.19 648.592C2826.84 647.141 2824.99 645.157 2823.62 642.64C2822.26 640.123 2821.57 637.264 2821.57 634.064C2821.57 630.864 2822.26 628.027 2823.62 625.552C2824.99 623.035 2826.84 621.072 2829.19 619.664C2831.54 618.213 2834.2 617.488 2837.19 617.488C2839.58 617.488 2841.67 617.936 2843.46 618.832C2845.25 619.728 2846.7 620.987 2847.81 622.608V603.92H2856.01V650H2848.71L2847.81 645.456C2846.79 646.864 2845.42 648.101 2843.72 649.168C2842.05 650.235 2839.88 650.768 2837.19 650.768ZM2838.92 643.6C2841.56 643.6 2843.72 642.725 2845.38 640.976C2847.09 639.184 2847.94 636.901 2847.94 634.128C2847.94 631.355 2847.09 629.093 2845.38 627.344C2843.72 625.552 2841.56 624.656 2838.92 624.656C2836.31 624.656 2834.16 625.531 2832.45 627.28C2830.75 629.029 2829.89 631.291 2829.89 634.064C2829.89 636.837 2830.75 639.12 2832.45 640.912C2834.16 642.704 2836.31 643.6 2838.92 643.6ZM2879.77 650.768C2876.57 650.768 2873.73 650.085 2871.26 648.72C2868.78 647.355 2866.84 645.435 2865.44 642.96C2864.03 640.485 2863.32 637.627 2863.32 634.384C2863.32 631.099 2864.01 628.176 2865.37 625.616C2866.78 623.056 2868.7 621.072 2871.13 619.664C2873.61 618.213 2876.51 617.488 2879.84 617.488C2882.95 617.488 2885.7 618.171 2888.09 619.536C2890.48 620.901 2892.34 622.779 2893.66 625.168C2895.02 627.515 2895.71 630.139 2895.71 633.04C2895.71 633.509 2895.69 634 2895.64 634.512C2895.64 635.024 2895.62 635.557 2895.58 636.112H2871.45C2871.62 638.587 2872.48 640.528 2874.01 641.936C2875.59 643.344 2877.49 644.048 2879.71 644.048C2881.37 644.048 2882.76 643.685 2883.87 642.96C2885.02 642.192 2885.87 641.211 2886.43 640.016H2894.75C2894.15 642.021 2893.15 643.856 2891.74 645.52C2890.37 647.141 2888.67 648.421 2886.62 649.36C2884.61 650.299 2882.33 650.768 2879.77 650.768ZM2879.84 624.144C2877.83 624.144 2876.06 624.72 2874.52 625.872C2872.99 626.981 2872.01 628.688 2871.58 630.992H2887.39C2887.26 628.901 2886.49 627.237 2885.08 626C2883.68 624.763 2881.93 624.144 2879.84 624.144ZM2913.54 650.768C2910.81 650.768 2908.57 650.341 2906.82 649.488C2905.07 648.592 2903.77 647.419 2902.92 645.968C2902.06 644.517 2901.64 642.917 2901.64 641.168C2901.64 638.224 2902.79 635.835 2905.09 634C2907.4 632.165 2910.85 631.248 2915.46 631.248H2923.53V630.48C2923.53 628.304 2922.91 626.704 2921.67 625.68C2920.43 624.656 2918.9 624.144 2917.06 624.144C2915.4 624.144 2913.95 624.549 2912.71 625.36C2911.47 626.128 2910.7 627.28 2910.41 628.816H2902.41C2902.62 626.512 2903.39 624.507 2904.71 622.8C2906.07 621.093 2907.82 619.792 2909.96 618.896C2912.09 617.957 2914.48 617.488 2917.13 617.488C2921.65 617.488 2925.21 618.619 2927.81 620.88C2930.42 623.141 2931.72 626.341 2931.72 630.48V650H2924.74L2923.97 644.88C2923.03 646.587 2921.71 647.995 2920.01 649.104C2918.34 650.213 2916.19 650.768 2913.54 650.768ZM2915.4 644.368C2917.74 644.368 2919.56 643.6 2920.84 642.064C2922.16 640.528 2922.99 638.629 2923.33 636.368H2916.36C2914.18 636.368 2912.62 636.773 2911.69 637.584C2910.75 638.352 2910.28 639.312 2910.28 640.464C2910.28 641.701 2910.75 642.661 2911.69 643.344C2912.62 644.027 2913.86 644.368 2915.4 644.368ZM2953.24 650C2949.91 650 2947.25 649.189 2945.24 647.568C2943.24 645.947 2942.23 643.067 2942.23 638.928V625.104H2936.79V618.256H2942.23L2943.19 609.744H2950.43V618.256H2959V625.104H2950.43V638.992C2950.43 640.528 2950.75 641.595 2951.39 642.192C2952.07 642.747 2953.22 643.024 2954.84 643.024H2958.81V650H2953.24ZM2980.65 650.768C2977.45 650.768 2974.61 650.085 2972.13 648.72C2969.66 647.355 2967.72 645.435 2966.31 642.96C2964.9 640.485 2964.2 637.627 2964.2 634.384C2964.2 631.099 2964.88 628.176 2966.25 625.616C2967.65 623.056 2969.57 621.072 2972.01 619.664C2974.48 618.213 2977.38 617.488 2980.71 617.488C2983.83 617.488 2986.58 618.171 2988.97 619.536C2991.36 620.901 2993.21 622.779 2994.53 625.168C2995.9 627.515 2996.58 630.139 2996.58 633.04C2996.58 633.509 2996.56 634 2996.52 634.512C2996.52 635.024 2996.5 635.557 2996.45 636.112H2972.33C2972.5 638.587 2973.35 640.528 2974.89 641.936C2976.47 643.344 2978.36 644.048 2980.58 644.048C2982.25 644.048 2983.63 643.685 2984.74 642.96C2985.89 642.192 2986.75 641.211 2987.3 640.016H2995.62C2995.03 642.021 2994.02 643.856 2992.61 645.52C2991.25 647.141 2989.54 648.421 2987.49 649.36C2985.49 650.299 2983.21 650.768 2980.65 650.768ZM2980.71 624.144C2978.71 624.144 2976.93 624.72 2975.4 625.872C2973.86 626.981 2972.88 628.688 2972.45 630.992H2988.26C2988.13 628.901 2987.37 627.237 2985.96 626C2984.55 624.763 2982.8 624.144 2980.71 624.144ZM3034.21 650.768C3030.93 650.768 3028.02 650.213 3025.51 649.104C3022.99 647.952 3021.01 646.331 3019.55 644.24C3018.1 642.107 3017.36 639.525 3017.31 636.496H3025.95C3026.04 638.587 3026.79 640.357 3028.19 641.808C3029.65 643.216 3031.63 643.92 3034.15 643.92C3036.32 643.92 3038.05 643.408 3039.33 642.384C3040.61 641.317 3041.25 639.909 3041.25 638.16C3041.25 636.325 3040.67 634.896 3039.52 633.872C3038.41 632.848 3036.92 632.016 3035.04 631.376C3033.17 630.736 3031.16 630.053 3029.03 629.328C3025.57 628.133 3022.93 626.597 3021.09 624.72C3019.3 622.843 3018.4 620.347 3018.4 617.232C3018.36 614.587 3018.98 612.325 3020.26 610.448C3021.58 608.528 3023.37 607.056 3025.63 606.032C3027.9 604.965 3030.5 604.432 3033.44 604.432C3036.43 604.432 3039.05 604.965 3041.31 606.032C3043.62 607.099 3045.41 608.592 3046.69 610.512C3048.01 612.432 3048.72 614.715 3048.8 617.36H3040.03C3039.99 615.781 3039.37 614.395 3038.18 613.2C3037.03 611.963 3035.41 611.344 3033.31 611.344C3031.52 611.301 3030.01 611.749 3028.77 612.688C3027.58 613.584 3026.98 614.907 3026.98 616.656C3026.98 618.149 3027.45 619.344 3028.39 620.24C3029.33 621.093 3030.61 621.819 3032.23 622.416C3033.85 623.013 3035.7 623.653 3037.79 624.336C3040.01 625.104 3042.04 626 3043.87 627.024C3045.71 628.048 3047.18 629.413 3048.29 631.12C3049.4 632.784 3049.95 634.939 3049.95 637.584C3049.95 639.931 3049.36 642.107 3048.16 644.112C3046.97 646.117 3045.2 647.739 3042.85 648.976C3040.5 650.171 3037.62 650.768 3034.21 650.768ZM3072.14 650.768C3069.07 650.768 3066.3 650.064 3063.82 648.656C3061.39 647.248 3059.45 645.307 3058 642.832C3056.59 640.315 3055.89 637.413 3055.89 634.128C3055.89 630.843 3056.61 627.963 3058.06 625.488C3059.51 622.971 3061.45 621.008 3063.89 619.6C3066.36 618.192 3069.13 617.488 3072.21 617.488C3075.24 617.488 3077.97 618.192 3080.4 619.6C3082.87 621.008 3084.81 622.971 3086.22 625.488C3087.67 627.963 3088.4 630.843 3088.4 634.128C3088.4 637.413 3087.67 640.315 3086.22 642.832C3084.81 645.307 3082.87 647.248 3080.4 648.656C3077.92 650.064 3075.17 650.768 3072.14 650.768ZM3072.14 643.664C3074.28 643.664 3076.13 642.875 3077.71 641.296C3079.29 639.675 3080.08 637.285 3080.08 634.128C3080.08 630.971 3079.29 628.603 3077.71 627.024C3076.13 625.403 3074.3 624.592 3072.21 624.592C3070.03 624.592 3068.15 625.403 3066.57 627.024C3065.04 628.603 3064.27 630.971 3064.27 634.128C3064.27 637.285 3065.04 639.675 3066.57 641.296C3068.15 642.875 3070.01 643.664 3072.14 643.664ZM3095.72 650V603.92H3103.91V650H3095.72ZM3124.19 650.768C3120.22 650.768 3117.15 649.531 3114.97 647.056C3112.84 644.581 3111.77 640.955 3111.77 636.176V618.256H3119.9V635.408C3119.9 638.139 3120.46 640.229 3121.57 641.68C3122.67 643.131 3124.42 643.856 3126.81 643.856C3129.07 643.856 3130.93 643.045 3132.38 641.424C3133.87 639.803 3134.62 637.541 3134.62 634.64V618.256H3142.81V650H3135.58L3134.94 644.624C3133.96 646.501 3132.53 647.995 3130.65 649.104C3128.82 650.213 3126.66 650.768 3124.19 650.768ZM3165.37 650C3162.04 650 3159.37 649.189 3157.37 647.568C3155.36 645.947 3154.36 643.067 3154.36 638.928V625.104H3148.92V618.256H3154.36L3155.32 609.744H3162.55V618.256H3171.13V625.104H3162.55V638.992C3162.55 640.528 3162.87 641.595 3163.51 642.192C3164.19 642.747 3165.35 643.024 3166.97 643.024H3170.93V650H3165.37ZM3182.58 613.328C3181.08 613.328 3179.85 612.88 3178.86 611.984C3177.93 611.088 3177.46 609.957 3177.46 608.592C3177.46 607.227 3177.93 606.117 3178.86 605.264C3179.85 604.368 3181.08 603.92 3182.58 603.92C3184.07 603.92 3185.29 604.368 3186.22 605.264C3187.21 606.117 3187.7 607.227 3187.7 608.592C3187.7 609.957 3187.21 611.088 3186.22 611.984C3185.29 612.88 3184.07 613.328 3182.58 613.328ZM3178.48 650V618.256H3186.67V650H3178.48ZM3210.45 650.768C3207.38 650.768 3204.61 650.064 3202.13 648.656C3199.7 647.248 3197.76 645.307 3196.31 642.832C3194.9 640.315 3194.2 637.413 3194.2 634.128C3194.2 630.843 3194.92 627.963 3196.37 625.488C3197.83 622.971 3199.77 621.008 3202.2 619.6C3204.67 618.192 3207.45 617.488 3210.52 617.488C3213.55 617.488 3216.28 618.192 3218.71 619.6C3221.19 621.008 3223.13 622.971 3224.53 625.488C3225.99 627.963 3226.71 630.843 3226.71 634.128C3226.71 637.413 3225.99 640.315 3224.53 642.832C3223.13 645.307 3221.19 647.248 3218.71 648.656C3216.24 650.064 3213.48 650.768 3210.45 650.768ZM3210.45 643.664C3212.59 643.664 3214.44 642.875 3216.02 641.296C3217.6 639.675 3218.39 637.285 3218.39 634.128C3218.39 630.971 3217.6 628.603 3216.02 627.024C3214.44 625.403 3212.61 624.592 3210.52 624.592C3208.34 624.592 3206.47 625.403 3204.89 627.024C3203.35 628.603 3202.58 630.971 3202.58 634.128C3202.58 637.285 3203.35 639.675 3204.89 641.296C3206.47 642.875 3208.32 643.664 3210.45 643.664ZM3234.04 650V618.256H3241.27L3241.91 623.632C3242.89 621.755 3244.3 620.261 3246.13 619.152C3248.01 618.043 3250.21 617.488 3252.72 617.488C3256.65 617.488 3259.7 618.725 3261.88 621.2C3264.05 623.675 3265.14 627.301 3265.14 632.08V650H3256.95V632.848C3256.95 630.117 3256.39 628.027 3255.28 626.576C3254.17 625.125 3252.45 624.4 3250.1 624.4C3247.8 624.4 3245.9 625.211 3244.4 626.832C3242.95 628.453 3242.23 630.715 3242.23 633.616V650H3234.04ZM3286.09 650.768C3283.28 650.768 3280.8 650.32 3278.67 649.424C3276.54 648.485 3274.83 647.205 3273.55 645.584C3272.27 643.963 3271.5 642.085 3271.24 639.952H3279.5C3279.76 641.189 3280.44 642.256 3281.55 643.152C3282.7 644.005 3284.17 644.432 3285.96 644.432C3287.76 644.432 3289.06 644.069 3289.87 643.344C3290.72 642.619 3291.15 641.787 3291.15 640.848C3291.15 639.483 3290.55 638.565 3289.36 638.096C3288.16 637.584 3286.5 637.093 3284.36 636.624C3283 636.325 3281.61 635.963 3280.2 635.536C3278.8 635.109 3277.5 634.576 3276.3 633.936C3275.15 633.253 3274.21 632.4 3273.48 631.376C3272.76 630.309 3272.4 629.008 3272.4 627.472C3272.4 624.656 3273.51 622.288 3275.72 620.368C3277.99 618.448 3281.14 617.488 3285.2 617.488C3288.95 617.488 3291.94 618.363 3294.16 620.112C3296.42 621.861 3297.76 624.272 3298.19 627.344H3290.44C3289.98 624.997 3288.2 623.824 3285.13 623.824C3283.6 623.824 3282.4 624.123 3281.55 624.72C3280.74 625.317 3280.33 626.064 3280.33 626.96C3280.33 627.899 3280.95 628.645 3282.19 629.2C3283.43 629.755 3285.07 630.267 3287.12 630.736C3289.34 631.248 3291.36 631.824 3293.2 632.464C3295.07 633.061 3296.57 633.979 3297.68 635.216C3298.79 636.411 3299.34 638.139 3299.34 640.4C3299.38 642.363 3298.87 644.133 3297.8 645.712C3296.74 647.291 3295.2 648.528 3293.2 649.424C3291.19 650.32 3288.82 650.768 3286.09 650.768Z" fill="#444444"/>
<path d="M4299.32 650V605.2H4315.9C4319.48 605.2 4322.45 605.797 4324.79 606.992C4327.14 608.187 4328.89 609.829 4330.04 611.92C4331.19 614.011 4331.77 616.357 4331.77 618.96C4331.77 621.435 4331.21 623.717 4330.1 625.808C4329 627.856 4327.27 629.52 4324.92 630.8C4322.57 632.037 4319.57 632.656 4315.9 632.656H4307.51V650H4299.32ZM4307.51 626H4315.38C4318.24 626 4320.29 625.381 4321.53 624.144C4322.81 622.864 4323.45 621.136 4323.45 618.96C4323.45 616.741 4322.81 615.013 4321.53 613.776C4320.29 612.496 4318.24 611.856 4315.38 611.856H4307.51V626ZM4338 650V618.256H4345.3L4346.07 624.208C4347.22 622.16 4348.78 620.539 4350.74 619.344C4352.75 618.107 4355.09 617.488 4357.78 617.488V626.128H4355.48C4353.68 626.128 4352.08 626.405 4350.68 626.96C4349.27 627.515 4348.16 628.475 4347.35 629.84C4346.58 631.205 4346.2 633.104 4346.2 635.536V650H4338ZM4378.05 650.768C4374.98 650.768 4372.2 650.064 4369.73 648.656C4367.3 647.248 4365.35 645.307 4363.9 642.832C4362.5 640.315 4361.79 637.413 4361.79 634.128C4361.79 630.843 4362.52 627.963 4363.97 625.488C4365.42 622.971 4367.36 621.008 4369.79 619.6C4372.27 618.192 4375.04 617.488 4378.11 617.488C4381.14 617.488 4383.87 618.192 4386.3 619.6C4388.78 621.008 4390.72 622.971 4392.13 625.488C4393.58 627.963 4394.3 630.843 4394.3 634.128C4394.3 637.413 4393.58 640.315 4392.13 642.832C4390.72 645.307 4388.78 647.248 4386.3 648.656C4383.83 650.064 4381.08 650.768 4378.05 650.768ZM4378.05 643.664C4380.18 643.664 4382.04 642.875 4383.62 641.296C4385.19 639.675 4385.98 637.285 4385.98 634.128C4385.98 630.971 4385.19 628.603 4383.62 627.024C4382.04 625.403 4380.2 624.592 4378.11 624.592C4375.94 624.592 4374.06 625.403 4372.48 627.024C4370.94 628.603 4370.18 630.971 4370.18 634.128C4370.18 637.285 4370.94 639.675 4372.48 641.296C4374.06 642.875 4375.91 643.664 4378.05 643.664ZM4414.52 650C4411.19 650 4408.53 649.189 4406.52 647.568C4404.52 645.947 4403.51 643.067 4403.51 638.928V625.104H4398.07V618.256H4403.51L4404.47 609.744H4411.71V618.256H4420.28V625.104H4411.71V638.992C4411.71 640.528 4412.03 641.595 4412.67 642.192C4413.35 642.747 4414.5 643.024 4416.12 643.024H4420.09V650H4414.52ZM4441.74 650.768C4438.66 650.768 4435.89 650.064 4433.42 648.656C4430.98 647.248 4429.04 645.307 4427.59 642.832C4426.18 640.315 4425.48 637.413 4425.48 634.128C4425.48 630.843 4426.21 627.963 4427.66 625.488C4429.11 622.971 4431.05 621.008 4433.48 619.6C4435.95 618.192 4438.73 617.488 4441.8 617.488C4444.83 617.488 4447.56 618.192 4449.99 619.6C4452.47 621.008 4454.41 622.971 4455.82 625.488C4457.27 627.963 4457.99 630.843 4457.99 634.128C4457.99 637.413 4457.27 640.315 4455.82 642.832C4454.41 645.307 4452.47 647.248 4449.99 648.656C4447.52 650.064 4444.77 650.768 4441.74 650.768ZM4441.74 643.664C4443.87 643.664 4445.73 642.875 4447.3 641.296C4448.88 639.675 4449.67 637.285 4449.67 634.128C4449.67 630.971 4448.88 628.603 4447.3 627.024C4445.73 625.403 4443.89 624.592 4441.8 624.592C4439.62 624.592 4437.75 625.403 4436.17 627.024C4434.63 628.603 4433.86 630.971 4433.86 634.128C4433.86 637.285 4434.63 639.675 4436.17 641.296C4437.75 642.875 4439.6 643.664 4441.74 643.664ZM4478.21 650C4474.88 650 4472.22 649.189 4470.21 647.568C4468.2 645.947 4467.2 643.067 4467.2 638.928V625.104H4461.76V618.256H4467.2L4468.16 609.744H4475.39V618.256H4483.97V625.104H4475.39V638.992C4475.39 640.528 4475.71 641.595 4476.35 642.192C4477.04 642.747 4478.19 643.024 4479.81 643.024H4483.78V650H4478.21ZM4494.97 664.08L4502.33 647.888H4500.41L4488.06 618.256H4496.96L4505.85 640.592L4515.13 618.256H4523.84L4503.68 664.08H4494.97ZM4529.19 664.08V618.256H4536.49L4537.38 622.8C4538.41 621.392 4539.75 620.155 4541.42 619.088C4543.12 618.021 4545.32 617.488 4548.01 617.488C4550.99 617.488 4553.66 618.213 4556.01 619.664C4558.35 621.115 4560.21 623.099 4561.58 625.616C4562.94 628.133 4563.62 630.992 4563.62 634.192C4563.62 637.392 4562.94 640.251 4561.58 642.768C4560.21 645.243 4558.35 647.205 4556.01 648.656C4553.66 650.064 4550.99 650.768 4548.01 650.768C4545.62 650.768 4543.53 650.32 4541.74 649.424C4539.94 648.528 4538.49 647.269 4537.38 645.648V664.08H4529.19ZM4546.28 643.6C4548.88 643.6 4551.04 642.725 4552.74 640.976C4554.45 639.227 4555.3 636.965 4555.3 634.192C4555.3 631.419 4554.45 629.136 4552.74 627.344C4551.04 625.552 4548.88 624.656 4546.28 624.656C4543.63 624.656 4541.46 625.552 4539.75 627.344C4538.09 629.093 4537.26 631.355 4537.26 634.128C4537.26 636.901 4538.09 639.184 4539.75 640.976C4541.46 642.725 4543.63 643.6 4546.28 643.6ZM4586.37 650.768C4583.17 650.768 4580.33 650.085 4577.85 648.72C4575.38 647.355 4573.44 645.435 4572.03 642.96C4570.62 640.485 4569.92 637.627 4569.92 634.384C4569.92 631.099 4570.6 628.176 4571.97 625.616C4573.37 623.056 4575.29 621.072 4577.73 619.664C4580.2 618.213 4583.1 617.488 4586.43 617.488C4589.54 617.488 4592.3 618.171 4594.69 619.536C4597.07 620.901 4598.93 622.779 4600.25 625.168C4601.62 627.515 4602.3 630.139 4602.3 633.04C4602.3 633.509 4602.28 634 4602.24 634.512C4602.24 635.024 4602.22 635.557 4602.17 636.112H4578.05C4578.22 638.587 4579.07 640.528 4580.61 641.936C4582.18 643.344 4584.08 644.048 4586.3 644.048C4587.97 644.048 4589.35 643.685 4590.46 642.96C4591.61 642.192 4592.47 641.211 4593.02 640.016H4601.34C4600.74 642.021 4599.74 643.856 4598.33 645.52C4596.97 647.141 4595.26 648.421 4593.21 649.36C4591.21 650.299 4588.93 650.768 4586.37 650.768ZM4586.43 624.144C4584.42 624.144 4582.65 624.72 4581.12 625.872C4579.58 626.981 4578.6 628.688 4578.17 630.992H4593.98C4593.85 628.901 4593.09 627.237 4591.68 626C4590.27 624.763 4588.52 624.144 4586.43 624.144Z" fill="#444444"/>
<path d="M528.899 370.976H501.522C504.312 378.616 505.837 386.861 505.837 395.454V498.923C505.837 502.506 505.213 505.945 504.079 509.144H549.339C566.246 509.144 580 495.389 580 478.483V422.077C580.001 393.9 557.076 370.976 528.899 370.976Z" fill="#444444"/>
<path d="M300.164 395.455C300.164 386.861 301.688 378.616 304.479 370.976H277.102C248.924 370.976 226 393.901 226 422.078V478.484C226 495.39 239.754 509.145 256.661 509.145H301.922C300.787 505.945 300.164 502.507 300.164 498.924V395.455Z" fill="#444444"/>
<path d="M434.294 344.353H371.707C343.529 344.353 320.605 367.277 320.605 395.455V498.924C320.605 504.568 325.18 509.144 330.825 509.144H475.176C480.82 509.144 485.396 504.569 485.396 498.924V395.455C485.396 367.277 462.472 344.353 434.294 344.353Z" fill="#444444"/>
<path d="M403 208.854C369.113 208.854 341.544 236.423 341.544 270.311C341.544 293.297 354.231 313.372 372.966 323.912C381.853 328.911 392.098 331.768 403 331.768C413.902 331.768 424.148 328.911 433.034 323.912C451.771 313.372 464.457 293.297 464.457 270.311C464.457 236.424 436.888 208.854 403 208.854Z" fill="#444444"/>
<path d="M295.084 266.137C269.74 266.137 249.123 286.754 249.123 312.098C249.123 337.442 269.74 358.059 295.084 358.059C301.513 358.059 307.634 356.728 313.195 354.334C322.81 350.195 330.738 342.867 335.643 333.689C339.087 327.247 341.045 319.898 341.045 312.098C341.045 286.755 320.428 266.137 295.084 266.137Z" fill="#444444"/>
<path d="M510.917 266.137C485.573 266.137 464.955 286.754 464.955 312.098C464.955 319.898 466.914 327.247 470.357 333.689C475.263 342.868 483.191 350.195 492.805 354.334C498.366 356.728 504.488 358.059 510.917 358.059C536.26 358.059 556.878 337.442 556.878 312.098C556.878 286.754 536.26 266.137 510.917 266.137Z" fill="#444444"/>
<path d="M1936.93 284.174L1919.62 266.861C1911.53 258.772 1898.37 258.774 1890.28 266.861L1853.81 303.329V186.113C1853.81 168.957 1839.86 155 1822.7 155H1620.12C1602.96 155 1589 168.957 1589 186.113V477.887C1589 495.043 1602.96 509 1620.12 509H1822.7C1839.86 509 1853.81 495.043 1853.81 477.887V395.587L1936.93 313.508C1945.02 305.421 1945.02 292.261 1936.93 284.174ZM1812.89 406.845L1781.69 421.405L1796.24 390.238L1873.66 312.818L1890.78 329.934L1812.89 406.845ZM1833.07 477.887C1833.07 483.605 1828.42 488.258 1822.7 488.258H1620.12C1614.4 488.258 1609.75 483.605 1609.75 477.887V186.113C1609.75 180.395 1614.4 175.742 1620.12 175.742H1822.7C1828.42 175.742 1833.07 180.395 1833.07 186.113V324.071C1775.56 381.581 1779.32 377.45 1778.22 379.809L1750.84 438.478C1748.99 442.431 1749.82 447.114 1752.9 450.197C1755.98 453.282 1760.67 454.106 1764.62 452.262L1823.29 424.883C1825.44 423.879 1825.79 423.255 1833.07 416.069V477.887ZM1905.53 315.36L1888.33 298.151L1904.95 281.527L1922.26 298.846L1905.53 315.36Z" fill="#444444"/>
<path d="M1644.32 242.809H1799.19C1804.92 242.809 1809.56 238.165 1809.56 232.438C1809.56 226.71 1804.92 222.066 1799.19 222.066H1644.32C1638.59 222.066 1633.95 226.71 1633.95 232.438C1633.95 238.165 1638.59 242.809 1644.32 242.809Z" fill="#444444"/>
<path d="M1644.32 298.121H1766C1771.73 298.121 1776.38 293.478 1776.38 287.75C1776.38 282.022 1771.73 277.379 1766 277.379H1644.32C1638.59 277.379 1633.95 282.022 1633.95 287.75C1633.95 293.478 1638.59 298.121 1644.32 298.121Z" fill="#444444"/>
<path d="M1732.82 332.691H1644.32C1638.59 332.691 1633.95 337.335 1633.95 343.062C1633.95 348.79 1638.59 353.434 1644.32 353.434H1732.82C1738.54 353.434 1743.19 348.79 1743.19 343.062C1743.19 337.335 1738.54 332.691 1732.82 332.691Z" fill="#444444"/>
<g clip-path="url(#clip0)">
<path d="M3052 190.4C3055.26 190.4 3057.9 187.758 3057.9 184.5V160.9C3057.9 157.642 3055.26 155 3052 155C3048.74 155 3046.1 157.642 3046.1 160.9V184.5C3046.1 187.758 3048.74 190.4 3052 190.4Z" fill="#444444"/>
<path d="M2979.04 182.034L2990.84 202.465C2992.45 205.298 2996.05 206.288 2998.89 204.677C3001.72 203.067 3002.71 199.465 3001.1 196.632C3001.09 196.609 3001.07 196.587 3001.06 196.564L2989.26 176.133C2987.65 173.3 2984.05 172.31 2981.22 173.92C2978.38 175.531 2977.39 179.133 2979 181.966C2979.02 181.989 2979.03 182.011 2979.04 182.034Z" fill="#444444"/>
<path d="M2931.47 233.82C2931.49 233.833 2931.51 233.845 2931.54 233.859L2951.97 245.658C2954.78 247.306 2958.39 246.364 2960.04 243.552C2961.69 240.741 2960.75 237.126 2957.93 235.479C2957.91 235.466 2957.89 235.453 2957.87 235.44L2937.43 223.64C2934.62 221.992 2931.01 222.935 2929.36 225.746C2927.71 228.557 2928.66 232.172 2931.47 233.82Z" fill="#444444"/>
<path d="M2945.8 296.599C2945.8 293.34 2943.16 290.699 2939.9 290.699H2916.3C2913.04 290.699 2910.4 293.34 2910.4 296.599C2910.4 299.857 2913.04 302.498 2916.3 302.498H2939.9C2943.16 302.498 2945.8 299.857 2945.8 296.599Z" fill="#444444"/>
<path d="M2952.04 347.499C2952.01 347.512 2951.99 347.525 2951.97 347.539L2931.54 359.338C2928.7 360.948 2927.71 364.55 2929.32 367.383C2930.93 370.216 2934.53 371.207 2937.37 369.597C2937.39 369.584 2937.41 369.57 2937.43 369.557L2957.87 357.757C2960.7 356.147 2961.69 352.545 2960.08 349.713C2958.47 346.88 2954.87 345.889 2952.04 347.499Z" fill="#444444"/>
<path d="M3172.53 359.378C3172.51 359.365 3172.49 359.352 3172.47 359.338L3152.03 347.539C3149.22 345.89 3145.61 346.833 3143.96 349.643C3142.31 352.454 3143.25 356.069 3146.06 357.717C3146.09 357.731 3146.11 357.744 3146.13 357.757L3166.56 369.557C3169.38 371.205 3172.99 370.263 3174.64 367.452C3176.29 364.641 3175.34 361.027 3172.53 359.378Z" fill="#444444"/>
<path d="M3187.7 290.699H3164.1C3160.84 290.699 3158.2 293.34 3158.2 296.599C3158.2 299.857 3160.84 302.498 3164.1 302.498H3187.7C3190.96 302.498 3193.6 299.857 3193.6 296.599C3193.6 293.34 3190.96 290.699 3187.7 290.699Z" fill="#444444"/>
<path d="M3149.09 246.449C3150.13 246.449 3151.14 246.176 3152.04 245.658L3172.47 233.859C3175.3 232.248 3176.29 228.646 3174.68 225.813C3173.07 222.981 3169.47 221.99 3166.64 223.601C3166.62 223.613 3166.59 223.627 3166.57 223.64L3146.14 235.44C3143.32 237.069 3142.35 240.677 3143.98 243.499C3145.03 245.324 3146.98 246.449 3149.09 246.449Z" fill="#444444"/>
<path d="M3105.09 204.627C3105.09 204.628 3105.1 204.63 3105.1 204.63C3107.92 206.258 3111.53 205.29 3113.16 202.466C3113.16 202.466 3113.16 202.465 3113.16 202.465L3124.96 182.034C3126.61 179.223 3125.66 175.608 3122.85 173.959C3120.04 172.311 3116.43 173.254 3114.78 176.064C3114.77 176.087 3114.75 176.11 3114.74 176.133L3102.94 196.564C3101.31 199.385 3102.27 202.995 3105.09 204.627Z" fill="#444444"/>
<path d="M3063.8 390.998C3067.06 390.998 3069.7 388.356 3069.7 385.098V320.198H3081.5C3094.53 320.198 3105.1 309.632 3105.1 296.599C3105.1 283.565 3094.53 272.999 3081.5 272.999C3068.47 272.999 3057.9 283.565 3057.9 296.599V308.398H3046.1V296.599C3046.1 283.565 3035.53 272.999 3022.5 272.999C3009.47 272.999 2998.9 283.565 2998.9 296.599C2998.9 309.632 3009.47 320.198 3022.5 320.198H3034.3V385.098C3034.3 388.356 3036.94 390.998 3040.2 390.998C3043.46 390.998 3046.1 388.356 3046.1 385.098V320.198H3057.9V385.098C3057.9 388.356 3060.54 390.998 3063.8 390.998ZM3069.7 296.599C3069.7 290.081 3074.98 284.799 3081.5 284.799C3088.02 284.799 3093.3 290.081 3093.3 296.599C3093.3 303.116 3088.02 308.398 3081.5 308.398H3069.7V296.599ZM3034.3 308.398H3022.5C3015.98 308.398 3010.7 303.116 3010.7 296.599C3010.7 290.081 3015.98 284.799 3022.5 284.799C3029.02 284.799 3034.3 290.081 3034.3 296.599V308.398Z" fill="#444444"/>
<path d="M3056.58 202.312C3004.51 199.81 2960.27 239.997 2957.76 292.072C2956.33 321.89 2969.09 350.629 2992.16 369.569C2996.32 372.826 2998.8 377.781 2998.9 383.062V396.897C2998.93 404.371 3003.65 411.02 3010.7 413.512V420.497C3010.72 424.865 3012.36 429.072 3015.3 432.297C3009.17 438.967 3009.17 449.227 3015.3 455.897C3008.74 463.087 3009.26 474.234 3016.45 480.793C3019.71 483.773 3023.98 485.416 3028.4 485.397C3031.58 485.48 3034.22 482.972 3034.3 479.797C3034.33 478.558 3033.96 477.341 3033.25 476.328C3033.06 475.968 3032.84 475.626 3032.59 475.308C3032.1 474.864 3031.55 474.501 3030.95 474.234C3030.78 474.145 3030.61 474.075 3030.43 474.004C3029.83 473.786 3029.21 473.661 3028.57 473.632C3028.51 473.632 3028.46 473.597 3028.4 473.597C3025.14 473.597 3022.5 470.955 3022.5 467.697C3022.5 464.438 3025.14 461.797 3028.4 461.797H3052C3055.26 461.797 3057.9 459.155 3057.9 455.897C3057.9 452.639 3055.26 449.997 3052 449.997H3028.4C3025.14 449.997 3022.5 447.355 3022.5 444.097C3022.5 440.839 3025.14 438.197 3028.4 438.197H3052C3055.26 438.197 3057.9 435.555 3057.9 432.297C3057.9 429.039 3055.26 426.397 3052 426.397H3028.4C3025.14 426.397 3022.5 423.755 3022.5 420.497V414.597H3052C3055.26 414.597 3057.9 411.956 3057.9 408.697C3057.9 405.439 3055.26 402.797 3052 402.797H3016.6C3013.34 402.797 3010.7 400.156 3010.7 396.897V383.062C3010.6 374.24 3006.54 365.93 2999.64 360.436C2964.4 331.472 2959.31 279.421 2988.27 244.178C3004.84 224.017 3029.96 212.872 3056.02 214.117C3099.62 216.71 3133.86 252.435 3134.6 296.097C3134.81 321.21 3123.52 345.039 3103.95 360.778C3097.1 366.421 3093.18 374.871 3093.3 383.747V396.897C3093.3 400.156 3090.66 402.797 3087.4 402.797H3069.7C3066.44 402.797 3063.8 405.439 3063.8 408.697C3063.8 411.956 3066.44 414.597 3069.7 414.597H3081.5V420.497C3081.5 423.755 3078.86 426.397 3075.6 426.397H3069.7C3066.44 426.397 3063.8 429.039 3063.8 432.297C3063.8 435.555 3066.44 438.197 3069.7 438.197H3075.6C3078.86 438.197 3081.5 440.839 3081.5 444.097C3081.5 447.355 3078.86 449.997 3075.6 449.997H3069.7C3066.44 449.997 3063.8 452.639 3063.8 455.897C3063.8 459.155 3066.44 461.797 3069.7 461.797H3075.6C3078.86 461.797 3081.5 464.438 3081.5 467.697C3081.5 470.955 3078.86 473.597 3075.6 473.597H3046.1C3042.84 473.597 3040.2 476.238 3040.2 479.497C3040.2 482.755 3042.84 485.397 3046.1 485.397H3068.69C3065.43 494.613 3055.32 499.444 3046.1 496.186C3043.28 495.189 3040.76 493.492 3038.77 491.255C3036.61 488.821 3032.88 488.605 3030.44 490.771C3028.01 492.938 3027.79 496.668 3029.96 499.102C3040.75 511.261 3059.35 512.371 3071.51 501.582C3076.53 497.125 3079.88 491.086 3081 484.464C3090.24 481.576 3095.39 471.745 3092.5 462.505C3091.73 460.05 3090.43 457.794 3088.7 455.897C3094.83 449.227 3094.83 438.967 3088.7 432.297C3091.64 429.072 3093.28 424.865 3093.3 420.497V413.512C3100.35 411.02 3105.07 404.371 3105.1 396.897V383.747C3105.02 378.446 3107.32 373.388 3111.36 369.958C3133.74 351.967 3146.65 324.721 3146.4 296.009C3145.55 246.104 3106.41 205.274 3056.58 202.312Z" fill="#444444"/>
</g>
<path d="M4293.85 315.345H4329.06C4331.92 315.345 4334.25 313.024 4334.25 310.16C4334.25 307.295 4331.92 304.974 4329.06 304.974H4293.85C4290.98 304.974 4288.66 307.295 4288.66 310.16C4288.66 313.024 4290.98 315.345 4293.85 315.345Z" fill="#444444"/>
<path d="M4592.79 301.924C4595.66 301.924 4597.98 299.603 4597.98 296.738V180.928C4597.98 166.631 4586.35 155 4572.05 155H4525.42C4522.56 155 4520.24 157.321 4520.24 160.186C4520.24 163.05 4522.56 165.371 4525.42 165.371H4572.05C4580.63 165.371 4587.61 172.35 4587.61 180.928V194.539H4474.26V180.928C4474.26 172.35 4481.24 165.371 4489.82 165.371H4501.23C4504.09 165.371 4506.41 163.05 4506.41 160.186C4506.41 157.321 4504.09 155 4501.23 155H4489.82C4475.52 155 4463.89 166.631 4463.89 180.928V259.402H4455.25C4433.33 259.402 4415.49 277.236 4415.49 299.158V362.768C4415.49 378.971 4402.31 392.152 4386.11 392.152H4379.49V312.295C4379.49 297.998 4367.86 286.367 4353.57 286.367H4269.95C4255.65 286.367 4244.02 297.998 4244.02 312.295V483.072C4244.02 497.369 4255.65 509 4269.95 509H4273.75C4276.62 509 4278.94 506.679 4278.94 503.814C4278.94 500.95 4276.62 498.629 4273.75 498.629H4269.95C4261.37 498.629 4254.39 491.65 4254.39 483.072V474.542H4369.12V483.072C4369.12 491.65 4362.14 498.629 4353.57 498.629H4297.95C4295.09 498.629 4292.77 500.95 4292.77 503.814C4292.77 506.679 4295.09 509 4297.95 509H4353.57C4367.86 509 4379.49 497.369 4379.49 483.072V402.523H4386.11C4408.03 402.523 4425.86 384.689 4425.86 362.768V299.158C4425.86 282.955 4439.04 269.773 4455.25 269.773H4463.89V353.088C4463.89 367.385 4475.52 379.016 4489.82 379.016H4572.05C4586.35 379.016 4597.98 367.385 4597.98 353.088V320.938C4597.98 318.073 4595.66 315.752 4592.79 315.752C4589.93 315.752 4587.61 318.073 4587.61 320.938V333.962H4474.26V269.773H4518.09L4508.62 279.243C4506.6 281.269 4506.6 284.552 4508.62 286.577C4509.63 287.589 4510.96 288.095 4512.29 288.095C4513.61 288.095 4514.94 287.589 4515.95 286.577L4534.28 268.254C4536.28 266.321 4536.28 262.853 4534.28 260.921L4515.95 242.598C4513.93 240.574 4510.65 240.574 4508.62 242.598C4506.6 244.624 4506.6 247.907 4508.62 249.932L4518.09 259.402H4474.26V204.91H4587.61V296.738C4587.61 299.603 4589.93 301.924 4592.79 301.924ZM4269.95 296.738H4353.57C4362.14 296.738 4369.12 303.717 4369.12 312.295V325.649H4254.39V312.295C4254.39 303.717 4261.37 296.738 4269.95 296.738ZM4369.12 464.171H4254.39V336.02H4369.12V392.152H4341.91C4340.48 384.644 4333.87 378.949 4325.95 378.949H4324.23C4321.36 378.949 4319.04 381.27 4319.04 384.134C4319.04 386.999 4321.36 389.32 4324.23 389.32H4325.95C4329.19 389.32 4331.83 391.956 4331.83 395.197V399.478C4331.83 402.719 4329.19 405.355 4325.95 405.355H4296.91C4293.67 405.355 4291.04 402.719 4291.04 399.478V395.197C4291.04 391.956 4293.67 389.32 4296.91 389.32H4300.25C4303.11 389.32 4305.43 386.999 4305.43 384.134C4305.43 381.27 4303.11 378.949 4300.25 378.949H4296.91C4287.96 378.949 4280.67 386.237 4280.67 395.197V399.478C4280.67 408.438 4287.96 415.727 4296.91 415.727H4325.95C4333.87 415.727 4340.48 410.031 4341.91 402.523H4369.12V464.171ZM4587.61 344.333V353.088C4587.61 361.665 4580.63 368.645 4572.05 368.645H4489.82C4481.24 368.645 4474.26 361.665 4474.26 353.088V344.333H4587.61Z" fill="#444444"/>
<path d="M4513.22 184.1H4548.05C4550.91 184.1 4553.23 181.779 4553.23 178.914C4553.23 176.05 4550.91 173.729 4548.05 173.729H4513.22C4510.36 173.729 4508.04 176.05 4508.04 178.914C4508.04 181.779 4510.36 184.1 4513.22 184.1Z" fill="#444444"/>
<circle cx="710" cy="359" r="48.5" fill="white" stroke="#444444" stroke-width="15"/>
<line x1="761" y1="359.5" x2="1482" y2="359.5" stroke="#444444" stroke-width="15"/>
<circle cx="2047" cy="359" r="48.5" fill="white" stroke="#444444" stroke-width="15"/>
<line x1="2098" y1="359.5" x2="2819" y2="359.5" stroke="#444444" stroke-width="15"/>
<circle cx="3333" cy="359" r="48.5" fill="white" stroke="#444444" stroke-width="15"/>
<line x1="3384" y1="359.5" x2="4105" y2="359.5" stroke="#444444" stroke-width="15"/>
<defs>
<clipPath id="clip0">
<rect width="354" height="354" fill="white" transform="translate(2875 155)"/>
</clipPath>
</defs>
</svg>
