<svg width="1500" height="256" viewBox="0 0 1500 256" fill="none" xmlns="http://www.w3.org/2000/svg">
<rect width="1500" height="256" fill="#E5E5E5"/>
<rect width="1500" height="256" fill="white"/>
<path d="M658.489 170V149.615H671.335V152.819H662.195V158.19H670.55V161.362H662.195V170H658.489ZM677.048 151.971C676.326 151.971 675.76 151.782 675.352 151.405C674.954 151.018 674.755 150.484 674.755 149.803C674.755 149.144 674.954 148.62 675.352 148.233C675.76 147.835 676.326 147.636 677.048 147.636C677.76 147.636 678.32 147.835 678.729 148.233C679.137 148.62 679.341 149.144 679.341 149.803C679.341 150.484 679.137 151.018 678.729 151.405C678.32 151.782 677.76 151.971 677.048 151.971ZM675.195 170V154.703H678.901V170H675.195ZM694.861 170V161.08C694.861 159.949 694.589 159.095 694.045 158.52C693.5 157.944 692.788 157.656 691.909 157.656C691.166 157.656 690.506 157.86 689.93 158.268C689.365 158.677 688.92 159.294 688.595 160.122C688.271 160.938 688.108 161.959 688.108 163.184H686.883C686.883 161.205 687.129 159.561 687.621 158.253C688.114 156.933 688.81 155.949 689.71 155.3C690.611 154.651 691.668 154.326 692.883 154.326C694.139 154.326 695.186 154.609 696.024 155.174C696.872 155.729 697.505 156.515 697.924 157.53C698.353 158.546 698.568 159.729 698.568 161.08V170H694.861ZM684.402 170V154.766H687.637L688.108 157.782V170H684.402ZM712.892 170L712.421 166.294V160.169C712.421 159.101 712.201 158.31 711.762 157.797C711.332 157.284 710.599 157.028 709.563 157.028C708.966 157.028 708.448 157.117 708.008 157.295C707.568 157.473 707.228 157.729 706.987 158.064C706.757 158.389 706.642 158.787 706.642 159.258H702.59C702.59 158.106 702.867 157.169 703.422 156.447C703.977 155.714 704.773 155.18 705.809 154.845C706.856 154.499 708.108 154.326 709.563 154.326C710.882 154.326 712.034 154.541 713.018 154.97C714.002 155.389 714.766 156.038 715.311 156.918C715.855 157.797 716.128 158.923 716.128 160.294V170H712.892ZM707.898 170.44C706.589 170.44 705.495 170.215 704.616 169.764C703.747 169.304 703.092 168.702 702.653 167.958C702.213 167.215 701.993 166.409 701.993 165.54C701.993 164.577 702.244 163.77 702.747 163.121C703.26 162.462 703.982 161.97 704.914 161.645C705.846 161.31 706.945 161.142 708.212 161.142C709.039 161.142 709.819 161.205 710.552 161.331C711.296 161.456 712.034 161.624 712.767 161.833V164.001C712.191 163.812 711.563 163.666 710.882 163.561C710.202 163.456 709.563 163.404 708.966 163.404C708.087 163.404 707.364 163.566 706.799 163.891C706.233 164.215 705.951 164.765 705.951 165.54C705.951 166.105 706.181 166.592 706.642 167C707.102 167.409 707.835 167.613 708.84 167.613C709.605 167.613 710.254 167.445 710.788 167.11C711.322 166.775 711.725 166.356 711.997 165.854C712.28 165.351 712.421 164.849 712.421 164.346H713.301C713.301 165.446 713.096 166.461 712.688 167.393C712.28 168.314 711.673 169.052 710.866 169.607C710.071 170.162 709.081 170.44 707.898 170.44ZM720.775 170V148.453H724.481V170H720.775ZM736.625 170V149.615H743.818C746.111 149.615 747.896 150.18 749.173 151.311C750.461 152.442 751.105 154.044 751.105 156.117C751.105 158.169 750.461 159.76 749.173 160.891C747.896 162.022 746.111 162.587 743.818 162.587H740.363V170H736.625ZM740.363 159.352H743.818C744.97 159.352 745.839 159.048 746.425 158.441C747.011 157.834 747.304 157.059 747.304 156.117C747.304 155.154 747.011 154.363 746.425 153.745C745.839 153.128 744.97 152.819 743.818 152.819H740.363V159.352ZM754.154 170V154.703H757.861V170H754.154ZM756.95 163.31C756.95 161.31 757.175 159.656 757.625 158.347C758.075 157.038 758.677 156.07 759.431 155.441C760.195 154.803 761.043 154.483 761.975 154.483C762.227 154.483 762.462 154.499 762.682 154.531C762.912 154.562 763.137 154.609 763.357 154.672L763.295 158.378C763.022 158.315 762.729 158.263 762.415 158.221C762.101 158.179 761.818 158.158 761.567 158.158C760.75 158.158 760.065 158.357 759.51 158.755C758.965 159.143 758.552 159.718 758.269 160.483C757.997 161.247 757.861 162.189 757.861 163.31H756.95ZM771.699 170.44C770.307 170.44 769.045 170.141 767.914 169.545C766.794 168.948 765.904 168.058 765.244 166.875C764.585 165.681 764.255 164.189 764.255 162.399C764.255 160.577 764.585 159.069 765.244 157.876C765.904 156.682 766.794 155.792 767.914 155.206C769.045 154.62 770.307 154.326 771.699 154.326C773.071 154.326 774.311 154.62 775.421 155.206C776.542 155.792 777.432 156.682 778.091 157.876C778.751 159.069 779.081 160.577 779.081 162.399C779.081 164.189 778.751 165.681 778.091 166.875C777.432 168.058 776.542 168.948 775.421 169.545C774.311 170.141 773.071 170.44 771.699 170.44ZM771.574 167.205C772.306 167.205 772.956 167.027 773.521 166.671C774.097 166.304 774.547 165.765 774.872 165.053C775.207 164.341 775.374 163.456 775.374 162.399C775.374 160.786 775.055 159.572 774.416 158.755C773.788 157.939 772.924 157.53 771.825 157.53C771.081 157.53 770.422 157.713 769.846 158.08C769.27 158.436 768.815 158.975 768.48 159.698C768.155 160.42 767.993 161.32 767.993 162.399C767.993 163.99 768.312 165.189 768.951 165.995C769.6 166.801 770.474 167.205 771.574 167.205ZM788.328 170.44C787.05 170.44 785.883 170.105 784.826 169.435C783.779 168.754 782.941 167.807 782.313 166.592C781.695 165.367 781.386 163.938 781.386 162.305C781.386 160.692 781.685 159.289 782.281 158.096C782.889 156.892 783.695 155.965 784.7 155.316C785.716 154.656 786.841 154.326 788.077 154.326C789.207 154.326 790.186 154.599 791.013 155.143C791.841 155.677 792.474 156.473 792.914 157.53C793.353 158.588 793.573 159.886 793.573 161.425H792.411C792.411 160.629 792.249 159.954 791.924 159.399C791.6 158.834 791.17 158.404 790.636 158.111C790.113 157.808 789.542 157.656 788.925 157.656C788.181 157.656 787.522 157.85 786.946 158.237C786.38 158.624 785.935 159.169 785.611 159.87C785.286 160.561 785.124 161.373 785.124 162.305C785.124 163.268 785.286 164.105 785.611 164.817C785.935 165.529 786.38 166.084 786.946 166.482C787.522 166.88 788.171 167.079 788.893 167.079C789.48 167.079 790.04 166.922 790.574 166.608C791.118 166.283 791.558 165.833 791.893 165.257C792.238 164.681 792.411 164.011 792.411 163.247H793.573C793.573 164.849 793.332 166.184 792.851 167.252C792.38 168.309 791.746 169.105 790.951 169.639C790.155 170.173 789.281 170.44 788.328 170.44ZM793.102 170L792.411 166.231V148.453H796.149V170H793.102ZM811.359 154.703H815.066V170H811.359V154.703ZM800.9 154.703H804.606V164.064C804.606 165.058 804.852 165.807 805.344 166.309C805.837 166.801 806.512 167.047 807.37 167.047C808.103 167.047 808.768 166.859 809.365 166.482C809.972 166.095 810.454 165.529 810.81 164.786C811.176 164.032 811.359 163.1 811.359 161.99H812.365C812.365 163.854 812.124 165.398 811.642 166.623C811.161 167.848 810.496 168.765 809.648 169.372C808.8 169.979 807.821 170.283 806.711 170.283C805.622 170.283 804.638 170.089 803.758 169.702C802.879 169.314 802.183 168.691 801.669 167.833C801.156 166.974 800.9 165.843 800.9 164.44V154.703ZM825.901 170.44C824.623 170.44 823.435 170.11 822.336 169.45C821.247 168.78 820.362 167.843 819.682 166.639C819.012 165.425 818.677 164.001 818.677 162.367C818.677 160.64 819.012 159.179 819.682 157.986C820.362 156.782 821.247 155.871 822.336 155.253C823.435 154.635 824.623 154.326 825.901 154.326C826.895 154.326 827.77 154.489 828.524 154.813C829.288 155.127 829.937 155.557 830.471 156.101C831.005 156.635 831.424 157.232 831.727 157.891C832.031 158.551 832.225 159.216 832.308 159.886L828.571 159.98C828.403 159.31 828.089 158.755 827.628 158.315C827.178 157.876 826.592 157.656 825.869 157.656C825.273 157.656 824.712 157.823 824.189 158.158C823.665 158.483 823.236 158.991 822.901 159.682C822.577 160.373 822.414 161.268 822.414 162.367C822.414 163.414 822.566 164.289 822.87 164.99C823.184 165.681 823.603 166.205 824.126 166.561C824.65 166.906 825.231 167.079 825.869 167.079C826.812 167.079 827.498 166.854 827.927 166.404C828.356 165.943 828.571 165.33 828.571 164.566H832.308C832.308 165.644 832.062 166.629 831.57 167.519C831.078 168.409 830.356 169.121 829.403 169.654C828.45 170.178 827.283 170.44 825.901 170.44ZM841.113 170.44C840.212 170.44 839.385 170.272 838.631 169.937C837.888 169.602 837.291 169.089 836.841 168.398C836.401 167.707 836.181 166.828 836.181 165.76V150.714H839.888V165.634C839.888 166.89 840.484 167.519 841.678 167.519C842.044 167.519 842.411 167.477 842.777 167.393C843.144 167.309 843.563 167.184 844.034 167.016L844.568 169.623C843.981 169.853 843.411 170.047 842.856 170.204C842.301 170.361 841.72 170.44 841.113 170.44ZM834.045 157.216V154.766H844.034V157.216H834.045Z" fill="#383838"/>
</svg>
