<svg width="1500" height="194" viewBox="0 0 1500 194" fill="none" xmlns="http://www.w3.org/2000/svg">
<rect width="1500" height="194" fill="#E5E5E5"/>
<rect width="1500" height="194" fill="white"/>
<path d="M658.489 108V87.6149H671.335V90.8187H662.195V96.1898H670.55V99.3622H662.195V108H658.489ZM677.048 89.9707C676.326 89.9707 675.76 89.7822 675.352 89.4053C674.954 89.0179 674.755 88.4839 674.755 87.8034C674.755 87.1438 674.954 86.6203 675.352 86.2329C675.76 85.835 676.326 85.6361 677.048 85.6361C677.76 85.6361 678.32 85.835 678.729 86.2329C679.137 86.6203 679.341 87.1438 679.341 87.8034C679.341 88.4839 679.137 89.0179 678.729 89.4053C678.32 89.7822 677.76 89.9707 677.048 89.9707ZM675.195 108V92.7033H678.901V108H675.195ZM694.861 108V99.0796C694.861 97.9488 694.589 97.0955 694.045 96.5196C693.5 95.9438 692.788 95.6559 691.909 95.6559C691.166 95.6559 690.506 95.86 689.93 96.2684C689.365 96.6767 688.92 97.2944 688.595 98.1216C688.271 98.9382 688.108 99.959 688.108 101.184H686.883C686.883 99.2052 687.129 97.5614 687.621 96.2527C688.114 94.9334 688.81 93.9493 689.71 93.3001C690.611 92.651 691.668 92.3264 692.883 92.3264C694.139 92.3264 695.186 92.6091 696.024 93.1745C696.872 93.7294 697.505 94.5146 697.924 95.5302C698.353 96.5458 698.568 97.7289 698.568 99.0796V108H694.861ZM684.402 108V92.7661H687.637L688.108 95.7815V108H684.402ZM712.892 108L712.421 104.294V98.1687C712.421 97.1007 712.201 96.3102 711.762 95.7972C711.332 95.2842 710.599 95.0277 709.563 95.0277C708.966 95.0277 708.448 95.1167 708.008 95.2947C707.568 95.4726 707.228 95.7292 706.987 96.0642C706.757 96.3888 706.642 96.7866 706.642 97.2578H702.59C702.59 96.1061 702.867 95.169 703.422 94.4466C703.977 93.7137 704.773 93.1797 705.809 92.8447C706.856 92.4992 708.108 92.3264 709.563 92.3264C710.882 92.3264 712.034 92.541 713.018 92.9703C714.002 93.3891 714.766 94.0383 715.311 94.9177C715.855 95.7972 716.128 96.9227 716.128 98.2943V108H712.892ZM707.898 108.44C706.589 108.44 705.495 108.215 704.616 107.764C703.747 107.304 703.092 106.702 702.653 105.958C702.213 105.215 701.993 104.409 701.993 103.54C701.993 102.577 702.244 101.77 702.747 101.121C703.26 100.462 703.982 99.9695 704.914 99.6449C705.846 99.3099 706.945 99.1424 708.212 99.1424C709.039 99.1424 709.819 99.2052 710.552 99.3308C711.296 99.4565 712.034 99.624 712.767 99.8334V102.001C712.191 101.812 711.563 101.666 710.882 101.561C710.202 101.456 709.563 101.404 708.966 101.404C708.087 101.404 707.364 101.566 706.799 101.891C706.233 102.215 705.951 102.765 705.951 103.54C705.951 104.105 706.181 104.592 706.642 105C707.102 105.409 707.835 105.613 708.84 105.613C709.605 105.613 710.254 105.445 710.788 105.11C711.322 104.775 711.725 104.356 711.997 103.854C712.28 103.351 712.421 102.849 712.421 102.346H713.301C713.301 103.446 713.096 104.461 712.688 105.393C712.28 106.314 711.673 107.052 710.866 107.607C710.071 108.162 709.081 108.44 707.898 108.44ZM720.775 108V86.4527H724.481V108H720.775ZM736.625 108V87.6149H743.818C746.111 87.6149 747.896 88.1803 749.173 89.311C750.461 90.4418 751.105 92.0437 751.105 94.1168C751.105 96.1689 750.461 97.7603 749.173 98.8911C747.896 100.022 746.111 100.587 743.818 100.587H740.363V108H736.625ZM740.363 97.352H743.818C744.97 97.352 745.839 97.0484 746.425 96.4411C747.011 95.8339 747.304 95.0591 747.304 94.1168C747.304 93.1535 747.011 92.3631 746.425 91.7453C745.839 91.1276 744.97 90.8187 743.818 90.8187H740.363V97.352ZM754.154 108V92.7033H757.861V108H754.154ZM756.95 101.31C756.95 99.3099 757.175 97.6556 757.625 96.3469C758.075 95.0381 758.677 94.0697 759.431 93.4415C760.195 92.8028 761.043 92.4835 761.975 92.4835C762.227 92.4835 762.462 92.4992 762.682 92.5306C762.912 92.562 763.137 92.6091 763.357 92.6719L763.295 96.3783C763.022 96.3155 762.729 96.2631 762.415 96.2212C762.101 96.1794 761.818 96.1584 761.567 96.1584C760.75 96.1584 760.065 96.3574 759.51 96.7552C758.965 97.1426 758.552 97.7185 758.269 98.4828C757.997 99.2471 757.861 100.189 757.861 101.31H756.95ZM771.699 108.44C770.307 108.44 769.045 108.141 767.914 107.545C766.794 106.948 765.904 106.058 765.244 104.875C764.585 103.681 764.255 102.189 764.255 100.399C764.255 98.577 764.585 97.0693 765.244 95.8757C765.904 94.6822 766.794 93.7922 767.914 93.2059C769.045 92.6196 770.307 92.3264 771.699 92.3264C773.071 92.3264 774.311 92.6196 775.421 93.2059C776.542 93.7922 777.432 94.6822 778.091 95.8757C778.751 97.0693 779.081 98.577 779.081 100.399C779.081 102.189 778.751 103.681 778.091 104.875C777.432 106.058 776.542 106.948 775.421 107.545C774.311 108.141 773.071 108.44 771.699 108.44ZM771.574 105.205C772.306 105.205 772.956 105.027 773.521 104.671C774.097 104.304 774.547 103.765 774.872 103.053C775.207 102.341 775.374 101.456 775.374 100.399C775.374 98.7864 775.055 97.5719 774.416 96.7552C773.788 95.9386 772.924 95.5302 771.825 95.5302C771.081 95.5302 770.422 95.7135 769.846 96.0799C769.27 96.4359 768.815 96.9751 768.48 97.6975C768.155 98.4199 767.993 99.3204 767.993 100.399C767.993 101.99 768.312 103.189 768.951 103.995C769.6 104.801 770.474 105.205 771.574 105.205ZM788.328 108.44C787.05 108.44 785.883 108.105 784.826 107.435C783.779 106.754 782.941 105.807 782.313 104.592C781.695 103.367 781.386 101.938 781.386 100.305C781.386 98.6922 781.685 97.2892 782.281 96.0956C782.889 94.8916 783.695 93.965 784.7 93.3158C785.716 92.6562 786.841 92.3264 788.077 92.3264C789.207 92.3264 790.186 92.5986 791.013 93.1431C791.841 93.677 792.474 94.4728 792.914 95.5302C793.353 96.5877 793.573 97.886 793.573 99.4251H792.411C792.411 98.6293 792.249 97.954 791.924 97.3991C791.6 96.8337 791.17 96.4045 790.636 96.1113C790.113 95.8077 789.542 95.6559 788.925 95.6559C788.181 95.6559 787.522 95.8496 786.946 96.237C786.38 96.6243 785.935 97.1688 785.611 97.8703C785.286 98.5613 785.124 99.3727 785.124 100.305C785.124 101.268 785.286 102.105 785.611 102.817C785.935 103.529 786.38 104.084 786.946 104.482C787.522 104.88 788.171 105.079 788.893 105.079C789.48 105.079 790.04 104.922 790.574 104.608C791.118 104.283 791.558 103.833 791.893 103.257C792.238 102.681 792.411 102.011 792.411 101.247H793.573C793.573 102.849 793.332 104.184 792.851 105.252C792.38 106.309 791.746 107.105 790.951 107.639C790.155 108.173 789.281 108.44 788.328 108.44ZM793.102 108L792.411 104.231V86.4527H796.149V108H793.102ZM811.359 92.7033H815.066V108H811.359V92.7033ZM800.9 92.7033H804.606V102.064C804.606 103.058 804.852 103.807 805.344 104.309C805.837 104.801 806.512 105.047 807.37 105.047C808.103 105.047 808.768 104.859 809.365 104.482C809.972 104.095 810.454 103.529 810.81 102.786C811.176 102.032 811.359 101.1 811.359 99.9904H812.365C812.365 101.854 812.124 103.398 811.642 104.623C811.161 105.848 810.496 106.765 809.648 107.372C808.8 107.979 807.821 108.283 806.711 108.283C805.622 108.283 804.638 108.089 803.758 107.702C802.879 107.314 802.183 106.691 801.669 105.833C801.156 104.974 800.9 103.843 800.9 102.44V92.7033ZM825.901 108.44C824.623 108.44 823.435 108.11 822.336 107.45C821.247 106.78 820.362 105.843 819.682 104.639C819.012 103.425 818.677 102.001 818.677 100.367C818.677 98.6398 819.012 97.1793 819.682 95.9857C820.362 94.7816 821.247 93.8707 822.336 93.253C823.435 92.6353 824.623 92.3264 825.901 92.3264C826.895 92.3264 827.77 92.4887 828.524 92.8133C829.288 93.1274 829.937 93.5566 830.471 94.1011C831.005 94.635 831.424 95.2318 831.727 95.8914C832.031 96.5511 832.225 97.2159 832.308 97.886L828.571 97.9802C828.403 97.3101 828.089 96.7552 827.628 96.3155C827.178 95.8757 826.592 95.6559 825.869 95.6559C825.273 95.6559 824.712 95.8234 824.189 96.1584C823.665 96.483 823.236 96.9908 822.901 97.6818C822.577 98.3728 822.414 99.268 822.414 100.367C822.414 101.414 822.566 102.289 822.87 102.99C823.184 103.681 823.603 104.205 824.126 104.561C824.65 104.906 825.231 105.079 825.869 105.079C826.812 105.079 827.498 104.854 827.927 104.404C828.356 103.943 828.571 103.33 828.571 102.566H832.308C832.308 103.644 832.062 104.629 831.57 105.519C831.078 106.409 830.356 107.121 829.403 107.654C828.45 108.178 827.283 108.44 825.901 108.44ZM841.113 108.44C840.212 108.44 839.385 108.272 838.631 107.937C837.888 107.602 837.291 107.089 836.841 106.398C836.401 105.707 836.181 104.828 836.181 103.76V88.7143H839.888V103.634C839.888 104.89 840.484 105.519 841.678 105.519C842.044 105.519 842.411 105.477 842.777 105.393C843.144 105.309 843.563 105.184 844.034 105.016L844.568 107.623C843.981 107.853 843.411 108.047 842.856 108.204C842.301 108.361 841.72 108.44 841.113 108.44ZM834.045 95.2161V92.7661H844.034V95.2161H834.045Z" fill="#383838"/>
</svg>
