<svg width="1500" height="253" viewBox="0 0 1500 253" fill="none" xmlns="http://www.w3.org/2000/svg">
<rect width="1500" height="253" fill="#E5E5E5"/>
<rect width="1500" height="253" fill="white"/>
<path d="M658.489 146V125.615H671.335V128.819H662.195V134.19H670.55V137.362H662.195V146H658.489ZM677.048 127.971C676.326 127.971 675.76 127.782 675.352 127.405C674.954 127.018 674.755 126.484 674.755 125.803C674.755 125.144 674.954 124.62 675.352 124.233C675.76 123.835 676.326 123.636 677.048 123.636C677.76 123.636 678.32 123.835 678.729 124.233C679.137 124.62 679.341 125.144 679.341 125.803C679.341 126.484 679.137 127.018 678.729 127.405C678.32 127.782 677.76 127.971 677.048 127.971ZM675.195 146V130.703H678.901V146H675.195ZM694.861 146V137.08C694.861 135.949 694.589 135.095 694.045 134.52C693.5 133.944 692.788 133.656 691.909 133.656C691.166 133.656 690.506 133.86 689.93 134.268C689.365 134.677 688.92 135.294 688.595 136.122C688.271 136.938 688.108 137.959 688.108 139.184H686.883C686.883 137.205 687.129 135.561 687.621 134.253C688.114 132.933 688.81 131.949 689.71 131.3C690.611 130.651 691.668 130.326 692.883 130.326C694.139 130.326 695.186 130.609 696.024 131.174C696.872 131.729 697.505 132.515 697.924 133.53C698.353 134.546 698.568 135.729 698.568 137.08V146H694.861ZM684.402 146V130.766H687.637L688.108 133.782V146H684.402ZM712.892 146L712.421 142.294V136.169C712.421 135.101 712.201 134.31 711.762 133.797C711.332 133.284 710.599 133.028 709.563 133.028C708.966 133.028 708.448 133.117 708.008 133.295C707.568 133.473 707.228 133.729 706.987 134.064C706.757 134.389 706.642 134.787 706.642 135.258H702.59C702.59 134.106 702.867 133.169 703.422 132.447C703.977 131.714 704.773 131.18 705.809 130.845C706.856 130.499 708.108 130.326 709.563 130.326C710.882 130.326 712.034 130.541 713.018 130.97C714.002 131.389 714.766 132.038 715.311 132.918C715.855 133.797 716.128 134.923 716.128 136.294V146H712.892ZM707.898 146.44C706.589 146.44 705.495 146.215 704.616 145.764C703.747 145.304 703.092 144.702 702.653 143.958C702.213 143.215 701.993 142.409 701.993 141.54C701.993 140.577 702.244 139.77 702.747 139.121C703.26 138.462 703.982 137.97 704.914 137.645C705.846 137.31 706.945 137.142 708.212 137.142C709.039 137.142 709.819 137.205 710.552 137.331C711.296 137.456 712.034 137.624 712.767 137.833V140.001C712.191 139.812 711.563 139.666 710.882 139.561C710.202 139.456 709.563 139.404 708.966 139.404C708.087 139.404 707.364 139.566 706.799 139.891C706.233 140.215 705.951 140.765 705.951 141.54C705.951 142.105 706.181 142.592 706.642 143C707.102 143.409 707.835 143.613 708.84 143.613C709.605 143.613 710.254 143.445 710.788 143.11C711.322 142.775 711.725 142.356 711.997 141.854C712.28 141.351 712.421 140.849 712.421 140.346H713.301C713.301 141.446 713.096 142.461 712.688 143.393C712.28 144.314 711.673 145.052 710.866 145.607C710.071 146.162 709.081 146.44 707.898 146.44ZM720.775 146V124.453H724.481V146H720.775ZM736.625 146V125.615H743.818C746.111 125.615 747.896 126.18 749.173 127.311C750.461 128.442 751.105 130.044 751.105 132.117C751.105 134.169 750.461 135.76 749.173 136.891C747.896 138.022 746.111 138.587 743.818 138.587H740.363V146H736.625ZM740.363 135.352H743.818C744.97 135.352 745.839 135.048 746.425 134.441C747.011 133.834 747.304 133.059 747.304 132.117C747.304 131.154 747.011 130.363 746.425 129.745C745.839 129.128 744.97 128.819 743.818 128.819H740.363V135.352ZM754.154 146V130.703H757.861V146H754.154ZM756.95 139.31C756.95 137.31 757.175 135.656 757.625 134.347C758.075 133.038 758.677 132.07 759.431 131.441C760.195 130.803 761.043 130.483 761.975 130.483C762.227 130.483 762.462 130.499 762.682 130.531C762.912 130.562 763.137 130.609 763.357 130.672L763.295 134.378C763.022 134.315 762.729 134.263 762.415 134.221C762.101 134.179 761.818 134.158 761.567 134.158C760.75 134.158 760.065 134.357 759.51 134.755C758.965 135.143 758.552 135.718 758.269 136.483C757.997 137.247 757.861 138.189 757.861 139.31H756.95ZM771.699 146.44C770.307 146.44 769.045 146.141 767.914 145.545C766.794 144.948 765.904 144.058 765.244 142.875C764.585 141.681 764.255 140.189 764.255 138.399C764.255 136.577 764.585 135.069 765.244 133.876C765.904 132.682 766.794 131.792 767.914 131.206C769.045 130.62 770.307 130.326 771.699 130.326C773.071 130.326 774.311 130.62 775.421 131.206C776.542 131.792 777.432 132.682 778.091 133.876C778.751 135.069 779.081 136.577 779.081 138.399C779.081 140.189 778.751 141.681 778.091 142.875C777.432 144.058 776.542 144.948 775.421 145.545C774.311 146.141 773.071 146.44 771.699 146.44ZM771.574 143.205C772.306 143.205 772.956 143.027 773.521 142.671C774.097 142.304 774.547 141.765 774.872 141.053C775.207 140.341 775.374 139.456 775.374 138.399C775.374 136.786 775.055 135.572 774.416 134.755C773.788 133.939 772.924 133.53 771.825 133.53C771.081 133.53 770.422 133.713 769.846 134.08C769.27 134.436 768.815 134.975 768.48 135.698C768.155 136.42 767.993 137.32 767.993 138.399C767.993 139.99 768.312 141.189 768.951 141.995C769.6 142.801 770.474 143.205 771.574 143.205ZM788.328 146.44C787.05 146.44 785.883 146.105 784.826 145.435C783.779 144.754 782.941 143.807 782.313 142.592C781.695 141.367 781.386 139.938 781.386 138.305C781.386 136.692 781.685 135.289 782.281 134.096C782.889 132.892 783.695 131.965 784.7 131.316C785.716 130.656 786.841 130.326 788.077 130.326C789.207 130.326 790.186 130.599 791.013 131.143C791.841 131.677 792.474 132.473 792.914 133.53C793.353 134.588 793.573 135.886 793.573 137.425H792.411C792.411 136.629 792.249 135.954 791.924 135.399C791.6 134.834 791.17 134.404 790.636 134.111C790.113 133.808 789.542 133.656 788.925 133.656C788.181 133.656 787.522 133.85 786.946 134.237C786.38 134.624 785.935 135.169 785.611 135.87C785.286 136.561 785.124 137.373 785.124 138.305C785.124 139.268 785.286 140.105 785.611 140.817C785.935 141.529 786.38 142.084 786.946 142.482C787.522 142.88 788.171 143.079 788.893 143.079C789.48 143.079 790.04 142.922 790.574 142.608C791.118 142.283 791.558 141.833 791.893 141.257C792.238 140.681 792.411 140.011 792.411 139.247H793.573C793.573 140.849 793.332 142.184 792.851 143.252C792.38 144.309 791.746 145.105 790.951 145.639C790.155 146.173 789.281 146.44 788.328 146.44ZM793.102 146L792.411 142.231V124.453H796.149V146H793.102ZM811.359 130.703H815.066V146H811.359V130.703ZM800.9 130.703H804.606V140.064C804.606 141.058 804.852 141.807 805.344 142.309C805.837 142.801 806.512 143.047 807.37 143.047C808.103 143.047 808.768 142.859 809.365 142.482C809.972 142.095 810.454 141.529 810.81 140.786C811.176 140.032 811.359 139.1 811.359 137.99H812.365C812.365 139.854 812.124 141.398 811.642 142.623C811.161 143.848 810.496 144.765 809.648 145.372C808.8 145.979 807.821 146.283 806.711 146.283C805.622 146.283 804.638 146.089 803.758 145.702C802.879 145.314 802.183 144.691 801.669 143.833C801.156 142.974 800.9 141.843 800.9 140.44V130.703ZM825.901 146.44C824.623 146.44 823.435 146.11 822.336 145.45C821.247 144.78 820.362 143.843 819.682 142.639C819.012 141.425 818.677 140.001 818.677 138.367C818.677 136.64 819.012 135.179 819.682 133.986C820.362 132.782 821.247 131.871 822.336 131.253C823.435 130.635 824.623 130.326 825.901 130.326C826.895 130.326 827.77 130.489 828.524 130.813C829.288 131.127 829.937 131.557 830.471 132.101C831.005 132.635 831.424 133.232 831.727 133.891C832.031 134.551 832.225 135.216 832.308 135.886L828.571 135.98C828.403 135.31 828.089 134.755 827.628 134.315C827.178 133.876 826.592 133.656 825.869 133.656C825.273 133.656 824.712 133.823 824.189 134.158C823.665 134.483 823.236 134.991 822.901 135.682C822.577 136.373 822.414 137.268 822.414 138.367C822.414 139.414 822.566 140.289 822.87 140.99C823.184 141.681 823.603 142.205 824.126 142.561C824.65 142.906 825.231 143.079 825.869 143.079C826.812 143.079 827.498 142.854 827.927 142.404C828.356 141.943 828.571 141.33 828.571 140.566H832.308C832.308 141.644 832.062 142.629 831.57 143.519C831.078 144.409 830.356 145.121 829.403 145.654C828.45 146.178 827.283 146.44 825.901 146.44ZM841.113 146.44C840.212 146.44 839.385 146.272 838.631 145.937C837.888 145.602 837.291 145.089 836.841 144.398C836.401 143.707 836.181 142.828 836.181 141.76V126.714H839.888V141.634C839.888 142.89 840.484 143.519 841.678 143.519C842.044 143.519 842.411 143.477 842.777 143.393C843.144 143.309 843.563 143.184 844.034 143.016L844.568 145.623C843.981 145.853 843.411 146.047 842.856 146.204C842.301 146.361 841.72 146.44 841.113 146.44ZM834.045 133.216V130.766H844.034V133.216H834.045Z" fill="#383838"/>
</svg>
