<svg width="1500" height="475" viewBox="0 0 1500 475" fill="none" xmlns="http://www.w3.org/2000/svg">
<rect width="1500" height="475" fill="#E5E5E5"/>
<rect width="1500" height="475" fill="white"/>
<path d="M645.998 173.44C644.208 173.44 642.648 173.016 641.318 172.168C639.999 171.309 638.973 170.084 638.24 168.493C637.507 166.901 637.141 164.99 637.141 162.76C637.141 160.457 637.518 158.525 638.271 156.965C639.036 155.395 640.083 154.212 641.412 153.416C642.753 152.61 644.281 152.207 645.998 152.207C648.375 152.207 650.228 152.782 651.558 153.934C652.898 155.086 653.757 156.583 654.134 158.426L650.176 159.148C649.851 158.08 649.333 157.216 648.621 156.557C647.909 155.897 647.035 155.567 645.998 155.567C645.087 155.567 644.266 155.834 643.533 156.368C642.8 156.892 642.213 157.688 641.774 158.756C641.344 159.824 641.13 161.158 641.13 162.76C641.13 164.268 641.318 165.566 641.695 166.655C642.083 167.744 642.637 168.582 643.36 169.168C644.082 169.754 644.962 170.047 645.998 170.047C647.328 170.047 648.354 169.697 649.077 168.995C649.809 168.283 650.176 167.378 650.176 166.278H654.134C654.134 167.796 653.804 169.089 653.144 170.157C652.495 171.215 651.563 172.026 650.349 172.592C649.134 173.157 647.684 173.44 645.998 173.44ZM665.403 152.615H669.109V161.127H677.998V152.615H681.705V173H677.998V164.362H669.109V173H665.403V152.615ZM692.23 173L699.171 152.615H703.82L710.479 173H706.584L705.171 168.603H697.601L696.156 173H692.23ZM698.543 165.807H704.291L701.433 157.044L698.543 165.807ZM724.738 152.615V169.765H733.125V173H721.032V152.615H724.738ZM747.169 152.615V169.765H755.556V173H743.463V152.615H747.169ZM765.863 173V152.615H778.961V155.819H769.569V161.19H778.395V164.394H769.569V169.765H778.961V173H765.863ZM791.177 152.615H795.228L804.494 167.158H804.212V152.615H807.918V173H804.149L794.286 157.578H794.883V173H791.177V152.615ZM828.108 173.44C826.444 173.44 824.941 173 823.601 172.121C822.261 171.241 821.193 170.016 820.397 168.446C819.612 166.865 819.219 165.022 819.219 162.917C819.219 161.253 819.46 159.761 819.942 158.441C820.434 157.122 821.114 155.997 821.983 155.065C822.852 154.133 823.873 153.426 825.046 152.945C826.219 152.453 827.491 152.207 828.862 152.207C830.768 152.207 832.364 152.62 833.652 153.447C834.951 154.274 835.961 155.578 836.683 157.358L832.883 158.237C832.349 157.368 831.731 156.709 831.029 156.258C830.338 155.798 829.553 155.567 828.674 155.567C827.669 155.567 826.752 155.866 825.925 156.463C825.098 157.049 824.439 157.892 823.947 158.991C823.454 160.09 823.208 161.399 823.208 162.917C823.208 164.341 823.423 165.587 823.852 166.655C824.292 167.723 824.905 168.555 825.69 169.152C826.475 169.749 827.386 170.047 828.422 170.047C829.302 170.047 830.087 169.854 830.778 169.466C831.48 169.069 832.029 168.503 832.427 167.77C832.836 167.037 833.04 166.153 833.04 165.116H833.856C833.856 166.812 833.652 168.283 833.244 169.529C832.846 170.775 832.223 171.738 831.375 172.419C830.527 173.099 829.438 173.44 828.108 173.44ZM833.574 173L833.04 168.508V164.99L828.454 164.896V162.54H836.589V173H833.574ZM848.8 173V152.615H861.898V155.819H852.506V161.19H861.333V164.394H852.506V169.765H861.898V173H848.8Z" fill="#383838"/>
<path d="M540.833 241.636H542.677V246.964H548.48V241.636H550.315V254H548.48V248.565H542.677V254H540.833V241.636ZM557.148 254.252C556.301 254.252 555.541 254.068 554.868 253.699C554.201 253.33 553.674 252.78 553.286 252.049C552.898 251.318 552.704 250.416 552.704 249.342C552.704 248.248 552.898 247.339 553.286 246.614C553.674 245.883 554.201 245.333 554.868 244.965C555.541 244.596 556.301 244.411 557.148 244.411C557.983 244.411 558.734 244.596 559.4 244.965C560.066 245.333 560.59 245.883 560.972 246.614C561.36 247.339 561.554 248.248 561.554 249.342C561.554 250.416 561.36 251.318 560.972 252.049C560.59 252.78 560.066 253.33 559.4 253.699C558.734 254.068 557.983 254.252 557.148 254.252ZM557.09 252.641C557.627 252.641 558.09 252.512 558.478 252.253C558.873 251.994 559.174 251.619 559.381 251.127C559.594 250.629 559.701 250.034 559.701 249.342C559.701 248.281 559.484 247.459 559.051 246.877C558.624 246.294 558.006 246.003 557.197 246.003C556.653 246.003 556.184 246.136 555.79 246.401C555.402 246.66 555.101 247.038 554.887 247.536C554.68 248.028 554.577 248.63 554.577 249.342C554.577 250.383 554.793 251.195 555.227 251.778C555.66 252.353 556.281 252.641 557.09 252.641ZM562.325 244.664H564.246L566.469 252.156H566.265L568.41 245.139H570.011L572.146 252.175H571.952L574.175 244.664H576.019L572.952 254H571.147L569.031 247.401H569.312L567.226 254H565.421L562.325 244.664ZM585.412 254.252C584.648 254.252 583.936 254.049 583.276 253.641C582.616 253.233 582.086 252.661 581.685 251.923C581.284 251.186 581.083 250.319 581.083 249.322C581.083 248.274 581.284 247.388 581.685 246.663C582.086 245.932 582.616 245.375 583.276 244.994C583.936 244.606 584.648 244.411 585.412 244.411C585.974 244.411 586.476 244.502 586.916 244.683C587.356 244.858 587.734 245.097 588.051 245.401C588.368 245.699 588.624 246.035 588.818 246.411C589.019 246.786 589.158 247.174 589.235 247.575L587.362 247.672C587.226 247.187 586.987 246.799 586.644 246.508C586.308 246.21 585.89 246.061 585.392 246.061C584.972 246.061 584.574 246.181 584.198 246.42C583.83 246.653 583.529 247.012 583.296 247.498C583.069 247.976 582.956 248.585 582.956 249.322C582.956 250.008 583.063 250.594 583.276 251.079C583.49 251.564 583.781 251.936 584.15 252.195C584.519 252.454 584.933 252.583 585.392 252.583C586.052 252.583 586.544 252.425 586.867 252.108C587.197 251.784 587.362 251.341 587.362 250.778H589.235C589.235 251.431 589.083 252.02 588.779 252.544C588.475 253.068 588.035 253.486 587.459 253.796C586.89 254.1 586.207 254.252 585.412 254.252ZM597.504 254L597.271 251.855V247.963C597.271 247.2 597.112 246.647 596.795 246.304C596.478 245.955 595.977 245.78 595.291 245.78C594.903 245.78 594.557 245.838 594.252 245.955C593.955 246.065 593.719 246.233 593.544 246.459C593.376 246.686 593.292 246.97 593.292 247.313H591.254C591.254 246.627 591.422 246.071 591.758 245.644C592.095 245.217 592.564 244.906 593.165 244.712C593.774 244.512 594.482 244.411 595.291 244.411C596.048 244.411 596.714 244.538 597.29 244.79C597.866 245.036 598.312 245.424 598.629 245.955C598.953 246.485 599.115 247.171 599.115 248.012V254H597.504ZM594.379 254.252C593.596 254.252 592.946 254.116 592.428 253.845C591.91 253.567 591.522 253.204 591.263 252.758C591.011 252.311 590.885 251.836 590.885 251.331C590.885 250.716 591.04 250.212 591.351 249.817C591.668 249.416 592.104 249.118 592.661 248.924C593.217 248.73 593.858 248.633 594.582 248.633C595.081 248.633 595.566 248.678 596.038 248.769C596.51 248.86 596.976 248.979 597.436 249.128V250.244C597.06 250.108 596.643 250.002 596.184 249.924C595.731 249.84 595.307 249.798 594.912 249.798C594.324 249.798 593.832 249.914 593.437 250.147C593.043 250.38 592.845 250.775 592.845 251.331C592.845 251.739 593.001 252.091 593.311 252.389C593.622 252.68 594.113 252.826 594.786 252.826C595.278 252.826 595.711 252.716 596.087 252.496C596.462 252.269 596.753 251.988 596.96 251.651C597.167 251.315 597.271 250.979 597.271 250.642H597.717C597.717 251.289 597.585 251.888 597.319 252.437C597.06 252.981 596.682 253.421 596.184 253.757C595.686 254.087 595.084 254.252 594.379 254.252ZM608.682 254V248.526C608.682 247.718 608.488 247.106 608.1 246.692C607.718 246.272 607.201 246.061 606.547 246.061C606.03 246.061 605.577 246.204 605.189 246.488C604.807 246.767 604.509 247.177 604.296 247.721C604.089 248.258 603.985 248.915 603.985 249.691H603.325C603.325 248.546 603.471 247.582 603.762 246.799C604.06 246.016 604.483 245.424 605.033 245.023C605.583 244.615 606.243 244.411 607.013 244.411C607.764 244.411 608.398 244.58 608.915 244.916C609.439 245.253 609.837 245.731 610.109 246.352C610.381 246.967 610.517 247.692 610.517 248.526V254H608.682ZM602.141 254V244.664H603.743L603.985 246.682V254H602.141ZM617.794 254V241.636H619.638V254H617.794ZM630.579 254.252C629.816 254.252 629.114 254.049 628.473 253.641C627.833 253.227 627.322 252.651 626.94 251.913C626.565 251.169 626.377 250.296 626.377 249.293C626.377 248.297 626.561 247.433 626.93 246.702C627.306 245.971 627.8 245.408 628.415 245.013C629.03 244.612 629.712 244.411 630.463 244.411C631.149 244.411 631.747 244.58 632.258 244.916C632.769 245.246 633.164 245.728 633.442 246.362C633.727 246.996 633.869 247.769 633.869 248.682H633.229C633.229 248.119 633.116 247.643 632.889 247.255C632.663 246.86 632.368 246.563 632.006 246.362C631.644 246.162 631.255 246.061 630.841 246.061C630.356 246.061 629.916 246.194 629.521 246.459C629.133 246.718 628.823 247.09 628.59 247.575C628.363 248.054 628.25 248.627 628.25 249.293C628.25 249.966 628.363 250.551 628.59 251.05C628.823 251.541 629.133 251.92 629.521 252.185C629.916 252.45 630.353 252.583 630.832 252.583C631.226 252.583 631.605 252.48 631.967 252.273C632.336 252.059 632.637 251.755 632.87 251.36C633.109 250.966 633.229 250.496 633.229 249.953H633.869C633.869 250.885 633.721 251.671 633.423 252.311C633.132 252.952 632.737 253.437 632.239 253.767C631.741 254.091 631.188 254.252 630.579 254.252ZM633.549 254L633.229 251.758V240.733H635.082V254H633.549ZM641.732 254.252C640.929 254.252 640.205 254.045 639.558 253.631C638.911 253.217 638.396 252.641 638.015 251.904C637.639 251.166 637.452 250.312 637.452 249.342C637.452 248.313 637.639 247.433 638.015 246.702C638.39 245.964 638.901 245.398 639.548 245.003C640.195 244.609 640.923 244.411 641.732 244.411C642.456 244.411 643.077 244.56 643.595 244.858C644.113 245.149 644.53 245.544 644.847 246.042C645.164 246.534 645.381 247.093 645.497 247.721C645.62 248.348 645.643 248.995 645.565 249.662H638.927V248.594H644.303L643.857 248.885C643.876 248.536 643.857 248.187 643.799 247.837C643.747 247.488 643.643 247.168 643.488 246.877C643.333 246.579 643.113 246.343 642.828 246.168C642.55 245.987 642.194 245.896 641.761 245.896C641.217 245.896 640.761 246.032 640.392 246.304C640.03 246.576 639.755 246.941 639.567 247.401C639.38 247.853 639.286 248.352 639.286 248.895V249.642C639.286 250.244 639.377 250.778 639.558 251.244C639.739 251.71 640.007 252.078 640.363 252.35C640.726 252.615 641.182 252.748 641.732 252.748C642.269 252.748 642.712 252.622 643.061 252.37C643.417 252.117 643.637 251.739 643.721 251.234H645.604C645.507 251.842 645.284 252.373 644.934 252.826C644.585 253.279 644.135 253.631 643.585 253.884C643.042 254.129 642.424 254.252 641.732 254.252ZM651.417 254.252C650.512 254.252 649.748 254.126 649.127 253.874C648.506 253.615 648.03 253.259 647.7 252.806C647.377 252.347 647.209 251.81 647.196 251.195H648.933C648.959 251.732 649.172 252.13 649.573 252.389C649.981 252.648 650.531 252.777 651.223 252.777C651.592 252.777 651.925 252.719 652.223 252.602C652.527 252.486 652.766 252.328 652.941 252.127C653.122 251.926 653.213 251.7 653.213 251.448C653.213 251.131 653.096 250.881 652.863 250.7C652.63 250.513 652.255 250.348 651.738 250.205L649.826 249.555C649.062 249.296 648.477 248.953 648.069 248.526C647.661 248.093 647.458 247.575 647.458 246.974C647.458 246.204 647.801 245.586 648.486 245.12C649.172 244.648 650.081 244.411 651.214 244.411C652.385 244.411 653.287 244.661 653.921 245.159C654.562 245.65 654.895 246.268 654.921 247.012H653.145C653.1 246.644 652.915 246.362 652.592 246.168C652.275 245.967 651.815 245.867 651.214 245.867C650.651 245.867 650.207 245.99 649.884 246.236C649.567 246.482 649.408 246.76 649.408 247.071C649.408 247.627 649.887 248.041 650.845 248.313L652.854 249.021C653.617 249.267 654.206 249.584 654.62 249.972C655.034 250.361 655.241 250.852 655.241 251.448C655.241 251.926 655.083 252.379 654.766 252.806C654.449 253.233 654.002 253.583 653.426 253.854C652.857 254.12 652.187 254.252 651.417 254.252ZM658.8 242.674C658.431 242.674 658.14 242.574 657.927 242.373C657.72 242.166 657.616 241.888 657.616 241.539C657.616 241.202 657.72 240.937 657.927 240.743C658.14 240.542 658.431 240.442 658.8 240.442C659.163 240.442 659.447 240.542 659.654 240.743C659.868 240.937 659.975 241.202 659.975 241.539C659.975 241.888 659.868 242.166 659.654 242.373C659.447 242.574 659.163 242.674 658.8 242.674ZM657.878 254V244.635H659.722V254H657.878ZM666.711 258.814C665.701 258.814 664.831 258.675 664.1 258.396C663.375 258.118 662.816 257.746 662.421 257.28C662.026 256.814 661.829 256.307 661.829 255.757C661.829 255.058 662.085 254.521 662.596 254.146C663.107 253.777 663.757 253.592 664.547 253.592L665.74 254.155C665.067 254.155 664.547 254.291 664.178 254.563C663.815 254.835 663.634 255.203 663.634 255.669C663.634 256.155 663.9 256.552 664.43 256.863C664.961 257.18 665.721 257.339 666.711 257.339C667.429 257.339 668.06 257.232 668.603 257.018C669.147 256.811 669.567 256.536 669.865 256.193C670.162 255.857 670.311 255.495 670.311 255.106C670.311 254.841 670.214 254.615 670.02 254.427C669.833 254.246 669.545 254.155 669.156 254.155H665.74C665.106 254.155 664.547 254.058 664.061 253.864C663.582 253.664 663.207 253.402 662.935 253.078C662.664 252.755 662.528 252.395 662.528 252.001C662.528 251.613 662.638 251.279 662.858 251.001C663.078 250.716 663.369 250.503 663.731 250.361C664.094 250.212 664.492 250.137 664.925 250.137L665.342 250.778C665.155 250.778 664.967 250.82 664.779 250.904C664.592 250.982 664.437 251.101 664.314 251.263C664.191 251.425 664.129 251.626 664.129 251.865C664.129 252.143 664.246 252.376 664.479 252.564C664.718 252.745 665.139 252.835 665.74 252.835H669.156C670.088 252.835 670.819 253.02 671.35 253.389C671.88 253.757 672.146 254.294 672.146 255C672.146 255.64 671.926 256.252 671.486 256.834C671.046 257.416 670.418 257.892 669.603 258.26C668.794 258.629 667.83 258.814 666.711 258.814ZM666.915 251.195C666.19 251.195 665.53 251.056 664.935 250.778C664.346 250.493 663.877 250.099 663.527 249.594C663.178 249.083 663.003 248.488 663.003 247.808C663.003 247.122 663.178 246.527 663.527 246.022C663.877 245.511 664.346 245.117 664.935 244.838C665.53 244.554 666.19 244.411 666.915 244.411C667.62 244.411 668.264 244.554 668.846 244.838C669.435 245.117 669.904 245.511 670.253 246.022C670.609 246.527 670.787 247.122 670.787 247.808C670.787 248.488 670.609 249.083 670.253 249.594C669.904 250.099 669.435 250.493 668.846 250.778C668.264 251.056 667.62 251.195 666.915 251.195ZM666.915 249.895C667.581 249.895 668.089 249.697 668.438 249.303C668.794 248.902 668.972 248.403 668.972 247.808C668.972 247.187 668.794 246.686 668.438 246.304C668.089 245.922 667.581 245.731 666.915 245.731C666.261 245.731 665.75 245.922 665.381 246.304C665.019 246.686 664.838 247.187 664.838 247.808C664.838 248.403 665.019 248.902 665.381 249.303C665.75 249.697 666.261 249.895 666.915 249.895ZM670.088 245.906L669.224 245.489C669.224 244.932 669.341 244.447 669.574 244.033C669.807 243.619 670.13 243.295 670.544 243.062C670.958 242.83 671.434 242.713 671.971 242.713L671.854 244.509C671.279 244.509 670.839 244.622 670.535 244.848C670.237 245.075 670.088 245.427 670.088 245.906ZM680.439 254V248.526C680.439 247.718 680.245 247.106 679.856 246.692C679.475 246.272 678.957 246.061 678.304 246.061C677.786 246.061 677.333 246.204 676.945 246.488C676.563 246.767 676.266 247.177 676.052 247.721C675.845 248.258 675.742 248.915 675.742 249.691H675.082C675.082 248.546 675.227 247.582 675.518 246.799C675.816 246.016 676.24 245.424 676.79 245.023C677.34 244.615 678 244.411 678.77 244.411C679.52 244.411 680.154 244.58 680.672 244.916C681.196 245.253 681.594 245.731 681.865 246.352C682.137 246.967 682.273 247.692 682.273 248.526V254H680.439ZM673.898 254V244.664H675.499L675.742 246.682V254H673.898ZM695.403 254L695.17 251.855V247.963C695.17 247.2 695.011 246.647 694.694 246.304C694.377 245.955 693.876 245.78 693.19 245.78C692.802 245.78 692.456 245.838 692.152 245.955C691.854 246.065 691.618 246.233 691.443 246.459C691.275 246.686 691.191 246.97 691.191 247.313H689.153C689.153 246.627 689.321 246.071 689.657 245.644C689.994 245.217 690.463 244.906 691.065 244.712C691.673 244.512 692.381 244.411 693.19 244.411C693.947 244.411 694.613 244.538 695.189 244.79C695.765 245.036 696.212 245.424 696.529 245.955C696.852 246.485 697.014 247.171 697.014 248.012V254H695.403ZM692.278 254.252C691.495 254.252 690.845 254.116 690.327 253.845C689.81 253.567 689.421 253.204 689.163 252.758C688.91 252.311 688.784 251.836 688.784 251.331C688.784 250.716 688.939 250.212 689.25 249.817C689.567 249.416 690.004 249.118 690.56 248.924C691.116 248.73 691.757 248.633 692.482 248.633C692.98 248.633 693.465 248.678 693.937 248.769C694.41 248.86 694.876 248.979 695.335 249.128V250.244C694.96 250.108 694.542 250.002 694.083 249.924C693.63 249.84 693.206 249.798 692.812 249.798C692.223 249.798 691.731 249.914 691.336 250.147C690.942 250.38 690.744 250.775 690.744 251.331C690.744 251.739 690.9 252.091 691.21 252.389C691.521 252.68 692.013 252.826 692.685 252.826C693.177 252.826 693.611 252.716 693.986 252.496C694.361 252.269 694.652 251.988 694.859 251.651C695.066 251.315 695.17 250.979 695.17 250.642H695.616C695.616 251.289 695.484 251.888 695.218 252.437C694.96 252.981 694.581 253.421 694.083 253.757C693.585 254.087 692.983 254.252 692.278 254.252ZM706.582 254V248.526C706.582 247.718 706.388 247.106 705.999 246.692C705.618 246.272 705.1 246.061 704.447 246.061C703.929 246.061 703.476 246.204 703.088 246.488C702.706 246.767 702.408 247.177 702.195 247.721C701.988 248.258 701.884 248.915 701.884 249.691H701.224C701.224 248.546 701.37 247.582 701.661 246.799C701.959 246.016 702.383 245.424 702.933 245.023C703.482 244.615 704.142 244.411 704.912 244.411C705.663 244.411 706.297 244.58 706.815 244.916C707.339 245.253 707.737 245.731 708.008 246.352C708.28 246.967 708.416 247.692 708.416 248.526V254H706.582ZM700.04 254V244.664H701.642L701.884 246.682V254H700.04ZM721.546 254L721.313 251.855V247.963C721.313 247.2 721.154 246.647 720.837 246.304C720.52 245.955 720.019 245.78 719.333 245.78C718.945 245.78 718.599 245.838 718.294 245.955C717.997 246.065 717.761 246.233 717.586 246.459C717.418 246.686 717.334 246.97 717.334 247.313H715.296C715.296 246.627 715.464 246.071 715.8 245.644C716.137 245.217 716.606 244.906 717.208 244.712C717.816 244.512 718.524 244.411 719.333 244.411C720.09 244.411 720.756 244.538 721.332 244.79C721.908 245.036 722.354 245.424 722.671 245.955C722.995 246.485 723.157 247.171 723.157 248.012V254H721.546ZM718.421 254.252C717.638 254.252 716.988 254.116 716.47 253.845C715.952 253.567 715.564 253.204 715.305 252.758C715.053 252.311 714.927 251.836 714.927 251.331C714.927 250.716 715.082 250.212 715.393 249.817C715.71 249.416 716.146 249.118 716.703 248.924C717.259 248.73 717.9 248.633 718.624 248.633C719.123 248.633 719.608 248.678 720.08 248.769C720.553 248.86 721.018 248.979 721.478 249.128V250.244C721.102 250.108 720.685 250.002 720.226 249.924C719.773 249.84 719.349 249.798 718.954 249.798C718.366 249.798 717.874 249.914 717.479 250.147C717.085 250.38 716.887 250.775 716.887 251.331C716.887 251.739 717.043 252.091 717.353 252.389C717.664 252.68 718.155 252.826 718.828 252.826C719.32 252.826 719.753 252.716 720.129 252.496C720.504 252.269 720.795 251.988 721.002 251.651C721.209 251.315 721.313 250.979 721.313 250.642H721.759C721.759 251.289 721.627 251.888 721.361 252.437C721.102 252.981 720.724 253.421 720.226 253.757C719.728 254.087 719.126 254.252 718.421 254.252ZM730.609 254.252C729.929 254.252 729.341 254.1 728.842 253.796C728.344 253.486 727.963 253.033 727.697 252.437C727.438 251.836 727.309 251.092 727.309 250.205H728.027C728.027 250.716 728.137 251.15 728.357 251.506C728.577 251.855 728.865 252.124 729.221 252.311C729.583 252.492 729.968 252.583 730.376 252.583C730.803 252.583 731.217 252.463 731.618 252.224C732.026 251.978 732.359 251.613 732.618 251.127C732.877 250.642 733.006 250.04 733.006 249.322C733.006 248.636 732.889 248.051 732.657 247.566C732.43 247.08 732.12 246.708 731.725 246.45C731.33 246.191 730.887 246.061 730.395 246.061C729.981 246.061 729.593 246.162 729.231 246.362C728.868 246.556 728.577 246.844 728.357 247.226C728.137 247.601 728.027 248.061 728.027 248.604H727.309C727.309 247.666 727.458 246.886 727.756 246.265C728.06 245.644 728.467 245.181 728.978 244.877C729.489 244.567 730.056 244.411 730.677 244.411C731.408 244.411 732.094 244.609 732.734 245.003C733.375 245.392 733.892 245.951 734.287 246.682C734.688 247.414 734.889 248.293 734.889 249.322C734.889 250.351 734.688 251.234 734.287 251.972C733.886 252.709 733.359 253.275 732.705 253.67C732.058 254.058 731.359 254.252 730.609 254.252ZM726.183 258.581V244.664H727.707L728.027 246.906V258.581H726.183ZM741.686 254.252C741.007 254.252 740.418 254.1 739.92 253.796C739.422 253.486 739.04 253.033 738.775 252.437C738.516 251.836 738.386 251.092 738.386 250.205H739.105C739.105 250.716 739.215 251.15 739.435 251.506C739.655 251.855 739.942 252.124 740.298 252.311C740.661 252.492 741.046 252.583 741.453 252.583C741.88 252.583 742.294 252.463 742.695 252.224C743.103 251.978 743.436 251.613 743.695 251.127C743.954 250.642 744.083 250.04 744.083 249.322C744.083 248.636 743.967 248.051 743.734 247.566C743.507 247.08 743.197 246.708 742.802 246.45C742.408 246.191 741.964 246.061 741.473 246.061C741.059 246.061 740.67 246.162 740.308 246.362C739.946 246.556 739.655 246.844 739.435 247.226C739.215 247.601 739.105 248.061 739.105 248.604H738.386C738.386 247.666 738.535 246.886 738.833 246.265C739.137 245.644 739.545 245.181 740.056 244.877C740.567 244.567 741.133 244.411 741.754 244.411C742.485 244.411 743.171 244.609 743.812 245.003C744.452 245.392 744.97 245.951 745.364 246.682C745.765 247.414 745.966 248.293 745.966 249.322C745.966 250.351 745.765 251.234 745.364 251.972C744.963 252.709 744.436 253.275 743.782 253.67C743.135 254.058 742.437 254.252 741.686 254.252ZM737.261 258.581V244.664H738.784L739.105 246.906V258.581H737.261ZM755.59 254.252C755.06 254.252 754.581 254.152 754.154 253.951C753.727 253.751 753.387 253.45 753.135 253.049C752.889 252.641 752.766 252.13 752.766 251.516V242.121H754.6V251.457C754.6 252.337 755.011 252.777 755.833 252.777C756.085 252.777 756.331 252.751 756.571 252.7C756.81 252.641 757.082 252.557 757.386 252.447L757.648 253.757C757.305 253.9 756.965 254.016 756.629 254.107C756.299 254.204 755.953 254.252 755.59 254.252ZM751.34 245.916V244.664H757.366V245.916H751.34ZM766.097 254V248.526C766.097 247.718 765.903 247.106 765.514 246.692C765.133 246.272 764.615 246.061 763.962 246.061C763.444 246.061 762.991 246.204 762.603 246.488C762.221 246.767 761.924 247.177 761.71 247.721C761.503 248.258 761.4 248.915 761.4 249.691H760.74C760.74 248.546 760.885 247.582 761.176 246.799C761.474 246.016 761.898 245.424 762.448 245.023C762.998 244.615 763.658 244.411 764.428 244.411C765.178 244.411 765.812 244.58 766.33 244.916C766.854 245.253 767.252 245.731 767.523 246.352C767.795 246.967 767.931 247.692 767.931 248.526V254H766.097ZM759.556 254V240.733H761.4V254H759.556ZM776.807 254L776.574 251.855V247.963C776.574 247.2 776.416 246.647 776.099 246.304C775.782 245.955 775.28 245.78 774.595 245.78C774.206 245.78 773.86 245.838 773.556 245.955C773.258 246.065 773.022 246.233 772.848 246.459C772.679 246.686 772.595 246.97 772.595 247.313H770.557C770.557 246.627 770.725 246.071 771.062 245.644C771.398 245.217 771.867 244.906 772.469 244.712C773.077 244.512 773.786 244.411 774.595 244.411C775.352 244.411 776.018 244.538 776.594 244.79C777.17 245.036 777.616 245.424 777.933 245.955C778.257 246.485 778.418 247.171 778.418 248.012V254H776.807ZM773.682 254.252C772.899 254.252 772.249 254.116 771.732 253.845C771.214 253.567 770.826 253.204 770.567 252.758C770.315 252.311 770.188 251.836 770.188 251.331C770.188 250.716 770.344 250.212 770.654 249.817C770.971 249.416 771.408 249.118 771.964 248.924C772.521 248.73 773.161 248.633 773.886 248.633C774.384 248.633 774.87 248.678 775.342 248.769C775.814 248.86 776.28 248.979 776.739 249.128V250.244C776.364 250.108 775.947 250.002 775.487 249.924C775.035 249.84 774.611 249.798 774.216 249.798C773.627 249.798 773.136 249.914 772.741 250.147C772.346 250.38 772.149 250.775 772.149 251.331C772.149 251.739 772.304 252.091 772.615 252.389C772.925 252.68 773.417 252.826 774.09 252.826C774.582 252.826 775.015 252.716 775.39 252.496C775.766 252.269 776.057 251.988 776.264 251.651C776.471 251.315 776.574 250.979 776.574 250.642H777.021C777.021 251.289 776.888 251.888 776.623 252.437C776.364 252.981 775.986 253.421 775.487 253.757C774.989 254.087 774.388 254.252 773.682 254.252ZM784.444 254.252C783.913 254.252 783.434 254.152 783.007 253.951C782.58 253.751 782.241 253.45 781.988 253.049C781.743 252.641 781.62 252.13 781.62 251.516V242.121H783.454V251.457C783.454 252.337 783.865 252.777 784.686 252.777C784.939 252.777 785.185 252.751 785.424 252.7C785.663 252.641 785.935 252.557 786.239 252.447L786.501 253.757C786.158 253.9 785.819 254.016 785.482 254.107C785.152 254.204 784.806 254.252 784.444 254.252ZM780.193 245.916V244.664H786.22V245.916H780.193ZM797.156 254.252C796.548 254.252 795.995 254.091 795.496 253.767C795.005 253.437 794.61 252.952 794.312 252.311C794.021 251.671 793.876 250.885 793.876 249.953H794.507C794.507 250.496 794.623 250.966 794.856 251.36C795.095 251.755 795.399 252.059 795.768 252.273C796.137 252.48 796.522 252.583 796.923 252.583C797.402 252.583 797.832 252.45 798.214 252.185C798.602 251.92 798.909 251.541 799.136 251.05C799.369 250.551 799.485 249.966 799.485 249.293C799.485 248.627 799.372 248.054 799.145 247.575C798.919 247.09 798.612 246.718 798.224 246.459C797.835 246.194 797.395 246.061 796.904 246.061C796.49 246.061 796.098 246.162 795.729 246.362C795.367 246.563 795.073 246.86 794.846 247.255C794.62 247.643 794.507 248.119 794.507 248.682H793.876C793.876 247.769 794.018 246.996 794.303 246.362C794.587 245.728 794.982 245.246 795.487 244.916C795.998 244.58 796.596 244.411 797.282 244.411C798.026 244.411 798.706 244.612 799.32 245.013C799.941 245.408 800.436 245.971 800.805 246.702C801.18 247.433 801.368 248.297 801.368 249.293C801.368 250.296 801.177 251.169 800.795 251.913C800.414 252.651 799.902 253.227 799.262 253.641C798.628 254.049 797.926 254.252 797.156 254.252ZM792.663 254V240.733H794.507V251.758L793.915 254H792.663ZM807.202 254.252C806.4 254.252 805.675 254.045 805.028 253.631C804.381 253.217 803.867 252.641 803.485 251.904C803.11 251.166 802.922 250.312 802.922 249.342C802.922 248.313 803.11 247.433 803.485 246.702C803.86 245.964 804.371 245.398 805.018 245.003C805.665 244.609 806.393 244.411 807.202 244.411C807.926 244.411 808.548 244.56 809.065 244.858C809.583 245.149 810 245.544 810.317 246.042C810.634 246.534 810.851 247.093 810.967 247.721C811.09 248.348 811.113 248.995 811.035 249.662H804.397V248.594H809.774L809.327 248.885C809.347 248.536 809.327 248.187 809.269 247.837C809.217 247.488 809.114 247.168 808.958 246.877C808.803 246.579 808.583 246.343 808.298 246.168C808.02 245.987 807.664 245.896 807.231 245.896C806.687 245.896 806.231 246.032 805.863 246.304C805.5 246.576 805.225 246.941 805.038 247.401C804.85 247.853 804.756 248.352 804.756 248.895V249.642C804.756 250.244 804.847 250.778 805.028 251.244C805.209 251.71 805.478 252.078 805.833 252.35C806.196 252.615 806.652 252.748 807.202 252.748C807.739 252.748 808.182 252.622 808.531 252.37C808.887 252.117 809.107 251.739 809.191 251.234H811.074C810.977 251.842 810.754 252.373 810.404 252.826C810.055 253.279 809.605 253.631 809.055 253.884C808.512 254.129 807.894 254.252 807.202 254.252ZM816.888 254.252C815.982 254.252 815.218 254.126 814.597 253.874C813.976 253.615 813.501 253.259 813.171 252.806C812.847 252.347 812.679 251.81 812.666 251.195H814.403C814.429 251.732 814.642 252.13 815.044 252.389C815.451 252.648 816.001 252.777 816.693 252.777C817.062 252.777 817.395 252.719 817.693 252.602C817.997 252.486 818.237 252.328 818.411 252.127C818.592 251.926 818.683 251.7 818.683 251.448C818.683 251.131 818.567 250.881 818.334 250.7C818.101 250.513 817.725 250.348 817.208 250.205L815.296 249.555C814.532 249.296 813.947 248.953 813.539 248.526C813.132 248.093 812.928 247.575 812.928 246.974C812.928 246.204 813.271 245.586 813.957 245.12C814.642 244.648 815.551 244.411 816.684 244.411C817.855 244.411 818.757 244.661 819.391 245.159C820.032 245.65 820.365 246.268 820.391 247.012H818.615C818.57 246.644 818.385 246.362 818.062 246.168C817.745 245.967 817.285 245.867 816.684 245.867C816.121 245.867 815.678 245.99 815.354 246.236C815.037 246.482 814.879 246.76 814.879 247.071C814.879 247.627 815.357 248.041 816.315 248.313L818.324 249.021C819.087 249.267 819.676 249.584 820.09 249.972C820.504 250.361 820.711 250.852 820.711 251.448C820.711 251.926 820.553 252.379 820.236 252.806C819.919 253.233 819.472 253.583 818.896 253.854C818.327 254.12 817.657 254.252 816.888 254.252ZM826.202 254.252C825.671 254.252 825.192 254.152 824.765 253.951C824.338 253.751 823.999 253.45 823.746 253.049C823.501 252.641 823.378 252.13 823.378 251.516V242.121H825.212V251.457C825.212 252.337 825.623 252.777 826.444 252.777C826.697 252.777 826.943 252.751 827.182 252.7C827.421 252.641 827.693 252.557 827.997 252.447L828.259 253.757C827.916 253.9 827.577 254.016 827.24 254.107C826.91 254.204 826.564 254.252 826.202 254.252ZM821.951 245.916V244.664H827.978V245.916H821.951ZM837.934 254.252C837.086 254.252 836.326 254.068 835.653 253.699C834.987 253.33 834.459 252.78 834.071 252.049C833.683 251.318 833.489 250.416 833.489 249.342C833.489 248.248 833.683 247.339 834.071 246.614C834.459 245.883 834.987 245.333 835.653 244.965C836.326 244.596 837.086 244.411 837.934 244.411C838.768 244.411 839.519 244.596 840.185 244.965C840.852 245.333 841.376 245.883 841.758 246.614C842.146 247.339 842.34 248.248 842.34 249.342C842.34 250.416 842.146 251.318 841.758 252.049C841.376 252.78 840.852 253.33 840.185 253.699C839.519 254.068 838.768 254.252 837.934 254.252ZM837.876 252.641C838.413 252.641 838.875 252.512 839.263 252.253C839.658 251.994 839.959 251.619 840.166 251.127C840.379 250.629 840.486 250.034 840.486 249.342C840.486 248.281 840.269 247.459 839.836 246.877C839.409 246.294 838.791 246.003 837.982 246.003C837.439 246.003 836.97 246.136 836.575 246.401C836.187 246.66 835.886 247.038 835.672 247.536C835.465 248.028 835.362 248.63 835.362 249.342C835.362 250.383 835.579 251.195 836.012 251.778C836.446 252.353 837.067 252.641 837.876 252.641ZM849.127 254.252C848.448 254.252 847.859 254.1 847.361 253.796C846.863 253.486 846.481 253.033 846.216 252.437C845.957 251.836 845.828 251.092 845.828 250.205H846.546C846.546 250.716 846.656 251.15 846.876 251.506C847.096 251.855 847.384 252.124 847.739 252.311C848.102 252.492 848.487 252.583 848.894 252.583C849.321 252.583 849.735 252.463 850.137 252.224C850.544 251.978 850.877 251.613 851.136 251.127C851.395 250.642 851.524 250.04 851.524 249.322C851.524 248.636 851.408 248.051 851.175 247.566C850.949 247.08 850.638 246.708 850.243 246.45C849.849 246.191 849.405 246.061 848.914 246.061C848.5 246.061 848.111 246.162 847.749 246.362C847.387 246.556 847.096 246.844 846.876 247.226C846.656 247.601 846.546 248.061 846.546 248.604H845.828C845.828 247.666 845.976 246.886 846.274 246.265C846.578 245.644 846.986 245.181 847.497 244.877C848.008 244.567 848.574 244.411 849.195 244.411C849.926 244.411 850.612 244.609 851.253 245.003C851.893 245.392 852.411 245.951 852.805 246.682C853.207 247.414 853.407 248.293 853.407 249.322C853.407 250.351 853.207 251.234 852.805 251.972C852.404 252.709 851.877 253.275 851.224 253.67C850.577 254.058 849.878 254.252 849.127 254.252ZM844.702 258.581V244.664H846.225L846.546 246.906V258.581H844.702ZM858.778 254.252C858.247 254.252 857.769 254.152 857.342 253.951C856.915 253.751 856.575 253.45 856.323 253.049C856.077 252.641 855.954 252.13 855.954 251.516V242.121H857.788V251.457C857.788 252.337 858.199 252.777 859.021 252.777C859.273 252.777 859.519 252.751 859.758 252.7C859.998 252.641 860.269 252.557 860.573 252.447L860.835 253.757C860.493 253.9 860.153 254.016 859.816 254.107C859.486 254.204 859.14 254.252 858.778 254.252ZM854.527 245.916V244.664H860.554V245.916H854.527ZM863.811 242.674C863.442 242.674 863.151 242.574 862.937 242.373C862.73 242.166 862.627 241.888 862.627 241.539C862.627 241.202 862.73 240.937 862.937 240.743C863.151 240.542 863.442 240.442 863.811 240.442C864.173 240.442 864.458 240.542 864.665 240.743C864.878 240.937 864.985 241.202 864.985 241.539C864.985 241.888 864.878 242.166 864.665 242.373C864.458 242.574 864.173 242.674 863.811 242.674ZM862.889 254V244.635H864.733V254H862.889ZM881.222 254V248.526C881.222 247.718 881.028 247.106 880.64 246.692C880.258 246.272 879.744 246.061 879.097 246.061C878.321 246.061 877.719 246.365 877.292 246.974C876.871 247.582 876.661 248.455 876.661 249.594H875.856C875.856 248.695 875.943 247.918 876.118 247.265C876.292 246.611 876.541 246.074 876.865 245.654C877.195 245.233 877.586 244.923 878.039 244.722C878.499 244.515 879.01 244.411 879.573 244.411C880.323 244.411 880.957 244.58 881.475 244.916C881.999 245.253 882.397 245.731 882.669 246.352C882.94 246.967 883.076 247.692 883.076 248.526V254H881.222ZM868.286 254V244.664H869.887L870.091 246.42C870.388 245.767 870.796 245.269 871.314 244.926C871.838 244.583 872.452 244.411 873.158 244.411C873.908 244.411 874.542 244.58 875.06 244.916C875.584 245.253 875.982 245.731 876.254 246.352C876.525 246.967 876.661 247.692 876.661 248.526V254H874.827V248.526C874.827 247.718 874.633 247.106 874.245 246.692C873.863 246.272 873.345 246.061 872.692 246.061C872.174 246.061 871.721 246.204 871.333 246.488C870.951 246.767 870.654 247.177 870.44 247.721C870.233 248.258 870.13 248.915 870.13 249.691V254H868.286ZM887.141 242.674C886.772 242.674 886.481 242.574 886.267 242.373C886.06 242.166 885.957 241.888 885.957 241.539C885.957 241.202 886.06 240.937 886.267 240.743C886.481 240.542 886.772 240.442 887.141 240.442C887.503 240.442 887.788 240.542 887.995 240.743C888.208 240.937 888.315 241.202 888.315 241.539C888.315 241.888 888.208 242.166 887.995 242.373C887.788 242.574 887.503 242.674 887.141 242.674ZM886.219 254V244.635H888.063V254H886.219ZM890.781 254V252.505L896.012 246.149H890.781V244.664H898.069V246.149L892.955 252.505H898.069V254H890.781ZM903.861 254.252C903.059 254.252 902.334 254.045 901.687 253.631C901.04 253.217 900.526 252.641 900.144 251.904C899.769 251.166 899.581 250.312 899.581 249.342C899.581 248.313 899.769 247.433 900.144 246.702C900.52 245.964 901.031 245.398 901.678 245.003C902.325 244.609 903.053 244.411 903.861 244.411C904.586 244.411 905.207 244.56 905.725 244.858C906.242 245.149 906.66 245.544 906.977 246.042C907.294 246.534 907.51 247.093 907.627 247.721C907.75 248.348 907.772 248.995 907.695 249.662H901.057V248.594H906.433L905.987 248.885C906.006 248.536 905.987 248.187 905.929 247.837C905.877 247.488 905.773 247.168 905.618 246.877C905.463 246.579 905.243 246.343 904.958 246.168C904.68 245.987 904.324 245.896 903.89 245.896C903.347 245.896 902.891 246.032 902.522 246.304C902.16 246.576 901.885 246.941 901.697 247.401C901.51 247.853 901.416 248.352 901.416 248.895V249.642C901.416 250.244 901.506 250.778 901.687 251.244C901.869 251.71 902.137 252.078 902.493 252.35C902.855 252.615 903.311 252.748 903.861 252.748C904.398 252.748 904.842 252.622 905.191 252.37C905.547 252.117 905.767 251.739 905.851 251.234H907.734C907.637 251.842 907.413 252.373 907.064 252.826C906.715 253.279 906.265 253.631 905.715 253.884C905.172 254.129 904.554 254.252 903.861 254.252ZM913.547 254.252C912.641 254.252 911.878 254.126 911.257 253.874C910.636 253.615 910.16 253.259 909.83 252.806C909.507 252.347 909.338 251.81 909.325 251.195H911.063C911.088 251.732 911.302 252.13 911.703 252.389C912.111 252.648 912.661 252.777 913.353 252.777C913.722 252.777 914.055 252.719 914.353 252.602C914.657 252.486 914.896 252.328 915.071 252.127C915.252 251.926 915.343 251.7 915.343 251.448C915.343 251.131 915.226 250.881 914.993 250.7C914.76 250.513 914.385 250.348 913.867 250.205L911.955 249.555C911.192 249.296 910.606 248.953 910.199 248.526C909.791 248.093 909.587 247.575 909.587 246.974C909.587 246.204 909.93 245.586 910.616 245.12C911.302 244.648 912.211 244.411 913.343 244.411C914.514 244.411 915.417 244.661 916.051 245.159C916.692 245.65 917.025 246.268 917.051 247.012H915.275C915.229 246.644 915.045 246.362 914.721 246.168C914.404 245.967 913.945 245.867 913.343 245.867C912.78 245.867 912.337 245.99 912.014 246.236C911.697 246.482 911.538 246.76 911.538 247.071C911.538 247.627 912.017 248.041 912.975 248.313L914.983 249.021C915.747 249.267 916.336 249.584 916.75 249.972C917.164 250.361 917.371 250.852 917.371 251.448C917.371 251.926 917.212 252.379 916.895 252.806C916.578 253.233 916.132 253.583 915.556 253.854C914.987 254.12 914.317 254.252 913.547 254.252ZM928.609 254.252C928.001 254.252 927.448 254.091 926.95 253.767C926.458 253.437 926.063 252.952 925.766 252.311C925.475 251.671 925.329 250.885 925.329 249.953H925.96C925.96 250.496 926.076 250.966 926.309 251.36C926.549 251.755 926.853 252.059 927.222 252.273C927.59 252.48 927.975 252.583 928.376 252.583C928.855 252.583 929.286 252.45 929.667 252.185C930.055 251.92 930.363 251.541 930.589 251.05C930.822 250.551 930.939 249.966 930.939 249.293C930.939 248.627 930.825 248.054 930.599 247.575C930.372 247.09 930.065 246.718 929.677 246.459C929.289 246.194 928.849 246.061 928.357 246.061C927.943 246.061 927.552 246.162 927.183 246.362C926.82 246.563 926.526 246.86 926.3 247.255C926.073 247.643 925.96 248.119 925.96 248.682H925.329C925.329 247.769 925.471 246.996 925.756 246.362C926.041 245.728 926.435 245.246 926.94 244.916C927.451 244.58 928.05 244.411 928.736 244.411C929.48 244.411 930.159 244.612 930.774 245.013C931.395 245.408 931.89 245.971 932.258 246.702C932.634 247.433 932.821 248.297 932.821 249.293C932.821 250.296 932.631 251.169 932.249 251.913C931.867 252.651 931.356 253.227 930.715 253.641C930.081 254.049 929.379 254.252 928.609 254.252ZM924.116 254V240.733H925.96V251.758L925.368 254H924.116ZM938.82 254.252C937.973 254.252 937.213 254.068 936.54 253.699C935.873 253.33 935.346 252.78 934.958 252.049C934.57 251.318 934.375 250.416 934.375 249.342C934.375 248.248 934.57 247.339 934.958 246.614C935.346 245.883 935.873 245.333 936.54 244.965C937.213 244.596 937.973 244.411 938.82 244.411C939.655 244.411 940.405 244.596 941.072 244.965C941.738 245.333 942.262 245.883 942.644 246.614C943.032 247.339 943.226 248.248 943.226 249.342C943.226 250.416 943.032 251.318 942.644 252.049C942.262 252.78 941.738 253.33 941.072 253.699C940.405 254.068 939.655 254.252 938.82 254.252ZM938.762 252.641C939.299 252.641 939.762 252.512 940.15 252.253C940.545 251.994 940.845 251.619 941.052 251.127C941.266 250.629 941.373 250.034 941.373 249.342C941.373 248.281 941.156 247.459 940.722 246.877C940.295 246.294 939.678 246.003 938.869 246.003C938.325 246.003 937.856 246.136 937.462 246.401C937.073 246.66 936.773 247.038 936.559 247.536C936.352 248.028 936.248 248.63 936.248 249.342C936.248 250.383 936.465 251.195 936.899 251.778C937.332 252.353 937.953 252.641 938.762 252.641ZM948.587 254.252C948.057 254.252 947.578 254.152 947.151 253.951C946.724 253.751 946.384 253.45 946.132 253.049C945.886 252.641 945.763 252.13 945.763 251.516V242.121H947.597V251.457C947.597 252.337 948.008 252.777 948.83 252.777C949.082 252.777 949.328 252.751 949.567 252.7C949.807 252.641 950.079 252.557 950.383 252.447L950.645 253.757C950.302 253.9 949.962 254.016 949.626 254.107C949.296 254.204 948.95 254.252 948.587 254.252ZM944.336 245.916V244.664H950.363V245.916H944.336ZM959.094 254V248.526C959.094 247.718 958.899 247.106 958.511 246.692C958.13 246.272 957.612 246.061 956.958 246.061C956.441 246.061 955.988 246.204 955.6 246.488C955.218 246.767 954.92 247.177 954.707 247.721C954.5 248.258 954.396 248.915 954.396 249.691H953.736C953.736 248.546 953.882 247.582 954.173 246.799C954.471 246.016 954.895 245.424 955.444 245.023C955.994 244.615 956.654 244.411 957.424 244.411C958.175 244.411 958.809 244.58 959.326 244.916C959.851 245.253 960.248 245.731 960.52 246.352C960.792 246.967 960.928 247.692 960.928 248.526V254H959.094ZM952.552 254V240.733H954.396V254H952.552ZM539.335 286.252C538.726 286.252 538.173 286.091 537.675 285.767C537.183 285.437 536.789 284.952 536.491 284.311C536.2 283.671 536.054 282.885 536.054 281.953H536.685C536.685 282.496 536.802 282.966 537.035 283.36C537.274 283.755 537.578 284.059 537.947 284.273C538.316 284.48 538.701 284.583 539.102 284.583C539.581 284.583 540.011 284.45 540.393 284.185C540.781 283.92 541.088 283.541 541.314 283.05C541.547 282.551 541.664 281.966 541.664 281.293C541.664 280.627 541.551 280.054 541.324 279.575C541.098 279.09 540.79 278.718 540.402 278.459C540.014 278.194 539.574 278.061 539.082 278.061C538.668 278.061 538.277 278.162 537.908 278.362C537.546 278.563 537.251 278.86 537.025 279.255C536.798 279.643 536.685 280.119 536.685 280.682H536.054C536.054 279.769 536.197 278.996 536.481 278.362C536.766 277.728 537.161 277.246 537.665 276.916C538.177 276.58 538.775 276.411 539.461 276.411C540.205 276.411 540.884 276.612 541.499 277.013C542.12 277.408 542.615 277.971 542.984 278.702C543.359 279.433 543.547 280.297 543.547 281.293C543.547 282.296 543.356 283.169 542.974 283.913C542.592 284.651 542.081 285.227 541.441 285.641C540.807 286.049 540.105 286.252 539.335 286.252ZM534.841 286V272.733H536.685V283.758L536.093 286H534.841ZM547.1 274.674C546.731 274.674 546.44 274.574 546.226 274.373C546.019 274.166 545.916 273.888 545.916 273.539C545.916 273.202 546.019 272.937 546.226 272.743C546.44 272.542 546.731 272.442 547.1 272.442C547.462 272.442 547.747 272.542 547.954 272.743C548.167 272.937 548.274 273.202 548.274 273.539C548.274 273.888 548.167 274.166 547.954 274.373C547.747 274.574 547.462 274.674 547.1 274.674ZM546.178 286V276.635H548.022V286H546.178ZM551.575 286V272.733H553.419V286H551.575ZM553.157 280.458L557.592 276.664H560.125L553.157 282.39V280.458ZM558.097 286L553.768 280.08L555.573 279.701L560.348 286H558.097ZM565.602 286.252C564.8 286.252 564.075 286.045 563.428 285.631C562.781 285.217 562.267 284.641 561.885 283.904C561.51 283.166 561.322 282.312 561.322 281.342C561.322 280.313 561.51 279.433 561.885 278.702C562.261 277.964 562.772 277.398 563.419 277.003C564.066 276.609 564.794 276.411 565.602 276.411C566.327 276.411 566.948 276.56 567.466 276.858C567.983 277.149 568.401 277.544 568.718 278.042C569.035 278.534 569.251 279.093 569.368 279.721C569.491 280.348 569.513 280.995 569.436 281.662H562.798V280.594H568.174L567.728 280.885C567.747 280.536 567.728 280.187 567.669 279.837C567.618 279.488 567.514 279.168 567.359 278.877C567.204 278.579 566.984 278.343 566.699 278.168C566.421 277.987 566.065 277.896 565.631 277.896C565.088 277.896 564.632 278.032 564.263 278.304C563.901 278.576 563.626 278.941 563.438 279.401C563.25 279.853 563.157 280.352 563.157 280.895V281.642C563.157 282.244 563.247 282.778 563.428 283.244C563.61 283.71 563.878 284.078 564.234 284.35C564.596 284.615 565.052 284.748 565.602 284.748C566.139 284.748 566.583 284.622 566.932 284.37C567.288 284.117 567.508 283.739 567.592 283.234H569.475C569.378 283.842 569.154 284.373 568.805 284.826C568.456 285.279 568.006 285.631 567.456 285.884C566.912 286.129 566.295 286.252 565.602 286.252ZM579.124 286.252C578.594 286.252 578.115 286.152 577.688 285.951C577.261 285.751 576.921 285.45 576.669 285.049C576.423 284.641 576.3 284.13 576.3 283.516V274.121H578.134V283.457C578.134 284.337 578.545 284.777 579.367 284.777C579.619 284.777 579.865 284.751 580.104 284.7C580.344 284.641 580.616 284.557 580.92 284.447L581.182 285.757C580.839 285.9 580.499 286.016 580.163 286.107C579.833 286.204 579.487 286.252 579.124 286.252ZM574.873 277.916V276.664H580.9V277.916H574.873ZM583.09 286V276.635H584.933V286H583.09ZM584.429 281.827C584.429 280.63 584.552 279.637 584.798 278.847C585.05 278.052 585.399 277.46 585.846 277.071C586.299 276.683 586.829 276.489 587.437 276.489C587.619 276.489 587.787 276.502 587.942 276.528C588.104 276.554 588.262 276.589 588.418 276.635L588.35 278.469C588.175 278.424 587.984 278.385 587.777 278.352C587.576 278.314 587.392 278.294 587.224 278.294C586.693 278.294 586.26 278.437 585.923 278.721C585.587 278.999 585.338 279.404 585.176 279.934C585.014 280.458 584.933 281.089 584.933 281.827H584.429ZM595.716 286L595.483 283.855V279.963C595.483 279.2 595.325 278.647 595.008 278.304C594.691 277.955 594.189 277.78 593.503 277.78C593.115 277.78 592.769 277.838 592.465 277.955C592.167 278.065 591.931 278.233 591.757 278.459C591.588 278.686 591.504 278.97 591.504 279.313H589.466C589.466 278.627 589.634 278.071 589.971 277.644C590.307 277.217 590.776 276.906 591.378 276.712C591.986 276.512 592.695 276.411 593.503 276.411C594.26 276.411 594.927 276.538 595.503 276.79C596.078 277.036 596.525 277.424 596.842 277.955C597.165 278.485 597.327 279.171 597.327 280.012V286H595.716ZM592.591 286.252C591.808 286.252 591.158 286.116 590.64 285.845C590.123 285.567 589.735 285.204 589.476 284.758C589.224 284.311 589.097 283.836 589.097 283.331C589.097 282.716 589.253 282.212 589.563 281.817C589.88 281.416 590.317 281.118 590.873 280.924C591.43 280.73 592.07 280.633 592.795 280.633C593.293 280.633 593.778 280.678 594.251 280.769C594.723 280.86 595.189 280.979 595.648 281.128V282.244C595.273 282.108 594.856 282.002 594.396 281.924C593.943 281.84 593.52 281.798 593.125 281.798C592.536 281.798 592.044 281.914 591.65 282.147C591.255 282.38 591.058 282.775 591.058 283.331C591.058 283.739 591.213 284.091 591.524 284.389C591.834 284.68 592.326 284.826 592.999 284.826C593.49 284.826 593.924 284.716 594.299 284.496C594.674 284.269 594.966 283.988 595.173 283.651C595.38 283.315 595.483 282.979 595.483 282.642H595.93C595.93 283.289 595.797 283.888 595.532 284.437C595.273 284.981 594.894 285.421 594.396 285.757C593.898 286.087 593.296 286.252 592.591 286.252ZM601.421 274.674C601.053 274.674 600.761 274.574 600.548 274.373C600.341 274.166 600.237 273.888 600.237 273.539C600.237 273.202 600.341 272.937 600.548 272.743C600.761 272.542 601.053 272.442 601.421 272.442C601.784 272.442 602.068 272.542 602.275 272.743C602.489 272.937 602.596 273.202 602.596 273.539C602.596 273.888 602.489 274.166 602.275 274.373C602.068 274.574 601.784 274.674 601.421 274.674ZM600.499 286V276.635H602.343V286H600.499ZM605.896 286V272.733H607.74V286H605.896ZM616.362 274.674C615.993 274.674 615.702 274.574 615.488 274.373C615.281 274.166 615.178 273.888 615.178 273.539C615.178 273.202 615.281 272.937 615.488 272.743C615.702 272.542 615.993 272.442 616.362 272.442C616.724 272.442 617.009 272.542 617.216 272.743C617.429 272.937 617.536 273.202 617.536 273.539C617.536 273.888 617.429 274.166 617.216 274.373C617.009 274.574 616.724 274.674 616.362 274.674ZM615.44 286V276.635H617.284V286H615.44ZM627.378 286V280.526C627.378 279.718 627.184 279.106 626.796 278.692C626.414 278.272 625.896 278.061 625.243 278.061C624.725 278.061 624.272 278.204 623.884 278.488C623.502 278.767 623.205 279.177 622.991 279.721C622.784 280.258 622.681 280.915 622.681 281.691H622.021C622.021 280.546 622.166 279.582 622.457 278.799C622.755 278.016 623.179 277.424 623.729 277.023C624.279 276.615 624.939 276.411 625.709 276.411C626.459 276.411 627.093 276.58 627.611 276.916C628.135 277.253 628.533 277.731 628.804 278.352C629.076 278.967 629.212 279.692 629.212 280.526V286H627.378ZM620.837 286V276.664H622.438L622.681 278.682V286H620.837ZM632.76 286V275.354C632.76 274.707 632.883 274.183 633.129 273.781C633.381 273.374 633.715 273.073 634.129 272.879C634.543 272.685 634.999 272.588 635.497 272.588C635.782 272.588 636.073 272.607 636.371 272.646C636.675 272.685 636.972 272.743 637.263 272.821L636.914 274.257C636.733 274.192 636.548 274.14 636.361 274.102C636.18 274.063 636.005 274.043 635.837 274.043C635.636 274.043 635.442 274.082 635.254 274.16C635.067 274.231 634.912 274.364 634.789 274.558C634.672 274.752 634.614 275.027 634.614 275.383V286H632.76ZM631.295 277.916V276.664H636.448V277.916H631.295ZM642.107 286.252C641.259 286.252 640.499 286.068 639.826 285.699C639.16 285.33 638.633 284.78 638.244 284.049C637.856 283.318 637.662 282.416 637.662 281.342C637.662 280.248 637.856 279.339 638.244 278.614C638.633 277.883 639.16 277.333 639.826 276.965C640.499 276.596 641.259 276.411 642.107 276.411C642.942 276.411 643.692 276.596 644.359 276.965C645.025 277.333 645.549 277.883 645.931 278.614C646.319 279.339 646.513 280.248 646.513 281.342C646.513 282.416 646.319 283.318 645.931 284.049C645.549 284.78 645.025 285.33 644.359 285.699C643.692 286.068 642.942 286.252 642.107 286.252ZM642.049 284.641C642.586 284.641 643.048 284.512 643.437 284.253C643.831 283.994 644.132 283.619 644.339 283.127C644.553 282.629 644.659 282.034 644.659 281.342C644.659 280.281 644.443 279.459 644.009 278.877C643.582 278.294 642.964 278.003 642.156 278.003C641.612 278.003 641.143 278.136 640.748 278.401C640.36 278.66 640.059 279.038 639.846 279.536C639.639 280.028 639.535 280.63 639.535 281.342C639.535 282.383 639.752 283.195 640.185 283.778C640.619 284.353 641.24 284.641 642.049 284.641ZM648.875 286V276.635H650.719V286H648.875ZM650.214 281.827C650.214 280.63 650.337 279.637 650.583 278.847C650.835 278.052 651.185 277.46 651.631 277.071C652.084 276.683 652.615 276.489 653.223 276.489C653.404 276.489 653.572 276.502 653.728 276.528C653.889 276.554 654.048 276.589 654.203 276.635L654.135 278.469C653.96 278.424 653.77 278.385 653.563 278.352C653.362 278.314 653.178 278.294 653.009 278.294C652.479 278.294 652.045 278.437 651.709 278.721C651.372 278.999 651.123 279.404 650.962 279.934C650.8 280.458 650.719 281.089 650.719 281.827H650.214ZM668.586 286V280.526C668.586 279.718 668.392 279.106 668.004 278.692C667.622 278.272 667.108 278.061 666.461 278.061C665.685 278.061 665.083 278.365 664.656 278.974C664.235 279.582 664.025 280.455 664.025 281.594H663.219C663.219 280.695 663.307 279.918 663.481 279.265C663.656 278.611 663.905 278.074 664.229 277.654C664.559 277.233 664.95 276.923 665.403 276.722C665.862 276.515 666.374 276.411 666.936 276.411C667.687 276.411 668.321 276.58 668.839 276.916C669.363 277.253 669.761 277.731 670.032 278.352C670.304 278.967 670.44 279.692 670.44 280.526V286H668.586ZM655.65 286V276.664H657.251L657.455 278.42C657.752 277.767 658.16 277.269 658.678 276.926C659.202 276.583 659.816 276.411 660.521 276.411C661.272 276.411 661.906 276.58 662.424 276.916C662.948 277.253 663.346 277.731 663.617 278.352C663.889 278.967 664.025 279.692 664.025 280.526V286H662.191V280.526C662.191 279.718 661.997 279.106 661.608 278.692C661.227 278.272 660.709 278.061 660.056 278.061C659.538 278.061 659.085 278.204 658.697 278.488C658.315 278.767 658.018 279.177 657.804 279.721C657.597 280.258 657.493 280.915 657.493 281.691V286H655.65ZM679.289 286L679.056 283.855V279.963C679.056 279.2 678.898 278.647 678.581 278.304C678.264 277.955 677.762 277.78 677.076 277.78C676.688 277.78 676.342 277.838 676.038 277.955C675.74 278.065 675.504 278.233 675.329 278.459C675.161 278.686 675.077 278.97 675.077 279.313H673.039C673.039 278.627 673.207 278.071 673.544 277.644C673.88 277.217 674.349 276.906 674.951 276.712C675.559 276.512 676.268 276.411 677.076 276.411C677.833 276.411 678.5 276.538 679.076 276.79C679.651 277.036 680.098 277.424 680.415 277.955C680.738 278.485 680.9 279.171 680.9 280.012V286H679.289ZM676.164 286.252C675.381 286.252 674.731 286.116 674.213 285.845C673.696 285.567 673.308 285.204 673.049 284.758C672.796 284.311 672.67 283.836 672.67 283.331C672.67 282.716 672.826 282.212 673.136 281.817C673.453 281.416 673.89 281.118 674.446 280.924C675.003 280.73 675.643 280.633 676.368 280.633C676.866 280.633 677.351 280.678 677.824 280.769C678.296 280.86 678.762 280.979 679.221 281.128V282.244C678.846 282.108 678.429 282.002 677.969 281.924C677.516 281.84 677.093 281.798 676.698 281.798C676.109 281.798 675.617 281.914 675.223 282.147C674.828 282.38 674.631 282.775 674.631 283.331C674.631 283.739 674.786 284.091 675.097 284.389C675.407 284.68 675.899 284.826 676.572 284.826C677.063 284.826 677.497 284.716 677.872 284.496C678.247 284.269 678.539 283.988 678.746 283.651C678.953 283.315 679.056 282.979 679.056 282.642H679.503C679.503 283.289 679.37 283.888 679.105 284.437C678.846 284.981 678.467 285.421 677.969 285.757C677.471 286.087 676.869 286.252 676.164 286.252ZM686.926 286.252C686.395 286.252 685.916 286.152 685.489 285.951C685.062 285.751 684.723 285.45 684.47 285.049C684.224 284.641 684.101 284.13 684.101 283.516V274.121H685.936V283.457C685.936 284.337 686.347 284.777 687.168 284.777C687.421 284.777 687.666 284.751 687.906 284.7C688.145 284.641 688.417 284.557 688.721 284.447L688.983 285.757C688.64 285.9 688.3 286.016 687.964 286.107C687.634 286.204 687.288 286.252 686.926 286.252ZM682.675 277.916V276.664H688.702V277.916H682.675ZM691.958 274.674C691.59 274.674 691.298 274.574 691.085 274.373C690.878 274.166 690.774 273.888 690.774 273.539C690.774 273.202 690.878 272.937 691.085 272.743C691.298 272.542 691.59 272.442 691.958 272.442C692.321 272.442 692.605 272.542 692.812 272.743C693.026 272.937 693.133 273.202 693.133 273.539C693.133 273.888 693.026 274.166 692.812 274.373C692.605 274.574 692.321 274.674 691.958 274.674ZM691.036 286V276.635H692.88V286H691.036ZM699.947 286.252C699.099 286.252 698.339 286.068 697.666 285.699C696.999 285.33 696.472 284.78 696.084 284.049C695.696 283.318 695.502 282.416 695.502 281.342C695.502 280.248 695.696 279.339 696.084 278.614C696.472 277.883 696.999 277.333 697.666 276.965C698.339 276.596 699.099 276.411 699.947 276.411C700.781 276.411 701.532 276.596 702.198 276.965C702.864 277.333 703.389 277.883 703.77 278.614C704.158 279.339 704.353 280.248 704.353 281.342C704.353 282.416 704.158 283.318 703.77 284.049C703.389 284.78 702.864 285.33 702.198 285.699C701.532 286.068 700.781 286.252 699.947 286.252ZM699.888 284.641C700.425 284.641 700.888 284.512 701.276 284.253C701.671 283.994 701.972 283.619 702.179 283.127C702.392 282.629 702.499 282.034 702.499 281.342C702.499 280.281 702.282 279.459 701.849 278.877C701.422 278.294 700.804 278.003 699.995 278.003C699.452 278.003 698.982 278.136 698.588 278.401C698.2 278.66 697.899 279.038 697.685 279.536C697.478 280.028 697.375 280.63 697.375 281.342C697.375 282.383 697.591 283.195 698.025 283.778C698.458 284.353 699.08 284.641 699.888 284.641ZM713.256 286V280.526C713.256 279.718 713.062 279.106 712.673 278.692C712.292 278.272 711.774 278.061 711.121 278.061C710.603 278.061 710.15 278.204 709.762 278.488C709.38 278.767 709.083 279.177 708.869 279.721C708.662 280.258 708.558 280.915 708.558 281.691H707.899C707.899 280.546 708.044 279.582 708.335 278.799C708.633 278.016 709.057 277.424 709.607 277.023C710.157 276.615 710.817 276.411 711.586 276.411C712.337 276.411 712.971 276.58 713.489 276.916C714.013 277.253 714.411 277.731 714.682 278.352C714.954 278.967 715.09 279.692 715.09 280.526V286H713.256ZM706.715 286V276.664H708.316L708.558 278.682V286H706.715ZM728.22 286L727.987 283.855V279.963C727.987 279.2 727.828 278.647 727.511 278.304C727.194 277.955 726.693 277.78 726.007 277.78C725.619 277.78 725.273 277.838 724.969 277.955C724.671 278.065 724.435 278.233 724.26 278.459C724.092 278.686 724.008 278.97 724.008 279.313H721.97C721.97 278.627 722.138 278.071 722.474 277.644C722.811 277.217 723.28 276.906 723.882 276.712C724.49 276.512 725.198 276.411 726.007 276.411C726.764 276.411 727.43 276.538 728.006 276.79C728.582 277.036 729.028 277.424 729.346 277.955C729.669 278.485 729.831 279.171 729.831 280.012V286H728.22ZM725.095 286.252C724.312 286.252 723.662 286.116 723.144 285.845C722.626 285.567 722.238 285.204 721.979 284.758C721.727 284.311 721.601 283.836 721.601 283.331C721.601 282.716 721.756 282.212 722.067 281.817C722.384 281.416 722.821 281.118 723.377 280.924C723.933 280.73 724.574 280.633 725.299 280.633C725.797 280.633 726.282 280.678 726.754 280.769C727.227 280.86 727.692 280.979 728.152 281.128V282.244C727.777 282.108 727.359 282.002 726.9 281.924C726.447 281.84 726.023 281.798 725.629 281.798C725.04 281.798 724.548 281.914 724.153 282.147C723.759 282.38 723.561 282.775 723.561 283.331C723.561 283.739 723.717 284.091 724.027 284.389C724.338 284.68 724.829 284.826 725.502 284.826C725.994 284.826 726.428 284.716 726.803 284.496C727.178 284.269 727.469 283.988 727.676 283.651C727.883 283.315 727.987 282.979 727.987 282.642H728.433C728.433 283.289 728.301 283.888 728.035 284.437C727.777 284.981 727.398 285.421 726.9 285.757C726.402 286.087 725.8 286.252 725.095 286.252ZM739.399 286V280.526C739.399 279.718 739.204 279.106 738.816 278.692C738.435 278.272 737.917 278.061 737.263 278.061C736.746 278.061 736.293 278.204 735.905 278.488C735.523 278.767 735.225 279.177 735.012 279.721C734.805 280.258 734.701 280.915 734.701 281.691H734.041C734.041 280.546 734.187 279.582 734.478 278.799C734.776 278.016 735.2 277.424 735.749 277.023C736.299 276.615 736.959 276.411 737.729 276.411C738.48 276.411 739.114 276.58 739.631 276.916C740.156 277.253 740.553 277.731 740.825 278.352C741.097 278.967 741.233 279.692 741.233 280.526V286H739.399ZM732.857 286V276.664H734.459L734.701 278.682V286H732.857ZM747.644 286.252C746.881 286.252 746.179 286.049 745.538 285.641C744.897 285.227 744.386 284.651 744.005 283.913C743.629 283.169 743.442 282.296 743.442 281.293C743.442 280.297 743.626 279.433 743.995 278.702C744.37 277.971 744.865 277.408 745.48 277.013C746.094 276.612 746.777 276.411 747.528 276.411C748.213 276.411 748.812 276.58 749.323 276.916C749.834 277.246 750.229 277.728 750.507 278.362C750.792 278.996 750.934 279.769 750.934 280.682H750.293C750.293 280.119 750.18 279.643 749.954 279.255C749.727 278.86 749.433 278.563 749.071 278.362C748.708 278.162 748.32 278.061 747.906 278.061C747.421 278.061 746.981 278.194 746.586 278.459C746.198 278.718 745.887 279.09 745.654 279.575C745.428 280.054 745.315 280.627 745.315 281.293C745.315 281.966 745.428 282.551 745.654 283.05C745.887 283.541 746.198 283.92 746.586 284.185C746.981 284.45 747.418 284.583 747.896 284.583C748.291 284.583 748.669 284.48 749.032 284.273C749.401 284.059 749.701 283.755 749.934 283.36C750.174 282.966 750.293 282.496 750.293 281.953H750.934C750.934 282.885 750.785 283.671 750.488 284.311C750.196 284.952 749.802 285.437 749.304 285.767C748.805 286.091 748.252 286.252 747.644 286.252ZM750.614 286L750.293 283.758V272.733H752.147V286H750.614ZM760.226 286V275.354C760.226 274.707 760.349 274.183 760.594 273.781C760.847 273.374 761.18 273.073 761.594 272.879C762.008 272.685 762.464 272.588 762.962 272.588C763.247 272.588 763.538 272.607 763.836 272.646C764.14 272.685 764.438 272.743 764.729 272.821L764.379 274.257C764.198 274.192 764.014 274.14 763.826 274.102C763.645 274.063 763.47 274.043 763.302 274.043C763.102 274.043 762.907 274.082 762.72 274.16C762.532 274.231 762.377 274.364 762.254 274.558C762.138 274.752 762.079 275.027 762.079 275.383V286H760.226ZM758.76 277.916V276.664H763.914V277.916H758.76ZM767.621 274.674C767.252 274.674 766.961 274.574 766.747 274.373C766.54 274.166 766.437 273.888 766.437 273.539C766.437 273.202 766.54 272.937 766.747 272.743C766.961 272.542 767.252 272.442 767.621 272.442C767.983 272.442 768.268 272.542 768.475 272.743C768.688 272.937 768.795 273.202 768.795 273.539C768.795 273.888 768.688 274.166 768.475 274.373C768.268 274.574 767.983 274.674 767.621 274.674ZM766.699 286V276.635H768.543V286H766.699ZM775.105 286.252C774.574 286.252 774.095 286.152 773.668 285.951C773.241 285.751 772.902 285.45 772.649 285.049C772.403 284.641 772.28 284.13 772.28 283.516V274.121H774.115V283.457C774.115 284.337 774.526 284.777 775.347 284.777C775.6 284.777 775.845 284.751 776.085 284.7C776.324 284.641 776.596 284.557 776.9 284.447L777.162 285.757C776.819 285.9 776.479 286.016 776.143 286.107C775.813 286.204 775.467 286.252 775.105 286.252ZM770.854 277.916V276.664H776.881V277.916H770.854ZM785.611 286V280.526C785.611 279.718 785.417 279.106 785.029 278.692C784.647 278.272 784.129 278.061 783.476 278.061C782.958 278.061 782.505 278.204 782.117 278.488C781.735 278.767 781.438 279.177 781.224 279.721C781.017 280.258 780.914 280.915 780.914 281.691H780.254C780.254 280.546 780.399 279.582 780.691 278.799C780.988 278.016 781.412 277.424 781.962 277.023C782.512 276.615 783.172 276.411 783.942 276.411C784.692 276.411 785.326 276.58 785.844 276.916C786.368 277.253 786.766 277.731 787.038 278.352C787.309 278.967 787.445 279.692 787.445 280.526V286H785.611ZM779.07 286V276.664H780.671L780.914 278.682V286H779.07ZM793.818 286.252C793.015 286.252 792.291 286.045 791.644 285.631C790.997 285.217 790.482 284.641 790.101 283.904C789.725 283.166 789.538 282.312 789.538 281.342C789.538 280.313 789.725 279.433 790.101 278.702C790.476 277.964 790.987 277.398 791.634 277.003C792.281 276.609 793.009 276.411 793.818 276.411C794.542 276.411 795.163 276.56 795.681 276.858C796.199 277.149 796.616 277.544 796.933 278.042C797.25 278.534 797.467 279.093 797.583 279.721C797.706 280.348 797.729 280.995 797.651 281.662H791.013V280.594H796.389L795.943 280.885C795.962 280.536 795.943 280.187 795.885 279.837C795.833 279.488 795.73 279.168 795.574 278.877C795.419 278.579 795.199 278.343 794.914 278.168C794.636 277.987 794.28 277.896 793.847 277.896C793.303 277.896 792.847 278.032 792.478 278.304C792.116 278.576 791.841 278.941 791.653 279.401C791.466 279.853 791.372 280.352 791.372 280.895V281.642C791.372 282.244 791.463 282.778 791.644 283.244C791.825 283.71 792.093 284.078 792.449 284.35C792.812 284.615 793.268 284.748 793.818 284.748C794.355 284.748 794.798 284.622 795.147 284.37C795.503 284.117 795.723 283.739 795.807 283.234H797.69C797.593 283.842 797.37 284.373 797.02 284.826C796.671 285.279 796.221 285.631 795.671 285.884C795.128 286.129 794.51 286.252 793.818 286.252ZM803.503 286.252C802.598 286.252 801.834 286.126 801.213 285.874C800.592 285.615 800.116 285.259 799.786 284.806C799.463 284.347 799.295 283.81 799.282 283.195H801.019C801.045 283.732 801.258 284.13 801.659 284.389C802.067 284.648 802.617 284.777 803.309 284.777C803.678 284.777 804.011 284.719 804.309 284.602C804.613 284.486 804.852 284.328 805.027 284.127C805.208 283.926 805.299 283.7 805.299 283.448C805.299 283.131 805.182 282.881 804.949 282.7C804.717 282.513 804.341 282.348 803.824 282.205L801.912 281.555C801.148 281.296 800.563 280.953 800.155 280.526C799.748 280.093 799.544 279.575 799.544 278.974C799.544 278.204 799.887 277.586 800.572 277.12C801.258 276.648 802.167 276.411 803.3 276.411C804.471 276.411 805.373 276.661 806.007 277.159C806.648 277.65 806.981 278.268 807.007 279.012H805.231C805.186 278.644 805.001 278.362 804.678 278.168C804.361 277.967 803.901 277.867 803.3 277.867C802.737 277.867 802.294 277.99 801.97 278.236C801.653 278.482 801.494 278.76 801.494 279.071C801.494 279.627 801.973 280.041 802.931 280.313L804.94 281.021C805.703 281.267 806.292 281.584 806.706 281.972C807.12 282.361 807.327 282.852 807.327 283.448C807.327 283.926 807.169 284.379 806.852 284.806C806.535 285.233 806.088 285.583 805.512 285.854C804.943 286.12 804.273 286.252 803.503 286.252ZM813.235 286.252C812.329 286.252 811.566 286.126 810.945 285.874C810.323 285.615 809.848 285.259 809.518 284.806C809.194 284.347 809.026 283.81 809.013 283.195H810.75C810.776 283.732 810.99 284.13 811.391 284.389C811.799 284.648 812.349 284.777 813.041 284.777C813.41 284.777 813.743 284.719 814.04 284.602C814.345 284.486 814.584 284.328 814.759 284.127C814.94 283.926 815.03 283.7 815.03 283.448C815.03 283.131 814.914 282.881 814.681 282.7C814.448 282.513 814.073 282.348 813.555 282.205L811.643 281.555C810.88 281.296 810.294 280.953 809.887 280.526C809.479 280.093 809.275 279.575 809.275 278.974C809.275 278.204 809.618 277.586 810.304 277.12C810.99 276.648 811.899 276.411 813.031 276.411C814.202 276.411 815.105 276.661 815.739 277.159C816.379 277.65 816.713 278.268 816.738 279.012H814.962C814.917 278.644 814.733 278.362 814.409 278.168C814.092 277.967 813.633 277.867 813.031 277.867C812.468 277.867 812.025 277.99 811.702 278.236C811.385 278.482 811.226 278.76 811.226 279.071C811.226 279.627 811.705 280.041 812.662 280.313L814.671 281.021C815.435 281.267 816.024 281.584 816.438 281.972C816.852 282.361 817.059 282.852 817.059 283.448C817.059 283.926 816.9 284.379 816.583 284.806C816.266 285.233 815.82 285.583 815.244 285.854C814.675 286.12 814.005 286.252 813.235 286.252ZM827.191 286.252C826.427 286.252 825.725 286.049 825.085 285.641C824.444 285.227 823.933 284.651 823.552 283.913C823.176 283.169 822.989 282.296 822.989 281.293C822.989 280.297 823.173 279.433 823.542 278.702C823.917 277.971 824.412 277.408 825.027 277.013C825.641 276.612 826.324 276.411 827.074 276.411C827.76 276.411 828.359 276.58 828.87 276.916C829.381 277.246 829.776 277.728 830.054 278.362C830.339 278.996 830.481 279.769 830.481 280.682H829.84C829.84 280.119 829.727 279.643 829.501 279.255C829.274 278.86 828.98 278.563 828.618 278.362C828.255 278.162 827.867 278.061 827.453 278.061C826.968 278.061 826.528 278.194 826.133 278.459C825.745 278.718 825.434 279.09 825.201 279.575C824.975 280.054 824.862 280.627 824.862 281.293C824.862 281.966 824.975 282.551 825.201 283.05C825.434 283.541 825.745 283.92 826.133 284.185C826.528 284.45 826.964 284.583 827.443 284.583C827.838 284.583 828.216 284.48 828.579 284.273C828.948 284.059 829.248 283.755 829.481 283.36C829.721 282.966 829.84 282.496 829.84 281.953H830.481C830.481 282.885 830.332 283.671 830.034 284.311C829.743 284.952 829.349 285.437 828.85 285.767C828.352 286.091 827.799 286.252 827.191 286.252ZM830.161 286L829.84 283.758V272.733H831.694V286H830.161ZM840.847 286L840.614 283.855V279.963C840.614 279.2 840.456 278.647 840.139 278.304C839.822 277.955 839.32 277.78 838.634 277.78C838.246 277.78 837.9 277.838 837.596 277.955C837.298 278.065 837.062 278.233 836.887 278.459C836.719 278.686 836.635 278.97 836.635 279.313H834.597C834.597 278.627 834.765 278.071 835.102 277.644C835.438 277.217 835.907 276.906 836.509 276.712C837.117 276.512 837.826 276.411 838.634 276.411C839.391 276.411 840.058 276.538 840.633 276.79C841.209 277.036 841.656 277.424 841.973 277.955C842.296 278.485 842.458 279.171 842.458 280.012V286H840.847ZM837.722 286.252C836.939 286.252 836.289 286.116 835.771 285.845C835.254 285.567 834.865 285.204 834.607 284.758C834.354 284.311 834.228 283.836 834.228 283.331C834.228 282.716 834.383 282.212 834.694 281.817C835.011 281.416 835.448 281.118 836.004 280.924C836.561 280.73 837.201 280.633 837.926 280.633C838.424 280.633 838.909 280.678 839.382 280.769C839.854 280.86 840.32 280.979 840.779 281.128V282.244C840.404 282.108 839.986 282.002 839.527 281.924C839.074 281.84 838.65 281.798 838.256 281.798C837.667 281.798 837.175 281.914 836.781 282.147C836.386 282.38 836.189 282.775 836.189 283.331C836.189 283.739 836.344 284.091 836.654 284.389C836.965 284.68 837.457 284.826 838.13 284.826C838.621 284.826 839.055 284.716 839.43 284.496C839.805 284.269 840.096 283.988 840.304 283.651C840.511 283.315 840.614 282.979 840.614 282.642H841.061C841.061 283.289 840.928 283.888 840.663 284.437C840.404 284.981 840.025 285.421 839.527 285.757C839.029 286.087 838.427 286.252 837.722 286.252ZM848.483 286.252C847.953 286.252 847.474 286.152 847.047 285.951C846.62 285.751 846.28 285.45 846.028 285.049C845.782 284.641 845.659 284.13 845.659 283.516V274.121H847.494V283.457C847.494 284.337 847.904 284.777 848.726 284.777C848.978 284.777 849.224 284.751 849.464 284.7C849.703 284.641 849.975 284.557 850.279 284.447L850.541 285.757C850.198 285.9 849.858 286.016 849.522 286.107C849.192 286.204 848.846 286.252 848.483 286.252ZM844.233 277.916V276.664H850.259V277.916H844.233ZM858.301 286L858.068 283.855V279.963C858.068 279.2 857.909 278.647 857.592 278.304C857.275 277.955 856.774 277.78 856.088 277.78C855.7 277.78 855.354 277.838 855.05 277.955C854.752 278.065 854.516 278.233 854.341 278.459C854.173 278.686 854.089 278.97 854.089 279.313H852.051C852.051 278.627 852.219 278.071 852.556 277.644C852.892 277.217 853.361 276.906 853.963 276.712C854.571 276.512 855.279 276.411 856.088 276.411C856.845 276.411 857.512 276.538 858.087 276.79C858.663 277.036 859.11 277.424 859.427 277.955C859.75 278.485 859.912 279.171 859.912 280.012V286H858.301ZM855.176 286.252C854.393 286.252 853.743 286.116 853.225 285.845C852.708 285.567 852.319 285.204 852.061 284.758C851.808 284.311 851.682 283.836 851.682 283.331C851.682 282.716 851.837 282.212 852.148 281.817C852.465 281.416 852.902 281.118 853.458 280.924C854.014 280.73 854.655 280.633 855.38 280.633C855.878 280.633 856.363 280.678 856.835 280.769C857.308 280.86 857.774 280.979 858.233 281.128V282.244C857.858 282.108 857.44 282.002 856.981 281.924C856.528 281.84 856.104 281.798 855.71 281.798C855.121 281.798 854.629 281.914 854.234 282.147C853.84 282.38 853.642 282.775 853.642 283.331C853.642 283.739 853.798 284.091 854.108 284.389C854.419 284.68 854.911 284.826 855.583 284.826C856.075 284.826 856.509 284.716 856.884 284.496C857.259 284.269 857.55 283.988 857.757 283.651C857.964 283.315 858.068 282.979 858.068 282.642H858.514C858.514 283.289 858.382 283.888 858.116 284.437C857.858 284.981 857.479 285.421 856.981 285.757C856.483 286.087 855.881 286.252 855.176 286.252ZM867.716 286V275.354C867.716 274.707 867.839 274.183 868.085 273.781C868.337 273.374 868.67 273.073 869.085 272.879C869.499 272.685 869.955 272.588 870.453 272.588C870.738 272.588 871.029 272.607 871.326 272.646C871.63 272.685 871.928 272.743 872.219 272.821L871.87 274.257C871.689 274.192 871.504 274.14 871.317 274.102C871.136 274.063 870.961 274.043 870.793 274.043C870.592 274.043 870.398 274.082 870.21 274.16C870.023 274.231 869.867 274.364 869.744 274.558C869.628 274.752 869.57 275.027 869.57 275.383V286H867.716ZM866.251 277.916V276.664H871.404V277.916H866.251ZM877.063 286.252C876.215 286.252 875.455 286.068 874.782 285.699C874.116 285.33 873.588 284.78 873.2 284.049C872.812 283.318 872.618 282.416 872.618 281.342C872.618 280.248 872.812 279.339 873.2 278.614C873.588 277.883 874.116 277.333 874.782 276.965C875.455 276.596 876.215 276.411 877.063 276.411C877.897 276.411 878.648 276.596 879.314 276.965C879.981 277.333 880.505 277.883 880.886 278.614C881.275 279.339 881.469 280.248 881.469 281.342C881.469 282.416 881.275 283.318 880.886 284.049C880.505 284.78 879.981 285.33 879.314 285.699C878.648 286.068 877.897 286.252 877.063 286.252ZM877.004 284.641C877.542 284.641 878.004 284.512 878.392 284.253C878.787 283.994 879.088 283.619 879.295 283.127C879.508 282.629 879.615 282.034 879.615 281.342C879.615 280.281 879.398 279.459 878.965 278.877C878.538 278.294 877.92 278.003 877.111 278.003C876.568 278.003 876.099 278.136 875.704 278.401C875.316 278.66 875.015 279.038 874.801 279.536C874.594 280.028 874.491 280.63 874.491 281.342C874.491 282.383 874.708 283.195 875.141 283.778C875.575 284.353 876.196 284.641 877.004 284.641ZM883.831 286V276.635H885.675V286H883.831ZM885.17 281.827C885.17 280.63 885.293 279.637 885.539 278.847C885.791 278.052 886.141 277.46 886.587 277.071C887.04 276.683 887.57 276.489 888.179 276.489C888.36 276.489 888.528 276.502 888.683 276.528C888.845 276.554 889.004 276.589 889.159 276.635L889.091 278.469C888.916 278.424 888.725 278.385 888.518 278.352C888.318 278.314 888.133 278.294 887.965 278.294C887.435 278.294 887.001 278.437 886.665 278.721C886.328 278.999 886.079 279.404 885.917 279.934C885.756 280.458 885.675 281.089 885.675 281.827H885.17ZM898.256 286.252C897.492 286.252 896.78 286.049 896.12 285.641C895.461 285.233 894.93 284.661 894.529 283.923C894.128 283.186 893.927 282.319 893.927 281.322C893.927 280.274 894.128 279.388 894.529 278.663C894.93 277.932 895.461 277.375 896.12 276.994C896.78 276.606 897.492 276.411 898.256 276.411C898.818 276.411 899.32 276.502 899.76 276.683C900.2 276.858 900.578 277.097 900.895 277.401C901.212 277.699 901.468 278.035 901.662 278.411C901.863 278.786 902.002 279.174 902.079 279.575L900.206 279.672C900.07 279.187 899.831 278.799 899.488 278.508C899.152 278.21 898.734 278.061 898.236 278.061C897.816 278.061 897.418 278.181 897.042 278.42C896.674 278.653 896.373 279.012 896.14 279.498C895.913 279.976 895.8 280.585 895.8 281.322C895.8 282.008 895.907 282.594 896.12 283.079C896.334 283.564 896.625 283.936 896.994 284.195C897.363 284.454 897.777 284.583 898.236 284.583C898.896 284.583 899.388 284.425 899.711 284.108C900.041 283.784 900.206 283.341 900.206 282.778H902.079C902.079 283.431 901.927 284.02 901.623 284.544C901.319 285.068 900.879 285.486 900.303 285.796C899.734 286.1 899.051 286.252 898.256 286.252ZM903.011 276.664H905.078L907.892 284.389H907.514L909.775 276.664H911.658L908.116 287.795C907.792 288.805 907.375 289.559 906.864 290.057C906.359 290.561 905.725 290.814 904.961 290.814C904.534 290.814 904.124 290.759 903.729 290.649C903.341 290.539 902.943 290.377 902.535 290.163V288.504C902.885 288.75 903.221 288.928 903.545 289.038C903.868 289.148 904.204 289.203 904.554 289.203C904.903 289.203 905.201 289.096 905.447 288.882C905.699 288.675 905.909 288.397 906.078 288.048C906.252 287.705 906.401 287.33 906.524 286.922L906.805 286L903.011 276.664ZM916.752 286.252C915.988 286.252 915.277 286.049 914.617 285.641C913.957 285.233 913.426 284.661 913.025 283.923C912.624 283.186 912.424 282.319 912.424 281.322C912.424 280.274 912.624 279.388 913.025 278.663C913.426 277.932 913.957 277.375 914.617 276.994C915.277 276.606 915.988 276.411 916.752 276.411C917.315 276.411 917.816 276.502 918.256 276.683C918.696 276.858 919.075 277.097 919.392 277.401C919.709 277.699 919.964 278.035 920.158 278.411C920.359 278.786 920.498 279.174 920.576 279.575L918.703 279.672C918.567 279.187 918.327 278.799 917.984 278.508C917.648 278.21 917.231 278.061 916.733 278.061C916.312 278.061 915.914 278.181 915.539 278.42C915.17 278.653 914.869 279.012 914.636 279.498C914.41 279.976 914.297 280.585 914.297 281.322C914.297 282.008 914.403 282.594 914.617 283.079C914.83 283.564 915.121 283.936 915.49 284.195C915.859 284.454 916.273 284.583 916.733 284.583C917.392 284.583 917.884 284.425 918.208 284.108C918.538 283.784 918.703 283.341 918.703 282.778H920.576C920.576 283.431 920.424 284.02 920.12 284.544C919.815 285.068 919.376 285.486 918.8 285.796C918.23 286.1 917.548 286.252 916.752 286.252ZM922.992 286V272.733H924.836V286H922.992ZM929.204 274.674C928.835 274.674 928.544 274.574 928.33 274.373C928.123 274.166 928.02 273.888 928.02 273.539C928.02 273.202 928.123 272.937 928.33 272.743C928.544 272.542 928.835 272.442 929.204 272.442C929.566 272.442 929.851 272.542 930.058 272.743C930.271 272.937 930.378 273.202 930.378 273.539C930.378 273.888 930.271 274.166 930.058 274.373C929.851 274.574 929.566 274.674 929.204 274.674ZM928.282 286V276.635H930.126V286H928.282ZM937.095 286.252C936.189 286.252 935.426 286.126 934.805 285.874C934.184 285.615 933.708 285.259 933.378 284.806C933.054 284.347 932.886 283.81 932.873 283.195H934.611C934.636 283.732 934.85 284.13 935.251 284.389C935.659 284.648 936.209 284.777 936.901 284.777C937.27 284.777 937.603 284.719 937.901 284.602C938.205 284.486 938.444 284.328 938.619 284.127C938.8 283.926 938.89 283.7 938.89 283.448C938.89 283.131 938.774 282.881 938.541 282.7C938.308 282.513 937.933 282.348 937.415 282.205L935.503 281.555C934.74 281.296 934.154 280.953 933.747 280.526C933.339 280.093 933.135 279.575 933.135 278.974C933.135 278.204 933.478 277.586 934.164 277.12C934.85 276.648 935.759 276.411 936.891 276.411C938.062 276.411 938.965 276.661 939.599 277.159C940.239 277.65 940.573 278.268 940.599 279.012H938.823C938.777 278.644 938.593 278.362 938.269 278.168C937.952 277.967 937.493 277.867 936.891 277.867C936.328 277.867 935.885 277.99 935.562 278.236C935.245 278.482 935.086 278.76 935.086 279.071C935.086 279.627 935.565 280.041 936.522 280.313L938.531 281.021C939.295 281.267 939.884 281.584 940.298 281.972C940.712 282.361 940.919 282.852 940.919 283.448C940.919 283.926 940.76 284.379 940.443 284.806C940.126 285.233 939.68 285.583 939.104 285.854C938.535 286.12 937.865 286.252 937.095 286.252ZM946.409 286.252C945.879 286.252 945.4 286.152 944.973 285.951C944.546 285.751 944.206 285.45 943.954 285.049C943.708 284.641 943.585 284.13 943.585 283.516V274.121H945.419V283.457C945.419 284.337 945.83 284.777 946.652 284.777C946.904 284.777 947.15 284.751 947.389 284.7C947.629 284.641 947.901 284.557 948.205 284.447L948.467 285.757C948.124 285.9 947.784 286.016 947.448 286.107C947.118 286.204 946.772 286.252 946.409 286.252ZM942.158 277.916V276.664H948.185V277.916H942.158ZM953.791 286.252C952.885 286.252 952.121 286.126 951.5 285.874C950.879 285.615 950.404 285.259 950.074 284.806C949.75 284.347 949.582 283.81 949.569 283.195H951.306C951.332 283.732 951.546 284.13 951.947 284.389C952.354 284.648 952.904 284.777 953.597 284.777C953.965 284.777 954.299 284.719 954.596 284.602C954.9 284.486 955.14 284.328 955.314 284.127C955.495 283.926 955.586 283.7 955.586 283.448C955.586 283.131 955.47 282.881 955.237 282.7C955.004 282.513 954.628 282.348 954.111 282.205L952.199 281.555C951.436 281.296 950.85 280.953 950.442 280.526C950.035 280.093 949.831 279.575 949.831 278.974C949.831 278.204 950.174 277.586 950.86 277.12C951.546 276.648 952.455 276.411 953.587 276.411C954.758 276.411 955.66 276.661 956.295 277.159C956.935 277.65 957.268 278.268 957.294 279.012H955.518C955.473 278.644 955.288 278.362 954.965 278.168C954.648 277.967 954.189 277.867 953.587 277.867C953.024 277.867 952.581 277.99 952.257 278.236C951.94 278.482 951.782 278.76 951.782 279.071C951.782 279.627 952.26 280.041 953.218 280.313L955.227 281.021C955.99 281.267 956.579 281.584 956.993 281.972C957.407 282.361 957.614 282.852 957.614 283.448C957.614 283.926 957.456 284.379 957.139 284.806C956.822 285.233 956.375 285.583 955.8 285.854C955.23 286.12 954.561 286.252 953.791 286.252ZM961.63 282.613V281.778C961.63 281.215 961.691 280.756 961.814 280.4C961.944 280.038 962.147 279.727 962.426 279.469C962.704 279.203 963.082 278.948 963.561 278.702C963.988 278.475 964.321 278.268 964.561 278.081C964.806 277.887 964.981 277.683 965.085 277.469C965.188 277.256 965.24 277 965.24 276.703C965.24 276.237 965.052 275.852 964.677 275.548C964.302 275.237 963.784 275.082 963.124 275.082C962.38 275.082 961.808 275.237 961.407 275.548C961.012 275.858 960.772 276.279 960.688 276.809H958.747C958.831 275.787 959.236 274.965 959.96 274.344C960.685 273.723 961.72 273.413 963.066 273.413C963.933 273.413 964.68 273.561 965.308 273.859C965.936 274.15 966.418 274.548 966.754 275.053C967.09 275.557 967.259 276.117 967.259 276.732C967.259 277.398 967.09 277.961 966.754 278.42C966.418 278.88 965.881 279.3 965.143 279.682C964.716 279.908 964.379 280.122 964.134 280.323C963.888 280.517 963.713 280.737 963.61 280.983C963.512 281.228 963.464 281.545 963.464 281.934V282.613H961.63ZM962.591 286.252C962.202 286.252 961.885 286.129 961.639 285.884C961.394 285.638 961.271 285.34 961.271 284.991C961.271 284.628 961.39 284.321 961.63 284.069C961.876 283.816 962.193 283.69 962.581 283.69C962.969 283.69 963.293 283.816 963.551 284.069C963.817 284.315 963.949 284.619 963.949 284.981C963.949 285.33 963.82 285.631 963.561 285.884C963.302 286.129 962.979 286.252 962.591 286.252Z" fill="#666666"/>
<line x1="422" y1="200.276" x2="1078.01" y2="200.276" stroke="#383838"/>
<line x1="422" y1="330.276" x2="1078.01" y2="330.276" stroke="#383838"/>
</svg>
