<svg width="1500" height="475" viewBox="0 0 1500 475" fill="none" xmlns="http://www.w3.org/2000/svg">
<rect width="1500" height="475" fill="#E5E5E5"/>
<rect width="1500" height="475" fill="white"/>
<path d="M645.998 165.44C644.208 165.44 642.648 165.016 641.318 164.168C639.999 163.309 638.973 162.084 638.24 160.493C637.507 158.901 637.141 156.99 637.141 154.76C637.141 152.457 637.518 150.525 638.271 148.965C639.036 147.395 640.083 146.212 641.412 145.416C642.753 144.61 644.281 144.207 645.998 144.207C648.375 144.207 650.228 144.782 651.558 145.934C652.898 147.086 653.757 148.583 654.134 150.426L650.176 151.148C649.851 150.08 649.333 149.216 648.621 148.557C647.909 147.897 647.035 147.567 645.998 147.567C645.087 147.567 644.266 147.834 643.533 148.368C642.8 148.892 642.213 149.688 641.774 150.756C641.344 151.824 641.13 153.158 641.13 154.76C641.13 156.268 641.318 157.566 641.695 158.655C642.083 159.744 642.637 160.582 643.36 161.168C644.082 161.754 644.962 162.047 645.998 162.047C647.328 162.047 648.354 161.697 649.077 160.995C649.809 160.283 650.176 159.378 650.176 158.278H654.134C654.134 159.796 653.804 161.089 653.144 162.157C652.495 163.215 651.563 164.026 650.349 164.592C649.134 165.157 647.684 165.44 645.998 165.44ZM665.403 144.615H669.109V153.127H677.998V144.615H681.705V165H677.998V156.362H669.109V165H665.403V144.615ZM692.23 165L699.171 144.615H703.82L710.479 165H706.584L705.171 160.603H697.601L696.156 165H692.23ZM698.543 157.807H704.291L701.433 149.044L698.543 157.807ZM724.738 144.615V161.765H733.125V165H721.032V144.615H724.738ZM747.169 144.615V161.765H755.556V165H743.463V144.615H747.169ZM765.863 165V144.615H778.961V147.819H769.569V153.19H778.395V156.394H769.569V161.765H778.961V165H765.863ZM791.177 144.615H795.228L804.494 159.158H804.212V144.615H807.918V165H804.149L794.286 149.578H794.883V165H791.177V144.615ZM828.108 165.44C826.444 165.44 824.941 165 823.601 164.121C822.261 163.241 821.193 162.016 820.397 160.446C819.612 158.865 819.219 157.022 819.219 154.917C819.219 153.253 819.46 151.761 819.942 150.441C820.434 149.122 821.114 147.997 821.983 147.065C822.852 146.133 823.873 145.426 825.046 144.945C826.219 144.453 827.491 144.207 828.862 144.207C830.768 144.207 832.364 144.62 833.652 145.447C834.951 146.274 835.961 147.578 836.683 149.358L832.883 150.237C832.349 149.368 831.731 148.709 831.029 148.258C830.338 147.798 829.553 147.567 828.674 147.567C827.669 147.567 826.752 147.866 825.925 148.463C825.098 149.049 824.439 149.892 823.947 150.991C823.454 152.09 823.208 153.399 823.208 154.917C823.208 156.341 823.423 157.587 823.852 158.655C824.292 159.723 824.905 160.555 825.69 161.152C826.475 161.749 827.386 162.047 828.422 162.047C829.302 162.047 830.087 161.854 830.778 161.466C831.48 161.069 832.029 160.503 832.427 159.77C832.836 159.037 833.04 158.153 833.04 157.116H833.856C833.856 158.812 833.652 160.283 833.244 161.529C832.846 162.775 832.223 163.738 831.375 164.419C830.527 165.099 829.438 165.44 828.108 165.44ZM833.574 165L833.04 160.508V156.99L828.454 156.896V154.54H836.589V165H833.574ZM848.8 165V144.615H861.898V147.819H852.506V153.19H861.333V156.394H852.506V161.765H861.898V165H848.8Z" fill="#383838"/>
<path d="M540.833 233.636H542.677V238.964H548.48V233.636H550.315V246H548.48V240.565H542.677V246H540.833V233.636ZM557.148 246.252C556.301 246.252 555.541 246.068 554.868 245.699C554.201 245.33 553.674 244.78 553.286 244.049C552.898 243.318 552.704 242.416 552.704 241.342C552.704 240.248 552.898 239.339 553.286 238.614C553.674 237.883 554.201 237.333 554.868 236.965C555.541 236.596 556.301 236.411 557.148 236.411C557.983 236.411 558.734 236.596 559.4 236.965C560.066 237.333 560.59 237.883 560.972 238.614C561.36 239.339 561.554 240.248 561.554 241.342C561.554 242.416 561.36 243.318 560.972 244.049C560.59 244.78 560.066 245.33 559.4 245.699C558.734 246.068 557.983 246.252 557.148 246.252ZM557.09 244.641C557.627 244.641 558.09 244.512 558.478 244.253C558.873 243.994 559.174 243.619 559.381 243.127C559.594 242.629 559.701 242.034 559.701 241.342C559.701 240.281 559.484 239.459 559.051 238.877C558.624 238.294 558.006 238.003 557.197 238.003C556.653 238.003 556.184 238.136 555.79 238.401C555.402 238.66 555.101 239.038 554.887 239.536C554.68 240.028 554.577 240.63 554.577 241.342C554.577 242.383 554.793 243.195 555.227 243.778C555.66 244.353 556.281 244.641 557.09 244.641ZM562.325 236.664H564.246L566.469 244.156H566.265L568.41 237.139H570.011L572.146 244.175H571.952L574.175 236.664H576.019L572.952 246H571.147L569.031 239.401H569.312L567.226 246H565.421L562.325 236.664ZM585.412 246.252C584.648 246.252 583.936 246.049 583.276 245.641C582.616 245.233 582.086 244.661 581.685 243.923C581.284 243.186 581.083 242.319 581.083 241.322C581.083 240.274 581.284 239.388 581.685 238.663C582.086 237.932 582.616 237.375 583.276 236.994C583.936 236.606 584.648 236.411 585.412 236.411C585.974 236.411 586.476 236.502 586.916 236.683C587.356 236.858 587.734 237.097 588.051 237.401C588.368 237.699 588.624 238.035 588.818 238.411C589.019 238.786 589.158 239.174 589.235 239.575L587.362 239.672C587.226 239.187 586.987 238.799 586.644 238.508C586.308 238.21 585.89 238.061 585.392 238.061C584.972 238.061 584.574 238.181 584.198 238.42C583.83 238.653 583.529 239.012 583.296 239.498C583.069 239.976 582.956 240.585 582.956 241.322C582.956 242.008 583.063 242.594 583.276 243.079C583.49 243.564 583.781 243.936 584.15 244.195C584.519 244.454 584.933 244.583 585.392 244.583C586.052 244.583 586.544 244.425 586.867 244.108C587.197 243.784 587.362 243.341 587.362 242.778H589.235C589.235 243.431 589.083 244.02 588.779 244.544C588.475 245.068 588.035 245.486 587.459 245.796C586.89 246.1 586.207 246.252 585.412 246.252ZM597.504 246L597.271 243.855V239.963C597.271 239.2 597.112 238.647 596.795 238.304C596.478 237.955 595.977 237.78 595.291 237.78C594.903 237.78 594.557 237.838 594.252 237.955C593.955 238.065 593.719 238.233 593.544 238.459C593.376 238.686 593.292 238.97 593.292 239.313H591.254C591.254 238.627 591.422 238.071 591.758 237.644C592.095 237.217 592.564 236.906 593.165 236.712C593.774 236.512 594.482 236.411 595.291 236.411C596.048 236.411 596.714 236.538 597.29 236.79C597.866 237.036 598.312 237.424 598.629 237.955C598.953 238.485 599.115 239.171 599.115 240.012V246H597.504ZM594.379 246.252C593.596 246.252 592.946 246.116 592.428 245.845C591.91 245.567 591.522 245.204 591.263 244.758C591.011 244.311 590.885 243.836 590.885 243.331C590.885 242.716 591.04 242.212 591.351 241.817C591.668 241.416 592.104 241.118 592.661 240.924C593.217 240.73 593.858 240.633 594.582 240.633C595.081 240.633 595.566 240.678 596.038 240.769C596.51 240.86 596.976 240.979 597.436 241.128V242.244C597.06 242.108 596.643 242.002 596.184 241.924C595.731 241.84 595.307 241.798 594.912 241.798C594.324 241.798 593.832 241.914 593.437 242.147C593.043 242.38 592.845 242.775 592.845 243.331C592.845 243.739 593.001 244.091 593.311 244.389C593.622 244.68 594.113 244.826 594.786 244.826C595.278 244.826 595.711 244.716 596.087 244.496C596.462 244.269 596.753 243.988 596.96 243.651C597.167 243.315 597.271 242.979 597.271 242.642H597.717C597.717 243.289 597.585 243.888 597.319 244.437C597.06 244.981 596.682 245.421 596.184 245.757C595.686 246.087 595.084 246.252 594.379 246.252ZM608.682 246V240.526C608.682 239.718 608.488 239.106 608.1 238.692C607.718 238.272 607.201 238.061 606.547 238.061C606.03 238.061 605.577 238.204 605.189 238.488C604.807 238.767 604.509 239.177 604.296 239.721C604.089 240.258 603.985 240.915 603.985 241.691H603.325C603.325 240.546 603.471 239.582 603.762 238.799C604.06 238.016 604.483 237.424 605.033 237.023C605.583 236.615 606.243 236.411 607.013 236.411C607.764 236.411 608.398 236.58 608.915 236.916C609.439 237.253 609.837 237.731 610.109 238.352C610.381 238.967 610.517 239.692 610.517 240.526V246H608.682ZM602.141 246V236.664H603.743L603.985 238.682V246H602.141ZM617.794 246V233.636H619.638V246H617.794ZM630.579 246.252C629.816 246.252 629.114 246.049 628.473 245.641C627.833 245.227 627.322 244.651 626.94 243.913C626.565 243.169 626.377 242.296 626.377 241.293C626.377 240.297 626.561 239.433 626.93 238.702C627.306 237.971 627.8 237.408 628.415 237.013C629.03 236.612 629.712 236.411 630.463 236.411C631.149 236.411 631.747 236.58 632.258 236.916C632.769 237.246 633.164 237.728 633.442 238.362C633.727 238.996 633.869 239.769 633.869 240.682H633.229C633.229 240.119 633.116 239.643 632.889 239.255C632.663 238.86 632.368 238.563 632.006 238.362C631.644 238.162 631.255 238.061 630.841 238.061C630.356 238.061 629.916 238.194 629.521 238.459C629.133 238.718 628.823 239.09 628.59 239.575C628.363 240.054 628.25 240.627 628.25 241.293C628.25 241.966 628.363 242.551 628.59 243.05C628.823 243.541 629.133 243.92 629.521 244.185C629.916 244.45 630.353 244.583 630.832 244.583C631.226 244.583 631.605 244.48 631.967 244.273C632.336 244.059 632.637 243.755 632.87 243.36C633.109 242.966 633.229 242.496 633.229 241.953H633.869C633.869 242.885 633.721 243.671 633.423 244.311C633.132 244.952 632.737 245.437 632.239 245.767C631.741 246.091 631.188 246.252 630.579 246.252ZM633.549 246L633.229 243.758V232.733H635.082V246H633.549ZM641.732 246.252C640.929 246.252 640.205 246.045 639.558 245.631C638.911 245.217 638.396 244.641 638.015 243.904C637.639 243.166 637.452 242.312 637.452 241.342C637.452 240.313 637.639 239.433 638.015 238.702C638.39 237.964 638.901 237.398 639.548 237.003C640.195 236.609 640.923 236.411 641.732 236.411C642.456 236.411 643.077 236.56 643.595 236.858C644.113 237.149 644.53 237.544 644.847 238.042C645.164 238.534 645.381 239.093 645.497 239.721C645.62 240.348 645.643 240.995 645.565 241.662H638.927V240.594H644.303L643.857 240.885C643.876 240.536 643.857 240.187 643.799 239.837C643.747 239.488 643.643 239.168 643.488 238.877C643.333 238.579 643.113 238.343 642.828 238.168C642.55 237.987 642.194 237.896 641.761 237.896C641.217 237.896 640.761 238.032 640.392 238.304C640.03 238.576 639.755 238.941 639.567 239.401C639.38 239.853 639.286 240.352 639.286 240.895V241.642C639.286 242.244 639.377 242.778 639.558 243.244C639.739 243.71 640.007 244.078 640.363 244.35C640.726 244.615 641.182 244.748 641.732 244.748C642.269 244.748 642.712 244.622 643.061 244.37C643.417 244.117 643.637 243.739 643.721 243.234H645.604C645.507 243.842 645.284 244.373 644.934 244.826C644.585 245.279 644.135 245.631 643.585 245.884C643.042 246.129 642.424 246.252 641.732 246.252ZM651.417 246.252C650.512 246.252 649.748 246.126 649.127 245.874C648.506 245.615 648.03 245.259 647.7 244.806C647.377 244.347 647.209 243.81 647.196 243.195H648.933C648.959 243.732 649.172 244.13 649.573 244.389C649.981 244.648 650.531 244.777 651.223 244.777C651.592 244.777 651.925 244.719 652.223 244.602C652.527 244.486 652.766 244.328 652.941 244.127C653.122 243.926 653.213 243.7 653.213 243.448C653.213 243.131 653.096 242.881 652.863 242.7C652.63 242.513 652.255 242.348 651.738 242.205L649.826 241.555C649.062 241.296 648.477 240.953 648.069 240.526C647.661 240.093 647.458 239.575 647.458 238.974C647.458 238.204 647.801 237.586 648.486 237.12C649.172 236.648 650.081 236.411 651.214 236.411C652.385 236.411 653.287 236.661 653.921 237.159C654.562 237.65 654.895 238.268 654.921 239.012H653.145C653.1 238.644 652.915 238.362 652.592 238.168C652.275 237.967 651.815 237.867 651.214 237.867C650.651 237.867 650.207 237.99 649.884 238.236C649.567 238.482 649.408 238.76 649.408 239.071C649.408 239.627 649.887 240.041 650.845 240.313L652.854 241.021C653.617 241.267 654.206 241.584 654.62 241.972C655.034 242.361 655.241 242.852 655.241 243.448C655.241 243.926 655.083 244.379 654.766 244.806C654.449 245.233 654.002 245.583 653.426 245.854C652.857 246.12 652.187 246.252 651.417 246.252ZM658.8 234.674C658.431 234.674 658.14 234.574 657.927 234.373C657.72 234.166 657.616 233.888 657.616 233.539C657.616 233.202 657.72 232.937 657.927 232.743C658.14 232.542 658.431 232.442 658.8 232.442C659.163 232.442 659.447 232.542 659.654 232.743C659.868 232.937 659.975 233.202 659.975 233.539C659.975 233.888 659.868 234.166 659.654 234.373C659.447 234.574 659.163 234.674 658.8 234.674ZM657.878 246V236.635H659.722V246H657.878ZM666.711 250.814C665.701 250.814 664.831 250.675 664.1 250.396C663.375 250.118 662.816 249.746 662.421 249.28C662.026 248.814 661.829 248.307 661.829 247.757C661.829 247.058 662.085 246.521 662.596 246.146C663.107 245.777 663.757 245.592 664.547 245.592L665.74 246.155C665.067 246.155 664.547 246.291 664.178 246.563C663.815 246.835 663.634 247.203 663.634 247.669C663.634 248.155 663.9 248.552 664.43 248.863C664.961 249.18 665.721 249.339 666.711 249.339C667.429 249.339 668.06 249.232 668.603 249.018C669.147 248.811 669.567 248.536 669.865 248.193C670.162 247.857 670.311 247.495 670.311 247.106C670.311 246.841 670.214 246.615 670.02 246.427C669.833 246.246 669.545 246.155 669.156 246.155H665.74C665.106 246.155 664.547 246.058 664.061 245.864C663.582 245.664 663.207 245.402 662.935 245.078C662.664 244.755 662.528 244.395 662.528 244.001C662.528 243.613 662.638 243.279 662.858 243.001C663.078 242.716 663.369 242.503 663.731 242.361C664.094 242.212 664.492 242.137 664.925 242.137L665.342 242.778C665.155 242.778 664.967 242.82 664.779 242.904C664.592 242.982 664.437 243.101 664.314 243.263C664.191 243.425 664.129 243.626 664.129 243.865C664.129 244.143 664.246 244.376 664.479 244.564C664.718 244.745 665.139 244.835 665.74 244.835H669.156C670.088 244.835 670.819 245.02 671.35 245.389C671.88 245.757 672.146 246.294 672.146 247C672.146 247.64 671.926 248.252 671.486 248.834C671.046 249.416 670.418 249.892 669.603 250.26C668.794 250.629 667.83 250.814 666.711 250.814ZM666.915 243.195C666.19 243.195 665.53 243.056 664.935 242.778C664.346 242.493 663.877 242.099 663.527 241.594C663.178 241.083 663.003 240.488 663.003 239.808C663.003 239.122 663.178 238.527 663.527 238.022C663.877 237.511 664.346 237.117 664.935 236.838C665.53 236.554 666.19 236.411 666.915 236.411C667.62 236.411 668.264 236.554 668.846 236.838C669.435 237.117 669.904 237.511 670.253 238.022C670.609 238.527 670.787 239.122 670.787 239.808C670.787 240.488 670.609 241.083 670.253 241.594C669.904 242.099 669.435 242.493 668.846 242.778C668.264 243.056 667.62 243.195 666.915 243.195ZM666.915 241.895C667.581 241.895 668.089 241.697 668.438 241.303C668.794 240.902 668.972 240.403 668.972 239.808C668.972 239.187 668.794 238.686 668.438 238.304C668.089 237.922 667.581 237.731 666.915 237.731C666.261 237.731 665.75 237.922 665.381 238.304C665.019 238.686 664.838 239.187 664.838 239.808C664.838 240.403 665.019 240.902 665.381 241.303C665.75 241.697 666.261 241.895 666.915 241.895ZM670.088 237.906L669.224 237.489C669.224 236.932 669.341 236.447 669.574 236.033C669.807 235.619 670.13 235.295 670.544 235.062C670.958 234.83 671.434 234.713 671.971 234.713L671.854 236.509C671.279 236.509 670.839 236.622 670.535 236.848C670.237 237.075 670.088 237.427 670.088 237.906ZM680.439 246V240.526C680.439 239.718 680.245 239.106 679.856 238.692C679.475 238.272 678.957 238.061 678.304 238.061C677.786 238.061 677.333 238.204 676.945 238.488C676.563 238.767 676.266 239.177 676.052 239.721C675.845 240.258 675.742 240.915 675.742 241.691H675.082C675.082 240.546 675.227 239.582 675.518 238.799C675.816 238.016 676.24 237.424 676.79 237.023C677.34 236.615 678 236.411 678.77 236.411C679.52 236.411 680.154 236.58 680.672 236.916C681.196 237.253 681.594 237.731 681.865 238.352C682.137 238.967 682.273 239.692 682.273 240.526V246H680.439ZM673.898 246V236.664H675.499L675.742 238.682V246H673.898ZM695.403 246L695.17 243.855V239.963C695.17 239.2 695.011 238.647 694.694 238.304C694.377 237.955 693.876 237.78 693.19 237.78C692.802 237.78 692.456 237.838 692.152 237.955C691.854 238.065 691.618 238.233 691.443 238.459C691.275 238.686 691.191 238.97 691.191 239.313H689.153C689.153 238.627 689.321 238.071 689.657 237.644C689.994 237.217 690.463 236.906 691.065 236.712C691.673 236.512 692.381 236.411 693.19 236.411C693.947 236.411 694.613 236.538 695.189 236.79C695.765 237.036 696.212 237.424 696.529 237.955C696.852 238.485 697.014 239.171 697.014 240.012V246H695.403ZM692.278 246.252C691.495 246.252 690.845 246.116 690.327 245.845C689.81 245.567 689.421 245.204 689.163 244.758C688.91 244.311 688.784 243.836 688.784 243.331C688.784 242.716 688.939 242.212 689.25 241.817C689.567 241.416 690.004 241.118 690.56 240.924C691.116 240.73 691.757 240.633 692.482 240.633C692.98 240.633 693.465 240.678 693.937 240.769C694.41 240.86 694.876 240.979 695.335 241.128V242.244C694.96 242.108 694.542 242.002 694.083 241.924C693.63 241.84 693.206 241.798 692.812 241.798C692.223 241.798 691.731 241.914 691.336 242.147C690.942 242.38 690.744 242.775 690.744 243.331C690.744 243.739 690.9 244.091 691.21 244.389C691.521 244.68 692.013 244.826 692.685 244.826C693.177 244.826 693.611 244.716 693.986 244.496C694.361 244.269 694.652 243.988 694.859 243.651C695.066 243.315 695.17 242.979 695.17 242.642H695.616C695.616 243.289 695.484 243.888 695.218 244.437C694.96 244.981 694.581 245.421 694.083 245.757C693.585 246.087 692.983 246.252 692.278 246.252ZM706.582 246V240.526C706.582 239.718 706.388 239.106 705.999 238.692C705.618 238.272 705.1 238.061 704.447 238.061C703.929 238.061 703.476 238.204 703.088 238.488C702.706 238.767 702.408 239.177 702.195 239.721C701.988 240.258 701.884 240.915 701.884 241.691H701.224C701.224 240.546 701.37 239.582 701.661 238.799C701.959 238.016 702.383 237.424 702.933 237.023C703.482 236.615 704.142 236.411 704.912 236.411C705.663 236.411 706.297 236.58 706.815 236.916C707.339 237.253 707.737 237.731 708.008 238.352C708.28 238.967 708.416 239.692 708.416 240.526V246H706.582ZM700.04 246V236.664H701.642L701.884 238.682V246H700.04ZM721.546 246L721.313 243.855V239.963C721.313 239.2 721.154 238.647 720.837 238.304C720.52 237.955 720.019 237.78 719.333 237.78C718.945 237.78 718.599 237.838 718.294 237.955C717.997 238.065 717.761 238.233 717.586 238.459C717.418 238.686 717.334 238.97 717.334 239.313H715.296C715.296 238.627 715.464 238.071 715.8 237.644C716.137 237.217 716.606 236.906 717.208 236.712C717.816 236.512 718.524 236.411 719.333 236.411C720.09 236.411 720.756 236.538 721.332 236.79C721.908 237.036 722.354 237.424 722.671 237.955C722.995 238.485 723.157 239.171 723.157 240.012V246H721.546ZM718.421 246.252C717.638 246.252 716.988 246.116 716.47 245.845C715.952 245.567 715.564 245.204 715.305 244.758C715.053 244.311 714.927 243.836 714.927 243.331C714.927 242.716 715.082 242.212 715.393 241.817C715.71 241.416 716.146 241.118 716.703 240.924C717.259 240.73 717.9 240.633 718.624 240.633C719.123 240.633 719.608 240.678 720.08 240.769C720.553 240.86 721.018 240.979 721.478 241.128V242.244C721.102 242.108 720.685 242.002 720.226 241.924C719.773 241.84 719.349 241.798 718.954 241.798C718.366 241.798 717.874 241.914 717.479 242.147C717.085 242.38 716.887 242.775 716.887 243.331C716.887 243.739 717.043 244.091 717.353 244.389C717.664 244.68 718.155 244.826 718.828 244.826C719.32 244.826 719.753 244.716 720.129 244.496C720.504 244.269 720.795 243.988 721.002 243.651C721.209 243.315 721.313 242.979 721.313 242.642H721.759C721.759 243.289 721.627 243.888 721.361 244.437C721.102 244.981 720.724 245.421 720.226 245.757C719.728 246.087 719.126 246.252 718.421 246.252ZM730.609 246.252C729.929 246.252 729.341 246.1 728.842 245.796C728.344 245.486 727.963 245.033 727.697 244.437C727.438 243.836 727.309 243.092 727.309 242.205H728.027C728.027 242.716 728.137 243.15 728.357 243.506C728.577 243.855 728.865 244.124 729.221 244.311C729.583 244.492 729.968 244.583 730.376 244.583C730.803 244.583 731.217 244.463 731.618 244.224C732.026 243.978 732.359 243.613 732.618 243.127C732.877 242.642 733.006 242.04 733.006 241.322C733.006 240.636 732.889 240.051 732.657 239.566C732.43 239.08 732.12 238.708 731.725 238.45C731.33 238.191 730.887 238.061 730.395 238.061C729.981 238.061 729.593 238.162 729.231 238.362C728.868 238.556 728.577 238.844 728.357 239.226C728.137 239.601 728.027 240.061 728.027 240.604H727.309C727.309 239.666 727.458 238.886 727.756 238.265C728.06 237.644 728.467 237.181 728.978 236.877C729.489 236.567 730.056 236.411 730.677 236.411C731.408 236.411 732.094 236.609 732.734 237.003C733.375 237.392 733.892 237.951 734.287 238.682C734.688 239.414 734.889 240.293 734.889 241.322C734.889 242.351 734.688 243.234 734.287 243.972C733.886 244.709 733.359 245.275 732.705 245.67C732.058 246.058 731.359 246.252 730.609 246.252ZM726.183 250.581V236.664H727.707L728.027 238.906V250.581H726.183ZM741.686 246.252C741.007 246.252 740.418 246.1 739.92 245.796C739.422 245.486 739.04 245.033 738.775 244.437C738.516 243.836 738.386 243.092 738.386 242.205H739.105C739.105 242.716 739.215 243.15 739.435 243.506C739.655 243.855 739.942 244.124 740.298 244.311C740.661 244.492 741.046 244.583 741.453 244.583C741.88 244.583 742.294 244.463 742.695 244.224C743.103 243.978 743.436 243.613 743.695 243.127C743.954 242.642 744.083 242.04 744.083 241.322C744.083 240.636 743.967 240.051 743.734 239.566C743.507 239.08 743.197 238.708 742.802 238.45C742.408 238.191 741.964 238.061 741.473 238.061C741.059 238.061 740.67 238.162 740.308 238.362C739.946 238.556 739.655 238.844 739.435 239.226C739.215 239.601 739.105 240.061 739.105 240.604H738.386C738.386 239.666 738.535 238.886 738.833 238.265C739.137 237.644 739.545 237.181 740.056 236.877C740.567 236.567 741.133 236.411 741.754 236.411C742.485 236.411 743.171 236.609 743.812 237.003C744.452 237.392 744.97 237.951 745.364 238.682C745.765 239.414 745.966 240.293 745.966 241.322C745.966 242.351 745.765 243.234 745.364 243.972C744.963 244.709 744.436 245.275 743.782 245.67C743.135 246.058 742.437 246.252 741.686 246.252ZM737.261 250.581V236.664H738.784L739.105 238.906V250.581H737.261ZM755.59 246.252C755.06 246.252 754.581 246.152 754.154 245.951C753.727 245.751 753.387 245.45 753.135 245.049C752.889 244.641 752.766 244.13 752.766 243.516V234.121H754.6V243.457C754.6 244.337 755.011 244.777 755.833 244.777C756.085 244.777 756.331 244.751 756.571 244.7C756.81 244.641 757.082 244.557 757.386 244.447L757.648 245.757C757.305 245.9 756.965 246.016 756.629 246.107C756.299 246.204 755.953 246.252 755.59 246.252ZM751.34 237.916V236.664H757.366V237.916H751.34ZM766.097 246V240.526C766.097 239.718 765.903 239.106 765.514 238.692C765.133 238.272 764.615 238.061 763.962 238.061C763.444 238.061 762.991 238.204 762.603 238.488C762.221 238.767 761.924 239.177 761.71 239.721C761.503 240.258 761.4 240.915 761.4 241.691H760.74C760.74 240.546 760.885 239.582 761.176 238.799C761.474 238.016 761.898 237.424 762.448 237.023C762.998 236.615 763.658 236.411 764.428 236.411C765.178 236.411 765.812 236.58 766.33 236.916C766.854 237.253 767.252 237.731 767.523 238.352C767.795 238.967 767.931 239.692 767.931 240.526V246H766.097ZM759.556 246V232.733H761.4V246H759.556ZM776.807 246L776.574 243.855V239.963C776.574 239.2 776.416 238.647 776.099 238.304C775.782 237.955 775.28 237.78 774.595 237.78C774.206 237.78 773.86 237.838 773.556 237.955C773.258 238.065 773.022 238.233 772.848 238.459C772.679 238.686 772.595 238.97 772.595 239.313H770.557C770.557 238.627 770.725 238.071 771.062 237.644C771.398 237.217 771.867 236.906 772.469 236.712C773.077 236.512 773.786 236.411 774.595 236.411C775.352 236.411 776.018 236.538 776.594 236.79C777.17 237.036 777.616 237.424 777.933 237.955C778.257 238.485 778.418 239.171 778.418 240.012V246H776.807ZM773.682 246.252C772.899 246.252 772.249 246.116 771.732 245.845C771.214 245.567 770.826 245.204 770.567 244.758C770.315 244.311 770.188 243.836 770.188 243.331C770.188 242.716 770.344 242.212 770.654 241.817C770.971 241.416 771.408 241.118 771.964 240.924C772.521 240.73 773.161 240.633 773.886 240.633C774.384 240.633 774.87 240.678 775.342 240.769C775.814 240.86 776.28 240.979 776.739 241.128V242.244C776.364 242.108 775.947 242.002 775.487 241.924C775.035 241.84 774.611 241.798 774.216 241.798C773.627 241.798 773.136 241.914 772.741 242.147C772.346 242.38 772.149 242.775 772.149 243.331C772.149 243.739 772.304 244.091 772.615 244.389C772.925 244.68 773.417 244.826 774.09 244.826C774.582 244.826 775.015 244.716 775.39 244.496C775.766 244.269 776.057 243.988 776.264 243.651C776.471 243.315 776.574 242.979 776.574 242.642H777.021C777.021 243.289 776.888 243.888 776.623 244.437C776.364 244.981 775.986 245.421 775.487 245.757C774.989 246.087 774.388 246.252 773.682 246.252ZM784.444 246.252C783.913 246.252 783.434 246.152 783.007 245.951C782.58 245.751 782.241 245.45 781.988 245.049C781.743 244.641 781.62 244.13 781.62 243.516V234.121H783.454V243.457C783.454 244.337 783.865 244.777 784.686 244.777C784.939 244.777 785.185 244.751 785.424 244.7C785.663 244.641 785.935 244.557 786.239 244.447L786.501 245.757C786.158 245.9 785.819 246.016 785.482 246.107C785.152 246.204 784.806 246.252 784.444 246.252ZM780.193 237.916V236.664H786.22V237.916H780.193ZM797.156 246.252C796.548 246.252 795.995 246.091 795.496 245.767C795.005 245.437 794.61 244.952 794.312 244.311C794.021 243.671 793.876 242.885 793.876 241.953H794.507C794.507 242.496 794.623 242.966 794.856 243.36C795.095 243.755 795.399 244.059 795.768 244.273C796.137 244.48 796.522 244.583 796.923 244.583C797.402 244.583 797.832 244.45 798.214 244.185C798.602 243.92 798.909 243.541 799.136 243.05C799.369 242.551 799.485 241.966 799.485 241.293C799.485 240.627 799.372 240.054 799.145 239.575C798.919 239.09 798.612 238.718 798.224 238.459C797.835 238.194 797.395 238.061 796.904 238.061C796.49 238.061 796.098 238.162 795.729 238.362C795.367 238.563 795.073 238.86 794.846 239.255C794.62 239.643 794.507 240.119 794.507 240.682H793.876C793.876 239.769 794.018 238.996 794.303 238.362C794.587 237.728 794.982 237.246 795.487 236.916C795.998 236.58 796.596 236.411 797.282 236.411C798.026 236.411 798.706 236.612 799.32 237.013C799.941 237.408 800.436 237.971 800.805 238.702C801.18 239.433 801.368 240.297 801.368 241.293C801.368 242.296 801.177 243.169 800.795 243.913C800.414 244.651 799.902 245.227 799.262 245.641C798.628 246.049 797.926 246.252 797.156 246.252ZM792.663 246V232.733H794.507V243.758L793.915 246H792.663ZM807.202 246.252C806.4 246.252 805.675 246.045 805.028 245.631C804.381 245.217 803.867 244.641 803.485 243.904C803.11 243.166 802.922 242.312 802.922 241.342C802.922 240.313 803.11 239.433 803.485 238.702C803.86 237.964 804.371 237.398 805.018 237.003C805.665 236.609 806.393 236.411 807.202 236.411C807.926 236.411 808.548 236.56 809.065 236.858C809.583 237.149 810 237.544 810.317 238.042C810.634 238.534 810.851 239.093 810.967 239.721C811.09 240.348 811.113 240.995 811.035 241.662H804.397V240.594H809.774L809.327 240.885C809.347 240.536 809.327 240.187 809.269 239.837C809.217 239.488 809.114 239.168 808.958 238.877C808.803 238.579 808.583 238.343 808.298 238.168C808.02 237.987 807.664 237.896 807.231 237.896C806.687 237.896 806.231 238.032 805.863 238.304C805.5 238.576 805.225 238.941 805.038 239.401C804.85 239.853 804.756 240.352 804.756 240.895V241.642C804.756 242.244 804.847 242.778 805.028 243.244C805.209 243.71 805.478 244.078 805.833 244.35C806.196 244.615 806.652 244.748 807.202 244.748C807.739 244.748 808.182 244.622 808.531 244.37C808.887 244.117 809.107 243.739 809.191 243.234H811.074C810.977 243.842 810.754 244.373 810.404 244.826C810.055 245.279 809.605 245.631 809.055 245.884C808.512 246.129 807.894 246.252 807.202 246.252ZM816.888 246.252C815.982 246.252 815.218 246.126 814.597 245.874C813.976 245.615 813.501 245.259 813.171 244.806C812.847 244.347 812.679 243.81 812.666 243.195H814.403C814.429 243.732 814.642 244.13 815.044 244.389C815.451 244.648 816.001 244.777 816.693 244.777C817.062 244.777 817.395 244.719 817.693 244.602C817.997 244.486 818.237 244.328 818.411 244.127C818.592 243.926 818.683 243.7 818.683 243.448C818.683 243.131 818.567 242.881 818.334 242.7C818.101 242.513 817.725 242.348 817.208 242.205L815.296 241.555C814.532 241.296 813.947 240.953 813.539 240.526C813.132 240.093 812.928 239.575 812.928 238.974C812.928 238.204 813.271 237.586 813.957 237.12C814.642 236.648 815.551 236.411 816.684 236.411C817.855 236.411 818.757 236.661 819.391 237.159C820.032 237.65 820.365 238.268 820.391 239.012H818.615C818.57 238.644 818.385 238.362 818.062 238.168C817.745 237.967 817.285 237.867 816.684 237.867C816.121 237.867 815.678 237.99 815.354 238.236C815.037 238.482 814.879 238.76 814.879 239.071C814.879 239.627 815.357 240.041 816.315 240.313L818.324 241.021C819.087 241.267 819.676 241.584 820.09 241.972C820.504 242.361 820.711 242.852 820.711 243.448C820.711 243.926 820.553 244.379 820.236 244.806C819.919 245.233 819.472 245.583 818.896 245.854C818.327 246.12 817.657 246.252 816.888 246.252ZM826.202 246.252C825.671 246.252 825.192 246.152 824.765 245.951C824.338 245.751 823.999 245.45 823.746 245.049C823.501 244.641 823.378 244.13 823.378 243.516V234.121H825.212V243.457C825.212 244.337 825.623 244.777 826.444 244.777C826.697 244.777 826.943 244.751 827.182 244.7C827.421 244.641 827.693 244.557 827.997 244.447L828.259 245.757C827.916 245.9 827.577 246.016 827.24 246.107C826.91 246.204 826.564 246.252 826.202 246.252ZM821.951 237.916V236.664H827.978V237.916H821.951ZM837.934 246.252C837.086 246.252 836.326 246.068 835.653 245.699C834.987 245.33 834.459 244.78 834.071 244.049C833.683 243.318 833.489 242.416 833.489 241.342C833.489 240.248 833.683 239.339 834.071 238.614C834.459 237.883 834.987 237.333 835.653 236.965C836.326 236.596 837.086 236.411 837.934 236.411C838.768 236.411 839.519 236.596 840.185 236.965C840.852 237.333 841.376 237.883 841.758 238.614C842.146 239.339 842.34 240.248 842.34 241.342C842.34 242.416 842.146 243.318 841.758 244.049C841.376 244.78 840.852 245.33 840.185 245.699C839.519 246.068 838.768 246.252 837.934 246.252ZM837.876 244.641C838.413 244.641 838.875 244.512 839.263 244.253C839.658 243.994 839.959 243.619 840.166 243.127C840.379 242.629 840.486 242.034 840.486 241.342C840.486 240.281 840.269 239.459 839.836 238.877C839.409 238.294 838.791 238.003 837.982 238.003C837.439 238.003 836.97 238.136 836.575 238.401C836.187 238.66 835.886 239.038 835.672 239.536C835.465 240.028 835.362 240.63 835.362 241.342C835.362 242.383 835.579 243.195 836.012 243.778C836.446 244.353 837.067 244.641 837.876 244.641ZM849.127 246.252C848.448 246.252 847.859 246.1 847.361 245.796C846.863 245.486 846.481 245.033 846.216 244.437C845.957 243.836 845.828 243.092 845.828 242.205H846.546C846.546 242.716 846.656 243.15 846.876 243.506C847.096 243.855 847.384 244.124 847.739 244.311C848.102 244.492 848.487 244.583 848.894 244.583C849.321 244.583 849.735 244.463 850.137 244.224C850.544 243.978 850.877 243.613 851.136 243.127C851.395 242.642 851.524 242.04 851.524 241.322C851.524 240.636 851.408 240.051 851.175 239.566C850.949 239.08 850.638 238.708 850.243 238.45C849.849 238.191 849.405 238.061 848.914 238.061C848.5 238.061 848.111 238.162 847.749 238.362C847.387 238.556 847.096 238.844 846.876 239.226C846.656 239.601 846.546 240.061 846.546 240.604H845.828C845.828 239.666 845.976 238.886 846.274 238.265C846.578 237.644 846.986 237.181 847.497 236.877C848.008 236.567 848.574 236.411 849.195 236.411C849.926 236.411 850.612 236.609 851.253 237.003C851.893 237.392 852.411 237.951 852.805 238.682C853.207 239.414 853.407 240.293 853.407 241.322C853.407 242.351 853.207 243.234 852.805 243.972C852.404 244.709 851.877 245.275 851.224 245.67C850.577 246.058 849.878 246.252 849.127 246.252ZM844.702 250.581V236.664H846.225L846.546 238.906V250.581H844.702ZM858.778 246.252C858.247 246.252 857.769 246.152 857.342 245.951C856.915 245.751 856.575 245.45 856.323 245.049C856.077 244.641 855.954 244.13 855.954 243.516V234.121H857.788V243.457C857.788 244.337 858.199 244.777 859.021 244.777C859.273 244.777 859.519 244.751 859.758 244.7C859.998 244.641 860.269 244.557 860.573 244.447L860.835 245.757C860.493 245.9 860.153 246.016 859.816 246.107C859.486 246.204 859.14 246.252 858.778 246.252ZM854.527 237.916V236.664H860.554V237.916H854.527ZM863.811 234.674C863.442 234.674 863.151 234.574 862.937 234.373C862.73 234.166 862.627 233.888 862.627 233.539C862.627 233.202 862.73 232.937 862.937 232.743C863.151 232.542 863.442 232.442 863.811 232.442C864.173 232.442 864.458 232.542 864.665 232.743C864.878 232.937 864.985 233.202 864.985 233.539C864.985 233.888 864.878 234.166 864.665 234.373C864.458 234.574 864.173 234.674 863.811 234.674ZM862.889 246V236.635H864.733V246H862.889ZM881.222 246V240.526C881.222 239.718 881.028 239.106 880.64 238.692C880.258 238.272 879.744 238.061 879.097 238.061C878.321 238.061 877.719 238.365 877.292 238.974C876.871 239.582 876.661 240.455 876.661 241.594H875.856C875.856 240.695 875.943 239.918 876.118 239.265C876.292 238.611 876.541 238.074 876.865 237.654C877.195 237.233 877.586 236.923 878.039 236.722C878.499 236.515 879.01 236.411 879.573 236.411C880.323 236.411 880.957 236.58 881.475 236.916C881.999 237.253 882.397 237.731 882.669 238.352C882.94 238.967 883.076 239.692 883.076 240.526V246H881.222ZM868.286 246V236.664H869.887L870.091 238.42C870.388 237.767 870.796 237.269 871.314 236.926C871.838 236.583 872.452 236.411 873.158 236.411C873.908 236.411 874.542 236.58 875.06 236.916C875.584 237.253 875.982 237.731 876.254 238.352C876.525 238.967 876.661 239.692 876.661 240.526V246H874.827V240.526C874.827 239.718 874.633 239.106 874.245 238.692C873.863 238.272 873.345 238.061 872.692 238.061C872.174 238.061 871.721 238.204 871.333 238.488C870.951 238.767 870.654 239.177 870.44 239.721C870.233 240.258 870.13 240.915 870.13 241.691V246H868.286ZM887.141 234.674C886.772 234.674 886.481 234.574 886.267 234.373C886.06 234.166 885.957 233.888 885.957 233.539C885.957 233.202 886.06 232.937 886.267 232.743C886.481 232.542 886.772 232.442 887.141 232.442C887.503 232.442 887.788 232.542 887.995 232.743C888.208 232.937 888.315 233.202 888.315 233.539C888.315 233.888 888.208 234.166 887.995 234.373C887.788 234.574 887.503 234.674 887.141 234.674ZM886.219 246V236.635H888.063V246H886.219ZM890.781 246V244.505L896.012 238.149H890.781V236.664H898.069V238.149L892.955 244.505H898.069V246H890.781ZM903.861 246.252C903.059 246.252 902.334 246.045 901.687 245.631C901.04 245.217 900.526 244.641 900.144 243.904C899.769 243.166 899.581 242.312 899.581 241.342C899.581 240.313 899.769 239.433 900.144 238.702C900.52 237.964 901.031 237.398 901.678 237.003C902.325 236.609 903.053 236.411 903.861 236.411C904.586 236.411 905.207 236.56 905.725 236.858C906.242 237.149 906.66 237.544 906.977 238.042C907.294 238.534 907.51 239.093 907.627 239.721C907.75 240.348 907.772 240.995 907.695 241.662H901.057V240.594H906.433L905.987 240.885C906.006 240.536 905.987 240.187 905.929 239.837C905.877 239.488 905.773 239.168 905.618 238.877C905.463 238.579 905.243 238.343 904.958 238.168C904.68 237.987 904.324 237.896 903.89 237.896C903.347 237.896 902.891 238.032 902.522 238.304C902.16 238.576 901.885 238.941 901.697 239.401C901.51 239.853 901.416 240.352 901.416 240.895V241.642C901.416 242.244 901.506 242.778 901.687 243.244C901.869 243.71 902.137 244.078 902.493 244.35C902.855 244.615 903.311 244.748 903.861 244.748C904.398 244.748 904.842 244.622 905.191 244.37C905.547 244.117 905.767 243.739 905.851 243.234H907.734C907.637 243.842 907.413 244.373 907.064 244.826C906.715 245.279 906.265 245.631 905.715 245.884C905.172 246.129 904.554 246.252 903.861 246.252ZM913.547 246.252C912.641 246.252 911.878 246.126 911.257 245.874C910.636 245.615 910.16 245.259 909.83 244.806C909.507 244.347 909.338 243.81 909.325 243.195H911.063C911.088 243.732 911.302 244.13 911.703 244.389C912.111 244.648 912.661 244.777 913.353 244.777C913.722 244.777 914.055 244.719 914.353 244.602C914.657 244.486 914.896 244.328 915.071 244.127C915.252 243.926 915.343 243.7 915.343 243.448C915.343 243.131 915.226 242.881 914.993 242.7C914.76 242.513 914.385 242.348 913.867 242.205L911.955 241.555C911.192 241.296 910.606 240.953 910.199 240.526C909.791 240.093 909.587 239.575 909.587 238.974C909.587 238.204 909.93 237.586 910.616 237.12C911.302 236.648 912.211 236.411 913.343 236.411C914.514 236.411 915.417 236.661 916.051 237.159C916.692 237.65 917.025 238.268 917.051 239.012H915.275C915.229 238.644 915.045 238.362 914.721 238.168C914.404 237.967 913.945 237.867 913.343 237.867C912.78 237.867 912.337 237.99 912.014 238.236C911.697 238.482 911.538 238.76 911.538 239.071C911.538 239.627 912.017 240.041 912.975 240.313L914.983 241.021C915.747 241.267 916.336 241.584 916.75 241.972C917.164 242.361 917.371 242.852 917.371 243.448C917.371 243.926 917.212 244.379 916.895 244.806C916.578 245.233 916.132 245.583 915.556 245.854C914.987 246.12 914.317 246.252 913.547 246.252ZM928.609 246.252C928.001 246.252 927.448 246.091 926.95 245.767C926.458 245.437 926.063 244.952 925.766 244.311C925.475 243.671 925.329 242.885 925.329 241.953H925.96C925.96 242.496 926.076 242.966 926.309 243.36C926.549 243.755 926.853 244.059 927.222 244.273C927.59 244.48 927.975 244.583 928.376 244.583C928.855 244.583 929.286 244.45 929.667 244.185C930.055 243.92 930.363 243.541 930.589 243.05C930.822 242.551 930.939 241.966 930.939 241.293C930.939 240.627 930.825 240.054 930.599 239.575C930.372 239.09 930.065 238.718 929.677 238.459C929.289 238.194 928.849 238.061 928.357 238.061C927.943 238.061 927.552 238.162 927.183 238.362C926.82 238.563 926.526 238.86 926.3 239.255C926.073 239.643 925.96 240.119 925.96 240.682H925.329C925.329 239.769 925.471 238.996 925.756 238.362C926.041 237.728 926.435 237.246 926.94 236.916C927.451 236.58 928.05 236.411 928.736 236.411C929.48 236.411 930.159 236.612 930.774 237.013C931.395 237.408 931.89 237.971 932.258 238.702C932.634 239.433 932.821 240.297 932.821 241.293C932.821 242.296 932.631 243.169 932.249 243.913C931.867 244.651 931.356 245.227 930.715 245.641C930.081 246.049 929.379 246.252 928.609 246.252ZM924.116 246V232.733H925.96V243.758L925.368 246H924.116ZM938.82 246.252C937.973 246.252 937.213 246.068 936.54 245.699C935.873 245.33 935.346 244.78 934.958 244.049C934.57 243.318 934.375 242.416 934.375 241.342C934.375 240.248 934.57 239.339 934.958 238.614C935.346 237.883 935.873 237.333 936.54 236.965C937.213 236.596 937.973 236.411 938.82 236.411C939.655 236.411 940.405 236.596 941.072 236.965C941.738 237.333 942.262 237.883 942.644 238.614C943.032 239.339 943.226 240.248 943.226 241.342C943.226 242.416 943.032 243.318 942.644 244.049C942.262 244.78 941.738 245.33 941.072 245.699C940.405 246.068 939.655 246.252 938.82 246.252ZM938.762 244.641C939.299 244.641 939.762 244.512 940.15 244.253C940.545 243.994 940.845 243.619 941.052 243.127C941.266 242.629 941.373 242.034 941.373 241.342C941.373 240.281 941.156 239.459 940.722 238.877C940.295 238.294 939.678 238.003 938.869 238.003C938.325 238.003 937.856 238.136 937.462 238.401C937.073 238.66 936.773 239.038 936.559 239.536C936.352 240.028 936.248 240.63 936.248 241.342C936.248 242.383 936.465 243.195 936.899 243.778C937.332 244.353 937.953 244.641 938.762 244.641ZM948.587 246.252C948.057 246.252 947.578 246.152 947.151 245.951C946.724 245.751 946.384 245.45 946.132 245.049C945.886 244.641 945.763 244.13 945.763 243.516V234.121H947.597V243.457C947.597 244.337 948.008 244.777 948.83 244.777C949.082 244.777 949.328 244.751 949.567 244.7C949.807 244.641 950.079 244.557 950.383 244.447L950.645 245.757C950.302 245.9 949.962 246.016 949.626 246.107C949.296 246.204 948.95 246.252 948.587 246.252ZM944.336 237.916V236.664H950.363V237.916H944.336ZM959.094 246V240.526C959.094 239.718 958.899 239.106 958.511 238.692C958.13 238.272 957.612 238.061 956.958 238.061C956.441 238.061 955.988 238.204 955.6 238.488C955.218 238.767 954.92 239.177 954.707 239.721C954.5 240.258 954.396 240.915 954.396 241.691H953.736C953.736 240.546 953.882 239.582 954.173 238.799C954.471 238.016 954.895 237.424 955.444 237.023C955.994 236.615 956.654 236.411 957.424 236.411C958.175 236.411 958.809 236.58 959.326 236.916C959.851 237.253 960.248 237.731 960.52 238.352C960.792 238.967 960.928 239.692 960.928 240.526V246H959.094ZM952.552 246V232.733H954.396V246H952.552ZM539.335 278.252C538.726 278.252 538.173 278.091 537.675 277.767C537.183 277.437 536.789 276.952 536.491 276.311C536.2 275.671 536.054 274.885 536.054 273.953H536.685C536.685 274.496 536.802 274.966 537.035 275.36C537.274 275.755 537.578 276.059 537.947 276.273C538.316 276.48 538.701 276.583 539.102 276.583C539.581 276.583 540.011 276.45 540.393 276.185C540.781 275.92 541.088 275.541 541.314 275.05C541.547 274.551 541.664 273.966 541.664 273.293C541.664 272.627 541.551 272.054 541.324 271.575C541.098 271.09 540.79 270.718 540.402 270.459C540.014 270.194 539.574 270.061 539.082 270.061C538.668 270.061 538.277 270.162 537.908 270.362C537.546 270.563 537.251 270.86 537.025 271.255C536.798 271.643 536.685 272.119 536.685 272.682H536.054C536.054 271.769 536.197 270.996 536.481 270.362C536.766 269.728 537.161 269.246 537.665 268.916C538.177 268.58 538.775 268.411 539.461 268.411C540.205 268.411 540.884 268.612 541.499 269.013C542.12 269.408 542.615 269.971 542.984 270.702C543.359 271.433 543.547 272.297 543.547 273.293C543.547 274.296 543.356 275.169 542.974 275.913C542.592 276.651 542.081 277.227 541.441 277.641C540.807 278.049 540.105 278.252 539.335 278.252ZM534.841 278V264.733H536.685V275.758L536.093 278H534.841ZM547.1 266.674C546.731 266.674 546.44 266.574 546.226 266.373C546.019 266.166 545.916 265.888 545.916 265.539C545.916 265.202 546.019 264.937 546.226 264.743C546.44 264.542 546.731 264.442 547.1 264.442C547.462 264.442 547.747 264.542 547.954 264.743C548.167 264.937 548.274 265.202 548.274 265.539C548.274 265.888 548.167 266.166 547.954 266.373C547.747 266.574 547.462 266.674 547.1 266.674ZM546.178 278V268.635H548.022V278H546.178ZM551.575 278V264.733H553.419V278H551.575ZM553.157 272.458L557.592 268.664H560.125L553.157 274.39V272.458ZM558.097 278L553.768 272.08L555.573 271.701L560.348 278H558.097ZM565.602 278.252C564.8 278.252 564.075 278.045 563.428 277.631C562.781 277.217 562.267 276.641 561.885 275.904C561.51 275.166 561.322 274.312 561.322 273.342C561.322 272.313 561.51 271.433 561.885 270.702C562.261 269.964 562.772 269.398 563.419 269.003C564.066 268.609 564.794 268.411 565.602 268.411C566.327 268.411 566.948 268.56 567.466 268.858C567.983 269.149 568.401 269.544 568.718 270.042C569.035 270.534 569.251 271.093 569.368 271.721C569.491 272.348 569.513 272.995 569.436 273.662H562.798V272.594H568.174L567.728 272.885C567.747 272.536 567.728 272.187 567.669 271.837C567.618 271.488 567.514 271.168 567.359 270.877C567.204 270.579 566.984 270.343 566.699 270.168C566.421 269.987 566.065 269.896 565.631 269.896C565.088 269.896 564.632 270.032 564.263 270.304C563.901 270.576 563.626 270.941 563.438 271.401C563.25 271.853 563.157 272.352 563.157 272.895V273.642C563.157 274.244 563.247 274.778 563.428 275.244C563.61 275.71 563.878 276.078 564.234 276.35C564.596 276.615 565.052 276.748 565.602 276.748C566.139 276.748 566.583 276.622 566.932 276.37C567.288 276.117 567.508 275.739 567.592 275.234H569.475C569.378 275.842 569.154 276.373 568.805 276.826C568.456 277.279 568.006 277.631 567.456 277.884C566.912 278.129 566.295 278.252 565.602 278.252ZM579.124 278.252C578.594 278.252 578.115 278.152 577.688 277.951C577.261 277.751 576.921 277.45 576.669 277.049C576.423 276.641 576.3 276.13 576.3 275.516V266.121H578.134V275.457C578.134 276.337 578.545 276.777 579.367 276.777C579.619 276.777 579.865 276.751 580.104 276.7C580.344 276.641 580.616 276.557 580.92 276.447L581.182 277.757C580.839 277.9 580.499 278.016 580.163 278.107C579.833 278.204 579.487 278.252 579.124 278.252ZM574.873 269.916V268.664H580.9V269.916H574.873ZM583.09 278V268.635H584.933V278H583.09ZM584.429 273.827C584.429 272.63 584.552 271.637 584.798 270.847C585.05 270.052 585.399 269.46 585.846 269.071C586.299 268.683 586.829 268.489 587.437 268.489C587.619 268.489 587.787 268.502 587.942 268.528C588.104 268.554 588.262 268.589 588.418 268.635L588.35 270.469C588.175 270.424 587.984 270.385 587.777 270.352C587.576 270.314 587.392 270.294 587.224 270.294C586.693 270.294 586.26 270.437 585.923 270.721C585.587 270.999 585.338 271.404 585.176 271.934C585.014 272.458 584.933 273.089 584.933 273.827H584.429ZM595.716 278L595.483 275.855V271.963C595.483 271.2 595.325 270.647 595.008 270.304C594.691 269.955 594.189 269.78 593.503 269.78C593.115 269.78 592.769 269.838 592.465 269.955C592.167 270.065 591.931 270.233 591.757 270.459C591.588 270.686 591.504 270.97 591.504 271.313H589.466C589.466 270.627 589.634 270.071 589.971 269.644C590.307 269.217 590.776 268.906 591.378 268.712C591.986 268.512 592.695 268.411 593.503 268.411C594.26 268.411 594.927 268.538 595.503 268.79C596.078 269.036 596.525 269.424 596.842 269.955C597.165 270.485 597.327 271.171 597.327 272.012V278H595.716ZM592.591 278.252C591.808 278.252 591.158 278.116 590.64 277.845C590.123 277.567 589.735 277.204 589.476 276.758C589.224 276.311 589.097 275.836 589.097 275.331C589.097 274.716 589.253 274.212 589.563 273.817C589.88 273.416 590.317 273.118 590.873 272.924C591.43 272.73 592.07 272.633 592.795 272.633C593.293 272.633 593.778 272.678 594.251 272.769C594.723 272.86 595.189 272.979 595.648 273.128V274.244C595.273 274.108 594.856 274.002 594.396 273.924C593.943 273.84 593.52 273.798 593.125 273.798C592.536 273.798 592.044 273.914 591.65 274.147C591.255 274.38 591.058 274.775 591.058 275.331C591.058 275.739 591.213 276.091 591.524 276.389C591.834 276.68 592.326 276.826 592.999 276.826C593.49 276.826 593.924 276.716 594.299 276.496C594.674 276.269 594.966 275.988 595.173 275.651C595.38 275.315 595.483 274.979 595.483 274.642H595.93C595.93 275.289 595.797 275.888 595.532 276.437C595.273 276.981 594.894 277.421 594.396 277.757C593.898 278.087 593.296 278.252 592.591 278.252ZM601.421 266.674C601.053 266.674 600.761 266.574 600.548 266.373C600.341 266.166 600.237 265.888 600.237 265.539C600.237 265.202 600.341 264.937 600.548 264.743C600.761 264.542 601.053 264.442 601.421 264.442C601.784 264.442 602.068 264.542 602.275 264.743C602.489 264.937 602.596 265.202 602.596 265.539C602.596 265.888 602.489 266.166 602.275 266.373C602.068 266.574 601.784 266.674 601.421 266.674ZM600.499 278V268.635H602.343V278H600.499ZM605.896 278V264.733H607.74V278H605.896ZM616.362 266.674C615.993 266.674 615.702 266.574 615.488 266.373C615.281 266.166 615.178 265.888 615.178 265.539C615.178 265.202 615.281 264.937 615.488 264.743C615.702 264.542 615.993 264.442 616.362 264.442C616.724 264.442 617.009 264.542 617.216 264.743C617.429 264.937 617.536 265.202 617.536 265.539C617.536 265.888 617.429 266.166 617.216 266.373C617.009 266.574 616.724 266.674 616.362 266.674ZM615.44 278V268.635H617.284V278H615.44ZM627.378 278V272.526C627.378 271.718 627.184 271.106 626.796 270.692C626.414 270.272 625.896 270.061 625.243 270.061C624.725 270.061 624.272 270.204 623.884 270.488C623.502 270.767 623.205 271.177 622.991 271.721C622.784 272.258 622.681 272.915 622.681 273.691H622.021C622.021 272.546 622.166 271.582 622.457 270.799C622.755 270.016 623.179 269.424 623.729 269.023C624.279 268.615 624.939 268.411 625.709 268.411C626.459 268.411 627.093 268.58 627.611 268.916C628.135 269.253 628.533 269.731 628.804 270.352C629.076 270.967 629.212 271.692 629.212 272.526V278H627.378ZM620.837 278V268.664H622.438L622.681 270.682V278H620.837ZM632.76 278V267.354C632.76 266.707 632.883 266.183 633.129 265.781C633.381 265.374 633.715 265.073 634.129 264.879C634.543 264.685 634.999 264.588 635.497 264.588C635.782 264.588 636.073 264.607 636.371 264.646C636.675 264.685 636.972 264.743 637.263 264.821L636.914 266.257C636.733 266.192 636.548 266.14 636.361 266.102C636.18 266.063 636.005 266.043 635.837 266.043C635.636 266.043 635.442 266.082 635.254 266.16C635.067 266.231 634.912 266.364 634.789 266.558C634.672 266.752 634.614 267.027 634.614 267.383V278H632.76ZM631.295 269.916V268.664H636.448V269.916H631.295ZM642.107 278.252C641.259 278.252 640.499 278.068 639.826 277.699C639.16 277.33 638.633 276.78 638.244 276.049C637.856 275.318 637.662 274.416 637.662 273.342C637.662 272.248 637.856 271.339 638.244 270.614C638.633 269.883 639.16 269.333 639.826 268.965C640.499 268.596 641.259 268.411 642.107 268.411C642.942 268.411 643.692 268.596 644.359 268.965C645.025 269.333 645.549 269.883 645.931 270.614C646.319 271.339 646.513 272.248 646.513 273.342C646.513 274.416 646.319 275.318 645.931 276.049C645.549 276.78 645.025 277.33 644.359 277.699C643.692 278.068 642.942 278.252 642.107 278.252ZM642.049 276.641C642.586 276.641 643.048 276.512 643.437 276.253C643.831 275.994 644.132 275.619 644.339 275.127C644.553 274.629 644.659 274.034 644.659 273.342C644.659 272.281 644.443 271.459 644.009 270.877C643.582 270.294 642.964 270.003 642.156 270.003C641.612 270.003 641.143 270.136 640.748 270.401C640.36 270.66 640.059 271.038 639.846 271.536C639.639 272.028 639.535 272.63 639.535 273.342C639.535 274.383 639.752 275.195 640.185 275.778C640.619 276.353 641.24 276.641 642.049 276.641ZM648.875 278V268.635H650.719V278H648.875ZM650.214 273.827C650.214 272.63 650.337 271.637 650.583 270.847C650.835 270.052 651.185 269.46 651.631 269.071C652.084 268.683 652.615 268.489 653.223 268.489C653.404 268.489 653.572 268.502 653.728 268.528C653.889 268.554 654.048 268.589 654.203 268.635L654.135 270.469C653.96 270.424 653.77 270.385 653.563 270.352C653.362 270.314 653.178 270.294 653.009 270.294C652.479 270.294 652.045 270.437 651.709 270.721C651.372 270.999 651.123 271.404 650.962 271.934C650.8 272.458 650.719 273.089 650.719 273.827H650.214ZM668.586 278V272.526C668.586 271.718 668.392 271.106 668.004 270.692C667.622 270.272 667.108 270.061 666.461 270.061C665.685 270.061 665.083 270.365 664.656 270.974C664.235 271.582 664.025 272.455 664.025 273.594H663.219C663.219 272.695 663.307 271.918 663.481 271.265C663.656 270.611 663.905 270.074 664.229 269.654C664.559 269.233 664.95 268.923 665.403 268.722C665.862 268.515 666.374 268.411 666.936 268.411C667.687 268.411 668.321 268.58 668.839 268.916C669.363 269.253 669.761 269.731 670.032 270.352C670.304 270.967 670.44 271.692 670.44 272.526V278H668.586ZM655.65 278V268.664H657.251L657.455 270.42C657.752 269.767 658.16 269.269 658.678 268.926C659.202 268.583 659.816 268.411 660.521 268.411C661.272 268.411 661.906 268.58 662.424 268.916C662.948 269.253 663.346 269.731 663.617 270.352C663.889 270.967 664.025 271.692 664.025 272.526V278H662.191V272.526C662.191 271.718 661.997 271.106 661.608 270.692C661.227 270.272 660.709 270.061 660.056 270.061C659.538 270.061 659.085 270.204 658.697 270.488C658.315 270.767 658.018 271.177 657.804 271.721C657.597 272.258 657.493 272.915 657.493 273.691V278H655.65ZM679.289 278L679.056 275.855V271.963C679.056 271.2 678.898 270.647 678.581 270.304C678.264 269.955 677.762 269.78 677.076 269.78C676.688 269.78 676.342 269.838 676.038 269.955C675.74 270.065 675.504 270.233 675.329 270.459C675.161 270.686 675.077 270.97 675.077 271.313H673.039C673.039 270.627 673.207 270.071 673.544 269.644C673.88 269.217 674.349 268.906 674.951 268.712C675.559 268.512 676.268 268.411 677.076 268.411C677.833 268.411 678.5 268.538 679.076 268.79C679.651 269.036 680.098 269.424 680.415 269.955C680.738 270.485 680.9 271.171 680.9 272.012V278H679.289ZM676.164 278.252C675.381 278.252 674.731 278.116 674.213 277.845C673.696 277.567 673.308 277.204 673.049 276.758C672.796 276.311 672.67 275.836 672.67 275.331C672.67 274.716 672.826 274.212 673.136 273.817C673.453 273.416 673.89 273.118 674.446 272.924C675.003 272.73 675.643 272.633 676.368 272.633C676.866 272.633 677.351 272.678 677.824 272.769C678.296 272.86 678.762 272.979 679.221 273.128V274.244C678.846 274.108 678.429 274.002 677.969 273.924C677.516 273.84 677.093 273.798 676.698 273.798C676.109 273.798 675.617 273.914 675.223 274.147C674.828 274.38 674.631 274.775 674.631 275.331C674.631 275.739 674.786 276.091 675.097 276.389C675.407 276.68 675.899 276.826 676.572 276.826C677.063 276.826 677.497 276.716 677.872 276.496C678.247 276.269 678.539 275.988 678.746 275.651C678.953 275.315 679.056 274.979 679.056 274.642H679.503C679.503 275.289 679.37 275.888 679.105 276.437C678.846 276.981 678.467 277.421 677.969 277.757C677.471 278.087 676.869 278.252 676.164 278.252ZM686.926 278.252C686.395 278.252 685.916 278.152 685.489 277.951C685.062 277.751 684.723 277.45 684.47 277.049C684.224 276.641 684.101 276.13 684.101 275.516V266.121H685.936V275.457C685.936 276.337 686.347 276.777 687.168 276.777C687.421 276.777 687.666 276.751 687.906 276.7C688.145 276.641 688.417 276.557 688.721 276.447L688.983 277.757C688.64 277.9 688.3 278.016 687.964 278.107C687.634 278.204 687.288 278.252 686.926 278.252ZM682.675 269.916V268.664H688.702V269.916H682.675ZM691.958 266.674C691.59 266.674 691.298 266.574 691.085 266.373C690.878 266.166 690.774 265.888 690.774 265.539C690.774 265.202 690.878 264.937 691.085 264.743C691.298 264.542 691.59 264.442 691.958 264.442C692.321 264.442 692.605 264.542 692.812 264.743C693.026 264.937 693.133 265.202 693.133 265.539C693.133 265.888 693.026 266.166 692.812 266.373C692.605 266.574 692.321 266.674 691.958 266.674ZM691.036 278V268.635H692.88V278H691.036ZM699.947 278.252C699.099 278.252 698.339 278.068 697.666 277.699C696.999 277.33 696.472 276.78 696.084 276.049C695.696 275.318 695.502 274.416 695.502 273.342C695.502 272.248 695.696 271.339 696.084 270.614C696.472 269.883 696.999 269.333 697.666 268.965C698.339 268.596 699.099 268.411 699.947 268.411C700.781 268.411 701.532 268.596 702.198 268.965C702.864 269.333 703.389 269.883 703.77 270.614C704.158 271.339 704.353 272.248 704.353 273.342C704.353 274.416 704.158 275.318 703.77 276.049C703.389 276.78 702.864 277.33 702.198 277.699C701.532 278.068 700.781 278.252 699.947 278.252ZM699.888 276.641C700.425 276.641 700.888 276.512 701.276 276.253C701.671 275.994 701.972 275.619 702.179 275.127C702.392 274.629 702.499 274.034 702.499 273.342C702.499 272.281 702.282 271.459 701.849 270.877C701.422 270.294 700.804 270.003 699.995 270.003C699.452 270.003 698.982 270.136 698.588 270.401C698.2 270.66 697.899 271.038 697.685 271.536C697.478 272.028 697.375 272.63 697.375 273.342C697.375 274.383 697.591 275.195 698.025 275.778C698.458 276.353 699.08 276.641 699.888 276.641ZM713.256 278V272.526C713.256 271.718 713.062 271.106 712.673 270.692C712.292 270.272 711.774 270.061 711.121 270.061C710.603 270.061 710.15 270.204 709.762 270.488C709.38 270.767 709.083 271.177 708.869 271.721C708.662 272.258 708.558 272.915 708.558 273.691H707.899C707.899 272.546 708.044 271.582 708.335 270.799C708.633 270.016 709.057 269.424 709.607 269.023C710.157 268.615 710.817 268.411 711.586 268.411C712.337 268.411 712.971 268.58 713.489 268.916C714.013 269.253 714.411 269.731 714.682 270.352C714.954 270.967 715.09 271.692 715.09 272.526V278H713.256ZM706.715 278V268.664H708.316L708.558 270.682V278H706.715ZM728.22 278L727.987 275.855V271.963C727.987 271.2 727.828 270.647 727.511 270.304C727.194 269.955 726.693 269.78 726.007 269.78C725.619 269.78 725.273 269.838 724.969 269.955C724.671 270.065 724.435 270.233 724.26 270.459C724.092 270.686 724.008 270.97 724.008 271.313H721.97C721.97 270.627 722.138 270.071 722.474 269.644C722.811 269.217 723.28 268.906 723.882 268.712C724.49 268.512 725.198 268.411 726.007 268.411C726.764 268.411 727.43 268.538 728.006 268.79C728.582 269.036 729.028 269.424 729.346 269.955C729.669 270.485 729.831 271.171 729.831 272.012V278H728.22ZM725.095 278.252C724.312 278.252 723.662 278.116 723.144 277.845C722.626 277.567 722.238 277.204 721.979 276.758C721.727 276.311 721.601 275.836 721.601 275.331C721.601 274.716 721.756 274.212 722.067 273.817C722.384 273.416 722.821 273.118 723.377 272.924C723.933 272.73 724.574 272.633 725.299 272.633C725.797 272.633 726.282 272.678 726.754 272.769C727.227 272.86 727.692 272.979 728.152 273.128V274.244C727.777 274.108 727.359 274.002 726.9 273.924C726.447 273.84 726.023 273.798 725.629 273.798C725.04 273.798 724.548 273.914 724.153 274.147C723.759 274.38 723.561 274.775 723.561 275.331C723.561 275.739 723.717 276.091 724.027 276.389C724.338 276.68 724.829 276.826 725.502 276.826C725.994 276.826 726.428 276.716 726.803 276.496C727.178 276.269 727.469 275.988 727.676 275.651C727.883 275.315 727.987 274.979 727.987 274.642H728.433C728.433 275.289 728.301 275.888 728.035 276.437C727.777 276.981 727.398 277.421 726.9 277.757C726.402 278.087 725.8 278.252 725.095 278.252ZM739.399 278V272.526C739.399 271.718 739.204 271.106 738.816 270.692C738.435 270.272 737.917 270.061 737.263 270.061C736.746 270.061 736.293 270.204 735.905 270.488C735.523 270.767 735.225 271.177 735.012 271.721C734.805 272.258 734.701 272.915 734.701 273.691H734.041C734.041 272.546 734.187 271.582 734.478 270.799C734.776 270.016 735.2 269.424 735.749 269.023C736.299 268.615 736.959 268.411 737.729 268.411C738.48 268.411 739.114 268.58 739.631 268.916C740.156 269.253 740.553 269.731 740.825 270.352C741.097 270.967 741.233 271.692 741.233 272.526V278H739.399ZM732.857 278V268.664H734.459L734.701 270.682V278H732.857ZM747.644 278.252C746.881 278.252 746.179 278.049 745.538 277.641C744.897 277.227 744.386 276.651 744.005 275.913C743.629 275.169 743.442 274.296 743.442 273.293C743.442 272.297 743.626 271.433 743.995 270.702C744.37 269.971 744.865 269.408 745.48 269.013C746.094 268.612 746.777 268.411 747.528 268.411C748.213 268.411 748.812 268.58 749.323 268.916C749.834 269.246 750.229 269.728 750.507 270.362C750.792 270.996 750.934 271.769 750.934 272.682H750.293C750.293 272.119 750.18 271.643 749.954 271.255C749.727 270.86 749.433 270.563 749.071 270.362C748.708 270.162 748.32 270.061 747.906 270.061C747.421 270.061 746.981 270.194 746.586 270.459C746.198 270.718 745.887 271.09 745.654 271.575C745.428 272.054 745.315 272.627 745.315 273.293C745.315 273.966 745.428 274.551 745.654 275.05C745.887 275.541 746.198 275.92 746.586 276.185C746.981 276.45 747.418 276.583 747.896 276.583C748.291 276.583 748.669 276.48 749.032 276.273C749.401 276.059 749.701 275.755 749.934 275.36C750.174 274.966 750.293 274.496 750.293 273.953H750.934C750.934 274.885 750.785 275.671 750.488 276.311C750.196 276.952 749.802 277.437 749.304 277.767C748.805 278.091 748.252 278.252 747.644 278.252ZM750.614 278L750.293 275.758V264.733H752.147V278H750.614ZM760.226 278V267.354C760.226 266.707 760.349 266.183 760.594 265.781C760.847 265.374 761.18 265.073 761.594 264.879C762.008 264.685 762.464 264.588 762.962 264.588C763.247 264.588 763.538 264.607 763.836 264.646C764.14 264.685 764.438 264.743 764.729 264.821L764.379 266.257C764.198 266.192 764.014 266.14 763.826 266.102C763.645 266.063 763.47 266.043 763.302 266.043C763.102 266.043 762.907 266.082 762.72 266.16C762.532 266.231 762.377 266.364 762.254 266.558C762.138 266.752 762.079 267.027 762.079 267.383V278H760.226ZM758.76 269.916V268.664H763.914V269.916H758.76ZM767.621 266.674C767.252 266.674 766.961 266.574 766.747 266.373C766.54 266.166 766.437 265.888 766.437 265.539C766.437 265.202 766.54 264.937 766.747 264.743C766.961 264.542 767.252 264.442 767.621 264.442C767.983 264.442 768.268 264.542 768.475 264.743C768.688 264.937 768.795 265.202 768.795 265.539C768.795 265.888 768.688 266.166 768.475 266.373C768.268 266.574 767.983 266.674 767.621 266.674ZM766.699 278V268.635H768.543V278H766.699ZM775.105 278.252C774.574 278.252 774.095 278.152 773.668 277.951C773.241 277.751 772.902 277.45 772.649 277.049C772.403 276.641 772.28 276.13 772.28 275.516V266.121H774.115V275.457C774.115 276.337 774.526 276.777 775.347 276.777C775.6 276.777 775.845 276.751 776.085 276.7C776.324 276.641 776.596 276.557 776.9 276.447L777.162 277.757C776.819 277.9 776.479 278.016 776.143 278.107C775.813 278.204 775.467 278.252 775.105 278.252ZM770.854 269.916V268.664H776.881V269.916H770.854ZM785.611 278V272.526C785.611 271.718 785.417 271.106 785.029 270.692C784.647 270.272 784.129 270.061 783.476 270.061C782.958 270.061 782.505 270.204 782.117 270.488C781.735 270.767 781.438 271.177 781.224 271.721C781.017 272.258 780.914 272.915 780.914 273.691H780.254C780.254 272.546 780.399 271.582 780.691 270.799C780.988 270.016 781.412 269.424 781.962 269.023C782.512 268.615 783.172 268.411 783.942 268.411C784.692 268.411 785.326 268.58 785.844 268.916C786.368 269.253 786.766 269.731 787.038 270.352C787.309 270.967 787.445 271.692 787.445 272.526V278H785.611ZM779.07 278V268.664H780.671L780.914 270.682V278H779.07ZM793.818 278.252C793.015 278.252 792.291 278.045 791.644 277.631C790.997 277.217 790.482 276.641 790.101 275.904C789.725 275.166 789.538 274.312 789.538 273.342C789.538 272.313 789.725 271.433 790.101 270.702C790.476 269.964 790.987 269.398 791.634 269.003C792.281 268.609 793.009 268.411 793.818 268.411C794.542 268.411 795.163 268.56 795.681 268.858C796.199 269.149 796.616 269.544 796.933 270.042C797.25 270.534 797.467 271.093 797.583 271.721C797.706 272.348 797.729 272.995 797.651 273.662H791.013V272.594H796.389L795.943 272.885C795.962 272.536 795.943 272.187 795.885 271.837C795.833 271.488 795.73 271.168 795.574 270.877C795.419 270.579 795.199 270.343 794.914 270.168C794.636 269.987 794.28 269.896 793.847 269.896C793.303 269.896 792.847 270.032 792.478 270.304C792.116 270.576 791.841 270.941 791.653 271.401C791.466 271.853 791.372 272.352 791.372 272.895V273.642C791.372 274.244 791.463 274.778 791.644 275.244C791.825 275.71 792.093 276.078 792.449 276.35C792.812 276.615 793.268 276.748 793.818 276.748C794.355 276.748 794.798 276.622 795.147 276.37C795.503 276.117 795.723 275.739 795.807 275.234H797.69C797.593 275.842 797.37 276.373 797.02 276.826C796.671 277.279 796.221 277.631 795.671 277.884C795.128 278.129 794.51 278.252 793.818 278.252ZM803.503 278.252C802.598 278.252 801.834 278.126 801.213 277.874C800.592 277.615 800.116 277.259 799.786 276.806C799.463 276.347 799.295 275.81 799.282 275.195H801.019C801.045 275.732 801.258 276.13 801.659 276.389C802.067 276.648 802.617 276.777 803.309 276.777C803.678 276.777 804.011 276.719 804.309 276.602C804.613 276.486 804.852 276.328 805.027 276.127C805.208 275.926 805.299 275.7 805.299 275.448C805.299 275.131 805.182 274.881 804.949 274.7C804.717 274.513 804.341 274.348 803.824 274.205L801.912 273.555C801.148 273.296 800.563 272.953 800.155 272.526C799.748 272.093 799.544 271.575 799.544 270.974C799.544 270.204 799.887 269.586 800.572 269.12C801.258 268.648 802.167 268.411 803.3 268.411C804.471 268.411 805.373 268.661 806.007 269.159C806.648 269.65 806.981 270.268 807.007 271.012H805.231C805.186 270.644 805.001 270.362 804.678 270.168C804.361 269.967 803.901 269.867 803.3 269.867C802.737 269.867 802.294 269.99 801.97 270.236C801.653 270.482 801.494 270.76 801.494 271.071C801.494 271.627 801.973 272.041 802.931 272.313L804.94 273.021C805.703 273.267 806.292 273.584 806.706 273.972C807.12 274.361 807.327 274.852 807.327 275.448C807.327 275.926 807.169 276.379 806.852 276.806C806.535 277.233 806.088 277.583 805.512 277.854C804.943 278.12 804.273 278.252 803.503 278.252ZM813.235 278.252C812.329 278.252 811.566 278.126 810.945 277.874C810.323 277.615 809.848 277.259 809.518 276.806C809.194 276.347 809.026 275.81 809.013 275.195H810.75C810.776 275.732 810.99 276.13 811.391 276.389C811.799 276.648 812.349 276.777 813.041 276.777C813.41 276.777 813.743 276.719 814.04 276.602C814.345 276.486 814.584 276.328 814.759 276.127C814.94 275.926 815.03 275.7 815.03 275.448C815.03 275.131 814.914 274.881 814.681 274.7C814.448 274.513 814.073 274.348 813.555 274.205L811.643 273.555C810.88 273.296 810.294 272.953 809.887 272.526C809.479 272.093 809.275 271.575 809.275 270.974C809.275 270.204 809.618 269.586 810.304 269.12C810.99 268.648 811.899 268.411 813.031 268.411C814.202 268.411 815.105 268.661 815.739 269.159C816.379 269.65 816.713 270.268 816.738 271.012H814.962C814.917 270.644 814.733 270.362 814.409 270.168C814.092 269.967 813.633 269.867 813.031 269.867C812.468 269.867 812.025 269.99 811.702 270.236C811.385 270.482 811.226 270.76 811.226 271.071C811.226 271.627 811.705 272.041 812.662 272.313L814.671 273.021C815.435 273.267 816.024 273.584 816.438 273.972C816.852 274.361 817.059 274.852 817.059 275.448C817.059 275.926 816.9 276.379 816.583 276.806C816.266 277.233 815.82 277.583 815.244 277.854C814.675 278.12 814.005 278.252 813.235 278.252ZM827.191 278.252C826.427 278.252 825.725 278.049 825.085 277.641C824.444 277.227 823.933 276.651 823.552 275.913C823.176 275.169 822.989 274.296 822.989 273.293C822.989 272.297 823.173 271.433 823.542 270.702C823.917 269.971 824.412 269.408 825.027 269.013C825.641 268.612 826.324 268.411 827.074 268.411C827.76 268.411 828.359 268.58 828.87 268.916C829.381 269.246 829.776 269.728 830.054 270.362C830.339 270.996 830.481 271.769 830.481 272.682H829.84C829.84 272.119 829.727 271.643 829.501 271.255C829.274 270.86 828.98 270.563 828.618 270.362C828.255 270.162 827.867 270.061 827.453 270.061C826.968 270.061 826.528 270.194 826.133 270.459C825.745 270.718 825.434 271.09 825.201 271.575C824.975 272.054 824.862 272.627 824.862 273.293C824.862 273.966 824.975 274.551 825.201 275.05C825.434 275.541 825.745 275.92 826.133 276.185C826.528 276.45 826.964 276.583 827.443 276.583C827.838 276.583 828.216 276.48 828.579 276.273C828.948 276.059 829.248 275.755 829.481 275.36C829.721 274.966 829.84 274.496 829.84 273.953H830.481C830.481 274.885 830.332 275.671 830.034 276.311C829.743 276.952 829.349 277.437 828.85 277.767C828.352 278.091 827.799 278.252 827.191 278.252ZM830.161 278L829.84 275.758V264.733H831.694V278H830.161ZM840.847 278L840.614 275.855V271.963C840.614 271.2 840.456 270.647 840.139 270.304C839.822 269.955 839.32 269.78 838.634 269.78C838.246 269.78 837.9 269.838 837.596 269.955C837.298 270.065 837.062 270.233 836.887 270.459C836.719 270.686 836.635 270.97 836.635 271.313H834.597C834.597 270.627 834.765 270.071 835.102 269.644C835.438 269.217 835.907 268.906 836.509 268.712C837.117 268.512 837.826 268.411 838.634 268.411C839.391 268.411 840.058 268.538 840.633 268.79C841.209 269.036 841.656 269.424 841.973 269.955C842.296 270.485 842.458 271.171 842.458 272.012V278H840.847ZM837.722 278.252C836.939 278.252 836.289 278.116 835.771 277.845C835.254 277.567 834.865 277.204 834.607 276.758C834.354 276.311 834.228 275.836 834.228 275.331C834.228 274.716 834.383 274.212 834.694 273.817C835.011 273.416 835.448 273.118 836.004 272.924C836.561 272.73 837.201 272.633 837.926 272.633C838.424 272.633 838.909 272.678 839.382 272.769C839.854 272.86 840.32 272.979 840.779 273.128V274.244C840.404 274.108 839.986 274.002 839.527 273.924C839.074 273.84 838.65 273.798 838.256 273.798C837.667 273.798 837.175 273.914 836.781 274.147C836.386 274.38 836.189 274.775 836.189 275.331C836.189 275.739 836.344 276.091 836.654 276.389C836.965 276.68 837.457 276.826 838.13 276.826C838.621 276.826 839.055 276.716 839.43 276.496C839.805 276.269 840.096 275.988 840.304 275.651C840.511 275.315 840.614 274.979 840.614 274.642H841.061C841.061 275.289 840.928 275.888 840.663 276.437C840.404 276.981 840.025 277.421 839.527 277.757C839.029 278.087 838.427 278.252 837.722 278.252ZM848.483 278.252C847.953 278.252 847.474 278.152 847.047 277.951C846.62 277.751 846.28 277.45 846.028 277.049C845.782 276.641 845.659 276.13 845.659 275.516V266.121H847.494V275.457C847.494 276.337 847.904 276.777 848.726 276.777C848.978 276.777 849.224 276.751 849.464 276.7C849.703 276.641 849.975 276.557 850.279 276.447L850.541 277.757C850.198 277.9 849.858 278.016 849.522 278.107C849.192 278.204 848.846 278.252 848.483 278.252ZM844.233 269.916V268.664H850.259V269.916H844.233ZM858.301 278L858.068 275.855V271.963C858.068 271.2 857.909 270.647 857.592 270.304C857.275 269.955 856.774 269.78 856.088 269.78C855.7 269.78 855.354 269.838 855.05 269.955C854.752 270.065 854.516 270.233 854.341 270.459C854.173 270.686 854.089 270.97 854.089 271.313H852.051C852.051 270.627 852.219 270.071 852.556 269.644C852.892 269.217 853.361 268.906 853.963 268.712C854.571 268.512 855.279 268.411 856.088 268.411C856.845 268.411 857.512 268.538 858.087 268.79C858.663 269.036 859.11 269.424 859.427 269.955C859.75 270.485 859.912 271.171 859.912 272.012V278H858.301ZM855.176 278.252C854.393 278.252 853.743 278.116 853.225 277.845C852.708 277.567 852.319 277.204 852.061 276.758C851.808 276.311 851.682 275.836 851.682 275.331C851.682 274.716 851.837 274.212 852.148 273.817C852.465 273.416 852.902 273.118 853.458 272.924C854.014 272.73 854.655 272.633 855.38 272.633C855.878 272.633 856.363 272.678 856.835 272.769C857.308 272.86 857.774 272.979 858.233 273.128V274.244C857.858 274.108 857.44 274.002 856.981 273.924C856.528 273.84 856.104 273.798 855.71 273.798C855.121 273.798 854.629 273.914 854.234 274.147C853.84 274.38 853.642 274.775 853.642 275.331C853.642 275.739 853.798 276.091 854.108 276.389C854.419 276.68 854.911 276.826 855.583 276.826C856.075 276.826 856.509 276.716 856.884 276.496C857.259 276.269 857.55 275.988 857.757 275.651C857.964 275.315 858.068 274.979 858.068 274.642H858.514C858.514 275.289 858.382 275.888 858.116 276.437C857.858 276.981 857.479 277.421 856.981 277.757C856.483 278.087 855.881 278.252 855.176 278.252ZM867.716 278V267.354C867.716 266.707 867.839 266.183 868.085 265.781C868.337 265.374 868.67 265.073 869.085 264.879C869.499 264.685 869.955 264.588 870.453 264.588C870.738 264.588 871.029 264.607 871.326 264.646C871.63 264.685 871.928 264.743 872.219 264.821L871.87 266.257C871.689 266.192 871.504 266.14 871.317 266.102C871.136 266.063 870.961 266.043 870.793 266.043C870.592 266.043 870.398 266.082 870.21 266.16C870.023 266.231 869.867 266.364 869.744 266.558C869.628 266.752 869.57 267.027 869.57 267.383V278H867.716ZM866.251 269.916V268.664H871.404V269.916H866.251ZM877.063 278.252C876.215 278.252 875.455 278.068 874.782 277.699C874.116 277.33 873.588 276.78 873.2 276.049C872.812 275.318 872.618 274.416 872.618 273.342C872.618 272.248 872.812 271.339 873.2 270.614C873.588 269.883 874.116 269.333 874.782 268.965C875.455 268.596 876.215 268.411 877.063 268.411C877.897 268.411 878.648 268.596 879.314 268.965C879.981 269.333 880.505 269.883 880.886 270.614C881.275 271.339 881.469 272.248 881.469 273.342C881.469 274.416 881.275 275.318 880.886 276.049C880.505 276.78 879.981 277.33 879.314 277.699C878.648 278.068 877.897 278.252 877.063 278.252ZM877.004 276.641C877.542 276.641 878.004 276.512 878.392 276.253C878.787 275.994 879.088 275.619 879.295 275.127C879.508 274.629 879.615 274.034 879.615 273.342C879.615 272.281 879.398 271.459 878.965 270.877C878.538 270.294 877.92 270.003 877.111 270.003C876.568 270.003 876.099 270.136 875.704 270.401C875.316 270.66 875.015 271.038 874.801 271.536C874.594 272.028 874.491 272.63 874.491 273.342C874.491 274.383 874.708 275.195 875.141 275.778C875.575 276.353 876.196 276.641 877.004 276.641ZM883.831 278V268.635H885.675V278H883.831ZM885.17 273.827C885.17 272.63 885.293 271.637 885.539 270.847C885.791 270.052 886.141 269.46 886.587 269.071C887.04 268.683 887.57 268.489 888.179 268.489C888.36 268.489 888.528 268.502 888.683 268.528C888.845 268.554 889.004 268.589 889.159 268.635L889.091 270.469C888.916 270.424 888.725 270.385 888.518 270.352C888.318 270.314 888.133 270.294 887.965 270.294C887.435 270.294 887.001 270.437 886.665 270.721C886.328 270.999 886.079 271.404 885.917 271.934C885.756 272.458 885.675 273.089 885.675 273.827H885.17ZM898.256 278.252C897.492 278.252 896.78 278.049 896.12 277.641C895.461 277.233 894.93 276.661 894.529 275.923C894.128 275.186 893.927 274.319 893.927 273.322C893.927 272.274 894.128 271.388 894.529 270.663C894.93 269.932 895.461 269.375 896.12 268.994C896.78 268.606 897.492 268.411 898.256 268.411C898.818 268.411 899.32 268.502 899.76 268.683C900.2 268.858 900.578 269.097 900.895 269.401C901.212 269.699 901.468 270.035 901.662 270.411C901.863 270.786 902.002 271.174 902.079 271.575L900.206 271.672C900.07 271.187 899.831 270.799 899.488 270.508C899.152 270.21 898.734 270.061 898.236 270.061C897.816 270.061 897.418 270.181 897.042 270.42C896.674 270.653 896.373 271.012 896.14 271.498C895.913 271.976 895.8 272.585 895.8 273.322C895.8 274.008 895.907 274.594 896.12 275.079C896.334 275.564 896.625 275.936 896.994 276.195C897.363 276.454 897.777 276.583 898.236 276.583C898.896 276.583 899.388 276.425 899.711 276.108C900.041 275.784 900.206 275.341 900.206 274.778H902.079C902.079 275.431 901.927 276.02 901.623 276.544C901.319 277.068 900.879 277.486 900.303 277.796C899.734 278.1 899.051 278.252 898.256 278.252ZM903.011 268.664H905.078L907.892 276.389H907.514L909.775 268.664H911.658L908.116 279.795C907.792 280.805 907.375 281.559 906.864 282.057C906.359 282.561 905.725 282.814 904.961 282.814C904.534 282.814 904.124 282.759 903.729 282.649C903.341 282.539 902.943 282.377 902.535 282.163V280.504C902.885 280.75 903.221 280.928 903.545 281.038C903.868 281.148 904.204 281.203 904.554 281.203C904.903 281.203 905.201 281.096 905.447 280.882C905.699 280.675 905.909 280.397 906.078 280.048C906.252 279.705 906.401 279.33 906.524 278.922L906.805 278L903.011 268.664ZM916.752 278.252C915.988 278.252 915.277 278.049 914.617 277.641C913.957 277.233 913.426 276.661 913.025 275.923C912.624 275.186 912.424 274.319 912.424 273.322C912.424 272.274 912.624 271.388 913.025 270.663C913.426 269.932 913.957 269.375 914.617 268.994C915.277 268.606 915.988 268.411 916.752 268.411C917.315 268.411 917.816 268.502 918.256 268.683C918.696 268.858 919.075 269.097 919.392 269.401C919.709 269.699 919.964 270.035 920.158 270.411C920.359 270.786 920.498 271.174 920.576 271.575L918.703 271.672C918.567 271.187 918.327 270.799 917.984 270.508C917.648 270.21 917.231 270.061 916.733 270.061C916.312 270.061 915.914 270.181 915.539 270.42C915.17 270.653 914.869 271.012 914.636 271.498C914.41 271.976 914.297 272.585 914.297 273.322C914.297 274.008 914.403 274.594 914.617 275.079C914.83 275.564 915.121 275.936 915.49 276.195C915.859 276.454 916.273 276.583 916.733 276.583C917.392 276.583 917.884 276.425 918.208 276.108C918.538 275.784 918.703 275.341 918.703 274.778H920.576C920.576 275.431 920.424 276.02 920.12 276.544C919.815 277.068 919.376 277.486 918.8 277.796C918.23 278.1 917.548 278.252 916.752 278.252ZM922.992 278V264.733H924.836V278H922.992ZM929.204 266.674C928.835 266.674 928.544 266.574 928.33 266.373C928.123 266.166 928.02 265.888 928.02 265.539C928.02 265.202 928.123 264.937 928.33 264.743C928.544 264.542 928.835 264.442 929.204 264.442C929.566 264.442 929.851 264.542 930.058 264.743C930.271 264.937 930.378 265.202 930.378 265.539C930.378 265.888 930.271 266.166 930.058 266.373C929.851 266.574 929.566 266.674 929.204 266.674ZM928.282 278V268.635H930.126V278H928.282ZM937.095 278.252C936.189 278.252 935.426 278.126 934.805 277.874C934.184 277.615 933.708 277.259 933.378 276.806C933.054 276.347 932.886 275.81 932.873 275.195H934.611C934.636 275.732 934.85 276.13 935.251 276.389C935.659 276.648 936.209 276.777 936.901 276.777C937.27 276.777 937.603 276.719 937.901 276.602C938.205 276.486 938.444 276.328 938.619 276.127C938.8 275.926 938.89 275.7 938.89 275.448C938.89 275.131 938.774 274.881 938.541 274.7C938.308 274.513 937.933 274.348 937.415 274.205L935.503 273.555C934.74 273.296 934.154 272.953 933.747 272.526C933.339 272.093 933.135 271.575 933.135 270.974C933.135 270.204 933.478 269.586 934.164 269.12C934.85 268.648 935.759 268.411 936.891 268.411C938.062 268.411 938.965 268.661 939.599 269.159C940.239 269.65 940.573 270.268 940.599 271.012H938.823C938.777 270.644 938.593 270.362 938.269 270.168C937.952 269.967 937.493 269.867 936.891 269.867C936.328 269.867 935.885 269.99 935.562 270.236C935.245 270.482 935.086 270.76 935.086 271.071C935.086 271.627 935.565 272.041 936.522 272.313L938.531 273.021C939.295 273.267 939.884 273.584 940.298 273.972C940.712 274.361 940.919 274.852 940.919 275.448C940.919 275.926 940.76 276.379 940.443 276.806C940.126 277.233 939.68 277.583 939.104 277.854C938.535 278.12 937.865 278.252 937.095 278.252ZM946.409 278.252C945.879 278.252 945.4 278.152 944.973 277.951C944.546 277.751 944.206 277.45 943.954 277.049C943.708 276.641 943.585 276.13 943.585 275.516V266.121H945.419V275.457C945.419 276.337 945.83 276.777 946.652 276.777C946.904 276.777 947.15 276.751 947.389 276.7C947.629 276.641 947.901 276.557 948.205 276.447L948.467 277.757C948.124 277.9 947.784 278.016 947.448 278.107C947.118 278.204 946.772 278.252 946.409 278.252ZM942.158 269.916V268.664H948.185V269.916H942.158ZM953.791 278.252C952.885 278.252 952.121 278.126 951.5 277.874C950.879 277.615 950.404 277.259 950.074 276.806C949.75 276.347 949.582 275.81 949.569 275.195H951.306C951.332 275.732 951.546 276.13 951.947 276.389C952.354 276.648 952.904 276.777 953.597 276.777C953.965 276.777 954.299 276.719 954.596 276.602C954.9 276.486 955.14 276.328 955.314 276.127C955.495 275.926 955.586 275.7 955.586 275.448C955.586 275.131 955.47 274.881 955.237 274.7C955.004 274.513 954.628 274.348 954.111 274.205L952.199 273.555C951.436 273.296 950.85 272.953 950.442 272.526C950.035 272.093 949.831 271.575 949.831 270.974C949.831 270.204 950.174 269.586 950.86 269.12C951.546 268.648 952.455 268.411 953.587 268.411C954.758 268.411 955.66 268.661 956.295 269.159C956.935 269.65 957.268 270.268 957.294 271.012H955.518C955.473 270.644 955.288 270.362 954.965 270.168C954.648 269.967 954.189 269.867 953.587 269.867C953.024 269.867 952.581 269.99 952.257 270.236C951.94 270.482 951.782 270.76 951.782 271.071C951.782 271.627 952.26 272.041 953.218 272.313L955.227 273.021C955.99 273.267 956.579 273.584 956.993 273.972C957.407 274.361 957.614 274.852 957.614 275.448C957.614 275.926 957.456 276.379 957.139 276.806C956.822 277.233 956.375 277.583 955.8 277.854C955.23 278.12 954.561 278.252 953.791 278.252ZM961.63 274.613V273.778C961.63 273.215 961.691 272.756 961.814 272.4C961.944 272.038 962.147 271.727 962.426 271.469C962.704 271.203 963.082 270.948 963.561 270.702C963.988 270.475 964.321 270.268 964.561 270.081C964.806 269.887 964.981 269.683 965.085 269.469C965.188 269.256 965.24 269 965.24 268.703C965.24 268.237 965.052 267.852 964.677 267.548C964.302 267.237 963.784 267.082 963.124 267.082C962.38 267.082 961.808 267.237 961.407 267.548C961.012 267.858 960.772 268.279 960.688 268.809H958.747C958.831 267.787 959.236 266.965 959.96 266.344C960.685 265.723 961.72 265.413 963.066 265.413C963.933 265.413 964.68 265.561 965.308 265.859C965.936 266.15 966.418 266.548 966.754 267.053C967.09 267.557 967.259 268.117 967.259 268.732C967.259 269.398 967.09 269.961 966.754 270.42C966.418 270.88 965.881 271.3 965.143 271.682C964.716 271.908 964.379 272.122 964.134 272.323C963.888 272.517 963.713 272.737 963.61 272.983C963.512 273.228 963.464 273.545 963.464 273.934V274.613H961.63ZM962.591 278.252C962.202 278.252 961.885 278.129 961.639 277.884C961.394 277.638 961.271 277.34 961.271 276.991C961.271 276.628 961.39 276.321 961.63 276.069C961.876 275.816 962.193 275.69 962.581 275.69C962.969 275.69 963.293 275.816 963.551 276.069C963.817 276.315 963.949 276.619 963.949 276.981C963.949 277.33 963.82 277.631 963.561 277.884C963.302 278.129 962.979 278.252 962.591 278.252Z" fill="#666666"/>
<line x1="422" y1="192.276" x2="1078.01" y2="192.276" stroke="#383838"/>
<line x1="422" y1="322.276" x2="1078.01" y2="322.276" stroke="#383838"/>
</svg>
