<svg width="1500" height="475" viewBox="0 0 1500 475" fill="none" xmlns="http://www.w3.org/2000/svg">
<rect width="1500" height="475" fill="#E5E5E5"/>
<rect width="1500" height="475" fill="white"/>
<path d="M645.998 179.44C644.208 179.44 642.648 179.016 641.318 178.168C639.999 177.309 638.973 176.084 638.24 174.493C637.507 172.901 637.141 170.99 637.141 168.76C637.141 166.457 637.518 164.525 638.271 162.965C639.036 161.395 640.083 160.212 641.412 159.416C642.753 158.61 644.281 158.207 645.998 158.207C648.375 158.207 650.228 158.782 651.558 159.934C652.898 161.086 653.757 162.583 654.134 164.426L650.176 165.148C649.851 164.08 649.333 163.216 648.621 162.557C647.909 161.897 647.035 161.567 645.998 161.567C645.087 161.567 644.266 161.834 643.533 162.368C642.8 162.892 642.213 163.688 641.774 164.756C641.344 165.824 641.13 167.158 641.13 168.76C641.13 170.268 641.318 171.566 641.695 172.655C642.083 173.744 642.637 174.582 643.36 175.168C644.082 175.754 644.962 176.047 645.998 176.047C647.328 176.047 648.354 175.697 649.077 174.995C649.809 174.283 650.176 173.378 650.176 172.278H654.134C654.134 173.796 653.804 175.089 653.144 176.157C652.495 177.215 651.563 178.026 650.349 178.592C649.134 179.157 647.684 179.44 645.998 179.44ZM665.403 158.615H669.109V167.127H677.998V158.615H681.705V179H677.998V170.362H669.109V179H665.403V158.615ZM692.23 179L699.171 158.615H703.82L710.479 179H706.584L705.171 174.603H697.601L696.156 179H692.23ZM698.543 171.807H704.291L701.433 163.044L698.543 171.807ZM724.738 158.615V175.765H733.125V179H721.032V158.615H724.738ZM747.169 158.615V175.765H755.556V179H743.463V158.615H747.169ZM765.863 179V158.615H778.961V161.819H769.569V167.19H778.395V170.394H769.569V175.765H778.961V179H765.863ZM791.177 158.615H795.228L804.494 173.158H804.212V158.615H807.918V179H804.149L794.286 163.578H794.883V179H791.177V158.615ZM828.108 179.44C826.444 179.44 824.941 179 823.601 178.121C822.261 177.241 821.193 176.016 820.397 174.446C819.612 172.865 819.219 171.022 819.219 168.917C819.219 167.253 819.46 165.761 819.942 164.441C820.434 163.122 821.114 161.997 821.983 161.065C822.852 160.133 823.873 159.426 825.046 158.945C826.219 158.453 827.491 158.207 828.862 158.207C830.768 158.207 832.364 158.62 833.652 159.447C834.951 160.274 835.961 161.578 836.683 163.358L832.883 164.237C832.349 163.368 831.731 162.709 831.029 162.258C830.338 161.798 829.553 161.567 828.674 161.567C827.669 161.567 826.752 161.866 825.925 162.463C825.098 163.049 824.439 163.892 823.947 164.991C823.454 166.09 823.208 167.399 823.208 168.917C823.208 170.341 823.423 171.587 823.852 172.655C824.292 173.723 824.905 174.555 825.69 175.152C826.475 175.749 827.386 176.047 828.422 176.047C829.302 176.047 830.087 175.854 830.778 175.466C831.48 175.069 832.029 174.503 832.427 173.77C832.836 173.037 833.04 172.153 833.04 171.116H833.856C833.856 172.812 833.652 174.283 833.244 175.529C832.846 176.775 832.223 177.738 831.375 178.419C830.527 179.099 829.438 179.44 828.108 179.44ZM833.574 179L833.04 174.508V170.99L828.454 170.896V168.54H836.589V179H833.574ZM848.8 179V158.615H861.898V161.819H852.506V167.19H861.333V170.394H852.506V175.765H861.898V179H848.8Z" fill="#383838"/>
<path d="M484.441 227.424H487.273V233.928H494.065V227.424H496.897V243H494.065V236.4H487.273V243H484.441V227.424ZM505.346 243.336C504.282 243.336 503.318 243.108 502.454 242.652C501.598 242.196 500.918 241.516 500.414 240.612C499.91 239.7 499.658 238.56 499.658 237.192C499.658 235.8 499.91 234.648 500.414 233.736C500.918 232.824 501.598 232.144 502.454 231.696C503.318 231.248 504.282 231.024 505.346 231.024C506.394 231.024 507.342 231.248 508.19 231.696C509.046 232.144 509.726 232.824 510.23 233.736C510.734 234.648 510.986 235.8 510.986 237.192C510.986 238.56 510.734 239.7 510.23 240.612C509.726 241.516 509.046 242.196 508.19 242.652C507.342 243.108 506.394 243.336 505.346 243.336ZM505.25 240.864C505.81 240.864 506.306 240.728 506.738 240.456C507.178 240.176 507.522 239.764 507.77 239.22C508.026 238.676 508.154 238 508.154 237.192C508.154 235.96 507.91 235.032 507.422 234.408C506.942 233.784 506.282 233.472 505.442 233.472C504.874 233.472 504.37 233.612 503.93 233.892C503.49 234.164 503.142 234.576 502.886 235.128C502.638 235.68 502.514 236.368 502.514 237.192C502.514 238.408 502.758 239.324 503.246 239.94C503.742 240.556 504.41 240.864 505.25 240.864ZM511.812 231.36H514.764L517.284 240.192H516.996L519.372 231.984H521.94L524.316 240.216H524.028L526.548 231.36H529.38L525.54 243H522.756L520.38 235.272H520.812L518.484 243H515.676L511.812 231.36ZM541.23 243.336C540.254 243.336 539.346 243.084 538.506 242.58C537.674 242.068 536.998 241.352 536.478 240.432C535.966 239.504 535.71 238.416 535.71 237.168C535.71 235.848 535.966 234.732 536.478 233.82C536.998 232.9 537.674 232.204 538.506 231.732C539.346 231.26 540.254 231.024 541.23 231.024C541.99 231.024 542.658 231.148 543.234 231.396C543.818 231.636 544.314 231.964 544.722 232.38C545.13 232.788 545.45 233.244 545.682 233.748C545.914 234.252 546.062 234.76 546.126 235.272L543.27 235.344C543.142 234.832 542.902 234.408 542.55 234.072C542.206 233.736 541.758 233.568 541.206 233.568C540.75 233.568 540.322 233.696 539.922 233.952C539.522 234.2 539.194 234.588 538.938 235.116C538.69 235.644 538.566 236.328 538.566 237.168C538.566 237.968 538.682 238.636 538.914 239.172C539.154 239.7 539.474 240.1 539.874 240.372C540.274 240.636 540.718 240.768 541.206 240.768C541.926 240.768 542.45 240.596 542.778 240.252C543.106 239.9 543.27 239.432 543.27 238.848H546.126C546.126 239.672 545.938 240.424 545.562 241.104C545.186 241.784 544.634 242.328 543.906 242.736C543.178 243.136 542.286 243.336 541.23 243.336ZM556.333 243L555.973 240.168V235.488C555.973 234.672 555.805 234.068 555.469 233.676C555.141 233.284 554.581 233.088 553.789 233.088C553.333 233.088 552.937 233.156 552.601 233.292C552.265 233.428 552.005 233.624 551.821 233.88C551.645 234.128 551.557 234.432 551.557 234.792H548.461C548.461 233.912 548.673 233.196 549.097 232.644C549.521 232.084 550.129 231.676 550.921 231.42C551.721 231.156 552.677 231.024 553.789 231.024C554.797 231.024 555.677 231.188 556.429 231.516C557.181 231.836 557.765 232.332 558.181 233.004C558.597 233.676 558.805 234.536 558.805 235.584V243H556.333ZM552.517 243.336C551.517 243.336 550.681 243.164 550.009 242.82C549.345 242.468 548.845 242.008 548.509 241.44C548.173 240.872 548.005 240.256 548.005 239.592C548.005 238.856 548.197 238.24 548.581 237.744C548.973 237.24 549.525 236.864 550.237 236.616C550.949 236.36 551.789 236.232 552.757 236.232C553.389 236.232 553.985 236.28 554.545 236.376C555.113 236.472 555.677 236.6 556.237 236.76V238.416C555.797 238.272 555.317 238.16 554.797 238.08C554.277 238 553.789 237.96 553.333 237.96C552.661 237.96 552.109 238.084 551.677 238.332C551.245 238.58 551.029 239 551.029 239.592C551.029 240.024 551.205 240.396 551.557 240.708C551.909 241.02 552.469 241.176 553.237 241.176C553.821 241.176 554.317 241.048 554.725 240.792C555.133 240.536 555.441 240.216 555.649 239.832C555.865 239.448 555.973 239.064 555.973 238.68H556.645C556.645 239.52 556.489 240.296 556.177 241.008C555.865 241.712 555.401 242.276 554.785 242.7C554.177 243.124 553.421 243.336 552.517 243.336ZM570.348 243V236.184C570.348 235.32 570.14 234.668 569.724 234.228C569.308 233.788 568.764 233.568 568.092 233.568C567.524 233.568 567.02 233.724 566.58 234.036C566.148 234.348 565.808 234.82 565.56 235.452C565.312 236.076 565.188 236.856 565.188 237.792H564.252C564.252 236.28 564.44 235.024 564.816 234.024C565.192 233.016 565.724 232.264 566.412 231.768C567.1 231.272 567.908 231.024 568.836 231.024C569.796 231.024 570.596 231.24 571.236 231.672C571.884 232.096 572.368 232.696 572.688 233.472C573.016 234.248 573.18 235.152 573.18 236.184V243H570.348ZM562.356 243V231.36H564.828L565.188 233.664V243H562.356ZM582.18 243V227.424H585.012V243H582.18ZM598.658 243.336C597.682 243.336 596.79 243.08 595.982 242.568C595.182 242.048 594.542 241.324 594.062 240.396C593.59 239.46 593.354 238.368 593.354 237.12C593.354 235.888 593.582 234.816 594.038 233.904C594.502 232.984 595.118 232.276 595.886 231.78C596.662 231.276 597.522 231.024 598.466 231.024C599.33 231.024 600.078 231.232 600.71 231.648C601.342 232.056 601.826 232.664 602.162 233.472C602.498 234.28 602.666 235.272 602.666 236.448H601.778C601.778 235.84 601.654 235.324 601.406 234.9C601.158 234.468 600.83 234.14 600.422 233.916C600.022 233.684 599.586 233.568 599.114 233.568C598.546 233.568 598.042 233.716 597.602 234.012C597.17 234.308 596.83 234.724 596.582 235.26C596.334 235.788 596.21 236.408 596.21 237.12C596.21 237.856 596.334 238.496 596.582 239.04C596.83 239.584 597.17 240.008 597.602 240.312C598.042 240.616 598.538 240.768 599.09 240.768C599.538 240.768 599.966 240.648 600.374 240.408C600.79 240.16 601.126 239.816 601.382 239.376C601.646 238.936 601.778 238.424 601.778 237.84H602.666C602.666 239.064 602.482 240.084 602.114 240.9C601.754 241.708 601.27 242.316 600.662 242.724C600.054 243.132 599.386 243.336 598.658 243.336ZM602.306 243L601.778 240.12V226.536H604.634V243H602.306ZM612.849 243.336C611.857 243.336 610.949 243.08 610.125 242.568C609.301 242.056 608.641 241.34 608.145 240.42C607.649 239.492 607.401 238.408 607.401 237.168C607.401 235.888 607.645 234.788 608.133 233.868C608.629 232.948 609.289 232.244 610.113 231.756C610.937 231.268 611.849 231.024 612.849 231.024C613.777 231.024 614.577 231.212 615.249 231.588C615.929 231.956 616.473 232.46 616.881 233.1C617.297 233.732 617.577 234.448 617.721 235.248C617.865 236.048 617.873 236.872 617.745 237.72H609.657V236.184H615.741L615.189 236.544C615.213 236.168 615.193 235.788 615.129 235.404C615.073 235.02 614.961 234.668 614.793 234.348C614.625 234.028 614.385 233.772 614.073 233.58C613.769 233.38 613.377 233.28 612.897 233.28C612.321 233.28 611.833 233.424 611.433 233.712C611.033 234 610.729 234.392 610.521 234.888C610.313 235.384 610.209 235.944 610.209 236.568V237.696C610.209 238.352 610.305 238.932 610.497 239.436C610.697 239.94 610.989 240.336 611.373 240.624C611.765 240.912 612.257 241.056 612.849 241.056C613.401 241.056 613.865 240.928 614.241 240.672C614.617 240.416 614.857 240.032 614.961 239.52H617.817C617.697 240.272 617.413 240.936 616.965 241.512C616.525 242.08 615.953 242.528 615.249 242.856C614.545 243.176 613.745 243.336 612.849 243.336ZM624.975 243.336C623.855 243.336 622.891 243.184 622.083 242.88C621.283 242.568 620.667 242.124 620.235 241.548C619.803 240.964 619.583 240.264 619.575 239.448H622.191C622.215 240.024 622.443 240.444 622.875 240.708C623.307 240.972 623.895 241.104 624.639 241.104C625.047 241.104 625.407 241.044 625.719 240.924C626.039 240.804 626.287 240.64 626.463 240.432C626.639 240.224 626.727 239.992 626.727 239.736C626.727 239.408 626.607 239.152 626.367 238.968C626.135 238.776 625.759 238.6 625.239 238.44L622.695 237.528C621.783 237.2 621.083 236.768 620.595 236.232C620.107 235.696 619.863 235.056 619.863 234.312C619.863 233.328 620.307 232.536 621.195 231.936C622.091 231.328 623.287 231.024 624.783 231.024C626.271 231.024 627.419 231.352 628.227 232.008C629.043 232.656 629.463 233.48 629.487 234.48H626.823C626.783 234.096 626.599 233.792 626.271 233.568C625.943 233.344 625.447 233.232 624.783 233.232C624.183 233.232 623.711 233.356 623.367 233.604C623.031 233.844 622.863 234.128 622.863 234.456C622.863 235.008 623.335 235.424 624.279 235.704L627.039 236.736C627.935 237.04 628.631 237.432 629.127 237.912C629.623 238.392 629.871 239 629.871 239.736C629.871 240.352 629.663 240.936 629.247 241.488C628.839 242.032 628.267 242.476 627.531 242.82C626.795 243.164 625.943 243.336 624.975 243.336ZM634.343 229.224C633.791 229.224 633.359 229.08 633.047 228.792C632.743 228.496 632.591 228.088 632.591 227.568C632.591 227.064 632.743 226.664 633.047 226.368C633.359 226.064 633.791 225.912 634.343 225.912C634.887 225.912 635.315 226.064 635.627 226.368C635.939 226.664 636.095 227.064 636.095 227.568C636.095 228.088 635.939 228.496 635.627 228.792C635.315 229.08 634.887 229.224 634.343 229.224ZM632.927 243V231.312H635.759V243H632.927ZM644.45 249.024C643.114 249.024 641.97 248.84 641.018 248.472C640.074 248.104 639.35 247.62 638.846 247.02C638.342 246.428 638.09 245.784 638.09 245.088C638.09 244.264 638.39 243.624 638.99 243.168C639.59 242.72 640.346 242.496 641.258 242.496L643.322 243.264C642.538 243.264 641.934 243.412 641.51 243.708C641.086 244.004 640.874 244.416 640.874 244.944C640.874 245.496 641.19 245.936 641.822 246.264C642.462 246.6 643.338 246.768 644.45 246.768C645.258 246.768 645.958 246.648 646.55 246.408C647.142 246.168 647.598 245.856 647.918 245.472C648.246 245.088 648.41 244.68 648.41 244.248C648.41 243.96 648.314 243.724 648.122 243.54C647.93 243.356 647.634 243.264 647.234 243.264H643.322C642.538 243.264 641.822 243.14 641.174 242.892C640.534 242.636 640.022 242.296 639.638 241.872C639.262 241.44 639.074 240.96 639.074 240.432C639.074 239.944 639.21 239.524 639.482 239.172C639.754 238.812 640.122 238.536 640.586 238.344C641.058 238.152 641.586 238.056 642.17 238.056L642.89 238.992C642.658 238.992 642.434 239.04 642.218 239.136C642.01 239.224 641.838 239.356 641.702 239.532C641.566 239.708 641.498 239.928 641.498 240.192C641.498 240.512 641.634 240.772 641.906 240.972C642.178 241.172 642.65 241.272 643.322 241.272H647.234C648.474 241.272 649.446 241.5 650.15 241.956C650.862 242.412 651.218 243.112 651.218 244.056C651.218 244.896 650.942 245.692 650.39 246.444C649.838 247.204 649.054 247.824 648.038 248.304C647.03 248.784 645.834 249.024 644.45 249.024ZM644.594 239.4C643.674 239.4 642.83 239.228 642.062 238.884C641.302 238.532 640.694 238.044 640.238 237.42C639.782 236.796 639.554 236.064 639.554 235.224C639.554 234.368 639.782 233.624 640.238 232.992C640.694 232.36 641.302 231.876 642.062 231.54C642.83 231.196 643.674 231.024 644.594 231.024C645.49 231.024 646.318 231.196 647.078 231.54C647.838 231.876 648.45 232.36 648.914 232.992C649.378 233.624 649.61 234.368 649.61 235.224C649.61 236.064 649.378 236.796 648.914 237.42C648.45 238.044 647.838 238.532 647.078 238.884C646.318 239.228 645.49 239.4 644.594 239.4ZM644.618 237.432C645.354 237.432 645.906 237.22 646.274 236.796C646.642 236.372 646.826 235.848 646.826 235.224C646.826 234.552 646.638 234.012 646.262 233.604C645.894 233.196 645.338 232.992 644.594 232.992C643.874 232.992 643.322 233.196 642.938 233.604C642.554 234.012 642.362 234.552 642.362 235.224C642.362 235.848 642.554 236.372 642.938 236.796C643.33 237.22 643.89 237.432 644.618 237.432ZM648.722 232.896L647.426 232.152C647.426 231.456 647.586 230.848 647.906 230.328C648.234 229.8 648.666 229.392 649.202 229.104C649.746 228.816 650.346 228.672 651.002 228.672L650.858 231.384C650.162 231.384 649.63 231.508 649.262 231.756C648.902 231.996 648.722 232.376 648.722 232.896ZM661.323 243V236.184C661.323 235.32 661.115 234.668 660.699 234.228C660.283 233.788 659.739 233.568 659.067 233.568C658.499 233.568 657.995 233.724 657.555 234.036C657.123 234.348 656.783 234.82 656.535 235.452C656.287 236.076 656.163 236.856 656.163 237.792H655.227C655.227 236.28 655.415 235.024 655.791 234.024C656.167 233.016 656.699 232.264 657.387 231.768C658.075 231.272 658.883 231.024 659.811 231.024C660.771 231.024 661.571 231.24 662.211 231.672C662.859 232.096 663.343 232.696 663.663 233.472C663.991 234.248 664.155 235.152 664.155 236.184V243H661.323ZM653.331 243V231.36H655.803L656.163 233.664V243H653.331ZM680.571 243L680.211 240.168V235.488C680.211 234.672 680.043 234.068 679.707 233.676C679.379 233.284 678.819 233.088 678.027 233.088C677.571 233.088 677.175 233.156 676.839 233.292C676.503 233.428 676.243 233.624 676.059 233.88C675.883 234.128 675.795 234.432 675.795 234.792H672.699C672.699 233.912 672.911 233.196 673.335 232.644C673.759 232.084 674.367 231.676 675.159 231.42C675.959 231.156 676.915 231.024 678.027 231.024C679.035 231.024 679.915 231.188 680.667 231.516C681.419 231.836 682.003 232.332 682.419 233.004C682.835 233.676 683.043 234.536 683.043 235.584V243H680.571ZM676.755 243.336C675.755 243.336 674.919 243.164 674.247 242.82C673.583 242.468 673.083 242.008 672.747 241.44C672.411 240.872 672.243 240.256 672.243 239.592C672.243 238.856 672.435 238.24 672.819 237.744C673.211 237.24 673.763 236.864 674.475 236.616C675.187 236.36 676.027 236.232 676.995 236.232C677.627 236.232 678.223 236.28 678.783 236.376C679.351 236.472 679.915 236.6 680.475 236.76V238.416C680.035 238.272 679.555 238.16 679.035 238.08C678.515 238 678.027 237.96 677.571 237.96C676.899 237.96 676.347 238.084 675.915 238.332C675.483 238.58 675.267 239 675.267 239.592C675.267 240.024 675.443 240.396 675.795 240.708C676.147 241.02 676.707 241.176 677.475 241.176C678.059 241.176 678.555 241.048 678.963 240.792C679.371 240.536 679.679 240.216 679.887 239.832C680.103 239.448 680.211 239.064 680.211 238.68H680.883C680.883 239.52 680.727 240.296 680.415 241.008C680.103 241.712 679.639 242.276 679.023 242.7C678.415 243.124 677.659 243.336 676.755 243.336ZM694.586 243V236.184C694.586 235.32 694.378 234.668 693.962 234.228C693.546 233.788 693.002 233.568 692.33 233.568C691.762 233.568 691.258 233.724 690.818 234.036C690.386 234.348 690.046 234.82 689.798 235.452C689.55 236.076 689.426 236.856 689.426 237.792H688.49C688.49 236.28 688.678 235.024 689.054 234.024C689.43 233.016 689.962 232.264 690.65 231.768C691.338 231.272 692.146 231.024 693.074 231.024C694.034 231.024 694.834 231.24 695.474 231.672C696.122 232.096 696.606 232.696 696.926 233.472C697.254 234.248 697.418 235.152 697.418 236.184V243H694.586ZM686.594 243V231.36H689.066L689.426 233.664V243H686.594ZM713.833 243L713.473 240.168V235.488C713.473 234.672 713.305 234.068 712.969 233.676C712.641 233.284 712.081 233.088 711.289 233.088C710.833 233.088 710.437 233.156 710.101 233.292C709.765 233.428 709.505 233.624 709.321 233.88C709.145 234.128 709.057 234.432 709.057 234.792H705.961C705.961 233.912 706.173 233.196 706.597 232.644C707.021 232.084 707.629 231.676 708.421 231.42C709.221 231.156 710.177 231.024 711.289 231.024C712.297 231.024 713.177 231.188 713.929 231.516C714.681 231.836 715.265 232.332 715.681 233.004C716.097 233.676 716.305 234.536 716.305 235.584V243H713.833ZM710.017 243.336C709.017 243.336 708.181 243.164 707.509 242.82C706.845 242.468 706.345 242.008 706.009 241.44C705.673 240.872 705.505 240.256 705.505 239.592C705.505 238.856 705.697 238.24 706.081 237.744C706.473 237.24 707.025 236.864 707.737 236.616C708.449 236.36 709.289 236.232 710.257 236.232C710.889 236.232 711.485 236.28 712.045 236.376C712.613 236.472 713.177 236.6 713.737 236.76V238.416C713.297 238.272 712.817 238.16 712.297 238.08C711.777 238 711.289 237.96 710.833 237.96C710.161 237.96 709.609 238.084 709.177 238.332C708.745 238.58 708.529 239 708.529 239.592C708.529 240.024 708.705 240.396 709.057 240.708C709.409 241.02 709.969 241.176 710.737 241.176C711.321 241.176 711.817 241.048 712.225 240.792C712.633 240.536 712.941 240.216 713.149 239.832C713.365 239.448 713.473 239.064 713.473 238.68H714.145C714.145 239.52 713.989 240.296 713.677 241.008C713.365 241.712 712.901 242.276 712.285 242.7C711.677 243.124 710.921 243.336 710.017 243.336ZM725.688 243.336C724.832 243.336 724.104 243.152 723.504 242.784C722.904 242.416 722.444 241.86 722.124 241.116C721.812 240.364 721.656 239.424 721.656 238.296H722.688C722.688 238.816 722.808 239.26 723.048 239.628C723.288 239.996 723.604 240.28 723.996 240.48C724.396 240.672 724.824 240.768 725.28 240.768C725.752 240.768 726.216 240.64 726.672 240.384C727.136 240.12 727.52 239.724 727.824 239.196C728.128 238.66 728.28 237.984 728.28 237.168C728.28 236.424 728.152 235.784 727.896 235.248C727.64 234.704 727.288 234.288 726.84 234C726.4 233.712 725.896 233.568 725.328 233.568C724.848 233.568 724.408 233.676 724.008 233.892C723.608 234.108 723.288 234.424 723.048 234.84C722.808 235.248 722.688 235.744 722.688 236.328H721.656C721.656 235.104 721.844 234.104 722.22 233.328C722.596 232.544 723.1 231.964 723.732 231.588C724.364 231.212 725.056 231.024 725.808 231.024C726.728 231.024 727.592 231.268 728.4 231.756C729.216 232.244 729.876 232.948 730.38 233.868C730.884 234.78 731.136 235.88 731.136 237.168C731.136 238.464 730.88 239.572 730.368 240.492C729.856 241.412 729.184 242.116 728.352 242.604C727.528 243.092 726.64 243.336 725.688 243.336ZM719.856 248.688V231.36H722.184L722.688 234.24V248.688H719.856ZM739.737 243.336C738.881 243.336 738.153 243.152 737.553 242.784C736.953 242.416 736.493 241.86 736.173 241.116C735.861 240.364 735.705 239.424 735.705 238.296H736.737C736.737 238.816 736.857 239.26 737.097 239.628C737.337 239.996 737.653 240.28 738.045 240.48C738.445 240.672 738.873 240.768 739.329 240.768C739.801 240.768 740.265 240.64 740.721 240.384C741.185 240.12 741.569 239.724 741.873 239.196C742.177 238.66 742.329 237.984 742.329 237.168C742.329 236.424 742.201 235.784 741.945 235.248C741.689 234.704 741.337 234.288 740.889 234C740.449 233.712 739.945 233.568 739.377 233.568C738.897 233.568 738.457 233.676 738.057 233.892C737.657 234.108 737.337 234.424 737.097 234.84C736.857 235.248 736.737 235.744 736.737 236.328H735.705C735.705 235.104 735.893 234.104 736.269 233.328C736.645 232.544 737.149 231.964 737.781 231.588C738.413 231.212 739.105 231.024 739.857 231.024C740.777 231.024 741.641 231.268 742.449 231.756C743.265 232.244 743.925 232.948 744.429 233.868C744.933 234.78 745.185 235.88 745.185 237.168C745.185 238.464 744.929 239.572 744.417 240.492C743.905 241.412 743.233 242.116 742.401 242.604C741.577 243.092 740.689 243.336 739.737 243.336ZM733.905 248.688V231.36H736.233L736.737 234.24V248.688H733.905ZM757.359 243.336C756.671 243.336 756.039 243.208 755.463 242.952C754.895 242.696 754.439 242.304 754.095 241.776C753.759 241.248 753.591 240.576 753.591 239.76V228.264H756.423V239.664C756.423 240.624 756.879 241.104 757.791 241.104C758.071 241.104 758.351 241.072 758.631 241.008C758.911 240.944 759.231 240.848 759.591 240.72L759.999 242.712C759.551 242.888 759.115 243.036 758.691 243.156C758.267 243.276 757.823 243.336 757.359 243.336ZM751.959 233.232V231.36H759.591V233.232H751.959ZM770.284 243V236.184C770.284 235.32 770.076 234.668 769.66 234.228C769.244 233.788 768.7 233.568 768.028 233.568C767.46 233.568 766.956 233.724 766.516 234.036C766.084 234.348 765.744 234.82 765.496 235.452C765.248 236.076 765.124 236.856 765.124 237.792H764.188C764.188 236.28 764.376 235.024 764.752 234.024C765.128 233.016 765.66 232.264 766.348 231.768C767.036 231.272 767.844 231.024 768.772 231.024C769.732 231.024 770.532 231.24 771.172 231.672C771.82 232.096 772.304 232.696 772.624 233.472C772.952 234.248 773.116 235.152 773.116 236.184V243H770.284ZM762.292 243V226.536H765.124V243H762.292ZM784.061 243L783.701 240.168V235.488C783.701 234.672 783.533 234.068 783.197 233.676C782.869 233.284 782.309 233.088 781.517 233.088C781.061 233.088 780.665 233.156 780.329 233.292C779.993 233.428 779.733 233.624 779.549 233.88C779.373 234.128 779.285 234.432 779.285 234.792H776.189C776.189 233.912 776.401 233.196 776.825 232.644C777.249 232.084 777.857 231.676 778.649 231.42C779.449 231.156 780.405 231.024 781.517 231.024C782.525 231.024 783.405 231.188 784.157 231.516C784.909 231.836 785.493 232.332 785.909 233.004C786.325 233.676 786.533 234.536 786.533 235.584V243H784.061ZM780.245 243.336C779.245 243.336 778.409 243.164 777.737 242.82C777.073 242.468 776.573 242.008 776.237 241.44C775.901 240.872 775.733 240.256 775.733 239.592C775.733 238.856 775.925 238.24 776.309 237.744C776.701 237.24 777.253 236.864 777.965 236.616C778.677 236.36 779.517 236.232 780.485 236.232C781.117 236.232 781.713 236.28 782.273 236.376C782.841 236.472 783.405 236.6 783.965 236.76V238.416C783.525 238.272 783.045 238.16 782.525 238.08C782.005 238 781.517 237.96 781.061 237.96C780.389 237.96 779.837 238.084 779.405 238.332C778.973 238.58 778.757 239 778.757 239.592C778.757 240.024 778.933 240.396 779.285 240.708C779.637 241.02 780.197 241.176 780.965 241.176C781.549 241.176 782.045 241.048 782.453 240.792C782.861 240.536 783.169 240.216 783.377 239.832C783.593 239.448 783.701 239.064 783.701 238.68H784.373C784.373 239.52 784.217 240.296 783.905 241.008C783.593 241.712 783.129 242.276 782.513 242.7C781.905 243.124 781.149 243.336 780.245 243.336ZM794.02 243.336C793.332 243.336 792.7 243.208 792.124 242.952C791.556 242.696 791.1 242.304 790.756 241.776C790.42 241.248 790.252 240.576 790.252 239.76V228.264H793.084V239.664C793.084 240.624 793.54 241.104 794.452 241.104C794.732 241.104 795.012 241.072 795.292 241.008C795.572 240.944 795.892 240.848 796.252 240.72L796.66 242.712C796.212 242.888 795.776 243.036 795.352 243.156C794.928 243.276 794.484 243.336 794.02 243.336ZM788.62 233.232V231.36H796.252V233.232H788.62ZM810.375 243.336C809.647 243.336 808.979 243.132 808.371 242.724C807.771 242.316 807.291 241.708 806.931 240.9C806.571 240.084 806.391 239.064 806.391 237.84H807.255C807.255 238.424 807.387 238.936 807.651 239.376C807.915 239.816 808.255 240.16 808.671 240.408C809.087 240.648 809.519 240.768 809.967 240.768C810.519 240.768 811.011 240.616 811.443 240.312C811.875 240.008 812.215 239.584 812.463 239.04C812.719 238.496 812.847 237.856 812.847 237.12C812.847 236.408 812.723 235.788 812.475 235.26C812.227 234.724 811.883 234.308 811.443 234.012C811.011 233.716 810.511 233.568 809.943 233.568C809.471 233.568 809.031 233.684 808.623 233.916C808.215 234.14 807.883 234.468 807.627 234.9C807.379 235.324 807.255 235.84 807.255 236.448H806.391C806.391 235.272 806.559 234.28 806.895 233.472C807.239 232.664 807.723 232.056 808.347 231.648C808.979 231.232 809.727 231.024 810.591 231.024C811.535 231.024 812.391 231.276 813.159 231.78C813.935 232.276 814.551 232.984 815.007 233.904C815.471 234.816 815.703 235.888 815.703 237.12C815.703 238.368 815.463 239.46 814.983 240.396C814.511 241.324 813.871 242.048 813.063 242.568C812.255 243.08 811.359 243.336 810.375 243.336ZM804.423 243V226.536H807.255V240.12L806.271 243H804.423ZM822.91 243.336C821.918 243.336 821.01 243.08 820.186 242.568C819.362 242.056 818.702 241.34 818.206 240.42C817.71 239.492 817.462 238.408 817.462 237.168C817.462 235.888 817.706 234.788 818.194 233.868C818.69 232.948 819.35 232.244 820.174 231.756C820.998 231.268 821.91 231.024 822.91 231.024C823.838 231.024 824.638 231.212 825.31 231.588C825.99 231.956 826.534 232.46 826.942 233.1C827.358 233.732 827.638 234.448 827.782 235.248C827.926 236.048 827.934 236.872 827.806 237.72H819.718V236.184H825.802L825.25 236.544C825.274 236.168 825.254 235.788 825.19 235.404C825.134 235.02 825.022 234.668 824.854 234.348C824.686 234.028 824.446 233.772 824.134 233.58C823.83 233.38 823.438 233.28 822.958 233.28C822.382 233.28 821.894 233.424 821.494 233.712C821.094 234 820.79 234.392 820.582 234.888C820.374 235.384 820.27 235.944 820.27 236.568V237.696C820.27 238.352 820.366 238.932 820.558 239.436C820.758 239.94 821.05 240.336 821.434 240.624C821.826 240.912 822.318 241.056 822.91 241.056C823.462 241.056 823.926 240.928 824.302 240.672C824.678 240.416 824.918 240.032 825.022 239.52H827.878C827.758 240.272 827.474 240.936 827.026 241.512C826.586 242.08 826.014 242.528 825.31 242.856C824.606 243.176 823.806 243.336 822.91 243.336ZM835.036 243.336C833.916 243.336 832.952 243.184 832.144 242.88C831.344 242.568 830.728 242.124 830.296 241.548C829.864 240.964 829.644 240.264 829.636 239.448H832.252C832.276 240.024 832.504 240.444 832.936 240.708C833.368 240.972 833.956 241.104 834.7 241.104C835.108 241.104 835.468 241.044 835.78 240.924C836.1 240.804 836.348 240.64 836.524 240.432C836.7 240.224 836.788 239.992 836.788 239.736C836.788 239.408 836.668 239.152 836.428 238.968C836.196 238.776 835.82 238.6 835.3 238.44L832.756 237.528C831.844 237.2 831.144 236.768 830.656 236.232C830.168 235.696 829.924 235.056 829.924 234.312C829.924 233.328 830.368 232.536 831.256 231.936C832.152 231.328 833.348 231.024 834.844 231.024C836.332 231.024 837.48 231.352 838.288 232.008C839.104 232.656 839.524 233.48 839.548 234.48H836.884C836.844 234.096 836.66 233.792 836.332 233.568C836.004 233.344 835.508 233.232 834.844 233.232C834.244 233.232 833.772 233.356 833.428 233.604C833.092 233.844 832.924 234.128 832.924 234.456C832.924 235.008 833.396 235.424 834.34 235.704L837.1 236.736C837.996 237.04 838.692 237.432 839.188 237.912C839.684 238.392 839.932 239 839.932 239.736C839.932 240.352 839.724 240.936 839.308 241.488C838.9 242.032 838.328 242.476 837.592 242.82C836.856 243.164 836.004 243.336 835.036 243.336ZM846.684 243.336C845.996 243.336 845.364 243.208 844.788 242.952C844.22 242.696 843.764 242.304 843.42 241.776C843.084 241.248 842.916 240.576 842.916 239.76V228.264H845.748V239.664C845.748 240.624 846.204 241.104 847.116 241.104C847.396 241.104 847.676 241.072 847.956 241.008C848.236 240.944 848.556 240.848 848.916 240.72L849.324 242.712C848.876 242.888 848.44 243.036 848.016 243.156C847.592 243.276 847.148 243.336 846.684 243.336ZM841.284 233.232V231.36H848.916V233.232H841.284ZM861.671 243.336C860.607 243.336 859.643 243.108 858.779 242.652C857.923 242.196 857.243 241.516 856.739 240.612C856.235 239.7 855.983 238.56 855.983 237.192C855.983 235.8 856.235 234.648 856.739 233.736C857.243 232.824 857.923 232.144 858.779 231.696C859.643 231.248 860.607 231.024 861.671 231.024C862.719 231.024 863.667 231.248 864.515 231.696C865.371 232.144 866.051 232.824 866.555 233.736C867.059 234.648 867.311 235.8 867.311 237.192C867.311 238.56 867.059 239.7 866.555 240.612C866.051 241.516 865.371 242.196 864.515 242.652C863.667 243.108 862.719 243.336 861.671 243.336ZM861.575 240.864C862.135 240.864 862.631 240.728 863.063 240.456C863.503 240.176 863.847 239.764 864.095 239.22C864.351 238.676 864.479 238 864.479 237.192C864.479 235.96 864.235 235.032 863.747 234.408C863.267 233.784 862.607 233.472 861.767 233.472C861.199 233.472 860.695 233.612 860.255 233.892C859.815 234.164 859.467 234.576 859.211 235.128C858.963 235.68 858.839 236.368 858.839 237.192C858.839 238.408 859.083 239.324 859.571 239.94C860.067 240.556 860.735 240.864 861.575 240.864ZM875.913 243.336C875.057 243.336 874.329 243.152 873.729 242.784C873.129 242.416 872.669 241.86 872.349 241.116C872.037 240.364 871.881 239.424 871.881 238.296H872.913C872.913 238.816 873.033 239.26 873.273 239.628C873.513 239.996 873.829 240.28 874.221 240.48C874.621 240.672 875.049 240.768 875.505 240.768C875.977 240.768 876.441 240.64 876.897 240.384C877.361 240.12 877.745 239.724 878.049 239.196C878.353 238.66 878.505 237.984 878.505 237.168C878.505 236.424 878.377 235.784 878.121 235.248C877.865 234.704 877.513 234.288 877.065 234C876.625 233.712 876.121 233.568 875.553 233.568C875.073 233.568 874.633 233.676 874.233 233.892C873.833 234.108 873.513 234.424 873.273 234.84C873.033 235.248 872.913 235.744 872.913 236.328H871.881C871.881 235.104 872.069 234.104 872.445 233.328C872.821 232.544 873.325 231.964 873.957 231.588C874.589 231.212 875.281 231.024 876.033 231.024C876.953 231.024 877.817 231.268 878.625 231.756C879.441 232.244 880.101 232.948 880.605 233.868C881.109 234.78 881.361 235.88 881.361 237.168C881.361 238.464 881.105 239.572 880.593 240.492C880.081 241.412 879.409 242.116 878.577 242.604C877.753 243.092 876.865 243.336 875.913 243.336ZM870.081 248.688V231.36H872.409L872.913 234.24V248.688H870.081ZM888.066 243.336C887.378 243.336 886.746 243.208 886.17 242.952C885.602 242.696 885.146 242.304 884.802 241.776C884.466 241.248 884.298 240.576 884.298 239.76V228.264H887.13V239.664C887.13 240.624 887.586 241.104 888.498 241.104C888.778 241.104 889.058 241.072 889.338 241.008C889.618 240.944 889.938 240.848 890.298 240.72L890.706 242.712C890.258 242.888 889.822 243.036 889.398 243.156C888.974 243.276 888.53 243.336 888.066 243.336ZM882.666 233.232V231.36H890.298V233.232H882.666ZM894.654 229.224C894.102 229.224 893.67 229.08 893.358 228.792C893.054 228.496 892.902 228.088 892.902 227.568C892.902 227.064 893.054 226.664 893.358 226.368C893.67 226.064 894.102 225.912 894.654 225.912C895.198 225.912 895.626 226.064 895.938 226.368C896.25 226.664 896.406 227.064 896.406 227.568C896.406 228.088 896.25 228.496 895.938 228.792C895.626 229.08 895.198 229.224 894.654 229.224ZM893.238 243V231.312H896.07V243H893.238ZM916.089 243V236.184C916.089 235.32 915.881 234.668 915.465 234.228C915.049 233.788 914.505 233.568 913.833 233.568C912.985 233.568 912.317 233.912 911.829 234.6C911.341 235.288 911.097 236.328 911.097 237.72H909.921C909.921 236.496 910.033 235.46 910.257 234.612C910.489 233.756 910.813 233.068 911.229 232.548C911.653 232.02 912.149 231.636 912.717 231.396C913.285 231.148 913.913 231.024 914.601 231.024C915.553 231.024 916.349 231.24 916.989 231.672C917.637 232.096 918.125 232.696 918.453 233.472C918.781 234.248 918.945 235.152 918.945 236.184V243H916.089ZM900.273 243V231.36H902.745L903.057 233.352C903.441 232.576 903.949 231.996 904.581 231.612C905.213 231.22 905.937 231.024 906.753 231.024C907.713 231.024 908.513 231.24 909.153 231.672C909.801 232.096 910.285 232.696 910.605 233.472C910.933 234.248 911.097 235.152 911.097 236.184V243H908.265V236.184C908.265 235.32 908.057 234.668 907.641 234.228C907.225 233.788 906.681 233.568 906.009 233.568C905.441 233.568 904.937 233.724 904.497 234.036C904.065 234.348 903.725 234.82 903.477 235.452C903.229 236.076 903.105 236.856 903.105 237.792V243H900.273ZM924.111 229.224C923.559 229.224 923.127 229.08 922.815 228.792C922.511 228.496 922.359 228.088 922.359 227.568C922.359 227.064 922.511 226.664 922.815 226.368C923.127 226.064 923.559 225.912 924.111 225.912C924.655 225.912 925.083 226.064 925.395 226.368C925.707 226.664 925.863 227.064 925.863 227.568C925.863 228.088 925.707 228.496 925.395 228.792C925.083 229.08 924.655 229.224 924.111 229.224ZM922.695 243V231.312H925.527V243H922.695ZM928.866 243V240.696L934.914 233.64H928.866V231.36H938.034V233.64L932.178 240.696H938.034V243H928.866ZM945.356 243.336C944.364 243.336 943.456 243.08 942.632 242.568C941.808 242.056 941.148 241.34 940.652 240.42C940.156 239.492 939.908 238.408 939.908 237.168C939.908 235.888 940.152 234.788 940.64 233.868C941.136 232.948 941.796 232.244 942.62 231.756C943.444 231.268 944.356 231.024 945.356 231.024C946.284 231.024 947.084 231.212 947.756 231.588C948.436 231.956 948.98 232.46 949.388 233.1C949.804 233.732 950.084 234.448 950.228 235.248C950.372 236.048 950.38 236.872 950.252 237.72H942.164V236.184H948.248L947.696 236.544C947.72 236.168 947.7 235.788 947.636 235.404C947.58 235.02 947.468 234.668 947.3 234.348C947.132 234.028 946.892 233.772 946.58 233.58C946.276 233.38 945.884 233.28 945.404 233.28C944.828 233.28 944.34 233.424 943.94 233.712C943.54 234 943.236 234.392 943.028 234.888C942.82 235.384 942.716 235.944 942.716 236.568V237.696C942.716 238.352 942.812 238.932 943.004 239.436C943.204 239.94 943.496 240.336 943.88 240.624C944.272 240.912 944.764 241.056 945.356 241.056C945.908 241.056 946.372 240.928 946.748 240.672C947.124 240.416 947.364 240.032 947.468 239.52H950.324C950.204 240.272 949.92 240.936 949.472 241.512C949.032 242.08 948.46 242.528 947.756 242.856C947.052 243.176 946.252 243.336 945.356 243.336ZM957.483 243.336C956.363 243.336 955.399 243.184 954.591 242.88C953.791 242.568 953.175 242.124 952.743 241.548C952.311 240.964 952.091 240.264 952.083 239.448H954.699C954.723 240.024 954.951 240.444 955.383 240.708C955.815 240.972 956.403 241.104 957.147 241.104C957.555 241.104 957.915 241.044 958.227 240.924C958.547 240.804 958.795 240.64 958.971 240.432C959.147 240.224 959.235 239.992 959.235 239.736C959.235 239.408 959.115 239.152 958.875 238.968C958.643 238.776 958.267 238.6 957.747 238.44L955.203 237.528C954.291 237.2 953.591 236.768 953.103 236.232C952.615 235.696 952.371 235.056 952.371 234.312C952.371 233.328 952.815 232.536 953.703 231.936C954.599 231.328 955.795 231.024 957.291 231.024C958.779 231.024 959.927 231.352 960.735 232.008C961.551 232.656 961.971 233.48 961.995 234.48H959.331C959.291 234.096 959.107 233.792 958.779 233.568C958.451 233.344 957.955 233.232 957.291 233.232C956.691 233.232 956.219 233.356 955.875 233.604C955.539 233.844 955.371 234.128 955.371 234.456C955.371 235.008 955.843 235.424 956.787 235.704L959.547 236.736C960.443 237.04 961.139 237.432 961.635 237.912C962.131 238.392 962.379 239 962.379 239.736C962.379 240.352 962.171 240.936 961.755 241.488C961.347 242.032 960.775 242.476 960.039 242.82C959.303 243.164 958.451 243.336 957.483 243.336ZM976.618 243.336C975.89 243.336 975.222 243.132 974.614 242.724C974.014 242.316 973.534 241.708 973.174 240.9C972.814 240.084 972.634 239.064 972.634 237.84H973.498C973.498 238.424 973.63 238.936 973.894 239.376C974.158 239.816 974.498 240.16 974.914 240.408C975.33 240.648 975.762 240.768 976.21 240.768C976.762 240.768 977.254 240.616 977.686 240.312C978.118 240.008 978.458 239.584 978.706 239.04C978.962 238.496 979.09 237.856 979.09 237.12C979.09 236.408 978.966 235.788 978.718 235.26C978.47 234.724 978.126 234.308 977.686 234.012C977.254 233.716 976.754 233.568 976.186 233.568C975.714 233.568 975.274 233.684 974.866 233.916C974.458 234.14 974.126 234.468 973.87 234.9C973.622 235.324 973.498 235.84 973.498 236.448H972.634C972.634 235.272 972.802 234.28 973.138 233.472C973.482 232.664 973.966 232.056 974.59 231.648C975.222 231.232 975.97 231.024 976.834 231.024C977.778 231.024 978.634 231.276 979.402 231.78C980.178 232.276 980.794 232.984 981.25 233.904C981.714 234.816 981.946 235.888 981.946 237.12C981.946 238.368 981.706 239.46 981.226 240.396C980.754 241.324 980.114 242.048 979.306 242.568C978.498 243.08 977.602 243.336 976.618 243.336ZM970.666 243V226.536H973.498V240.12L972.514 243H970.666ZM989.392 243.336C988.328 243.336 987.364 243.108 986.5 242.652C985.644 242.196 984.964 241.516 984.46 240.612C983.956 239.7 983.704 238.56 983.704 237.192C983.704 235.8 983.956 234.648 984.46 233.736C984.964 232.824 985.644 232.144 986.5 231.696C987.364 231.248 988.328 231.024 989.392 231.024C990.44 231.024 991.388 231.248 992.236 231.696C993.092 232.144 993.772 232.824 994.276 233.736C994.78 234.648 995.032 235.8 995.032 237.192C995.032 238.56 994.78 239.7 994.276 240.612C993.772 241.516 993.092 242.196 992.236 242.652C991.388 243.108 990.44 243.336 989.392 243.336ZM989.296 240.864C989.856 240.864 990.352 240.728 990.784 240.456C991.224 240.176 991.568 239.764 991.816 239.22C992.072 238.676 992.2 238 992.2 237.192C992.2 235.96 991.956 235.032 991.468 234.408C990.988 233.784 990.328 233.472 989.488 233.472C988.92 233.472 988.416 233.612 987.976 233.892C987.536 234.164 987.188 234.576 986.932 235.128C986.684 235.68 986.56 236.368 986.56 237.192C986.56 238.408 986.804 239.324 987.292 239.94C987.788 240.556 988.456 240.864 989.296 240.864ZM1001.74 243.336C1001.05 243.336 1000.42 243.208 999.842 242.952C999.274 242.696 998.818 242.304 998.474 241.776C998.138 241.248 997.97 240.576 997.97 239.76V228.264H1000.8V239.664C1000.8 240.624 1001.26 241.104 1002.17 241.104C1002.45 241.104 1002.73 241.072 1003.01 241.008C1003.29 240.944 1003.61 240.848 1003.97 240.72L1004.38 242.712C1003.93 242.888 1003.49 243.036 1003.07 243.156C1002.65 243.276 1002.2 243.336 1001.74 243.336ZM996.338 233.232V231.36H1003.97V233.232H996.338ZM1014.66 243V236.184C1014.66 235.32 1014.45 234.668 1014.04 234.228C1013.62 233.788 1013.08 233.568 1012.41 233.568C1011.84 233.568 1011.33 233.724 1010.89 234.036C1010.46 234.348 1010.12 234.82 1009.87 235.452C1009.63 236.076 1009.5 236.856 1009.5 237.792H1008.57C1008.57 236.28 1008.75 235.024 1009.13 234.024C1009.51 233.016 1010.04 232.264 1010.73 231.768C1011.41 231.272 1012.22 231.024 1013.15 231.024C1014.11 231.024 1014.91 231.24 1015.55 231.672C1016.2 232.096 1016.68 232.696 1017 233.472C1017.33 234.248 1017.49 235.152 1017.49 236.184V243H1014.66ZM1006.67 243V226.536H1009.5V243H1006.67ZM481.777 284.336C481.049 284.336 480.381 284.132 479.773 283.724C479.173 283.316 478.693 282.708 478.333 281.9C477.973 281.084 477.793 280.064 477.793 278.84H478.657C478.657 279.424 478.789 279.936 479.053 280.376C479.317 280.816 479.657 281.16 480.073 281.408C480.489 281.648 480.921 281.768 481.369 281.768C481.921 281.768 482.413 281.616 482.845 281.312C483.277 281.008 483.617 280.584 483.865 280.04C484.121 279.496 484.249 278.856 484.249 278.12C484.249 277.408 484.125 276.788 483.877 276.26C483.629 275.724 483.285 275.308 482.845 275.012C482.413 274.716 481.913 274.568 481.345 274.568C480.873 274.568 480.433 274.684 480.025 274.916C479.617 275.14 479.285 275.468 479.029 275.9C478.781 276.324 478.657 276.84 478.657 277.448H477.793C477.793 276.272 477.961 275.28 478.297 274.472C478.641 273.664 479.125 273.056 479.749 272.648C480.381 272.232 481.129 272.024 481.993 272.024C482.937 272.024 483.793 272.276 484.561 272.78C485.337 273.276 485.953 273.984 486.409 274.904C486.873 275.816 487.105 276.888 487.105 278.12C487.105 279.368 486.865 280.46 486.385 281.396C485.913 282.324 485.273 283.048 484.465 283.568C483.657 284.08 482.761 284.336 481.777 284.336ZM475.825 284V267.536H478.657V281.12L477.673 284H475.825ZM491.623 270.224C491.071 270.224 490.639 270.08 490.327 269.792C490.023 269.496 489.871 269.088 489.871 268.568C489.871 268.064 490.023 267.664 490.327 267.368C490.639 267.064 491.071 266.912 491.623 266.912C492.167 266.912 492.595 267.064 492.907 267.368C493.219 267.664 493.375 268.064 493.375 268.568C493.375 269.088 493.219 269.496 492.907 269.792C492.595 270.08 492.167 270.224 491.623 270.224ZM490.207 284V272.312H493.039V284H490.207ZM497.242 284V267.536H500.074V284H497.242ZM499.69 276.776L504.682 272.36H508.522L499.69 279.704V276.776ZM505.354 284L500.146 276.584L502.834 275.936L508.81 284H505.354ZM515.189 284.336C514.197 284.336 513.289 284.08 512.465 283.568C511.641 283.056 510.981 282.34 510.485 281.42C509.989 280.492 509.741 279.408 509.741 278.168C509.741 276.888 509.985 275.788 510.473 274.868C510.969 273.948 511.629 273.244 512.453 272.756C513.277 272.268 514.189 272.024 515.189 272.024C516.117 272.024 516.917 272.212 517.589 272.588C518.269 272.956 518.813 273.46 519.221 274.1C519.637 274.732 519.917 275.448 520.061 276.248C520.205 277.048 520.213 277.872 520.085 278.72H511.997V277.184H518.081L517.529 277.544C517.553 277.168 517.533 276.788 517.469 276.404C517.413 276.02 517.301 275.668 517.133 275.348C516.965 275.028 516.725 274.772 516.413 274.58C516.109 274.38 515.717 274.28 515.237 274.28C514.661 274.28 514.173 274.424 513.773 274.712C513.373 275 513.069 275.392 512.861 275.888C512.653 276.384 512.549 276.944 512.549 277.568V278.696C512.549 279.352 512.645 279.932 512.837 280.436C513.037 280.94 513.329 281.336 513.713 281.624C514.105 281.912 514.597 282.056 515.189 282.056C515.741 282.056 516.205 281.928 516.581 281.672C516.957 281.416 517.197 281.032 517.301 280.52H520.157C520.037 281.272 519.753 281.936 519.305 282.512C518.865 283.08 518.293 283.528 517.589 283.856C516.885 284.176 516.085 284.336 515.189 284.336ZM532.378 284.336C531.69 284.336 531.058 284.208 530.482 283.952C529.914 283.696 529.458 283.304 529.114 282.776C528.778 282.248 528.61 281.576 528.61 280.76V269.264H531.442V280.664C531.442 281.624 531.898 282.104 532.81 282.104C533.09 282.104 533.37 282.072 533.65 282.008C533.93 281.944 534.25 281.848 534.61 281.72L535.018 283.712C534.57 283.888 534.134 284.036 533.71 284.156C533.286 284.276 532.842 284.336 532.378 284.336ZM526.978 274.232V272.36H534.61V274.232H526.978ZM537.311 284V272.312H540.143V284H537.311ZM539.447 278.888C539.447 277.36 539.619 276.096 539.963 275.096C540.307 274.096 540.767 273.356 541.343 272.876C541.927 272.388 542.575 272.144 543.287 272.144C543.479 272.144 543.659 272.156 543.827 272.18C544.003 272.204 544.175 272.24 544.343 272.288L544.295 275.12C544.087 275.072 543.863 275.032 543.623 275C543.383 274.968 543.167 274.952 542.975 274.952C542.351 274.952 541.827 275.104 541.403 275.408C540.987 275.704 540.671 276.144 540.455 276.728C540.247 277.312 540.143 278.032 540.143 278.888H539.447ZM553.549 284L553.189 281.168V276.488C553.189 275.672 553.021 275.068 552.685 274.676C552.357 274.284 551.797 274.088 551.005 274.088C550.549 274.088 550.153 274.156 549.817 274.292C549.481 274.428 549.221 274.624 549.037 274.88C548.861 275.128 548.773 275.432 548.773 275.792H545.677C545.677 274.912 545.889 274.196 546.313 273.644C546.737 273.084 547.345 272.676 548.137 272.42C548.937 272.156 549.893 272.024 551.005 272.024C552.013 272.024 552.893 272.188 553.645 272.516C554.397 272.836 554.981 273.332 555.397 274.004C555.813 274.676 556.021 275.536 556.021 276.584V284H553.549ZM549.733 284.336C548.733 284.336 547.897 284.164 547.225 283.82C546.561 283.468 546.061 283.008 545.725 282.44C545.389 281.872 545.221 281.256 545.221 280.592C545.221 279.856 545.413 279.24 545.797 278.744C546.189 278.24 546.741 277.864 547.453 277.616C548.165 277.36 549.005 277.232 549.973 277.232C550.605 277.232 551.201 277.28 551.761 277.376C552.329 277.472 552.893 277.6 553.453 277.76V279.416C553.013 279.272 552.533 279.16 552.013 279.08C551.493 279 551.005 278.96 550.549 278.96C549.877 278.96 549.325 279.084 548.893 279.332C548.461 279.58 548.245 280 548.245 280.592C548.245 281.024 548.421 281.396 548.773 281.708C549.125 282.02 549.685 282.176 550.453 282.176C551.037 282.176 551.533 282.048 551.941 281.792C552.349 281.536 552.657 281.216 552.865 280.832C553.081 280.448 553.189 280.064 553.189 279.68H553.861C553.861 280.52 553.705 281.296 553.393 282.008C553.081 282.712 552.617 283.276 552.001 283.7C551.393 284.124 550.637 284.336 549.733 284.336ZM561.228 270.224C560.676 270.224 560.244 270.08 559.932 269.792C559.628 269.496 559.476 269.088 559.476 268.568C559.476 268.064 559.628 267.664 559.932 267.368C560.244 267.064 560.676 266.912 561.228 266.912C561.772 266.912 562.2 267.064 562.512 267.368C562.824 267.664 562.98 268.064 562.98 268.568C562.98 269.088 562.824 269.496 562.512 269.792C562.2 270.08 561.772 270.224 561.228 270.224ZM559.812 284V272.312H562.644V284H559.812ZM566.847 284V267.536H569.679V284H566.847ZM580.686 270.224C580.134 270.224 579.702 270.08 579.39 269.792C579.086 269.496 578.934 269.088 578.934 268.568C578.934 268.064 579.086 267.664 579.39 267.368C579.702 267.064 580.134 266.912 580.686 266.912C581.23 266.912 581.658 267.064 581.97 267.368C582.282 267.664 582.438 268.064 582.438 268.568C582.438 269.088 582.282 269.496 581.97 269.792C581.658 270.08 581.23 270.224 580.686 270.224ZM579.27 284V272.312H582.102V284H579.27ZM594.297 284V277.184C594.297 276.32 594.089 275.668 593.673 275.228C593.257 274.788 592.713 274.568 592.041 274.568C591.473 274.568 590.969 274.724 590.529 275.036C590.097 275.348 589.757 275.82 589.509 276.452C589.261 277.076 589.137 277.856 589.137 278.792H588.201C588.201 277.28 588.389 276.024 588.765 275.024C589.141 274.016 589.673 273.264 590.361 272.768C591.049 272.272 591.857 272.024 592.785 272.024C593.745 272.024 594.545 272.24 595.185 272.672C595.833 273.096 596.317 273.696 596.637 274.472C596.965 275.248 597.129 276.152 597.129 277.184V284H594.297ZM586.305 284V272.36H588.777L589.137 274.664V284H586.305ZM601.33 284V270.944C601.33 270.104 601.494 269.42 601.822 268.892C602.15 268.364 602.582 267.976 603.118 267.728C603.662 267.472 604.25 267.344 604.882 267.344C605.274 267.344 605.678 267.372 606.094 267.428C606.51 267.484 606.914 267.552 607.306 267.632L606.754 269.816C606.554 269.744 606.346 269.688 606.13 269.648C605.914 269.6 605.706 269.576 605.506 269.576C605.282 269.576 605.07 269.62 604.87 269.708C604.67 269.788 604.506 269.932 604.378 270.14C604.25 270.348 604.186 270.632 604.186 270.992V284H601.33ZM599.602 274.232V272.36H606.322V274.232H599.602ZM613.454 284.336C612.39 284.336 611.426 284.108 610.562 283.652C609.706 283.196 609.026 282.516 608.522 281.612C608.018 280.7 607.766 279.56 607.766 278.192C607.766 276.8 608.018 275.648 608.522 274.736C609.026 273.824 609.706 273.144 610.562 272.696C611.426 272.248 612.39 272.024 613.454 272.024C614.502 272.024 615.45 272.248 616.298 272.696C617.154 273.144 617.834 273.824 618.338 274.736C618.842 275.648 619.094 276.8 619.094 278.192C619.094 279.56 618.842 280.7 618.338 281.612C617.834 282.516 617.154 283.196 616.298 283.652C615.45 284.108 614.502 284.336 613.454 284.336ZM613.358 281.864C613.918 281.864 614.414 281.728 614.846 281.456C615.286 281.176 615.63 280.764 615.878 280.22C616.134 279.676 616.262 279 616.262 278.192C616.262 276.96 616.018 276.032 615.53 275.408C615.05 274.784 614.39 274.472 613.55 274.472C612.982 274.472 612.478 274.612 612.038 274.892C611.598 275.164 611.25 275.576 610.994 276.128C610.746 276.68 610.622 277.368 610.622 278.192C610.622 279.408 610.866 280.324 611.354 280.94C611.85 281.556 612.518 281.864 613.358 281.864ZM621.864 284V272.312H624.696V284H621.864ZM624 278.888C624 277.36 624.172 276.096 624.516 275.096C624.86 274.096 625.32 273.356 625.896 272.876C626.48 272.388 627.128 272.144 627.84 272.144C628.032 272.144 628.212 272.156 628.38 272.18C628.556 272.204 628.728 272.24 628.896 272.288L628.848 275.12C628.64 275.072 628.416 275.032 628.176 275C627.936 274.968 627.72 274.952 627.528 274.952C626.904 274.952 626.38 275.104 625.956 275.408C625.54 275.704 625.224 276.144 625.008 276.728C624.8 277.312 624.696 278.032 624.696 278.888H624ZM646.502 284V277.184C646.502 276.32 646.294 275.668 645.878 275.228C645.462 274.788 644.918 274.568 644.246 274.568C643.398 274.568 642.73 274.912 642.242 275.6C641.754 276.288 641.51 277.328 641.51 278.72H640.334C640.334 277.496 640.446 276.46 640.67 275.612C640.902 274.756 641.226 274.068 641.642 273.548C642.066 273.02 642.562 272.636 643.13 272.396C643.698 272.148 644.326 272.024 645.014 272.024C645.966 272.024 646.762 272.24 647.402 272.672C648.05 273.096 648.538 273.696 648.866 274.472C649.194 275.248 649.358 276.152 649.358 277.184V284H646.502ZM630.686 284V272.36H633.158L633.47 274.352C633.854 273.576 634.362 272.996 634.994 272.612C635.626 272.22 636.35 272.024 637.166 272.024C638.126 272.024 638.926 272.24 639.566 272.672C640.214 273.096 640.698 273.696 641.018 274.472C641.346 275.248 641.51 276.152 641.51 277.184V284H638.678V277.184C638.678 276.32 638.47 275.668 638.054 275.228C637.638 274.788 637.094 274.568 636.422 274.568C635.854 274.568 635.35 274.724 634.91 275.036C634.478 275.348 634.138 275.82 633.89 276.452C633.642 277.076 633.518 277.856 633.518 278.792V284H630.686ZM660.283 284L659.923 281.168V276.488C659.923 275.672 659.755 275.068 659.419 274.676C659.091 274.284 658.531 274.088 657.739 274.088C657.283 274.088 656.887 274.156 656.551 274.292C656.215 274.428 655.955 274.624 655.771 274.88C655.595 275.128 655.507 275.432 655.507 275.792H652.411C652.411 274.912 652.623 274.196 653.047 273.644C653.471 273.084 654.079 272.676 654.871 272.42C655.671 272.156 656.627 272.024 657.739 272.024C658.747 272.024 659.627 272.188 660.379 272.516C661.131 272.836 661.715 273.332 662.131 274.004C662.547 274.676 662.755 275.536 662.755 276.584V284H660.283ZM656.467 284.336C655.467 284.336 654.631 284.164 653.959 283.82C653.295 283.468 652.795 283.008 652.459 282.44C652.123 281.872 651.955 281.256 651.955 280.592C651.955 279.856 652.147 279.24 652.531 278.744C652.923 278.24 653.475 277.864 654.187 277.616C654.899 277.36 655.739 277.232 656.707 277.232C657.339 277.232 657.935 277.28 658.495 277.376C659.063 277.472 659.627 277.6 660.187 277.76V279.416C659.747 279.272 659.267 279.16 658.747 279.08C658.227 279 657.739 278.96 657.283 278.96C656.611 278.96 656.059 279.084 655.627 279.332C655.195 279.58 654.979 280 654.979 280.592C654.979 281.024 655.155 281.396 655.507 281.708C655.859 282.02 656.419 282.176 657.187 282.176C657.771 282.176 658.267 282.048 658.675 281.792C659.083 281.536 659.391 281.216 659.599 280.832C659.815 280.448 659.923 280.064 659.923 279.68H660.595C660.595 280.52 660.439 281.296 660.127 282.008C659.815 282.712 659.351 283.276 658.735 283.7C658.127 284.124 657.371 284.336 656.467 284.336ZM670.242 284.336C669.554 284.336 668.922 284.208 668.346 283.952C667.778 283.696 667.322 283.304 666.978 282.776C666.642 282.248 666.474 281.576 666.474 280.76V269.264H669.306V280.664C669.306 281.624 669.762 282.104 670.674 282.104C670.954 282.104 671.234 282.072 671.514 282.008C671.794 281.944 672.114 281.848 672.474 281.72L672.882 283.712C672.434 283.888 671.998 284.036 671.574 284.156C671.15 284.276 670.706 284.336 670.242 284.336ZM664.842 274.232V272.36H672.474V274.232H664.842ZM676.831 270.224C676.279 270.224 675.847 270.08 675.535 269.792C675.231 269.496 675.079 269.088 675.079 268.568C675.079 268.064 675.231 267.664 675.535 267.368C675.847 267.064 676.279 266.912 676.831 266.912C677.375 266.912 677.803 267.064 678.115 267.368C678.427 267.664 678.583 268.064 678.583 268.568C678.583 269.088 678.427 269.496 678.115 269.792C677.803 270.08 677.375 270.224 676.831 270.224ZM675.415 284V272.312H678.247V284H675.415ZM687.034 284.336C685.97 284.336 685.006 284.108 684.142 283.652C683.286 283.196 682.606 282.516 682.102 281.612C681.598 280.7 681.346 279.56 681.346 278.192C681.346 276.8 681.598 275.648 682.102 274.736C682.606 273.824 683.286 273.144 684.142 272.696C685.006 272.248 685.97 272.024 687.034 272.024C688.082 272.024 689.03 272.248 689.878 272.696C690.734 273.144 691.414 273.824 691.918 274.736C692.422 275.648 692.674 276.8 692.674 278.192C692.674 279.56 692.422 280.7 691.918 281.612C691.414 282.516 690.734 283.196 689.878 283.652C689.03 284.108 688.082 284.336 687.034 284.336ZM686.938 281.864C687.498 281.864 687.994 281.728 688.426 281.456C688.866 281.176 689.21 280.764 689.458 280.22C689.714 279.676 689.842 279 689.842 278.192C689.842 276.96 689.598 276.032 689.11 275.408C688.63 274.784 687.97 274.472 687.13 274.472C686.562 274.472 686.058 274.612 685.618 274.892C685.178 275.164 684.83 275.576 684.574 276.128C684.326 276.68 684.202 277.368 684.202 278.192C684.202 279.408 684.446 280.324 684.934 280.94C685.43 281.556 686.098 281.864 686.938 281.864ZM703.436 284V277.184C703.436 276.32 703.228 275.668 702.812 275.228C702.396 274.788 701.852 274.568 701.18 274.568C700.612 274.568 700.108 274.724 699.668 275.036C699.236 275.348 698.896 275.82 698.648 276.452C698.4 277.076 698.276 277.856 698.276 278.792H697.34C697.34 277.28 697.528 276.024 697.904 275.024C698.28 274.016 698.812 273.264 699.5 272.768C700.188 272.272 700.996 272.024 701.924 272.024C702.884 272.024 703.684 272.24 704.324 272.672C704.972 273.096 705.456 273.696 705.776 274.472C706.104 275.248 706.268 276.152 706.268 277.184V284H703.436ZM695.444 284V272.36H697.916L698.276 274.664V284H695.444ZM722.683 284L722.323 281.168V276.488C722.323 275.672 722.155 275.068 721.819 274.676C721.491 274.284 720.931 274.088 720.139 274.088C719.683 274.088 719.287 274.156 718.951 274.292C718.615 274.428 718.355 274.624 718.171 274.88C717.995 275.128 717.907 275.432 717.907 275.792H714.811C714.811 274.912 715.023 274.196 715.447 273.644C715.871 273.084 716.479 272.676 717.271 272.42C718.071 272.156 719.027 272.024 720.139 272.024C721.147 272.024 722.027 272.188 722.779 272.516C723.531 272.836 724.115 273.332 724.531 274.004C724.947 274.676 725.155 275.536 725.155 276.584V284H722.683ZM718.867 284.336C717.867 284.336 717.031 284.164 716.359 283.82C715.695 283.468 715.195 283.008 714.859 282.44C714.523 281.872 714.355 281.256 714.355 280.592C714.355 279.856 714.547 279.24 714.931 278.744C715.323 278.24 715.875 277.864 716.587 277.616C717.299 277.36 718.139 277.232 719.107 277.232C719.739 277.232 720.335 277.28 720.895 277.376C721.463 277.472 722.027 277.6 722.587 277.76V279.416C722.147 279.272 721.667 279.16 721.147 279.08C720.627 279 720.139 278.96 719.683 278.96C719.011 278.96 718.459 279.084 718.027 279.332C717.595 279.58 717.379 280 717.379 280.592C717.379 281.024 717.555 281.396 717.907 281.708C718.259 282.02 718.819 282.176 719.587 282.176C720.171 282.176 720.667 282.048 721.075 281.792C721.483 281.536 721.791 281.216 721.999 280.832C722.215 280.448 722.323 280.064 722.323 279.68H722.995C722.995 280.52 722.839 281.296 722.527 282.008C722.215 282.712 721.751 283.276 721.135 283.7C720.527 284.124 719.771 284.336 718.867 284.336ZM736.698 284V277.184C736.698 276.32 736.49 275.668 736.074 275.228C735.658 274.788 735.114 274.568 734.442 274.568C733.874 274.568 733.37 274.724 732.93 275.036C732.498 275.348 732.158 275.82 731.91 276.452C731.662 277.076 731.538 277.856 731.538 278.792H730.602C730.602 277.28 730.79 276.024 731.166 275.024C731.542 274.016 732.074 273.264 732.762 272.768C733.45 272.272 734.258 272.024 735.186 272.024C736.146 272.024 736.946 272.24 737.586 272.672C738.234 273.096 738.718 273.696 739.038 274.472C739.366 275.248 739.53 276.152 739.53 277.184V284H736.698ZM728.706 284V272.36H731.178L731.538 274.664V284H728.706ZM747.355 284.336C746.379 284.336 745.487 284.08 744.679 283.568C743.879 283.048 743.239 282.324 742.759 281.396C742.287 280.46 742.051 279.368 742.051 278.12C742.051 276.888 742.279 275.816 742.735 274.904C743.199 273.984 743.815 273.276 744.583 272.78C745.359 272.276 746.219 272.024 747.163 272.024C748.027 272.024 748.775 272.232 749.407 272.648C750.039 273.056 750.523 273.664 750.859 274.472C751.195 275.28 751.363 276.272 751.363 277.448H750.475C750.475 276.84 750.351 276.324 750.103 275.9C749.855 275.468 749.527 275.14 749.119 274.916C748.719 274.684 748.283 274.568 747.811 274.568C747.243 274.568 746.739 274.716 746.299 275.012C745.867 275.308 745.527 275.724 745.279 276.26C745.031 276.788 744.907 277.408 744.907 278.12C744.907 278.856 745.031 279.496 745.279 280.04C745.527 280.584 745.867 281.008 746.299 281.312C746.739 281.616 747.235 281.768 747.787 281.768C748.235 281.768 748.663 281.648 749.071 281.408C749.487 281.16 749.823 280.816 750.079 280.376C750.343 279.936 750.475 279.424 750.475 278.84H751.363C751.363 280.064 751.179 281.084 750.811 281.9C750.451 282.708 749.967 283.316 749.359 283.724C748.751 284.132 748.083 284.336 747.355 284.336ZM751.003 284L750.475 281.12V267.536H753.331V284H751.003ZM763.344 284V270.944C763.344 270.104 763.508 269.42 763.836 268.892C764.164 268.364 764.596 267.976 765.132 267.728C765.676 267.472 766.264 267.344 766.896 267.344C767.288 267.344 767.692 267.372 768.108 267.428C768.524 267.484 768.928 267.552 769.32 267.632L768.768 269.816C768.568 269.744 768.36 269.688 768.144 269.648C767.928 269.6 767.72 269.576 767.52 269.576C767.296 269.576 767.084 269.62 766.884 269.708C766.684 269.788 766.52 269.932 766.392 270.14C766.264 270.348 766.2 270.632 766.2 270.992V284H763.344ZM761.616 274.232V272.36H768.336V274.232H761.616ZM773.148 270.224C772.596 270.224 772.164 270.08 771.852 269.792C771.548 269.496 771.396 269.088 771.396 268.568C771.396 268.064 771.548 267.664 771.852 267.368C772.164 267.064 772.596 266.912 773.148 266.912C773.692 266.912 774.12 267.064 774.432 267.368C774.744 267.664 774.9 268.064 774.9 268.568C774.9 269.088 774.744 269.496 774.432 269.792C774.12 270.08 773.692 270.224 773.148 270.224ZM771.732 284V272.312H774.564V284H771.732ZM782.719 284.336C782.031 284.336 781.399 284.208 780.823 283.952C780.255 283.696 779.799 283.304 779.455 282.776C779.119 282.248 778.951 281.576 778.951 280.76V269.264H781.783V280.664C781.783 281.624 782.239 282.104 783.151 282.104C783.431 282.104 783.711 282.072 783.991 282.008C784.271 281.944 784.591 281.848 784.951 281.72L785.359 283.712C784.911 283.888 784.475 284.036 784.051 284.156C783.627 284.276 783.183 284.336 782.719 284.336ZM777.319 274.232V272.36H784.951V274.232H777.319ZM795.644 284V277.184C795.644 276.32 795.436 275.668 795.02 275.228C794.604 274.788 794.06 274.568 793.388 274.568C792.82 274.568 792.316 274.724 791.876 275.036C791.444 275.348 791.104 275.82 790.856 276.452C790.608 277.076 790.484 277.856 790.484 278.792H789.548C789.548 277.28 789.736 276.024 790.112 275.024C790.488 274.016 791.02 273.264 791.708 272.768C792.396 272.272 793.204 272.024 794.132 272.024C795.092 272.024 795.892 272.24 796.532 272.672C797.18 273.096 797.664 273.696 797.984 274.472C798.312 275.248 798.476 276.152 798.476 277.184V284H795.644ZM787.652 284V272.36H790.124L790.484 274.664V284H787.652ZM806.349 284.336C805.357 284.336 804.449 284.08 803.625 283.568C802.801 283.056 802.141 282.34 801.645 281.42C801.149 280.492 800.901 279.408 800.901 278.168C800.901 276.888 801.145 275.788 801.633 274.868C802.129 273.948 802.789 273.244 803.613 272.756C804.437 272.268 805.349 272.024 806.349 272.024C807.277 272.024 808.077 272.212 808.749 272.588C809.429 272.956 809.973 273.46 810.381 274.1C810.797 274.732 811.077 275.448 811.221 276.248C811.365 277.048 811.373 277.872 811.245 278.72H803.157V277.184H809.241L808.689 277.544C808.713 277.168 808.693 276.788 808.629 276.404C808.573 276.02 808.461 275.668 808.293 275.348C808.125 275.028 807.885 274.772 807.573 274.58C807.269 274.38 806.877 274.28 806.397 274.28C805.821 274.28 805.333 274.424 804.933 274.712C804.533 275 804.229 275.392 804.021 275.888C803.813 276.384 803.709 276.944 803.709 277.568V278.696C803.709 279.352 803.805 279.932 803.997 280.436C804.197 280.94 804.489 281.336 804.873 281.624C805.265 281.912 805.757 282.056 806.349 282.056C806.901 282.056 807.365 281.928 807.741 281.672C808.117 281.416 808.357 281.032 808.461 280.52H811.317C811.197 281.272 810.913 281.936 810.465 282.512C810.025 283.08 809.453 283.528 808.749 283.856C808.045 284.176 807.245 284.336 806.349 284.336ZM818.475 284.336C817.355 284.336 816.391 284.184 815.583 283.88C814.783 283.568 814.167 283.124 813.735 282.548C813.303 281.964 813.083 281.264 813.075 280.448H815.691C815.715 281.024 815.943 281.444 816.375 281.708C816.807 281.972 817.395 282.104 818.139 282.104C818.547 282.104 818.907 282.044 819.219 281.924C819.539 281.804 819.787 281.64 819.963 281.432C820.139 281.224 820.227 280.992 820.227 280.736C820.227 280.408 820.107 280.152 819.867 279.968C819.635 279.776 819.259 279.6 818.739 279.44L816.195 278.528C815.283 278.2 814.583 277.768 814.095 277.232C813.607 276.696 813.363 276.056 813.363 275.312C813.363 274.328 813.807 273.536 814.695 272.936C815.591 272.328 816.787 272.024 818.283 272.024C819.771 272.024 820.919 272.352 821.727 273.008C822.543 273.656 822.963 274.48 822.987 275.48H820.323C820.283 275.096 820.099 274.792 819.771 274.568C819.443 274.344 818.947 274.232 818.283 274.232C817.683 274.232 817.211 274.356 816.867 274.604C816.531 274.844 816.363 275.128 816.363 275.456C816.363 276.008 816.835 276.424 817.779 276.704L820.539 277.736C821.435 278.04 822.131 278.432 822.627 278.912C823.123 279.392 823.371 280 823.371 280.736C823.371 281.352 823.163 281.936 822.747 282.488C822.339 283.032 821.767 283.476 821.031 283.82C820.295 284.164 819.443 284.336 818.475 284.336ZM830.531 284.336C829.411 284.336 828.447 284.184 827.639 283.88C826.839 283.568 826.223 283.124 825.791 282.548C825.359 281.964 825.139 281.264 825.131 280.448H827.747C827.771 281.024 827.999 281.444 828.431 281.708C828.863 281.972 829.451 282.104 830.195 282.104C830.603 282.104 830.963 282.044 831.275 281.924C831.595 281.804 831.843 281.64 832.019 281.432C832.195 281.224 832.283 280.992 832.283 280.736C832.283 280.408 832.163 280.152 831.923 279.968C831.691 279.776 831.315 279.6 830.795 279.44L828.251 278.528C827.339 278.2 826.639 277.768 826.151 277.232C825.663 276.696 825.419 276.056 825.419 275.312C825.419 274.328 825.863 273.536 826.751 272.936C827.647 272.328 828.843 272.024 830.339 272.024C831.827 272.024 832.975 272.352 833.783 273.008C834.599 273.656 835.019 274.48 835.043 275.48H832.379C832.339 275.096 832.155 274.792 831.827 274.568C831.499 274.344 831.003 274.232 830.339 274.232C829.739 274.232 829.267 274.356 828.923 274.604C828.587 274.844 828.419 275.128 828.419 275.456C828.419 276.008 828.891 276.424 829.835 276.704L832.595 277.736C833.491 278.04 834.187 278.432 834.683 278.912C835.179 279.392 835.427 280 835.427 280.736C835.427 281.352 835.219 281.936 834.803 282.488C834.395 283.032 833.823 283.476 833.087 283.82C832.351 284.164 831.499 284.336 830.531 284.336ZM848.01 284.336C847.034 284.336 846.142 284.08 845.334 283.568C844.534 283.048 843.894 282.324 843.414 281.396C842.942 280.46 842.706 279.368 842.706 278.12C842.706 276.888 842.934 275.816 843.39 274.904C843.854 273.984 844.47 273.276 845.238 272.78C846.014 272.276 846.874 272.024 847.818 272.024C848.682 272.024 849.43 272.232 850.062 272.648C850.694 273.056 851.178 273.664 851.514 274.472C851.85 275.28 852.018 276.272 852.018 277.448H851.13C851.13 276.84 851.006 276.324 850.758 275.9C850.51 275.468 850.182 275.14 849.774 274.916C849.374 274.684 848.938 274.568 848.466 274.568C847.898 274.568 847.394 274.716 846.954 275.012C846.522 275.308 846.182 275.724 845.934 276.26C845.686 276.788 845.562 277.408 845.562 278.12C845.562 278.856 845.686 279.496 845.934 280.04C846.182 280.584 846.522 281.008 846.954 281.312C847.394 281.616 847.89 281.768 848.442 281.768C848.89 281.768 849.318 281.648 849.726 281.408C850.142 281.16 850.478 280.816 850.734 280.376C850.998 279.936 851.13 279.424 851.13 278.84H852.018C852.018 280.064 851.834 281.084 851.466 281.9C851.106 282.708 850.622 283.316 850.014 283.724C849.406 284.132 848.738 284.336 848.01 284.336ZM851.658 284L851.13 281.12V267.536H853.986V284H851.658ZM865.272 284L864.912 281.168V276.488C864.912 275.672 864.744 275.068 864.408 274.676C864.08 274.284 863.52 274.088 862.728 274.088C862.272 274.088 861.876 274.156 861.54 274.292C861.204 274.428 860.944 274.624 860.76 274.88C860.584 275.128 860.496 275.432 860.496 275.792H857.4C857.4 274.912 857.612 274.196 858.036 273.644C858.46 273.084 859.068 272.676 859.86 272.42C860.66 272.156 861.616 272.024 862.728 272.024C863.736 272.024 864.616 272.188 865.368 272.516C866.12 272.836 866.704 273.332 867.12 274.004C867.536 274.676 867.744 275.536 867.744 276.584V284H865.272ZM861.456 284.336C860.456 284.336 859.62 284.164 858.948 283.82C858.284 283.468 857.784 283.008 857.448 282.44C857.112 281.872 856.944 281.256 856.944 280.592C856.944 279.856 857.136 279.24 857.52 278.744C857.912 278.24 858.464 277.864 859.176 277.616C859.888 277.36 860.728 277.232 861.696 277.232C862.328 277.232 862.924 277.28 863.484 277.376C864.052 277.472 864.616 277.6 865.176 277.76V279.416C864.736 279.272 864.256 279.16 863.736 279.08C863.216 279 862.728 278.96 862.272 278.96C861.6 278.96 861.048 279.084 860.616 279.332C860.184 279.58 859.968 280 859.968 280.592C859.968 281.024 860.144 281.396 860.496 281.708C860.848 282.02 861.408 282.176 862.176 282.176C862.76 282.176 863.256 282.048 863.664 281.792C864.072 281.536 864.38 281.216 864.588 280.832C864.804 280.448 864.912 280.064 864.912 279.68H865.584C865.584 280.52 865.428 281.296 865.116 282.008C864.804 282.712 864.34 283.276 863.724 283.7C863.116 284.124 862.36 284.336 861.456 284.336ZM875.231 284.336C874.543 284.336 873.911 284.208 873.335 283.952C872.767 283.696 872.311 283.304 871.967 282.776C871.631 282.248 871.463 281.576 871.463 280.76V269.264H874.295V280.664C874.295 281.624 874.751 282.104 875.663 282.104C875.943 282.104 876.223 282.072 876.503 282.008C876.783 281.944 877.103 281.848 877.463 281.72L877.871 283.712C877.423 283.888 876.987 284.036 876.563 284.156C876.139 284.276 875.695 284.336 875.231 284.336ZM869.831 274.232V272.36H877.463V274.232H869.831ZM887.58 284L887.22 281.168V276.488C887.22 275.672 887.052 275.068 886.716 274.676C886.388 274.284 885.828 274.088 885.036 274.088C884.58 274.088 884.184 274.156 883.848 274.292C883.512 274.428 883.252 274.624 883.068 274.88C882.892 275.128 882.804 275.432 882.804 275.792H879.708C879.708 274.912 879.92 274.196 880.344 273.644C880.768 273.084 881.376 272.676 882.168 272.42C882.968 272.156 883.924 272.024 885.036 272.024C886.044 272.024 886.924 272.188 887.676 272.516C888.428 272.836 889.012 273.332 889.428 274.004C889.844 274.676 890.052 275.536 890.052 276.584V284H887.58ZM883.764 284.336C882.764 284.336 881.928 284.164 881.256 283.82C880.592 283.468 880.092 283.008 879.756 282.44C879.42 281.872 879.252 281.256 879.252 280.592C879.252 279.856 879.444 279.24 879.828 278.744C880.22 278.24 880.772 277.864 881.484 277.616C882.196 277.36 883.036 277.232 884.004 277.232C884.636 277.232 885.232 277.28 885.792 277.376C886.36 277.472 886.924 277.6 887.484 277.76V279.416C887.044 279.272 886.564 279.16 886.044 279.08C885.524 279 885.036 278.96 884.58 278.96C883.908 278.96 883.356 279.084 882.924 279.332C882.492 279.58 882.276 280 882.276 280.592C882.276 281.024 882.452 281.396 882.804 281.708C883.156 282.02 883.716 282.176 884.484 282.176C885.068 282.176 885.564 282.048 885.972 281.792C886.38 281.536 886.688 281.216 886.896 280.832C887.112 280.448 887.22 280.064 887.22 279.68H887.892C887.892 280.52 887.736 281.296 887.424 282.008C887.112 282.712 886.648 283.276 886.032 283.7C885.424 284.124 884.668 284.336 883.764 284.336ZM899.745 284V270.944C899.745 270.104 899.909 269.42 900.237 268.892C900.565 268.364 900.997 267.976 901.533 267.728C902.077 267.472 902.665 267.344 903.297 267.344C903.689 267.344 904.093 267.372 904.509 267.428C904.925 267.484 905.329 267.552 905.721 267.632L905.169 269.816C904.969 269.744 904.761 269.688 904.545 269.648C904.329 269.6 904.121 269.576 903.921 269.576C903.697 269.576 903.485 269.62 903.285 269.708C903.085 269.788 902.921 269.932 902.793 270.14C902.665 270.348 902.601 270.632 902.601 270.992V284H899.745ZM898.017 274.232V272.36H904.737V274.232H898.017ZM911.87 284.336C910.806 284.336 909.842 284.108 908.978 283.652C908.122 283.196 907.442 282.516 906.938 281.612C906.434 280.7 906.182 279.56 906.182 278.192C906.182 276.8 906.434 275.648 906.938 274.736C907.442 273.824 908.122 273.144 908.978 272.696C909.842 272.248 910.806 272.024 911.87 272.024C912.918 272.024 913.866 272.248 914.714 272.696C915.57 273.144 916.25 273.824 916.754 274.736C917.258 275.648 917.51 276.8 917.51 278.192C917.51 279.56 917.258 280.7 916.754 281.612C916.25 282.516 915.57 283.196 914.714 283.652C913.866 284.108 912.918 284.336 911.87 284.336ZM911.774 281.864C912.334 281.864 912.83 281.728 913.262 281.456C913.702 281.176 914.046 280.764 914.294 280.22C914.55 279.676 914.678 279 914.678 278.192C914.678 276.96 914.434 276.032 913.946 275.408C913.466 274.784 912.806 274.472 911.966 274.472C911.398 274.472 910.894 274.612 910.454 274.892C910.014 275.164 909.666 275.576 909.41 276.128C909.162 276.68 909.038 277.368 909.038 278.192C909.038 279.408 909.282 280.324 909.77 280.94C910.266 281.556 910.934 281.864 911.774 281.864ZM920.28 284V272.312H923.112V284H920.28ZM922.416 278.888C922.416 277.36 922.588 276.096 922.932 275.096C923.276 274.096 923.736 273.356 924.312 272.876C924.896 272.388 925.544 272.144 926.256 272.144C926.448 272.144 926.628 272.156 926.796 272.18C926.972 272.204 927.144 272.24 927.312 272.288L927.264 275.12C927.056 275.072 926.832 275.032 926.592 275C926.352 274.968 926.136 274.952 925.944 274.952C925.32 274.952 924.796 275.104 924.372 275.408C923.956 275.704 923.64 276.144 923.424 276.728C923.216 277.312 923.112 278.032 923.112 278.888H922.416ZM938.988 284.336C938.012 284.336 937.104 284.084 936.264 283.58C935.432 283.068 934.756 282.352 934.236 281.432C933.724 280.504 933.468 279.416 933.468 278.168C933.468 276.848 933.724 275.732 934.236 274.82C934.756 273.9 935.432 273.204 936.264 272.732C937.104 272.26 938.012 272.024 938.988 272.024C939.748 272.024 940.416 272.148 940.992 272.396C941.576 272.636 942.072 272.964 942.48 273.38C942.888 273.788 943.208 274.244 943.44 274.748C943.672 275.252 943.82 275.76 943.884 276.272L941.028 276.344C940.9 275.832 940.66 275.408 940.308 275.072C939.964 274.736 939.516 274.568 938.964 274.568C938.508 274.568 938.08 274.696 937.68 274.952C937.28 275.2 936.952 275.588 936.696 276.116C936.448 276.644 936.324 277.328 936.324 278.168C936.324 278.968 936.44 279.636 936.672 280.172C936.912 280.7 937.232 281.1 937.632 281.372C938.032 281.636 938.476 281.768 938.964 281.768C939.684 281.768 940.208 281.596 940.536 281.252C940.864 280.9 941.028 280.432 941.028 279.848H943.884C943.884 280.672 943.696 281.424 943.32 282.104C942.944 282.784 942.392 283.328 941.664 283.736C940.936 284.136 940.044 284.336 938.988 284.336ZM944.899 272.36H948.115L951.211 281.528H950.707L953.371 272.36H956.251L951.787 286.112C951.331 287.488 950.767 288.484 950.095 289.1C949.431 289.716 948.619 290.024 947.659 290.024C947.107 290.024 946.567 289.96 946.039 289.832C945.519 289.712 944.987 289.52 944.443 289.256V286.76C944.883 287.032 945.307 287.232 945.715 287.36C946.131 287.488 946.547 287.552 946.963 287.552C947.339 287.552 947.667 287.448 947.947 287.24C948.235 287.04 948.483 286.756 948.691 286.388C948.899 286.028 949.075 285.608 949.219 285.128L949.579 284L944.899 272.36ZM962.585 284.336C961.609 284.336 960.701 284.084 959.861 283.58C959.029 283.068 958.353 282.352 957.833 281.432C957.321 280.504 957.065 279.416 957.065 278.168C957.065 276.848 957.321 275.732 957.833 274.82C958.353 273.9 959.029 273.204 959.861 272.732C960.701 272.26 961.609 272.024 962.585 272.024C963.345 272.024 964.013 272.148 964.589 272.396C965.173 272.636 965.669 272.964 966.077 273.38C966.485 273.788 966.805 274.244 967.037 274.748C967.269 275.252 967.417 275.76 967.481 276.272L964.625 276.344C964.497 275.832 964.257 275.408 963.905 275.072C963.561 274.736 963.113 274.568 962.561 274.568C962.105 274.568 961.677 274.696 961.277 274.952C960.877 275.2 960.549 275.588 960.293 276.116C960.045 276.644 959.921 277.328 959.921 278.168C959.921 278.968 960.037 279.636 960.269 280.172C960.509 280.7 960.829 281.1 961.229 281.372C961.629 281.636 962.073 281.768 962.561 281.768C963.281 281.768 963.805 281.596 964.133 281.252C964.461 280.9 964.625 280.432 964.625 279.848H967.481C967.481 280.672 967.293 281.424 966.917 282.104C966.541 282.784 965.989 283.328 965.261 283.736C964.533 284.136 963.641 284.336 962.585 284.336ZM970.272 284V267.536H973.104V284H970.272ZM978.64 270.224C978.088 270.224 977.656 270.08 977.344 269.792C977.04 269.496 976.888 269.088 976.888 268.568C976.888 268.064 977.04 267.664 977.344 267.368C977.656 267.064 978.088 266.912 978.64 266.912C979.184 266.912 979.612 267.064 979.924 267.368C980.236 267.664 980.392 268.064 980.392 268.568C980.392 269.088 980.236 269.496 979.924 269.792C979.612 270.08 979.184 270.224 978.64 270.224ZM977.224 284V272.312H980.056V284H977.224ZM988.603 284.336C987.483 284.336 986.519 284.184 985.711 283.88C984.911 283.568 984.295 283.124 983.863 282.548C983.431 281.964 983.211 281.264 983.203 280.448H985.819C985.843 281.024 986.071 281.444 986.503 281.708C986.935 281.972 987.523 282.104 988.267 282.104C988.675 282.104 989.035 282.044 989.347 281.924C989.667 281.804 989.915 281.64 990.091 281.432C990.267 281.224 990.355 280.992 990.355 280.736C990.355 280.408 990.235 280.152 989.995 279.968C989.763 279.776 989.387 279.6 988.867 279.44L986.323 278.528C985.411 278.2 984.711 277.768 984.223 277.232C983.735 276.696 983.491 276.056 983.491 275.312C983.491 274.328 983.935 273.536 984.823 272.936C985.719 272.328 986.915 272.024 988.411 272.024C989.899 272.024 991.047 272.352 991.855 273.008C992.671 273.656 993.091 274.48 993.115 275.48H990.451C990.411 275.096 990.227 274.792 989.899 274.568C989.571 274.344 989.075 274.232 988.411 274.232C987.811 274.232 987.339 274.356 986.995 274.604C986.659 274.844 986.491 275.128 986.491 275.456C986.491 276.008 986.963 276.424 987.907 276.704L990.667 277.736C991.563 278.04 992.259 278.432 992.755 278.912C993.251 279.392 993.499 280 993.499 280.736C993.499 281.352 993.291 281.936 992.875 282.488C992.467 283.032 991.895 283.476 991.159 283.82C990.423 284.164 989.571 284.336 988.603 284.336ZM1000.25 284.336C999.564 284.336 998.932 284.208 998.356 283.952C997.788 283.696 997.332 283.304 996.988 282.776C996.652 282.248 996.484 281.576 996.484 280.76V269.264H999.316V280.664C999.316 281.624 999.772 282.104 1000.68 282.104C1000.96 282.104 1001.24 282.072 1001.52 282.008C1001.8 281.944 1002.12 281.848 1002.48 281.72L1002.89 283.712C1002.44 283.888 1002.01 284.036 1001.58 284.156C1001.16 284.276 1000.72 284.336 1000.25 284.336ZM994.852 274.232V272.36H1002.48V274.232H994.852ZM1009.53 284.336C1008.41 284.336 1007.44 284.184 1006.64 283.88C1005.84 283.568 1005.22 283.124 1004.79 282.548C1004.36 281.964 1004.14 281.264 1004.13 280.448H1006.74C1006.77 281.024 1007 281.444 1007.43 281.708C1007.86 281.972 1008.45 282.104 1009.19 282.104C1009.6 282.104 1009.96 282.044 1010.27 281.924C1010.59 281.804 1010.84 281.64 1011.02 281.432C1011.19 281.224 1011.28 280.992 1011.28 280.736C1011.28 280.408 1011.16 280.152 1010.92 279.968C1010.69 279.776 1010.31 279.6 1009.79 279.44L1007.25 278.528C1006.34 278.2 1005.64 277.768 1005.15 277.232C1004.66 276.696 1004.42 276.056 1004.42 275.312C1004.42 274.328 1004.86 273.536 1005.75 272.936C1006.64 272.328 1007.84 272.024 1009.34 272.024C1010.82 272.024 1011.97 272.352 1012.78 273.008C1013.6 273.656 1014.02 274.48 1014.04 275.48H1011.38C1011.34 275.096 1011.15 274.792 1010.82 274.568C1010.5 274.344 1010 274.232 1009.34 274.232C1008.74 274.232 1008.26 274.356 1007.92 274.604C1007.58 274.844 1007.42 275.128 1007.42 275.456C1007.42 276.008 1007.89 276.424 1008.83 276.704L1011.59 277.736C1012.49 278.04 1013.18 278.432 1013.68 278.912C1014.18 279.392 1014.42 280 1014.42 280.736C1014.42 281.352 1014.22 281.936 1013.8 282.488C1013.39 283.032 1012.82 283.476 1012.08 283.82C1011.35 284.164 1010.5 284.336 1009.53 284.336ZM1019.21 279.344V278.384C1019.21 277.688 1019.29 277.116 1019.45 276.668C1019.62 276.22 1019.87 275.844 1020.22 275.54C1020.57 275.228 1021.03 274.928 1021.61 274.64C1022.11 274.384 1022.5 274.148 1022.78 273.932C1023.06 273.708 1023.26 273.48 1023.36 273.248C1023.47 273.016 1023.53 272.744 1023.53 272.432C1023.53 271.928 1023.32 271.512 1022.92 271.184C1022.51 270.848 1021.95 270.68 1021.25 270.68C1020.41 270.68 1019.76 270.868 1019.3 271.244C1018.86 271.612 1018.6 272.104 1018.54 272.72H1015.58C1015.67 271.328 1016.18 270.212 1017.12 269.372C1018.06 268.532 1019.4 268.112 1021.13 268.112C1022.26 268.112 1023.24 268.304 1024.07 268.688C1024.89 269.072 1025.53 269.592 1025.98 270.248C1026.42 270.904 1026.65 271.64 1026.65 272.456C1026.65 273.288 1026.44 273.992 1026.01 274.568C1025.6 275.144 1024.94 275.656 1024.06 276.104C1023.54 276.368 1023.13 276.616 1022.83 276.848C1022.54 277.08 1022.34 277.336 1022.22 277.616C1022.1 277.888 1022.04 278.232 1022.04 278.648V279.344H1019.21ZM1020.7 284.336C1020.11 284.336 1019.64 284.156 1019.27 283.796C1018.91 283.436 1018.73 282.996 1018.73 282.476C1018.73 281.932 1018.91 281.48 1019.27 281.12C1019.64 280.752 1020.11 280.568 1020.68 280.568C1021.27 280.568 1021.75 280.752 1022.14 281.12C1022.52 281.48 1022.71 281.928 1022.71 282.464C1022.71 282.992 1022.52 283.436 1022.14 283.796C1021.75 284.156 1021.27 284.336 1020.7 284.336Z" fill="#666666"/>
</svg>
