<svg width="1500" height="292" viewBox="0 0 1500 292" fill="none" xmlns="http://www.w3.org/2000/svg">
<rect width="1500" height="292" fill="#E5E5E5"/>
<rect width="1500" height="292" fill="white"/>
<path d="M645.998 39.4397C644.208 39.4397 642.648 39.0157 641.318 38.1676C639.999 37.3091 638.973 36.0841 638.24 34.4927C637.507 32.9012 637.141 30.9904 637.141 28.7603C637.141 26.4569 637.518 24.5252 638.271 22.9652C639.036 21.3947 640.083 20.2116 641.412 19.4159C642.753 18.6097 644.281 18.2066 645.998 18.2066C648.375 18.2066 650.228 18.7824 651.558 19.9341C652.898 21.0858 653.757 22.583 654.134 24.4258L650.176 25.1482C649.851 24.0802 649.333 23.2165 648.621 22.5569C647.909 21.8973 647.035 21.5674 645.998 21.5674C645.087 21.5674 644.266 21.8344 643.533 22.3684C642.8 22.8919 642.213 23.6876 641.774 24.7556C641.344 25.8235 641.13 27.1584 641.13 28.7603C641.13 30.268 641.318 31.5663 641.695 32.6552C642.083 33.7441 642.637 34.5817 643.36 35.168C644.082 35.7543 644.962 36.0475 645.998 36.0475C647.328 36.0475 648.354 35.6967 649.077 34.9952C649.809 34.2833 650.176 33.3776 650.176 32.2783H654.134C654.134 33.7964 653.804 35.0895 653.144 36.1574C652.495 37.2149 651.563 38.0263 650.349 38.5917C649.134 39.1571 647.684 39.4397 645.998 39.4397ZM665.403 18.6149H669.109V27.127H677.998V18.6149H681.705V39H677.998V30.3622H669.109V39H665.403V18.6149ZM692.23 39L699.171 18.6149H703.82L710.479 39H706.584L705.171 34.6026H697.601L696.156 39H692.23ZM698.543 31.8071H704.291L701.433 23.0437L698.543 31.8071ZM724.738 18.6149V35.7648H733.125V39H721.032V18.6149H724.738ZM747.169 18.6149V35.7648H755.556V39H743.463V18.6149H747.169ZM765.863 39V18.6149H778.961V21.8187H769.569V27.1898H778.395V30.3937H769.569V35.7648H778.961V39H765.863ZM791.177 18.6149H795.228L804.494 33.1577H804.212V18.6149H807.918V39H804.149L794.286 23.5777H794.883V39H791.177V18.6149ZM828.108 39.4397C826.444 39.4397 824.941 39 823.601 38.1205C822.261 37.241 821.193 36.016 820.397 34.4455C819.612 32.8646 819.219 31.0219 819.219 28.9174C819.219 27.2527 819.46 25.7607 819.942 24.4415C820.434 23.1222 821.114 21.9967 821.983 21.0649C822.852 20.1331 823.873 19.4263 825.046 18.9447C826.219 18.4526 827.491 18.2066 828.862 18.2066C830.768 18.2066 832.364 18.6201 833.652 19.4473C834.951 20.2744 835.961 21.5779 836.683 23.3578L832.883 24.2373C832.349 23.3683 831.731 22.7087 831.029 22.2585C830.338 21.7978 829.553 21.5674 828.674 21.5674C827.669 21.5674 826.752 21.8658 825.925 22.4626C825.098 23.049 824.439 23.8918 823.947 24.9911C823.454 26.0905 823.208 27.3992 823.208 28.9174C823.208 30.3413 823.423 31.5872 823.852 32.6552C824.292 33.7231 824.905 34.5555 825.69 35.1523C826.475 35.7491 827.386 36.0475 828.422 36.0475C829.302 36.0475 830.087 35.8538 830.778 35.4664C831.48 35.0685 832.029 34.5031 832.427 33.7702C832.836 33.0373 833.04 32.1526 833.04 31.1161H833.856C833.856 32.8122 833.652 34.2833 833.244 35.5292C832.846 36.7751 832.223 37.7384 831.375 38.4189C830.527 39.0995 829.438 39.4397 828.108 39.4397ZM833.574 39L833.04 34.5084V30.9904L828.454 30.8962V28.5405H836.589V39H833.574ZM848.8 39V18.6149H861.898V21.8187H852.506V27.1898H861.333V30.3937H852.506V35.7648H861.898V39H848.8Z" fill="#383838"/>
<path d="M540.833 107.636H542.677V112.964H548.48V107.636H550.315V120H548.48V114.565H542.677V120H540.833V107.636ZM557.148 120.252C556.301 120.252 555.541 120.068 554.868 119.699C554.201 119.33 553.674 118.78 553.286 118.049C552.898 117.318 552.704 116.416 552.704 115.342C552.704 114.248 552.898 113.339 553.286 112.614C553.674 111.883 554.201 111.333 554.868 110.965C555.541 110.596 556.301 110.411 557.148 110.411C557.983 110.411 558.734 110.596 559.4 110.965C560.066 111.333 560.59 111.883 560.972 112.614C561.36 113.339 561.554 114.248 561.554 115.342C561.554 116.416 561.36 117.318 560.972 118.049C560.59 118.78 560.066 119.33 559.4 119.699C558.734 120.068 557.983 120.252 557.148 120.252ZM557.09 118.641C557.627 118.641 558.09 118.512 558.478 118.253C558.873 117.994 559.174 117.619 559.381 117.127C559.594 116.629 559.701 116.034 559.701 115.342C559.701 114.281 559.484 113.459 559.051 112.877C558.624 112.294 558.006 112.003 557.197 112.003C556.653 112.003 556.184 112.136 555.79 112.401C555.402 112.66 555.101 113.038 554.887 113.536C554.68 114.028 554.577 114.63 554.577 115.342C554.577 116.383 554.793 117.195 555.227 117.778C555.66 118.353 556.281 118.641 557.09 118.641ZM562.325 110.664H564.246L566.469 118.156H566.265L568.41 111.139H570.011L572.146 118.175H571.952L574.175 110.664H576.019L572.952 120H571.147L569.031 113.401H569.312L567.226 120H565.421L562.325 110.664ZM585.412 120.252C584.648 120.252 583.936 120.049 583.276 119.641C582.616 119.233 582.086 118.661 581.685 117.923C581.284 117.186 581.083 116.319 581.083 115.322C581.083 114.274 581.284 113.388 581.685 112.663C582.086 111.932 582.616 111.375 583.276 110.994C583.936 110.606 584.648 110.411 585.412 110.411C585.974 110.411 586.476 110.502 586.916 110.683C587.356 110.858 587.734 111.097 588.051 111.401C588.368 111.699 588.624 112.035 588.818 112.411C589.019 112.786 589.158 113.174 589.235 113.575L587.362 113.672C587.226 113.187 586.987 112.799 586.644 112.508C586.308 112.21 585.89 112.061 585.392 112.061C584.972 112.061 584.574 112.181 584.198 112.42C583.83 112.653 583.529 113.012 583.296 113.498C583.069 113.976 582.956 114.585 582.956 115.322C582.956 116.008 583.063 116.594 583.276 117.079C583.49 117.564 583.781 117.936 584.15 118.195C584.519 118.454 584.933 118.583 585.392 118.583C586.052 118.583 586.544 118.425 586.867 118.108C587.197 117.784 587.362 117.341 587.362 116.778H589.235C589.235 117.431 589.083 118.02 588.779 118.544C588.475 119.068 588.035 119.486 587.459 119.796C586.89 120.1 586.207 120.252 585.412 120.252ZM597.504 120L597.271 117.855V113.963C597.271 113.2 597.112 112.647 596.795 112.304C596.478 111.955 595.977 111.78 595.291 111.78C594.903 111.78 594.557 111.838 594.252 111.955C593.955 112.065 593.719 112.233 593.544 112.459C593.376 112.686 593.292 112.97 593.292 113.313H591.254C591.254 112.627 591.422 112.071 591.758 111.644C592.095 111.217 592.564 110.906 593.165 110.712C593.774 110.512 594.482 110.411 595.291 110.411C596.048 110.411 596.714 110.538 597.29 110.79C597.866 111.036 598.312 111.424 598.629 111.955C598.953 112.485 599.115 113.171 599.115 114.012V120H597.504ZM594.379 120.252C593.596 120.252 592.946 120.116 592.428 119.845C591.91 119.567 591.522 119.204 591.263 118.758C591.011 118.311 590.885 117.836 590.885 117.331C590.885 116.716 591.04 116.212 591.351 115.817C591.668 115.416 592.104 115.118 592.661 114.924C593.217 114.73 593.858 114.633 594.582 114.633C595.081 114.633 595.566 114.678 596.038 114.769C596.51 114.86 596.976 114.979 597.436 115.128V116.244C597.06 116.108 596.643 116.002 596.184 115.924C595.731 115.84 595.307 115.798 594.912 115.798C594.324 115.798 593.832 115.914 593.437 116.147C593.043 116.38 592.845 116.775 592.845 117.331C592.845 117.739 593.001 118.091 593.311 118.389C593.622 118.68 594.113 118.826 594.786 118.826C595.278 118.826 595.711 118.716 596.087 118.496C596.462 118.269 596.753 117.988 596.96 117.651C597.167 117.315 597.271 116.979 597.271 116.642H597.717C597.717 117.289 597.585 117.888 597.319 118.437C597.06 118.981 596.682 119.421 596.184 119.757C595.686 120.087 595.084 120.252 594.379 120.252ZM608.682 120V114.526C608.682 113.718 608.488 113.106 608.1 112.692C607.718 112.272 607.201 112.061 606.547 112.061C606.03 112.061 605.577 112.204 605.189 112.488C604.807 112.767 604.509 113.177 604.296 113.721C604.089 114.258 603.985 114.915 603.985 115.691H603.325C603.325 114.546 603.471 113.582 603.762 112.799C604.06 112.016 604.483 111.424 605.033 111.023C605.583 110.615 606.243 110.411 607.013 110.411C607.764 110.411 608.398 110.58 608.915 110.916C609.439 111.253 609.837 111.731 610.109 112.352C610.381 112.967 610.517 113.692 610.517 114.526V120H608.682ZM602.141 120V110.664H603.743L603.985 112.682V120H602.141ZM617.794 120V107.636H619.638V120H617.794ZM630.579 120.252C629.816 120.252 629.114 120.049 628.473 119.641C627.833 119.227 627.322 118.651 626.94 117.913C626.565 117.169 626.377 116.296 626.377 115.293C626.377 114.297 626.561 113.433 626.93 112.702C627.306 111.971 627.8 111.408 628.415 111.013C629.03 110.612 629.712 110.411 630.463 110.411C631.149 110.411 631.747 110.58 632.258 110.916C632.769 111.246 633.164 111.728 633.442 112.362C633.727 112.996 633.869 113.769 633.869 114.682H633.229C633.229 114.119 633.116 113.643 632.889 113.255C632.663 112.86 632.368 112.563 632.006 112.362C631.644 112.162 631.255 112.061 630.841 112.061C630.356 112.061 629.916 112.194 629.521 112.459C629.133 112.718 628.823 113.09 628.59 113.575C628.363 114.054 628.25 114.627 628.25 115.293C628.25 115.966 628.363 116.551 628.59 117.05C628.823 117.541 629.133 117.92 629.521 118.185C629.916 118.45 630.353 118.583 630.832 118.583C631.226 118.583 631.605 118.48 631.967 118.273C632.336 118.059 632.637 117.755 632.87 117.36C633.109 116.966 633.229 116.496 633.229 115.953H633.869C633.869 116.885 633.721 117.671 633.423 118.311C633.132 118.952 632.737 119.437 632.239 119.767C631.741 120.091 631.188 120.252 630.579 120.252ZM633.549 120L633.229 117.758V106.733H635.082V120H633.549ZM641.732 120.252C640.929 120.252 640.205 120.045 639.558 119.631C638.911 119.217 638.396 118.641 638.015 117.904C637.639 117.166 637.452 116.312 637.452 115.342C637.452 114.313 637.639 113.433 638.015 112.702C638.39 111.964 638.901 111.398 639.548 111.003C640.195 110.609 640.923 110.411 641.732 110.411C642.456 110.411 643.077 110.56 643.595 110.858C644.113 111.149 644.53 111.544 644.847 112.042C645.164 112.534 645.381 113.093 645.497 113.721C645.62 114.348 645.643 114.995 645.565 115.662H638.927V114.594H644.303L643.857 114.885C643.876 114.536 643.857 114.187 643.799 113.837C643.747 113.488 643.643 113.168 643.488 112.877C643.333 112.579 643.113 112.343 642.828 112.168C642.55 111.987 642.194 111.896 641.761 111.896C641.217 111.896 640.761 112.032 640.392 112.304C640.03 112.576 639.755 112.941 639.567 113.401C639.38 113.853 639.286 114.352 639.286 114.895V115.642C639.286 116.244 639.377 116.778 639.558 117.244C639.739 117.71 640.007 118.078 640.363 118.35C640.726 118.615 641.182 118.748 641.732 118.748C642.269 118.748 642.712 118.622 643.061 118.37C643.417 118.117 643.637 117.739 643.721 117.234H645.604C645.507 117.842 645.284 118.373 644.934 118.826C644.585 119.279 644.135 119.631 643.585 119.884C643.042 120.129 642.424 120.252 641.732 120.252ZM651.417 120.252C650.512 120.252 649.748 120.126 649.127 119.874C648.506 119.615 648.03 119.259 647.7 118.806C647.377 118.347 647.209 117.81 647.196 117.195H648.933C648.959 117.732 649.172 118.13 649.573 118.389C649.981 118.648 650.531 118.777 651.223 118.777C651.592 118.777 651.925 118.719 652.223 118.602C652.527 118.486 652.766 118.328 652.941 118.127C653.122 117.926 653.213 117.7 653.213 117.448C653.213 117.131 653.096 116.881 652.863 116.7C652.63 116.513 652.255 116.348 651.738 116.205L649.826 115.555C649.062 115.296 648.477 114.953 648.069 114.526C647.661 114.093 647.458 113.575 647.458 112.974C647.458 112.204 647.801 111.586 648.486 111.12C649.172 110.648 650.081 110.411 651.214 110.411C652.385 110.411 653.287 110.661 653.921 111.159C654.562 111.65 654.895 112.268 654.921 113.012H653.145C653.1 112.644 652.915 112.362 652.592 112.168C652.275 111.967 651.815 111.867 651.214 111.867C650.651 111.867 650.207 111.99 649.884 112.236C649.567 112.482 649.408 112.76 649.408 113.071C649.408 113.627 649.887 114.041 650.845 114.313L652.854 115.021C653.617 115.267 654.206 115.584 654.62 115.972C655.034 116.361 655.241 116.852 655.241 117.448C655.241 117.926 655.083 118.379 654.766 118.806C654.449 119.233 654.002 119.583 653.426 119.854C652.857 120.12 652.187 120.252 651.417 120.252ZM658.8 108.674C658.431 108.674 658.14 108.574 657.927 108.373C657.72 108.166 657.616 107.888 657.616 107.539C657.616 107.202 657.72 106.937 657.927 106.743C658.14 106.542 658.431 106.442 658.8 106.442C659.163 106.442 659.447 106.542 659.654 106.743C659.868 106.937 659.975 107.202 659.975 107.539C659.975 107.888 659.868 108.166 659.654 108.373C659.447 108.574 659.163 108.674 658.8 108.674ZM657.878 120V110.635H659.722V120H657.878ZM666.711 124.814C665.701 124.814 664.831 124.675 664.1 124.396C663.375 124.118 662.816 123.746 662.421 123.28C662.026 122.814 661.829 122.307 661.829 121.757C661.829 121.058 662.085 120.521 662.596 120.146C663.107 119.777 663.757 119.592 664.547 119.592L665.74 120.155C665.067 120.155 664.547 120.291 664.178 120.563C663.815 120.835 663.634 121.203 663.634 121.669C663.634 122.155 663.9 122.552 664.43 122.863C664.961 123.18 665.721 123.339 666.711 123.339C667.429 123.339 668.06 123.232 668.603 123.018C669.147 122.811 669.567 122.536 669.865 122.193C670.162 121.857 670.311 121.495 670.311 121.106C670.311 120.841 670.214 120.615 670.02 120.427C669.833 120.246 669.545 120.155 669.156 120.155H665.74C665.106 120.155 664.547 120.058 664.061 119.864C663.582 119.664 663.207 119.402 662.935 119.078C662.664 118.755 662.528 118.395 662.528 118.001C662.528 117.613 662.638 117.279 662.858 117.001C663.078 116.716 663.369 116.503 663.731 116.361C664.094 116.212 664.492 116.137 664.925 116.137L665.342 116.778C665.155 116.778 664.967 116.82 664.779 116.904C664.592 116.982 664.437 117.101 664.314 117.263C664.191 117.425 664.129 117.626 664.129 117.865C664.129 118.143 664.246 118.376 664.479 118.564C664.718 118.745 665.139 118.835 665.74 118.835H669.156C670.088 118.835 670.819 119.02 671.35 119.389C671.88 119.757 672.146 120.294 672.146 121C672.146 121.64 671.926 122.252 671.486 122.834C671.046 123.416 670.418 123.892 669.603 124.26C668.794 124.629 667.83 124.814 666.711 124.814ZM666.915 117.195C666.19 117.195 665.53 117.056 664.935 116.778C664.346 116.493 663.877 116.099 663.527 115.594C663.178 115.083 663.003 114.488 663.003 113.808C663.003 113.122 663.178 112.527 663.527 112.022C663.877 111.511 664.346 111.117 664.935 110.838C665.53 110.554 666.19 110.411 666.915 110.411C667.62 110.411 668.264 110.554 668.846 110.838C669.435 111.117 669.904 111.511 670.253 112.022C670.609 112.527 670.787 113.122 670.787 113.808C670.787 114.488 670.609 115.083 670.253 115.594C669.904 116.099 669.435 116.493 668.846 116.778C668.264 117.056 667.62 117.195 666.915 117.195ZM666.915 115.895C667.581 115.895 668.089 115.697 668.438 115.303C668.794 114.902 668.972 114.403 668.972 113.808C668.972 113.187 668.794 112.686 668.438 112.304C668.089 111.922 667.581 111.731 666.915 111.731C666.261 111.731 665.75 111.922 665.381 112.304C665.019 112.686 664.838 113.187 664.838 113.808C664.838 114.403 665.019 114.902 665.381 115.303C665.75 115.697 666.261 115.895 666.915 115.895ZM670.088 111.906L669.224 111.489C669.224 110.932 669.341 110.447 669.574 110.033C669.807 109.619 670.13 109.295 670.544 109.062C670.958 108.83 671.434 108.713 671.971 108.713L671.854 110.509C671.279 110.509 670.839 110.622 670.535 110.848C670.237 111.075 670.088 111.427 670.088 111.906ZM680.439 120V114.526C680.439 113.718 680.245 113.106 679.856 112.692C679.475 112.272 678.957 112.061 678.304 112.061C677.786 112.061 677.333 112.204 676.945 112.488C676.563 112.767 676.266 113.177 676.052 113.721C675.845 114.258 675.742 114.915 675.742 115.691H675.082C675.082 114.546 675.227 113.582 675.518 112.799C675.816 112.016 676.24 111.424 676.79 111.023C677.34 110.615 678 110.411 678.77 110.411C679.52 110.411 680.154 110.58 680.672 110.916C681.196 111.253 681.594 111.731 681.865 112.352C682.137 112.967 682.273 113.692 682.273 114.526V120H680.439ZM673.898 120V110.664H675.499L675.742 112.682V120H673.898ZM695.403 120L695.17 117.855V113.963C695.17 113.2 695.011 112.647 694.694 112.304C694.377 111.955 693.876 111.78 693.19 111.78C692.802 111.78 692.456 111.838 692.152 111.955C691.854 112.065 691.618 112.233 691.443 112.459C691.275 112.686 691.191 112.97 691.191 113.313H689.153C689.153 112.627 689.321 112.071 689.657 111.644C689.994 111.217 690.463 110.906 691.065 110.712C691.673 110.512 692.381 110.411 693.19 110.411C693.947 110.411 694.613 110.538 695.189 110.79C695.765 111.036 696.212 111.424 696.529 111.955C696.852 112.485 697.014 113.171 697.014 114.012V120H695.403ZM692.278 120.252C691.495 120.252 690.845 120.116 690.327 119.845C689.81 119.567 689.421 119.204 689.163 118.758C688.91 118.311 688.784 117.836 688.784 117.331C688.784 116.716 688.939 116.212 689.25 115.817C689.567 115.416 690.004 115.118 690.56 114.924C691.116 114.73 691.757 114.633 692.482 114.633C692.98 114.633 693.465 114.678 693.937 114.769C694.41 114.86 694.876 114.979 695.335 115.128V116.244C694.96 116.108 694.542 116.002 694.083 115.924C693.63 115.84 693.206 115.798 692.812 115.798C692.223 115.798 691.731 115.914 691.336 116.147C690.942 116.38 690.744 116.775 690.744 117.331C690.744 117.739 690.9 118.091 691.21 118.389C691.521 118.68 692.013 118.826 692.685 118.826C693.177 118.826 693.611 118.716 693.986 118.496C694.361 118.269 694.652 117.988 694.859 117.651C695.066 117.315 695.17 116.979 695.17 116.642H695.616C695.616 117.289 695.484 117.888 695.218 118.437C694.96 118.981 694.581 119.421 694.083 119.757C693.585 120.087 692.983 120.252 692.278 120.252ZM706.582 120V114.526C706.582 113.718 706.388 113.106 705.999 112.692C705.618 112.272 705.1 112.061 704.447 112.061C703.929 112.061 703.476 112.204 703.088 112.488C702.706 112.767 702.408 113.177 702.195 113.721C701.988 114.258 701.884 114.915 701.884 115.691H701.224C701.224 114.546 701.37 113.582 701.661 112.799C701.959 112.016 702.383 111.424 702.933 111.023C703.482 110.615 704.142 110.411 704.912 110.411C705.663 110.411 706.297 110.58 706.815 110.916C707.339 111.253 707.737 111.731 708.008 112.352C708.28 112.967 708.416 113.692 708.416 114.526V120H706.582ZM700.04 120V110.664H701.642L701.884 112.682V120H700.04ZM721.546 120L721.313 117.855V113.963C721.313 113.2 721.154 112.647 720.837 112.304C720.52 111.955 720.019 111.78 719.333 111.78C718.945 111.78 718.599 111.838 718.294 111.955C717.997 112.065 717.761 112.233 717.586 112.459C717.418 112.686 717.334 112.97 717.334 113.313H715.296C715.296 112.627 715.464 112.071 715.8 111.644C716.137 111.217 716.606 110.906 717.208 110.712C717.816 110.512 718.524 110.411 719.333 110.411C720.09 110.411 720.756 110.538 721.332 110.79C721.908 111.036 722.354 111.424 722.671 111.955C722.995 112.485 723.157 113.171 723.157 114.012V120H721.546ZM718.421 120.252C717.638 120.252 716.988 120.116 716.47 119.845C715.952 119.567 715.564 119.204 715.305 118.758C715.053 118.311 714.927 117.836 714.927 117.331C714.927 116.716 715.082 116.212 715.393 115.817C715.71 115.416 716.146 115.118 716.703 114.924C717.259 114.73 717.9 114.633 718.624 114.633C719.123 114.633 719.608 114.678 720.08 114.769C720.553 114.86 721.018 114.979 721.478 115.128V116.244C721.102 116.108 720.685 116.002 720.226 115.924C719.773 115.84 719.349 115.798 718.954 115.798C718.366 115.798 717.874 115.914 717.479 116.147C717.085 116.38 716.887 116.775 716.887 117.331C716.887 117.739 717.043 118.091 717.353 118.389C717.664 118.68 718.155 118.826 718.828 118.826C719.32 118.826 719.753 118.716 720.129 118.496C720.504 118.269 720.795 117.988 721.002 117.651C721.209 117.315 721.313 116.979 721.313 116.642H721.759C721.759 117.289 721.627 117.888 721.361 118.437C721.102 118.981 720.724 119.421 720.226 119.757C719.728 120.087 719.126 120.252 718.421 120.252ZM730.609 120.252C729.929 120.252 729.341 120.1 728.842 119.796C728.344 119.486 727.963 119.033 727.697 118.437C727.438 117.836 727.309 117.092 727.309 116.205H728.027C728.027 116.716 728.137 117.15 728.357 117.506C728.577 117.855 728.865 118.124 729.221 118.311C729.583 118.492 729.968 118.583 730.376 118.583C730.803 118.583 731.217 118.463 731.618 118.224C732.026 117.978 732.359 117.613 732.618 117.127C732.877 116.642 733.006 116.04 733.006 115.322C733.006 114.636 732.889 114.051 732.657 113.566C732.43 113.08 732.12 112.708 731.725 112.45C731.33 112.191 730.887 112.061 730.395 112.061C729.981 112.061 729.593 112.162 729.231 112.362C728.868 112.556 728.577 112.844 728.357 113.226C728.137 113.601 728.027 114.061 728.027 114.604H727.309C727.309 113.666 727.458 112.886 727.756 112.265C728.06 111.644 728.467 111.181 728.978 110.877C729.489 110.567 730.056 110.411 730.677 110.411C731.408 110.411 732.094 110.609 732.734 111.003C733.375 111.392 733.892 111.951 734.287 112.682C734.688 113.414 734.889 114.293 734.889 115.322C734.889 116.351 734.688 117.234 734.287 117.972C733.886 118.709 733.359 119.275 732.705 119.67C732.058 120.058 731.359 120.252 730.609 120.252ZM726.183 124.581V110.664H727.707L728.027 112.906V124.581H726.183ZM741.686 120.252C741.007 120.252 740.418 120.1 739.92 119.796C739.422 119.486 739.04 119.033 738.775 118.437C738.516 117.836 738.386 117.092 738.386 116.205H739.105C739.105 116.716 739.215 117.15 739.435 117.506C739.655 117.855 739.942 118.124 740.298 118.311C740.661 118.492 741.046 118.583 741.453 118.583C741.88 118.583 742.294 118.463 742.695 118.224C743.103 117.978 743.436 117.613 743.695 117.127C743.954 116.642 744.083 116.04 744.083 115.322C744.083 114.636 743.967 114.051 743.734 113.566C743.507 113.08 743.197 112.708 742.802 112.45C742.408 112.191 741.964 112.061 741.473 112.061C741.059 112.061 740.67 112.162 740.308 112.362C739.946 112.556 739.655 112.844 739.435 113.226C739.215 113.601 739.105 114.061 739.105 114.604H738.386C738.386 113.666 738.535 112.886 738.833 112.265C739.137 111.644 739.545 111.181 740.056 110.877C740.567 110.567 741.133 110.411 741.754 110.411C742.485 110.411 743.171 110.609 743.812 111.003C744.452 111.392 744.97 111.951 745.364 112.682C745.765 113.414 745.966 114.293 745.966 115.322C745.966 116.351 745.765 117.234 745.364 117.972C744.963 118.709 744.436 119.275 743.782 119.67C743.135 120.058 742.437 120.252 741.686 120.252ZM737.261 124.581V110.664H738.784L739.105 112.906V124.581H737.261ZM755.59 120.252C755.06 120.252 754.581 120.152 754.154 119.951C753.727 119.751 753.387 119.45 753.135 119.049C752.889 118.641 752.766 118.13 752.766 117.516V108.121H754.6V117.457C754.6 118.337 755.011 118.777 755.833 118.777C756.085 118.777 756.331 118.751 756.571 118.7C756.81 118.641 757.082 118.557 757.386 118.447L757.648 119.757C757.305 119.9 756.965 120.016 756.629 120.107C756.299 120.204 755.953 120.252 755.59 120.252ZM751.34 111.916V110.664H757.366V111.916H751.34ZM766.097 120V114.526C766.097 113.718 765.903 113.106 765.514 112.692C765.133 112.272 764.615 112.061 763.962 112.061C763.444 112.061 762.991 112.204 762.603 112.488C762.221 112.767 761.924 113.177 761.71 113.721C761.503 114.258 761.4 114.915 761.4 115.691H760.74C760.74 114.546 760.885 113.582 761.176 112.799C761.474 112.016 761.898 111.424 762.448 111.023C762.998 110.615 763.658 110.411 764.428 110.411C765.178 110.411 765.812 110.58 766.33 110.916C766.854 111.253 767.252 111.731 767.523 112.352C767.795 112.967 767.931 113.692 767.931 114.526V120H766.097ZM759.556 120V106.733H761.4V120H759.556ZM776.807 120L776.574 117.855V113.963C776.574 113.2 776.416 112.647 776.099 112.304C775.782 111.955 775.28 111.78 774.595 111.78C774.206 111.78 773.86 111.838 773.556 111.955C773.258 112.065 773.022 112.233 772.848 112.459C772.679 112.686 772.595 112.97 772.595 113.313H770.557C770.557 112.627 770.725 112.071 771.062 111.644C771.398 111.217 771.867 110.906 772.469 110.712C773.077 110.512 773.786 110.411 774.595 110.411C775.352 110.411 776.018 110.538 776.594 110.79C777.17 111.036 777.616 111.424 777.933 111.955C778.257 112.485 778.418 113.171 778.418 114.012V120H776.807ZM773.682 120.252C772.899 120.252 772.249 120.116 771.732 119.845C771.214 119.567 770.826 119.204 770.567 118.758C770.315 118.311 770.188 117.836 770.188 117.331C770.188 116.716 770.344 116.212 770.654 115.817C770.971 115.416 771.408 115.118 771.964 114.924C772.521 114.73 773.161 114.633 773.886 114.633C774.384 114.633 774.87 114.678 775.342 114.769C775.814 114.86 776.28 114.979 776.739 115.128V116.244C776.364 116.108 775.947 116.002 775.487 115.924C775.035 115.84 774.611 115.798 774.216 115.798C773.627 115.798 773.136 115.914 772.741 116.147C772.346 116.38 772.149 116.775 772.149 117.331C772.149 117.739 772.304 118.091 772.615 118.389C772.925 118.68 773.417 118.826 774.09 118.826C774.582 118.826 775.015 118.716 775.39 118.496C775.766 118.269 776.057 117.988 776.264 117.651C776.471 117.315 776.574 116.979 776.574 116.642H777.021C777.021 117.289 776.888 117.888 776.623 118.437C776.364 118.981 775.986 119.421 775.487 119.757C774.989 120.087 774.388 120.252 773.682 120.252ZM784.444 120.252C783.913 120.252 783.434 120.152 783.007 119.951C782.58 119.751 782.241 119.45 781.988 119.049C781.743 118.641 781.62 118.13 781.62 117.516V108.121H783.454V117.457C783.454 118.337 783.865 118.777 784.686 118.777C784.939 118.777 785.185 118.751 785.424 118.7C785.663 118.641 785.935 118.557 786.239 118.447L786.501 119.757C786.158 119.9 785.819 120.016 785.482 120.107C785.152 120.204 784.806 120.252 784.444 120.252ZM780.193 111.916V110.664H786.22V111.916H780.193ZM797.156 120.252C796.548 120.252 795.995 120.091 795.496 119.767C795.005 119.437 794.61 118.952 794.312 118.311C794.021 117.671 793.876 116.885 793.876 115.953H794.507C794.507 116.496 794.623 116.966 794.856 117.36C795.095 117.755 795.399 118.059 795.768 118.273C796.137 118.48 796.522 118.583 796.923 118.583C797.402 118.583 797.832 118.45 798.214 118.185C798.602 117.92 798.909 117.541 799.136 117.05C799.369 116.551 799.485 115.966 799.485 115.293C799.485 114.627 799.372 114.054 799.145 113.575C798.919 113.09 798.612 112.718 798.224 112.459C797.835 112.194 797.395 112.061 796.904 112.061C796.49 112.061 796.098 112.162 795.729 112.362C795.367 112.563 795.073 112.86 794.846 113.255C794.62 113.643 794.507 114.119 794.507 114.682H793.876C793.876 113.769 794.018 112.996 794.303 112.362C794.587 111.728 794.982 111.246 795.487 110.916C795.998 110.58 796.596 110.411 797.282 110.411C798.026 110.411 798.706 110.612 799.32 111.013C799.941 111.408 800.436 111.971 800.805 112.702C801.18 113.433 801.368 114.297 801.368 115.293C801.368 116.296 801.177 117.169 800.795 117.913C800.414 118.651 799.902 119.227 799.262 119.641C798.628 120.049 797.926 120.252 797.156 120.252ZM792.663 120V106.733H794.507V117.758L793.915 120H792.663ZM807.202 120.252C806.4 120.252 805.675 120.045 805.028 119.631C804.381 119.217 803.867 118.641 803.485 117.904C803.11 117.166 802.922 116.312 802.922 115.342C802.922 114.313 803.11 113.433 803.485 112.702C803.86 111.964 804.371 111.398 805.018 111.003C805.665 110.609 806.393 110.411 807.202 110.411C807.926 110.411 808.548 110.56 809.065 110.858C809.583 111.149 810 111.544 810.317 112.042C810.634 112.534 810.851 113.093 810.967 113.721C811.09 114.348 811.113 114.995 811.035 115.662H804.397V114.594H809.774L809.327 114.885C809.347 114.536 809.327 114.187 809.269 113.837C809.217 113.488 809.114 113.168 808.958 112.877C808.803 112.579 808.583 112.343 808.298 112.168C808.02 111.987 807.664 111.896 807.231 111.896C806.687 111.896 806.231 112.032 805.863 112.304C805.5 112.576 805.225 112.941 805.038 113.401C804.85 113.853 804.756 114.352 804.756 114.895V115.642C804.756 116.244 804.847 116.778 805.028 117.244C805.209 117.71 805.478 118.078 805.833 118.35C806.196 118.615 806.652 118.748 807.202 118.748C807.739 118.748 808.182 118.622 808.531 118.37C808.887 118.117 809.107 117.739 809.191 117.234H811.074C810.977 117.842 810.754 118.373 810.404 118.826C810.055 119.279 809.605 119.631 809.055 119.884C808.512 120.129 807.894 120.252 807.202 120.252ZM816.888 120.252C815.982 120.252 815.218 120.126 814.597 119.874C813.976 119.615 813.501 119.259 813.171 118.806C812.847 118.347 812.679 117.81 812.666 117.195H814.403C814.429 117.732 814.642 118.13 815.044 118.389C815.451 118.648 816.001 118.777 816.693 118.777C817.062 118.777 817.395 118.719 817.693 118.602C817.997 118.486 818.237 118.328 818.411 118.127C818.592 117.926 818.683 117.7 818.683 117.448C818.683 117.131 818.567 116.881 818.334 116.7C818.101 116.513 817.725 116.348 817.208 116.205L815.296 115.555C814.532 115.296 813.947 114.953 813.539 114.526C813.132 114.093 812.928 113.575 812.928 112.974C812.928 112.204 813.271 111.586 813.957 111.12C814.642 110.648 815.551 110.411 816.684 110.411C817.855 110.411 818.757 110.661 819.391 111.159C820.032 111.65 820.365 112.268 820.391 113.012H818.615C818.57 112.644 818.385 112.362 818.062 112.168C817.745 111.967 817.285 111.867 816.684 111.867C816.121 111.867 815.678 111.99 815.354 112.236C815.037 112.482 814.879 112.76 814.879 113.071C814.879 113.627 815.357 114.041 816.315 114.313L818.324 115.021C819.087 115.267 819.676 115.584 820.09 115.972C820.504 116.361 820.711 116.852 820.711 117.448C820.711 117.926 820.553 118.379 820.236 118.806C819.919 119.233 819.472 119.583 818.896 119.854C818.327 120.12 817.657 120.252 816.888 120.252ZM826.202 120.252C825.671 120.252 825.192 120.152 824.765 119.951C824.338 119.751 823.999 119.45 823.746 119.049C823.501 118.641 823.378 118.13 823.378 117.516V108.121H825.212V117.457C825.212 118.337 825.623 118.777 826.444 118.777C826.697 118.777 826.943 118.751 827.182 118.7C827.421 118.641 827.693 118.557 827.997 118.447L828.259 119.757C827.916 119.9 827.577 120.016 827.24 120.107C826.91 120.204 826.564 120.252 826.202 120.252ZM821.951 111.916V110.664H827.978V111.916H821.951ZM837.934 120.252C837.086 120.252 836.326 120.068 835.653 119.699C834.987 119.33 834.459 118.78 834.071 118.049C833.683 117.318 833.489 116.416 833.489 115.342C833.489 114.248 833.683 113.339 834.071 112.614C834.459 111.883 834.987 111.333 835.653 110.965C836.326 110.596 837.086 110.411 837.934 110.411C838.768 110.411 839.519 110.596 840.185 110.965C840.852 111.333 841.376 111.883 841.758 112.614C842.146 113.339 842.34 114.248 842.34 115.342C842.34 116.416 842.146 117.318 841.758 118.049C841.376 118.78 840.852 119.33 840.185 119.699C839.519 120.068 838.768 120.252 837.934 120.252ZM837.876 118.641C838.413 118.641 838.875 118.512 839.263 118.253C839.658 117.994 839.959 117.619 840.166 117.127C840.379 116.629 840.486 116.034 840.486 115.342C840.486 114.281 840.269 113.459 839.836 112.877C839.409 112.294 838.791 112.003 837.982 112.003C837.439 112.003 836.97 112.136 836.575 112.401C836.187 112.66 835.886 113.038 835.672 113.536C835.465 114.028 835.362 114.63 835.362 115.342C835.362 116.383 835.579 117.195 836.012 117.778C836.446 118.353 837.067 118.641 837.876 118.641ZM849.127 120.252C848.448 120.252 847.859 120.1 847.361 119.796C846.863 119.486 846.481 119.033 846.216 118.437C845.957 117.836 845.828 117.092 845.828 116.205H846.546C846.546 116.716 846.656 117.15 846.876 117.506C847.096 117.855 847.384 118.124 847.739 118.311C848.102 118.492 848.487 118.583 848.894 118.583C849.321 118.583 849.735 118.463 850.137 118.224C850.544 117.978 850.877 117.613 851.136 117.127C851.395 116.642 851.524 116.04 851.524 115.322C851.524 114.636 851.408 114.051 851.175 113.566C850.949 113.08 850.638 112.708 850.243 112.45C849.849 112.191 849.405 112.061 848.914 112.061C848.5 112.061 848.111 112.162 847.749 112.362C847.387 112.556 847.096 112.844 846.876 113.226C846.656 113.601 846.546 114.061 846.546 114.604H845.828C845.828 113.666 845.976 112.886 846.274 112.265C846.578 111.644 846.986 111.181 847.497 110.877C848.008 110.567 848.574 110.411 849.195 110.411C849.926 110.411 850.612 110.609 851.253 111.003C851.893 111.392 852.411 111.951 852.805 112.682C853.207 113.414 853.407 114.293 853.407 115.322C853.407 116.351 853.207 117.234 852.805 117.972C852.404 118.709 851.877 119.275 851.224 119.67C850.577 120.058 849.878 120.252 849.127 120.252ZM844.702 124.581V110.664H846.225L846.546 112.906V124.581H844.702ZM858.778 120.252C858.247 120.252 857.769 120.152 857.342 119.951C856.915 119.751 856.575 119.45 856.323 119.049C856.077 118.641 855.954 118.13 855.954 117.516V108.121H857.788V117.457C857.788 118.337 858.199 118.777 859.021 118.777C859.273 118.777 859.519 118.751 859.758 118.7C859.998 118.641 860.269 118.557 860.573 118.447L860.835 119.757C860.493 119.9 860.153 120.016 859.816 120.107C859.486 120.204 859.14 120.252 858.778 120.252ZM854.527 111.916V110.664H860.554V111.916H854.527ZM863.811 108.674C863.442 108.674 863.151 108.574 862.937 108.373C862.73 108.166 862.627 107.888 862.627 107.539C862.627 107.202 862.73 106.937 862.937 106.743C863.151 106.542 863.442 106.442 863.811 106.442C864.173 106.442 864.458 106.542 864.665 106.743C864.878 106.937 864.985 107.202 864.985 107.539C864.985 107.888 864.878 108.166 864.665 108.373C864.458 108.574 864.173 108.674 863.811 108.674ZM862.889 120V110.635H864.733V120H862.889ZM881.222 120V114.526C881.222 113.718 881.028 113.106 880.64 112.692C880.258 112.272 879.744 112.061 879.097 112.061C878.321 112.061 877.719 112.365 877.292 112.974C876.871 113.582 876.661 114.455 876.661 115.594H875.856C875.856 114.695 875.943 113.918 876.118 113.265C876.292 112.611 876.541 112.074 876.865 111.654C877.195 111.233 877.586 110.923 878.039 110.722C878.499 110.515 879.01 110.411 879.573 110.411C880.323 110.411 880.957 110.58 881.475 110.916C881.999 111.253 882.397 111.731 882.669 112.352C882.94 112.967 883.076 113.692 883.076 114.526V120H881.222ZM868.286 120V110.664H869.887L870.091 112.42C870.388 111.767 870.796 111.269 871.314 110.926C871.838 110.583 872.452 110.411 873.158 110.411C873.908 110.411 874.542 110.58 875.06 110.916C875.584 111.253 875.982 111.731 876.254 112.352C876.525 112.967 876.661 113.692 876.661 114.526V120H874.827V114.526C874.827 113.718 874.633 113.106 874.245 112.692C873.863 112.272 873.345 112.061 872.692 112.061C872.174 112.061 871.721 112.204 871.333 112.488C870.951 112.767 870.654 113.177 870.44 113.721C870.233 114.258 870.13 114.915 870.13 115.691V120H868.286ZM887.141 108.674C886.772 108.674 886.481 108.574 886.267 108.373C886.06 108.166 885.957 107.888 885.957 107.539C885.957 107.202 886.06 106.937 886.267 106.743C886.481 106.542 886.772 106.442 887.141 106.442C887.503 106.442 887.788 106.542 887.995 106.743C888.208 106.937 888.315 107.202 888.315 107.539C888.315 107.888 888.208 108.166 887.995 108.373C887.788 108.574 887.503 108.674 887.141 108.674ZM886.219 120V110.635H888.063V120H886.219ZM890.781 120V118.505L896.012 112.149H890.781V110.664H898.069V112.149L892.955 118.505H898.069V120H890.781ZM903.861 120.252C903.059 120.252 902.334 120.045 901.687 119.631C901.04 119.217 900.526 118.641 900.144 117.904C899.769 117.166 899.581 116.312 899.581 115.342C899.581 114.313 899.769 113.433 900.144 112.702C900.52 111.964 901.031 111.398 901.678 111.003C902.325 110.609 903.053 110.411 903.861 110.411C904.586 110.411 905.207 110.56 905.725 110.858C906.242 111.149 906.66 111.544 906.977 112.042C907.294 112.534 907.51 113.093 907.627 113.721C907.75 114.348 907.772 114.995 907.695 115.662H901.057V114.594H906.433L905.987 114.885C906.006 114.536 905.987 114.187 905.929 113.837C905.877 113.488 905.773 113.168 905.618 112.877C905.463 112.579 905.243 112.343 904.958 112.168C904.68 111.987 904.324 111.896 903.89 111.896C903.347 111.896 902.891 112.032 902.522 112.304C902.16 112.576 901.885 112.941 901.697 113.401C901.51 113.853 901.416 114.352 901.416 114.895V115.642C901.416 116.244 901.506 116.778 901.687 117.244C901.869 117.71 902.137 118.078 902.493 118.35C902.855 118.615 903.311 118.748 903.861 118.748C904.398 118.748 904.842 118.622 905.191 118.37C905.547 118.117 905.767 117.739 905.851 117.234H907.734C907.637 117.842 907.413 118.373 907.064 118.826C906.715 119.279 906.265 119.631 905.715 119.884C905.172 120.129 904.554 120.252 903.861 120.252ZM913.547 120.252C912.641 120.252 911.878 120.126 911.257 119.874C910.636 119.615 910.16 119.259 909.83 118.806C909.507 118.347 909.338 117.81 909.325 117.195H911.063C911.088 117.732 911.302 118.13 911.703 118.389C912.111 118.648 912.661 118.777 913.353 118.777C913.722 118.777 914.055 118.719 914.353 118.602C914.657 118.486 914.896 118.328 915.071 118.127C915.252 117.926 915.343 117.7 915.343 117.448C915.343 117.131 915.226 116.881 914.993 116.7C914.76 116.513 914.385 116.348 913.867 116.205L911.955 115.555C911.192 115.296 910.606 114.953 910.199 114.526C909.791 114.093 909.587 113.575 909.587 112.974C909.587 112.204 909.93 111.586 910.616 111.12C911.302 110.648 912.211 110.411 913.343 110.411C914.514 110.411 915.417 110.661 916.051 111.159C916.692 111.65 917.025 112.268 917.051 113.012H915.275C915.229 112.644 915.045 112.362 914.721 112.168C914.404 111.967 913.945 111.867 913.343 111.867C912.78 111.867 912.337 111.99 912.014 112.236C911.697 112.482 911.538 112.76 911.538 113.071C911.538 113.627 912.017 114.041 912.975 114.313L914.983 115.021C915.747 115.267 916.336 115.584 916.75 115.972C917.164 116.361 917.371 116.852 917.371 117.448C917.371 117.926 917.212 118.379 916.895 118.806C916.578 119.233 916.132 119.583 915.556 119.854C914.987 120.12 914.317 120.252 913.547 120.252ZM928.609 120.252C928.001 120.252 927.448 120.091 926.95 119.767C926.458 119.437 926.063 118.952 925.766 118.311C925.475 117.671 925.329 116.885 925.329 115.953H925.96C925.96 116.496 926.076 116.966 926.309 117.36C926.549 117.755 926.853 118.059 927.222 118.273C927.59 118.48 927.975 118.583 928.376 118.583C928.855 118.583 929.286 118.45 929.667 118.185C930.055 117.92 930.363 117.541 930.589 117.05C930.822 116.551 930.939 115.966 930.939 115.293C930.939 114.627 930.825 114.054 930.599 113.575C930.372 113.09 930.065 112.718 929.677 112.459C929.289 112.194 928.849 112.061 928.357 112.061C927.943 112.061 927.552 112.162 927.183 112.362C926.82 112.563 926.526 112.86 926.3 113.255C926.073 113.643 925.96 114.119 925.96 114.682H925.329C925.329 113.769 925.471 112.996 925.756 112.362C926.041 111.728 926.435 111.246 926.94 110.916C927.451 110.58 928.05 110.411 928.736 110.411C929.48 110.411 930.159 110.612 930.774 111.013C931.395 111.408 931.89 111.971 932.258 112.702C932.634 113.433 932.821 114.297 932.821 115.293C932.821 116.296 932.631 117.169 932.249 117.913C931.867 118.651 931.356 119.227 930.715 119.641C930.081 120.049 929.379 120.252 928.609 120.252ZM924.116 120V106.733H925.96V117.758L925.368 120H924.116ZM938.82 120.252C937.973 120.252 937.213 120.068 936.54 119.699C935.873 119.33 935.346 118.78 934.958 118.049C934.57 117.318 934.375 116.416 934.375 115.342C934.375 114.248 934.57 113.339 934.958 112.614C935.346 111.883 935.873 111.333 936.54 110.965C937.213 110.596 937.973 110.411 938.82 110.411C939.655 110.411 940.405 110.596 941.072 110.965C941.738 111.333 942.262 111.883 942.644 112.614C943.032 113.339 943.226 114.248 943.226 115.342C943.226 116.416 943.032 117.318 942.644 118.049C942.262 118.78 941.738 119.33 941.072 119.699C940.405 120.068 939.655 120.252 938.82 120.252ZM938.762 118.641C939.299 118.641 939.762 118.512 940.15 118.253C940.545 117.994 940.845 117.619 941.052 117.127C941.266 116.629 941.373 116.034 941.373 115.342C941.373 114.281 941.156 113.459 940.722 112.877C940.295 112.294 939.678 112.003 938.869 112.003C938.325 112.003 937.856 112.136 937.462 112.401C937.073 112.66 936.773 113.038 936.559 113.536C936.352 114.028 936.248 114.63 936.248 115.342C936.248 116.383 936.465 117.195 936.899 117.778C937.332 118.353 937.953 118.641 938.762 118.641ZM948.587 120.252C948.057 120.252 947.578 120.152 947.151 119.951C946.724 119.751 946.384 119.45 946.132 119.049C945.886 118.641 945.763 118.13 945.763 117.516V108.121H947.597V117.457C947.597 118.337 948.008 118.777 948.83 118.777C949.082 118.777 949.328 118.751 949.567 118.7C949.807 118.641 950.079 118.557 950.383 118.447L950.645 119.757C950.302 119.9 949.962 120.016 949.626 120.107C949.296 120.204 948.95 120.252 948.587 120.252ZM944.336 111.916V110.664H950.363V111.916H944.336ZM959.094 120V114.526C959.094 113.718 958.899 113.106 958.511 112.692C958.13 112.272 957.612 112.061 956.958 112.061C956.441 112.061 955.988 112.204 955.6 112.488C955.218 112.767 954.92 113.177 954.707 113.721C954.5 114.258 954.396 114.915 954.396 115.691H953.736C953.736 114.546 953.882 113.582 954.173 112.799C954.471 112.016 954.895 111.424 955.444 111.023C955.994 110.615 956.654 110.411 957.424 110.411C958.175 110.411 958.809 110.58 959.326 110.916C959.851 111.253 960.248 111.731 960.52 112.352C960.792 112.967 960.928 113.692 960.928 114.526V120H959.094ZM952.552 120V106.733H954.396V120H952.552ZM539.335 152.252C538.726 152.252 538.173 152.091 537.675 151.767C537.183 151.437 536.789 150.952 536.491 150.311C536.2 149.671 536.054 148.885 536.054 147.953H536.685C536.685 148.496 536.802 148.966 537.035 149.36C537.274 149.755 537.578 150.059 537.947 150.273C538.316 150.48 538.701 150.583 539.102 150.583C539.581 150.583 540.011 150.45 540.393 150.185C540.781 149.92 541.088 149.541 541.314 149.05C541.547 148.551 541.664 147.966 541.664 147.293C541.664 146.627 541.551 146.054 541.324 145.575C541.098 145.09 540.79 144.718 540.402 144.459C540.014 144.194 539.574 144.061 539.082 144.061C538.668 144.061 538.277 144.162 537.908 144.362C537.546 144.563 537.251 144.86 537.025 145.255C536.798 145.643 536.685 146.119 536.685 146.682H536.054C536.054 145.769 536.197 144.996 536.481 144.362C536.766 143.728 537.161 143.246 537.665 142.916C538.177 142.58 538.775 142.411 539.461 142.411C540.205 142.411 540.884 142.612 541.499 143.013C542.12 143.408 542.615 143.971 542.984 144.702C543.359 145.433 543.547 146.297 543.547 147.293C543.547 148.296 543.356 149.169 542.974 149.913C542.592 150.651 542.081 151.227 541.441 151.641C540.807 152.049 540.105 152.252 539.335 152.252ZM534.841 152V138.733H536.685V149.758L536.093 152H534.841ZM547.1 140.674C546.731 140.674 546.44 140.574 546.226 140.373C546.019 140.166 545.916 139.888 545.916 139.539C545.916 139.202 546.019 138.937 546.226 138.743C546.44 138.542 546.731 138.442 547.1 138.442C547.462 138.442 547.747 138.542 547.954 138.743C548.167 138.937 548.274 139.202 548.274 139.539C548.274 139.888 548.167 140.166 547.954 140.373C547.747 140.574 547.462 140.674 547.1 140.674ZM546.178 152V142.635H548.022V152H546.178ZM551.575 152V138.733H553.419V152H551.575ZM553.157 146.458L557.592 142.664H560.125L553.157 148.39V146.458ZM558.097 152L553.768 146.08L555.573 145.701L560.348 152H558.097ZM565.602 152.252C564.8 152.252 564.075 152.045 563.428 151.631C562.781 151.217 562.267 150.641 561.885 149.904C561.51 149.166 561.322 148.312 561.322 147.342C561.322 146.313 561.51 145.433 561.885 144.702C562.261 143.964 562.772 143.398 563.419 143.003C564.066 142.609 564.794 142.411 565.602 142.411C566.327 142.411 566.948 142.56 567.466 142.858C567.983 143.149 568.401 143.544 568.718 144.042C569.035 144.534 569.251 145.093 569.368 145.721C569.491 146.348 569.513 146.995 569.436 147.662H562.798V146.594H568.174L567.728 146.885C567.747 146.536 567.728 146.187 567.669 145.837C567.618 145.488 567.514 145.168 567.359 144.877C567.204 144.579 566.984 144.343 566.699 144.168C566.421 143.987 566.065 143.896 565.631 143.896C565.088 143.896 564.632 144.032 564.263 144.304C563.901 144.576 563.626 144.941 563.438 145.401C563.25 145.853 563.157 146.352 563.157 146.895V147.642C563.157 148.244 563.247 148.778 563.428 149.244C563.61 149.71 563.878 150.078 564.234 150.35C564.596 150.615 565.052 150.748 565.602 150.748C566.139 150.748 566.583 150.622 566.932 150.37C567.288 150.117 567.508 149.739 567.592 149.234H569.475C569.378 149.842 569.154 150.373 568.805 150.826C568.456 151.279 568.006 151.631 567.456 151.884C566.912 152.129 566.295 152.252 565.602 152.252ZM579.124 152.252C578.594 152.252 578.115 152.152 577.688 151.951C577.261 151.751 576.921 151.45 576.669 151.049C576.423 150.641 576.3 150.13 576.3 149.516V140.121H578.134V149.457C578.134 150.337 578.545 150.777 579.367 150.777C579.619 150.777 579.865 150.751 580.104 150.7C580.344 150.641 580.616 150.557 580.92 150.447L581.182 151.757C580.839 151.9 580.499 152.016 580.163 152.107C579.833 152.204 579.487 152.252 579.124 152.252ZM574.873 143.916V142.664H580.9V143.916H574.873ZM583.09 152V142.635H584.933V152H583.09ZM584.429 147.827C584.429 146.63 584.552 145.637 584.798 144.847C585.05 144.052 585.399 143.46 585.846 143.071C586.299 142.683 586.829 142.489 587.437 142.489C587.619 142.489 587.787 142.502 587.942 142.528C588.104 142.554 588.262 142.589 588.418 142.635L588.35 144.469C588.175 144.424 587.984 144.385 587.777 144.352C587.576 144.314 587.392 144.294 587.224 144.294C586.693 144.294 586.26 144.437 585.923 144.721C585.587 144.999 585.338 145.404 585.176 145.934C585.014 146.458 584.933 147.089 584.933 147.827H584.429ZM595.716 152L595.483 149.855V145.963C595.483 145.2 595.325 144.647 595.008 144.304C594.691 143.955 594.189 143.78 593.503 143.78C593.115 143.78 592.769 143.838 592.465 143.955C592.167 144.065 591.931 144.233 591.757 144.459C591.588 144.686 591.504 144.97 591.504 145.313H589.466C589.466 144.627 589.634 144.071 589.971 143.644C590.307 143.217 590.776 142.906 591.378 142.712C591.986 142.512 592.695 142.411 593.503 142.411C594.26 142.411 594.927 142.538 595.503 142.79C596.078 143.036 596.525 143.424 596.842 143.955C597.165 144.485 597.327 145.171 597.327 146.012V152H595.716ZM592.591 152.252C591.808 152.252 591.158 152.116 590.64 151.845C590.123 151.567 589.735 151.204 589.476 150.758C589.224 150.311 589.097 149.836 589.097 149.331C589.097 148.716 589.253 148.212 589.563 147.817C589.88 147.416 590.317 147.118 590.873 146.924C591.43 146.73 592.07 146.633 592.795 146.633C593.293 146.633 593.778 146.678 594.251 146.769C594.723 146.86 595.189 146.979 595.648 147.128V148.244C595.273 148.108 594.856 148.002 594.396 147.924C593.943 147.84 593.52 147.798 593.125 147.798C592.536 147.798 592.044 147.914 591.65 148.147C591.255 148.38 591.058 148.775 591.058 149.331C591.058 149.739 591.213 150.091 591.524 150.389C591.834 150.68 592.326 150.826 592.999 150.826C593.49 150.826 593.924 150.716 594.299 150.496C594.674 150.269 594.966 149.988 595.173 149.651C595.38 149.315 595.483 148.979 595.483 148.642H595.93C595.93 149.289 595.797 149.888 595.532 150.437C595.273 150.981 594.894 151.421 594.396 151.757C593.898 152.087 593.296 152.252 592.591 152.252ZM601.421 140.674C601.053 140.674 600.761 140.574 600.548 140.373C600.341 140.166 600.237 139.888 600.237 139.539C600.237 139.202 600.341 138.937 600.548 138.743C600.761 138.542 601.053 138.442 601.421 138.442C601.784 138.442 602.068 138.542 602.275 138.743C602.489 138.937 602.596 139.202 602.596 139.539C602.596 139.888 602.489 140.166 602.275 140.373C602.068 140.574 601.784 140.674 601.421 140.674ZM600.499 152V142.635H602.343V152H600.499ZM605.896 152V138.733H607.74V152H605.896ZM616.362 140.674C615.993 140.674 615.702 140.574 615.488 140.373C615.281 140.166 615.178 139.888 615.178 139.539C615.178 139.202 615.281 138.937 615.488 138.743C615.702 138.542 615.993 138.442 616.362 138.442C616.724 138.442 617.009 138.542 617.216 138.743C617.429 138.937 617.536 139.202 617.536 139.539C617.536 139.888 617.429 140.166 617.216 140.373C617.009 140.574 616.724 140.674 616.362 140.674ZM615.44 152V142.635H617.284V152H615.44ZM627.378 152V146.526C627.378 145.718 627.184 145.106 626.796 144.692C626.414 144.272 625.896 144.061 625.243 144.061C624.725 144.061 624.272 144.204 623.884 144.488C623.502 144.767 623.205 145.177 622.991 145.721C622.784 146.258 622.681 146.915 622.681 147.691H622.021C622.021 146.546 622.166 145.582 622.457 144.799C622.755 144.016 623.179 143.424 623.729 143.023C624.279 142.615 624.939 142.411 625.709 142.411C626.459 142.411 627.093 142.58 627.611 142.916C628.135 143.253 628.533 143.731 628.804 144.352C629.076 144.967 629.212 145.692 629.212 146.526V152H627.378ZM620.837 152V142.664H622.438L622.681 144.682V152H620.837ZM632.76 152V141.354C632.76 140.707 632.883 140.183 633.129 139.781C633.381 139.374 633.715 139.073 634.129 138.879C634.543 138.685 634.999 138.588 635.497 138.588C635.782 138.588 636.073 138.607 636.371 138.646C636.675 138.685 636.972 138.743 637.263 138.821L636.914 140.257C636.733 140.192 636.548 140.14 636.361 140.102C636.18 140.063 636.005 140.043 635.837 140.043C635.636 140.043 635.442 140.082 635.254 140.16C635.067 140.231 634.912 140.364 634.789 140.558C634.672 140.752 634.614 141.027 634.614 141.383V152H632.76ZM631.295 143.916V142.664H636.448V143.916H631.295ZM642.107 152.252C641.259 152.252 640.499 152.068 639.826 151.699C639.16 151.33 638.633 150.78 638.244 150.049C637.856 149.318 637.662 148.416 637.662 147.342C637.662 146.248 637.856 145.339 638.244 144.614C638.633 143.883 639.16 143.333 639.826 142.965C640.499 142.596 641.259 142.411 642.107 142.411C642.942 142.411 643.692 142.596 644.359 142.965C645.025 143.333 645.549 143.883 645.931 144.614C646.319 145.339 646.513 146.248 646.513 147.342C646.513 148.416 646.319 149.318 645.931 150.049C645.549 150.78 645.025 151.33 644.359 151.699C643.692 152.068 642.942 152.252 642.107 152.252ZM642.049 150.641C642.586 150.641 643.048 150.512 643.437 150.253C643.831 149.994 644.132 149.619 644.339 149.127C644.553 148.629 644.659 148.034 644.659 147.342C644.659 146.281 644.443 145.459 644.009 144.877C643.582 144.294 642.964 144.003 642.156 144.003C641.612 144.003 641.143 144.136 640.748 144.401C640.36 144.66 640.059 145.038 639.846 145.536C639.639 146.028 639.535 146.63 639.535 147.342C639.535 148.383 639.752 149.195 640.185 149.778C640.619 150.353 641.24 150.641 642.049 150.641ZM648.875 152V142.635H650.719V152H648.875ZM650.214 147.827C650.214 146.63 650.337 145.637 650.583 144.847C650.835 144.052 651.185 143.46 651.631 143.071C652.084 142.683 652.615 142.489 653.223 142.489C653.404 142.489 653.572 142.502 653.728 142.528C653.889 142.554 654.048 142.589 654.203 142.635L654.135 144.469C653.96 144.424 653.77 144.385 653.563 144.352C653.362 144.314 653.178 144.294 653.009 144.294C652.479 144.294 652.045 144.437 651.709 144.721C651.372 144.999 651.123 145.404 650.962 145.934C650.8 146.458 650.719 147.089 650.719 147.827H650.214ZM668.586 152V146.526C668.586 145.718 668.392 145.106 668.004 144.692C667.622 144.272 667.108 144.061 666.461 144.061C665.685 144.061 665.083 144.365 664.656 144.974C664.235 145.582 664.025 146.455 664.025 147.594H663.219C663.219 146.695 663.307 145.918 663.481 145.265C663.656 144.611 663.905 144.074 664.229 143.654C664.559 143.233 664.95 142.923 665.403 142.722C665.862 142.515 666.374 142.411 666.936 142.411C667.687 142.411 668.321 142.58 668.839 142.916C669.363 143.253 669.761 143.731 670.032 144.352C670.304 144.967 670.44 145.692 670.44 146.526V152H668.586ZM655.65 152V142.664H657.251L657.455 144.42C657.752 143.767 658.16 143.269 658.678 142.926C659.202 142.583 659.816 142.411 660.521 142.411C661.272 142.411 661.906 142.58 662.424 142.916C662.948 143.253 663.346 143.731 663.617 144.352C663.889 144.967 664.025 145.692 664.025 146.526V152H662.191V146.526C662.191 145.718 661.997 145.106 661.608 144.692C661.227 144.272 660.709 144.061 660.056 144.061C659.538 144.061 659.085 144.204 658.697 144.488C658.315 144.767 658.018 145.177 657.804 145.721C657.597 146.258 657.493 146.915 657.493 147.691V152H655.65ZM679.289 152L679.056 149.855V145.963C679.056 145.2 678.898 144.647 678.581 144.304C678.264 143.955 677.762 143.78 677.076 143.78C676.688 143.78 676.342 143.838 676.038 143.955C675.74 144.065 675.504 144.233 675.329 144.459C675.161 144.686 675.077 144.97 675.077 145.313H673.039C673.039 144.627 673.207 144.071 673.544 143.644C673.88 143.217 674.349 142.906 674.951 142.712C675.559 142.512 676.268 142.411 677.076 142.411C677.833 142.411 678.5 142.538 679.076 142.79C679.651 143.036 680.098 143.424 680.415 143.955C680.738 144.485 680.9 145.171 680.9 146.012V152H679.289ZM676.164 152.252C675.381 152.252 674.731 152.116 674.213 151.845C673.696 151.567 673.308 151.204 673.049 150.758C672.796 150.311 672.67 149.836 672.67 149.331C672.67 148.716 672.826 148.212 673.136 147.817C673.453 147.416 673.89 147.118 674.446 146.924C675.003 146.73 675.643 146.633 676.368 146.633C676.866 146.633 677.351 146.678 677.824 146.769C678.296 146.86 678.762 146.979 679.221 147.128V148.244C678.846 148.108 678.429 148.002 677.969 147.924C677.516 147.84 677.093 147.798 676.698 147.798C676.109 147.798 675.617 147.914 675.223 148.147C674.828 148.38 674.631 148.775 674.631 149.331C674.631 149.739 674.786 150.091 675.097 150.389C675.407 150.68 675.899 150.826 676.572 150.826C677.063 150.826 677.497 150.716 677.872 150.496C678.247 150.269 678.539 149.988 678.746 149.651C678.953 149.315 679.056 148.979 679.056 148.642H679.503C679.503 149.289 679.37 149.888 679.105 150.437C678.846 150.981 678.467 151.421 677.969 151.757C677.471 152.087 676.869 152.252 676.164 152.252ZM686.926 152.252C686.395 152.252 685.916 152.152 685.489 151.951C685.062 151.751 684.723 151.45 684.47 151.049C684.224 150.641 684.101 150.13 684.101 149.516V140.121H685.936V149.457C685.936 150.337 686.347 150.777 687.168 150.777C687.421 150.777 687.666 150.751 687.906 150.7C688.145 150.641 688.417 150.557 688.721 150.447L688.983 151.757C688.64 151.9 688.3 152.016 687.964 152.107C687.634 152.204 687.288 152.252 686.926 152.252ZM682.675 143.916V142.664H688.702V143.916H682.675ZM691.958 140.674C691.59 140.674 691.298 140.574 691.085 140.373C690.878 140.166 690.774 139.888 690.774 139.539C690.774 139.202 690.878 138.937 691.085 138.743C691.298 138.542 691.59 138.442 691.958 138.442C692.321 138.442 692.605 138.542 692.812 138.743C693.026 138.937 693.133 139.202 693.133 139.539C693.133 139.888 693.026 140.166 692.812 140.373C692.605 140.574 692.321 140.674 691.958 140.674ZM691.036 152V142.635H692.88V152H691.036ZM699.947 152.252C699.099 152.252 698.339 152.068 697.666 151.699C696.999 151.33 696.472 150.78 696.084 150.049C695.696 149.318 695.502 148.416 695.502 147.342C695.502 146.248 695.696 145.339 696.084 144.614C696.472 143.883 696.999 143.333 697.666 142.965C698.339 142.596 699.099 142.411 699.947 142.411C700.781 142.411 701.532 142.596 702.198 142.965C702.864 143.333 703.389 143.883 703.77 144.614C704.158 145.339 704.353 146.248 704.353 147.342C704.353 148.416 704.158 149.318 703.77 150.049C703.389 150.78 702.864 151.33 702.198 151.699C701.532 152.068 700.781 152.252 699.947 152.252ZM699.888 150.641C700.425 150.641 700.888 150.512 701.276 150.253C701.671 149.994 701.972 149.619 702.179 149.127C702.392 148.629 702.499 148.034 702.499 147.342C702.499 146.281 702.282 145.459 701.849 144.877C701.422 144.294 700.804 144.003 699.995 144.003C699.452 144.003 698.982 144.136 698.588 144.401C698.2 144.66 697.899 145.038 697.685 145.536C697.478 146.028 697.375 146.63 697.375 147.342C697.375 148.383 697.591 149.195 698.025 149.778C698.458 150.353 699.08 150.641 699.888 150.641ZM713.256 152V146.526C713.256 145.718 713.062 145.106 712.673 144.692C712.292 144.272 711.774 144.061 711.121 144.061C710.603 144.061 710.15 144.204 709.762 144.488C709.38 144.767 709.083 145.177 708.869 145.721C708.662 146.258 708.558 146.915 708.558 147.691H707.899C707.899 146.546 708.044 145.582 708.335 144.799C708.633 144.016 709.057 143.424 709.607 143.023C710.157 142.615 710.817 142.411 711.586 142.411C712.337 142.411 712.971 142.58 713.489 142.916C714.013 143.253 714.411 143.731 714.682 144.352C714.954 144.967 715.09 145.692 715.09 146.526V152H713.256ZM706.715 152V142.664H708.316L708.558 144.682V152H706.715ZM728.22 152L727.987 149.855V145.963C727.987 145.2 727.828 144.647 727.511 144.304C727.194 143.955 726.693 143.78 726.007 143.78C725.619 143.78 725.273 143.838 724.969 143.955C724.671 144.065 724.435 144.233 724.26 144.459C724.092 144.686 724.008 144.97 724.008 145.313H721.97C721.97 144.627 722.138 144.071 722.474 143.644C722.811 143.217 723.28 142.906 723.882 142.712C724.49 142.512 725.198 142.411 726.007 142.411C726.764 142.411 727.43 142.538 728.006 142.79C728.582 143.036 729.028 143.424 729.346 143.955C729.669 144.485 729.831 145.171 729.831 146.012V152H728.22ZM725.095 152.252C724.312 152.252 723.662 152.116 723.144 151.845C722.626 151.567 722.238 151.204 721.979 150.758C721.727 150.311 721.601 149.836 721.601 149.331C721.601 148.716 721.756 148.212 722.067 147.817C722.384 147.416 722.821 147.118 723.377 146.924C723.933 146.73 724.574 146.633 725.299 146.633C725.797 146.633 726.282 146.678 726.754 146.769C727.227 146.86 727.692 146.979 728.152 147.128V148.244C727.777 148.108 727.359 148.002 726.9 147.924C726.447 147.84 726.023 147.798 725.629 147.798C725.04 147.798 724.548 147.914 724.153 148.147C723.759 148.38 723.561 148.775 723.561 149.331C723.561 149.739 723.717 150.091 724.027 150.389C724.338 150.68 724.829 150.826 725.502 150.826C725.994 150.826 726.428 150.716 726.803 150.496C727.178 150.269 727.469 149.988 727.676 149.651C727.883 149.315 727.987 148.979 727.987 148.642H728.433C728.433 149.289 728.301 149.888 728.035 150.437C727.777 150.981 727.398 151.421 726.9 151.757C726.402 152.087 725.8 152.252 725.095 152.252ZM739.399 152V146.526C739.399 145.718 739.204 145.106 738.816 144.692C738.435 144.272 737.917 144.061 737.263 144.061C736.746 144.061 736.293 144.204 735.905 144.488C735.523 144.767 735.225 145.177 735.012 145.721C734.805 146.258 734.701 146.915 734.701 147.691H734.041C734.041 146.546 734.187 145.582 734.478 144.799C734.776 144.016 735.2 143.424 735.749 143.023C736.299 142.615 736.959 142.411 737.729 142.411C738.48 142.411 739.114 142.58 739.631 142.916C740.156 143.253 740.553 143.731 740.825 144.352C741.097 144.967 741.233 145.692 741.233 146.526V152H739.399ZM732.857 152V142.664H734.459L734.701 144.682V152H732.857ZM747.644 152.252C746.881 152.252 746.179 152.049 745.538 151.641C744.897 151.227 744.386 150.651 744.005 149.913C743.629 149.169 743.442 148.296 743.442 147.293C743.442 146.297 743.626 145.433 743.995 144.702C744.37 143.971 744.865 143.408 745.48 143.013C746.094 142.612 746.777 142.411 747.528 142.411C748.213 142.411 748.812 142.58 749.323 142.916C749.834 143.246 750.229 143.728 750.507 144.362C750.792 144.996 750.934 145.769 750.934 146.682H750.293C750.293 146.119 750.18 145.643 749.954 145.255C749.727 144.86 749.433 144.563 749.071 144.362C748.708 144.162 748.32 144.061 747.906 144.061C747.421 144.061 746.981 144.194 746.586 144.459C746.198 144.718 745.887 145.09 745.654 145.575C745.428 146.054 745.315 146.627 745.315 147.293C745.315 147.966 745.428 148.551 745.654 149.05C745.887 149.541 746.198 149.92 746.586 150.185C746.981 150.45 747.418 150.583 747.896 150.583C748.291 150.583 748.669 150.48 749.032 150.273C749.401 150.059 749.701 149.755 749.934 149.36C750.174 148.966 750.293 148.496 750.293 147.953H750.934C750.934 148.885 750.785 149.671 750.488 150.311C750.196 150.952 749.802 151.437 749.304 151.767C748.805 152.091 748.252 152.252 747.644 152.252ZM750.614 152L750.293 149.758V138.733H752.147V152H750.614ZM760.226 152V141.354C760.226 140.707 760.349 140.183 760.594 139.781C760.847 139.374 761.18 139.073 761.594 138.879C762.008 138.685 762.464 138.588 762.962 138.588C763.247 138.588 763.538 138.607 763.836 138.646C764.14 138.685 764.438 138.743 764.729 138.821L764.379 140.257C764.198 140.192 764.014 140.14 763.826 140.102C763.645 140.063 763.47 140.043 763.302 140.043C763.102 140.043 762.907 140.082 762.72 140.16C762.532 140.231 762.377 140.364 762.254 140.558C762.138 140.752 762.079 141.027 762.079 141.383V152H760.226ZM758.76 143.916V142.664H763.914V143.916H758.76ZM767.621 140.674C767.252 140.674 766.961 140.574 766.747 140.373C766.54 140.166 766.437 139.888 766.437 139.539C766.437 139.202 766.54 138.937 766.747 138.743C766.961 138.542 767.252 138.442 767.621 138.442C767.983 138.442 768.268 138.542 768.475 138.743C768.688 138.937 768.795 139.202 768.795 139.539C768.795 139.888 768.688 140.166 768.475 140.373C768.268 140.574 767.983 140.674 767.621 140.674ZM766.699 152V142.635H768.543V152H766.699ZM775.105 152.252C774.574 152.252 774.095 152.152 773.668 151.951C773.241 151.751 772.902 151.45 772.649 151.049C772.403 150.641 772.28 150.13 772.28 149.516V140.121H774.115V149.457C774.115 150.337 774.526 150.777 775.347 150.777C775.6 150.777 775.845 150.751 776.085 150.7C776.324 150.641 776.596 150.557 776.9 150.447L777.162 151.757C776.819 151.9 776.479 152.016 776.143 152.107C775.813 152.204 775.467 152.252 775.105 152.252ZM770.854 143.916V142.664H776.881V143.916H770.854ZM785.611 152V146.526C785.611 145.718 785.417 145.106 785.029 144.692C784.647 144.272 784.129 144.061 783.476 144.061C782.958 144.061 782.505 144.204 782.117 144.488C781.735 144.767 781.438 145.177 781.224 145.721C781.017 146.258 780.914 146.915 780.914 147.691H780.254C780.254 146.546 780.399 145.582 780.691 144.799C780.988 144.016 781.412 143.424 781.962 143.023C782.512 142.615 783.172 142.411 783.942 142.411C784.692 142.411 785.326 142.58 785.844 142.916C786.368 143.253 786.766 143.731 787.038 144.352C787.309 144.967 787.445 145.692 787.445 146.526V152H785.611ZM779.07 152V142.664H780.671L780.914 144.682V152H779.07ZM793.818 152.252C793.015 152.252 792.291 152.045 791.644 151.631C790.997 151.217 790.482 150.641 790.101 149.904C789.725 149.166 789.538 148.312 789.538 147.342C789.538 146.313 789.725 145.433 790.101 144.702C790.476 143.964 790.987 143.398 791.634 143.003C792.281 142.609 793.009 142.411 793.818 142.411C794.542 142.411 795.163 142.56 795.681 142.858C796.199 143.149 796.616 143.544 796.933 144.042C797.25 144.534 797.467 145.093 797.583 145.721C797.706 146.348 797.729 146.995 797.651 147.662H791.013V146.594H796.389L795.943 146.885C795.962 146.536 795.943 146.187 795.885 145.837C795.833 145.488 795.73 145.168 795.574 144.877C795.419 144.579 795.199 144.343 794.914 144.168C794.636 143.987 794.28 143.896 793.847 143.896C793.303 143.896 792.847 144.032 792.478 144.304C792.116 144.576 791.841 144.941 791.653 145.401C791.466 145.853 791.372 146.352 791.372 146.895V147.642C791.372 148.244 791.463 148.778 791.644 149.244C791.825 149.71 792.093 150.078 792.449 150.35C792.812 150.615 793.268 150.748 793.818 150.748C794.355 150.748 794.798 150.622 795.147 150.37C795.503 150.117 795.723 149.739 795.807 149.234H797.69C797.593 149.842 797.37 150.373 797.02 150.826C796.671 151.279 796.221 151.631 795.671 151.884C795.128 152.129 794.51 152.252 793.818 152.252ZM803.503 152.252C802.598 152.252 801.834 152.126 801.213 151.874C800.592 151.615 800.116 151.259 799.786 150.806C799.463 150.347 799.295 149.81 799.282 149.195H801.019C801.045 149.732 801.258 150.13 801.659 150.389C802.067 150.648 802.617 150.777 803.309 150.777C803.678 150.777 804.011 150.719 804.309 150.602C804.613 150.486 804.852 150.328 805.027 150.127C805.208 149.926 805.299 149.7 805.299 149.448C805.299 149.131 805.182 148.881 804.949 148.7C804.717 148.513 804.341 148.348 803.824 148.205L801.912 147.555C801.148 147.296 800.563 146.953 800.155 146.526C799.748 146.093 799.544 145.575 799.544 144.974C799.544 144.204 799.887 143.586 800.572 143.12C801.258 142.648 802.167 142.411 803.3 142.411C804.471 142.411 805.373 142.661 806.007 143.159C806.648 143.65 806.981 144.268 807.007 145.012H805.231C805.186 144.644 805.001 144.362 804.678 144.168C804.361 143.967 803.901 143.867 803.3 143.867C802.737 143.867 802.294 143.99 801.97 144.236C801.653 144.482 801.494 144.76 801.494 145.071C801.494 145.627 801.973 146.041 802.931 146.313L804.94 147.021C805.703 147.267 806.292 147.584 806.706 147.972C807.12 148.361 807.327 148.852 807.327 149.448C807.327 149.926 807.169 150.379 806.852 150.806C806.535 151.233 806.088 151.583 805.512 151.854C804.943 152.12 804.273 152.252 803.503 152.252ZM813.235 152.252C812.329 152.252 811.566 152.126 810.945 151.874C810.323 151.615 809.848 151.259 809.518 150.806C809.194 150.347 809.026 149.81 809.013 149.195H810.75C810.776 149.732 810.99 150.13 811.391 150.389C811.799 150.648 812.349 150.777 813.041 150.777C813.41 150.777 813.743 150.719 814.04 150.602C814.345 150.486 814.584 150.328 814.759 150.127C814.94 149.926 815.03 149.7 815.03 149.448C815.03 149.131 814.914 148.881 814.681 148.7C814.448 148.513 814.073 148.348 813.555 148.205L811.643 147.555C810.88 147.296 810.294 146.953 809.887 146.526C809.479 146.093 809.275 145.575 809.275 144.974C809.275 144.204 809.618 143.586 810.304 143.12C810.99 142.648 811.899 142.411 813.031 142.411C814.202 142.411 815.105 142.661 815.739 143.159C816.379 143.65 816.713 144.268 816.738 145.012H814.962C814.917 144.644 814.733 144.362 814.409 144.168C814.092 143.967 813.633 143.867 813.031 143.867C812.468 143.867 812.025 143.99 811.702 144.236C811.385 144.482 811.226 144.76 811.226 145.071C811.226 145.627 811.705 146.041 812.662 146.313L814.671 147.021C815.435 147.267 816.024 147.584 816.438 147.972C816.852 148.361 817.059 148.852 817.059 149.448C817.059 149.926 816.9 150.379 816.583 150.806C816.266 151.233 815.82 151.583 815.244 151.854C814.675 152.12 814.005 152.252 813.235 152.252ZM827.191 152.252C826.427 152.252 825.725 152.049 825.085 151.641C824.444 151.227 823.933 150.651 823.552 149.913C823.176 149.169 822.989 148.296 822.989 147.293C822.989 146.297 823.173 145.433 823.542 144.702C823.917 143.971 824.412 143.408 825.027 143.013C825.641 142.612 826.324 142.411 827.074 142.411C827.76 142.411 828.359 142.58 828.87 142.916C829.381 143.246 829.776 143.728 830.054 144.362C830.339 144.996 830.481 145.769 830.481 146.682H829.84C829.84 146.119 829.727 145.643 829.501 145.255C829.274 144.86 828.98 144.563 828.618 144.362C828.255 144.162 827.867 144.061 827.453 144.061C826.968 144.061 826.528 144.194 826.133 144.459C825.745 144.718 825.434 145.09 825.201 145.575C824.975 146.054 824.862 146.627 824.862 147.293C824.862 147.966 824.975 148.551 825.201 149.05C825.434 149.541 825.745 149.92 826.133 150.185C826.528 150.45 826.964 150.583 827.443 150.583C827.838 150.583 828.216 150.48 828.579 150.273C828.948 150.059 829.248 149.755 829.481 149.36C829.721 148.966 829.84 148.496 829.84 147.953H830.481C830.481 148.885 830.332 149.671 830.034 150.311C829.743 150.952 829.349 151.437 828.85 151.767C828.352 152.091 827.799 152.252 827.191 152.252ZM830.161 152L829.84 149.758V138.733H831.694V152H830.161ZM840.847 152L840.614 149.855V145.963C840.614 145.2 840.456 144.647 840.139 144.304C839.822 143.955 839.32 143.78 838.634 143.78C838.246 143.78 837.9 143.838 837.596 143.955C837.298 144.065 837.062 144.233 836.887 144.459C836.719 144.686 836.635 144.97 836.635 145.313H834.597C834.597 144.627 834.765 144.071 835.102 143.644C835.438 143.217 835.907 142.906 836.509 142.712C837.117 142.512 837.826 142.411 838.634 142.411C839.391 142.411 840.058 142.538 840.633 142.79C841.209 143.036 841.656 143.424 841.973 143.955C842.296 144.485 842.458 145.171 842.458 146.012V152H840.847ZM837.722 152.252C836.939 152.252 836.289 152.116 835.771 151.845C835.254 151.567 834.865 151.204 834.607 150.758C834.354 150.311 834.228 149.836 834.228 149.331C834.228 148.716 834.383 148.212 834.694 147.817C835.011 147.416 835.448 147.118 836.004 146.924C836.561 146.73 837.201 146.633 837.926 146.633C838.424 146.633 838.909 146.678 839.382 146.769C839.854 146.86 840.32 146.979 840.779 147.128V148.244C840.404 148.108 839.986 148.002 839.527 147.924C839.074 147.84 838.65 147.798 838.256 147.798C837.667 147.798 837.175 147.914 836.781 148.147C836.386 148.38 836.189 148.775 836.189 149.331C836.189 149.739 836.344 150.091 836.654 150.389C836.965 150.68 837.457 150.826 838.13 150.826C838.621 150.826 839.055 150.716 839.43 150.496C839.805 150.269 840.096 149.988 840.304 149.651C840.511 149.315 840.614 148.979 840.614 148.642H841.061C841.061 149.289 840.928 149.888 840.663 150.437C840.404 150.981 840.025 151.421 839.527 151.757C839.029 152.087 838.427 152.252 837.722 152.252ZM848.483 152.252C847.953 152.252 847.474 152.152 847.047 151.951C846.62 151.751 846.28 151.45 846.028 151.049C845.782 150.641 845.659 150.13 845.659 149.516V140.121H847.494V149.457C847.494 150.337 847.904 150.777 848.726 150.777C848.978 150.777 849.224 150.751 849.464 150.7C849.703 150.641 849.975 150.557 850.279 150.447L850.541 151.757C850.198 151.9 849.858 152.016 849.522 152.107C849.192 152.204 848.846 152.252 848.483 152.252ZM844.233 143.916V142.664H850.259V143.916H844.233ZM858.301 152L858.068 149.855V145.963C858.068 145.2 857.909 144.647 857.592 144.304C857.275 143.955 856.774 143.78 856.088 143.78C855.7 143.78 855.354 143.838 855.05 143.955C854.752 144.065 854.516 144.233 854.341 144.459C854.173 144.686 854.089 144.97 854.089 145.313H852.051C852.051 144.627 852.219 144.071 852.556 143.644C852.892 143.217 853.361 142.906 853.963 142.712C854.571 142.512 855.279 142.411 856.088 142.411C856.845 142.411 857.512 142.538 858.087 142.79C858.663 143.036 859.11 143.424 859.427 143.955C859.75 144.485 859.912 145.171 859.912 146.012V152H858.301ZM855.176 152.252C854.393 152.252 853.743 152.116 853.225 151.845C852.708 151.567 852.319 151.204 852.061 150.758C851.808 150.311 851.682 149.836 851.682 149.331C851.682 148.716 851.837 148.212 852.148 147.817C852.465 147.416 852.902 147.118 853.458 146.924C854.014 146.73 854.655 146.633 855.38 146.633C855.878 146.633 856.363 146.678 856.835 146.769C857.308 146.86 857.774 146.979 858.233 147.128V148.244C857.858 148.108 857.44 148.002 856.981 147.924C856.528 147.84 856.104 147.798 855.71 147.798C855.121 147.798 854.629 147.914 854.234 148.147C853.84 148.38 853.642 148.775 853.642 149.331C853.642 149.739 853.798 150.091 854.108 150.389C854.419 150.68 854.911 150.826 855.583 150.826C856.075 150.826 856.509 150.716 856.884 150.496C857.259 150.269 857.55 149.988 857.757 149.651C857.964 149.315 858.068 148.979 858.068 148.642H858.514C858.514 149.289 858.382 149.888 858.116 150.437C857.858 150.981 857.479 151.421 856.981 151.757C856.483 152.087 855.881 152.252 855.176 152.252ZM867.716 152V141.354C867.716 140.707 867.839 140.183 868.085 139.781C868.337 139.374 868.67 139.073 869.085 138.879C869.499 138.685 869.955 138.588 870.453 138.588C870.738 138.588 871.029 138.607 871.326 138.646C871.63 138.685 871.928 138.743 872.219 138.821L871.87 140.257C871.689 140.192 871.504 140.14 871.317 140.102C871.136 140.063 870.961 140.043 870.793 140.043C870.592 140.043 870.398 140.082 870.21 140.16C870.023 140.231 869.867 140.364 869.744 140.558C869.628 140.752 869.57 141.027 869.57 141.383V152H867.716ZM866.251 143.916V142.664H871.404V143.916H866.251ZM877.063 152.252C876.215 152.252 875.455 152.068 874.782 151.699C874.116 151.33 873.588 150.78 873.2 150.049C872.812 149.318 872.618 148.416 872.618 147.342C872.618 146.248 872.812 145.339 873.2 144.614C873.588 143.883 874.116 143.333 874.782 142.965C875.455 142.596 876.215 142.411 877.063 142.411C877.897 142.411 878.648 142.596 879.314 142.965C879.981 143.333 880.505 143.883 880.886 144.614C881.275 145.339 881.469 146.248 881.469 147.342C881.469 148.416 881.275 149.318 880.886 150.049C880.505 150.78 879.981 151.33 879.314 151.699C878.648 152.068 877.897 152.252 877.063 152.252ZM877.004 150.641C877.542 150.641 878.004 150.512 878.392 150.253C878.787 149.994 879.088 149.619 879.295 149.127C879.508 148.629 879.615 148.034 879.615 147.342C879.615 146.281 879.398 145.459 878.965 144.877C878.538 144.294 877.92 144.003 877.111 144.003C876.568 144.003 876.099 144.136 875.704 144.401C875.316 144.66 875.015 145.038 874.801 145.536C874.594 146.028 874.491 146.63 874.491 147.342C874.491 148.383 874.708 149.195 875.141 149.778C875.575 150.353 876.196 150.641 877.004 150.641ZM883.831 152V142.635H885.675V152H883.831ZM885.17 147.827C885.17 146.63 885.293 145.637 885.539 144.847C885.791 144.052 886.141 143.46 886.587 143.071C887.04 142.683 887.57 142.489 888.179 142.489C888.36 142.489 888.528 142.502 888.683 142.528C888.845 142.554 889.004 142.589 889.159 142.635L889.091 144.469C888.916 144.424 888.725 144.385 888.518 144.352C888.318 144.314 888.133 144.294 887.965 144.294C887.435 144.294 887.001 144.437 886.665 144.721C886.328 144.999 886.079 145.404 885.917 145.934C885.756 146.458 885.675 147.089 885.675 147.827H885.17ZM898.256 152.252C897.492 152.252 896.78 152.049 896.12 151.641C895.461 151.233 894.93 150.661 894.529 149.923C894.128 149.186 893.927 148.319 893.927 147.322C893.927 146.274 894.128 145.388 894.529 144.663C894.93 143.932 895.461 143.375 896.12 142.994C896.78 142.606 897.492 142.411 898.256 142.411C898.818 142.411 899.32 142.502 899.76 142.683C900.2 142.858 900.578 143.097 900.895 143.401C901.212 143.699 901.468 144.035 901.662 144.411C901.863 144.786 902.002 145.174 902.079 145.575L900.206 145.672C900.07 145.187 899.831 144.799 899.488 144.508C899.152 144.21 898.734 144.061 898.236 144.061C897.816 144.061 897.418 144.181 897.042 144.42C896.674 144.653 896.373 145.012 896.14 145.498C895.913 145.976 895.8 146.585 895.8 147.322C895.8 148.008 895.907 148.594 896.12 149.079C896.334 149.564 896.625 149.936 896.994 150.195C897.363 150.454 897.777 150.583 898.236 150.583C898.896 150.583 899.388 150.425 899.711 150.108C900.041 149.784 900.206 149.341 900.206 148.778H902.079C902.079 149.431 901.927 150.02 901.623 150.544C901.319 151.068 900.879 151.486 900.303 151.796C899.734 152.1 899.051 152.252 898.256 152.252ZM903.011 142.664H905.078L907.892 150.389H907.514L909.775 142.664H911.658L908.116 153.795C907.792 154.805 907.375 155.559 906.864 156.057C906.359 156.561 905.725 156.814 904.961 156.814C904.534 156.814 904.124 156.759 903.729 156.649C903.341 156.539 902.943 156.377 902.535 156.163V154.504C902.885 154.75 903.221 154.928 903.545 155.038C903.868 155.148 904.204 155.203 904.554 155.203C904.903 155.203 905.201 155.096 905.447 154.882C905.699 154.675 905.909 154.397 906.078 154.048C906.252 153.705 906.401 153.33 906.524 152.922L906.805 152L903.011 142.664ZM916.752 152.252C915.988 152.252 915.277 152.049 914.617 151.641C913.957 151.233 913.426 150.661 913.025 149.923C912.624 149.186 912.424 148.319 912.424 147.322C912.424 146.274 912.624 145.388 913.025 144.663C913.426 143.932 913.957 143.375 914.617 142.994C915.277 142.606 915.988 142.411 916.752 142.411C917.315 142.411 917.816 142.502 918.256 142.683C918.696 142.858 919.075 143.097 919.392 143.401C919.709 143.699 919.964 144.035 920.158 144.411C920.359 144.786 920.498 145.174 920.576 145.575L918.703 145.672C918.567 145.187 918.327 144.799 917.984 144.508C917.648 144.21 917.231 144.061 916.733 144.061C916.312 144.061 915.914 144.181 915.539 144.42C915.17 144.653 914.869 145.012 914.636 145.498C914.41 145.976 914.297 146.585 914.297 147.322C914.297 148.008 914.403 148.594 914.617 149.079C914.83 149.564 915.121 149.936 915.49 150.195C915.859 150.454 916.273 150.583 916.733 150.583C917.392 150.583 917.884 150.425 918.208 150.108C918.538 149.784 918.703 149.341 918.703 148.778H920.576C920.576 149.431 920.424 150.02 920.12 150.544C919.815 151.068 919.376 151.486 918.8 151.796C918.23 152.1 917.548 152.252 916.752 152.252ZM922.992 152V138.733H924.836V152H922.992ZM929.204 140.674C928.835 140.674 928.544 140.574 928.33 140.373C928.123 140.166 928.02 139.888 928.02 139.539C928.02 139.202 928.123 138.937 928.33 138.743C928.544 138.542 928.835 138.442 929.204 138.442C929.566 138.442 929.851 138.542 930.058 138.743C930.271 138.937 930.378 139.202 930.378 139.539C930.378 139.888 930.271 140.166 930.058 140.373C929.851 140.574 929.566 140.674 929.204 140.674ZM928.282 152V142.635H930.126V152H928.282ZM937.095 152.252C936.189 152.252 935.426 152.126 934.805 151.874C934.184 151.615 933.708 151.259 933.378 150.806C933.054 150.347 932.886 149.81 932.873 149.195H934.611C934.636 149.732 934.85 150.13 935.251 150.389C935.659 150.648 936.209 150.777 936.901 150.777C937.27 150.777 937.603 150.719 937.901 150.602C938.205 150.486 938.444 150.328 938.619 150.127C938.8 149.926 938.89 149.7 938.89 149.448C938.89 149.131 938.774 148.881 938.541 148.7C938.308 148.513 937.933 148.348 937.415 148.205L935.503 147.555C934.74 147.296 934.154 146.953 933.747 146.526C933.339 146.093 933.135 145.575 933.135 144.974C933.135 144.204 933.478 143.586 934.164 143.12C934.85 142.648 935.759 142.411 936.891 142.411C938.062 142.411 938.965 142.661 939.599 143.159C940.239 143.65 940.573 144.268 940.599 145.012H938.823C938.777 144.644 938.593 144.362 938.269 144.168C937.952 143.967 937.493 143.867 936.891 143.867C936.328 143.867 935.885 143.99 935.562 144.236C935.245 144.482 935.086 144.76 935.086 145.071C935.086 145.627 935.565 146.041 936.522 146.313L938.531 147.021C939.295 147.267 939.884 147.584 940.298 147.972C940.712 148.361 940.919 148.852 940.919 149.448C940.919 149.926 940.76 150.379 940.443 150.806C940.126 151.233 939.68 151.583 939.104 151.854C938.535 152.12 937.865 152.252 937.095 152.252ZM946.409 152.252C945.879 152.252 945.4 152.152 944.973 151.951C944.546 151.751 944.206 151.45 943.954 151.049C943.708 150.641 943.585 150.13 943.585 149.516V140.121H945.419V149.457C945.419 150.337 945.83 150.777 946.652 150.777C946.904 150.777 947.15 150.751 947.389 150.7C947.629 150.641 947.901 150.557 948.205 150.447L948.467 151.757C948.124 151.9 947.784 152.016 947.448 152.107C947.118 152.204 946.772 152.252 946.409 152.252ZM942.158 143.916V142.664H948.185V143.916H942.158ZM953.791 152.252C952.885 152.252 952.121 152.126 951.5 151.874C950.879 151.615 950.404 151.259 950.074 150.806C949.75 150.347 949.582 149.81 949.569 149.195H951.306C951.332 149.732 951.546 150.13 951.947 150.389C952.354 150.648 952.904 150.777 953.597 150.777C953.965 150.777 954.299 150.719 954.596 150.602C954.9 150.486 955.14 150.328 955.314 150.127C955.495 149.926 955.586 149.7 955.586 149.448C955.586 149.131 955.47 148.881 955.237 148.7C955.004 148.513 954.628 148.348 954.111 148.205L952.199 147.555C951.436 147.296 950.85 146.953 950.442 146.526C950.035 146.093 949.831 145.575 949.831 144.974C949.831 144.204 950.174 143.586 950.86 143.12C951.546 142.648 952.455 142.411 953.587 142.411C954.758 142.411 955.66 142.661 956.295 143.159C956.935 143.65 957.268 144.268 957.294 145.012H955.518C955.473 144.644 955.288 144.362 954.965 144.168C954.648 143.967 954.189 143.867 953.587 143.867C953.024 143.867 952.581 143.99 952.257 144.236C951.94 144.482 951.782 144.76 951.782 145.071C951.782 145.627 952.26 146.041 953.218 146.313L955.227 147.021C955.99 147.267 956.579 147.584 956.993 147.972C957.407 148.361 957.614 148.852 957.614 149.448C957.614 149.926 957.456 150.379 957.139 150.806C956.822 151.233 956.375 151.583 955.8 151.854C955.23 152.12 954.561 152.252 953.791 152.252ZM961.63 148.613V147.778C961.63 147.215 961.691 146.756 961.814 146.4C961.944 146.038 962.147 145.727 962.426 145.469C962.704 145.203 963.082 144.948 963.561 144.702C963.988 144.475 964.321 144.268 964.561 144.081C964.806 143.887 964.981 143.683 965.085 143.469C965.188 143.256 965.24 143 965.24 142.703C965.24 142.237 965.052 141.852 964.677 141.548C964.302 141.237 963.784 141.082 963.124 141.082C962.38 141.082 961.808 141.237 961.407 141.548C961.012 141.858 960.772 142.279 960.688 142.809H958.747C958.831 141.787 959.236 140.965 959.96 140.344C960.685 139.723 961.72 139.413 963.066 139.413C963.933 139.413 964.68 139.561 965.308 139.859C965.936 140.15 966.418 140.548 966.754 141.053C967.09 141.557 967.259 142.117 967.259 142.732C967.259 143.398 967.09 143.961 966.754 144.42C966.418 144.88 965.881 145.3 965.143 145.682C964.716 145.908 964.379 146.122 964.134 146.323C963.888 146.517 963.713 146.737 963.61 146.983C963.512 147.228 963.464 147.545 963.464 147.934V148.613H961.63ZM962.591 152.252C962.202 152.252 961.885 152.129 961.639 151.884C961.394 151.638 961.271 151.34 961.271 150.991C961.271 150.628 961.39 150.321 961.63 150.069C961.876 149.816 962.193 149.69 962.581 149.69C962.969 149.69 963.293 149.816 963.551 150.069C963.817 150.315 963.949 150.619 963.949 150.981C963.949 151.33 963.82 151.631 963.561 151.884C963.302 152.129 962.979 152.252 962.591 152.252Z" fill="#666666"/>
<line x1="422" y1="66.2762" x2="1078.01" y2="66.2762" stroke="#383838"/>
<line x1="422" y1="196.276" x2="1078.01" y2="196.276" stroke="#383838"/>
</svg>
