<svg width="1500" height="303" viewBox="0 0 1500 303" fill="none" xmlns="http://www.w3.org/2000/svg">
<rect width="1500" height="303" fill="#E5E5E5"/>
<rect width="1500" height="303" fill="white"/>
<path d="M601.424 175.615H606.512L593.069 189.372V184.315L601.424 175.615ZM596.901 184.033L607.077 196H602.303L594.325 186.451L596.901 184.033ZM589.645 175.615H593.383V196H589.645V175.615ZM617.075 196V175.615H630.173V178.819H620.782V184.19H629.608V187.394H620.782V192.765H630.173V196H617.075ZM639.751 175.615H644.148L649.016 184.378H648.294L653.351 175.615H657.717L650.461 187.582V196H646.755V187.582L639.751 175.615ZM679.919 178.819V175.615H696.252V178.819H689.106L689.939 177.971V196H686.232V177.971L687.065 178.819H679.919ZM702.607 196L709.549 175.615H714.198L720.857 196H716.962L715.548 191.603H707.978L706.534 196H702.607ZM708.921 188.807H714.669L711.81 180.044L708.921 188.807ZM743.188 175.615H748.277L734.833 189.372V184.315L743.188 175.615ZM738.665 184.033L748.842 196H744.068L736.09 186.451L738.665 184.033ZM731.41 175.615H735.147V196H731.41V175.615ZM758.84 196V175.615H771.938V178.819H762.546V184.19H771.372V187.394H762.546V192.765H771.938V196H758.84ZM781.986 196L788.928 175.615H793.577L800.236 196H796.341L794.927 191.603H787.357L785.913 196H781.986ZM788.3 188.807H794.048L791.189 180.044L788.3 188.807ZM807.169 175.615H811.315L816.247 192.733H815.304L820.173 176.966H822.686L827.743 192.482H826.895L832.077 175.615H836.255L829.25 196H825.356L821.367 183.97H821.712L817.723 196H813.828L807.169 175.615ZM842.922 196L849.863 175.615H854.512L861.171 196H857.276L855.863 191.603H848.293L846.848 196H842.922ZM849.235 188.807H854.983L852.125 180.044L849.235 188.807ZM868.133 175.615H872.531L877.399 184.378H876.677L881.734 175.615H886.1L878.844 187.582V196H875.138V187.582L868.133 175.615ZM902.266 196.44C900.853 196.44 899.549 196.194 898.355 195.702C897.172 195.21 896.209 194.461 895.466 193.456C894.733 192.451 894.34 191.173 894.288 189.624H897.931C897.931 190.409 898.125 191.053 898.512 191.555C898.9 192.058 899.418 192.435 900.067 192.686C900.727 192.927 901.449 193.047 902.235 193.047C902.988 193.047 903.658 192.948 904.245 192.749C904.842 192.55 905.308 192.267 905.643 191.901C905.988 191.524 906.161 191.079 906.161 190.566C906.161 189.886 905.951 189.352 905.533 188.964C905.124 188.577 904.465 188.221 903.554 187.896L899.533 186.294C897.963 185.677 896.759 184.959 895.921 184.143C895.084 183.326 894.665 182.201 894.665 180.766C894.665 179.112 895.319 177.772 896.628 176.746C897.937 175.72 899.764 175.207 902.109 175.207C904.391 175.207 906.156 175.741 907.402 176.808C908.647 177.866 909.354 179.342 909.522 181.237H905.878C905.742 180.431 905.376 179.787 904.779 179.306C904.182 178.813 903.292 178.567 902.109 178.567C901.062 178.567 900.235 178.787 899.628 179.227C899.02 179.656 898.717 180.201 898.717 180.86C898.717 181.426 898.905 181.876 899.282 182.211C899.669 182.536 900.266 182.85 901.072 183.153L905.533 184.881C907.04 185.467 908.197 186.205 909.003 187.095C909.81 187.985 910.213 189.1 910.213 190.44C910.213 191.665 909.904 192.728 909.286 193.629C908.668 194.518 907.768 195.21 906.585 195.702C905.402 196.194 903.962 196.44 902.266 196.44Z" fill="#383838"/>
<line x1="422" y1="223.276" x2="1078.01" y2="223.276" stroke="#383838"/>
</svg>
