<svg width="1500" height="223" viewBox="0 0 1500 223" fill="none" xmlns="http://www.w3.org/2000/svg">
<rect width="1500" height="223" fill="#E5E5E5"/>
<rect width="1500" height="223" fill="white"/>
<path d="M601.424 140.615H606.512L593.069 154.372V149.315L601.424 140.615ZM596.901 149.033L607.077 161H602.303L594.325 151.451L596.901 149.033ZM589.645 140.615H593.383V161H589.645V140.615ZM617.075 161V140.615H630.173V143.819H620.782V149.19H629.608V152.394H620.782V157.765H630.173V161H617.075ZM639.751 140.615H644.148L649.016 149.378H648.294L653.351 140.615H657.717L650.461 152.582V161H646.755V152.582L639.751 140.615ZM679.919 143.819V140.615H696.252V143.819H689.106L689.939 142.971V161H686.232V142.971L687.065 143.819H679.919ZM702.607 161L709.549 140.615H714.198L720.857 161H716.962L715.548 156.603H707.978L706.534 161H702.607ZM708.921 153.807H714.669L711.81 145.044L708.921 153.807ZM743.188 140.615H748.277L734.833 154.372V149.315L743.188 140.615ZM738.665 149.033L748.842 161H744.068L736.09 151.451L738.665 149.033ZM731.41 140.615H735.147V161H731.41V140.615ZM758.84 161V140.615H771.938V143.819H762.546V149.19H771.372V152.394H762.546V157.765H771.938V161H758.84ZM781.986 161L788.928 140.615H793.577L800.236 161H796.341L794.927 156.603H787.357L785.913 161H781.986ZM788.3 153.807H794.048L791.189 145.044L788.3 153.807ZM807.169 140.615H811.315L816.247 157.733H815.304L820.173 141.966H822.686L827.743 157.482H826.895L832.077 140.615H836.255L829.25 161H825.356L821.367 148.97H821.712L817.723 161H813.828L807.169 140.615ZM842.922 161L849.863 140.615H854.512L861.171 161H857.276L855.863 156.603H848.293L846.848 161H842.922ZM849.235 153.807H854.983L852.125 145.044L849.235 153.807ZM868.133 140.615H872.531L877.399 149.378H876.677L881.734 140.615H886.1L878.844 152.582V161H875.138V152.582L868.133 140.615ZM902.266 161.44C900.853 161.44 899.549 161.194 898.355 160.702C897.172 160.21 896.209 159.461 895.466 158.456C894.733 157.451 894.34 156.173 894.288 154.624H897.931C897.931 155.409 898.125 156.053 898.512 156.555C898.9 157.058 899.418 157.435 900.067 157.686C900.727 157.927 901.449 158.047 902.235 158.047C902.988 158.047 903.658 157.948 904.245 157.749C904.842 157.55 905.308 157.267 905.643 156.901C905.988 156.524 906.161 156.079 906.161 155.566C906.161 154.886 905.951 154.352 905.533 153.964C905.124 153.577 904.465 153.221 903.554 152.896L899.533 151.294C897.963 150.677 896.759 149.959 895.921 149.143C895.084 148.326 894.665 147.201 894.665 145.766C894.665 144.112 895.319 142.772 896.628 141.746C897.937 140.72 899.764 140.207 902.109 140.207C904.391 140.207 906.156 140.741 907.402 141.808C908.647 142.866 909.354 144.342 909.522 146.237H905.878C905.742 145.431 905.376 144.787 904.779 144.306C904.182 143.813 903.292 143.567 902.109 143.567C901.062 143.567 900.235 143.787 899.628 144.227C899.02 144.656 898.717 145.201 898.717 145.86C898.717 146.426 898.905 146.876 899.282 147.211C899.669 147.536 900.266 147.85 901.072 148.153L905.533 149.881C907.04 150.467 908.197 151.205 909.003 152.095C909.81 152.985 910.213 154.1 910.213 155.44C910.213 156.665 909.904 157.728 909.286 158.629C908.668 159.518 907.768 160.21 906.585 160.702C905.402 161.194 903.962 161.44 902.266 161.44Z" fill="#383838"/>
<line x1="422" y1="188.276" x2="1078.01" y2="188.276" stroke="#383838"/>
</svg>
