<svg width="1500" height="161" viewBox="0 0 1500 161" fill="none" xmlns="http://www.w3.org/2000/svg">
<rect width="1500" height="161" fill="#E5E5E5"/>
<rect width="1500" height="161" fill="white"/>
<path d="M601.424 108.615H606.512L593.069 122.372V117.315L601.424 108.615ZM596.901 117.033L607.077 129H602.303L594.325 119.451L596.901 117.033ZM589.645 108.615H593.383V129H589.645V108.615ZM617.075 129V108.615H630.173V111.819H620.782V117.19H629.608V120.394H620.782V125.765H630.173V129H617.075ZM639.751 108.615H644.148L649.016 117.378H648.294L653.351 108.615H657.717L650.461 120.582V129H646.755V120.582L639.751 108.615ZM679.919 111.819V108.615H696.252V111.819H689.106L689.939 110.971V129H686.232V110.971L687.065 111.819H679.919ZM702.607 129L709.549 108.615H714.198L720.857 129H716.962L715.548 124.603H707.978L706.534 129H702.607ZM708.921 121.807H714.669L711.81 113.044L708.921 121.807ZM743.188 108.615H748.277L734.833 122.372V117.315L743.188 108.615ZM738.665 117.033L748.842 129H744.068L736.09 119.451L738.665 117.033ZM731.41 108.615H735.147V129H731.41V108.615ZM758.84 129V108.615H771.938V111.819H762.546V117.19H771.372V120.394H762.546V125.765H771.938V129H758.84ZM781.986 129L788.928 108.615H793.577L800.236 129H796.341L794.927 124.603H787.357L785.913 129H781.986ZM788.3 121.807H794.048L791.189 113.044L788.3 121.807ZM807.169 108.615H811.315L816.247 125.733H815.304L820.173 109.966H822.686L827.743 125.482H826.895L832.077 108.615H836.255L829.25 129H825.356L821.367 116.97H821.712L817.723 129H813.828L807.169 108.615ZM842.922 129L849.863 108.615H854.512L861.171 129H857.276L855.863 124.603H848.293L846.848 129H842.922ZM849.235 121.807H854.983L852.125 113.044L849.235 121.807ZM868.133 108.615H872.531L877.399 117.378H876.677L881.734 108.615H886.1L878.844 120.582V129H875.138V120.582L868.133 108.615ZM902.266 129.44C900.853 129.44 899.549 129.194 898.355 128.702C897.172 128.21 896.209 127.461 895.466 126.456C894.733 125.451 894.34 124.173 894.288 122.624H897.931C897.931 123.409 898.125 124.053 898.512 124.555C898.9 125.058 899.418 125.435 900.067 125.686C900.727 125.927 901.449 126.047 902.235 126.047C902.988 126.047 903.658 125.948 904.245 125.749C904.842 125.55 905.308 125.267 905.643 124.901C905.988 124.524 906.161 124.079 906.161 123.566C906.161 122.886 905.951 122.352 905.533 121.964C905.124 121.577 904.465 121.221 903.554 120.896L899.533 119.294C897.963 118.677 896.759 117.959 895.921 117.143C895.084 116.326 894.665 115.201 894.665 113.766C894.665 112.112 895.319 110.772 896.628 109.746C897.937 108.72 899.764 108.207 902.109 108.207C904.391 108.207 906.156 108.741 907.402 109.808C908.647 110.866 909.354 112.342 909.522 114.237H905.878C905.742 113.431 905.376 112.787 904.779 112.306C904.182 111.813 903.292 111.567 902.109 111.567C901.062 111.567 900.235 111.787 899.628 112.227C899.02 112.656 898.717 113.201 898.717 113.86C898.717 114.426 898.905 114.876 899.282 115.211C899.669 115.536 900.266 115.85 901.072 116.153L905.533 117.881C907.04 118.467 908.197 119.205 909.003 120.095C909.81 120.985 910.213 122.1 910.213 123.44C910.213 124.665 909.904 125.728 909.286 126.629C908.668 127.518 907.768 128.21 906.585 128.702C905.402 129.194 903.962 129.44 902.266 129.44Z" fill="#383838"/>
</svg>
