<svg width="1500" height="475" viewBox="0 0 1500 475" fill="none" xmlns="http://www.w3.org/2000/svg">
<rect width="1500" height="475" fill="#E5E5E5"/>
<rect width="1500" height="475" fill="white"/>
<path d="M645.998 179.44C644.208 179.44 642.648 179.016 641.318 178.168C639.999 177.309 638.973 176.084 638.24 174.493C637.507 172.901 637.141 170.99 637.141 168.76C637.141 166.457 637.518 164.525 638.271 162.965C639.036 161.395 640.083 160.212 641.412 159.416C642.753 158.61 644.281 158.207 645.998 158.207C648.375 158.207 650.228 158.782 651.558 159.934C652.898 161.086 653.757 162.583 654.134 164.426L650.176 165.148C649.851 164.08 649.333 163.216 648.621 162.557C647.909 161.897 647.035 161.567 645.998 161.567C645.087 161.567 644.266 161.834 643.533 162.368C642.8 162.892 642.213 163.688 641.774 164.756C641.344 165.824 641.13 167.158 641.13 168.76C641.13 170.268 641.318 171.566 641.695 172.655C642.083 173.744 642.637 174.582 643.36 175.168C644.082 175.754 644.962 176.047 645.998 176.047C647.328 176.047 648.354 175.697 649.077 174.995C649.809 174.283 650.176 173.378 650.176 172.278H654.134C654.134 173.796 653.804 175.089 653.144 176.157C652.495 177.215 651.563 178.026 650.349 178.592C649.134 179.157 647.684 179.44 645.998 179.44ZM665.403 158.615H669.109V167.127H677.998V158.615H681.705V179H677.998V170.362H669.109V179H665.403V158.615ZM692.23 179L699.171 158.615H703.82L710.479 179H706.584L705.171 174.603H697.601L696.156 179H692.23ZM698.543 171.807H704.291L701.433 163.044L698.543 171.807ZM724.738 158.615V175.765H733.125V179H721.032V158.615H724.738ZM747.169 158.615V175.765H755.556V179H743.463V158.615H747.169ZM765.863 179V158.615H778.961V161.819H769.569V167.19H778.395V170.394H769.569V175.765H778.961V179H765.863ZM791.177 158.615H795.228L804.494 173.158H804.212V158.615H807.918V179H804.149L794.286 163.578H794.883V179H791.177V158.615ZM828.108 179.44C826.444 179.44 824.941 179 823.601 178.121C822.261 177.241 821.193 176.016 820.397 174.446C819.612 172.865 819.219 171.022 819.219 168.917C819.219 167.253 819.46 165.761 819.942 164.441C820.434 163.122 821.114 161.997 821.983 161.065C822.852 160.133 823.873 159.426 825.046 158.945C826.219 158.453 827.491 158.207 828.862 158.207C830.768 158.207 832.364 158.62 833.652 159.447C834.951 160.274 835.961 161.578 836.683 163.358L832.883 164.237C832.349 163.368 831.731 162.709 831.029 162.258C830.338 161.798 829.553 161.567 828.674 161.567C827.669 161.567 826.752 161.866 825.925 162.463C825.098 163.049 824.439 163.892 823.947 164.991C823.454 166.09 823.208 167.399 823.208 168.917C823.208 170.341 823.423 171.587 823.852 172.655C824.292 173.723 824.905 174.555 825.69 175.152C826.475 175.749 827.386 176.047 828.422 176.047C829.302 176.047 830.087 175.854 830.778 175.466C831.48 175.069 832.029 174.503 832.427 173.77C832.836 173.037 833.04 172.153 833.04 171.116H833.856C833.856 172.812 833.652 174.283 833.244 175.529C832.846 176.775 832.223 177.738 831.375 178.419C830.527 179.099 829.438 179.44 828.108 179.44ZM833.574 179L833.04 174.508V170.99L828.454 170.896V168.54H836.589V179H833.574ZM848.8 179V158.615H861.898V161.819H852.506V167.19H861.333V170.394H852.506V175.765H861.898V179H848.8Z" fill="#383838"/>
<path d="M479.452 227.424H482.284V233.928H489.076V227.424H491.908V243H489.076V236.4H482.284V243H479.452V227.424ZM500.357 243.336C499.293 243.336 498.329 243.108 497.465 242.652C496.609 242.196 495.929 241.516 495.425 240.612C494.921 239.7 494.669 238.56 494.669 237.192C494.669 235.8 494.921 234.648 495.425 233.736C495.929 232.824 496.609 232.144 497.465 231.696C498.329 231.248 499.293 231.024 500.357 231.024C501.405 231.024 502.353 231.248 503.201 231.696C504.057 232.144 504.737 232.824 505.241 233.736C505.745 234.648 505.997 235.8 505.997 237.192C505.997 238.56 505.745 239.7 505.241 240.612C504.737 241.516 504.057 242.196 503.201 242.652C502.353 243.108 501.405 243.336 500.357 243.336ZM500.261 240.864C500.821 240.864 501.317 240.728 501.749 240.456C502.189 240.176 502.533 239.764 502.781 239.22C503.037 238.676 503.165 238 503.165 237.192C503.165 235.96 502.921 235.032 502.433 234.408C501.953 233.784 501.293 233.472 500.453 233.472C499.885 233.472 499.381 233.612 498.941 233.892C498.501 234.164 498.153 234.576 497.897 235.128C497.649 235.68 497.525 236.368 497.525 237.192C497.525 238.408 497.769 239.324 498.257 239.94C498.753 240.556 499.421 240.864 500.261 240.864ZM506.823 231.36H509.775L512.295 240.192H512.007L514.383 231.984H516.951L519.327 240.216H519.039L521.559 231.36H524.391L520.551 243H517.767L515.391 235.272H515.823L513.495 243H510.687L506.823 231.36ZM536.241 243.336C535.265 243.336 534.357 243.084 533.517 242.58C532.685 242.068 532.009 241.352 531.489 240.432C530.977 239.504 530.721 238.416 530.721 237.168C530.721 235.848 530.977 234.732 531.489 233.82C532.009 232.9 532.685 232.204 533.517 231.732C534.357 231.26 535.265 231.024 536.241 231.024C537.001 231.024 537.669 231.148 538.245 231.396C538.829 231.636 539.325 231.964 539.733 232.38C540.141 232.788 540.461 233.244 540.693 233.748C540.925 234.252 541.073 234.76 541.137 235.272L538.281 235.344C538.153 234.832 537.913 234.408 537.561 234.072C537.217 233.736 536.769 233.568 536.217 233.568C535.761 233.568 535.333 233.696 534.933 233.952C534.533 234.2 534.205 234.588 533.949 235.116C533.701 235.644 533.577 236.328 533.577 237.168C533.577 237.968 533.693 238.636 533.925 239.172C534.165 239.7 534.485 240.1 534.885 240.372C535.285 240.636 535.729 240.768 536.217 240.768C536.937 240.768 537.461 240.596 537.789 240.252C538.117 239.9 538.281 239.432 538.281 238.848H541.137C541.137 239.672 540.949 240.424 540.573 241.104C540.197 241.784 539.645 242.328 538.917 242.736C538.189 243.136 537.297 243.336 536.241 243.336ZM551.344 243L550.984 240.168V235.488C550.984 234.672 550.816 234.068 550.48 233.676C550.152 233.284 549.592 233.088 548.8 233.088C548.344 233.088 547.948 233.156 547.612 233.292C547.276 233.428 547.016 233.624 546.832 233.88C546.656 234.128 546.568 234.432 546.568 234.792H543.472C543.472 233.912 543.684 233.196 544.108 232.644C544.532 232.084 545.14 231.676 545.932 231.42C546.732 231.156 547.688 231.024 548.8 231.024C549.808 231.024 550.688 231.188 551.44 231.516C552.192 231.836 552.776 232.332 553.192 233.004C553.608 233.676 553.816 234.536 553.816 235.584V243H551.344ZM547.528 243.336C546.528 243.336 545.692 243.164 545.02 242.82C544.356 242.468 543.856 242.008 543.52 241.44C543.184 240.872 543.016 240.256 543.016 239.592C543.016 238.856 543.208 238.24 543.592 237.744C543.984 237.24 544.536 236.864 545.248 236.616C545.96 236.36 546.8 236.232 547.768 236.232C548.4 236.232 548.996 236.28 549.556 236.376C550.124 236.472 550.688 236.6 551.248 236.76V238.416C550.808 238.272 550.328 238.16 549.808 238.08C549.288 238 548.8 237.96 548.344 237.96C547.672 237.96 547.12 238.084 546.688 238.332C546.256 238.58 546.04 239 546.04 239.592C546.04 240.024 546.216 240.396 546.568 240.708C546.92 241.02 547.48 241.176 548.248 241.176C548.832 241.176 549.328 241.048 549.736 240.792C550.144 240.536 550.452 240.216 550.66 239.832C550.876 239.448 550.984 239.064 550.984 238.68H551.656C551.656 239.52 551.5 240.296 551.188 241.008C550.876 241.712 550.412 242.276 549.796 242.7C549.188 243.124 548.432 243.336 547.528 243.336ZM565.359 243V236.184C565.359 235.32 565.151 234.668 564.735 234.228C564.319 233.788 563.775 233.568 563.103 233.568C562.535 233.568 562.031 233.724 561.591 234.036C561.159 234.348 560.819 234.82 560.571 235.452C560.323 236.076 560.199 236.856 560.199 237.792H559.263C559.263 236.28 559.451 235.024 559.827 234.024C560.203 233.016 560.735 232.264 561.423 231.768C562.111 231.272 562.919 231.024 563.847 231.024C564.807 231.024 565.607 231.24 566.247 231.672C566.895 232.096 567.379 232.696 567.699 233.472C568.027 234.248 568.191 235.152 568.191 236.184V243H565.359ZM557.367 243V231.36H559.839L560.199 233.664V243H557.367ZM593.007 243V236.184C593.007 235.32 592.799 234.668 592.383 234.228C591.967 233.788 591.423 233.568 590.751 233.568C589.903 233.568 589.235 233.912 588.747 234.6C588.259 235.288 588.015 236.328 588.015 237.72H586.839C586.839 236.496 586.951 235.46 587.175 234.612C587.407 233.756 587.731 233.068 588.147 232.548C588.571 232.02 589.067 231.636 589.635 231.396C590.203 231.148 590.831 231.024 591.519 231.024C592.471 231.024 593.267 231.24 593.907 231.672C594.555 232.096 595.043 232.696 595.371 233.472C595.699 234.248 595.863 235.152 595.863 236.184V243H593.007ZM577.191 243V231.36H579.663L579.975 233.352C580.359 232.576 580.867 231.996 581.499 231.612C582.131 231.22 582.855 231.024 583.671 231.024C584.631 231.024 585.431 231.24 586.071 231.672C586.719 232.096 587.203 232.696 587.523 233.472C587.851 234.248 588.015 235.152 588.015 236.184V243H585.183V236.184C585.183 235.32 584.975 234.668 584.559 234.228C584.143 233.788 583.599 233.568 582.927 233.568C582.359 233.568 581.855 233.724 581.415 234.036C580.983 234.348 580.643 234.82 580.395 235.452C580.147 236.076 580.023 236.856 580.023 237.792V243H577.191ZM597.596 231.36H600.812L603.908 240.528H603.404L606.068 231.36H608.948L604.484 245.112C604.028 246.488 603.464 247.484 602.792 248.1C602.128 248.716 601.316 249.024 600.356 249.024C599.804 249.024 599.264 248.96 598.736 248.832C598.216 248.712 597.684 248.52 597.14 248.256V245.76C597.58 246.032 598.004 246.232 598.412 246.36C598.828 246.488 599.244 246.552 599.66 246.552C600.036 246.552 600.364 246.448 600.644 246.24C600.932 246.04 601.18 245.756 601.388 245.388C601.596 245.028 601.772 244.608 601.916 244.128L602.276 243L597.596 231.36ZM620.272 243.336C619.584 243.336 618.952 243.208 618.376 242.952C617.808 242.696 617.352 242.304 617.008 241.776C616.672 241.248 616.504 240.576 616.504 239.76V228.264H619.336V239.664C619.336 240.624 619.792 241.104 620.704 241.104C620.984 241.104 621.264 241.072 621.544 241.008C621.824 240.944 622.144 240.848 622.504 240.72L622.912 242.712C622.464 242.888 622.028 243.036 621.604 243.156C621.18 243.276 620.736 243.336 620.272 243.336ZM614.872 233.232V231.36H622.504V233.232H614.872ZM629.549 243.336C628.557 243.336 627.649 243.08 626.825 242.568C626.001 242.056 625.341 241.34 624.845 240.42C624.349 239.492 624.101 238.408 624.101 237.168C624.101 235.888 624.345 234.788 624.833 233.868C625.329 232.948 625.989 232.244 626.813 231.756C627.637 231.268 628.549 231.024 629.549 231.024C630.477 231.024 631.277 231.212 631.949 231.588C632.629 231.956 633.173 232.46 633.581 233.1C633.997 233.732 634.277 234.448 634.421 235.248C634.565 236.048 634.573 236.872 634.445 237.72H626.357V236.184H632.441L631.889 236.544C631.913 236.168 631.893 235.788 631.829 235.404C631.773 235.02 631.661 234.668 631.493 234.348C631.325 234.028 631.085 233.772 630.773 233.58C630.469 233.38 630.077 233.28 629.597 233.28C629.021 233.28 628.533 233.424 628.133 233.712C627.733 234 627.429 234.392 627.221 234.888C627.013 235.384 626.909 235.944 626.909 236.568V237.696C626.909 238.352 627.005 238.932 627.197 239.436C627.397 239.94 627.689 240.336 628.073 240.624C628.465 240.912 628.957 241.056 629.549 241.056C630.101 241.056 630.565 240.928 630.941 240.672C631.317 240.416 631.557 240.032 631.661 239.52H634.517C634.397 240.272 634.113 240.936 633.665 241.512C633.225 242.08 632.653 242.528 631.949 242.856C631.245 243.176 630.445 243.336 629.549 243.336ZM644.747 243L644.387 240.168V235.488C644.387 234.672 644.219 234.068 643.883 233.676C643.555 233.284 642.995 233.088 642.203 233.088C641.747 233.088 641.351 233.156 641.015 233.292C640.679 233.428 640.419 233.624 640.235 233.88C640.059 234.128 639.971 234.432 639.971 234.792H636.875C636.875 233.912 637.087 233.196 637.511 232.644C637.935 232.084 638.543 231.676 639.335 231.42C640.135 231.156 641.091 231.024 642.203 231.024C643.211 231.024 644.091 231.188 644.843 231.516C645.595 231.836 646.179 232.332 646.595 233.004C647.011 233.676 647.219 234.536 647.219 235.584V243H644.747ZM640.931 243.336C639.931 243.336 639.095 243.164 638.423 242.82C637.759 242.468 637.259 242.008 636.923 241.44C636.587 240.872 636.419 240.256 636.419 239.592C636.419 238.856 636.611 238.24 636.995 237.744C637.387 237.24 637.939 236.864 638.651 236.616C639.363 236.36 640.203 236.232 641.171 236.232C641.803 236.232 642.399 236.28 642.959 236.376C643.527 236.472 644.091 236.6 644.651 236.76V238.416C644.211 238.272 643.731 238.16 643.211 238.08C642.691 238 642.203 237.96 641.747 237.96C641.075 237.96 640.523 238.084 640.091 238.332C639.659 238.58 639.443 239 639.443 239.592C639.443 240.024 639.619 240.396 639.971 240.708C640.323 241.02 640.883 241.176 641.651 241.176C642.235 241.176 642.731 241.048 643.139 240.792C643.547 240.536 643.855 240.216 644.063 239.832C644.279 239.448 644.387 239.064 644.387 238.68H645.059C645.059 239.52 644.903 240.296 644.591 241.008C644.279 241.712 643.815 242.276 643.199 242.7C642.591 243.124 641.835 243.336 640.931 243.336ZM666.586 243V236.184C666.586 235.32 666.378 234.668 665.962 234.228C665.546 233.788 665.002 233.568 664.33 233.568C663.482 233.568 662.814 233.912 662.326 234.6C661.838 235.288 661.594 236.328 661.594 237.72H660.418C660.418 236.496 660.53 235.46 660.754 234.612C660.986 233.756 661.31 233.068 661.726 232.548C662.15 232.02 662.646 231.636 663.214 231.396C663.782 231.148 664.41 231.024 665.098 231.024C666.05 231.024 666.846 231.24 667.486 231.672C668.134 232.096 668.622 232.696 668.95 233.472C669.278 234.248 669.442 235.152 669.442 236.184V243H666.586ZM650.77 243V231.36H653.242L653.554 233.352C653.938 232.576 654.446 231.996 655.078 231.612C655.71 231.22 656.434 231.024 657.25 231.024C658.21 231.024 659.01 231.24 659.65 231.672C660.298 232.096 660.782 232.696 661.102 233.472C661.43 234.248 661.594 235.152 661.594 236.184V243H658.762V236.184C658.762 235.32 658.554 234.668 658.138 234.228C657.722 233.788 657.178 233.568 656.506 233.568C655.938 233.568 655.434 233.724 654.994 234.036C654.562 234.348 654.222 234.82 653.974 235.452C653.726 236.076 653.602 236.856 653.602 237.792V243H650.77ZM685.838 243L685.478 240.168V235.488C685.478 234.672 685.31 234.068 684.974 233.676C684.646 233.284 684.086 233.088 683.294 233.088C682.838 233.088 682.442 233.156 682.106 233.292C681.77 233.428 681.51 233.624 681.326 233.88C681.15 234.128 681.062 234.432 681.062 234.792H677.966C677.966 233.912 678.178 233.196 678.602 232.644C679.026 232.084 679.634 231.676 680.426 231.42C681.226 231.156 682.182 231.024 683.294 231.024C684.302 231.024 685.182 231.188 685.934 231.516C686.686 231.836 687.27 232.332 687.686 233.004C688.102 233.676 688.31 234.536 688.31 235.584V243H685.838ZM682.022 243.336C681.022 243.336 680.186 243.164 679.514 242.82C678.85 242.468 678.35 242.008 678.014 241.44C677.678 240.872 677.51 240.256 677.51 239.592C677.51 238.856 677.702 238.24 678.086 237.744C678.478 237.24 679.03 236.864 679.742 236.616C680.454 236.36 681.294 236.232 682.262 236.232C682.894 236.232 683.49 236.28 684.05 236.376C684.618 236.472 685.182 236.6 685.742 236.76V238.416C685.302 238.272 684.822 238.16 684.302 238.08C683.782 238 683.294 237.96 682.838 237.96C682.166 237.96 681.614 238.084 681.182 238.332C680.75 238.58 680.534 239 680.534 239.592C680.534 240.024 680.71 240.396 681.062 240.708C681.414 241.02 681.974 241.176 682.742 241.176C683.326 241.176 683.822 241.048 684.23 240.792C684.638 240.536 684.946 240.216 685.154 239.832C685.37 239.448 685.478 239.064 685.478 238.68H686.15C686.15 239.52 685.994 240.296 685.682 241.008C685.37 241.712 684.906 242.276 684.29 242.7C683.682 243.124 682.926 243.336 682.022 243.336ZM699.853 243V236.184C699.853 235.32 699.645 234.668 699.229 234.228C698.813 233.788 698.269 233.568 697.597 233.568C697.029 233.568 696.525 233.724 696.085 234.036C695.653 234.348 695.313 234.82 695.065 235.452C694.817 236.076 694.693 236.856 694.693 237.792H693.757C693.757 236.28 693.945 235.024 694.321 234.024C694.697 233.016 695.229 232.264 695.917 231.768C696.605 231.272 697.413 231.024 698.341 231.024C699.301 231.024 700.101 231.24 700.741 231.672C701.389 232.096 701.873 232.696 702.193 233.472C702.521 234.248 702.685 235.152 702.685 236.184V243H699.853ZM691.861 243V231.36H694.333L694.693 233.664V243H691.861ZM710.51 243.336C709.534 243.336 708.642 243.08 707.834 242.568C707.034 242.048 706.394 241.324 705.914 240.396C705.442 239.46 705.206 238.368 705.206 237.12C705.206 235.888 705.434 234.816 705.89 233.904C706.354 232.984 706.97 232.276 707.738 231.78C708.514 231.276 709.374 231.024 710.318 231.024C711.182 231.024 711.93 231.232 712.562 231.648C713.194 232.056 713.678 232.664 714.014 233.472C714.35 234.28 714.518 235.272 714.518 236.448H713.63C713.63 235.84 713.506 235.324 713.258 234.9C713.01 234.468 712.682 234.14 712.274 233.916C711.874 233.684 711.438 233.568 710.966 233.568C710.398 233.568 709.894 233.716 709.454 234.012C709.022 234.308 708.682 234.724 708.434 235.26C708.186 235.788 708.062 236.408 708.062 237.12C708.062 237.856 708.186 238.496 708.434 239.04C708.682 239.584 709.022 240.008 709.454 240.312C709.894 240.616 710.39 240.768 710.942 240.768C711.39 240.768 711.818 240.648 712.226 240.408C712.642 240.16 712.978 239.816 713.234 239.376C713.498 238.936 713.63 238.424 713.63 237.84H714.518C714.518 239.064 714.334 240.084 713.966 240.9C713.606 241.708 713.122 242.316 712.514 242.724C711.906 243.132 711.238 243.336 710.51 243.336ZM714.158 243L713.63 240.12V226.536H716.486V243H714.158ZM725.827 243V227.424H728.659V243H725.827ZM742.305 243.336C741.329 243.336 740.437 243.08 739.629 242.568C738.829 242.048 738.189 241.324 737.709 240.396C737.237 239.46 737.001 238.368 737.001 237.12C737.001 235.888 737.229 234.816 737.685 233.904C738.149 232.984 738.765 232.276 739.533 231.78C740.309 231.276 741.169 231.024 742.113 231.024C742.977 231.024 743.725 231.232 744.357 231.648C744.989 232.056 745.473 232.664 745.809 233.472C746.145 234.28 746.313 235.272 746.313 236.448H745.425C745.425 235.84 745.301 235.324 745.053 234.9C744.805 234.468 744.477 234.14 744.069 233.916C743.669 233.684 743.233 233.568 742.761 233.568C742.193 233.568 741.689 233.716 741.249 234.012C740.817 234.308 740.477 234.724 740.229 235.26C739.981 235.788 739.857 236.408 739.857 237.12C739.857 237.856 739.981 238.496 740.229 239.04C740.477 239.584 740.817 240.008 741.249 240.312C741.689 240.616 742.185 240.768 742.737 240.768C743.185 240.768 743.613 240.648 744.021 240.408C744.437 240.16 744.773 239.816 745.029 239.376C745.293 238.936 745.425 238.424 745.425 237.84H746.313C746.313 239.064 746.129 240.084 745.761 240.9C745.401 241.708 744.917 242.316 744.309 242.724C743.701 243.132 743.033 243.336 742.305 243.336ZM745.953 243L745.425 240.12V226.536H748.281V243H745.953ZM756.496 243.336C755.504 243.336 754.596 243.08 753.772 242.568C752.948 242.056 752.288 241.34 751.792 240.42C751.296 239.492 751.048 238.408 751.048 237.168C751.048 235.888 751.292 234.788 751.78 233.868C752.276 232.948 752.936 232.244 753.76 231.756C754.584 231.268 755.496 231.024 756.496 231.024C757.424 231.024 758.224 231.212 758.896 231.588C759.576 231.956 760.12 232.46 760.528 233.1C760.944 233.732 761.224 234.448 761.368 235.248C761.512 236.048 761.52 236.872 761.392 237.72H753.304V236.184H759.388L758.836 236.544C758.86 236.168 758.84 235.788 758.776 235.404C758.72 235.02 758.608 234.668 758.44 234.348C758.272 234.028 758.032 233.772 757.72 233.58C757.416 233.38 757.024 233.28 756.544 233.28C755.968 233.28 755.48 233.424 755.08 233.712C754.68 234 754.376 234.392 754.168 234.888C753.96 235.384 753.856 235.944 753.856 236.568V237.696C753.856 238.352 753.952 238.932 754.144 239.436C754.344 239.94 754.636 240.336 755.02 240.624C755.412 240.912 755.904 241.056 756.496 241.056C757.048 241.056 757.512 240.928 757.888 240.672C758.264 240.416 758.504 240.032 758.608 239.52H761.464C761.344 240.272 761.06 240.936 760.612 241.512C760.172 242.08 759.6 242.528 758.896 242.856C758.192 243.176 757.392 243.336 756.496 243.336ZM768.622 243.336C767.502 243.336 766.538 243.184 765.73 242.88C764.93 242.568 764.314 242.124 763.882 241.548C763.45 240.964 763.23 240.264 763.222 239.448H765.838C765.862 240.024 766.09 240.444 766.522 240.708C766.954 240.972 767.542 241.104 768.286 241.104C768.694 241.104 769.054 241.044 769.366 240.924C769.686 240.804 769.934 240.64 770.11 240.432C770.286 240.224 770.374 239.992 770.374 239.736C770.374 239.408 770.254 239.152 770.014 238.968C769.782 238.776 769.406 238.6 768.886 238.44L766.342 237.528C765.43 237.2 764.73 236.768 764.242 236.232C763.754 235.696 763.51 235.056 763.51 234.312C763.51 233.328 763.954 232.536 764.842 231.936C765.738 231.328 766.934 231.024 768.43 231.024C769.918 231.024 771.066 231.352 771.874 232.008C772.69 232.656 773.11 233.48 773.134 234.48H770.47C770.43 234.096 770.246 233.792 769.918 233.568C769.59 233.344 769.094 233.232 768.43 233.232C767.83 233.232 767.358 233.356 767.014 233.604C766.678 233.844 766.51 234.128 766.51 234.456C766.51 235.008 766.982 235.424 767.926 235.704L770.686 236.736C771.582 237.04 772.278 237.432 772.774 237.912C773.27 238.392 773.518 239 773.518 239.736C773.518 240.352 773.31 240.936 772.894 241.488C772.486 242.032 771.914 242.476 771.178 242.82C770.442 243.164 769.59 243.336 768.622 243.336ZM777.99 229.224C777.438 229.224 777.006 229.08 776.694 228.792C776.39 228.496 776.238 228.088 776.238 227.568C776.238 227.064 776.39 226.664 776.694 226.368C777.006 226.064 777.438 225.912 777.99 225.912C778.534 225.912 778.962 226.064 779.274 226.368C779.586 226.664 779.742 227.064 779.742 227.568C779.742 228.088 779.586 228.496 779.274 228.792C778.962 229.08 778.534 229.224 777.99 229.224ZM776.574 243V231.312H779.406V243H776.574ZM788.097 249.024C786.761 249.024 785.617 248.84 784.665 248.472C783.721 248.104 782.997 247.62 782.493 247.02C781.989 246.428 781.737 245.784 781.737 245.088C781.737 244.264 782.037 243.624 782.637 243.168C783.237 242.72 783.993 242.496 784.905 242.496L786.969 243.264C786.185 243.264 785.581 243.412 785.157 243.708C784.733 244.004 784.521 244.416 784.521 244.944C784.521 245.496 784.837 245.936 785.469 246.264C786.109 246.6 786.985 246.768 788.097 246.768C788.905 246.768 789.605 246.648 790.197 246.408C790.789 246.168 791.245 245.856 791.565 245.472C791.893 245.088 792.057 244.68 792.057 244.248C792.057 243.96 791.961 243.724 791.769 243.54C791.577 243.356 791.281 243.264 790.881 243.264H786.969C786.185 243.264 785.469 243.14 784.821 242.892C784.181 242.636 783.669 242.296 783.285 241.872C782.909 241.44 782.721 240.96 782.721 240.432C782.721 239.944 782.857 239.524 783.129 239.172C783.401 238.812 783.769 238.536 784.233 238.344C784.705 238.152 785.233 238.056 785.817 238.056L786.537 238.992C786.305 238.992 786.081 239.04 785.865 239.136C785.657 239.224 785.485 239.356 785.349 239.532C785.213 239.708 785.145 239.928 785.145 240.192C785.145 240.512 785.281 240.772 785.553 240.972C785.825 241.172 786.297 241.272 786.969 241.272H790.881C792.121 241.272 793.093 241.5 793.797 241.956C794.509 242.412 794.865 243.112 794.865 244.056C794.865 244.896 794.589 245.692 794.037 246.444C793.485 247.204 792.701 247.824 791.685 248.304C790.677 248.784 789.481 249.024 788.097 249.024ZM788.241 239.4C787.321 239.4 786.477 239.228 785.709 238.884C784.949 238.532 784.341 238.044 783.885 237.42C783.429 236.796 783.201 236.064 783.201 235.224C783.201 234.368 783.429 233.624 783.885 232.992C784.341 232.36 784.949 231.876 785.709 231.54C786.477 231.196 787.321 231.024 788.241 231.024C789.137 231.024 789.965 231.196 790.725 231.54C791.485 231.876 792.097 232.36 792.561 232.992C793.025 233.624 793.257 234.368 793.257 235.224C793.257 236.064 793.025 236.796 792.561 237.42C792.097 238.044 791.485 238.532 790.725 238.884C789.965 239.228 789.137 239.4 788.241 239.4ZM788.265 237.432C789.001 237.432 789.553 237.22 789.921 236.796C790.289 236.372 790.473 235.848 790.473 235.224C790.473 234.552 790.285 234.012 789.909 233.604C789.541 233.196 788.985 232.992 788.241 232.992C787.521 232.992 786.969 233.196 786.585 233.604C786.201 234.012 786.009 234.552 786.009 235.224C786.009 235.848 786.201 236.372 786.585 236.796C786.977 237.22 787.537 237.432 788.265 237.432ZM792.369 232.896L791.073 232.152C791.073 231.456 791.233 230.848 791.553 230.328C791.881 229.8 792.313 229.392 792.849 229.104C793.393 228.816 793.993 228.672 794.649 228.672L794.505 231.384C793.809 231.384 793.277 231.508 792.909 231.756C792.549 231.996 792.369 232.376 792.369 232.896ZM804.97 243V236.184C804.97 235.32 804.762 234.668 804.346 234.228C803.93 233.788 803.386 233.568 802.714 233.568C802.146 233.568 801.642 233.724 801.202 234.036C800.77 234.348 800.43 234.82 800.182 235.452C799.934 236.076 799.81 236.856 799.81 237.792H798.874C798.874 236.28 799.062 235.024 799.438 234.024C799.814 233.016 800.346 232.264 801.034 231.768C801.722 231.272 802.53 231.024 803.458 231.024C804.418 231.024 805.218 231.24 805.858 231.672C806.506 232.096 806.99 232.696 807.31 233.472C807.638 234.248 807.802 235.152 807.802 236.184V243H804.97ZM796.978 243V231.36H799.45L799.81 233.664V243H796.978ZM824.218 243L823.858 240.168V235.488C823.858 234.672 823.69 234.068 823.354 233.676C823.026 233.284 822.466 233.088 821.674 233.088C821.218 233.088 820.822 233.156 820.486 233.292C820.15 233.428 819.89 233.624 819.706 233.88C819.53 234.128 819.442 234.432 819.442 234.792H816.346C816.346 233.912 816.558 233.196 816.982 232.644C817.406 232.084 818.014 231.676 818.806 231.42C819.606 231.156 820.562 231.024 821.674 231.024C822.682 231.024 823.562 231.188 824.314 231.516C825.066 231.836 825.65 232.332 826.066 233.004C826.482 233.676 826.69 234.536 826.69 235.584V243H824.218ZM820.402 243.336C819.402 243.336 818.566 243.164 817.894 242.82C817.23 242.468 816.73 242.008 816.394 241.44C816.058 240.872 815.89 240.256 815.89 239.592C815.89 238.856 816.082 238.24 816.466 237.744C816.858 237.24 817.41 236.864 818.122 236.616C818.834 236.36 819.674 236.232 820.642 236.232C821.274 236.232 821.87 236.28 822.43 236.376C822.998 236.472 823.562 236.6 824.122 236.76V238.416C823.682 238.272 823.202 238.16 822.682 238.08C822.162 238 821.674 237.96 821.218 237.96C820.546 237.96 819.994 238.084 819.562 238.332C819.13 238.58 818.914 239 818.914 239.592C818.914 240.024 819.09 240.396 819.442 240.708C819.794 241.02 820.354 241.176 821.122 241.176C821.706 241.176 822.202 241.048 822.61 240.792C823.018 240.536 823.326 240.216 823.534 239.832C823.75 239.448 823.858 239.064 823.858 238.68H824.53C824.53 239.52 824.374 240.296 824.062 241.008C823.75 241.712 823.286 242.276 822.67 242.7C822.062 243.124 821.306 243.336 820.402 243.336ZM834.537 243.336C833.561 243.336 832.669 243.08 831.861 242.568C831.061 242.048 830.421 241.324 829.941 240.396C829.469 239.46 829.233 238.368 829.233 237.12C829.233 235.888 829.461 234.816 829.917 233.904C830.381 232.984 830.997 232.276 831.765 231.78C832.541 231.276 833.401 231.024 834.345 231.024C835.209 231.024 835.957 231.232 836.589 231.648C837.221 232.056 837.705 232.664 838.041 233.472C838.377 234.28 838.545 235.272 838.545 236.448H837.657C837.657 235.84 837.533 235.324 837.285 234.9C837.037 234.468 836.709 234.14 836.301 233.916C835.901 233.684 835.465 233.568 834.993 233.568C834.425 233.568 833.921 233.716 833.481 234.012C833.049 234.308 832.709 234.724 832.461 235.26C832.213 235.788 832.089 236.408 832.089 237.12C832.089 237.856 832.213 238.496 832.461 239.04C832.709 239.584 833.049 240.008 833.481 240.312C833.921 240.616 834.417 240.768 834.969 240.768C835.417 240.768 835.845 240.648 836.253 240.408C836.669 240.16 837.005 239.816 837.261 239.376C837.525 238.936 837.657 238.424 837.657 237.84H838.545C838.545 239.064 838.361 240.084 837.993 240.9C837.633 241.708 837.149 242.316 836.541 242.724C835.933 243.132 835.265 243.336 834.537 243.336ZM838.185 243L837.657 240.12V226.536H840.513V243H838.185ZM848.727 243.336C847.607 243.336 846.643 243.184 845.835 242.88C845.035 242.568 844.419 242.124 843.987 241.548C843.555 240.964 843.335 240.264 843.327 239.448H845.943C845.967 240.024 846.195 240.444 846.627 240.708C847.059 240.972 847.647 241.104 848.391 241.104C848.799 241.104 849.159 241.044 849.471 240.924C849.791 240.804 850.039 240.64 850.215 240.432C850.391 240.224 850.479 239.992 850.479 239.736C850.479 239.408 850.359 239.152 850.119 238.968C849.887 238.776 849.511 238.6 848.991 238.44L846.447 237.528C845.535 237.2 844.835 236.768 844.347 236.232C843.859 235.696 843.615 235.056 843.615 234.312C843.615 233.328 844.059 232.536 844.947 231.936C845.843 231.328 847.039 231.024 848.535 231.024C850.023 231.024 851.171 231.352 851.979 232.008C852.795 232.656 853.215 233.48 853.239 234.48H850.575C850.535 234.096 850.351 233.792 850.023 233.568C849.695 233.344 849.199 233.232 848.535 233.232C847.935 233.232 847.463 233.356 847.119 233.604C846.783 233.844 846.615 234.128 846.615 234.456C846.615 235.008 847.087 235.424 848.031 235.704L850.791 236.736C851.687 237.04 852.383 237.432 852.879 237.912C853.375 238.392 853.623 239 853.623 239.736C853.623 240.352 853.415 240.936 852.999 241.488C852.591 242.032 852.019 242.476 851.283 242.82C850.547 243.164 849.695 243.336 848.727 243.336ZM865.845 243.336C865.157 243.336 864.525 243.208 863.949 242.952C863.381 242.696 862.925 242.304 862.581 241.776C862.245 241.248 862.077 240.576 862.077 239.76V228.264H864.909V239.664C864.909 240.624 865.365 241.104 866.277 241.104C866.557 241.104 866.837 241.072 867.117 241.008C867.397 240.944 867.717 240.848 868.077 240.72L868.485 242.712C868.037 242.888 867.601 243.036 867.177 243.156C866.753 243.276 866.309 243.336 865.845 243.336ZM860.445 233.232V231.36H868.077V233.232H860.445ZM878.77 243V236.184C878.77 235.32 878.562 234.668 878.146 234.228C877.73 233.788 877.186 233.568 876.514 233.568C875.946 233.568 875.442 233.724 875.002 234.036C874.57 234.348 874.23 234.82 873.982 235.452C873.734 236.076 873.61 236.856 873.61 237.792H872.674C872.674 236.28 872.862 235.024 873.238 234.024C873.614 233.016 874.146 232.264 874.834 231.768C875.522 231.272 876.33 231.024 877.258 231.024C878.218 231.024 879.018 231.24 879.658 231.672C880.306 232.096 880.79 232.696 881.11 233.472C881.438 234.248 881.602 235.152 881.602 236.184V243H878.77ZM870.778 243V226.536H873.61V243H870.778ZM892.547 243L892.187 240.168V235.488C892.187 234.672 892.019 234.068 891.683 233.676C891.355 233.284 890.795 233.088 890.003 233.088C889.547 233.088 889.151 233.156 888.815 233.292C888.479 233.428 888.219 233.624 888.035 233.88C887.859 234.128 887.771 234.432 887.771 234.792H884.675C884.675 233.912 884.887 233.196 885.311 232.644C885.735 232.084 886.343 231.676 887.135 231.42C887.935 231.156 888.891 231.024 890.003 231.024C891.011 231.024 891.891 231.188 892.643 231.516C893.395 231.836 893.979 232.332 894.395 233.004C894.811 233.676 895.019 234.536 895.019 235.584V243H892.547ZM888.731 243.336C887.731 243.336 886.895 243.164 886.223 242.82C885.559 242.468 885.059 242.008 884.723 241.44C884.387 240.872 884.219 240.256 884.219 239.592C884.219 238.856 884.411 238.24 884.795 237.744C885.187 237.24 885.739 236.864 886.451 236.616C887.163 236.36 888.003 236.232 888.971 236.232C889.603 236.232 890.199 236.28 890.759 236.376C891.327 236.472 891.891 236.6 892.451 236.76V238.416C892.011 238.272 891.531 238.16 891.011 238.08C890.491 238 890.003 237.96 889.547 237.96C888.875 237.96 888.323 238.084 887.891 238.332C887.459 238.58 887.243 239 887.243 239.592C887.243 240.024 887.419 240.396 887.771 240.708C888.123 241.02 888.683 241.176 889.451 241.176C890.035 241.176 890.531 241.048 890.939 240.792C891.347 240.536 891.655 240.216 891.863 239.832C892.079 239.448 892.187 239.064 892.187 238.68H892.859C892.859 239.52 892.703 240.296 892.391 241.008C892.079 241.712 891.615 242.276 890.999 242.7C890.391 243.124 889.635 243.336 888.731 243.336ZM902.506 243.336C901.818 243.336 901.186 243.208 900.61 242.952C900.042 242.696 899.586 242.304 899.242 241.776C898.906 241.248 898.738 240.576 898.738 239.76V228.264H901.57V239.664C901.57 240.624 902.026 241.104 902.938 241.104C903.218 241.104 903.498 241.072 903.778 241.008C904.058 240.944 904.378 240.848 904.738 240.72L905.146 242.712C904.698 242.888 904.262 243.036 903.838 243.156C903.414 243.276 902.97 243.336 902.506 243.336ZM897.106 233.232V231.36H904.738V233.232H897.106ZM917.253 243.336C916.261 243.336 915.353 243.08 914.529 242.568C913.705 242.056 913.045 241.34 912.549 240.42C912.053 239.492 911.805 238.408 911.805 237.168C911.805 235.888 912.049 234.788 912.537 233.868C913.033 232.948 913.693 232.244 914.517 231.756C915.341 231.268 916.253 231.024 917.253 231.024C918.181 231.024 918.981 231.212 919.653 231.588C920.333 231.956 920.877 232.46 921.285 233.1C921.701 233.732 921.981 234.448 922.125 235.248C922.269 236.048 922.277 236.872 922.149 237.72H914.061V236.184H920.145L919.593 236.544C919.617 236.168 919.597 235.788 919.533 235.404C919.477 235.02 919.365 234.668 919.197 234.348C919.029 234.028 918.789 233.772 918.477 233.58C918.173 233.38 917.781 233.28 917.301 233.28C916.725 233.28 916.237 233.424 915.837 233.712C915.437 234 915.133 234.392 914.925 234.888C914.717 235.384 914.613 235.944 914.613 236.568V237.696C914.613 238.352 914.709 238.932 914.901 239.436C915.101 239.94 915.393 240.336 915.777 240.624C916.169 240.912 916.661 241.056 917.253 241.056C917.805 241.056 918.269 240.928 918.645 240.672C919.021 240.416 919.261 240.032 919.365 239.52H922.221C922.101 240.272 921.817 240.936 921.369 241.512C920.929 242.08 920.357 242.528 919.653 242.856C918.949 243.176 918.149 243.336 917.253 243.336ZM925.708 243V229.944C925.708 229.104 925.872 228.42 926.2 227.892C926.528 227.364 926.96 226.976 927.496 226.728C928.04 226.472 928.628 226.344 929.26 226.344C929.652 226.344 930.056 226.372 930.472 226.428C930.888 226.484 931.292 226.552 931.684 226.632L931.132 228.816C930.932 228.744 930.724 228.688 930.508 228.648C930.292 228.6 930.084 228.576 929.884 228.576C929.66 228.576 929.448 228.62 929.248 228.708C929.048 228.788 928.884 228.932 928.756 229.14C928.628 229.348 928.564 229.632 928.564 229.992V243H925.708ZM923.98 233.232V231.36H930.7V233.232H923.98ZM933.92 243V229.944C933.92 229.104 934.084 228.42 934.412 227.892C934.74 227.364 935.172 226.976 935.708 226.728C936.252 226.472 936.84 226.344 937.472 226.344C937.864 226.344 938.268 226.372 938.684 226.428C939.1 226.484 939.504 226.552 939.896 226.632L939.344 228.816C939.144 228.744 938.936 228.688 938.72 228.648C938.504 228.6 938.296 228.576 938.096 228.576C937.872 228.576 937.66 228.62 937.46 228.708C937.26 228.788 937.096 228.932 936.968 229.14C936.84 229.348 936.776 229.632 936.776 229.992V243H933.92ZM932.192 233.232V231.36H938.912V233.232H932.192ZM945.805 243.336C944.813 243.336 943.905 243.08 943.081 242.568C942.257 242.056 941.597 241.34 941.101 240.42C940.605 239.492 940.357 238.408 940.357 237.168C940.357 235.888 940.601 234.788 941.089 233.868C941.585 232.948 942.245 232.244 943.069 231.756C943.893 231.268 944.805 231.024 945.805 231.024C946.733 231.024 947.533 231.212 948.205 231.588C948.885 231.956 949.429 232.46 949.837 233.1C950.253 233.732 950.533 234.448 950.677 235.248C950.821 236.048 950.829 236.872 950.701 237.72H942.613V236.184H948.697L948.145 236.544C948.169 236.168 948.149 235.788 948.085 235.404C948.029 235.02 947.917 234.668 947.749 234.348C947.581 234.028 947.341 233.772 947.029 233.58C946.725 233.38 946.333 233.28 945.853 233.28C945.277 233.28 944.789 233.424 944.389 233.712C943.989 234 943.685 234.392 943.477 234.888C943.269 235.384 943.165 235.944 943.165 236.568V237.696C943.165 238.352 943.261 238.932 943.453 239.436C943.653 239.94 943.945 240.336 944.329 240.624C944.721 240.912 945.213 241.056 945.805 241.056C946.357 241.056 946.821 240.928 947.197 240.672C947.573 240.416 947.813 240.032 947.917 239.52H950.773C950.653 240.272 950.369 240.936 949.921 241.512C949.481 242.08 948.909 242.528 948.205 242.856C947.501 243.176 946.701 243.336 945.805 243.336ZM958.003 243.336C957.027 243.336 956.119 243.084 955.279 242.58C954.447 242.068 953.771 241.352 953.251 240.432C952.739 239.504 952.483 238.416 952.483 237.168C952.483 235.848 952.739 234.732 953.251 233.82C953.771 232.9 954.447 232.204 955.279 231.732C956.119 231.26 957.027 231.024 958.003 231.024C958.763 231.024 959.431 231.148 960.007 231.396C960.591 231.636 961.087 231.964 961.495 232.38C961.903 232.788 962.223 233.244 962.455 233.748C962.687 234.252 962.835 234.76 962.899 235.272L960.043 235.344C959.915 234.832 959.675 234.408 959.323 234.072C958.979 233.736 958.531 233.568 957.979 233.568C957.523 233.568 957.095 233.696 956.695 233.952C956.295 234.2 955.967 234.588 955.711 235.116C955.463 235.644 955.339 236.328 955.339 237.168C955.339 237.968 955.455 238.636 955.687 239.172C955.927 239.7 956.247 240.1 956.647 240.372C957.047 240.636 957.491 240.768 957.979 240.768C958.699 240.768 959.223 240.596 959.551 240.252C959.879 239.9 960.043 239.432 960.043 238.848H962.899C962.899 239.672 962.711 240.424 962.335 241.104C961.959 241.784 961.407 242.328 960.679 242.736C959.951 243.136 959.059 243.336 958.003 243.336ZM969.627 243.336C968.939 243.336 968.307 243.208 967.731 242.952C967.163 242.696 966.707 242.304 966.363 241.776C966.027 241.248 965.859 240.576 965.859 239.76V228.264H968.691V239.664C968.691 240.624 969.147 241.104 970.059 241.104C970.339 241.104 970.619 241.072 970.899 241.008C971.179 240.944 971.499 240.848 971.859 240.72L972.267 242.712C971.819 242.888 971.383 243.036 970.959 243.156C970.535 243.276 970.091 243.336 969.627 243.336ZM964.227 233.232V231.36H971.859V233.232H964.227ZM976.215 229.224C975.663 229.224 975.231 229.08 974.919 228.792C974.615 228.496 974.463 228.088 974.463 227.568C974.463 227.064 974.615 226.664 974.919 226.368C975.231 226.064 975.663 225.912 976.215 225.912C976.759 225.912 977.187 226.064 977.499 226.368C977.811 226.664 977.967 227.064 977.967 227.568C977.967 228.088 977.811 228.496 977.499 228.792C977.187 229.08 976.759 229.224 976.215 229.224ZM974.799 243V231.312H977.631V243H974.799ZM979.89 231.36H983.154L985.938 240.576H985.722L988.506 231.36H991.77L987.426 243H984.234L979.89 231.36ZM998.024 243.336C997.032 243.336 996.124 243.08 995.3 242.568C994.476 242.056 993.816 241.34 993.32 240.42C992.824 239.492 992.576 238.408 992.576 237.168C992.576 235.888 992.82 234.788 993.308 233.868C993.804 232.948 994.464 232.244 995.288 231.756C996.112 231.268 997.024 231.024 998.024 231.024C998.952 231.024 999.752 231.212 1000.42 231.588C1001.1 231.956 1001.65 232.46 1002.06 233.1C1002.47 233.732 1002.75 234.448 1002.9 235.248C1003.04 236.048 1003.05 236.872 1002.92 237.72H994.832V236.184H1000.92L1000.36 236.544C1000.39 236.168 1000.37 235.788 1000.3 235.404C1000.25 235.02 1000.14 234.668 999.968 234.348C999.8 234.028 999.56 233.772 999.248 233.58C998.944 233.38 998.552 233.28 998.072 233.28C997.496 233.28 997.008 233.424 996.608 233.712C996.208 234 995.904 234.392 995.696 234.888C995.488 235.384 995.384 235.944 995.384 236.568V237.696C995.384 238.352 995.48 238.932 995.672 239.436C995.872 239.94 996.164 240.336 996.548 240.624C996.94 240.912 997.432 241.056 998.024 241.056C998.576 241.056 999.04 240.928 999.416 240.672C999.792 240.416 1000.03 240.032 1000.14 239.52H1002.99C1002.87 240.272 1002.59 240.936 1002.14 241.512C1001.7 242.08 1001.13 242.528 1000.42 242.856C999.72 243.176 998.92 243.336 998.024 243.336ZM1005.81 243V226.536H1008.64V243H1005.81ZM1010.74 231.36H1013.96L1017.05 240.528H1016.55L1019.21 231.36H1022.09L1017.63 245.112C1017.17 246.488 1016.61 247.484 1015.94 248.1C1015.27 248.716 1014.46 249.024 1013.5 249.024C1012.95 249.024 1012.41 248.96 1011.88 248.832C1011.36 248.712 1010.83 248.52 1010.29 248.256V245.76C1010.73 246.032 1011.15 246.232 1011.56 246.36C1011.97 246.488 1012.39 246.552 1012.81 246.552C1013.18 246.552 1013.51 246.448 1013.79 246.24C1014.08 246.04 1014.33 245.756 1014.53 245.388C1014.74 245.028 1014.92 244.608 1015.06 244.128L1015.42 243L1010.74 231.36ZM495.232 284.336C494.256 284.336 493.348 284.084 492.508 283.58C491.676 283.068 491 282.352 490.48 281.432C489.968 280.504 489.712 279.416 489.712 278.168C489.712 276.848 489.968 275.732 490.48 274.82C491 273.9 491.676 273.204 492.508 272.732C493.348 272.26 494.256 272.024 495.232 272.024C495.992 272.024 496.66 272.148 497.236 272.396C497.82 272.636 498.316 272.964 498.724 273.38C499.132 273.788 499.452 274.244 499.684 274.748C499.916 275.252 500.064 275.76 500.128 276.272L497.272 276.344C497.144 275.832 496.904 275.408 496.552 275.072C496.208 274.736 495.76 274.568 495.208 274.568C494.752 274.568 494.324 274.696 493.924 274.952C493.524 275.2 493.196 275.588 492.94 276.116C492.692 276.644 492.568 277.328 492.568 278.168C492.568 278.968 492.684 279.636 492.916 280.172C493.156 280.7 493.476 281.1 493.876 281.372C494.276 281.636 494.72 281.768 495.208 281.768C495.928 281.768 496.452 281.596 496.78 281.252C497.108 280.9 497.272 280.432 497.272 279.848H500.128C500.128 280.672 499.94 281.424 499.564 282.104C499.188 282.784 498.636 283.328 497.908 283.736C497.18 284.136 496.288 284.336 495.232 284.336ZM507.504 284.336C506.44 284.336 505.476 284.108 504.612 283.652C503.756 283.196 503.076 282.516 502.572 281.612C502.068 280.7 501.816 279.56 501.816 278.192C501.816 276.8 502.068 275.648 502.572 274.736C503.076 273.824 503.756 273.144 504.612 272.696C505.476 272.248 506.44 272.024 507.504 272.024C508.552 272.024 509.5 272.248 510.348 272.696C511.204 273.144 511.884 273.824 512.388 274.736C512.892 275.648 513.144 276.8 513.144 278.192C513.144 279.56 512.892 280.7 512.388 281.612C511.884 282.516 511.204 283.196 510.348 283.652C509.5 284.108 508.552 284.336 507.504 284.336ZM507.408 281.864C507.968 281.864 508.464 281.728 508.896 281.456C509.336 281.176 509.68 280.764 509.928 280.22C510.184 279.676 510.312 279 510.312 278.192C510.312 276.96 510.068 276.032 509.58 275.408C509.1 274.784 508.44 274.472 507.6 274.472C507.032 274.472 506.528 274.612 506.088 274.892C505.648 275.164 505.3 275.576 505.044 276.128C504.796 276.68 504.672 277.368 504.672 278.192C504.672 279.408 504.916 280.324 505.404 280.94C505.9 281.556 506.568 281.864 507.408 281.864ZM531.729 284V277.184C531.729 276.32 531.521 275.668 531.105 275.228C530.689 274.788 530.145 274.568 529.473 274.568C528.625 274.568 527.957 274.912 527.469 275.6C526.981 276.288 526.737 277.328 526.737 278.72H525.561C525.561 277.496 525.673 276.46 525.897 275.612C526.129 274.756 526.453 274.068 526.869 273.548C527.293 273.02 527.789 272.636 528.357 272.396C528.925 272.148 529.553 272.024 530.241 272.024C531.193 272.024 531.989 272.24 532.629 272.672C533.277 273.096 533.765 273.696 534.093 274.472C534.421 275.248 534.585 276.152 534.585 277.184V284H531.729ZM515.913 284V272.36H518.385L518.697 274.352C519.081 273.576 519.589 272.996 520.221 272.612C520.853 272.22 521.577 272.024 522.393 272.024C523.353 272.024 524.153 272.24 524.793 272.672C525.441 273.096 525.925 273.696 526.245 274.472C526.573 275.248 526.737 276.152 526.737 277.184V284H523.905V277.184C523.905 276.32 523.697 275.668 523.281 275.228C522.865 274.788 522.321 274.568 521.649 274.568C521.081 274.568 520.577 274.724 520.137 275.036C519.705 275.348 519.365 275.82 519.117 276.452C518.869 277.076 518.745 277.856 518.745 278.792V284H515.913ZM553.911 284V277.184C553.911 276.32 553.703 275.668 553.287 275.228C552.871 274.788 552.327 274.568 551.655 274.568C550.807 274.568 550.139 274.912 549.651 275.6C549.163 276.288 548.919 277.328 548.919 278.72H547.743C547.743 277.496 547.855 276.46 548.079 275.612C548.311 274.756 548.635 274.068 549.051 273.548C549.475 273.02 549.971 272.636 550.539 272.396C551.107 272.148 551.735 272.024 552.423 272.024C553.375 272.024 554.171 272.24 554.811 272.672C555.459 273.096 555.947 273.696 556.275 274.472C556.603 275.248 556.767 276.152 556.767 277.184V284H553.911ZM538.095 284V272.36H540.567L540.879 274.352C541.263 273.576 541.771 272.996 542.403 272.612C543.035 272.22 543.759 272.024 544.575 272.024C545.535 272.024 546.335 272.24 546.975 272.672C547.623 273.096 548.107 273.696 548.427 274.472C548.755 275.248 548.919 276.152 548.919 277.184V284H546.087V277.184C546.087 276.32 545.879 275.668 545.463 275.228C545.047 274.788 544.503 274.568 543.831 274.568C543.263 274.568 542.759 274.724 542.319 275.036C541.887 275.348 541.547 275.82 541.299 276.452C541.051 277.076 540.927 277.856 540.927 278.792V284H538.095ZM568.028 272.312H570.86V284H568.028V272.312ZM560.036 272.312H562.868V279.464C562.868 280.224 563.056 280.796 563.432 281.18C563.808 281.556 564.324 281.744 564.98 281.744C565.54 281.744 566.048 281.6 566.504 281.312C566.968 281.016 567.336 280.584 567.608 280.016C567.888 279.44 568.028 278.728 568.028 277.88H568.796C568.796 279.304 568.612 280.484 568.244 281.42C567.876 282.356 567.368 283.056 566.72 283.52C566.072 283.984 565.324 284.216 564.476 284.216C563.644 284.216 562.892 284.068 562.22 283.772C561.548 283.476 561.016 283 560.624 282.344C560.232 281.688 560.036 280.824 560.036 279.752V272.312ZM582.715 284V277.184C582.715 276.32 582.507 275.668 582.091 275.228C581.675 274.788 581.131 274.568 580.459 274.568C579.891 274.568 579.387 274.724 578.947 275.036C578.515 275.348 578.175 275.82 577.927 276.452C577.679 277.076 577.555 277.856 577.555 278.792H576.619C576.619 277.28 576.807 276.024 577.183 275.024C577.559 274.016 578.091 273.264 578.779 272.768C579.467 272.272 580.275 272.024 581.203 272.024C582.163 272.024 582.963 272.24 583.603 272.672C584.251 273.096 584.735 273.696 585.055 274.472C585.383 275.248 585.547 276.152 585.547 277.184V284H582.715ZM574.723 284V272.36H577.195L577.555 274.664V284H574.723ZM590.732 270.224C590.18 270.224 589.748 270.08 589.436 269.792C589.132 269.496 588.98 269.088 588.98 268.568C588.98 268.064 589.132 267.664 589.436 267.368C589.748 267.064 590.18 266.912 590.732 266.912C591.276 266.912 591.704 267.064 592.016 267.368C592.328 267.664 592.484 268.064 592.484 268.568C592.484 269.088 592.328 269.496 592.016 269.792C591.704 270.08 591.276 270.224 590.732 270.224ZM589.316 284V272.312H592.148V284H589.316ZM600.767 284.336C599.791 284.336 598.883 284.084 598.043 283.58C597.211 283.068 596.535 282.352 596.015 281.432C595.503 280.504 595.247 279.416 595.247 278.168C595.247 276.848 595.503 275.732 596.015 274.82C596.535 273.9 597.211 273.204 598.043 272.732C598.883 272.26 599.791 272.024 600.767 272.024C601.527 272.024 602.195 272.148 602.771 272.396C603.355 272.636 603.851 272.964 604.259 273.38C604.667 273.788 604.987 274.244 605.219 274.748C605.451 275.252 605.599 275.76 605.663 276.272L602.807 276.344C602.679 275.832 602.439 275.408 602.087 275.072C601.743 274.736 601.295 274.568 600.743 274.568C600.287 274.568 599.859 274.696 599.459 274.952C599.059 275.2 598.731 275.588 598.475 276.116C598.227 276.644 598.103 277.328 598.103 278.168C598.103 278.968 598.219 279.636 598.451 280.172C598.691 280.7 599.011 281.1 599.411 281.372C599.811 281.636 600.255 281.768 600.743 281.768C601.463 281.768 601.987 281.596 602.315 281.252C602.643 280.9 602.807 280.432 602.807 279.848H605.663C605.663 280.672 605.475 281.424 605.099 282.104C604.723 282.784 604.171 283.328 603.443 283.736C602.715 284.136 601.823 284.336 600.767 284.336ZM615.87 284L615.51 281.168V276.488C615.51 275.672 615.342 275.068 615.006 274.676C614.678 274.284 614.118 274.088 613.326 274.088C612.87 274.088 612.474 274.156 612.138 274.292C611.802 274.428 611.542 274.624 611.358 274.88C611.182 275.128 611.094 275.432 611.094 275.792H607.998C607.998 274.912 608.21 274.196 608.634 273.644C609.058 273.084 609.666 272.676 610.458 272.42C611.258 272.156 612.214 272.024 613.326 272.024C614.334 272.024 615.214 272.188 615.966 272.516C616.718 272.836 617.302 273.332 617.718 274.004C618.134 274.676 618.342 275.536 618.342 276.584V284H615.87ZM612.054 284.336C611.054 284.336 610.218 284.164 609.546 283.82C608.882 283.468 608.382 283.008 608.046 282.44C607.71 281.872 607.542 281.256 607.542 280.592C607.542 279.856 607.734 279.24 608.118 278.744C608.51 278.24 609.062 277.864 609.774 277.616C610.486 277.36 611.326 277.232 612.294 277.232C612.926 277.232 613.522 277.28 614.082 277.376C614.65 277.472 615.214 277.6 615.774 277.76V279.416C615.334 279.272 614.854 279.16 614.334 279.08C613.814 279 613.326 278.96 612.87 278.96C612.198 278.96 611.646 279.084 611.214 279.332C610.782 279.58 610.566 280 610.566 280.592C610.566 281.024 610.742 281.396 611.094 281.708C611.446 282.02 612.006 282.176 612.774 282.176C613.358 282.176 613.854 282.048 614.262 281.792C614.67 281.536 614.978 281.216 615.186 280.832C615.402 280.448 615.51 280.064 615.51 279.68H616.182C616.182 280.52 616.026 281.296 615.714 282.008C615.402 282.712 614.938 283.276 614.322 283.7C613.714 284.124 612.958 284.336 612.054 284.336ZM625.829 284.336C625.141 284.336 624.509 284.208 623.933 283.952C623.365 283.696 622.909 283.304 622.565 282.776C622.229 282.248 622.061 281.576 622.061 280.76V269.264H624.893V280.664C624.893 281.624 625.349 282.104 626.261 282.104C626.541 282.104 626.821 282.072 627.101 282.008C627.381 281.944 627.701 281.848 628.061 281.72L628.469 283.712C628.021 283.888 627.585 284.036 627.161 284.156C626.737 284.276 626.293 284.336 625.829 284.336ZM620.429 274.232V272.36H628.061V274.232H620.429ZM635.106 284.336C634.114 284.336 633.206 284.08 632.382 283.568C631.558 283.056 630.898 282.34 630.402 281.42C629.906 280.492 629.658 279.408 629.658 278.168C629.658 276.888 629.902 275.788 630.39 274.868C630.886 273.948 631.546 273.244 632.37 272.756C633.194 272.268 634.106 272.024 635.106 272.024C636.034 272.024 636.834 272.212 637.506 272.588C638.186 272.956 638.73 273.46 639.138 274.1C639.554 274.732 639.834 275.448 639.978 276.248C640.122 277.048 640.13 277.872 640.002 278.72H631.914V277.184H637.998L637.446 277.544C637.47 277.168 637.45 276.788 637.386 276.404C637.33 276.02 637.218 275.668 637.05 275.348C636.882 275.028 636.642 274.772 636.33 274.58C636.026 274.38 635.634 274.28 635.154 274.28C634.578 274.28 634.09 274.424 633.69 274.712C633.29 275 632.986 275.392 632.778 275.888C632.57 276.384 632.466 276.944 632.466 277.568V278.696C632.466 279.352 632.562 279.932 632.754 280.436C632.954 280.94 633.246 281.336 633.63 281.624C634.022 281.912 634.514 282.056 635.106 282.056C635.658 282.056 636.122 281.928 636.498 281.672C636.874 281.416 637.114 281.032 637.218 280.52H640.074C639.954 281.272 639.67 281.936 639.222 282.512C638.782 283.08 638.21 283.528 637.506 283.856C636.802 284.176 636.002 284.336 635.106 284.336ZM653.207 280.904L657.191 268.424H660.167L654.815 284H651.839L646.559 268.424H649.559L653.495 280.904H653.207ZM663.876 270.224C663.324 270.224 662.892 270.08 662.58 269.792C662.276 269.496 662.124 269.088 662.124 268.568C662.124 268.064 662.276 267.664 662.58 267.368C662.892 267.064 663.324 266.912 663.876 266.912C664.42 266.912 664.848 267.064 665.16 267.368C665.472 267.664 665.628 268.064 665.628 268.568C665.628 269.088 665.472 269.496 665.16 269.792C664.848 270.08 664.42 270.224 663.876 270.224ZM662.46 284V272.312H665.292V284H662.46ZM667.551 272.36H670.815L673.599 281.576H673.383L676.167 272.36H679.431L675.087 284H671.895L667.551 272.36ZM688.756 284L688.396 281.168V276.488C688.396 275.672 688.228 275.068 687.892 274.676C687.564 274.284 687.004 274.088 686.212 274.088C685.756 274.088 685.36 274.156 685.024 274.292C684.688 274.428 684.428 274.624 684.244 274.88C684.068 275.128 683.98 275.432 683.98 275.792H680.884C680.884 274.912 681.096 274.196 681.52 273.644C681.944 273.084 682.552 272.676 683.344 272.42C684.144 272.156 685.1 272.024 686.212 272.024C687.22 272.024 688.1 272.188 688.852 272.516C689.604 272.836 690.188 273.332 690.604 274.004C691.02 274.676 691.228 275.536 691.228 276.584V284H688.756ZM684.94 284.336C683.94 284.336 683.104 284.164 682.432 283.82C681.768 283.468 681.268 283.008 680.932 282.44C680.596 281.872 680.428 281.256 680.428 280.592C680.428 279.856 680.62 279.24 681.004 278.744C681.396 278.24 681.948 277.864 682.66 277.616C683.372 277.36 684.212 277.232 685.18 277.232C685.812 277.232 686.408 277.28 686.968 277.376C687.536 277.472 688.1 277.6 688.66 277.76V279.416C688.22 279.272 687.74 279.16 687.22 279.08C686.7 279 686.212 278.96 685.756 278.96C685.084 278.96 684.532 279.084 684.1 279.332C683.668 279.58 683.452 280 683.452 280.592C683.452 281.024 683.628 281.396 683.98 281.708C684.332 282.02 684.892 282.176 685.66 282.176C686.244 282.176 686.74 282.048 687.148 281.792C687.556 281.536 687.864 281.216 688.072 280.832C688.288 280.448 688.396 280.064 688.396 279.68H689.068C689.068 280.52 688.912 281.296 688.6 282.008C688.288 282.712 687.824 283.276 687.208 283.7C686.6 284.124 685.844 284.336 684.94 284.336ZM703.081 268.424V281.528H709.489V284H700.249V268.424H703.081ZM718.925 284L718.565 281.168V276.488C718.565 275.672 718.397 275.068 718.061 274.676C717.733 274.284 717.173 274.088 716.381 274.088C715.925 274.088 715.529 274.156 715.193 274.292C714.857 274.428 714.597 274.624 714.413 274.88C714.237 275.128 714.149 275.432 714.149 275.792H711.053C711.053 274.912 711.265 274.196 711.689 273.644C712.113 273.084 712.721 272.676 713.513 272.42C714.313 272.156 715.269 272.024 716.381 272.024C717.389 272.024 718.269 272.188 719.021 272.516C719.773 272.836 720.357 273.332 720.773 274.004C721.189 274.676 721.397 275.536 721.397 276.584V284H718.925ZM715.109 284.336C714.109 284.336 713.273 284.164 712.601 283.82C711.937 283.468 711.437 283.008 711.101 282.44C710.765 281.872 710.597 281.256 710.597 280.592C710.597 279.856 710.789 279.24 711.173 278.744C711.565 278.24 712.117 277.864 712.829 277.616C713.541 277.36 714.381 277.232 715.349 277.232C715.981 277.232 716.577 277.28 717.137 277.376C717.705 277.472 718.269 277.6 718.829 277.76V279.416C718.389 279.272 717.909 279.16 717.389 279.08C716.869 279 716.381 278.96 715.925 278.96C715.253 278.96 714.701 279.084 714.269 279.332C713.837 279.58 713.621 280 713.621 280.592C713.621 281.024 713.797 281.396 714.149 281.708C714.501 282.02 715.061 282.176 715.829 282.176C716.413 282.176 716.909 282.048 717.317 281.792C717.725 281.536 718.033 281.216 718.241 280.832C718.457 280.448 718.565 280.064 718.565 279.68H719.237C719.237 280.52 719.081 281.296 718.769 282.008C718.457 282.712 717.993 283.276 717.377 283.7C716.769 284.124 716.013 284.336 715.109 284.336ZM730.418 268.424H734.474L738.866 277.952H738.626L743.018 268.424H746.93V284H744.074V271.688H744.506L739.658 282.296H737.81L732.986 271.736H733.25V284H730.418V268.424ZM758.211 284L757.851 281.168V276.488C757.851 275.672 757.683 275.068 757.347 274.676C757.019 274.284 756.459 274.088 755.667 274.088C755.211 274.088 754.815 274.156 754.479 274.292C754.143 274.428 753.883 274.624 753.699 274.88C753.523 275.128 753.435 275.432 753.435 275.792H750.339C750.339 274.912 750.551 274.196 750.975 273.644C751.399 273.084 752.007 272.676 752.799 272.42C753.599 272.156 754.555 272.024 755.667 272.024C756.675 272.024 757.555 272.188 758.307 272.516C759.059 272.836 759.643 273.332 760.059 274.004C760.475 274.676 760.682 275.536 760.682 276.584V284H758.211ZM754.395 284.336C753.395 284.336 752.559 284.164 751.887 283.82C751.223 283.468 750.723 283.008 750.387 282.44C750.051 281.872 749.883 281.256 749.883 280.592C749.883 279.856 750.075 279.24 750.459 278.744C750.851 278.24 751.403 277.864 752.115 277.616C752.827 277.36 753.667 277.232 754.635 277.232C755.267 277.232 755.863 277.28 756.423 277.376C756.991 277.472 757.555 277.6 758.115 277.76V279.416C757.675 279.272 757.195 279.16 756.675 279.08C756.155 279 755.667 278.96 755.211 278.96C754.539 278.96 753.987 279.084 753.555 279.332C753.123 279.58 752.907 280 752.907 280.592C752.907 281.024 753.083 281.396 753.435 281.708C753.787 282.02 754.347 282.176 755.115 282.176C755.699 282.176 756.195 282.048 756.603 281.792C757.011 281.536 757.319 281.216 757.527 280.832C757.743 280.448 757.851 280.064 757.851 279.68H758.523C758.523 280.52 758.367 281.296 758.055 282.008C757.743 282.712 757.279 283.276 756.663 283.7C756.055 284.124 755.299 284.336 754.395 284.336ZM780.05 284V277.184C780.05 276.32 779.842 275.668 779.426 275.228C779.01 274.788 778.466 274.568 777.794 274.568C776.946 274.568 776.278 274.912 775.79 275.6C775.302 276.288 775.058 277.328 775.058 278.72H773.882C773.882 277.496 773.994 276.46 774.218 275.612C774.45 274.756 774.774 274.068 775.19 273.548C775.614 273.02 776.11 272.636 776.678 272.396C777.246 272.148 777.874 272.024 778.562 272.024C779.514 272.024 780.31 272.24 780.95 272.672C781.598 273.096 782.086 273.696 782.414 274.472C782.742 275.248 782.906 276.152 782.906 277.184V284H780.05ZM764.234 284V272.36H766.706L767.018 274.352C767.402 273.576 767.91 272.996 768.542 272.612C769.174 272.22 769.898 272.024 770.714 272.024C771.674 272.024 772.474 272.24 773.114 272.672C773.762 273.096 774.246 273.696 774.566 274.472C774.894 275.248 775.058 276.152 775.058 277.184V284H772.226V277.184C772.226 276.32 772.018 275.668 771.602 275.228C771.186 274.788 770.642 274.568 769.97 274.568C769.402 274.568 768.898 274.724 768.458 275.036C768.026 275.348 767.686 275.82 767.438 276.452C767.19 277.076 767.066 277.856 767.066 278.792V284H764.234ZM802.231 284V277.184C802.231 276.32 802.023 275.668 801.607 275.228C801.191 274.788 800.647 274.568 799.975 274.568C799.127 274.568 798.459 274.912 797.971 275.6C797.483 276.288 797.239 277.328 797.239 278.72H796.063C796.063 277.496 796.175 276.46 796.399 275.612C796.631 274.756 796.955 274.068 797.371 273.548C797.795 273.02 798.291 272.636 798.859 272.396C799.427 272.148 800.055 272.024 800.743 272.024C801.695 272.024 802.491 272.24 803.131 272.672C803.779 273.096 804.267 273.696 804.595 274.472C804.923 275.248 805.087 276.152 805.087 277.184V284H802.231ZM786.415 284V272.36H788.887L789.199 274.352C789.583 273.576 790.091 272.996 790.723 272.612C791.355 272.22 792.079 272.024 792.895 272.024C793.855 272.024 794.655 272.24 795.295 272.672C795.943 273.096 796.427 273.696 796.747 274.472C797.075 275.248 797.239 276.152 797.239 277.184V284H794.407V277.184C794.407 276.32 794.199 275.668 793.783 275.228C793.367 274.788 792.823 274.568 792.151 274.568C791.583 274.568 791.079 274.724 790.639 275.036C790.207 275.348 789.867 275.82 789.619 276.452C789.371 277.076 789.247 277.856 789.247 278.792V284H786.415ZM816.012 284L815.652 281.168V276.488C815.652 275.672 815.484 275.068 815.148 274.676C814.82 274.284 814.26 274.088 813.468 274.088C813.012 274.088 812.616 274.156 812.28 274.292C811.944 274.428 811.684 274.624 811.5 274.88C811.324 275.128 811.236 275.432 811.236 275.792H808.14C808.14 274.912 808.352 274.196 808.776 273.644C809.2 273.084 809.808 272.676 810.6 272.42C811.4 272.156 812.356 272.024 813.468 272.024C814.476 272.024 815.356 272.188 816.108 272.516C816.86 272.836 817.444 273.332 817.86 274.004C818.276 274.676 818.484 275.536 818.484 276.584V284H816.012ZM812.196 284.336C811.196 284.336 810.36 284.164 809.688 283.82C809.024 283.468 808.524 283.008 808.188 282.44C807.852 281.872 807.684 281.256 807.684 280.592C807.684 279.856 807.876 279.24 808.26 278.744C808.652 278.24 809.204 277.864 809.916 277.616C810.628 277.36 811.468 277.232 812.436 277.232C813.068 277.232 813.664 277.28 814.224 277.376C814.792 277.472 815.356 277.6 815.916 277.76V279.416C815.476 279.272 814.996 279.16 814.476 279.08C813.956 279 813.468 278.96 813.012 278.96C812.34 278.96 811.788 279.084 811.356 279.332C810.924 279.58 810.708 280 810.708 280.592C810.708 281.024 810.884 281.396 811.236 281.708C811.588 282.02 812.148 282.176 812.916 282.176C813.5 282.176 813.996 282.048 814.404 281.792C814.812 281.536 815.12 281.216 815.328 280.832C815.544 280.448 815.652 280.064 815.652 279.68H816.324C816.324 280.52 816.168 281.296 815.856 282.008C815.544 282.712 815.08 283.276 814.464 283.7C813.856 284.124 813.1 284.336 812.196 284.336ZM822.467 274.904L820.499 273.8C821.027 273.544 821.495 273.244 821.903 272.9C822.311 272.556 822.587 272.16 822.731 271.712C822.259 271.64 821.867 271.464 821.555 271.184C821.251 270.896 821.099 270.528 821.099 270.08C821.099 269.576 821.287 269.164 821.663 268.844C822.047 268.516 822.515 268.352 823.067 268.352C823.539 268.352 823.939 268.472 824.267 268.712C824.603 268.952 824.859 269.268 825.035 269.66C825.211 270.052 825.299 270.48 825.299 270.944C825.299 271.736 825.035 272.484 824.507 273.188C823.987 273.884 823.307 274.456 822.467 274.904ZM832.295 284.336C831.175 284.336 830.211 284.184 829.403 283.88C828.603 283.568 827.987 283.124 827.555 282.548C827.123 281.964 826.903 281.264 826.895 280.448H829.511C829.535 281.024 829.763 281.444 830.195 281.708C830.627 281.972 831.215 282.104 831.959 282.104C832.367 282.104 832.727 282.044 833.039 281.924C833.359 281.804 833.607 281.64 833.783 281.432C833.959 281.224 834.047 280.992 834.047 280.736C834.047 280.408 833.927 280.152 833.687 279.968C833.455 279.776 833.079 279.6 832.559 279.44L830.015 278.528C829.103 278.2 828.403 277.768 827.915 277.232C827.427 276.696 827.183 276.056 827.183 275.312C827.183 274.328 827.627 273.536 828.515 272.936C829.411 272.328 830.607 272.024 832.103 272.024C833.591 272.024 834.739 272.352 835.547 273.008C836.363 273.656 836.783 274.48 836.807 275.48H834.143C834.103 275.096 833.919 274.792 833.591 274.568C833.263 274.344 832.767 274.232 832.103 274.232C831.503 274.232 831.031 274.356 830.687 274.604C830.351 274.844 830.183 275.128 830.183 275.456C830.183 276.008 830.655 276.424 831.599 276.704L834.359 277.736C835.255 278.04 835.951 278.432 836.447 278.912C836.943 279.392 837.191 280 837.191 280.736C837.191 281.352 836.983 281.936 836.567 282.488C836.159 283.032 835.587 283.476 834.851 283.82C834.115 284.164 833.263 284.336 832.295 284.336ZM851.429 284.336C850.701 284.336 850.033 284.132 849.425 283.724C848.825 283.316 848.345 282.708 847.985 281.9C847.625 281.084 847.445 280.064 847.445 278.84H848.309C848.309 279.424 848.441 279.936 848.705 280.376C848.969 280.816 849.309 281.16 849.725 281.408C850.141 281.648 850.573 281.768 851.021 281.768C851.573 281.768 852.065 281.616 852.497 281.312C852.929 281.008 853.269 280.584 853.517 280.04C853.773 279.496 853.901 278.856 853.901 278.12C853.901 277.408 853.777 276.788 853.529 276.26C853.281 275.724 852.937 275.308 852.497 275.012C852.065 274.716 851.565 274.568 850.997 274.568C850.525 274.568 850.085 274.684 849.677 274.916C849.269 275.14 848.937 275.468 848.681 275.9C848.433 276.324 848.309 276.84 848.309 277.448H847.445C847.445 276.272 847.613 275.28 847.949 274.472C848.293 273.664 848.777 273.056 849.401 272.648C850.033 272.232 850.781 272.024 851.645 272.024C852.589 272.024 853.445 272.276 854.213 272.78C854.989 273.276 855.605 273.984 856.061 274.904C856.525 275.816 856.757 276.888 856.757 278.12C856.757 279.368 856.517 280.46 856.037 281.396C855.565 282.324 854.925 283.048 854.117 283.568C853.309 284.08 852.413 284.336 851.429 284.336ZM845.477 284V267.536H848.309V281.12L847.325 284H845.477ZM859.62 284V272.312H862.452V284H859.62ZM861.756 278.888C861.756 277.36 861.928 276.096 862.272 275.096C862.616 274.096 863.076 273.356 863.652 272.876C864.236 272.388 864.884 272.144 865.596 272.144C865.788 272.144 865.968 272.156 866.136 272.18C866.312 272.204 866.484 272.24 866.652 272.288L866.604 275.12C866.396 275.072 866.172 275.032 865.932 275C865.692 274.968 865.476 274.952 865.284 274.952C864.66 274.952 864.136 275.104 863.712 275.408C863.296 275.704 862.98 276.144 862.764 276.728C862.556 277.312 862.452 278.032 862.452 278.888H861.756ZM875.857 284L875.497 281.168V276.488C875.497 275.672 875.329 275.068 874.993 274.676C874.665 274.284 874.105 274.088 873.313 274.088C872.857 274.088 872.461 274.156 872.125 274.292C871.789 274.428 871.529 274.624 871.345 274.88C871.169 275.128 871.081 275.432 871.081 275.792H867.985C867.985 274.912 868.197 274.196 868.621 273.644C869.045 273.084 869.653 272.676 870.445 272.42C871.245 272.156 872.201 272.024 873.313 272.024C874.321 272.024 875.201 272.188 875.953 272.516C876.705 272.836 877.289 273.332 877.705 274.004C878.121 274.676 878.329 275.536 878.329 276.584V284H875.857ZM872.041 284.336C871.041 284.336 870.205 284.164 869.533 283.82C868.869 283.468 868.369 283.008 868.033 282.44C867.697 281.872 867.529 281.256 867.529 280.592C867.529 279.856 867.721 279.24 868.105 278.744C868.497 278.24 869.049 277.864 869.761 277.616C870.473 277.36 871.313 277.232 872.281 277.232C872.913 277.232 873.509 277.28 874.069 277.376C874.637 277.472 875.201 277.6 875.761 277.76V279.416C875.321 279.272 874.841 279.16 874.321 279.08C873.801 279 873.313 278.96 872.857 278.96C872.185 278.96 871.633 279.084 871.201 279.332C870.769 279.58 870.553 280 870.553 280.592C870.553 281.024 870.729 281.396 871.081 281.708C871.433 282.02 871.993 282.176 872.761 282.176C873.345 282.176 873.841 282.048 874.249 281.792C874.657 281.536 874.965 281.216 875.173 280.832C875.389 280.448 875.497 280.064 875.497 279.68H876.169C876.169 280.52 876.013 281.296 875.701 282.008C875.389 282.712 874.925 283.276 874.309 283.7C873.701 284.124 872.945 284.336 872.041 284.336ZM889.872 284V277.184C889.872 276.32 889.664 275.668 889.248 275.228C888.832 274.788 888.288 274.568 887.616 274.568C887.048 274.568 886.544 274.724 886.104 275.036C885.672 275.348 885.332 275.82 885.084 276.452C884.836 277.076 884.712 277.856 884.712 278.792H883.776C883.776 277.28 883.964 276.024 884.34 275.024C884.716 274.016 885.248 273.264 885.936 272.768C886.624 272.272 887.432 272.024 888.36 272.024C889.32 272.024 890.12 272.24 890.76 272.672C891.408 273.096 891.892 273.696 892.212 274.472C892.54 275.248 892.704 276.152 892.704 277.184V284H889.872ZM881.88 284V272.36H884.352L884.712 274.664V284H881.88ZM900.53 284.336C899.554 284.336 898.662 284.08 897.854 283.568C897.054 283.048 896.414 282.324 895.934 281.396C895.462 280.46 895.226 279.368 895.226 278.12C895.226 276.888 895.454 275.816 895.91 274.904C896.374 273.984 896.99 273.276 897.758 272.78C898.534 272.276 899.394 272.024 900.338 272.024C901.202 272.024 901.95 272.232 902.582 272.648C903.214 273.056 903.698 273.664 904.034 274.472C904.37 275.28 904.538 276.272 904.538 277.448H903.65C903.65 276.84 903.526 276.324 903.278 275.9C903.03 275.468 902.702 275.14 902.294 274.916C901.894 274.684 901.458 274.568 900.986 274.568C900.418 274.568 899.914 274.716 899.474 275.012C899.042 275.308 898.702 275.724 898.454 276.26C898.206 276.788 898.082 277.408 898.082 278.12C898.082 278.856 898.206 279.496 898.454 280.04C898.702 280.584 899.042 281.008 899.474 281.312C899.914 281.616 900.41 281.768 900.962 281.768C901.41 281.768 901.838 281.648 902.246 281.408C902.662 281.16 902.998 280.816 903.254 280.376C903.518 279.936 903.65 279.424 903.65 278.84H904.538C904.538 280.064 904.354 281.084 903.986 281.9C903.626 282.708 903.142 283.316 902.534 283.724C901.926 284.132 901.258 284.336 900.53 284.336ZM904.178 284L903.65 281.12V267.536H906.506V284H904.178ZM917.502 270.224C916.95 270.224 916.518 270.08 916.206 269.792C915.902 269.496 915.75 269.088 915.75 268.568C915.75 268.064 915.902 267.664 916.206 267.368C916.518 267.064 916.95 266.912 917.502 266.912C918.046 266.912 918.474 267.064 918.786 267.368C919.098 267.664 919.254 268.064 919.254 268.568C919.254 269.088 919.098 269.496 918.786 269.792C918.474 270.08 918.046 270.224 917.502 270.224ZM916.086 284V272.312H918.918V284H916.086ZM927.417 284.336C926.441 284.336 925.549 284.08 924.741 283.568C923.941 283.048 923.301 282.324 922.821 281.396C922.349 280.46 922.113 279.368 922.113 278.12C922.113 276.888 922.341 275.816 922.797 274.904C923.261 273.984 923.877 273.276 924.645 272.78C925.421 272.276 926.281 272.024 927.225 272.024C928.089 272.024 928.837 272.232 929.469 272.648C930.101 273.056 930.585 273.664 930.921 274.472C931.257 275.28 931.425 276.272 931.425 277.448H930.537C930.537 276.84 930.413 276.324 930.165 275.9C929.917 275.468 929.589 275.14 929.181 274.916C928.781 274.684 928.345 274.568 927.873 274.568C927.305 274.568 926.801 274.716 926.361 275.012C925.929 275.308 925.589 275.724 925.341 276.26C925.093 276.788 924.969 277.408 924.969 278.12C924.969 278.856 925.093 279.496 925.341 280.04C925.589 280.584 925.929 281.008 926.361 281.312C926.801 281.616 927.297 281.768 927.849 281.768C928.297 281.768 928.725 281.648 929.133 281.408C929.549 281.16 929.885 280.816 930.141 280.376C930.405 279.936 930.537 279.424 930.537 278.84H931.425C931.425 280.064 931.241 281.084 930.873 281.9C930.513 282.708 930.029 283.316 929.421 283.724C928.813 284.132 928.145 284.336 927.417 284.336ZM931.065 284L930.537 281.12V267.536H933.393V284H931.065ZM941.607 284.336C940.615 284.336 939.707 284.08 938.883 283.568C938.059 283.056 937.399 282.34 936.903 281.42C936.407 280.492 936.159 279.408 936.159 278.168C936.159 276.888 936.403 275.788 936.891 274.868C937.387 273.948 938.047 273.244 938.871 272.756C939.695 272.268 940.607 272.024 941.607 272.024C942.535 272.024 943.335 272.212 944.007 272.588C944.687 272.956 945.231 273.46 945.639 274.1C946.055 274.732 946.335 275.448 946.479 276.248C946.623 277.048 946.631 277.872 946.503 278.72H938.415V277.184H944.499L943.947 277.544C943.971 277.168 943.951 276.788 943.887 276.404C943.831 276.02 943.719 275.668 943.551 275.348C943.383 275.028 943.143 274.772 942.831 274.58C942.527 274.38 942.135 274.28 941.655 274.28C941.079 274.28 940.591 274.424 940.191 274.712C939.791 275 939.487 275.392 939.279 275.888C939.071 276.384 938.967 276.944 938.967 277.568V278.696C938.967 279.352 939.063 279.932 939.255 280.436C939.455 280.94 939.747 281.336 940.131 281.624C940.523 281.912 941.015 282.056 941.607 282.056C942.159 282.056 942.623 281.928 942.999 281.672C943.375 281.416 943.615 281.032 943.719 280.52H946.575C946.455 281.272 946.171 281.936 945.723 282.512C945.283 283.08 944.711 283.528 944.007 283.856C943.303 284.176 942.503 284.336 941.607 284.336ZM957.382 284V277.184C957.382 276.32 957.174 275.668 956.758 275.228C956.342 274.788 955.798 274.568 955.126 274.568C954.558 274.568 954.054 274.724 953.614 275.036C953.182 275.348 952.842 275.82 952.594 276.452C952.346 277.076 952.222 277.856 952.222 278.792H951.286C951.286 277.28 951.474 276.024 951.85 275.024C952.226 274.016 952.758 273.264 953.446 272.768C954.134 272.272 954.942 272.024 955.87 272.024C956.83 272.024 957.63 272.24 958.27 272.672C958.918 273.096 959.402 273.696 959.722 274.472C960.05 275.248 960.214 276.152 960.214 277.184V284H957.382ZM949.39 284V272.36H951.862L952.222 274.664V284H949.39ZM967.679 284.336C966.991 284.336 966.359 284.208 965.783 283.952C965.215 283.696 964.759 283.304 964.415 282.776C964.079 282.248 963.911 281.576 963.911 280.76V269.264H966.743V280.664C966.743 281.624 967.199 282.104 968.111 282.104C968.391 282.104 968.671 282.072 968.951 282.008C969.231 281.944 969.551 281.848 969.911 281.72L970.319 283.712C969.871 283.888 969.435 284.036 969.011 284.156C968.587 284.276 968.143 284.336 967.679 284.336ZM962.279 274.232V272.36H969.911V274.232H962.279ZM974.268 270.224C973.716 270.224 973.284 270.08 972.972 269.792C972.668 269.496 972.516 269.088 972.516 268.568C972.516 268.064 972.668 267.664 972.972 267.368C973.284 267.064 973.716 266.912 974.268 266.912C974.812 266.912 975.24 267.064 975.552 267.368C975.864 267.664 976.02 268.064 976.02 268.568C976.02 269.088 975.864 269.496 975.552 269.792C975.24 270.08 974.812 270.224 974.268 270.224ZM972.852 284V272.312H975.684V284H972.852ZM983.823 284.336C983.135 284.336 982.503 284.208 981.927 283.952C981.359 283.696 980.903 283.304 980.559 282.776C980.223 282.248 980.055 281.576 980.055 280.76V269.264H982.887V280.664C982.887 281.624 983.343 282.104 984.255 282.104C984.535 282.104 984.815 282.072 985.095 282.008C985.375 281.944 985.695 281.848 986.055 281.72L986.463 283.712C986.015 283.888 985.579 284.036 985.155 284.156C984.731 284.276 984.287 284.336 983.823 284.336ZM978.423 274.232V272.36H986.055V274.232H978.423ZM986.979 272.36H990.195L993.291 281.528H992.787L995.451 272.36H998.331L993.867 286.112C993.411 287.488 992.847 288.484 992.175 289.1C991.511 289.716 990.699 290.024 989.739 290.024C989.187 290.024 988.647 289.96 988.119 289.832C987.599 289.712 987.067 289.52 986.523 289.256V286.76C986.963 287.032 987.387 287.232 987.795 287.36C988.211 287.488 988.627 287.552 989.043 287.552C989.419 287.552 989.747 287.448 990.027 287.24C990.315 287.04 990.563 286.756 990.771 286.388C990.979 286.028 991.155 285.608 991.299 285.128L991.659 284L986.979 272.36ZM1002.22 279.344V278.384C1002.22 277.688 1002.3 277.116 1002.46 276.668C1002.63 276.22 1002.88 275.844 1003.23 275.54C1003.58 275.228 1004.04 274.928 1004.62 274.64C1005.12 274.384 1005.51 274.148 1005.79 273.932C1006.07 273.708 1006.27 273.48 1006.37 273.248C1006.48 273.016 1006.54 272.744 1006.54 272.432C1006.54 271.928 1006.33 271.512 1005.93 271.184C1005.52 270.848 1004.96 270.68 1004.26 270.68C1003.42 270.68 1002.77 270.868 1002.31 271.244C1001.87 271.612 1001.61 272.104 1001.55 272.72H998.593C998.681 271.328 999.193 270.212 1000.13 269.372C1001.07 268.532 1002.41 268.112 1004.14 268.112C1005.27 268.112 1006.25 268.304 1007.08 268.688C1007.9 269.072 1008.54 269.592 1008.99 270.248C1009.43 270.904 1009.66 271.64 1009.66 272.456C1009.66 273.288 1009.45 273.992 1009.02 274.568C1008.61 275.144 1007.95 275.656 1007.07 276.104C1006.55 276.368 1006.14 276.616 1005.84 276.848C1005.55 277.08 1005.35 277.336 1005.23 277.616C1005.11 277.888 1005.05 278.232 1005.05 278.648V279.344H1002.22ZM1003.71 284.336C1003.12 284.336 1002.65 284.156 1002.28 283.796C1001.92 283.436 1001.74 282.996 1001.74 282.476C1001.74 281.932 1001.92 281.48 1002.28 281.12C1002.65 280.752 1003.12 280.568 1003.69 280.568C1004.28 280.568 1004.76 280.752 1005.15 281.12C1005.53 281.48 1005.72 281.928 1005.72 282.464C1005.72 282.992 1005.53 283.436 1005.15 283.796C1004.76 284.156 1004.28 284.336 1003.71 284.336Z" fill="#666666"/>
</svg>
